<svg xmlns="http://www.w3.org/2000/svg" role="img" viewBox="-19.62 -20.62 1020.24 265.24"><style>.st0,.st1,.st2,.st3{fill:none;stroke:#969696;stroke-miterlimit:10}.st0{stroke-width:.76;stroke-dasharray:3.58}.st1,.st2,.st3{stroke-width:.89}.st2{stroke-dasharray:4.26,4.26}.st3{stroke-dasharray:4.24}.st4{fill:#dd2a7c}.st5,.st6{fill:none;stroke:#dd2a7c;stroke-width:1.34;stroke-miterlimit:10}.st6{stroke:#969696;stroke-width:.99;stroke-dasharray:4.67}</style><style>.st0,.st1,.st2,.st3{fill:none;stroke:#969696;stroke-miterlimit:10}.st0{stroke-width:.76;stroke-dasharray:3.58}.st1,.st2,.st3{stroke-width:.89}.st2{stroke-dasharray:4.26,4.26}.st3{stroke-dasharray:4.24}.st4{fill:#dd2a7c}.st5,.st6{fill:none;stroke:#dd2a7c;stroke-width:1.34;stroke-miterlimit:10}.st6{stroke:#969696;stroke-width:.99;stroke-dasharray:4.67}</style><style>.st0,.st1,.st2,.st3{fill:none;stroke:#969696;stroke-miterlimit:10}.st0{stroke-width:.76;stroke-dasharray:3.58}.st1,.st2,.st3{stroke-width:.89}.st2{stroke-dasharray:4.26,4.26}.st3{stroke-dasharray:4.24}.st4{fill:#dd2a7c}.st5,.st6{fill:none;stroke:#dd2a7c;stroke-width:1.34;stroke-miterlimit:10}.st6{stroke:#969696;stroke-width:.99;stroke-dasharray:4.67}</style><style>.st0,.st1,.st2,.st3{fill:none;stroke:#969696;stroke-miterlimit:10}.st0{stroke-width:.76;stroke-dasharray:3.58}.st1,.st2,.st3{stroke-width:.89}.st2{stroke-dasharray:4.26,4.26}.st3{stroke-dasharray:4.24}.st4{fill:#dd2a7c}.st5,.st6{fill:none;stroke:#dd2a7c;stroke-width:1.34;stroke-miterlimit:10}.st6{stroke:#969696;stroke-width:.99;stroke-dasharray:4.67}</style><style>.st0,.st1,.st2,.st3{fill:none;stroke:#969696;stroke-miterlimit:10}.st0{stroke-width:.76;stroke-dasharray:3.58}.st1,.st2,.st3{stroke-width:.89}.st2{stroke-dasharray:4.26,4.26}.st3{stroke-dasharray:4.24}.st4{fill:#dd2a7c}.st5,.st6{fill:none;stroke:#dd2a7c;stroke-width:1.34;stroke-miterlimit:10}.st6{stroke:#969696;stroke-width:.99;stroke-dasharray:4.67}</style><style>.st0,.st1,.st2,.st3{fill:none;stroke:#969696;stroke-miterlimit:10}.st0{stroke-width:.76;stroke-dasharray:3.58}.st1,.st2,.st3{stroke-width:.89}.st2{stroke-dasharray:4.26,4.26}.st3{stroke-dasharray:4.24}.st4{fill:#dd2a7c}.st5,.st6{fill:none;stroke:#dd2a7c;stroke-width:1.34;stroke-miterlimit:10}.st6{stroke:#969696;stroke-width:.99;stroke-dasharray:4.67}</style><path d="M460.7 69.7h59.8c7.5 0 13.6 6.1 13.6 13.6v59.8c0 7.5-6.1 13.6-13.6 13.6h-59.8c-7.5 0-13.6-6.1-13.6-13.6V83.2c0-7.4 6.1-13.5 13.6-13.5z" class="st0"/><path d="M461.2 75.5H520c4.6 0 8.3 3.7 8.3 8.3v58.8c0 4.6-3.7 8.3-8.3 8.3h-58.8c-4.6 0-8.3-3.7-8.3-8.3V83.7c0-4.5 3.7-8.2 8.3-8.2z" class="st0"/><path d="M38.1 4.4L39.3 3h1.8" class="st1"/><path d="M44.8 3h61.1c4.3.2 7.8 3.8 7.7 8.1v120.2c.1 4.3-3.3 7.9-7.7 8.1h-80c-4.3-.2-7.8-3.8-7.7-8.1v-105L36.9 5.7" class="st2"/><path d="M20.4 27h13.5c4.7 0 8.4-3.7 8.4-8.4V3" class="st3"/><path d="M41.8 66.2c-2 .1-4-.8-5.3-2.3-1.4-1.6-2.1-3.7-2.1-6.5-.2-2.3.6-4.7 2.2-6.5 1.4-1.6 3.4-2.4 5.3-2.3.9 0 1.9.2 2.8.6.7.3 1.4.9 1.9 1.5l-1.1 1.4c-.4-.4-.9-.9-1.6-1.1-.6-.3-1.3-.4-1.9-.4-1.6-.1-2.9.6-3.9 1.8-1 1.5-1.6 3.2-1.5 5-.1 1.8.4 3.6 1.5 5.1 1.4 1.8 3.9 2.4 6 1.4.7-.3 1.2-.9 1.7-1.4l1.2 1.3c-.6.8-1.4 1.4-2.2 1.8-1 .3-1.9.6-3 .6zm11.7-3v-5h-4.7v-1.6h4.7v-5.1h1.7v5.1h4.7v1.6h-4.7v5h-1.7zm12.7 0v-5h-4.7v-1.6h4.7v-5.1h1.6v5.1h4.7v1.6h-4.7v5h-1.6zM4.9 176.6c-.9 0-1.6-.2-2.5-.4-.8-.3-1.6-.8-2.2-1.4l1.6-2c.4.3.9.7 1.5.9s1 .3 1.6.3c1.1 0 1.7-.4 1.7-1.2 0-.3-.2-.7-.5-.9-.4-.3-.9-.4-1.3-.6l-1.6-.5c-.7-.3-1.2-.7-1.7-1.2-.5-.6-.9-1.4-.8-2.2 0-1 .4-2 1.2-2.7.9-.8 2.1-1.1 3.3-1.1.8 0 1.5.2 2.2.4.7.3 1.4.7 1.9 1.2l-1.5 1.9c-.3-.3-.8-.5-1.2-.8-.4-.2-.9-.3-1.4-.3-.4 0-.8.1-1.1.3-.4.3-.6.9-.3 1.4.1.2.3.3.4.3.3.2.9.4 1.4.6l1.6.7c.7.3 1.3.7 1.8 1.3.4.6.7 1.4.7 2.2 0 1-.4 2.1-1.2 2.8-1.1.7-2.4 1.1-3.6 1zm13.5 0c-1.6.1-3.1-.6-4.1-1.7-1.1-1.4-1.7-3.1-1.6-4.8-.1-1.7.4-3.4 1.6-4.7 1-1.1 2.6-1.8 4.1-1.7 1.6-.1 3.1.6 4.1 1.7 1.1 1.3 1.7 3 1.6 4.7.1 1.7-.4 3.4-1.6 4.8-1 1.2-2.6 1.8-4.1 1.7zm0-2.4c.9 0 1.6-.4 2.1-1.1.5-.9.8-2 .8-3 .1-1-.2-2.1-.8-2.9-.8-1.1-2.3-1.4-3.4-.6-.3.2-.4.3-.6.6-.5.9-.8 1.9-.8 2.9-.1 1 .2 2.1.8 3 .2.7 1 1.1 1.9 1.1zm14.5 2.4c-1.4.1-2.8-.4-3.7-1.5-.9-.9-1.3-2.5-1.3-4.6v-6.7h2.8v7.1c-.1.9.1 1.8.6 2.6.3.5 1 .8 1.6.8s1.2-.3 1.6-.8c.4-.8.7-1.7.6-2.6v-7.1h2.8v6.7c0 2.1-.4 3.6-1.3 4.6-.9 1.1-2.3 1.7-3.7 1.5zm12.3-.1h-2.8v-12.6H47c1.2 0 2.4.3 3.4.9 1 .7 1.6 1.9 1.4 3.1.1 1.6-.8 3-2.2 3.6l2.8 5h-3.2l-2.4-4.6h-1.6v4.6zm0-6.8h1.5c1.6 0 2.3-.6 2.3-1.9.1-.5-.2-1-.6-1.3-.5-.3-1.1-.4-1.7-.3h-1.5v3.5zm15.8 6.9c-1 0-2.1-.3-2.9-.8-.9-.5-1.6-1.3-2.2-2.2-1-2.2-1-4.8 0-7.1.5-.9 1.3-1.7 2.2-2.2s1.9-.8 2.9-.8c.8 0 1.5.2 2.2.5.6.3 1.1.7 1.6 1.1l-1.6 1.8c-.3-.3-.6-.5-1-.7-.3-.2-.8-.3-1.2-.3-.9 0-1.6.4-2.2 1-.6.9-.9 1.9-.9 2.9-.1 1 .3 2.2.9 3 .5.7 1.4 1.1 2.2 1 .5 0 .9-.1 1.4-.3.4-.3.8-.5 1-.9l1.5 1.8c-.9 1.6-2.4 2.3-3.9 2.2zm7.4-.1v-12.6h7.8v2.4h-5v2.5h4.3v2.4h-4.3v2.9h5.3v2.4h-8.1zm22.8.1c-1 0-2.1-.3-2.9-.8-.9-.5-1.6-1.3-2.2-2.2-.6-1.1-.9-2.3-.8-3.5 0-1.2.3-2.5.9-3.5 1-1.9 2.9-3 5.1-3 .8 0 1.5.2 2.2.5.6.3 1.1.7 1.6 1.1l-1.5 1.8c-.3-.3-.6-.5-1-.7-.3-.2-.8-.3-1.2-.3-.9 0-1.6.4-2.2 1-.6.9-.9 1.9-.9 2.9-.1 1 .3 2.2.9 3 .5.7 1.4 1.1 2.2 1 .5 0 .9-.1 1.4-.3.4-.3.8-.5 1-.9l1.6 1.8c-1.1 1.5-2.7 2.2-4.2 2.1zm12.6 0c-1.6.1-3.1-.6-4.1-1.7-1.1-1.4-1.7-3.1-1.6-4.8-.1-1.7.4-3.4 1.6-4.7 2.3-2.2 5.9-2.2 8.3 0 1.1 1.3 1.7 3 1.6 4.7.1 1.7-.4 3.4-1.6 4.8-1.1 1.2-2.6 1.8-4.2 1.7zm0-2.4c.9 0 1.6-.4 2.1-1.1.5-.9.8-2 .8-3 .1-1-.2-2.1-.8-2.9-.8-1.1-2.3-1.4-3.4-.6-.3.2-.4.3-.6.6-.5.9-.8 1.9-.8 2.9-.1 1 .2 2.1.8 3 .3.7 1.1 1.1 1.9 1.1zm9.6 2.3v-12.6h3.5c1.6-.1 3.3.4 4.6 1.5 1.1 1 1.7 2.6 1.7 4.7s-.6 3.8-1.7 4.8c-1.2 1-2.8 1.6-4.5 1.6h-3.6zm2.9-2.4h.5c.9.1 1.9-.3 2.6-.9.7-.6.9-1.6.9-3.2 0-1.5-.3-2.5-.9-3.1-.7-.6-1.6-.9-2.6-.9h-.5v8.1zm10.9 2.4v-12.6h7.8v2.4h-5v2.5h4.3v2.4H130v2.9h5.3v2.4h-8.1z" class="st4"/><path d="M37.3 84.6h57.4M37.3 98.4h57.4m-57.4 13.8h57.4" class="st5"/><path d="M249.4 4.4l1.2-1.4h1.8" class="st1"/><path d="M256.1 3h61.1c4.3.2 7.8 3.8 7.7 8.1v120.2c.1 4.3-3.3 7.9-7.7 8.1h-80c-4.3-.2-7.8-3.8-7.7-8.1v-105L248 5.6" class="st2"/><path d="M230.6 27h13.6c4.7 0 8.4-3.8 8.4-8.4V3" class="st3"/><path d="M252.9 69.7c-2 .1-4-.8-5.3-2.3-1.4-1.6-2.1-3.7-2.1-6.5-.2-2.3.6-4.7 2.2-6.5 1.4-1.6 3.4-2.4 5.3-2.3.9 0 1.9.2 2.8.6.7.3 1.4.9 1.9 1.5l-1.2 1.4c-.4-.4-.9-.9-1.6-1.1-.6-.3-1.3-.4-1.9-.4-1.6 0-2.9.7-3.9 1.9-1 1.5-1.6 3.2-1.5 5-.1 1.8.4 3.6 1.4 5.1 1.4 1.8 4 2.4 6 1.4.7-.3 1.2-.9 1.7-1.4l1.2 1.4c-.6.8-1.4 1.4-2.2 1.8-.9.2-1.8.4-2.8.4zm11.6-2.9v-5h-4.7v-1.6h4.7v-5.1h1.6v5h4.7v1.6h-4.7v5l-1.6.1zm12.7 0v-5h-4.7v-1.6h4.7v-5.1h1.7v5h4.7v1.6h-4.7v5l-1.7.1zm17.4-7.4c-.8 0-1.6-.2-2.3-.5-.7-.3-1.3-.7-1.8-1.2l.9-1c.4.4.9.8 1.6 1 .5.3 1.1.4 1.8.4s1.3-.2 1.8-.5c.4-.3.7-.9.7-1.4.1-.5-.2-1-.5-1.3-.4-.3-.9-.6-1.4-.8l-1.7-.8c-.6-.3-1.1-.6-1.6-1-.5-.5-.8-1.2-.8-2 0-.9.3-1.7 1-2.2.8-.6 1.7-.9 2.7-.9.7 0 1.4.2 2 .4.6.3 1.1.6 1.6 1l-.8.9c-.3-.3-.8-.6-1.2-.9-.4-.2-.9-.3-1.5-.3s-1.1.2-1.6.4c-.4.3-.6.8-.6 1.3s.2.9.6 1.3c.4.3.9.5 1.3.7l1.6.7c.6.3 1.2.7 1.7 1.1.5.5.8 1.3.7 2 0 .9-.3 1.8-1 2.4-1.1.8-2.1 1.2-3.2 1.2zm11 0c-1.5.1-2.8-.5-3.8-1.6-1-1.2-1.6-2.8-1.5-4.5-.1-1.6.5-3.3 1.6-4.5 1-1.1 2.4-1.7 3.9-1.6.7 0 1.5.2 2.1.4.5.3.9.6 1.4 1l-.9.9c-.3-.3-.7-.6-1-.8-.4-.3-.9-.3-1.5-.3-1.1 0-2.2.4-2.8 1.3-.8.9-1.1 2.2-1 3.4-.1 1.3.3 2.5 1 3.5.7.9 1.8 1.4 2.9 1.3.8.1 1.6-.2 2.2-.7v-3h-2.5V53h3.9v5c-.4.4-.9.8-1.6.9-1 .4-1.7.5-2.4.5zm5.1-.2l3.4-6.1-3.2-5.7h1.6l1.6 3c.2.3.3.5.4.8s.3.6.4.9h.1l.4-.9c.1-.3.3-.5.4-.8l1.6-3h1.6l-3.2 5.8 3.4 6h-1.6l-1.7-3.2-.5-.9c-.2-.3-.3-.6-.5-1h-.1c-.2.3-.3.7-.5 1l-.4.9-1.7 3.2h-1.5zm88.8 3c-1.1 0-2.2-.3-3.3-.7-.9-.4-1.9-1-2.7-1.8l1.3-1.5c.6.6 1.3 1.1 2.2 1.6.8.3 1.6.6 2.6.6.9.1 1.8-.3 2.6-.8.6-.5.9-1.2.9-2 .1-.7-.3-1.4-.8-1.9-.6-.4-1.3-.9-2-1.1l-2.4-1c-.9-.3-1.6-.9-2.3-1.5-.8-.8-1.2-1.8-1.1-2.8 0-1.2.5-2.4 1.6-3.2 1-.9 2.4-1.3 3.8-1.3.9 0 1.9.2 2.8.6.9.3 1.6.9 2.2 1.6l-1.1 1.4c-.5-.5-1.1-.9-1.7-1.2-.7-.3-1.4-.4-2.2-.4s-1.6.2-2.2.7c-.6.4-.9 1.1-.9 1.8-.1.7.3 1.4.9 1.8.6.4 1.2.8 1.9 1l2.4 1c.9.4 1.7.9 2.5 1.6.7.8 1 1.8 1 2.8 0 1.3-.5 2.6-1.6 3.4-1.3 1-2.8 1.4-4.4 1.3zm9.2-.3v-17h4.2c2.6 0 4.6.7 5.9 2.2s2.1 3.5 2.1 6.2-.7 4.8-2.1 6.3c-1.6 1.6-3.7 2.4-5.9 2.3h-4.2zm2.1-1.7h1.9c1.7.1 3.4-.5 4.5-1.8 1.1-1.5 1.6-3.3 1.5-5.1.1-1.7-.4-3.5-1.5-4.9-1.1-1.2-2.8-1.8-4.5-1.7h-1.9v13.5zm13.7 1.7v-17h2.2v8.5h.1l7.1-8.5h2.4l-5.3 6.5 6.1 10.5h-2.4l-5.1-8.8-2.9 3.4v5.3l-2.2.1zm22.7-10c-.8 0-1.6-.2-2.3-.4-.7-.3-1.3-.7-1.8-1.3l.9-1c.4.4.9.8 1.5 1 .5.3 1.1.4 1.8.4s1.3-.2 1.8-.5c.4-.3.7-.9.7-1.4.1-.5-.1-.9-.4-1.3-.4-.3-.9-.6-1.4-.8l-1.7-.8c-.6-.3-1.1-.6-1.6-1-.5-.5-.8-1.3-.8-2 0-.9.3-1.7 1-2.2.8-.6 1.7-.9 2.7-.9.7 0 1.4.1 2 .4.6.3 1.1.6 1.6 1l-.8.9c-.3-.3-.8-.6-1.2-.9-.4-.2-.9-.3-1.5-.3s-1.1.2-1.6.4c-.4.3-.6.8-.6 1.3s.2.9.6 1.3c.4.3.9.5 1.3.7l1.6.7c.6.3 1.2.7 1.7 1.1.5.5.8 1.3.7 2 0 .9-.3 1.8-1 2.4-1.1.8-2.1 1.2-3.2 1.2zm10.9 0c-1.5.1-2.8-.5-3.8-1.6-1-1.2-1.6-2.8-1.5-4.5-.1-1.6.4-3.3 1.5-4.5 1-1 2.4-1.6 3.9-1.6.7 0 1.5.2 2.1.4.5.3.9.6 1.4 1l-.9.9c-.3-.3-.7-.6-1-.8-.4-.3-.9-.3-1.5-.3-1.1 0-2.2.4-2.8 1.3-.8.9-1.1 2.2-1 3.4-.1 1.3.3 2.5 1 3.5.7.9 1.8 1.4 2.9 1.3.8.1 1.6-.2 2.2-.7v-3h-2.5v-1.2h3.9v4.9c-.4.4-.9.8-1.6.9-.8.4-1.5.6-2.3.6zm5.2-.3l3.4-6.1-3.2-5.7h1.6l1.6 3c.2.3.3.5.4.8.2.3.3.6.4.9h.1c.2-.3.3-.7.4-.9.1-.3.3-.5.4-.8l1.6-3h1.6l-3.2 5.8 3.4 6h-1.6l-1.7-3.2-.5-.9c-.2-.3-.3-.7-.5-1h-.1l-.5 1-.4.9-1.7 3.2h-1.5zm-253.7 125c-.9 0-1.7-.2-2.5-.4-.8-.3-1.6-.8-2.2-1.4l1.6-2c.4.3.9.7 1.5.9s1 .3 1.6.3c1.1 0 1.7-.4 1.7-1.2 0-.3-.2-.7-.5-.9-.4-.3-.9-.4-1.3-.6l-1.6-.7c-.7-.3-1.2-.7-1.7-1.2-.5-.6-.8-1.4-.8-2.2 0-1 .4-2 1.2-2.7.9-.8 2.1-1.1 3.2-1.1.8 0 1.5.2 2.2.4.7.3 1.3.7 1.8 1.3l-1.4 1.7c-.3-.3-.8-.5-1.2-.8-.4-.2-.9-.3-1.4-.3-.4 0-.9.1-1.2.3s-.4.5-.4.9.2.7.5.9.9.4 1.4.6l1.6.7c.7.3 1.3.7 1.8 1.3s.7 1.4.7 2.2c0 1-.4 2.1-1.2 2.8-.9.9-2.1 1.3-3.4 1.2zm13.5 0c-1.6.1-3.1-.6-4.1-1.7-1.1-1.4-1.7-3.1-1.6-4.8-.1-1.7.4-3.4 1.6-4.7 2.3-2.2 5.9-2.2 8.3 0 1.1 1.3 1.7 3 1.6 4.7.1 1.7-.4 3.4-1.6 4.8-1.2 1.2-2.6 1.8-4.2 1.7zm0-2.4c.9 0 1.6-.4 2-1.1.5-.9.8-2 .8-3 .1-1-.2-2.1-.8-2.9-.8-1.1-2.3-1.4-3.4-.6-.3.2-.4.3-.6.6-.5.9-.8 1.9-.8 2.9-.1 1 .2 2.1.8 3 .4.7 1.2 1.1 2 1.1zm14.6 2.4c-1.4.1-2.8-.4-3.7-1.5-.9-.9-1.3-2.5-1.3-4.6v-6.7h2.8v7.1c-.1.9.1 1.8.5 2.6.3.5 1 .8 1.6.8s1.2-.3 1.6-.8c.4-.8.7-1.7.6-2.6v-7.1h2.8v6.7c0 2.1-.4 3.6-1.3 4.6-.9 1.1-2.2 1.6-3.6 1.5zm12.2-.1h-2.8v-12.6h4.6c1.2 0 2.4.3 3.4.9 1 .7 1.6 1.9 1.4 3.1.1 1.6-.8 3-2.2 3.6l2.8 5h-3.2l-2.4-4.6h-1.6v4.6zm0-6.8h1.5c1.6 0 2.3-.6 2.3-1.9.1-.5-.2-1-.6-1.3-.5-.3-1.1-.4-1.7-.3h-1.5v3.5zm15.8 6.9c-1 0-2.1-.3-2.9-.8-.9-.5-1.6-1.3-2.2-2.2-.6-1.1-.9-2.3-.8-3.5 0-1.2.3-2.5.9-3.5 1-1.9 3-3 5.1-3 .8 0 1.5.2 2.2.5.6.3 1.1.7 1.6 1.1l-1.5 1.8c-.3-.3-.7-.5-1-.7s-.8-.3-1.2-.3c-.9 0-1.6.4-2.2 1-.6.9-.9 1.9-.9 2.9-.1 1 .3 2.2.9 3 .5.7 1.4 1.1 2.2 1 .5 0 .9-.1 1.4-.3.4-.3.8-.5 1-.9l1.6 1.8c-1.1 1.5-2.7 2.2-4.2 2.1zm7.5-.1v-12.6h7.8v2.4h-5v2.5h4.3v2.4H276v2.9h5.3v2.4h-8.1zm22.7.1c-1 0-2.1-.3-2.9-.8-.9-.5-1.6-1.3-2.2-2.2-.6-1.1-.9-2.3-.8-3.5 0-1.2.3-2.5.9-3.5 1-1.9 3-3 5.1-3 .8 0 1.5.2 2.2.5.6.3 1.1.7 1.6 1.1l-1.5 1.8c-.3-.3-.7-.5-1-.7s-.8-.3-1.2-.3c-.9 0-1.6.4-2.2 1-.6.9-.9 1.9-.9 2.9-.1 1 .3 2.2.9 3 .5.7 1.4 1.1 2.2 1 .5 0 .9-.1 1.4-.3.4-.3.8-.5 1-.9l1.5 1.8c-1 1.5-2.5 2.2-4.1 2.1zm12.6 0c-1.6.1-3.1-.6-4.1-1.7-1.1-1.4-1.7-3.1-1.6-4.8-.1-1.7.4-3.4 1.6-4.7 2.3-2.2 5.9-2.2 8.3 0 1.1 1.3 1.7 3 1.6 4.7.1 1.7-.4 3.4-1.6 4.8-1.1 1.2-2.6 1.8-4.2 1.7zm0-2.4c.9 0 1.6-.4 2.1-1.1.5-.9.8-2 .8-3 .1-1-.2-2.1-.8-2.9-.8-1.1-2.3-1.4-3.4-.6-.3.2-.4.3-.6.6-.5.9-.8 1.9-.8 2.9-.1 1 .2 2.1.8 3 .3.7 1.1 1.1 1.9 1.1zm9.7 2.3v-12.6h3.5c1.6-.1 3.3.4 4.6 1.5 1.1 1 1.7 2.6 1.7 4.7s-.6 3.8-1.7 4.8c-1.2 1-2.8 1.6-4.5 1.6h-3.6zm2.8-2.4h.5c.9.1 1.9-.3 2.6-.9.7-.6.9-1.6.9-3.2 0-1.5-.3-2.5-.9-3.1-.7-.6-1.6-.9-2.6-.9h-.5v8.1zm11 2.4v-12.6h7.8v2.4h-5v2.5h4.3v2.4h-4.3v2.9h5.3v2.4H332zM217.5 203c-.8-1.3-1.4-2.7-1.9-4.1-.9-3.1-.9-6.3 0-9.4.4-1.5 1.1-2.8 1.9-4.1l1.8.8c-.7 1.2-1.2 2.6-1.6 4-.6 2.7-.6 5.5 0 8.3.3 1.4.9 2.8 1.6 4l-1.8.5zm5.8-3.4V187h4.3c1.2 0 2.5.3 3.5.9 1 .7 1.6 1.9 1.5 3.2.1 1.3-.4 2.5-1.5 3.3-1 .7-2.2 1-3.4 1h-1.6v4.2h-2.8zm2.8-6.5h1.4c1.6 0 2.3-.7 2.3-2 .1-.5-.2-1-.6-1.4-.5-.3-1.1-.4-1.8-.4h-1.3v3.8zm15.3 6.7c-1.6.1-3.1-.6-4.1-1.7-1.1-1.4-1.6-3.1-1.6-4.8-.1-1.7.4-3.4 1.6-4.7 2.3-2.2 5.9-2.2 8.3 0 1.1 1.3 1.7 3 1.6 4.7.1 1.7-.4 3.4-1.6 4.8-1.1 1.1-2.7 1.8-4.2 1.7zm0-2.4c.9 0 1.6-.4 2.1-1.1.5-.9.8-2 .8-3 .1-1-.2-2.1-.8-2.9-.8-1.1-2.3-1.4-3.4-.6-.3.2-.4.3-.6.6-.5.9-.8 1.9-.8 2.9-.1 1 .2 2.1.8 3 .3.7 1.1 1.1 1.9 1.1zm12.5 2.2h-2.8V187h4.6c1.2 0 2.4.3 3.4.9.9.5 1.4 1.6 1.4 3.1 0 .8-.2 1.6-.6 2.2-.4.6-.9 1-1.6 1.4l2.8 5h-3.2l-2.4-4.5h-1.6v4.5zm0-6.8h1.5c1.6 0 2.3-.6 2.3-1.9.1-.5-.2-1-.6-1.3-.5-.3-1.1-.4-1.7-.3h-1.5v3.5zm12.9 6.8v-10.2h-3.4V187h9.7v2.4h-3.4v10.2h-2.9zm9.8 0V187h7.8v2.4h-5v2.5h4.3v2.4h-4.3v2.9h5.3v2.4h-8.1zm-31.2 23.2v-10.2H242v-2.4h9.7v2.4h-3.4v10.2h-2.9zm23.6-12.6v10.2h4.3v2.4h-7.2v-12.6h2.9zm-14.4 12.6v-12.6h7.8v2.4h-5v2.5h4.3v2.4h-4.3v2.9h5.3v2.4h-8.1zm34.2-23.2V187h3.5c1.6-.1 3.3.4 4.6 1.5 1.1 1 1.7 2.6 1.7 4.7s-.5 3.8-1.7 4.8-2.8 1.6-4.5 1.6h-3.6zm2.7-2.3h.5c.9.1 1.9-.3 2.6-.9.7-.6.9-1.6.9-3.1s-.3-2.5-.9-3.1c-.7-.6-1.6-.9-2.6-.9h-.5v8zm17.2 1.7v-10.2h-3.4v-2.3h9.7v2.4h-3.4v10.2l-2.9-.1zm14.9.3c-1.6.1-3.1-.6-4.1-1.7-1.1-1.4-1.7-3.1-1.6-4.8-.1-1.7.4-3.4 1.6-4.7 2.3-2.2 5.9-2.2 8.3 0 1.1 1.3 1.7 3 1.6 4.7.1 1.7-.4 3.4-1.6 4.8-1.2 1.1-2.6 1.8-4.2 1.7zm0-2.5c.9 0 1.6-.4 2.1-1.1.5-.9.8-2 .8-3 .1-1-.2-2.1-.8-2.9-.8-1.1-2.3-1.4-3.4-.6-.3.2-.4.3-.6.6-.5.9-.8 1.9-.8 2.9-.1 1 .2 2.1.8 3 .3.8 1 1.2 1.9 1.1zm-39.1 26.1c-.9 0-1.6-.2-2.5-.4-.8-.3-1.6-.8-2.2-1.4l1.6-1.9c.4.3.9.7 1.5.9.5.3 1 .3 1.6.4 1.2 0 1.7-.4 1.7-1.2 0-.3-.2-.7-.5-.9-.4-.3-.9-.4-1.3-.6l-1.6-.9c-.7-.3-1.2-.7-1.7-1.2-.5-.6-.9-1.4-.8-2.2 0-1 .4-2 1.3-2.7.9-.8 2.1-1.1 3.2-1.1.8 0 1.5.2 2.2.4.7.3 1.4.7 1.9 1.2l-1.5 1.8c-.3-.3-.8-.5-1.2-.8-.4-.2-.9-.3-1.4-.3-.4 0-.8.1-1.2.3-.3.2-.4.5-.4.9s.2.7.5.9c.4.3.9.4 1.4.6l1.6.7c.7.3 1.3.7 1.8 1.3.4.6.7 1.4.7 2.2 0 1-.4 2.1-1.2 2.8-1 .9-2.2 1.3-3.5 1.2zm13.9 0c-3.3.2-6-2.4-6.2-5.6v-.8c0-1.2.3-2.5.9-3.5.5-.9 1.3-1.7 2.2-2.2.9-.5 2-.8 3.1-.8.8 0 1.6.2 2.3.5.6.3 1.1.7 1.6 1.1l-1.5 1.8c-.3-.3-.7-.5-1-.7-.4-.2-.9-.3-1.4-.3-.9 0-1.8.3-2.4 1-.7.9-1 1.9-.9 2.9-.1 1 .3 2.2.9 3 .7.8 1.6 1.1 2.7 1 .5 0 .9-.1 1.4-.3v-2.2H298v-2.3h4.6v5.8c-.5.4-1.1.9-1.7 1-.8.4-1.6.6-2.5.6zm7-.2l3.4-6.5-3.3-6.1h3.2l1.1 2.4c.2.3.3.6.4.9l.5 1.1h.1c.2-.4.3-.8.4-1.1.2-.3.3-.6.4-.9l1-2.4h3l-3.3 6.2 3.4 6.3h-3.2l-1.3-2.6c-.2-.3-.3-.7-.4-.9-.1-.3-.3-.7-.5-1h-.2c-.2.3-.3.8-.4 1-.2.3-.3.7-.4.9l-1.2 2.6-2.7.1zm15 3.4l-1.7-.8c.7-1.2 1.2-2.6 1.6-4 .6-2.7.6-5.5 0-8.3-.3-1.4-.9-2.8-1.6-4l1.7-.8c.8 1.3 1.5 2.7 1.9 4.1.9 3 .9 6.3 0 9.4-.5 1.7-1.1 3.2-1.9 4.4z" class="st4"/><path d="M248.5 98.4H306m-57.5-13.8H306m-57.5 27.6H306" class="st5"/><path d="M417.3 89.6l-45.9-32c-6.5-4.6-6.4-14.2.3-18.3L417 11.6c6.5-4 14.7-3.9 21.2.3l45.9 28.8c6.7 4.2 7.1 13.9.7 18.3l-45.2 30.9c-6.8 4.5-15.7 4.4-22.3-.3z" class="st6"/><path d="M484.1 68.9c6.7 4.2 7.1 13.9.7 18.3l-45.2 30.9c-6.7 4.6-15.6 4.5-22.2-.3l-45.9-32c-6.5-4.6-6.4-14.2.3-18.3" class="st6"/><path d="M484.1 99.9c6.7 4.2 7.1 13.9.7 18.3l-45.2 30.9c-6.7 4.6-15.6 4.5-22.2-.3l-45.9-32c-6.5-4.6-6.4-14.1.3-18.3" class="st6"/><path d="M349.5 71.2v19.2m-9.6-9.6h19.2" class="st5"/><path d="M606.6 2l1.2-1.4h1.8" class="st1"/><path d="M613.3.6h61.1c4.3.2 7.8 3.8 7.7 8.1v120.2c.1 4.3-3.3 7.9-7.7 8.1h-80c-4.3-.2-7.8-3.8-7.7-8.1v-105l18.5-20.6" class="st2"/><path d="M590.3 24.5h13.5c4.7 0 8.4-3.8 8.4-8.4V.6" class="st3"/><path d="M609.1 42.9c-1.3 0-2.5-.7-3.1-1.8-.9-1.6-1.2-3.4-1.1-5.2-.1-1.8.3-3.5 1.1-5.1 1-1.7 3.3-2.2 5-1.2.5.3.9.7 1.2 1.2.9 1.6 1.2 3.4 1.1 5.1.1 1.8-.3 3.6-1.1 5.2-.7 1.1-1.8 1.8-3.1 1.8zm0-1.4c.9 0 1.6-.5 1.9-1.3.6-1.4.8-2.8.7-4.2.1-1.5-.2-2.8-.7-4.2-.4-1-1.6-1.6-2.6-1.1-.5.2-.9.6-1.1 1.1-.6 1.3-.8 2.8-.7 4.2-.1 1.5.2 2.9.7 4.2.2.8.9 1.3 1.8 1.3zm6.8 1.1v-1.4h3v-9.8h-2.4v-1.1c.5-.1 1-.3 1.6-.4.4-.2.9-.3 1.2-.6h1.3v12h2.8v1.5l-7.5-.2zm13.9.3c-1.3 0-2.5-.7-3.1-1.8-.9-1.6-1.2-3.4-1.1-5.2-.1-1.8.3-3.5 1.1-5.1 1-1.7 3.3-2.2 5.1-1.2.5.3.9.7 1.2 1.2.9 1.6 1.2 3.4 1.1 5.1.1 1.8-.3 3.6-1.1 5.2-.7 1.2-1.9 1.8-3.2 1.8zm0-1.4c.9 0 1.6-.5 1.9-1.3.6-1.4.8-2.8.7-4.2.1-1.5-.2-2.8-.7-4.2-.4-1-1.6-1.6-2.6-1.1-.5.2-.9.6-1.1 1.1-.6 1.3-.9 2.8-.7 4.2-.1 1.5.2 2.9.7 4.2.2.8 1 1.3 1.8 1.3zm6.8 1.1v-1.4h3v-9.8h-2.4v-1.1c.5-.1 1-.3 1.6-.4.4-.2.9-.3 1.2-.6h1.3v12h2.8v1.5l-7.5-.2zm13.9.3c-1.3 0-2.5-.7-3.1-1.8-.9-1.6-1.2-3.4-1.1-5.2-.1-1.8.3-3.5 1.1-5.1 1-1.7 3.3-2.2 5-1.2.5.3.9.7 1.2 1.2.9 1.6 1.2 3.4 1.1 5.1.1 1.8-.3 3.6-1.1 5.2-.6 1.1-1.8 1.8-3.1 1.8zm0-1.4c.9 0 1.6-.5 1.9-1.3.6-1.4.8-2.8.7-4.2.1-1.5-.2-2.8-.7-4.2-.4-1-1.6-1.6-2.6-1.1-.5.2-.9.6-1.1 1.1-.6 1.3-.9 2.8-.7 4.2-.1 1.5.2 2.9.7 4.2.3.8 1 1.3 1.8 1.3zm10.4 1.4c-1.3 0-2.5-.7-3.1-1.8-.9-1.6-1.2-3.4-1.1-5.2-.1-1.8.3-3.5 1.1-5.1 1-1.7 3.3-2.2 5-1.2.5.3.9.7 1.2 1.2.9 1.6 1.2 3.4 1.1 5.1.1 1.8-.3 3.6-1.1 5.2-.6 1.1-1.8 1.8-3.1 1.8zm0-1.4c.9 0 1.6-.5 1.9-1.3.6-1.4.8-2.8.7-4.2.1-1.5-.2-2.8-.7-4.2-.4-1-1.6-1.6-2.6-1.1-.5.2-.9.6-1.1 1.1-.6 1.3-.9 2.8-.7 4.2-.1 1.5.2 2.9.7 4.2.2.8 1 1.3 1.8 1.3zM609.1 68c-1.3 0-2.5-.7-3.1-1.8-.9-1.6-1.2-3.4-1.1-5.2-.1-1.8.3-3.5 1.1-5.1 1-1.7 3.3-2.2 5-1.2.5.3.9.7 1.2 1.2.9 1.6 1.2 3.4 1.1 5.1.1 1.8-.3 3.6-1.1 5.2-.7 1.1-1.8 1.8-3.1 1.8zm0-1.4c.9 0 1.6-.5 1.9-1.3.6-1.4.8-2.8.7-4.2.1-1.5-.2-2.8-.7-4.2-.4-1-1.6-1.6-2.6-1.1-.5.2-.9.6-1.1 1.1-.6 1.3-.8 2.8-.7 4.2-.1 1.5.2 2.9.7 4.2.2.7.9 1.2 1.8 1.3zm6.8 1.1v-1.5h3v-9.7h-2.4v-1.1c.5-.1 1-.3 1.6-.4.4-.2.9-.3 1.2-.6h1.3v11.9h2.8v1.5l-7.5-.1zm10.3 0v-1.5h3v-9.7h-2.4v-1.1c.5-.1 1-.3 1.6-.4.4-.2.9-.3 1.2-.6h1.3v11.9h2.8v1.5l-7.5-.1zm14 .3c-1.3 0-2.5-.7-3.2-1.8-.9-1.6-1.2-3.4-1.1-5.2-.1-1.7.3-3.5 1.1-5.1 1-1.7 3.3-2.2 5.1-1.2.5.3.9.7 1.2 1.2.9 1.6 1.2 3.4 1.1 5.1.1 1.8-.3 3.6-1.1 5.2-.7 1.1-1.9 1.8-3.1 1.8zm0-1.4c.9 0 1.6-.5 1.9-1.3.6-1.4.8-2.8.7-4.2.1-1.5-.2-2.8-.7-4.2-.4-1-1.6-1.6-2.6-1.1-.5.2-.9.6-1.1 1.1-.6 1.3-.9 2.8-.7 4.2-.1 1.5.2 2.9.7 4.2.2.7.9 1.2 1.8 1.3zm10.3 1.4c-1.3 0-2.5-.7-3.1-1.8-.9-1.6-1.2-3.4-1.1-5.2-.1-1.8.3-3.5 1.1-5.1 1-1.7 3.3-2.2 5-1.2.5.3.9.7 1.2 1.2.9 1.6 1.2 3.4 1.1 5.1.1 1.8-.3 3.6-1.1 5.2-.6 1.1-1.8 1.8-3.1 1.8zm0-1.4c.9 0 1.6-.5 1.9-1.3.6-1.4.8-2.8.7-4.2.1-1.5-.2-2.8-.7-4.2-.4-1-1.6-1.6-2.6-1.1-.5.2-.9.6-1.1 1.1-.6 1.3-.9 2.8-.7 4.2-.1 1.5.2 2.9.7 4.2.3.7 1 1.2 1.8 1.3zm10.4 1.4c-1.3 0-2.5-.7-3.1-1.8-.9-1.6-1.2-3.4-1.1-5.2-.1-1.8.3-3.5 1.1-5.1 1-1.7 3.3-2.2 5-1.2.5.3.9.7 1.2 1.2.9 1.6 1.2 3.4 1.1 5.1.1 1.8-.3 3.6-1.1 5.2-.6 1.1-1.8 1.8-3.1 1.8zm0-1.4c.9 0 1.6-.5 1.9-1.3.6-1.4.8-2.8.7-4.2.1-1.5-.2-2.8-.7-4.2-.4-1-1.6-1.6-2.6-1.1-.5.2-.9.6-1.1 1.1-.6 1.3-.9 2.8-.7 4.2-.1 1.5.2 2.9.7 4.2.2.7 1 1.2 1.8 1.3zm-55.3 26.1v-1.5h3v-9.7h-2.4v-1.1c.5-.1 1-.2 1.6-.3.4-.2.9-.3 1.2-.6h1.4v11.9h2.8v1.4l-7.6-.1zm13.8.3c-1.3 0-2.5-.7-3.1-1.8-.9-1.6-1.2-3.4-1.1-5.2-.1-1.8.3-3.5 1.2-5.1 1-1.7 3.3-2.2 5-1.2.5.3.9.7 1.2 1.2.9 1.6 1.2 3.4 1.1 5.1.1 1.8-.3 3.6-1.1 5.2-.7 1.1-1.9 1.8-3.2 1.8zm0-1.4c.9 0 1.6-.5 1.9-1.3.6-1.4.8-2.8.7-4.2.1-1.5-.2-2.8-.7-4.2-.3-.8-1-1.3-1.9-1.3s-1.6.5-1.9 1.3c-.6 1.3-.8 2.8-.7 4.2-.1 1.5.2 2.9.7 4.2.4.8 1.1 1.3 1.9 1.3zm10.4 1.4c-1.3 0-2.5-.7-3.2-1.8-.9-1.6-1.2-3.4-1.1-5.2-.1-1.8.3-3.5 1.1-5.1 1-1.7 3.3-2.2 5.1-1.2.5.3.9.7 1.2 1.2.9 1.6 1.2 3.4 1.1 5.1.1 1.8-.3 3.6-1.1 5.2-.6 1.1-1.8 1.8-3.1 1.8zm0-1.4c.9 0 1.6-.5 1.9-1.3.6-1.4.8-2.8.7-4.2.1-1.5-.2-2.8-.7-4.2-.4-1-1.6-1.6-2.6-1.1-.5.2-.9.6-1.1 1.1-.6 1.3-.9 2.8-.7 4.2-.1 1.5.2 2.9.7 4.2.2.8 1 1.3 1.8 1.3zm6.8 1.1v-1.5h3v-9.7h-2.4v-1.1c.5-.1 1-.3 1.6-.4.4-.2.9-.3 1.2-.6h1.3v11.9h2.8v1.5h-7.5v-.1zm13.9.3c-1.3 0-2.5-.7-3.1-1.8-.9-1.6-1.2-3.4-1.1-5.2-.1-1.8.3-3.5 1.1-5.1 1-1.7 3.3-2.2 5-1.2.5.3.9.7 1.2 1.2.9 1.6 1.2 3.4 1.1 5.1.1 1.8-.3 3.6-1.1 5.2-.6 1.1-1.8 1.8-3.1 1.8zm0-1.4c.9 0 1.6-.5 1.9-1.3.6-1.4.8-2.8.7-4.2.1-1.5-.2-2.8-.7-4.2-.4-1-1.6-1.6-2.6-1.1-.5.2-.9.6-1.1 1.1-.6 1.3-.9 2.8-.7 4.2-.1 1.5.2 2.9.7 4.2.3.8 1 1.3 1.8 1.3zm10.4 1.4c-1.3 0-2.5-.7-3.1-1.8-.9-1.6-1.2-3.4-1.1-5.2-.1-1.8.3-3.5 1.1-5.1 1-1.7 3.3-2.2 5-1.2.5.3.9.7 1.2 1.2.9 1.6 1.2 3.4 1.1 5.1.1 1.8-.3 3.6-1.1 5.2-.6 1.1-1.8 1.8-3.1 1.8zm0-1.4c.9 0 1.6-.5 1.9-1.3.6-1.4.8-2.8.7-4.2.1-1.5-.2-2.8-.7-4.2-.4-1-1.6-1.6-2.6-1.1-.5.2-.9.6-1.1 1.1-.6 1.3-.9 2.8-.7 4.2-.1 1.5.2 2.9.7 4.2.2.8.9 1.3 1.8 1.3zm-55.3 26.2v-1.4h3v-9.8h-2.4v-1.1c.5-.1 1-.3 1.6-.4.4-.2.9-.3 1.2-.6h1.4v11.9h2.8v1.4h-7.6zm10.3 0v-1.4h3v-9.8h-2.4v-1.1c.5-.1 1-.3 1.6-.4.4-.2.9-.3 1.2-.6h1.3v11.9h2.8v1.4h-7.5zm10.3 0v-1.4h3v-9.8h-2.4v-1.1c.5-.1 1-.3 1.6-.4.4-.2.9-.3 1.2-.6h1.3v11.9h2.8v1.4h-7.5zm10.4 0v-1.4h3v-9.8h-2.4v-1.1c.5-.1 1-.3 1.6-.4.4-.2.9-.3 1.2-.6h1.3v11.9h2.8v1.4h-7.5zm10.4 0v-1.4h3v-9.8h-2.4v-1.1c.5-.1 1-.3 1.6-.4.4-.2.9-.3 1.2-.6h1.3v11.9h2.8v1.4H647zm13.9.2c-1.3 0-2.5-.7-3.1-1.8-.9-1.6-1.2-3.4-1.1-5.2-.1-1.8.3-3.5 1.1-5.1 1-1.7 3.4-2.2 5.1-1.2.5.3.9.7 1.2 1.2.9 1.6 1.2 3.4 1.1 5.1.1 1.8-.3 3.6-1.1 5.2-.7 1.2-1.9 1.8-3.2 1.8zm0-1.3c.9 0 1.6-.5 1.9-1.3.6-1.4.8-2.8.7-4.2.1-1.5-.2-2.8-.7-4.2-.4-1-1.6-1.6-2.6-1.1-.5.2-.9.6-1.1 1.1-.6 1.3-.9 2.8-.7 4.2-.1 1.5.2 2.9.7 4.2.2.7 1 1.2 1.8 1.3z" class="st4"/><path d="M812 1.6l1.2-1.4h1.9" class="st1"/><path d="M818.8.2h61.1c4.3.2 7.8 3.8 7.7 8.1v120.2c.1 4.3-3.3 7.9-7.7 8.1h-80c-4.3-.2-7.8-3.8-7.7-8.1V23.7L810.8 3" class="st2"/><path d="M795.7 24.2h13.6c4.7 0 8.4-3.8 8.4-8.4V.2" class="st3"/><path d="M814.5 42.6c-1.3 0-2.5-.7-3.1-1.8-.9-1.6-1.2-3.4-1.1-5.2-.1-1.8.3-3.5 1.1-5.1 1-1.7 3.3-2.2 5-1.2.5.3.9.7 1.2 1.2.9 1.6 1.2 3.4 1.1 5.1.1 1.8-.3 3.6-1.1 5.2-.6 1.2-1.8 1.8-3.1 1.8zm0-1.3c.9 0 1.6-.5 1.9-1.3.6-1.4.8-2.8.7-4.2.1-1.5-.2-2.8-.7-4.2-.4-1-1.6-1.6-2.6-1.1-.5.2-.9.6-1.1 1.1-.6 1.3-.9 2.8-.7 4.2-.1 1.5.2 2.9.7 4.2.3.7 1 1.3 1.8 1.3zm6.8 1.1V41h3v-9.8h-2.4v-1.1c.5-.1 1-.2 1.6-.4.4-.2.9-.3 1.2-.6h1.3V41h2.8v1.5l-7.5-.1zm14 .2c-1.3 0-2.5-.7-3.1-1.8-.9-1.6-1.2-3.4-1.1-5.2-.1-1.8.3-3.5 1.1-5.1 1-1.7 3.3-2.2 5-1.2.5.3.9.7 1.2 1.2.9 1.6 1.3 3.4 1.1 5.2.1 1.8-.3 3.6-1.1 5.2-.7 1.1-1.8 1.7-3.1 1.7zm0-1.3c.9 0 1.6-.5 1.9-1.3.6-1.4.8-2.8.7-4.2.1-1.5-.2-2.8-.7-4.2-.4-1-1.6-1.6-2.6-1.1-.5.2-.9.6-1.1 1.1-.6 1.3-.8 2.8-.7 4.2-.1 1.5.2 2.9.7 4.2.2.7.9 1.3 1.8 1.3zm6.8 1.1V41h3v-9.8h-2.4v-1.1c.5-.1 1-.2 1.6-.4.4-.2.9-.3 1.2-.6h1.3V41h2.8v1.5l-7.5-.1zm13.9.2c-1.3 0-2.5-.7-3.1-1.8-.9-1.6-1.2-3.4-1.1-5.2-.1-1.8.3-3.5 1.1-5.1 1-1.7 3.3-2.2 5-1.2.5.3.9.7 1.2 1.2.9 1.6 1.2 3.4 1.1 5.1.1 1.8-.3 3.6-1.1 5.2-.6 1.2-1.8 1.8-3.1 1.8zm0-1.3c.9 0 1.6-.5 1.9-1.3.6-1.4.8-2.8.7-4.2.1-1.5-.2-2.8-.7-4.2-.3-.8-1-1.3-1.9-1.3s-1.6.5-1.9 1.3c-.6 1.3-.8 2.8-.7 4.2-.1 1.5.2 2.9.7 4.2.3.7 1 1.3 1.9 1.3zm10.4 1.3c-1.3 0-2.5-.7-3.2-1.8-.9-1.6-1.2-3.4-1.1-5.2-.1-1.8.3-3.5 1.1-5.1 1-1.7 3.3-2.2 5.1-1.2.5.3.9.7 1.2 1.2.9 1.6 1.2 3.4 1.1 5.1.1 1.8-.3 3.6-1.1 5.2-.7 1.2-1.8 1.8-3.1 1.8zm0-1.3c.9 0 1.6-.5 1.9-1.3.6-1.4.8-2.8.7-4.2.1-1.5-.2-2.8-.7-4.2-.4-1-1.6-1.6-2.6-1.1-.5.2-.9.6-1.1 1.1-.6 1.3-.9 2.8-.7 4.2-.1 1.5.2 2.9.7 4.2.2.7.9 1.3 1.8 1.3zm-51.9 26.3c-1.3 0-2.5-.7-3.1-1.8-.9-1.6-1.2-3.4-1.1-5.2-.1-1.8.3-3.5 1.1-5.1 1-1.7 3.3-2.2 5-1.2.5.3.9.7 1.2 1.2.9 1.6 1.2 3.4 1.1 5.1.1 1.8-.3 3.6-1.1 5.2-.6 1.1-1.8 1.8-3.1 1.8zm0-1.3c.9 0 1.6-.5 1.9-1.3.6-1.4.8-2.8.7-4.2.1-1.5-.2-2.8-.7-4.2-.4-1-1.6-1.6-2.6-1.1-.5.2-.9.6-1.1 1.1-.6 1.3-.9 2.8-.7 4.2-.1 1.5.2 2.9.7 4.2.3.7 1 1.3 1.8 1.3zm6.8 1.1v-1.5h3v-9.7h-2.4v-1.1c.5-.1 1-.2 1.6-.4.4-.2.9-.3 1.2-.6h1.3V66h2.8v1.5c-.1-.1-7.5-.1-7.5-.1zm10.5 0v-1.5h3v-9.7h-2.4v-1.1c.5-.1 1-.2 1.6-.4.4-.2.9-.3 1.2-.6h1.3V66h2.8v1.5c-.1-.1-7.5-.1-7.5-.1zm-20.8 25v-1.5h3v-9.7h-2.4v-1.1c.5-.1 1-.2 1.6-.4.4-.2.9-.3 1.2-.6h1.3V91h2.8v1.5H811v-.1zm13.9.3c-1.3 0-2.5-.7-3.1-1.8-.9-1.6-1.2-3.4-1.1-5.2-.1-1.8.3-3.5 1.1-5.1 1-1.7 3.3-2.2 5-1.2.5.3.9.7 1.2 1.2.9 1.6 1.3 3.4 1.2 5.2.1 1.8-.3 3.6-1.1 5.2-.7 1-1.9 1.7-3.2 1.7zm0-1.4c.9 0 1.6-.5 1.9-1.3.6-1.4.8-2.8.7-4.2.1-1.5-.2-2.8-.7-4.2-.4-1-1.6-1.6-2.6-1.1-.5.2-.9.6-1.1 1.1-.6 1.3-.8 2.8-.7 4.2-.1 1.5.2 2.9.7 4.2.2.7.9 1.2 1.8 1.3zm10.4 1.4c-1.3 0-2.5-.7-3.1-1.8-.9-1.6-1.2-3.4-1.1-5.2-.1-1.8.3-3.5 1.1-5.1 1-1.7 3.3-2.2 5-1.2.5.3.9.7 1.2 1.2.9 1.6 1.3 3.4 1.1 5.2.1 1.8-.3 3.6-1.1 5.2-.7 1-1.8 1.7-3.1 1.7zm0-1.4c.9 0 1.6-.5 1.9-1.3.6-1.4.8-2.8.7-4.2.1-1.5-.2-2.8-.7-4.2-.4-1-1.6-1.6-2.6-1.1-.5.2-.9.6-1.1 1.1-.6 1.3-.8 2.8-.7 4.2-.1 1.5.2 2.9.7 4.2.2.7.9 1.2 1.8 1.3zM811 117.4V116h3v-9.8h-2.4v-1.1c.5-.1 1-.2 1.6-.4.4-.2.9-.3 1.2-.6h1.3V116h2.8v1.4H811zm10.3 0V116h3v-9.8h-2.4v-1.1c.5-.1 1-.2 1.6-.4.4-.2.9-.3 1.2-.6h1.3V116h2.8v1.4h-7.5zm10.5 0V116h3v-9.8h-2.4v-1.1c.5-.1 1-.2 1.6-.4.4-.2.9-.3 1.2-.6h1.3V116h2.8v1.4h-7.5zm10.3 0V116h3v-9.8h-2.4v-1.1c.5-.1 1-.2 1.6-.4.4-.2.9-.3 1.2-.6h1.3V116h2.8v1.4h-7.5zm10.3 0V116h3v-9.8H853v-1.1c.5-.1 1-.2 1.6-.4.4-.2.9-.3 1.2-.6h1.3V116h2.8v1.4h-7.5zm14 .3c-1.3 0-2.5-.7-3.2-1.8-.9-1.6-1.2-3.4-1.1-5.2-.1-1.8.3-3.5 1.1-5.1 1-1.7 3.3-2.2 5.1-1.2.5.3.9.7 1.2 1.2.9 1.6 1.2 3.4 1.1 5.1.1 1.8-.3 3.6-1.1 5.2-.7 1.1-1.8 1.8-3.1 1.8zm0-1.4c.9 0 1.6-.5 1.9-1.3.6-1.4.8-2.8.7-4.2.1-1.5-.2-2.8-.7-4.2-.4-1-1.6-1.6-2.6-1.1-.5.2-.9.6-1.1 1.1-.6 1.3-.9 2.8-.7 4.2-.1 1.5.2 2.9.7 4.2.2.8.9 1.3 1.8 1.3zm-263.7 57.8v-12.6h4.3c1.1 0 2.2.2 3.3.7.9.4 1.5 1.5 1.3 2.5 0 .6-.2 1.1-.4 1.6-.3.5-.7.9-1.2 1v.1c.6.2 1.2.5 1.6.9.4.5.7 1.3.7 2 .1 1.1-.4 2.2-1.5 2.8-1 .6-2.2.9-3.4.9h-4.7v.1zm2.9-7.5h1.3c.5.1 1-.1 1.6-.4.3-.3.5-.7.4-1 0-.9-.7-1.4-2-1.4h-1.4l.1 2.8zm0 5.3h1.6c1.6 0 2.3-.6 2.3-1.7s-.8-1.6-2.3-1.6h-1.6v3.3zm10.3 2.2v-12.6h2.8v12.6h-2.8zm7.3 0v-12.6h2.9l3.3 6.2 1.2 2.8h.1c-.1-.7-.1-1.4-.2-2.2-.1-.8-.2-1.6-.2-2.3v-4.4h2.7v12.6h-2.9l-3.3-6.3-1.2-2.8h-.1c.1.7.2 1.5.3 2.2.1.8.1 1.6.2 2.3v4.5h-2.8zM222 222.8v-12.6h2.8v12.6H222zm7.3 0v-12.6h2.9l3.3 6.2 1.2 2.8h.1c-.1-.7-.1-1.4-.2-2.2-.1-.8-.2-1.6-.2-2.3v-4.4h2.7v12.5h-2.9l-3.3-6.3-1.2-2.8h-.1c.1.7.2 1.5.3 2.2.1.8.1 1.6.2 2.3v4.5l-2.8.1zm415-48.7l-.8-3h-3.9l-.8 3H636l4-12.6h3.4l4 12.6h-3.1zm-3.8-6.4l-.3 1.1h2.7l-.3-1.1c-.2-.6-.3-1.3-.5-2s-.3-1.4-.5-2.1h-.1c-.2.7-.3 1.4-.4 2.1s-.4 1.4-.6 2zm12.5 6.4h-2.8v-12.6h4.5c1.2 0 2.4.3 3.4.9.9.5 1.4 1.6 1.4 3.1 0 .8-.2 1.6-.6 2.2-.4.6-.9 1-1.6 1.4l2.8 5h-3.2l-2.4-4.6h-1.6l.1 4.6zm0-6.9h1.5c1.6 0 2.3-.6 2.3-1.9.1-.5-.2-1-.6-1.3-.5-.3-1.1-.4-1.7-.3H653v3.5zm12.7 6.9v-4.5l-3.8-8.1h3l1.1 2.9c.2.5.3.9.5 1.4s.3.9.5 1.4h.1c.2-.5.3-.9.5-1.4l.5-1.4 1.1-2.9h3l-3.8 8.1v4.5h-2.7z" class="st4"/><path d="M844.8 42.6h22.8c2.8 0 4.9 2.2 4.9 4.9v52.2c0 2.8-2.2 4.9-4.9 4.9h-22.8c-2.8 0-4.9-2.2-4.9-4.9V47.5c0-2.7 2.2-4.9 4.9-4.9zm41-33.9c1.4 0 2.4 1.1 2.4 2.4v11.2c0 1.4-1.1 2.4-2.4 2.4-1.4 0-2.4-1.1-2.4-2.4V11.1c0-1.3 1-2.4 2.4-2.4zm13.9 0c1.4 0 2.4 1.1 2.4 2.4v11.2c0 1.4-1.1 2.4-2.4 2.4-1.4 0-2.4-1.1-2.4-2.4V11.1c0-1.3 1.1-2.4 2.4-2.4zm27.8 0c1.4 0 2.4 1.1 2.4 2.4v11.2c0 1.4-1.1 2.4-2.4 2.4-1.4 0-2.4-1.1-2.4-2.4V11.1c0-1.3 1.1-2.4 2.4-2.4zm-13.9 0c1.4 0 2.4 1.1 2.4 2.4v11.2c0 1.4-1.1 2.4-2.4 2.4-1.4 0-2.4-1.1-2.4-2.4V11.1c0-1.3 1-2.4 2.4-2.4zm27.9 0c1.4 0 2.4 1.1 2.4 2.4v11.2c0 1.4-1.1 2.4-2.4 2.4-1.4 0-2.4-1.1-2.4-2.4V11.1c-.1-1.3 1.1-2.4 2.4-2.4zm-55.7 118c1.4 0 2.4 1.1 2.4 2.4v11.2c0 1.4-1.1 2.4-2.4 2.4-1.4 0-2.4-1.1-2.4-2.4v-11.2c0-1.3 1-2.4 2.4-2.4zm13.9 0c1.4 0 2.4 1.1 2.4 2.4v11.2c0 1.4-1.1 2.4-2.4 2.4-1.4 0-2.4-1.1-2.4-2.4v-11.2c0-1.3 1.1-2.4 2.4-2.4zm27.8 0c1.4 0 2.4 1.1 2.4 2.4v11.2c0 1.4-1.1 2.4-2.4 2.4-1.4 0-2.4-1.1-2.4-2.4v-11.2c0-1.3 1.1-2.4 2.4-2.4zm-13.9 0c1.4 0 2.4 1.1 2.4 2.4v11.2c0 1.4-1.1 2.4-2.4 2.4-1.4 0-2.4-1.1-2.4-2.4v-11.2c0-1.3 1-2.4 2.4-2.4zm27.9 0c1.4 0 2.4 1.1 2.4 2.4v11.2c0 1.4-1.1 2.4-2.4 2.4-1.4 0-2.4-1.1-2.4-2.4v-11.2c-.1-1.3 1.1-2.4 2.4-2.4zM981 45c0 1.4-1.1 2.4-2.4 2.4h-11.2c-1.4 0-2.4-1.1-2.4-2.4 0-1.4 1.1-2.4 2.4-2.4h11.2c1.3 0 2.4 1.1 2.4 2.4zm0 13.9c0 1.4-1.1 2.4-2.4 2.4h-11.2c-1.4 0-2.4-1.1-2.4-2.4 0-1.4 1.1-2.4 2.4-2.4h11.2c1.3 0 2.4 1 2.4 2.4zm0 27.9c0 1.4-1.1 2.4-2.4 2.4h-11.2c-1.4 0-2.4-1.1-2.4-2.4 0-1.4 1.1-2.4 2.4-2.4h11.2c1.3-.1 2.4 1 2.4 2.4zm0-14c0 1.4-1.1 2.4-2.4 2.4h-11.2c-1.4 0-2.4-1.1-2.4-2.4 0-1.4 1.1-2.4 2.4-2.4h11.2c1.3 0 2.4 1.1 2.4 2.4zm0 27.8c0 1.4-1.1 2.4-2.4 2.4h-11.2c-1.4 0-2.4-1.1-2.4-2.4 0-1.4 1.1-2.4 2.4-2.4h11.2c1.3 0 2.4 1.1 2.4 2.4z" class="st0"/><path d="M861.5 45c0 1.4-1.1 2.4-2.4 2.4h-11.2c-1.4 0-2.4-1.1-2.4-2.4 0-1.4 1.1-2.4 2.4-2.4h11.2c1.3 0 2.4 1.1 2.4 2.4zm0 13.9c0 1.4-1.1 2.4-2.4 2.4h-11.2c-1.4 0-2.4-1.1-2.4-2.4 0-1.4 1.1-2.4 2.4-2.4h11.2c1.3 0 2.4 1 2.4 2.4zm0 27.9c0 1.4-1.1 2.4-2.4 2.4h-11.2c-1.4 0-2.4-1.1-2.4-2.4 0-1.4 1.1-2.4 2.4-2.4h11.2c1.3-.1 2.4 1 2.4 2.4zm0-14c0 1.4-1.1 2.4-2.4 2.4h-11.2c-1.4 0-2.4-1.1-2.4-2.4 0-1.4 1.1-2.4 2.4-2.4h11.2c1.3 0 2.4 1.1 2.4 2.4zm0 27.8c0 1.4-1.1 2.4-2.4 2.4h-11.2c-1.4 0-2.4-1.1-2.4-2.4 0-1.4 1.1-2.4 2.4-2.4h11.2c1.3 0 2.4 1.1 2.4 2.4z" class="st0"/><path d="M900.4 69c-1.8 0-3.5-.7-4.7-2.1-1.4-1.6-2-3.7-1.9-5.8-.1-2.1.6-4.1 1.9-5.8 1.2-1.4 3-2.2 4.8-2.1.9 0 1.7.2 2.4.6.6.3 1.2.8 1.7 1.3l-1 1.2c-.4-.4-.9-.8-1.4-1-.5-.3-1.1-.4-1.7-.4-1.4 0-2.7.6-3.4 1.6-.9 1.3-1.4 2.8-1.3 4.5-.1 1.6.3 3.2 1.3 4.6 1.3 1.6 3.5 2.2 5.3 1.2.6-.3 1.1-.8 1.6-1.3l1 1.2c-.6.7-1.3 1.2-2.1 1.6-.6.5-1.6.7-2.5.7zm7.5-.2V53.6h4.3c1.5-.1 2.8.3 4.1.9 1 .7 1.6 1.8 1.6 3.4.1 1.4-.5 2.7-1.6 3.5-1.2.8-2.6 1.2-4.1 1.1h-2.5v6l-1.8.3zm1.9-7.6h2.2c2.6 0 3.9-1 3.9-3.1.1-.9-.3-1.7-1-2.2-.9-.5-2-.7-3-.6h-2.2l.1 5.9zm16.6 7.8c-1.5 0-2.8-.5-3.9-1.5-1-.9-1.6-2.7-1.6-5.1v-8.9h1.9v9c0 1.8.3 3.1 1 3.8.7.7 1.6 1 2.5 1s1.9-.3 2.6-1c.7-.7 1-2 1-3.8v-9h1.9v8.9c0 2.4-.5 4.1-1.6 5.1-1 1.1-2.4 1.6-3.8 1.5zm-14 12.8v-4.5h-4.2v-1.5h4.2v-4.5h1.6v4.5h4.2v1.5H914v4.5h-1.6zm-12.1 18.1c-1 0-2.1-.2-2.9-.6-.9-.3-1.7-.9-2.3-1.6l1.1-1.4c.5.6 1.2 1 1.9 1.4.7.3 1.5.5 2.2.5.9.1 1.6-.2 2.3-.7.5-.4.9-1.1.9-1.8.1-.7-.2-1.3-.7-1.7-.6-.4-1.2-.7-1.8-1l-2.2-.9c-.8-.3-1.5-.8-2.1-1.4-.7-.7-1-1.6-1-2.6 0-1.1.5-2.2 1.4-2.8.9-.8 2.2-1.2 3.4-1.1.9 0 1.7.2 2.5.5s1.4.8 2 1.4l-1 1.2c-.4-.4-.9-.8-1.6-1-.6-.3-1.3-.4-1.9-.3-.7 0-1.5.2-2.1.6-.5.3-.8.9-.8 1.6s.3 1.3.8 1.6 1.1.6 1.7.9l2.2.9c.9.3 1.6.9 2.2 1.5.6.7.9 1.6.9 2.6 0 1.2-.5 2.3-1.4 3.1-1 .6-2.4 1.1-3.7 1.1zm14.1 0c-1.9.1-3.7-.7-4.9-2.1-1.4-1.6-2.1-3.7-1.9-5.8-.1-2.1.6-4.1 2-5.8 1.3-1.4 3.1-2.2 5-2.1.9 0 1.8.2 2.7.6.6.3 1.2.8 1.7 1.3l-1 1.2c-.4-.4-.9-.8-1.4-1-.6-.3-1.3-.4-1.9-.4-1.4-.1-2.8.6-3.6 1.6-.9 1.3-1.5 2.8-1.4 4.5-.1 1.6.3 3.2 1.3 4.6.9 1.1 2.2 1.8 3.7 1.7 1 .1 2-.3 2.8-.9v-4h-3.3v-1.5h5v6.4c-.5.5-1.2.9-2 1.3-1 .2-1.9.4-2.8.4zm6.6-.3l4.4-7.8-4.1-7.3h2.2l2.1 3.9c.2.3.3.7.6 1l.6 1.2h.1l.6-1.2c.2-.3.3-.7.5-1l2-3.9h2.1l-4.1 7.4 4.4 7.8h-2.1l-2.2-4.1-.6-1.1c-.2-.4-.4-.9-.7-1.3h-.1c-.2.4-.4.9-.6 1.3s-.4.8-.6 1.1l-2.2 4.1-2.3-.1z" class="st4"/><path d="M137.2 75.7h66.3m-4.4-3.7l4.4 3.8-4.4 3.6m297.6-3.7H563m-4.4-3.7l4.4 3.8-4.4 3.6m136.8-3.7h66.3m-4.5-3.7l4.5 3.8-4.5 3.6" class="st5"/></svg>