<svg xmlns="http://www.w3.org/2000/svg" role="img" viewBox="-19.62 -20.62 1020.24 456.24"><style>.st0{fill:#dd2a7c}.st1,.st2{stroke:#969696;stroke-width:.89}.st1,.st2,.st3{fill:none;stroke-miterlimit:10}.st2{stroke-dasharray:4.25,4.25}.st3{stroke:#969696;stroke-width:.89;stroke-dasharray:4.24}</style><style>.st0{fill:#dd2a7c}.st1,.st2{stroke:#969696;stroke-width:.89}.st1,.st2,.st3{fill:none;stroke-miterlimit:10}.st2{stroke-dasharray:4.25,4.25}.st3{stroke:#969696;stroke-width:.89;stroke-dasharray:4.24}</style><style>.st0{fill:#dd2a7c}.st1,.st2{stroke:#969696;stroke-width:.89}.st1,.st2,.st3{fill:none;stroke-miterlimit:10}.st2{stroke-dasharray:4.25,4.25}.st3{stroke:#969696;stroke-width:.89;stroke-dasharray:4.24}</style><style>.st0{fill:#dd2a7c}.st1,.st2{stroke:#969696;stroke-width:.89}.st1,.st2,.st3{fill:none;stroke-miterlimit:10}.st2{stroke-dasharray:4.25,4.25}.st3{stroke:#969696;stroke-width:.89;stroke-dasharray:4.24}</style><style>.st0{fill:#dd2a7c}.st1,.st2{stroke:#969696;stroke-width:.89}.st1,.st2,.st3{fill:none;stroke-miterlimit:10}.st2{stroke-dasharray:4.25,4.25}.st3{stroke:#969696;stroke-width:.89;stroke-dasharray:4.24}</style><style>.st0{fill:#dd2a7c}.st1,.st2{stroke:#969696;stroke-width:.89}.st1,.st2,.st3{fill:none;stroke-miterlimit:10}.st2{stroke-dasharray:4.25,4.25}.st3{stroke:#969696;stroke-width:.89;stroke-dasharray:4.24}</style><path d="M10.9 367.8c-3 .2-5.9-1-7.9-3.1-1.8-2-2.7-5.2-2.7-9.7v-14.3h6v14.8c-.2 1.9.3 3.8 1.3 5.5.8 1 2.1 1.6 3.4 1.6 1.3.1 2.6-.5 3.5-1.6 1-1.7 1.4-3.6 1.2-5.5v-14.9h5.8v14.3c0 4.5-.9 7.7-2.7 9.8-2 2.2-5 3.3-7.9 3.1zm19.9-.5v-26.6H37l6.9 13.2 2.6 5.9h.2c-.1-1.4-.3-3-.5-4.7-.2-1.7-.3-3.3-.3-5v-9.4h5.7v26.6h-6.1l-6.9-13.2-2.7-5.8h-.2c.1 1.5.3 3 .5 4.7.2 1.6.3 3.3.3 4.9v9.4h-5.7zm30.4 0v-26.6h6.6l4.3 11.8c.3.8.5 1.6.8 2.4.3.8.5 1.7.8 2.5h.2c.3-.8.5-1.6.7-2.5.2-.8.5-1.6.7-2.4l4.2-11.8h6.6v26.6h-5.5v-9.8c0-1.5.1-3 .3-4.5.2-1.8.3-3.2.5-4.5h-.2l-2.2 6.3-3.9 10.2h-3.3L68 354.8l-2.1-6.3h-.2c.1 1.3.3 2.8.5 4.5.2 1.5.3 3 .3 4.5v9.8h-5.3zm45.1.5c-3.3.1-6.5-1.2-8.7-3.7-2.4-2.9-3.6-6.5-3.3-10.2-.2-3.7 1-7.3 3.3-10.1 4.8-4.8 12.6-4.8 17.5 0 2.4 2.8 3.6 6.4 3.3 10.1.2 3.7-1 7.4-3.3 10.2-2.3 2.5-5.5 3.8-8.8 3.7zm0-5.2c1.8 0 3.4-.9 4.3-2.4 1.2-1.9 1.7-4.1 1.6-6.4.1-2.2-.4-4.4-1.6-6.2-1.7-2.4-4.9-3-7.3-1.3-.5.4-1 .8-1.3 1.3-1.2 1.9-1.7 4-1.6 6.2-.1 2.2.4 4.4 1.6 6.4.9 1.6 2.6 2.5 4.3 2.4zm20.4 4.7v-26.6h7.5c3.5-.2 7 .9 9.7 3.2 2.4 2.1 3.7 5.5 3.7 10 0 4.6-1.2 7.9-3.7 10.1-2.6 2.3-6 3.4-9.4 3.3h-7.8zm6-4.8h1.2c2 .1 4-.5 5.5-1.8 1.4-1.3 2.1-3.5 2.1-6.7s-.7-5.4-2.1-6.6c-1.5-1.3-3.5-1.9-5.5-1.8h-1.2v16.9zm23.2 4.8v-26.6h6v26.6h-6zm15.5 0v-26.6h16.8v5.1h-10.8v6.1h9.1v5h-9.1v10.3l-6 .1zm24.6 0v-26.6h6v26.6h-6zm15.6 0v-26.6h16.6v5.1h-10.6v5.4h9.1v5h-9.1v6.1h11v5.1l-17-.1zm25.6 0v-26.6h7.5c3.5-.2 7 .9 9.7 3.2 2.4 2.1 3.7 5.5 3.7 10 0 4.6-1.2 7.9-3.7 10.1-2.6 2.3-6 3.4-9.4 3.3h-7.8zm6-4.8h1.2c2 .1 4-.5 5.5-1.8 1.4-1.3 2.1-3.5 2.1-6.7s-.7-5.4-2.1-6.6c-1.5-1.3-3.5-1.9-5.5-1.8h-1.2v16.9zM.6 416.3v-26.6h16.6v5H6.6v5.4h9.1v5H6.6v6.1h11.1v5.1H.6zm22.9 0l7.4-13.7-6.9-12.9h6.7l2.3 5c.3.6.6 1.3.9 2 .3.7.6 1.5 1 2.3h.2c.3-.8.6-1.6.9-2.3l.8-2 2.1-5h6.4l-6.9 13.2 7.3 13.4h-6.6l-2.6-5.5-.9-2.1-1-2.3h-.2c-.3.8-.6 1.6-.9 2.3l-.9 2.1-2.5 5.5h-6.6zm29.1 0v-26.6h16.6v5H58.7v5.4h9.1v5h-9.1v6.1h11v5.1H52.6zm36.7.5c-2.2 0-4.3-.5-6.2-1.6-1.9-1.1-3.4-2.7-4.5-4.6-1.2-2.3-1.8-4.9-1.7-7.5 0-2.6.6-5.2 1.8-7.5 1.1-2 2.7-3.6 4.6-4.8 1.9-1.1 4-1.7 6.2-1.6 1.6 0 3.2.3 4.6 1 1.3.6 2.4 1.4 3.4 2.4l-3.2 3.8c-.6-.6-1.4-1.1-2.2-1.5-.8-.4-1.7-.6-2.5-.6-1.8 0-3.5.8-4.6 2.3-1.3 1.8-2 4-1.8 6.3-.1 2.3.5 4.5 1.8 6.4 1.1 1.5 2.9 2.3 4.7 2.3 1 0 2-.2 2.9-.7.8-.5 1.6-1.1 2.3-1.8l3.2 3.7c-2.1 2.6-5.4 4.1-8.8 4zm26.4 0c-3 .2-5.9-.9-7.9-3.1-1.8-2-2.7-5.3-2.7-9.8v-14.3h6v14.9c-.2 1.9.2 3.8 1.2 5.5.8 1.1 2.1 1.6 3.4 1.6 1.3.1 2.6-.5 3.5-1.6 1-1.7 1.4-3.6 1.2-5.5v-14.9h5.8V404c0 4.5-.9 7.7-2.7 9.8-1.9 2.1-4.8 3.2-7.8 3zm25.2-.5v-21.6h-7.3v-5h20.6v5h-7.3v21.6h-6zm34.8 0L174 410h-8.1l-1.6 6.3h-6.1l8.3-26.6h7.3l8.3 26.6h-6.4zm-7.9-13.5l-.7 2.4h5.7l-.6-2.4c-.4-1.3-.7-2.8-1.1-4.3-.3-1.5-.7-2.9-1.1-4.3h-.2l-1 4.3c-.3 1.6-.5 3-1 4.3zm20.4 13.5v-26.6h9.1c2.4-.1 4.8.4 7 1.4 1.9 1 3 3.1 2.8 5.2 0 1.2-.3 2.4-.9 3.5-.5 1.1-1.5 1.9-2.6 2.3v.2c1.3.3 2.5 1.1 3.4 2.1 1 1.2 1.5 2.7 1.4 4.3.2 2.4-1 4.7-3 6-2.2 1.3-4.7 1.9-7.3 1.8l-9.9-.2zm6-16h2.8c1.1.1 2.3-.2 3.2-.8.7-.6 1-1.4 1-2.3 0-1.9-1.4-2.8-4.2-2.8h-2.8v5.9zm0 11.3h3.4c3.3 0 4.9-1.2 4.9-3.7s-1.6-3.3-4.9-3.3h-3.4v7zm21.9 4.7v-26.6h6v21.5h10.5v5.1h-16.5zm24.4 0v-26.6h16.7v5h-10.6v5.4h9v5h-9v6.1h11v5.1h-17.1z" class="st0"/><path d="M551.2 3.1l2.6-2.9h3.9" class="st1"/><path d="M565.4.2h129.4c9.2.3 16.4 7.9 16.2 17.1v254.5c0 9.4-7.3 17.2-16.2 17.2H525.5c-9.2-.3-16.4-8-16.2-17.2V49.7L548.6 6" class="st2"/><path d="M509.3 50.9H538c9.9 0 17.8-8 17.8-17.8V.2" class="st3"/><path d="M556.5 89.8c-2.7.1-5.3-1.4-6.6-3.8-1.8-3.4-2.6-7.2-2.4-11-.2-3.8.6-7.5 2.4-10.8 2.2-3.7 7-4.8 10.7-2.6 1 .6 1.9 1.5 2.6 2.6 1.8 3.3 2.6 7.1 2.4 10.8.2 3.8-.6 7.6-2.4 11-1.4 2.4-4 3.9-6.7 3.8zm0-2.9c1.8-.1 3.3-1.2 3.9-2.8 1.2-2.8 1.7-5.9 1.5-9 .2-3-.3-6.1-1.5-8.9-.7-1.6-2.2-2.7-3.9-2.7-1.7.1-3.3 1.1-4 2.7-1.2 2.8-1.7 5.9-1.5 8.9-.2 3.1.3 6.2 1.5 9 .7 1.6 2.2 2.7 4 2.8zm14.4 2.4v-3h6.4V65.5h-5.1v-2.3c1.1-.2 2.3-.4 3.4-.8.9-.3 1.8-.7 2.6-1.2h2.8v25.2h5.8v3h-15.9zm29.5.5c-2.7 0-5.2-1.4-6.6-3.8-1.8-3.4-2.6-7.2-2.4-11-.2-3.7.6-7.5 2.4-10.8 2.2-3.7 7-4.8 10.7-2.6 1 .6 1.9 1.5 2.6 2.6 1.8 3.3 2.6 7.1 2.4 10.8.2 3.8-.6 7.6-2.4 11-1.4 2.5-4 3.9-6.7 3.8zm0-2.9c1.8-.1 3.3-1.2 4-2.8 1.2-2.8 1.7-5.9 1.5-9 .2-3-.3-6.1-1.5-8.9-.9-2.2-3.3-3.3-5.5-2.4-1.1.4-2 1.3-2.4 2.4-1.2 2.8-1.7 5.9-1.5 8.9-.2 3.1.3 6.1 1.5 9 .6 1.6 2.1 2.7 3.9 2.8zm14.4 2.4v-3h6.4V65.5h-5.1v-2.3c1.1-.2 2.3-.4 3.4-.8.9-.3 1.8-.7 2.6-1.2h2.8v25.2h5.8v3h-15.9zm29.5.5c-2.7.1-5.3-1.4-6.6-3.8-1.8-3.4-2.6-7.2-2.4-11-.2-3.7.6-7.5 2.4-10.8 2.2-3.7 7-4.8 10.7-2.6 1 .6 1.9 1.5 2.6 2.6 1.8 3.3 2.6 7.1 2.4 10.8.2 3.8-.6 7.6-2.4 11-1.5 2.4-4 3.9-6.7 3.8zm0-2.9c1.7-.1 3.3-1.2 3.9-2.8 1.2-2.8 1.7-5.9 1.5-9 .2-3-.3-6.1-1.5-8.9-.8-2.2-3.3-3.3-5.5-2.4-1.1.4-2 1.3-2.4 2.4-1.2 2.8-1.7 5.8-1.5 8.9-.2 3.1.3 6.2 1.5 9 .7 1.6 2.2 2.7 4 2.8zm21.9 2.9c-2.8.1-5.3-1.4-6.7-3.8-1.8-3.4-2.6-7.2-2.4-11-.2-3.7.6-7.5 2.4-10.8 2.2-3.7 7-4.8 10.7-2.6 1 .6 1.9 1.5 2.6 2.6 1.8 3.3 2.6 7.1 2.4 10.8.2 3.8-.6 7.6-2.4 11-1.3 2.4-3.9 3.9-6.6 3.8zm0-2.9c1.8-.1 3.3-1.2 4-2.8 1.2-2.8 1.7-5.9 1.5-9 .2-3-.3-6.1-1.5-8.9-.9-2.2-3.3-3.3-5.5-2.4-1.1.4-2 1.3-2.4 2.4-1.2 2.8-1.7 5.9-1.5 8.9-.2 3.1.3 6.1 1.5 9 .6 1.6 2.2 2.7 3.9 2.8zm-109.7 55.9c-2.7 0-5.3-1.4-6.6-3.8-1.8-3.4-2.6-7.2-2.4-11-.2-3.8.6-7.5 2.4-10.8 2.2-3.7 7-4.8 10.7-2.6 1 .6 1.9 1.5 2.6 2.6 1.8 3.3 2.6 7.1 2.4 10.8.2 3.8-.6 7.6-2.4 11-1.5 2.4-4 3.9-6.7 3.8zm0-2.9c1.7-.1 3.3-1.2 3.9-2.8 1.2-2.8 1.7-5.9 1.5-9 .2-3-.3-6.1-1.5-8.9-.7-1.6-2.2-2.6-3.9-2.7-1.7.1-3.3 1.1-4 2.7-1.2 2.8-1.7 5.9-1.5 8.9-.2 3.1.3 6.2 1.5 9 .7 1.6 2.2 2.7 4 2.8zm14.4 2.4v-3h6.4v-20.7h-5.1v-2.2c1.1-.2 2.3-.5 3.4-.8.9-.3 1.8-.7 2.6-1.2h2.8v25.1h5.8v3h-15.9zm22 0v-3h6.4v-20.7h-5.1v-2.2c1.1-.2 2.3-.5 3.4-.8.9-.3 1.8-.7 2.6-1.2h2.8v25.1h5.8v3h-15.9zm29.4.5c-2.7 0-5.3-1.4-6.6-3.8-1.8-3.4-2.6-7.2-2.4-11-.2-3.7.6-7.5 2.4-10.8 2.2-3.7 7-4.8 10.7-2.6 1 .6 1.9 1.5 2.6 2.6 1.8 3.3 2.6 7.1 2.4 10.8.2 3.8-.6 7.6-2.4 11-1.4 2.4-3.9 3.9-6.7 3.8zm0-2.9c1.7-.1 3.3-1.2 3.9-2.8 1.2-2.8 1.7-5.9 1.5-9 .2-3-.3-6.1-1.5-8.9-.7-1.6-2.2-2.6-3.9-2.7-1.7.1-3.3 1.1-4 2.7-1.2 2.8-1.7 5.9-1.5 8.9-.2 3.1.3 6.2 1.5 9 .7 1.6 2.3 2.7 4 2.8zm22 2.9c-2.7 0-5.3-1.4-6.6-3.8-1.8-3.4-2.6-7.2-2.4-11-.2-3.7.6-7.5 2.4-10.8 2.2-3.7 7-4.8 10.7-2.6 1 .6 1.9 1.5 2.6 2.6 1.8 3.3 2.6 7.1 2.4 10.8.2 3.8-.6 7.6-2.4 11-1.5 2.4-4 3.9-6.7 3.8zm0-2.9c1.7-.1 3.3-1.2 3.9-2.8 1.2-2.8 1.7-5.9 1.5-9 .2-3-.3-6.1-1.5-8.9-.9-2.2-3.4-3.3-5.5-2.4-1.1.4-2 1.3-2.4 2.4-1.2 2.8-1.7 5.8-1.5 8.9-.2 3.1.3 6.2 1.5 9 .7 1.6 2.2 2.7 4 2.8z" class="st0"/><path fill="#128dc4" d="M666.2 142.8c-2.7 0-5.3-1.4-6.7-3.8-1.8-3.4-2.6-7.2-2.4-11-.2-3.7.6-7.5 2.4-10.8 2.2-3.7 7-4.8 10.7-2.6 1 .6 1.9 1.5 2.6 2.6 1.8 3.3 2.6 7.1 2.4 10.8.2 3.8-.6 7.6-2.4 11-1.3 2.4-3.9 3.9-6.6 3.8zm0-2.9c1.8-.1 3.3-1.2 4-2.8 1.2-2.8 1.7-5.9 1.5-9 .2-3-.3-6.1-1.5-8.9-.9-2.2-3.4-3.3-5.6-2.4-1.1.4-1.9 1.3-2.4 2.4-1.2 2.8-1.7 5.9-1.5 8.9-.2 3.1.3 6.2 1.5 9 .7 1.6 2.3 2.7 4 2.8z"/><path d="M549 195.3v-3h6.5v-20.8h-5.1v-2.3c1.1-.2 2.2-.5 3.3-.9.9-.3 1.8-.7 2.6-1.2h2.9v25.2h5.8v3h-16zm29.4.5c-2.7.1-5.3-1.4-6.6-3.8-1.8-3.4-2.6-7.2-2.4-11-.2-3.8.7-7.5 2.5-10.8 2.2-3.7 7-4.8 10.7-2.6 1 .6 1.9 1.5 2.6 2.6 1.8 3.3 2.6 7.1 2.4 10.8.2 3.8-.6 7.6-2.4 11-1.4 2.5-4 3.9-6.8 3.8zm0-2.9c1.7-.1 3.3-1.2 3.9-2.8 1.2-2.8 1.7-5.9 1.5-9 .2-3-.3-6.1-1.5-8.9-.8-2.2-3.3-3.3-5.5-2.4-1.1.4-2 1.3-2.4 2.4-1.2 2.8-1.7 5.8-1.5 8.9-.2 3.1.3 6.2 1.5 9 .7 1.7 2.3 2.8 4 2.8zm22 2.9c-2.7 0-5.3-1.4-6.6-3.8-1.8-3.4-2.6-7.2-2.4-11-.2-3.7.7-7.5 2.5-10.8 2.2-3.7 7-4.8 10.7-2.6 1 .6 1.9 1.5 2.6 2.6 1.8 3.3 2.6 7.1 2.4 10.8.2 3.8-.6 7.6-2.4 11-1.5 2.5-4.1 3.9-6.8 3.8zm0-2.9c1.8-.1 3.3-1.2 4-2.8 1.2-2.8 1.7-5.9 1.5-9 .2-3-.3-6.1-1.5-8.9-.9-2.2-3.3-3.3-5.5-2.4-1.1.4-2 1.3-2.4 2.4-1.2 2.8-1.7 5.9-1.5 8.9-.2 3.1.3 6.1 1.5 9 .5 1.7 2.1 2.8 3.9 2.8zm14.4 2.4v-3h6.4v-20.8h-5.1v-2.3c1.1-.2 2.3-.4 3.4-.8.9-.3 1.8-.7 2.6-1.2h2.8v25.2h5.8v3l-15.9-.1zm29.5.5c-2.7.1-5.3-1.4-6.6-3.8-1.8-3.4-2.6-7.2-2.4-11-.2-3.7.6-7.5 2.4-10.8 2.2-3.7 7-4.8 10.7-2.6 1 .6 1.9 1.5 2.6 2.6 1.8 3.3 2.6 7.1 2.4 10.8.2 3.8-.6 7.6-2.4 11-1.5 2.4-4 3.9-6.7 3.8zm0-2.9c1.7-.1 3.3-1.2 3.9-2.8 1.2-2.8 1.7-5.9 1.5-9 .2-3-.3-6.1-1.5-8.9-.8-2.2-3.3-3.3-5.5-2.4-1.1.4-2 1.3-2.4 2.4-1.2 2.8-1.7 5.8-1.5 8.9-.2 3.1.3 6.2 1.5 9 .6 1.7 2.2 2.8 4 2.8zm21.9 2.9c-2.7 0-5.3-1.4-6.6-3.8-1.8-3.4-2.6-7.2-2.4-11-.2-3.7.6-7.5 2.4-10.8 2.2-3.7 7-4.8 10.7-2.6 1 .6 1.9 1.5 2.6 2.6 1.8 3.3 2.6 7.1 2.4 10.8.2 3.8-.6 7.6-2.4 11-1.4 2.4-4 3.9-6.7 3.8zm0-2.9c1.8-.1 3.3-1.2 4-2.8 1.2-2.8 1.7-5.9 1.5-9 .2-3-.3-6.1-1.5-8.9-.9-2.2-3.3-3.3-5.5-2.4-1.1.4-2 1.3-2.4 2.4-1.2 2.8-1.7 5.9-1.5 8.9-.2 3.1.3 6.1 1.5 9 .6 1.7 2.1 2.8 3.9 2.8zM549 248.3v-3h6.5v-20.7h-5.1v-2.3c1.1-.2 2.3-.5 3.4-.8.9-.3 1.8-.7 2.6-1.2h2.8v25.2h5.8v3l-16-.2zm21.9 0v-3h6.4v-20.7h-5.1v-2.3c1.1-.2 2.3-.5 3.4-.8.9-.3 1.8-.7 2.6-1.2h2.8v25.2h5.8v3l-15.9-.2zm22 0v-3h6.4v-20.7h-5.1v-2.3c1.1-.2 2.3-.5 3.4-.8.9-.3 1.8-.7 2.6-1.2h2.8v25.2h5.8v3l-15.9-.2zm21.9 0v-3h6.4v-20.7h-5.1v-2.3c1.1-.2 2.3-.5 3.4-.8.9-.3 1.8-.7 2.6-1.2h2.8v25.2h5.8v3l-15.9-.2zm22 0v-3h6.4v-20.7h-5.1v-2.3c1.1-.2 2.3-.5 3.4-.8.9-.3 1.8-.7 2.6-1.2h2.7v25.2h5.8v3l-15.8-.2zm29.4.5c-2.7 0-5.3-1.4-6.6-3.8-1.8-3.4-2.6-7.2-2.4-11-.2-3.8.6-7.5 2.4-10.8 2.2-3.7 7-4.8 10.7-2.6 1 .6 1.9 1.5 2.6 2.6 1.8 3.3 2.6 7.1 2.4 10.8.2 3.8-.6 7.6-2.4 11-1.4 2.4-3.9 3.8-6.7 3.8zm0-2.9c1.8-.1 3.3-1.2 4-2.8 1.2-2.8 1.7-5.9 1.5-9 .2-3-.3-6.1-1.5-8.9-.9-2.2-3.4-3.3-5.6-2.4-1.1.4-1.9 1.3-2.4 2.4-1.2 2.8-1.7 5.9-1.5 8.9-.2 3.1.3 6.2 1.5 9 .7 1.7 2.2 2.8 4 2.8z" class="st0"/><path d="M66.3 3.1L68.9.2h3.9" class="st1"/><path d="M80.6.2H210c9.2.3 16.4 7.9 16.2 17.1v254.5c0 9.4-7.3 17.2-16.2 17.2H40.6c-9.2-.3-16.4-8-16.2-17.2V49.7L63.7 6" class="st2"/><path d="M24.4 50.9h28.7c9.8 0 17.8-8 17.8-17.8V.2" class="st3"/><path d="M71.6 89.8c-2.7.1-5.3-1.4-6.6-3.8-1.8-3.4-2.6-7.2-2.4-11-.2-3.8.6-7.5 2.4-10.8 2.2-3.7 7-4.8 10.7-2.6 1 .6 1.9 1.5 2.6 2.6 1.8 3.3 2.6 7.1 2.4 10.9.2 3.8-.6 7.6-2.4 11-1.5 2.3-4 3.8-6.7 3.7zm0-2.9c1.8-.1 3.3-1.2 3.9-2.8 1.2-2.8 1.7-5.9 1.5-9 .2-3-.3-6.1-1.5-8.9-.7-1.6-2.2-2.7-3.9-2.7-1.7.1-3.3 1.1-4 2.7-1.2 2.8-1.7 5.9-1.5 8.9-.2 3.1.3 6.1 1.5 9 .7 1.6 2.2 2.7 4 2.8zm14.5 2.4v-3h6.4V65.5h-5.2v-2.3c1.1-.2 2.3-.4 3.4-.8.9-.3 1.8-.7 2.7-1.2h2.8v25.2h5.8v3H86.1zm29.4.5c-2.7 0-5.3-1.4-6.6-3.8-1.8-3.4-2.6-7.2-2.4-11-.2-3.8.6-7.5 2.4-10.8 2.2-3.7 7-4.8 10.7-2.6 1 .6 1.9 1.5 2.6 2.6 1.8 3.3 2.6 7.1 2.3 10.9.2 3.8-.6 7.6-2.4 11-1.4 2.3-3.9 3.8-6.6 3.7zm0-2.9c1.8-.1 3.3-1.2 4-2.8 1.2-2.8 1.7-5.9 1.5-9 .2-3-.3-6.1-1.5-8.9-.8-2.2-3.3-3.3-5.5-2.4-1.1.4-2 1.3-2.4 2.4-1.2 2.8-1.7 5.8-1.5 8.9-.2 3.1.3 6.2 1.5 9 .6 1.6 2.1 2.7 3.9 2.8zm14.4 2.4v-3h6.4V65.5h-5.1v-2.3c1.1-.2 2.3-.4 3.3-.8.9-.3 1.8-.7 2.6-1.2h2.8v25.2h5.8v3h-15.8zm29.5.5c-2.7.1-5.3-1.4-6.6-3.8-1.8-3.4-2.6-7.2-2.4-11-.2-3.8.6-7.5 2.4-10.8 2.2-3.7 7-4.8 10.7-2.6 1 .6 1.9 1.5 2.6 2.6 1.8 3.3 2.6 7.1 2.4 10.8.2 3.8-.6 7.6-2.4 11-1.5 2.4-4 3.9-6.7 3.8zm0-2.9c1.7-.1 3.3-1.2 3.9-2.8 1.2-2.8 1.7-5.9 1.5-9 .2-3-.3-6.1-1.5-8.9-.8-2.2-3.3-3.3-5.5-2.4-1.1.4-2 1.3-2.4 2.4-1.2 2.8-1.7 5.9-1.5 8.9-.2 3.1.4 6.2 1.6 9 .6 1.6 2.1 2.7 3.9 2.8zm21.9 2.9c-2.7 0-5.3-1.4-6.6-3.8-1.8-3.4-2.6-7.2-2.4-11-.2-3.8.6-7.5 2.4-10.8 2.2-3.7 7-4.8 10.7-2.6 1 .6 1.9 1.5 2.6 2.6 1.8 3.3 2.6 7.1 2.4 10.8.2 3.8-.6 7.6-2.4 11-1.4 2.4-4 3.9-6.7 3.8zm0-2.9c1.8-.1 3.3-1.2 4-2.8 1.2-2.8 1.7-5.9 1.5-9 .2-3-.3-6.1-1.5-8.9-.8-2.2-3.3-3.3-5.5-2.4-1.1.4-2 1.3-2.4 2.4-1.2 2.8-1.7 5.8-1.5 8.9-.2 3.1.4 6.2 1.6 9 .5 1.6 2.1 2.7 3.8 2.8zM71.6 142.8c-2.7 0-5.3-1.4-6.6-3.8-1.8-3.4-2.6-7.2-2.4-11-.2-3.8.6-7.5 2.4-10.8 2.2-3.7 7-4.8 10.7-2.6 1 .6 1.9 1.5 2.6 2.6 1.8 3.3 2.6 7.1 2.4 10.8.2 3.8-.6 7.6-2.4 11-1.5 2.4-4 3.9-6.7 3.8zm0-2.9c1.7-.1 3.3-1.2 3.9-2.8 1.2-2.8 1.7-5.9 1.5-9 .2-3-.3-6.1-1.5-8.9-.7-1.6-2.2-2.6-3.9-2.7-1.7.1-3.3 1.1-4 2.7-1.2 2.8-1.7 5.9-1.5 8.9-.2 3.1.3 6.2 1.5 9 .7 1.6 2.2 2.7 4 2.8zm14.5 2.4v-3h6.4v-20.7h-5.2v-2.2c1.1-.2 2.3-.5 3.4-.8.9-.4 1.8-.8 2.7-1.3h2.8v25.2h5.8v3H86.1zm21.9 0v-3h6.4v-20.7h-5.1v-2.2c1.1-.2 2.3-.5 3.4-.8.9-.4 1.8-.8 2.6-1.3h2.8v25.2h5.8v3H108zm29.4.5c-2.7 0-5.3-1.4-6.6-3.8-1.8-3.4-2.6-7.2-2.4-11-.2-3.8.6-7.5 2.4-10.8 2.2-3.7 7-4.8 10.7-2.6 1 .6 1.9 1.5 2.6 2.6 1.8 3.3 2.6 7.1 2.4 10.8.2 3.8-.6 7.6-2.4 11-1.4 2.4-3.9 3.9-6.7 3.8zm0-2.9c1.7-.1 3.3-1.2 3.9-2.8 1.2-2.8 1.7-5.9 1.5-9 .2-3-.3-6.1-1.5-8.9-.7-1.6-2.2-2.6-3.9-2.7-1.7.1-3.3 1.1-4 2.7-1.2 2.8-1.7 5.9-1.5 8.9-.2 3.1.3 6.2 1.5 9 .7 1.6 2.3 2.7 4 2.8zm22 2.9c-2.7 0-5.3-1.4-6.6-3.8-1.8-3.4-2.6-7.2-2.4-11-.2-3.8.6-7.5 2.4-10.8 2.2-3.7 7-4.8 10.7-2.6 1 .6 1.9 1.5 2.6 2.6 1.8 3.3 2.6 7.1 2.4 10.8.2 3.8-.6 7.6-2.4 11-1.5 2.4-4 3.9-6.7 3.8zm0-2.9c1.7-.1 3.3-1.2 3.9-2.8 1.2-2.8 1.7-5.9 1.5-9 .2-3-.3-6.1-1.5-8.9-.9-2.2-3.4-3.3-5.5-2.4-1.1.4-2 1.3-2.4 2.4-1.2 2.8-1.7 5.9-1.5 8.9-.2 3.1.4 6.2 1.6 9 .6 1.6 2.1 2.7 3.9 2.8zm21.9 2.9c-2.7 0-5.3-1.4-6.6-3.8-1.8-3.4-2.6-7.2-2.4-11-.2-3.8.6-7.5 2.4-10.8 2.2-3.7 7-4.8 10.7-2.6 1 .6 1.9 1.5 2.6 2.6 1.8 3.3 2.6 7.1 2.4 10.8.2 3.8-.6 7.6-2.4 11-1.4 2.4-4 3.9-6.7 3.8zm0-2.9c1.8-.1 3.3-1.2 4-2.8 1.2-2.8 1.7-5.9 1.5-9 .2-3-.3-6.1-1.5-8.9-.9-2.2-3.4-3.3-5.5-2.4-1.1.4-2 1.3-2.4 2.4-1.2 2.8-1.7 5.8-1.5 8.9-.2 3.1.4 6.2 1.6 9 .5 1.6 2.1 2.7 3.8 2.8zM64.1 195.3v-3h6.4v-20.8h-5.1v-2.3c1.1-.2 2.3-.4 3.3-.8.9-.3 1.8-.8 2.6-1.3h2.8v25.2h5.8v3H64.1zm29.4.5c-2.7.1-5.3-1.4-6.6-3.8-1.8-3.4-2.6-7.2-2.4-11-.2-3.8.6-7.5 2.4-10.8 2.2-3.7 7-4.8 10.7-2.6 1 .6 1.9 1.5 2.6 2.6 1.8 3.3 2.6 7.1 2.4 10.9.2 3.8-.6 7.6-2.4 11-1.5 2.3-4 3.8-6.7 3.7zm0-2.9c1.7-.1 3.3-1.2 3.9-2.8 1.2-2.8 1.7-5.9 1.5-9 .2-3-.3-6.1-1.5-8.9-.8-2.2-3.3-3.3-5.5-2.4-1.1.4-2 1.3-2.4 2.4-1.2 2.8-1.7 5.8-1.5 8.9-.2 3.1.3 6.2 1.5 9 .7 1.7 2.2 2.8 4 2.8zm22 2.9c-2.7 0-5.3-1.4-6.6-3.8-1.8-3.4-2.6-7.2-2.4-11-.2-3.8.6-7.5 2.4-10.8 2.2-3.7 7-4.8 10.7-2.6 1 .6 1.9 1.5 2.6 2.6 1.8 3.3 2.6 7.1 2.3 10.9.2 3.8-.6 7.6-2.4 11-1.4 2.3-3.9 3.7-6.6 3.7zm0-2.9c1.8-.1 3.3-1.2 4-2.8 1.2-2.8 1.7-5.9 1.5-9 .2-3-.3-6.1-1.5-8.9-.8-2.2-3.3-3.3-5.5-2.4-1.1.4-2 1.3-2.4 2.4-1.2 2.8-1.7 5.8-1.5 8.9-.2 3.1.3 6.2 1.5 9 .5 1.7 2.1 2.8 3.9 2.8zm14.4 2.4v-3h6.4v-20.8h-5.1v-2.3c1.1-.2 2.3-.4 3.3-.8.9-.3 1.8-.8 2.6-1.3h2.8v25.2h5.8v3h-15.8zm29.5.5c-2.7.1-5.3-1.4-6.6-3.8-1.8-3.4-2.6-7.2-2.4-11-.2-3.8.6-7.5 2.4-10.8 2.2-3.7 7-4.8 10.7-2.6 1 .6 1.9 1.5 2.6 2.6 1.8 3.3 2.6 7.1 2.4 10.8.2 3.8-.6 7.6-2.4 11-1.5 2.4-4 3.9-6.7 3.8zm0-2.9c1.7-.1 3.3-1.2 3.9-2.8 1.2-2.8 1.7-5.9 1.5-9 .2-3-.3-6.1-1.5-8.9-.8-2.2-3.3-3.3-5.5-2.4-1.1.4-2 1.3-2.4 2.4-1.2 2.8-1.7 5.9-1.5 8.9-.2 3.1.3 6.2 1.5 9 .6 1.7 2.2 2.8 4 2.8zm21.9 2.9c-2.7 0-5.3-1.4-6.6-3.8-1.8-3.4-2.6-7.2-2.4-11-.2-3.8.6-7.5 2.4-10.8 2.2-3.7 7-4.8 10.7-2.6 1 .6 1.9 1.5 2.6 2.6 1.8 3.3 2.6 7.1 2.4 10.8.2 3.8-.6 7.6-2.4 11-1.4 2.4-4 3.9-6.7 3.8zm0-2.9c1.8-.1 3.3-1.2 4-2.8 1.2-2.8 1.7-5.9 1.5-9 .2-3-.3-6.1-1.5-8.9-.8-2.2-3.3-3.3-5.5-2.4-1.1.4-2 1.3-2.4 2.4-1.2 2.8-1.7 5.8-1.5 8.9-.2 3.1.3 6.2 1.5 9 .6 1.7 2.1 2.8 3.9 2.8zM64.1 248.3v-3h6.4v-20.7h-5.1v-2.3c1.1-.2 2.3-.5 3.3-.8.9-.3 1.8-.7 2.6-1.2h2.8v25.2H80v3l-15.9-.2zm22 0v-3h6.4v-20.7h-5.2v-2.3c1.1-.2 2.3-.5 3.4-.8.9-.3 1.8-.7 2.6-1.2h2.8v25.2h5.8v3l-15.8-.2zm21.9 0v-3h6.4v-20.7h-5.1v-2.3c1.1-.2 2.3-.5 3.4-.8.9-.3 1.8-.7 2.6-1.2h2.8v25.2h5.8v3l-15.9-.2zm21.9 0v-3h6.4v-20.7h-5.1v-2.3c1.1-.2 2.3-.5 3.3-.8.9-.3 1.8-.7 2.6-1.2h2.8v25.2h5.8v3l-15.8-.2zm21.9 0v-3h6.4v-20.7h-5.1v-2.3c1.1-.2 2.3-.5 3.4-.8.9-.3 1.8-.7 2.6-1.2h2.8v25.2h5.8v3l-15.9-.2zm29.5.5c-2.7 0-5.3-1.4-6.6-3.8-1.8-3.4-2.6-7.2-2.4-11-.2-3.8.6-7.5 2.4-10.8 2.2-3.7 7-4.8 10.7-2.6 1 .6 1.9 1.5 2.6 2.6 1.8 3.3 2.6 7.1 2.4 10.8.2 3.8-.6 7.6-2.4 11-1.4 2.4-4 3.9-6.7 3.8zm0-2.9c1.8-.1 3.3-1.2 4-2.8 1.2-2.8 1.7-5.9 1.5-9 .2-3-.3-6.1-1.5-8.9-.9-2.2-3.4-3.3-5.5-2.4-1.1.4-2 1.3-2.4 2.4-1.2 2.8-1.7 5.8-1.5 8.9-.2 3.1.3 6.2 1.5 9 .6 1.7 2.1 2.8 3.9 2.8z" class="st0"/><path d="M773.7 51.4h126.7c15.9 0 28.8 12.9 28.8 28.8v126.7c0 15.9-12.9 28.8-28.8 28.8H773.7c-15.9 0-28.8-12.9-28.8-28.8V80.2c.1-15.9 12.9-28.8 28.8-28.8z" class="st3"/><path d="M774.8 63.7h124.5c9.7 0 17.6 7.9 17.6 17.6v124.5c0 9.7-7.9 17.6-17.6 17.6H774.8c-9.7 0-17.6-7.9-17.6-17.6V81.3c.1-9.7 7.9-17.6 17.6-17.6zm4.2-61c2.9 0 5.2 2.3 5.2 5.1v23.7c0 2.8-2.3 5.1-5.1 5.1s-5.1-2.3-5.1-5.1V7.9c-.2-2.9 2.1-5.2 5-5.2zm29.4 0c2.9 0 5.2 2.3 5.2 5.1v23.7c0 2.8-2.3 5.1-5.1 5.1s-5.1-2.3-5.1-5.1V7.9a5 5 0 0 1 5-5.2zm59 0c2.9 0 5.2 2.3 5.2 5.1v23.7c0 2.8-2.3 5.1-5.1 5.1s-5.1-2.3-5.1-5.1V7.9a5 5 0 0 1 5-5.2zm-29.5 0c2.9 0 5.2 2.3 5.2 5.1v23.7c0 2.8-2.3 5.1-5.1 5.1s-5.1-2.3-5.1-5.1V7.9a5 5 0 0 1 5-5.2zm59 0c2.9 0 5.2 2.3 5.2 5.1v23.7c0 2.8-2.3 5.1-5.1 5.1s-5.1-2.3-5.1-5.1V7.9c-.2-2.9 2.1-5.2 5-5.2zM779 252.5c2.9 0 5.2 2.3 5.2 5.1v23.7c0 2.8-2.3 5.1-5.1 5.1s-5.1-2.3-5.1-5.1v-23.7c-.2-2.8 2.1-5.1 5-5.1zm29.4 0c2.9 0 5.2 2.3 5.2 5.1v23.7c0 2.8-2.3 5.1-5.1 5.1s-5.1-2.3-5.1-5.1v-23.7c-.1-2.8 2.2-5.1 5-5.1zm59 0c2.9 0 5.2 2.3 5.2 5.1v23.7c0 2.8-2.3 5.1-5.1 5.1s-5.1-2.3-5.1-5.1v-23.7c-.1-2.8 2.2-5.1 5-5.1zm-29.5 0c2.9 0 5.2 2.3 5.2 5.1v23.7c0 2.8-2.3 5.1-5.1 5.1s-5.1-2.3-5.1-5.1v-23.7c-.1-2.8 2.2-5.1 5-5.1zm59 0c2.9 0 5.2 2.3 5.2 5.1v23.7c0 2.8-2.3 5.1-5.1 5.1s-5.1-2.3-5.1-5.1v-23.7c-.2-2.8 2.1-5.1 5-5.1zm83.7-173c0 2.9-2.3 5.2-5.1 5.2h-23.7c-2.8 0-5.1-2.3-5.1-5.1s2.3-5.1 5.1-5.1h23.7c2.8-.1 5.1 2.2 5.1 5zm0 29.5c0 2.9-2.3 5.2-5.1 5.2h-23.7c-2.8 0-5.1-2.3-5.1-5.1s2.3-5.1 5.1-5.1h23.7c2.8-.2 5.1 2.1 5.1 5zm0 58.9c0 2.9-2.3 5.2-5.1 5.2h-23.7c-2.8 0-5.1-2.3-5.1-5.1s2.3-5.1 5.1-5.1h23.7c2.8-.1 5.1 2.2 5.1 5zm0-29.5c0 2.9-2.3 5.2-5.1 5.2h-23.7c-2.8 0-5.1-2.3-5.1-5.1s2.3-5.1 5.1-5.1h23.7c2.8-.1 5.1 2.2 5.1 5zm0 59c0 2.9-2.3 5.2-5.1 5.2h-23.7c-2.8 0-5.1-2.3-5.1-5.1s2.3-5.1 5.1-5.1h23.7c2.8-.1 5.1 2.1 5.1 5z" class="st3"/><path d="M810 130.4c-3.8.1-7.5-1.5-10-4.4-2.8-3.4-4.3-7.8-4-12.2-.3-4.4 1.2-8.8 4.1-12.2 2.6-2.9 6.3-4.5 10.2-4.5 1.8 0 3.6.4 5.2 1.2 1.4.7 2.6 1.6 3.7 2.8l-2.2 2.6c-.8-.9-1.8-1.6-2.9-2.2-1.1-.6-2.4-.8-3.7-.8-2.9-.1-5.6 1.2-7.3 3.5-2 2.7-3 6.1-2.8 9.5-.2 3.4.8 6.8 2.7 9.6 2.7 3.4 7.4 4.5 11.4 2.6 1.3-.7 2.4-1.6 3.3-2.7l2.2 2.5c-1.2 1.4-2.7 2.6-4.3 3.4-1.8.9-3.7 1.3-5.6 1.3zm15.8-.6V97.7h9.1c3.1-.1 6.1.6 8.8 2.2 2.2 1.4 3.3 3.9 3.3 7.3.2 2.9-1 5.7-3.3 7.5-2.5 1.7-5.5 2.6-8.6 2.4h-5.3v12.8l-4-.1zm4-16.1h4.8c5.5 0 8.3-2.2 8.3-6.6.2-1.9-.6-3.7-2.1-4.8-1.9-1-4.1-1.5-6.3-1.4h-4.6v12.8zm35.1 16.7c-3.1.1-6-1.1-8.3-3.1-2.2-2-3.3-5.6-3.3-10.8V97.7h4.1v18.9c0 3.9.7 6.6 2.2 8 1.4 1.4 3.3 2.2 5.3 2.2s4-.7 5.4-2.2c1.5-1.5 2.2-4.1 2.2-8V97.7h3.9v18.8c0 5.2-1.1 8.7-3.3 10.8-2.2 2.1-5.1 3.2-8.2 3.1zm-29.4 26.9v-9.5h-8.9v-3h8.9v-9.6h3.2v9.6h8.9v3h-8.9v9.5h-3.2zm-25.8 38.3c-2.2 0-4.3-.4-6.3-1.3-1.9-.8-3.6-2-5-3.5l2.4-2.8c1.2 1.2 2.5 2.2 4.1 2.9 1.5.7 3.2 1.1 4.8 1.1 1.8.1 3.5-.4 4.9-1.5 1.2-.9 1.9-2.3 1.8-3.8.1-1.4-.5-2.7-1.5-3.6-1.2-.8-2.5-1.5-3.8-2.1l-4.6-2c-1.7-.7-3.2-1.6-4.5-2.8-1.5-1.4-2.2-3.4-2.1-5.5 0-2.4 1-4.6 2.9-6.1 2-1.6 4.6-2.5 7.2-2.4 3.6 0 7 1.4 9.5 4l-2.2 2.6c-1-.9-2.1-1.7-3.3-2.2-1.3-.6-2.6-.8-4-.8-1.5-.1-3.1.4-4.3 1.3-1.1.8-1.7 2.1-1.6 3.4-.1 1.4.6 2.7 1.7 3.4 1.2.7 2.4 1.4 3.7 1.9l4.6 2c1.7.7 3.3 1.8 4.7 3.1 1.4 1.5 2.1 3.5 1.9 5.5 0 2.5-1 4.9-2.9 6.5-2.4 1.9-5.2 2.9-8.1 2.7zm29.8 0c-4 .1-7.8-1.5-10.4-4.4-2.9-3.4-4.3-7.8-4.1-12.2-.3-4.4 1.2-8.8 4.2-12.2 2.7-2.9 6.6-4.6 10.6-4.5 1.9-.1 3.9.4 5.6 1.2 1.4.7 2.6 1.6 3.7 2.7l-2.3 2.6c-.8-.8-1.8-1.6-2.8-2.1-1.2-.6-2.6-1-4-.9-3-.1-5.9 1.2-7.7 3.5-2 2.7-3.1 6.1-2.9 9.5-.2 3.4.8 6.8 2.8 9.6 1.9 2.4 4.8 3.8 7.9 3.7 2.1.2 4.2-.5 5.8-1.8v-8.5h-6.8v-3.4h10.5v13.5c-1.2 1.2-2.6 2.1-4.1 2.7-2 .7-4 1.1-6 1zm13.9-.5l9.4-16.7-8.7-15.5h4.6l4.4 8.2c.4.7.8 1.4 1.2 2.2l1.3 2.5h.2l1.2-2.5c.3-.7.7-1.4 1.1-2.2l4.3-8.2h4.3l-8.8 15.8 9.3 16.4h-4.5l-4.7-8.7c-.4-.8-.9-1.6-1.3-2.4-.4-.8-.9-1.8-1.4-2.7h-.3c-.5 1-.9 1.8-1.3 2.7l-1.2 2.4-4.6 8.7h-4.5z" class="st0"/><path fill="none" stroke="#dd2a7c" stroke-miterlimit="10" stroke-width="1.34" d="M297.7 129.5H438m-9.4-7.9l9.4 7.9-9.4 7.8"/><path fill="#dd2a7c" stroke="#969696" stroke-dasharray="4.24" stroke-miterlimit="10" stroke-width=".89" d="M715.7 68h9.6c38.7 0 70.1 31.4 70.1 70.1v9.6c0 38.7-31.4 70.1-70.1 70.1h-9.6c-38.7 0-70.1-31.4-70.1-70.1v-9.6c0-38.8 31.4-70.1 70.1-70.1z"/><path fill="#fff" d="M734.7 107.1c.4-.1.7-.5.7-.9-.1-.3-.3-.6-.7-.7h-.2l-.5-.8c.2-.1.2-.3.3-.5 0-.2-.1-.4-.3-.6l.5-.8h.2c.4-.1.7-.5.7-.9-.1-.3-.3-.6-.7-.7h-.2l-.5-.8c.2-.2.3-.4.3-.6 0-.4-.3-.8-.8-.8-.4 0-.7.3-.7.6h-1c-.1-.4-.4-.6-.8-.6s-.8.3-.8.8c0 .2.1.4.3.6l-.5.8h-.2c-.4 0-.7.3-.7.6h-1c-.1-.4-.4-.6-.7-.6h-.4l-.5-.8c.2-.2.2-.4.2-.6 0-.4-.3-.8-.8-.8-.4 0-.7.3-.8.6h-1c-.1-.4-.4-.6-.7-.6-.4 0-.8.3-.8.7 0 .2.1.4.3.6l-.5.8h-.4l-.5-.8c.2-.1.3-.4.3-.6 0-.4-.4-.8-.8-.7-.3 0-.6.2-.7.6h-1c-.1-.4-.4-.6-.7-.6-.4 0-.8.3-.8.7 0 .2.1.4.3.6l-.5.8h-.2c-.4 0-.7.3-.7.6h-1c-.1-.4-.4-.6-.8-.6s-.8.3-.8.8c0 .2.1.4.2.6l-.5.8h-.2c-.4 0-.7.3-.7.6h-1c-.1-.4-.6-.6-1-.5-.3.1-.5.4-.6.7 0 .2.1.4.3.6l-.5.8h-.2c-.4-.1-.8.2-.9.7-.1.4.2.8.7.9h.4l.5.8c-.2.1-.3.3-.3.6 0 .2.1.4.3.6l-.5.8h-.2c-.4-.1-.8.2-.9.7-.1.4.2.8.7.9h.4l.5.8c-.2.1-.3.3-.3.6 0 .2.1.4.3.6l-.5.8h-.2c-.4-.1-.8.2-.9.7-.1.4.2.8.7.9h.4l.5.8c-.2.1-.3.3-.3.6 0 .4.4.8.8.7.3 0 .6-.2.7-.6h1c.1.4.4.6.7.6h.2l.5.8c-.2.2-.2.4-.2.6 0 .4.3.8.8.8.4 0 .7-.3.8-.6h1c.1.4.4.6.7.6h.2l.5.8c-.2.1-.2.4-.3.6 0 .4.4.8.8.8s.7-.3.7-.6h1c.1.4.4.6.8.6s.8-.3.8-.8c0-.2-.1-.4-.2-.6l.5-.8h.4l.5.8c-.2.1-.2.4-.3.6 0 .4.4.8.8.8s.7-.3.7-.6h1c.1.4.4.6.8.6h.2l.5.8c-.2.1-.3.4-.3.6 0 .4.4.8.8.7.3 0 .6-.2.7-.6h.9c.1.4.4.6.8.7h.2l.5.8c-.2.1-.2.4-.3.6 0 .2.1.4.3.5l-.5.8h-.2c-.4.1-.7.5-.7.9.1.3.3.6.7.7h.2l.5.8c-.1.1-.2.3-.2.5s.1.4.2.5l-.4.8h-.3c-.4 0-.7.3-.7.6h-1c-.1-.4-.4-.6-.7-.6-.4 0-.8.3-.8.7 0 .2.1.4.3.6l-.5.8h-.2c-.4 0-.7.3-.8.6h-1c-.1-.4-.4-.6-.7-.6-.4 0-.8.4-.8.8 0 .2.1.4.3.6l-.5.8h-.4l-.5-.8c.2-.1.3-.3.3-.6 0-.4-.4-.8-.8-.7-.3 0-.6.2-.7.6h-1c-.1-.4-.4-.6-.7-.6h-.2l-.5-.8c.2-.1.3-.3.3-.6 0-.4-.4-.8-.8-.7-.3 0-.6.2-.7.6h-.9c-.1-.4-.4-.6-.8-.6h-.2l-.5-.8c.1-.1.1-.2.2-.3v-.3c0-.2-.1-.4-.3-.6l.5-.8h.2c.3 0 .7-.2.7-.6v-.2c0-.4-.4-.8-.8-.8h-.2l-.4-1.1c.2-.1.3-.3.3-.6 0-.4-.4-.8-.8-.8s-.7.3-.7.6h-1c-.1-.4-.4-.6-.7-.6-.4 0-.8.4-.8.8 0 .2.1.4.3.6l-.5.8h-.2c-.4 0-.8.4-.8.8s.4.8.8.8h.2l.5.8c-.2.1-.3.4-.3.6 0 .2.1.4.3.6l-.5.8h-.2c-.4-.1-.8.2-.9.7-.1.4.2.8.7.9h.4l.5.8c-.2.1-.3.3-.3.6 0 .4.4.8.8.8s.7-.3.7-.6h.9c.1.4.4.6.8.6h.2l.5.8c-.2.1-.3.3-.3.6 0 .4.3.8.7.8.4 0 .8-.3.8-.7h1c.1.4.4.6.8.6h.2l.5.8c-.2.1-.3.4-.3.6 0 .4.3.8.8.8.4 0 .7-.3.7-.6h1c.1.4.6.6 1 .5.3-.1.5-.4.6-.7 0-.2-.1-.4-.3-.6l.5-.8h.4l.5.8c-.2.2-.3.4-.3.6 0 .4.3.8.8.8.4 0 .7-.3.7-.6h1c.1.4.4.6.8.6s.8-.3.8-.8c0-.2-.1-.4-.2-.6l.4-1h.2c.4 0 .7-.3.7-.6h1c0 .4.4.7.8.7s.7-.4.7-.8c0-.2-.1-.4-.3-.6l.5-.8h.2c.4 0 .7-.3.8-.6h1c.1.4.4.6.7.6.4 0 .8-.4.8-.8 0-.2-.1-.4-.3-.6l.5-.8h.2c.4-.1.7-.5.7-.9-.1-.3-.3-.6-.7-.7h-.2l-.5-.8c.1-.1.2-.3.2-.5s-.1-.4-.2-.5l.5-.8h.2c.4-.1.7-.5.7-.9-.1-.3-.3-.6-.7-.7h-.2l-.5-.8c.2-.1.2-.3.2-.5s-.1-.4-.2-.6l.5-.8h.2c.4 0 .8-.3.8-.8 0-.4-.3-.8-.8-.8h-.2l-.5-.8c.2-.1.2-.3.2-.5 0-.4-.4-.8-.8-.8s-.7.3-.7.6h-1c-.1-.4-.4-.6-.8-.6h-.2l-.5-.8c.2-.1.3-.3.3-.6 0-.2-.1-.4-.3-.6l.5-.8h.2c.4 0 .7-.3.8-.6h1c.1.4.4.6.7.6.4.1.8-.2.9-.7 0-.2-.1-.4-.3-.6l.5-.8h.2c.4-.1.7-.5.7-.9-.1-.3-.3-.6-.7-.7h-.2l-.5-.8c.2-.2.3-.4.3-.6 0-.2-.1-.4-.3-.6l.5-.8h.2c.4-.1.7-.5.7-.9-.1-.3-.3-.6-.7-.7h-.2l-.5-.8c.2-.2.3-.4.3-.6 0-.2-.1-.4-.3-.6l.5-.8.3.3zm-.5 4.1l-.5.8h-.2c-.4 0-.7.3-.7.6h-1c-.1-.4-.4-.6-.8-.6h-.2l-.5-.8c.2-.1.3-.3.3-.6 0-.2-.1-.4-.3-.6l.5-.8h.2c.4 0 .7-.3.8-.6h1c.1.4.4.6.7.6h.2l.5.8c-.2.1-.3.3-.3.6.1.3.2.5.3.6zm0 4.3l-.5.8h-.2c-.4 0-.7.3-.7.6h-1c-.1-.4-.4-.6-.8-.6h-.2l-.5-.8c.2-.1.3-.3.3-.6 0-.2-.1-.4-.3-.6l.5-.8h.2c.4 0 .7-.3.8-.6h1c.1.4.4.6.7.6h.2l.5.8c-.2.1-.3.4-.3.6.1.3.2.5.3.6zm-.7 6.7h.2l.5.8c-.2.1-.2.3-.2.5s.1.4.2.6l-.5.8h-.2c-.4 0-.7.3-.7.6h-1c-.1-.4-.4-.6-.8-.6h-.2l-.5-.8c.2-.1.2-.4.2-.6 0-.2-.1-.4-.2-.5l.5-.8h.2c.4 0 .7-.3.8-.6h1c.1.4.3.6.7.6zm.7 6.2l-.5.8h-.3c-.4 0-.7.3-.7.6h-1c-.1-.4-.4-.6-.8-.6h-.3l-.5-.8c.2-.1.3-.4.3-.6 0-.2-.1-.4-.3-.6l.5-.8h.2c.4 0 .7-.3.8-.6h1c.1.4.4.6.7.6h.2l.5.8c-.2.1-.3.3-.3.6.3.2.3.5.5.6zm-4-7c0 .2.1.4.2.5l-.5.8h-.2c-.4 0-.7.3-.7.6h-1c-.1-.4-.4-.6-.8-.6h-.2l-.5-.8c.2-.1.2-.4.2-.6 0-.2-.1-.4-.2-.6l.5-.8h.2c.4 0 .7-.2.8-.6h1c.1.4.4.6.7.6h.2l.5.8c-.1.2-.2.4-.2.7zm-15.3-2.9h-.2l-.5-.8c.2-.1.3-.3.3-.6 0-.2-.1-.4-.3-.6l.5-.8h.2c.4 0 .7-.3.8-.6h1c.1.4.4.6.7.6h.2l.5.8c-.2.1-.3.3-.3.5s.1.4.3.6l-.5.8h-.2c-.4 0-.7.3-.7.6h-1c-.2-.3-.5-.5-.8-.5zm-3.6-2.2h-.2l-.5-.8c.2-.1.2-.4.2-.6 0-.2-.1-.4-.2-.6l.5-.8h.2c.4 0 .7-.2.8-.6h1c.1.4.4.6.7.6h.2l.5.8c-.2.2-.3.4-.3.6 0 .2.1.4.3.6l-.5.8h-.2c-.4 0-.7.3-.7.6h-1c-.1-.4-.5-.7-.9-.6h-.1.2zm-.8-6.2l.5-.8h.2c.4 0 .7-.2.8-.6h1c.1.4.4.6.7.6h.2l.5.8c-.2.1-.3.3-.3.6 0 .2.1.4.3.6l-.5.8h-.2c-.4 0-.7.3-.7.6h-1c-.1-.4-.4-.6-.8-.6h-.2l-.5-.8c.2-.1.2-.4.2-.6 0-.3-.1-.5-.2-.6zm0-4.3l.5-.8h.2c.4 0 .7-.2.8-.6h1c.1.4.4.6.7.6h.2l.5.8c-.2.1-.3.3-.3.6 0 .2.1.4.3.6l-.5.8h-.2c-.4 0-.7.3-.7.6h-1c-.1-.4-.4-.6-.8-.6h-.2l-.5-.8c.2-.1.2-.4.2-.6 0-.2-.1-.5-.2-.6zm4.4-3c.4 0 .7-.3.8-.6h1c.1.4.4.6.7.6h.2l.5.8c-.2.1-.3.4-.3.6 0 .2.1.4.3.6l-.5.8h-.2c-.4 0-.7.3-.7.6h-1c-.1-.4-.4-.6-.8-.6h-.2l-.5-.9c.2-.1.3-.4.3-.6 0-.2-.1-.4-.3-.6l.5-.8.2.1zm3.6-2.1c.4 0 .7-.3.7-.6h1c.1.4.4.6.8.6h.2l.5.8c-.2.1-.2.4-.2.6 0 .2.1.4.2.6l-.5.8h-.2c-.4 0-.7.2-.8.6h-1c-.1-.4-.4-.6-.7-.6h-.2l-.5-.8c.2-.1.2-.4.3-.6 0-.2-.1-.4-.3-.6l.5-.8h.2zm5 0c.4 0 .7-.3.7-.6h1c.1.4.4.6.8.6h.2l.5.8c-.2.1-.3.3-.3.6 0 .2.1.4.3.6l-.5.8h-.2c-.4 0-.7.3-.8.6h-1c-.1-.4-.4-.6-.7-.6h-.2l-.5-.8c.2-.1.3-.3.3-.6 0-.2-.1-.4-.3-.6l.5-.9.2.1zm7.4 0c.4 0 .7-.3.8-.6h1c.1.4.4.6.7.6h.2l.5.8c-.2.1-.3.3-.3.6 0 .2.1.4.3.6l-.5.8h-.2c-.4 0-.7.3-.7.6h-1c-.1-.4-.4-.6-.8-.6h-.2l-.5-.8c.2-.1.3-.3.3-.6 0-.2-.1-.4-.3-.6l.5-.8h.2zm-7.4 20h-.2l-.5-.8c.2-.1.3-.3.3-.6 0-.2-.1-.4-.3-.6l.5-.8h.2c.4 0 .7-.3.7-.6h1c.1.4.4.6.8.6h.2l.5.8c-.2.1-.3.4-.3.6 0 .2.1.4.3.6l-.5.8h-.2c-.4 0-.7.2-.8.6h-1c0-.4-.3-.6-.7-.6zm-2.5 0c-.4 0-.7.2-.8.6h-1c-.1-.4-.4-.6-.7-.6h-.2l-.5-.8c.2-.1.2-.4.3-.6 0-.2-.1-.4-.3-.6l.5-.8h.2c.4 0 .7-.3.7-.6h1c.1.4.4.6.8.6h.2l.5.8c-.2.2-.2.4-.2.6 0 .2.1.4.2.6l-.5.8h-.2zm9.4-11.5l-.5.8h-.2c-.4.1-.7.5-.7.9.1.3.3.6.7.7h.2l.5.8c-.2.1-.2.4-.3.6 0 .2.1.4.3.6l-.5.8h-.2c-.4 0-.7.3-.7.6h-1c-.1-.4-.6-.6-1-.5-.3.1-.5.4-.6.7 0 .2.1.4.3.6l-.5.8h-.2c-.4 0-.7.2-.8.6h-1c-.1-.4-.4-.6-.7-.6-.4 0-.8.3-.8.7 0 .2.1.4.3.6l-.5.8h-.5l-.5-.8c.2-.2.2-.4.2-.6 0-.4-.3-.8-.8-.8-.4 0-.7.2-.8.6h-1c-.1-.4-.4-.6-.7-.6h-.2l-.5-.8c.2-.1.2-.4.3-.6 0-.4-.4-.8-.8-.8s-.7.3-.7.6h-1c-.1-.4-.4-.6-.8-.6h-.2l-.5-1c.2-.1.3-.4.3-.6 0-.2-.1-.4-.3-.6l.5-.8h.2c.4.1.8-.2.9-.7.1-.4-.2-.8-.7-.9h-.4l-.5-.8c.2-.1.3-.4.3-.6 0-.2-.1-.4-.3-.5l.5-.8h.2c.4 0 .7-.3.8-.6h1c.1.4.4.6.7.6.4 0 .8-.3.8-.7 0-.2-.1-.4-.3-.6l.5-.8h.2c.4 0 .7-.3.7-.6h1c.1.4.6.6 1 .5.3-.1.5-.4.6-.7 0-.2-.1-.4-.3-.6l.5-.8h.5l.5.8c-.2.1-.2.4-.3.6 0 .4.4.8.8.8s.7-.3.7-.6h1c.1.4.4.6.8.6h.2l.5.8c-.2.1-.3.4-.3.6 0 .4.3.8.8.8.4 0 .7-.3.7-.6h1c.1.4.4.6.7.6h.2l.5.8c-.2.1-.2.4-.3.6.2.2.3.4.5.7zm-.7-6.3h.2l.5.8c-.2.1-.2.4-.3.6 0 .2.1.4.3.6l-.5.8h-.2c-.4 0-.7.3-.7.6h-1c-.1-.4-.4-.6-.7-.6h-.3l-.5-.8c.2-.2.2-.4.2-.6 0-.2-.1-.4-.2-.6l.5-.8h.2c.4 0 .7-.3.7-.6h1c.1.3.4.5.8.6zm0 15.6c-.4 0-.7.3-.7.6h-1c-.1-.4-.4-.6-.8-.6h-.2l-.5-.8c.2-.1.2-.4.2-.6 0-.2-.1-.4-.2-.6l.5-.8h.2c.4 0 .7-.2.8-.6h1c.1.4.4.6.7.6h.2l.5.8c-.2.1-.2.4-.3.6 0 .2.1.4.3.6l-.5.8h-.2zm3.6-10.7c-.4 0-.7.3-.7.6h-1c-.1-.4-.4-.6-.8-.6h-.2l-.5-.8c.2-.1.3-.3.3-.6 0-.2-.1-.4-.3-.6l.5-.8h.2c.4 0 .7-.3.8-.6h1c.1.4.4.6.7.6h.2l.5.8c-.2.1-.3.3-.3.6 0 .2.1.4.3.6l-.5.8h-.2zm-3.6 27.8c-.4 0-.7.3-.7.6h-1c-.1-.4-.4-.6-.7-.6h-.3l-.5-.8c.2-.1.2-.4.2-.6 0-.2-.1-.4-.2-.6l.5-.8h.2c.4 0 .7-.3.7-.6h1c.1.4.4.6.7.6h.2l.5.8c-.2.1-.3.4-.3.6 0 .2.1.4.3.6l-.5.8h-.1zm-3.7 2.2c-.4 0-.7.3-.8.6h-1c-.1-.4-.4-.6-.7-.6h-.2l-.5-.8c.3-.3.3-.7.1-1.1 0 0 0-.1-.1-.1l.5-.8h.2c.4 0 .7-.3.7-.6h1c.1.4.4.6.8.6h.2l.5.8c-.2.1-.3.3-.3.6 0 .2.1.4.3.6l-.5.8h-.2zm-4.9 0c-.4 0-.7.2-.8.6h-1c-.1-.4-.4-.6-.7-.6h-.2l-.5-.8c.3-.3.3-.7.1-1.1 0 0 0-.1-.1-.1l.5-.8h.2c.4 0 .7-.3.7-.6h1c.1.4.4.6.8.6h.2l.5.8c-.2.1-.2.4-.2.6 0 .2.1.4.2.6l-.5.8h-.2zm-6.2-2.2h-.2l-.5-.8c.1-.1.2-.2.2-.4v-.2c0-.2-.1-.4-.2-.6l.5-.8h.2c.4 0 .7-.2.7-.6h1c.1.4.4.6.8.6h.2l.5.8c-.2.2-.2.4-.2.6 0 .2.1.4.2.6l-.5.8h-.2c-.4 0-.7.3-.8.6h-1c-.1-.3-.4-.6-.7-.6zm-3.7-2.1h-.2l-.5-.8c.2-.2.2-.4.2-.6 0-.2-.1-.4-.2-.6l.5-.8h.2c.4 0 .7-.3.7-.6h.9c.1.4.4.6.8.6h.2l.5.8c-.1.1-.2.2-.2.4v.2c0 .2.1.4.3.6l-.5.8h-.2c-.4 0-.7.2-.7.6h-1c-.1-.4-.5-.7-.9-.6h.1zm-.7-6.4l.5-.8h.2c.4 0 .7-.3.7-.6h1c.1.4.4.6.7.6h.2l.5.8c-.1.1-.2.2-.2.4v.2c0 .2.1.4.3.6l-.5.8h-.2c-.3 0-.7.2-.7.6h-1c-.1-.4-.4-.6-.7-.6h-.3l-.5-.8c.3-.4.3-.9 0-1.2zm23.7 4.4c-.2.1-.3.4-.3.6 0 .2.1.4.3.6l-.5.8h-.2c-.4 0-.7.3-.7.6h-1c-.1-.4-.4-.6-.8-.6h-.2l-.5-.8c.2-.1.2-.3.2-.5s-.1-.4-.2-.6l.4-.8h.3c.4 0 .7-.3.8-.6h1c.1.4.4.6.7.6h.3l.4.7zm-60.3 42.3c-1.9.1-3.8-.7-5.1-2.1a8.73 8.73 0 0 1-2-6c-.1-2.2.6-4.3 2-5.9 1.3-1.4 3.2-2.2 5.1-2.2.9 0 1.9.2 2.7.6.7.3 1.3.8 1.8 1.3l-1.1 1.3c-.4-.4-.9-.8-1.4-1-.6-.3-1.3-.5-2-.4-1.5-.1-2.8.6-3.8 1.7-1 1.3-1.5 3-1.4 4.6-.1 1.7.4 3.3 1.3 4.7.9 1.2 2.3 1.9 3.8 1.8 1 .1 2-.3 2.8-.9v-4.2h-3.3v-1.6h5.1v6.6c-.6.6-1.2 1-2 1.3-.5.3-1.5.4-2.5.4zm10.6-.3h-2v-15.6h4.9c1.4-.1 2.7.3 3.9 1 1.1.8 1.7 2.1 1.5 3.4.1 1.1-.3 2.1-1 2.9-.7.7-1.6 1.3-2.6 1.5l4 6.8H691l-3.8-6.6h-2.8l.1 6.6zm0-8.2h2.6c2.5 0 3.8-1 3.8-3 .1-.8-.3-1.7-1-2.1-.9-.5-1.8-.7-2.8-.6h-2.6v5.7zm20 8.2l-1.5-4.7h-5.7l-1.5 4.7h-2l5.3-15.6h2.2l5.3 15.6h-2.1zm-5.9-8.7l-.7 2.4h4.7l-.7-2.4c-.3-.9-.5-1.8-.8-2.6-.3-.8-.5-1.8-.8-2.7h-.1c-.2.9-.5 1.8-.7 2.7s-.6 1.7-.9 2.6zm10.3 8.7v-15.6h4.5c1.5-.1 2.9.3 4.2 1 1.2.8 1.8 2.2 1.6 3.7.1 1.4-.5 2.8-1.6 3.7-1.2.9-2.7 1.3-4.2 1.2h-2.6v6.2l-1.9-.2zm1.9-7.8h2.3c2.7 0 4-1.1 4-3.2.1-.9-.3-1.8-1-2.3-.9-.5-2-.7-3.1-.7h-2.2v6.2zm11.5 7.8v-15.6h2v6.6h7.3v-6.6h2v15.6h-2v-7.3h-7.3v7.3h-2zm15.6 0v-15.6h9v1.7h-7v4.9h5.9v1.7h-5.9v5.6h7.3v1.7h-9.3zm12.5 0v-15.6h2.1l5.6 9.8 1.7 3.2c0-.8-.1-1.6-.2-2.4-.1-.8 0-1.7 0-2.5v-8.1h1.8v15.6h-2l-5.7-9.8-1.7-3.2c0 .8.1 1.6.2 2.4.1.8 0 1.6 0 2.4v8.2h-1.8zm15.4 0v-15.6h9v1.7h-7v4.9h5.9v1.7h-5.9v5.6h7.3v1.7h-9.3z"/></svg>