<?xml version="1.0" encoding="UTF-8" standalone="no"?><svg xmlns="http://www.w3.org/2000/svg" width="400" height="245"><path fill="#888" d="M131.7 65.6c-18.8 0-34.1 15.3-34.1 34.1s15.3 34.1 34.1 34.1 34.1-15.3 34.1-34.1c.1-18.8-15.2-34.1-34.1-34.1m0 56.9c-12.5 0-22.8-10.2-22.8-22.8S119.2 77 131.7 77s22.8 10.2 22.8 22.8c0 12.5-10.2 22.7-22.8 22.7m56.9-91H200v100.7h-11.4V31.5zm204.8 35.8v64.8H382V78.7h-22.8v53.5h-11.4V78.7H325v53.5h-11.4V67.3h79.8zM76.9 55.5 60.5 72c-5.6-4-12.4-6.3-19.8-6.3C21.9 65.7 6.6 81 6.6 99.8c0 16.9 12.3 30.9 28.4 33.6v12.3c-16.1 2.7-28.4 16.8-28.4 33.6 0 18.8 15.3 34.1 34.1 34.1s34.1-15.3 34.1-34.1c0-16.9-12.3-30.9-28.4-33.6v-12.3c16.1-2.7 28.4-16.8 28.4-33.6 0-7.4-2.3-14.2-6.3-19.8L85 63.6l-8.1-8.1zM63.5 179.4c0 12.5-10.2 22.8-22.8 22.8-12.5 0-22.8-10.2-22.8-22.8 0-12.5 10.2-22.8 22.8-22.8 12.6 0 22.8 10.2 22.8 22.8m-22.8-56.9c-12.5 0-22.8-10.2-22.8-22.8S28.2 77 40.7 77s22.8 10.2 22.8 22.8c0 12.5-10.2 22.7-22.8 22.7m216.7-56.9c-9.7 0-18.4 3.5-24.7 10-6.1 6.3-9.4 14.8-9.4 24.2 0 9.4 3.3 17.9 9.2 24.1 6.3 6.5 14.9 10 24.9 10 10.8 0 22-5.3 27.9-13.1l-9.1-6.8c-3.8 5-11.5 8.5-18.8 8.5-11.8 0-20.3-6.9-22.3-17.6h55.3v-5.7c0-9.1-3.2-17.4-9-23.6-6-6.4-14.6-10-24-10m-22 27.9c2.5-10 10.8-16.5 22-16.5 10.8 0 18.8 6.5 21 16.5h-43z"/></svg>