<svg xmlns="http://www.w3.org/2000/svg" role="img" viewBox="11.99 12.49 140.26 208.26"><path fill="#dd2a7c" d="M141.9 177.9c-.8.7-1.3 1.7-1.3 2.8 0 1.1.5 2.1 1.3 2.9l-2.4 4.1c-.4-.1-.8-.2-1.2-.2-1.9 0-3.4 1.3-3.8 3h-4.8c-.3-1.8-1.9-3.2-3.8-3.2-.4 0-.8.1-1.1.2l-2.4-4c.7-.7 1.2-1.7 1.2-2.8v-.2c0-1.1-.5-2.1-1.2-2.8l2.2-3.9c.4.1.8.2 1.2.2 1.9 0 3.4-1.3 3.8-3h4.9c.4 1.7 1.9 3 3.8 3 .4 0 .9-.1 1.3-.2l2.3 4.1zm-119-21.8l2.4-4.2c.4.1.7.2 1.1.2 1.9 0 3.4-1.3 3.8-3h4.9c.4 1.7 1.9 3 3.8 3 .4 0 .8-.1 1.2-.2l2.4 4.1c-.5.5-.9 1.1-1.1 1.8-.1.4-.2.8-.2 1.2 0 1.1.5 2.1 1.2 2.8l-2.3 4c-.4-.1-.7-.2-1.2-.2-1.8 0-3.3 1.2-3.8 2.9v.2h-4.9c-.4-1.7-1.9-3-3.8-3-.4 0-.8.1-1.1.2l-2.4-4.1c.8-.7 1.3-1.7 1.3-2.8-.1-1.2-.6-2.2-1.3-2.9zm3.5 31.1c-.4 0-.8.1-1.1.2l-2.4-4.1c.8-.7 1.3-1.7 1.3-2.8 0-1.1-.5-2.1-1.3-2.8l2.4-4.1c.4.1.7.2 1.1.2 1.9 0 3.4-1.3 3.8-3H35c.4 1.8 1.9 3.1 3.8 3.1.4 0 .8-.1 1.2-.2l2.4 4.1c-.5.5-.9 1.1-1.1 1.8-.1.4-.2.8-.2 1.2 0 1.1.5 2.1 1.2 2.8l-2.3 4c-.4-.1-.7-.2-1.2-.2-1.8 0-3.3 1.2-3.8 2.9v.2h-4.9c-.3-2-1.8-3.3-3.7-3.3zM45 198.1c-.4 0-.8.1-1.1.2l-2.4-4.1c.5-.5.9-1.1 1.1-1.8.1-.4.2-.8.2-1.2 0-1.1-.5-2.1-1.2-2.8l2.3-4c.4.1.7.2 1.1.2 1.8 0 3.3-1.2 3.8-2.8v-.2h4.8c.4 1.7 1.9 3 3.8 3 .4 0 .8-.1 1.2-.2l2.4 4.1c-.8.7-1.3 1.7-1.3 2.9 0 1.1.5 2.1 1.3 2.8l-2.4 4.1c-.4-.1-.7-.2-1.1-.2-1.9 0-3.4 1.3-3.8 3h-4.8c-.5-1.7-2-3-3.9-3zm31.2 10.7c-1.9 0-3.4 1.3-3.8 3h-4.8c-.4-1.7-1.9-3-3.8-3-.4 0-.8.1-1.1.2l-2.4-4.2c.8-.7 1.3-1.7 1.3-2.8s-.5-2.1-1.3-2.8l2.4-4.1c.3.1.7.2 1.1.2 1.9 0 3.4-1.3 3.8-3h4.8c.4 1.7 1.9 3 3.8 3 .4 0 .8-.1 1.2-.2l2.4 4.1c-.8.7-1.3 1.7-1.3 2.9 0 1.1.5 2.1 1.3 2.9l-2.4 4.1c-.4-.3-.8-.3-1.2-.3zm24.8 0c-1.9 0-3.4 1.3-3.8 3h-4.9c-.4-1.7-2-3-3.8-3-.4 0-.8.1-1.1.2l-2.4-4.2c.8-.7 1.3-1.7 1.3-2.8s-.5-2.1-1.3-2.8l2.4-4.1c.4.1.7.2 1.1.2 1.9 0 3.4-1.3 3.8-3h4.9c.4 1.7 1.9 3 3.8 3 .4 0 .8-.1 1.2-.2l2.4 4.1c-.8.7-1.3 1.7-1.3 2.9 0 1.1.5 2.1 1.3 2.9l-2.4 4.1c-.4-.3-.8-.3-1.2-.3zm18.7-10.7c-1.9 0-3.4 1.3-3.8 3H111c-.4-1.7-1.9-3-3.8-3-.4 0-.8.1-1.1.2l-2.4-4.1c.8-.7 1.3-1.7 1.3-2.8 0-1.1-.5-2.1-1.3-2.8l2.4-4.1c.4.1.7.2 1.1.2 1.9 0 3.4-1.3 3.8-3h4.8c.3 1.8 1.9 3.2 3.8 3.2.4 0 .8-.1 1.2-.2l2.3 4c-.7.7-1.2 1.7-1.2 2.8v.2c0 1.1.5 2.1 1.2 2.8l-2.3 4c-.3-.4-.7-.4-1.1-.4zm18.6-138.8c-1.9 0-3.4 1.3-3.8 3h-4.9c-.4-1.7-1.9-3-3.8-3-.4 0-.8.1-1.1.2l-2.4-4.1c.8-.7 1.2-1.7 1.2-2.8 0-1.1-.5-2.1-1.2-2.8l2.4-4.1c.4.1.7.2 1.1.2 1.9 0 3.4-1.3 3.8-3h4.9c.4 1.7 1.9 3 3.8 3 .4 0 .8-.1 1.2-.2l2.4 4.1c-.8.7-1.3 1.7-1.3 2.8 0 1.1.5 2.1 1.3 2.8l-2.4 4.1c-.4-.1-.8-.2-1.2-.2zm-18.6 53.5c-1.9 0-3.4 1.3-3.8 3H111c-.4-1.7-1.9-3-3.8-3-.4 0-.8.1-1.1.2l-2.4-4.1c.8-.7 1.3-1.7 1.3-2.8s-.5-2.1-1.3-2.8l2.4-4.2c.4.1.7.2 1.1.2 1.9 0 3.4-1.3 3.8-3h4.9c.4 1.7 1.9 3 3.8 3 .4 0 .8-.1 1.1-.2l2.4 4.1c-.8.7-1.3 1.7-1.3 2.8 0 1.1.5 2.1 1.3 2.8l-2.4 4.1c-.4 0-.7-.1-1.1-.1zm0-77.8c.4 0 .8-.1 1.2-.2l2.4 4.1c-.8.7-1.3 1.7-1.3 2.9 0 1.1.5 2.1 1.3 2.8l-2.4 4.1c-.4-.1-.8-.2-1.2-.2-1.9 0-3.4 1.3-3.8 3H111c-.4-1.7-1.9-3-3.8-3-.4 0-.8.1-1.1.2l-2.4-4.1c.8-.7 1.3-1.7 1.3-2.8 0-1.1-.5-2.1-1.3-2.8l2.4-4.2c.4.1.7.2 1.1.2 1.9 0 3.4-1.3 3.8-3h4.8c.5 1.7 2 3 3.9 3zm3.5 31l-2.4 4.1c-.4-.1-.8-.2-1.2-.2-2.2 0-3.9 1.7-3.9 3.9 0 2.1 1.7 3.9 3.9 3.9.4 0 .8-.1 1.2-.2l2.4 4.1c-.8.7-1.3 1.7-1.3 2.8 0 1.1.5 2.1 1.3 2.9l-2.4 4.1c-.4-.1-.8-.2-1.2-.2-1.9 0-3.4 1.3-3.8 3H111c-.4-1.7-1.9-3-3.8-3-2.2 0-3.9 1.7-3.9 3.9 0 1.1.5 2.1 1.3 2.9l-2.4 4.1c-.4-.1-.8-.2-1.2-.2-1.9 0-3.4 1.3-3.8 3h-4.8c-.4-1.7-1.9-3-3.8-3-2.2 0-3.9 1.7-3.9 3.9 0 1.1.5 2.1 1.3 2.9l-2.4 4.1c-.4-.1-.7-.2-1.1-.2-.4 0-.8.1-1.1.2l-2.4-4.1c.8-.7 1.3-1.7 1.3-2.8 0-2.1-1.7-3.9-3.9-3.9-1.9 0-3.4 1.3-3.8 3h-4.9c-.4-1.7-1.9-3-3.8-3-.4 0-.8.1-1.1.2l-2.4-4.1c.8-.7 1.3-1.7 1.3-2.8 0-2.1-1.7-3.9-3.9-3.9-1.9 0-3.4 1.3-3.8 3h-4.9c-.4-1.7-1.9-3-3.8-3-.4 0-.8.1-1.1.2l-2.4-4.1c.8-.7 1.3-1.7 1.3-2.8 0-1.1-.5-2.1-1.3-2.8l2.4-4.1c.4.1.7.2 1.1.2 2.2 0 3.9-1.7 3.9-3.9 0-2.1-1.7-3.9-3.9-3.9-.4 0-.8.1-1.1.2L41.5 66c.8-.7 1.3-1.7 1.3-2.8 0-1.1-.5-2.1-1.3-2.8l2.4-4.1c.4.1.7.2 1.1.2 1.9 0 3.4-1.3 3.8-3h4.9c.4 1.7 1.9 3 3.8 3 2.2 0 3.9-1.7 3.9-3.9 0-1.1-.5-2.1-1.3-2.8l2.4-4.1c.4.1.7.2 1.1.2 1.9 0 3.4-1.3 3.8-3h4.8c.4 1.7 1.9 3 3.8 3 2.2 0 3.9-1.7 3.9-3.9 0-1.1-.5-2.1-1.3-2.8l2.4-4.1c.4.1.7.2 1.1.2.4 0 .8-.1 1.2-.2l2.4 4.1c-.8.7-1.3 1.7-1.3 2.9 0 2.1 1.7 3.9 3.9 3.9 1.9 0 3.4-1.3 3.8-3H97c.4 1.7 1.9 3 3.8 3 .4 0 .8-.1 1.2-.2l2.4 4.1c-.8.7-1.3 1.7-1.3 2.9 0 2.1 1.7 3.9 3.9 3.9 1.9 0 3.4-1.3 3.8-3h4.8c.4 1.7 1.9 3 3.8 3 .4 0 .8-.1 1.2-.2l2.4 4.1c-.8.7-1.3 1.7-1.3 2.9.3.8.8 1.8 1.5 2.5zm-47 57.5c-1.9 0-3.4 1.3-3.8 3h-4.9c-.4-1.7-1.9-3-3.8-3-.4 0-.8.1-1.1.2l-2.4-4.1c.8-.7 1.3-1.7 1.3-2.8 0-1.1-.5-2.1-1.3-2.8l2.4-4.2c.4.1.7.2 1.1.2 1.9 0 3.4-1.3 3.8-3h4.9c.4 1.7 1.9 3 3.8 3 .4 0 .8-.1 1.2-.2l2.4 4.1c-.8.7-1.3 1.7-1.3 2.9 0 1.1.5 2.1 1.3 2.9l-2.4 4.1c-.4-.2-.8-.3-1.2-.3zm12.4 0c-.4 0-.8.1-1.1.2l-2.4-4.1c.8-.7 1.3-1.7 1.3-2.8 0-1.1-.5-2.1-1.3-2.8l2.4-4.1c.4.1.7.2 1.1.2 1.9 0 3.4-1.3 3.8-3h4.8c.4 1.7 1.9 3 3.8 3 .4 0 .8-.1 1.1-.2l2.4 4.1c-.8.7-1.3 1.7-1.3 2.8 0 1.1.5 2.1 1.3 2.9l-2.4 4.1c-.4-.1-.7-.2-1.1-.2-1.9 0-3.4 1.3-3.8 3h-4.8c-.4-1.8-2-3.1-3.8-3.1zm37.3-99.2c1.9 0 3.4-1.3 3.8-3h4.9c.4 1.7 1.9 3 3.8 3 .4 0 .8-.1 1.2-.2l2.4 4.1c-.8.7-1.3 1.7-1.3 2.9 0 1.1.5 2.1 1.3 2.8l-2.4 4.1c-.4-.1-.8-.2-1.2-.2-1.9 0-3.4 1.3-3.8 3h-4.9c-.4-1.7-1.9-3-3.8-3-.4 0-.8.1-1.1.2l-2.4-4.2c.8-.7 1.2-1.7 1.2-2.8s-.5-2.1-1.2-2.8l2.4-4.2c.3.2.7.3 1.1.3zm-37.3 0c1.9 0 3.4-1.3 3.8-3h4.9c.4 1.7 1.9 3 3.8 3 .4 0 .8-.1 1.2-.2l2.4 4.1c-.8.7-1.3 1.7-1.3 2.9 0 1.1.5 2.1 1.3 2.8l-2.4 4.1c-.4-.1-.7-.2-1.1-.2-1.9 0-3.4 1.3-3.8 3h-4.9c-.4-1.7-1.9-3-3.8-3-.4 0-.8.1-1.1.2L85 33.9c.8-.7 1.3-1.7 1.3-2.8s-.5-2.1-1.3-2.8l2.4-4.2c.4.1.8.2 1.2.2zm-24.9 0c1.9 0 3.4-1.3 3.8-3h4.9c.4 1.7 1.9 3 3.8 3 .4 0 .8-.1 1.2-.2l2.4 4.1c-.8.7-1.3 1.7-1.3 2.9 0 1.1.5 2.1 1.3 2.8L77.4 38c-.4-.1-.8-.2-1.2-.2-1.9 0-3.4 1.3-3.8 3h-4.8c-.4-1.7-1.9-3-3.8-3-.4 0-.8.1-1.1.2l-2.4-4.1c.8-.7 1.3-1.7 1.3-2.8 0-1.1-.5-2.1-1.3-2.8l2.4-4.1c.2 0 .6.1 1 .1zM45.1 35c1.9 0 3.4-1.3 3.8-3h4.8c.4 1.7 1.9 3 3.8 3 .4 0 .8-.1 1.2-.2l2.4 4.1c-.8.7-1.3 1.7-1.3 2.9 0 1.1.5 2.1 1.3 2.9l-2.4 4.1c-.4-.1-.7-.2-1.2-.2-1.9 0-3.4 1.3-3.8 3h-4.8c-.4-1.7-1.9-3-3.8-3-.4 0-.8.1-1.1.2l-2.4-4.1c.8-.7 1.2-1.7 1.2-2.8 0-1.1-.5-2.1-1.2-2.8l2.4-4.2c.3 0 .7.1 1.1.1zM22.9 49.7l2.4-4.1c.4.1.7.2 1.1.2 1.9 0 3.4-1.3 3.8-3h4.9c.4 1.7 1.9 3 3.8 3 .4 0 .8-.1 1.1-.2l2.4 4.1c-.8.7-1.3 1.7-1.3 2.8 0 1.1.5 2.1 1.3 2.8L40 59.5c-.4-.1-.8-.2-1.2-.2-1.9 0-3.4 1.3-3.8 3h-4.9c-.4-1.7-1.9-3-3.8-3-.4 0-.8.1-1.1.2l-2.4-4.1c.8-.7 1.3-1.7 1.3-2.8 0-1.2-.5-2.2-1.2-2.9zm0 21.3l2.4-4.1c.4.1.7.2 1.1.2 1.9 0 3.4-1.3 3.8-3h4.9c.4 1.7 1.9 3 3.8 3 .4 0 .8-.1 1.2-.2l2.4 4.1c-.8.7-1.3 1.7-1.3 2.8 0 1.1.5 2.1 1.3 2.8L40 80.9c-.4-.1-.8-.2-1.2-.2-1.9 0-3.4 1.3-3.8 3h-4.9c-.4-1.7-1.9-3-3.8-3-.4 0-.8.1-1.1.2l-2.4-4.1c.8-.7 1.3-1.7 1.3-2.8s-.5-2.2-1.2-3zm3.5 31.1c-.4 0-.8.1-1.1.2l-2.4-4.1c.8-.7 1.3-1.7 1.3-2.8s-.5-2.1-1.3-2.8l2.4-4.1c.4.1.7.2 1.1.2 1.9 0 3.4-1.3 3.8-3h4.9c.4 1.7 1.9 3 3.8 3 .4 0 .8-.1 1.2-.2l2.4 4.1c-.8.7-1.3 1.7-1.3 2.9 0 1.1.5 2.1 1.3 2.8l-2.4 4.1c-.4-.1-.7-.2-1.1-.2-1.9 0-3.4 1.3-3.8 3h-4.9c-.5-1.8-2-3.1-3.9-3.1zm18.7 10.7c-.4 0-.8.1-1.1.2l-2.4-4.2c.8-.7 1.2-1.7 1.2-2.8s-.5-2.1-1.2-2.8l2.4-4.1c.4.1.7.2 1.1.2 1.9 0 3.4-1.3 3.8-3h4.8c.4 1.7 2 3 3.8 3 .4 0 .8-.1 1.2-.2l2.4 4.1c-.8.7-1.3 1.7-1.3 2.8 0 1.1.5 2.1 1.3 2.8l-2.4 4.1c-.4-.1-.7-.2-1.1-.2-1.9 0-3.4 1.3-3.8 3H49c-.5-1.6-2.1-2.9-3.9-2.9zm76.9 14.6v.2c0 1.1.5 2.1 1.2 2.8l-2.3 4c-.4-.1-.8-.2-1.2-.2-1.9 0-3.4 1.3-3.8 3H111c-.4-1.7-1.9-3-3.8-3-.4 0-.8.1-1.1.2l-2.4-4.1c.8-.7 1.3-1.7 1.3-2.8 0-1.1-.5-2.1-1.3-2.8l2.4-4.1c.4.1.7.2 1.1.2 1.9 0 3.4-1.3 3.8-3h4.9c.4 1.7 1.9 3 3.8 3 .4 0 .8-.1 1.2-.2l2.4 4.1c-.9.5-1.3 1.6-1.3 2.7zm19.9 35l-2.3 4c-.4-.1-.8-.2-1.3-.2-1.9 0-3.4 1.3-3.8 3h-4.9c-.4-1.7-1.9-3-3.8-3-.4 0-.9.1-1.2.2l-2.3-4c.8-.7 1.2-1.7 1.2-2.8 0-1.1-.5-2.1-1.2-2.8l2.3-4c.4.1.8.2 1.2.2 1.9 0 3.4-1.3 3.8-3h4.9c.4 1.7 1.9 3 3.8 3 .4 0 .8-.1 1.2-.2l2.3 4c-.8.7-1.3 1.7-1.3 2.8.1 1.1.6 2.1 1.4 2.8zm-3.6-30.9c.4 0 .8-.1 1.2-.2l2.3 4c-.7.7-1.2 1.7-1.2 2.8v.2c0 1.1.5 2.1 1.2 2.8l-2.3 4c-.4-.1-.8-.2-1.2-.2-1.9 0-3.4 1.3-3.8 3h-4.9c-.4-1.7-1.9-3-3.8-3-.4 0-.8.1-1.1.2l-2.3-4c.7-.7 1.2-1.7 1.2-2.8v-.6c-.1-.9-.5-1.8-1.1-2.4l2.3-4c.4.1.7.2 1.1.2 1.9 0 3.4-1.3 3.8-3h4.9c.3 1.7 1.9 3 3.7 3zm3.6-33.4l-2.4 4.1c-.4-.1-.8-.2-1.2-.2-1.9 0-3.4 1.3-3.8 3h-4.9c-.4-1.7-1.9-3-3.8-3-.4 0-.8.1-1.1.2l-2.4-4.1c.8-.7 1.2-1.7 1.2-2.8s-.5-2.1-1.2-2.8l2.4-4.1c.4.1.7.2 1.1.2 1.9 0 3.4-1.3 3.8-3h4.9c.4 1.7 1.9 3 3.8 3 .4 0 .8-.1 1.2-.2l2.4 4.1c-.8.7-1.3 1.7-1.3 2.9 0 1 .5 2 1.3 2.7zm0-21.4l-2.4 4.1c-.4-.1-.8-.2-1.2-.2-1.9 0-3.4 1.3-3.8 3h-4.9c-.4-1.7-1.9-3-3.8-3-.4 0-.8.1-1.1.2l-2.4-4.1c.8-.7 1.2-1.7 1.2-2.8s-.5-2.1-1.2-2.8l2.4-4.1c.4.1.7.2 1.1.2 1.9 0 3.4-1.3 3.8-3h4.9c.4 1.7 1.9 3 3.8 3 .4 0 .8-.1 1.2-.2l2.4 4.1c-.8.7-1.3 1.7-1.3 2.8 0 1.1.5 2.1 1.3 2.8zm2.6-20.3c2.2 0 3.9-1.7 3.9-3.9 0-2.1-1.7-3.9-3.9-3.9-.4 0-.8.1-1.1.2l-2.4-4.1c.8-.7 1.3-1.7 1.3-2.8 0-1.1-.5-2.1-1.3-2.8l2.4-4.1c.4.1.8.2 1.1.2 2.2 0 3.9-1.7 3.9-3.9s-1.7-3.9-3.9-3.9c-.4 0-.8.1-1.1.2l-2.4-4.1c.8-.7 1.3-1.7 1.3-2.9 0-2.1-1.7-3.9-3.9-3.9-1.9 0-3.4 1.3-3.8 3h-4.9c-.4-1.7-1.9-3-3.8-3-2.2 0-3.9 1.7-3.9 3.9 0 1.1.5 2.1 1.3 2.9l-2.4 4.1c-.4-.1-.8-.2-1.2-.2-1.9 0-3.4 1.3-3.8 3H111c-.4-1.7-1.9-3-3.8-3-.4 0-.8.1-1.1.2l-2.4-4.1c.8-.7 1.3-1.7 1.3-2.9 0-2.1-1.7-3.9-3.9-3.9-1.9 0-3.4 1.3-3.8 3h-4.9c-.4-1.7-1.9-3-3.8-3-2.2 0-3.9 1.7-3.9 3.9 0 1.1.5 2.1 1.3 2.9l-2.4 4.1c-.4-.1-.8-.2-1.2-.2-.4 0-.8.1-1.1.2l-2.4-4.1c.8-.7 1.3-1.7 1.3-2.9 0-2.1-1.7-3.9-3.9-3.9-1.9 0-3.4 1.3-3.8 3h-4.8c-.4-1.7-1.9-3-3.8-3-2.2 0-3.9 1.7-3.9 3.9 0 1.1.5 2.1 1.3 2.9l-2.4 4.1c-.4-.1-.7-.2-1.2-.2-1.9 0-3.4 1.3-3.8 3h-4.8c-.4-1.7-1.9-3-3.8-3-2.2 0-3.9 1.7-3.9 3.9 0 1.1.5 2.1 1.3 2.9L40 38.1c-.4-.1-.8-.2-1.2-.2-1.9 0-3.4 1.3-3.8 3h-4.9c-.4-1.7-1.9-3-3.8-3-2.2 0-3.9 1.7-3.9 3.9 0 1.1.5 2.1 1.3 2.8l-2.4 4.1c-.4-.1-.8-.2-1.2-.2-2.2 0-3.9 1.7-3.9 3.9 0 2.1 1.8 3.9 3.9 3.9.4 0 .8-.1 1.2-.2l2.4 4.1c-.8.7-1.3 1.7-1.3 2.9 0 1.1.5 2.1 1.3 2.9l-2.4 4.1c-.3 0-.7-.1-1.1-.1-2.2 0-3.9 1.7-3.9 3.9 0 2.1 1.8 3.9 3.9 3.9.4 0 .8-.1 1.2-.2l2.4 4.1c-.8.7-1.3 1.7-1.3 2.8 0 1.1.5 2.1 1.3 2.9l-2.4 4.1c-.4-.1-.8-.2-1.2-.2-2.2 0-3.9 1.7-3.9 3.9s1.8 3.9 3.9 3.9c.4 0 .8-.1 1.2-.2l2.4 4.1c-.8.7-1.3 1.7-1.3 2.9 0 2.1 1.7 3.9 3.9 3.9 1.9 0 3.4-1.3 3.8-3h4.9c.4 1.7 1.9 3 3.8 3 .4 0 .8-.1 1.2-.2l2.4 4.1c-.8.7-1.3 1.7-1.3 2.9 0 2.1 1.7 3.9 3.9 3.9 1.9 0 3.4-1.3 3.8-3h4.9c.4 1.7 1.9 3 3.8 3 .4 0 .8-.1 1.2-.2l2.4 4.1c-.8.7-1.3 1.7-1.3 2.9 0 2.1 1.8 3.9 3.9 3.9 1.9 0 3.4-1.3 3.8-3h4.9c.4 1.7 1.9 3 3.8 3 2.2 0 3.9-1.7 3.9-3.9 0-1.1-.5-2.1-1.3-2.8l2.4-4.1c.4.1.7.2 1.1.2.4 0 .8-.1 1.1-.2l2.4 4.1c-.8.7-1.3 1.7-1.3 2.9 0 2.1 1.7 3.9 3.9 3.9 1.9 0 3.4-1.3 3.8-3h4.8c.4 1.7 1.9 3 3.8 3 .4 0 .8-.1 1.2-.2l2.4 4.1c-.8.7-1.3 1.7-1.3 2.9 0 2.1 1.7 3.9 3.9 3.9 1.9 0 3.4-1.3 3.8-3h4.8c.3 1.8 1.9 3.3 3.8 3.3.4 0 .8-.1 1.2-.2l2.3 4c-.7.7-1.2 1.7-1.2 2.8v.2c0 1.1.5 2.1 1.2 2.8l-2.3 4c-.4-.1-.8-.2-1.2-.2-2.2 0-3.9 1.7-3.9 3.9 0 2.1 1.7 3.9 3.9 3.9.4 0 .8-.1 1.2-.2l2.3 4c-.7.7-1.2 1.7-1.2 2.8v.2c0 1.1.5 2.1 1.2 2.8l-2.2 3.9c-.4-.1-.8-.2-1.2-.2-1.9 0-3.4 1.3-3.8 3H111c-.4-1.7-1.9-3-3.8-3-2.2 0-3.9 1.7-3.9 3.9 0 1.1.5 2.1 1.3 2.8l-2.4 4.1c-.4-.1-.8-.2-1.2-.2-1.9 0-3.4 1.3-3.8 3h-4.9c-.4-1.7-2-3-3.8-3-2.2 0-3.9 1.7-3.9 3.9 0 1.1.5 2.1 1.3 2.9l-2.4 4.1c-.4-.1-.8-.2-1.2-.2-.4 0-.8.1-1.1.2l-2.4-4.1c.8-.7 1.3-1.7 1.3-2.8 0-2.1-1.7-3.9-3.9-3.9-1.9 0-3.4 1.3-3.8 3h-4.9c-.4-1.7-1.9-3-3.8-3-.4 0-.8.1-1.1.2l-2.4-4.1c.8-.7 1.3-1.7 1.3-2.8 0-2.1-1.7-3.9-3.9-3.9-1.9 0-3.4 1.3-3.8 3H49c-.3-1.8-1.9-3.2-3.8-3.2-.4 0-.8.1-1.1.2l-2.4-4.1c.4-.4.7-.8.9-1.4.2-.5.3-1 .3-1.5 0-1.1-.5-2.1-1.3-2.8l2.3-4c.4.1.8.2 1.2.2 1.8 0 3.3-1.2 3.8-2.8.1-.4.2-.8.2-1.2 0-2.1-1.8-3.9-3.9-3.9-.4 0-.8.1-1.1.2l-2.4-4.1c.8-.7 1.3-1.7 1.3-2.8 0-2.1-1.7-3.9-3.9-3.9-1.9 0-3.4 1.3-3.8 3h-4.9c-.4-1.7-1.9-3-3.8-3-2.2 0-3.9 1.7-3.9 3.9 0 1.1.5 2.1 1.3 2.8l-2.4 4.1c-.4-.1-.8-.2-1.2-.2-2.2 0-3.9 1.7-3.9 3.9 0 2.1 1.7 3.9 3.9 3.9.4 0 .8-.1 1.2-.2l2.4 4.1c-.8.7-1.3 1.7-1.3 2.9 0 1.1.5 2.1 1.3 2.9l-2.4 4.1c-.4-.1-.8-.2-1.2-.2-2.2 0-3.9 1.7-3.9 3.9 0 2.1 1.7 3.9 3.9 3.9.4 0 .8-.1 1.2-.2l2.4 4.1c-.8.7-1.3 1.7-1.3 2.9 0 2.1 1.8 3.9 3.9 3.9 1.9 0 3.4-1.3 3.8-3H35c.3 1.8 1.9 3.2 3.8 3.2.4 0 .8-.1 1.2-.2l2.4 4.1c-.8.7-1.3 1.7-1.3 2.9 0 2.1 1.7 3.9 3.9 3.9 1.9 0 3.4-1.3 3.8-3h4.8c.4 1.7 1.9 3 3.8 3 .4 0 .8-.1 1.2-.2l2.4 4.1c-.8.7-1.3 1.7-1.3 2.9 0 2.1 1.7 3.9 3.9 3.9 1.9 0 3.4-1.3 3.8-3h4.9c.4 1.7 1.9 3 3.8 3 2.2 0 3.9-1.7 3.9-3.9 0-1.1-.5-2.1-1.3-2.8l2.4-4.1c.4.1.7.2 1.1.2.4 0 .8-.1 1.2-.2l2.4 4.1c-.8.7-1.3 1.7-1.3 2.9 0 2.1 1.7 3.9 3.9 3.9 1.9 0 3.4-1.3 3.8-3h4.9c.4 1.7 1.9 3 3.8 3 2.2 0 3.9-1.7 3.9-3.9 0-1.1-.5-2.1-1.3-2.8l2.4-4.1c.4.1.7.2 1.1.2 1.9 0 3.4-1.3 3.8-3h4.8c.4 1.7 1.9 3 3.8 3 2.2 0 3.9-1.7 3.9-3.9 0-1.1-.5-2.1-1.3-2.8l2.3-4c.4.1.8.2 1.2.2 1.9 0 3.4-1.3 3.8-3h4.9c.4 1.7 1.9 3 3.8 3 2.2 0 3.9-1.7 3.9-3.9 0-1.1-.5-2.1-1.3-2.8l2.4-4.1c.4.1.8.2 1.1.2 2.2 0 3.9-1.7 3.9-3.9s-1.7-3.9-3.9-3.9c-.4 0-.8.1-1.1.2l-2.3-4c.7-.7 1.2-1.7 1.2-2.8v-.2c0-1.1-.4-2.1-1.2-2.8l2.3-4c.4.1.8.2 1.1.2 2.2 0 3.9-1.7 3.9-3.9 0-2.1-1.7-3.9-3.9-3.9-.4 0-.8.1-1.1.2l-2.3-4c.7-.7 1.2-1.7 1.2-2.8v-.2c0-1.1-.5-2.1-1.2-2.8l2.3-4c.4.1.8.2 1.1.2 2.2 0 3.9-1.7 3.9-3.9v-.2c0-2.1-1.7-3.9-3.9-3.9-.4 0-.8.1-1.1.2l-2.3-4c.7-.7 1.2-1.7 1.2-2.8v-.2c0-2.1-1.7-3.9-3.9-3.9-1.9 0-3.4 1.3-3.8 3h-4.8c-.4-1.8-1.9-3.1-3.8-3.1-.4 0-.8.1-1.1.2l-2.4-4.1c.8-.7 1.3-1.7 1.3-2.8 0-1.1-.5-2.1-1.3-2.8l2.4-4.1c.4.1.7.2 1.1.2 1.9 0 3.4-1.3 3.8-3h4.9c.4 1.7 1.9 3 3.8 3 2.2 0 3.9-1.7 3.9-3.9 0-1.1-.5-2.1-1.3-2.8l2.4-4.1c.4.1.8.2 1.1.2 2.2 0 3.9-1.7 3.9-3.9s-1.7-3.9-3.9-3.9c-.4 0-.8.1-1.1.2l-2.4-4.1c.8-.7 1.3-1.7 1.3-2.8 0-1.1-.5-2.1-1.3-2.8l2.4-4.1c.4.1.8.2 1.1.2 2.2 0 3.9-1.7 3.9-3.9 0-2.1-1.7-3.9-3.9-3.9-.4 0-.8.1-1.1.2L141 66c.8-.7 1.3-1.7 1.3-2.8 0-1.1-.5-2.1-1.3-2.8l2.4-4.1c.3 0 .7.1 1.1.1z"/></svg>