<?xml version="1.0" encoding="UTF-8" standalone="no"?><svg xmlns="http://www.w3.org/2000/svg" width="819.5" height="231.5"><path fill="#dd2a7c" d="M141.9 177.9c-.8.7-1.3 1.7-1.3 2.8 0 1.1.5 2.1 1.3 2.9l-2.4 4.1c-.4-.1-.8-.2-1.2-.2-1.9 0-3.4 1.3-3.8 3h-4.8c-.3-1.8-1.9-3.2-3.8-3.2-.4 0-.8.1-1.1.2l-2.4-4c.7-.7 1.2-1.7 1.2-2.8v-.2c0-1.1-.5-2.1-1.2-2.8l2.2-3.9c.4.1.8.2 1.2.2 1.9 0 3.4-1.3 3.8-3h4.9c.4 1.7 1.9 3 3.8 3 .4 0 .9-.1 1.3-.2l2.3 4.1zm-119-21.8 2.4-4.2c.4.1.7.2 1.1.2 1.9 0 3.4-1.3 3.8-3h4.9c.4 1.7 1.9 3 3.8 3 .4 0 .8-.1 1.2-.2l2.4 4.1c-.5.5-.9 1.1-1.1 1.8-.1.4-.2.8-.2 1.2 0 1.1.5 2.1 1.2 2.8l-2.3 4c-.4-.1-.7-.2-1.2-.2-1.8 0-3.3 1.2-3.8 2.9v.2h-4.9c-.4-1.7-1.9-3-3.8-3-.4 0-.8.1-1.1.2l-2.4-4.1c.8-.7 1.3-1.7 1.3-2.8-.1-1.2-.6-2.2-1.3-2.9zm3.5 31.1c-.4 0-.8.1-1.1.2l-2.4-4.1c.8-.7 1.3-1.7 1.3-2.8 0-1.1-.5-2.1-1.3-2.8l2.4-4.1c.4.1.7.2 1.1.2 1.9 0 3.4-1.3 3.8-3H35c.4 1.8 1.9 3.1 3.8 3.1.4 0 .8-.1 1.2-.2l2.4 4.1c-.5.5-.9 1.1-1.1 1.8-.1.4-.2.8-.2 1.2 0 1.1.5 2.1 1.2 2.8l-2.3 4c-.4-.1-.7-.2-1.2-.2-1.8 0-3.3 1.2-3.8 2.9v.2h-4.9c-.3-2-1.8-3.3-3.7-3.3zM45 198.1c-.4 0-.8.1-1.1.2l-2.4-4.1c.5-.5.9-1.1 1.1-1.8.1-.4.2-.8.2-1.2 0-1.1-.5-2.1-1.2-2.8l2.3-4c.4.1.7.2 1.1.2 1.8 0 3.3-1.2 3.8-2.8v-.2h4.8c.4 1.7 1.9 3 3.8 3 .4 0 .8-.1 1.2-.2l2.4 4.1c-.8.7-1.3 1.7-1.3 2.9 0 1.1.5 2.1 1.3 2.8l-2.4 4.1c-.4-.1-.7-.2-1.1-.2-1.9 0-3.4 1.3-3.8 3h-4.8c-.5-1.7-2-3-3.9-3zm31.2 10.7c-1.9 0-3.4 1.3-3.8 3h-4.8c-.4-1.7-1.9-3-3.8-3-.4 0-.8.1-1.1.2l-2.4-4.2c.8-.7 1.3-1.7 1.3-2.8s-.5-2.1-1.3-2.8l2.4-4.1c.3.1.7.2 1.1.2 1.9 0 3.4-1.3 3.8-3h4.8c.4 1.7 1.9 3 3.8 3 .4 0 .8-.1 1.2-.2l2.4 4.1c-.8.7-1.3 1.7-1.3 2.9 0 1.1.5 2.1 1.3 2.9l-2.4 4.1c-.4-.3-.8-.3-1.2-.3zm24.8 0c-1.9 0-3.4 1.3-3.8 3h-4.9c-.4-1.7-2-3-3.8-3-.4 0-.8.1-1.1.2l-2.4-4.2c.8-.7 1.3-1.7 1.3-2.8s-.5-2.1-1.3-2.8l2.4-4.1c.4.1.7.2 1.1.2 1.9 0 3.4-1.3 3.8-3h4.9c.4 1.7 1.9 3 3.8 3 .4 0 .8-.1 1.2-.2l2.4 4.1c-.8.7-1.3 1.7-1.3 2.9 0 1.1.5 2.1 1.3 2.9l-2.4 4.1c-.4-.3-.8-.3-1.2-.3zm18.7-10.7c-1.9 0-3.4 1.3-3.8 3H111c-.4-1.7-1.9-3-3.8-3-.4 0-.8.1-1.1.2l-2.4-4.1c.8-.7 1.3-1.7 1.3-2.8 0-1.1-.5-2.1-1.3-2.8l2.4-4.1c.4.1.7.2 1.1.2 1.9 0 3.4-1.3 3.8-3h4.8c.3 1.8 1.9 3.2 3.8 3.2.4 0 .8-.1 1.2-.2l2.3 4c-.7.7-1.2 1.7-1.2 2.8v.2c0 1.1.5 2.1 1.2 2.8l-2.3 4c-.3-.4-.7-.4-1.1-.4zm18.6-138.8c-1.9 0-3.4 1.3-3.8 3h-4.9c-.4-1.7-1.9-3-3.8-3-.4 0-.8.1-1.1.2l-2.4-4.1c.8-.7 1.2-1.7 1.2-2.8 0-1.1-.5-2.1-1.2-2.8l2.4-4.1c.4.1.7.2 1.1.2 1.9 0 3.4-1.3 3.8-3h4.9c.4 1.7 1.9 3 3.8 3 .4 0 .8-.1 1.2-.2l2.4 4.1c-.8.7-1.3 1.7-1.3 2.8 0 1.1.5 2.1 1.3 2.8l-2.4 4.1c-.4-.1-.8-.2-1.2-.2zm-18.6 53.5c-1.9 0-3.4 1.3-3.8 3H111c-.4-1.7-1.9-3-3.8-3-.4 0-.8.1-1.1.2l-2.4-4.1c.8-.7 1.3-1.7 1.3-2.8s-.5-2.1-1.3-2.8l2.4-4.2c.4.1.7.2 1.1.2 1.9 0 3.4-1.3 3.8-3h4.9c.4 1.7 1.9 3 3.8 3 .4 0 .8-.1 1.1-.2l2.4 4.1c-.8.7-1.3 1.7-1.3 2.8 0 1.1.5 2.1 1.3 2.8l-2.4 4.1c-.4 0-.7-.1-1.1-.1zm0-77.8c.4 0 .8-.1 1.2-.2l2.4 4.1c-.8.7-1.3 1.7-1.3 2.9 0 1.1.5 2.1 1.3 2.8l-2.4 4.1c-.4-.1-.8-.2-1.2-.2-1.9 0-3.4 1.3-3.8 3H111c-.4-1.7-1.9-3-3.8-3-.4 0-.8.1-1.1.2l-2.4-4.1c.8-.7 1.3-1.7 1.3-2.8 0-1.1-.5-2.1-1.3-2.8l2.4-4.2c.4.1.7.2 1.1.2 1.9 0 3.4-1.3 3.8-3h4.8c.5 1.7 2 3 3.9 3zm3.5 31-2.4 4.1c-.4-.1-.8-.2-1.2-.2-2.2 0-3.9 1.7-3.9 3.9 0 2.1 1.7 3.9 3.9 3.9.4 0 .8-.1 1.2-.2l2.4 4.1c-.8.7-1.3 1.7-1.3 2.8 0 1.1.5 2.1 1.3 2.9l-2.4 4.1c-.4-.1-.8-.2-1.2-.2-1.9 0-3.4 1.3-3.8 3H111c-.4-1.7-1.9-3-3.8-3-2.2 0-3.9 1.7-3.9 3.9 0 1.1.5 2.1 1.3 2.9l-2.4 4.1c-.4-.1-.8-.2-1.2-.2-1.9 0-3.4 1.3-3.8 3h-4.8c-.4-1.7-1.9-3-3.8-3-2.2 0-3.9 1.7-3.9 3.9 0 1.1.5 2.1 1.3 2.9l-2.4 4.1c-.4-.1-.7-.2-1.1-.2-.4 0-.8.1-1.1.2l-2.4-4.1c.8-.7 1.3-1.7 1.3-2.8 0-2.1-1.7-3.9-3.9-3.9-1.9 0-3.4 1.3-3.8 3h-4.9c-.4-1.7-1.9-3-3.8-3-.4 0-.8.1-1.1.2l-2.4-4.1c.8-.7 1.3-1.7 1.3-2.8 0-2.1-1.7-3.9-3.9-3.9-1.9 0-3.4 1.3-3.8 3h-4.9c-.4-1.7-1.9-3-3.8-3-.4 0-.8.1-1.1.2l-2.4-4.1c.8-.7 1.3-1.7 1.3-2.8 0-1.1-.5-2.1-1.3-2.8l2.4-4.1c.4.1.7.2 1.1.2 2.2 0 3.9-1.7 3.9-3.9 0-2.1-1.7-3.9-3.9-3.9-.4 0-.8.1-1.1.2L41.5 66c.8-.7 1.3-1.7 1.3-2.8 0-1.1-.5-2.1-1.3-2.8l2.4-4.1c.4.1.7.2 1.1.2 1.9 0 3.4-1.3 3.8-3h4.9c.4 1.7 1.9 3 3.8 3 2.2 0 3.9-1.7 3.9-3.9 0-1.1-.5-2.1-1.3-2.8l2.4-4.1c.4.1.7.2 1.1.2 1.9 0 3.4-1.3 3.8-3h4.8c.4 1.7 1.9 3 3.8 3 2.2 0 3.9-1.7 3.9-3.9 0-1.1-.5-2.1-1.3-2.8l2.4-4.1c.4.1.7.2 1.1.2.4 0 .8-.1 1.2-.2l2.4 4.1c-.8.7-1.3 1.7-1.3 2.9 0 2.1 1.7 3.9 3.9 3.9 1.9 0 3.4-1.3 3.8-3H97c.4 1.7 1.9 3 3.8 3 .4 0 .8-.1 1.2-.2l2.4 4.1c-.8.7-1.3 1.7-1.3 2.9 0 2.1 1.7 3.9 3.9 3.9 1.9 0 3.4-1.3 3.8-3h4.8c.4 1.7 1.9 3 3.8 3 .4 0 .8-.1 1.2-.2l2.4 4.1c-.8.7-1.3 1.7-1.3 2.9.3.8.8 1.8 1.5 2.5zm-47 57.5c-1.9 0-3.4 1.3-3.8 3h-4.9c-.4-1.7-1.9-3-3.8-3-.4 0-.8.1-1.1.2l-2.4-4.1c.8-.7 1.3-1.7 1.3-2.8 0-1.1-.5-2.1-1.3-2.8l2.4-4.2c.4.1.7.2 1.1.2 1.9 0 3.4-1.3 3.8-3h4.9c.4 1.7 1.9 3 3.8 3 .4 0 .8-.1 1.2-.2l2.4 4.1c-.8.7-1.3 1.7-1.3 2.9 0 1.1.5 2.1 1.3 2.9l-2.4 4.1c-.4-.2-.8-.3-1.2-.3zm12.4 0c-.4 0-.8.1-1.1.2l-2.4-4.1c.8-.7 1.3-1.7 1.3-2.8 0-1.1-.5-2.1-1.3-2.8l2.4-4.1c.4.1.7.2 1.1.2 1.9 0 3.4-1.3 3.8-3h4.8c.4 1.7 1.9 3 3.8 3 .4 0 .8-.1 1.1-.2l2.4 4.1c-.8.7-1.3 1.7-1.3 2.8 0 1.1.5 2.1 1.3 2.9l-2.4 4.1c-.4-.1-.7-.2-1.1-.2-1.9 0-3.4 1.3-3.8 3h-4.8c-.4-1.8-2-3.1-3.8-3.1zm37.3-99.2c1.9 0 3.4-1.3 3.8-3h4.9c.4 1.7 1.9 3 3.8 3 .4 0 .8-.1 1.2-.2l2.4 4.1c-.8.7-1.3 1.7-1.3 2.9 0 1.1.5 2.1 1.3 2.8l-2.4 4.1c-.4-.1-.8-.2-1.2-.2-1.9 0-3.4 1.3-3.8 3h-4.9c-.4-1.7-1.9-3-3.8-3-.4 0-.8.1-1.1.2l-2.4-4.2c.8-.7 1.2-1.7 1.2-2.8s-.5-2.1-1.2-2.8l2.4-4.2c.3.2.7.3 1.1.3zm-37.3 0c1.9 0 3.4-1.3 3.8-3h4.9c.4 1.7 1.9 3 3.8 3 .4 0 .8-.1 1.2-.2l2.4 4.1c-.8.7-1.3 1.7-1.3 2.9 0 1.1.5 2.1 1.3 2.8l-2.4 4.1c-.4-.1-.7-.2-1.1-.2-1.9 0-3.4 1.3-3.8 3h-4.9c-.4-1.7-1.9-3-3.8-3-.4 0-.8.1-1.1.2L85 33.9c.8-.7 1.3-1.7 1.3-2.8s-.5-2.1-1.3-2.8l2.4-4.2c.4.1.8.2 1.2.2zm-24.9 0c1.9 0 3.4-1.3 3.8-3h4.9c.4 1.7 1.9 3 3.8 3 .4 0 .8-.1 1.2-.2l2.4 4.1c-.8.7-1.3 1.7-1.3 2.9 0 1.1.5 2.1 1.3 2.8L77.4 38c-.4-.1-.8-.2-1.2-.2-1.9 0-3.4 1.3-3.8 3h-4.8c-.4-1.7-1.9-3-3.8-3-.4 0-.8.1-1.1.2l-2.4-4.1c.8-.7 1.3-1.7 1.3-2.8 0-1.1-.5-2.1-1.3-2.8l2.4-4.1c.2 0 .6.1 1 .1zM45.1 35c1.9 0 3.4-1.3 3.8-3h4.8c.4 1.7 1.9 3 3.8 3 .4 0 .8-.1 1.2-.2l2.4 4.1c-.8.7-1.3 1.7-1.3 2.9 0 1.1.5 2.1 1.3 2.9l-2.4 4.1c-.4-.1-.7-.2-1.2-.2-1.9 0-3.4 1.3-3.8 3h-4.8c-.4-1.7-1.9-3-3.8-3-.4 0-.8.1-1.1.2l-2.4-4.1c.8-.7 1.2-1.7 1.2-2.8 0-1.1-.5-2.1-1.2-2.8l2.4-4.2c.3 0 .7.1 1.1.1zM22.9 49.7l2.4-4.1c.4.1.7.2 1.1.2 1.9 0 3.4-1.3 3.8-3h4.9c.4 1.7 1.9 3 3.8 3 .4 0 .8-.1 1.1-.2l2.4 4.1c-.8.7-1.3 1.7-1.3 2.8 0 1.1.5 2.1 1.3 2.8L40 59.5c-.4-.1-.8-.2-1.2-.2-1.9 0-3.4 1.3-3.8 3h-4.9c-.4-1.7-1.9-3-3.8-3-.4 0-.8.1-1.1.2l-2.4-4.1c.8-.7 1.3-1.7 1.3-2.8 0-1.2-.5-2.2-1.2-2.9zm0 21.3 2.4-4.1c.4.1.7.2 1.1.2 1.9 0 3.4-1.3 3.8-3h4.9c.4 1.7 1.9 3 3.8 3 .4 0 .8-.1 1.2-.2l2.4 4.1c-.8.7-1.3 1.7-1.3 2.8 0 1.1.5 2.1 1.3 2.8L40 80.9c-.4-.1-.8-.2-1.2-.2-1.9 0-3.4 1.3-3.8 3h-4.9c-.4-1.7-1.9-3-3.8-3-.4 0-.8.1-1.1.2l-2.4-4.1c.8-.7 1.3-1.7 1.3-2.8s-.5-2.2-1.2-3zm3.5 31.1c-.4 0-.8.1-1.1.2l-2.4-4.1c.8-.7 1.3-1.7 1.3-2.8s-.5-2.1-1.3-2.8l2.4-4.1c.4.1.7.2 1.1.2 1.9 0 3.4-1.3 3.8-3h4.9c.4 1.7 1.9 3 3.8 3 .4 0 .8-.1 1.2-.2l2.4 4.1c-.8.7-1.3 1.7-1.3 2.9 0 1.1.5 2.1 1.3 2.8l-2.4 4.1c-.4-.1-.7-.2-1.1-.2-1.9 0-3.4 1.3-3.8 3h-4.9c-.5-1.8-2-3.1-3.9-3.1zm18.7 10.7c-.4 0-.8.1-1.1.2l-2.4-4.2c.8-.7 1.2-1.7 1.2-2.8s-.5-2.1-1.2-2.8l2.4-4.1c.4.1.7.2 1.1.2 1.9 0 3.4-1.3 3.8-3h4.8c.4 1.7 2 3 3.8 3 .4 0 .8-.1 1.2-.2l2.4 4.1c-.8.7-1.3 1.7-1.3 2.8 0 1.1.5 2.1 1.3 2.8l-2.4 4.1c-.4-.1-.7-.2-1.1-.2-1.9 0-3.4 1.3-3.8 3H49c-.5-1.6-2.1-2.9-3.9-2.9zm76.9 14.6v.2c0 1.1.5 2.1 1.2 2.8l-2.3 4c-.4-.1-.8-.2-1.2-.2-1.9 0-3.4 1.3-3.8 3H111c-.4-1.7-1.9-3-3.8-3-.4 0-.8.1-1.1.2l-2.4-4.1c.8-.7 1.3-1.7 1.3-2.8 0-1.1-.5-2.1-1.3-2.8l2.4-4.1c.4.1.7.2 1.1.2 1.9 0 3.4-1.3 3.8-3h4.9c.4 1.7 1.9 3 3.8 3 .4 0 .8-.1 1.2-.2l2.4 4.1c-.9.5-1.3 1.6-1.3 2.7zm19.9 35-2.3 4c-.4-.1-.8-.2-1.3-.2-1.9 0-3.4 1.3-3.8 3h-4.9c-.4-1.7-1.9-3-3.8-3-.4 0-.9.1-1.2.2l-2.3-4c.8-.7 1.2-1.7 1.2-2.8 0-1.1-.5-2.1-1.2-2.8l2.3-4c.4.1.8.2 1.2.2 1.9 0 3.4-1.3 3.8-3h4.9c.4 1.7 1.9 3 3.8 3 .4 0 .8-.1 1.2-.2l2.3 4c-.8.7-1.3 1.7-1.3 2.8.1 1.1.6 2.1 1.4 2.8zm-3.6-30.9c.4 0 .8-.1 1.2-.2l2.3 4c-.7.7-1.2 1.7-1.2 2.8v.2c0 1.1.5 2.1 1.2 2.8l-2.3 4c-.4-.1-.8-.2-1.2-.2-1.9 0-3.4 1.3-3.8 3h-4.9c-.4-1.7-1.9-3-3.8-3-.4 0-.8.1-1.1.2l-2.3-4c.7-.7 1.2-1.7 1.2-2.8v-.6c-.1-.9-.5-1.8-1.1-2.4l2.3-4c.4.1.7.2 1.1.2 1.9 0 3.4-1.3 3.8-3h4.9c.3 1.7 1.9 3 3.7 3zm3.6-33.4-2.4 4.1c-.4-.1-.8-.2-1.2-.2-1.9 0-3.4 1.3-3.8 3h-4.9c-.4-1.7-1.9-3-3.8-3-.4 0-.8.1-1.1.2l-2.4-4.1c.8-.7 1.2-1.7 1.2-2.8s-.5-2.1-1.2-2.8l2.4-4.1c.4.1.7.2 1.1.2 1.9 0 3.4-1.3 3.8-3h4.9c.4 1.7 1.9 3 3.8 3 .4 0 .8-.1 1.2-.2l2.4 4.1c-.8.7-1.3 1.7-1.3 2.9 0 1 .5 2 1.3 2.7zm0-21.4-2.4 4.1c-.4-.1-.8-.2-1.2-.2-1.9 0-3.4 1.3-3.8 3h-4.9c-.4-1.7-1.9-3-3.8-3-.4 0-.8.1-1.1.2l-2.4-4.1c.8-.7 1.2-1.7 1.2-2.8s-.5-2.1-1.2-2.8l2.4-4.1c.4.1.7.2 1.1.2 1.9 0 3.4-1.3 3.8-3h4.9c.4 1.7 1.9 3 3.8 3 .4 0 .8-.1 1.2-.2l2.4 4.1c-.8.7-1.3 1.7-1.3 2.8 0 1.1.5 2.1 1.3 2.8zm2.6-20.3c2.2 0 3.9-1.7 3.9-3.9 0-2.1-1.7-3.9-3.9-3.9-.4 0-.8.1-1.1.2l-2.4-4.1c.8-.7 1.3-1.7 1.3-2.8 0-1.1-.5-2.1-1.3-2.8l2.4-4.1c.4.1.8.2 1.1.2 2.2 0 3.9-1.7 3.9-3.9s-1.7-3.9-3.9-3.9c-.4 0-.8.1-1.1.2l-2.4-4.1c.8-.7 1.3-1.7 1.3-2.9 0-2.1-1.7-3.9-3.9-3.9-1.9 0-3.4 1.3-3.8 3h-4.9c-.4-1.7-1.9-3-3.8-3-2.2 0-3.9 1.7-3.9 3.9 0 1.1.5 2.1 1.3 2.9l-2.4 4.1c-.4-.1-.8-.2-1.2-.2-1.9 0-3.4 1.3-3.8 3H111c-.4-1.7-1.9-3-3.8-3-.4 0-.8.1-1.1.2l-2.4-4.1c.8-.7 1.3-1.7 1.3-2.9 0-2.1-1.7-3.9-3.9-3.9-1.9 0-3.4 1.3-3.8 3h-4.9c-.4-1.7-1.9-3-3.8-3-2.2 0-3.9 1.7-3.9 3.9 0 1.1.5 2.1 1.3 2.9l-2.4 4.1c-.4-.1-.8-.2-1.2-.2-.4 0-.8.1-1.1.2l-2.4-4.1c.8-.7 1.3-1.7 1.3-2.9 0-2.1-1.7-3.9-3.9-3.9-1.9 0-3.4 1.3-3.8 3h-4.8c-.4-1.7-1.9-3-3.8-3-2.2 0-3.9 1.7-3.9 3.9 0 1.1.5 2.1 1.3 2.9l-2.4 4.1c-.4-.1-.7-.2-1.2-.2-1.9 0-3.4 1.3-3.8 3h-4.8c-.4-1.7-1.9-3-3.8-3-2.2 0-3.9 1.7-3.9 3.9 0 1.1.5 2.1 1.3 2.9L40 38.1c-.4-.1-.8-.2-1.2-.2-1.9 0-3.4 1.3-3.8 3h-4.9c-.4-1.7-1.9-3-3.8-3-2.2 0-3.9 1.7-3.9 3.9 0 1.1.5 2.1 1.3 2.8l-2.4 4.1c-.4-.1-.8-.2-1.2-.2-2.2 0-3.9 1.7-3.9 3.9 0 2.1 1.8 3.9 3.9 3.9.4 0 .8-.1 1.2-.2l2.4 4.1c-.8.7-1.3 1.7-1.3 2.9 0 1.1.5 2.1 1.3 2.9l-2.4 4.1c-.3 0-.7-.1-1.1-.1-2.2 0-3.9 1.7-3.9 3.9 0 2.1 1.8 3.9 3.9 3.9.4 0 .8-.1 1.2-.2l2.4 4.1c-.8.7-1.3 1.7-1.3 2.8 0 1.1.5 2.1 1.3 2.9l-2.4 4.1c-.4-.1-.8-.2-1.2-.2-2.2 0-3.9 1.7-3.9 3.9s1.8 3.9 3.9 3.9c.4 0 .8-.1 1.2-.2l2.4 4.1c-.8.7-1.3 1.7-1.3 2.9 0 2.1 1.7 3.9 3.9 3.9 1.9 0 3.4-1.3 3.8-3h4.9c.4 1.7 1.9 3 3.8 3 .4 0 .8-.1 1.2-.2l2.4 4.1c-.8.7-1.3 1.7-1.3 2.9 0 2.1 1.7 3.9 3.9 3.9 1.9 0 3.4-1.3 3.8-3h4.9c.4 1.7 1.9 3 3.8 3 .4 0 .8-.1 1.2-.2l2.4 4.1c-.8.7-1.3 1.7-1.3 2.9 0 2.1 1.8 3.9 3.9 3.9 1.9 0 3.4-1.3 3.8-3h4.9c.4 1.7 1.9 3 3.8 3 2.2 0 3.9-1.7 3.9-3.9 0-1.1-.5-2.1-1.3-2.8l2.4-4.1c.4.1.7.2 1.1.2.4 0 .8-.1 1.1-.2l2.4 4.1c-.8.7-1.3 1.7-1.3 2.9 0 2.1 1.7 3.9 3.9 3.9 1.9 0 3.4-1.3 3.8-3h4.8c.4 1.7 1.9 3 3.8 3 .4 0 .8-.1 1.2-.2l2.4 4.1c-.8.7-1.3 1.7-1.3 2.9 0 2.1 1.7 3.9 3.9 3.9 1.9 0 3.4-1.3 3.8-3h4.8c.3 1.8 1.9 3.3 3.8 3.3.4 0 .8-.1 1.2-.2l2.3 4c-.7.7-1.2 1.7-1.2 2.8v.2c0 1.1.5 2.1 1.2 2.8l-2.3 4c-.4-.1-.8-.2-1.2-.2-2.2 0-3.9 1.7-3.9 3.9 0 2.1 1.7 3.9 3.9 3.9.4 0 .8-.1 1.2-.2l2.3 4c-.7.7-1.2 1.7-1.2 2.8v.2c0 1.1.5 2.1 1.2 2.8l-2.2 3.9c-.4-.1-.8-.2-1.2-.2-1.9 0-3.4 1.3-3.8 3H111c-.4-1.7-1.9-3-3.8-3-2.2 0-3.9 1.7-3.9 3.9 0 1.1.5 2.1 1.3 2.8l-2.4 4.1c-.4-.1-.8-.2-1.2-.2-1.9 0-3.4 1.3-3.8 3h-4.9c-.4-1.7-2-3-3.8-3-2.2 0-3.9 1.7-3.9 3.9 0 1.1.5 2.1 1.3 2.9l-2.4 4.1c-.4-.1-.8-.2-1.2-.2-.4 0-.8.1-1.1.2l-2.4-4.1c.8-.7 1.3-1.7 1.3-2.8 0-2.1-1.7-3.9-3.9-3.9-1.9 0-3.4 1.3-3.8 3h-4.9c-.4-1.7-1.9-3-3.8-3-.4 0-.8.1-1.1.2l-2.4-4.1c.8-.7 1.3-1.7 1.3-2.8 0-2.1-1.7-3.9-3.9-3.9-1.9 0-3.4 1.3-3.8 3H49c-.3-1.8-1.9-3.2-3.8-3.2-.4 0-.8.1-1.1.2l-2.4-4.1c.4-.4.7-.8.9-1.4.2-.5.3-1 .3-1.5 0-1.1-.5-2.1-1.3-2.8l2.3-4c.4.1.8.2 1.2.2 1.8 0 3.3-1.2 3.8-2.8.1-.4.2-.8.2-1.2 0-2.1-1.8-3.9-3.9-3.9-.4 0-.8.1-1.1.2l-2.4-4.1c.8-.7 1.3-1.7 1.3-2.8 0-2.1-1.7-3.9-3.9-3.9-1.9 0-3.4 1.3-3.8 3h-4.9c-.4-1.7-1.9-3-3.8-3-2.2 0-3.9 1.7-3.9 3.9 0 1.1.5 2.1 1.3 2.8l-2.4 4.1c-.4-.1-.8-.2-1.2-.2-2.2 0-3.9 1.7-3.9 3.9 0 2.1 1.7 3.9 3.9 3.9.4 0 .8-.1 1.2-.2l2.4 4.1c-.8.7-1.3 1.7-1.3 2.9 0 1.1.5 2.1 1.3 2.9l-2.4 4.1c-.4-.1-.8-.2-1.2-.2-2.2 0-3.9 1.7-3.9 3.9 0 2.1 1.7 3.9 3.9 3.9.4 0 .8-.1 1.2-.2l2.4 4.1c-.8.7-1.3 1.7-1.3 2.9 0 2.1 1.8 3.9 3.9 3.9 1.9 0 3.4-1.3 3.8-3H35c.3 1.8 1.9 3.2 3.8 3.2.4 0 .8-.1 1.2-.2l2.4 4.1c-.8.7-1.3 1.7-1.3 2.9 0 2.1 1.7 3.9 3.9 3.9 1.9 0 3.4-1.3 3.8-3h4.8c.4 1.7 1.9 3 3.8 3 .4 0 .8-.1 1.2-.2l2.4 4.1c-.8.7-1.3 1.7-1.3 2.9 0 2.1 1.7 3.9 3.9 3.9 1.9 0 3.4-1.3 3.8-3h4.9c.4 1.7 1.9 3 3.8 3 2.2 0 3.9-1.7 3.9-3.9 0-1.1-.5-2.1-1.3-2.8l2.4-4.1c.4.1.7.2 1.1.2.4 0 .8-.1 1.2-.2l2.4 4.1c-.8.7-1.3 1.7-1.3 2.9 0 2.1 1.7 3.9 3.9 3.9 1.9 0 3.4-1.3 3.8-3h4.9c.4 1.7 1.9 3 3.8 3 2.2 0 3.9-1.7 3.9-3.9 0-1.1-.5-2.1-1.3-2.8l2.4-4.1c.4.1.7.2 1.1.2 1.9 0 3.4-1.3 3.8-3h4.8c.4 1.7 1.9 3 3.8 3 2.2 0 3.9-1.7 3.9-3.9 0-1.1-.5-2.1-1.3-2.8l2.3-4c.4.1.8.2 1.2.2 1.9 0 3.4-1.3 3.8-3h4.9c.4 1.7 1.9 3 3.8 3 2.2 0 3.9-1.7 3.9-3.9 0-1.1-.5-2.1-1.3-2.8l2.4-4.1c.4.1.8.2 1.1.2 2.2 0 3.9-1.7 3.9-3.9s-1.7-3.9-3.9-3.9c-.4 0-.8.1-1.1.2l-2.3-4c.7-.7 1.2-1.7 1.2-2.8v-.2c0-1.1-.4-2.1-1.2-2.8l2.3-4c.4.1.8.2 1.1.2 2.2 0 3.9-1.7 3.9-3.9 0-2.1-1.7-3.9-3.9-3.9-.4 0-.8.1-1.1.2l-2.3-4c.7-.7 1.2-1.7 1.2-2.8v-.2c0-1.1-.5-2.1-1.2-2.8l2.3-4c.4.1.8.2 1.1.2 2.2 0 3.9-1.7 3.9-3.9v-.2c0-2.1-1.7-3.9-3.9-3.9-.4 0-.8.1-1.1.2l-2.3-4c.7-.7 1.2-1.7 1.2-2.8v-.2c0-2.1-1.7-3.9-3.9-3.9-1.9 0-3.4 1.3-3.8 3h-4.8c-.4-1.8-1.9-3.1-3.8-3.1-.4 0-.8.1-1.1.2l-2.4-4.1c.8-.7 1.3-1.7 1.3-2.8 0-1.1-.5-2.1-1.3-2.8l2.4-4.1c.4.1.7.2 1.1.2 1.9 0 3.4-1.3 3.8-3h4.9c.4 1.7 1.9 3 3.8 3 2.2 0 3.9-1.7 3.9-3.9 0-1.1-.5-2.1-1.3-2.8l2.4-4.1c.4.1.8.2 1.1.2 2.2 0 3.9-1.7 3.9-3.9s-1.7-3.9-3.9-3.9c-.4 0-.8.1-1.1.2l-2.4-4.1c.8-.7 1.3-1.7 1.3-2.8 0-1.1-.5-2.1-1.3-2.8l2.4-4.1c.4.1.8.2 1.1.2 2.2 0 3.9-1.7 3.9-3.9 0-2.1-1.7-3.9-3.9-3.9-.4 0-.8.1-1.1.2L141 66c.8-.7 1.3-1.7 1.3-2.8 0-1.1-.5-2.1-1.3-2.8l2.4-4.1c.3 0 .7.1 1.1.1z"/><path fill="#fff" d="M255.5 116.5h26.2v32.8c-3.4 1.4-7.1 2.5-10.9 3.2-3.9.7-8 1.1-12.4 1.1-7.6 0-14-1.4-19.2-4.3-5.2-2.9-9.1-7.1-11.8-12.5-2.7-5.5-4-12-4-19.7 0-7.2 1.5-13.5 4.4-19.1s7.1-9.9 12.5-13.1c5.4-3.2 11.9-4.7 19.5-4.7 3.9 0 7.6.4 11.1 1.1s6.8 1.8 9.9 3.2l-2 4.5c-3.1-1.4-6.2-2.5-9.4-3.2s-6.5-1.1-9.7-1.1c-6.4 0-12 1.4-16.6 4.1-4.6 2.8-8.2 6.6-10.6 11.4s-3.7 10.5-3.7 16.8c0 7.2 1.2 13.2 3.6 17.9 2.4 4.8 5.9 8.3 10.4 10.7 4.6 2.4 10.1 3.6 16.7 3.6 3.6 0 6.8-.3 9.6-.8s5.4-1.2 7.7-2.1v-25.1h-21.2v-4.7zM344 81.1c5.7 0 10.4.6 14.2 1.9 3.8 1.2 6.6 3.3 8.6 6.1 1.9 2.8 2.9 6.7 2.9 11.5 0 3.6-.7 6.7-2 9.3s-3.1 4.7-5.4 6.4-5 2.9-8 3.8l19.6 32.5h-6l-18.4-31.1h-17.7v31.1h-5V81.1H344zm-.5 4.5h-11.8V117h14.2c5.8 0 10.4-1.4 13.6-4.2 3.3-2.8 4.9-6.8 4.9-12.1 0-5.8-1.7-9.7-5.2-11.9s-8.6-3.2-15.7-3.2zm114.3 66.9-9.7-25.2h-30l-9.9 25.2H403l28.1-71.6h4.6l27.3 71.6h-5.2zm-11.4-29.8L436.6 96c-.3-.7-.6-1.6-1-2.6-.4-1.1-.8-2.2-1.2-3.4-.4-1.2-.8-2.3-1.2-3.4-.3 1.1-.7 2.3-1.1 3.4-.4 1.1-.8 2.2-1.1 3.3-.4 1.1-.7 2-1 2.9l-10.3 26.7h26.7zm84.7 29.8-26.2-65.9h-.2c.1 1.2.1 2.5.2 3.8 0 1.3.1 2.7.1 4.1v58h-4.8V81.1h7.6l25.3 63.6h.3l25.5-63.6h7.4v71.4h-4.9v-58c0-1.3.1-2.7.1-4 0-1.3.1-2.6.2-3.8h-.3l-26.3 65.8h-4zm82.4 0V81.1h5v71.4h-5zm104.1 0h-5.1l-42.2-63.1h-.2c.1 1.8.1 3.5.2 5.3 0 1.8.1 3.7.1 5.6 0 1.9.1 3.9.1 5.9v46.3h-4.8V81.1h5.2l42 62.9h.2c0-1.4-.1-3.1-.1-5s-.1-3.8-.1-5.8-.1-3.9-.1-5.6V81.1h4.8v71.4zm86.2 0h-39V81.1h39v4.5h-34v27.1h32.1v4.5h-32.1V148h34v4.5z"/></svg>