<?xml version="1.0" encoding="UTF-8" standalone="no"?><svg xmlns="http://www.w3.org/2000/svg" xml:space="preserve" id="Layer_1" width="400" height="245" x="0" y="0" version="1.1"><style>.st0{fill:#888}</style><path id="rect4" d="M10.4 51h27.5v27.5H10.4z" class="st0"/><path id="path6" d="M37.1 194V95.1h-26V194h26zm172.8 1v-24.2c-3.8 0-7-.2-9.4-.6-2.7-.4-4.8-1.4-6.2-2.7s-2.2-3.3-2.7-5.9c-.4-2.4-.6-5.7-.6-9.6v-34.6h18.9V95.1H191V56.6h-26.1v95.7c0 8.1.7 14.9 2.1 20.4 1.4 5.4 3.7 9.8 6.9 13.1 3.2 3.3 7.5 5.7 12.7 7.1 5.3 1.5 11.9 2.1 19.8 2.1h3.5zm149.3-1V48.9h-26.1V194h26.1zm-219.4-89.2c-7.2-7.8-17.4-11.7-30.3-11.7-6.3 0-11.9 1.3-17.1 3.8-5.1 2.5-9.5 6.1-12.9 10.6l-1.5 1.9V95.1H52.4V194h25.9v-52.7 1.8c.3-9.3 2.5-16.1 6.8-20.5 4.6-4.7 10.2-7 16.5-7 7.5 0 13.3 2.3 17.1 6.8 3.7 4.5 5.7 10.8 5.7 19v52.5h26.3v-56.1c.1-14-3.7-25.2-10.9-33zm179.8 39.6c0-7.1-1.3-13.8-3.7-20-2.5-6.2-6.1-11.6-10.5-16.3-4.5-4.7-9.9-8.3-16.1-10.9-6.3-2.6-13.2-3.9-20.7-3.9-7.1 0-13.9 1.4-20.1 4-6.3 2.7-11.7 6.4-16.3 10.9s-8.3 10.1-10.9 16.3c-2.7 6.3-4 13-4 20.1s1.3 13.9 3.8 20.1 6.2 11.7 10.6 16.3c4.5 4.6 10.1 8.3 16.5 10.9 6.4 2.7 13.6 4.1 21.2 4.1 22.1 0 35.8-10.1 44-19.4l-18.8-14.3c-3.9 4.7-13.3 11-25 11-7.3 0-13.4-1.7-18-5.1-4.6-3.3-7.7-8-9.4-13.8l-.3-.9h77.7v-9.1zm-77.5-9.1c0-7.2 8.3-19.8 26.2-19.9 17.9 0 26.3 12.6 26.3 19.8l-52.5.1z" class="st0"/><path id="path8" d="M388.9 181.1c-.5-1.2-1.2-2.1-2.1-3-.9-.9-1.9-1.6-3-2.1-1.2-.5-2.4-.8-3.7-.8-1.4 0-2.5.3-3.7.8-1.2.5-2.1 1.2-3 2.1-.9.9-1.6 1.9-2.1 3-.5 1.2-.8 2.4-.8 3.7 0 1.4.3 2.5.8 3.7.5 1.2 1.2 2.1 2.1 3 .9.9 1.9 1.6 3 2.1s2.4.8 3.7.8c1.4 0 2.5-.3 3.7-.8s2.1-1.2 3-2.1c.9-.9 1.6-1.9 2.1-3 .5-1.2.8-2.4.8-3.7-.1-1.2-.4-2.5-.8-3.7zm-1.6 6.9c-.4 1-1 1.9-1.7 2.5-.7.7-1.6 1.3-2.5 1.7-1 .4-2 .6-3.1.6s-2.1-.2-3.1-.6c-1-.4-1.9-1-2.5-1.7s-1.3-1.6-1.7-2.5c-.4-1-.6-2-.6-3.1s.2-2.1.6-3.1c.4-1 1-1.9 1.7-2.5.7-.7 1.6-1.3 2.5-1.7s2-.6 3.1-.6 2.1.2 3.1.6c1 .4 1.9 1 2.5 1.7.7.7 1.3 1.6 1.7 2.5.4 1 .6 2 .6 3.1.1 1.1-.2 2.1-.6 3.1zm-5.5-2.4c.8-.1 1.4-.4 1.9-.9s.8-1.2.8-2.1c0-1.1-.3-1.9-1-2.4-.6-.6-1.7-.9-2.9-.9h-4.3v11h2.1v-4.5h1.5l2.7 4.5h2.1l-2.9-4.7zm-1-1.5h-2.5V181h2.5c.3 0 .6.1.9.2.3.1.5.3.6.5s.2.5.2.9-.1.7-.2.9c-.2.2-.4.4-.6.5-.4 0-.7.1-.9.1z" class="st0"/></svg>