<?xml version="1.0" encoding="UTF-8" standalone="no"?><svg xmlns="http://www.w3.org/2000/svg" width="400" height="245"><path fill="#888" d="M47.9 61.9V10.3h6v51.6h-6zm60.4 0h-6.8L73.3 18.6H73c.4 5.1.6 9.7.6 14v29.3H68V10.3h6.8l28.1 43.1h.3c0-.6-.2-2.7-.3-6.1-.2-3.4-.2-5.9-.2-7.4V10.3h5.6v51.6zM152 10.3h6.5l-18.6 51.6H134l-18.5-51.6h6.4l11.9 33.4c1.4 3.8 2.4 7.6 3.2 11.2.8-3.8 2-7.6 3.3-11.4L152 10.3zm13.5 51.6V10.3h6v51.6h-6zm49.3-13.7c0 4.5-1.6 8.1-4.9 10.6-3.3 2.5-7.8 3.8-13.4 3.8-6.1 0-10.8-.8-14.1-2.4v-5.8c2.1.9 4.4 1.6 6.9 2.1s5 .8 7.4.8c4 0 7-.8 9-2.3 2-1.5 3-3.6 3-6.3 0-1.8-.4-3.3-1.1-4.4-.7-1.1-1.9-2.2-3.6-3.2-1.7-1-4.2-2.1-7.7-3.3-4.8-1.7-8.2-3.8-10.3-6.1-2.1-2.4-3.1-5.4-3.1-9.2 0-4 1.5-7.1 4.5-9.5 3-2.4 6.9-3.5 11.9-3.5 5.1 0 9.8.9 14.2 2.8l-1.9 5.2c-4.3-1.8-8.4-2.7-12.4-2.7-3.2 0-5.7.7-7.4 2-1.8 1.4-2.7 3.3-2.7 5.7 0 1.8.3 3.3 1 4.4.7 1.1 1.8 2.2 3.3 3.1 1.6 1 4 2 7.2 3.2 5.4 1.9 9.1 4 11.2 6.2 2 2.4 3 5.3 3 8.8zm10.5 13.7V10.3h6v51.6h-6zm20.2-51.6h14.6c6.8 0 11.8 1 14.9 3.1 3.1 2 4.6 5.3 4.6 9.7 0 3.1-.9 5.6-2.6 7.6-1.7 2-4.2 3.3-7.5 3.9v.4c7.8 1.3 11.8 5.5 11.8 12.4 0 4.6-1.6 8.2-4.7 10.8-3.1 2.6-7.5 3.9-13.1 3.9h-18V10.3zm6 22.1h9.9c4.2 0 7.3-.7 9.1-2 1.9-1.3 2.8-3.6 2.8-6.7 0-2.9-1-5-3.1-6.3-2.1-1.3-5.4-1.9-9.9-1.9h-8.8v16.9zm0 5.1v19.3h10.8c4.2 0 7.3-.8 9.4-2.4 2.1-1.6 3.2-4.1 3.2-7.6 0-3.2-1.1-5.6-3.2-7.1-2.2-1.5-5.4-2.3-9.8-2.3h-10.4zm40.8 24.4V10.3h6v46.2h22.8v5.4h-28.8zm66.3 0h-28.8V10.3h28.8v5.3h-22.8v16.6h21.4v5.3h-21.4v19h22.8v5.4zM63.7 148.7h-6v-46.3H41.4v-5.3h38.7v5.3H63.7v46.3zm63.3 0h-6v-24.3H93.8v24.3h-6V97.1h6v22H121v-22h6v51.6zm14.2 0V97.1h6v51.6h-6zm60.4 0h-6.8l-28.2-43.3h-.3c.4 5.1.6 9.7.6 14v29.3h-5.5V97.1h6.8l28.1 43.1h.3c0-.6-.2-2.7-.3-6.1-.2-3.4-.2-5.9-.2-7.4V97.1h5.6v51.6zm36.9-27.1H256v25.1c-2.7.9-5.5 1.5-8.3 2-2.8.4-6.1.7-9.8.7-7.8 0-13.9-2.3-18.2-7-4.4-4.6-6.5-11.2-6.5-19.5 0-5.4 1.1-10.1 3.2-14.1 2.2-4 5.3-7.1 9.3-9.2 4-2.1 8.8-3.2 14.2-3.2 5.5 0 10.6 1 15.4 3l-2.3 5.3c-4.7-2-9.1-3-13.4-3-6.3 0-11.2 1.9-14.7 5.6-3.5 3.7-5.3 8.9-5.3 15.6 0 7 1.7 12.2 5.1 15.8 3.4 3.6 8.4 5.4 15 5.4 3.6 0 7.1-.4 10.5-1.2V127h-11.5v-5.4zm59 13.3c0 4.5-1.6 8.1-4.9 10.6-3.3 2.5-7.8 3.8-13.4 3.8-6.1 0-10.8-.8-14.1-2.4v-5.8c2.1.9 4.4 1.6 6.9 2.1s5 .8 7.4.8c4 0 7-.8 9-2.3 2-1.5 3-3.6 3-6.3 0-1.8-.4-3.3-1.1-4.4-.7-1.1-1.9-2.2-3.6-3.2-1.7-1-4.2-2.1-7.7-3.3-4.8-1.7-8.2-3.8-10.3-6.1-2.1-2.4-3.1-5.4-3.1-9.2 0-4 1.5-7.1 4.5-9.5 3-2.4 6.9-3.5 11.9-3.5 5.1 0 9.8.9 14.2 2.8l-1.9 5.2c-4.3-1.8-8.4-2.7-12.4-2.7-3.2 0-5.7.7-7.4 2-1.8 1.4-2.7 3.3-2.7 5.7 0 1.8.3 3.3 1 4.4.7 1.1 1.8 2.2 3.3 3.1 1.6 1 4 2 7.2 3.2 5.4 1.9 9.1 4 11.2 6.2 2 2.4 3 5.3 3 8.8zM47.9 235.4v-51.6h6V230h22.8v5.4H47.9zm69.9 0-6.4-16.4H90.7l-6.4 16.4h-6.1l20.4-51.8h5l20.3 51.8h-6.1zm-8.3-21.8-6-16c-.8-2-1.6-4.5-2.4-7.4-.5 2.3-1.3 4.7-2.2 7.4l-6.1 16h16.7zm21.6-29.8h14.6c6.8 0 11.8 1 14.9 3.1 3.1 2 4.6 5.3 4.6 9.7 0 3.1-.9 5.6-2.6 7.6-1.7 2-4.2 3.3-7.5 3.9v.4c7.8 1.3 11.8 5.5 11.8 12.4 0 4.6-1.6 8.2-4.7 10.8-3.1 2.6-7.5 3.9-13.1 3.9h-18v-51.8zm6 22.1h9.9c4.2 0 7.3-.7 9.1-2 1.9-1.3 2.8-3.6 2.8-6.7 0-2.9-1-5-3.1-6.3-2.1-1.3-5.4-1.9-9.9-1.9h-8.8v16.9zm0 5.1v19.3h10.8c4.2 0 7.3-.8 9.4-2.4 2.1-1.6 3.2-4.1 3.2-7.6 0-3.2-1.1-5.6-3.2-7.1-2.2-1.5-5.4-2.3-9.8-2.3h-10.4z"/></svg>