<?xml version="1.0" encoding="UTF-8" standalone="no"?><svg xmlns="http://www.w3.org/2000/svg" xml:space="preserve" id="Layer_1" width="400" height="245" x="0" y="0" version="1.1"><style>.st0{fill:#888}</style><path d="M78.9 190.6h-2.3c-.2-2.1-.8-3.7-1.4-4.7-.8-1-1.6-1.6-2.3-1.9-.8-.2-1.8-.4-2.9-.4h-4.3v25.1c0 1 .2 1.8.4 2.3s.6 1 1.4 1.4c.8.4 1.8.4 3.3.4v2.3H53.5v-2.3c2.1 0 3.5-.4 4.1-1 .6-.6 1-1.8 1-3.1v-25.1h-3.7c-1.4 0-2.7.2-3.5.4-1 .2-1.8.8-2.5 1.9-.8 1-1.2 2.5-1.2 4.7h-2.3v-9.7h33.8v9.7m33.2 13.2-.2 11.3H81.5v-2.3c2.1 0 3.5-.4 4.1-1s1-1.8 1-3.1v-21.6c0-1 0-1.8-.2-2.3-.2-.6-.6-1-1.4-1.4-.8-.4-1.8-.4-3.3-.4v-2.3H110l.4 8.9h-2.3c-.6-1.9-1.2-3.3-1.8-4.3-.6-.8-1.4-1.4-2.3-1.6-.8-.2-2.1-.4-3.9-.4h-6.4v12.1h3.5c1.2 0 2.1-.2 2.7-.4.6-.2 1-.6 1.2-1.2.2-.6.4-1.6.4-2.7h2.3v11.5h-2.3c0-1.4-.2-2.1-.6-2.7-.2-.6-.8-1-1.4-1.2s-1.6-.4-2.7-.4h-3.5v8.2c0 1.4 0 2.3.2 2.9 0 .6.2 1.2.6 1.6.4.4.8.8 1.4 1 .6.2 1.6.2 2.9.2h2.7c1.2 0 2.3-.2 3.3-.4 1-.4 2.1-1 3.1-2.3 1-1.2 1.8-3.1 2.1-5.8h2.7m71.8 8.7c-.6-.4-1.2-1-1.6-1.6-.4-.6-1-1.9-1.8-3.9l-10.5-26.6H168l-9.9 25.9c-.8 1.8-1.4 3.1-1.9 4.3-.6 1-1.2 1.8-1.9 1.9-.4.2-.8.4-1.2.4-.6 0-1.4-.2-1.8-.4-.8-.4-1.6-1-2.5-1.8-.8-.8-1.8-2.1-3.1-3.7l-8.4-10.9 6-7c1.4-1.6 2.3-2.7 3.1-3.3s1.6-1.2 2.3-1.6c1-.4 1.9-.6 3.3-.6v-2.3h-14.2v2.3h1.2c1.2 0 1.9.2 2.3.4.4.2.6.6.6 1.2 0 .4 0 .8-.2 1s-.4.8-1 1.4l-4.7 6-4.9-6.2c-1-1.4-1.6-2.3-1.6-2.7 0-.6.2-1 .8-1.2.4-.2 1.2-.2 2.1-.2h1.4v-2.3h-18.7v2.3c1.4 0 2.3.2 3.1.4s1.4.6 1.9 1.2c.6.6 1.6 1.8 2.7 3.3l8.4 10.9-6 7.2c-1.8 1.9-3.1 3.5-4.1 4.5-1 1-1.9 1.6-2.9 1.8-.8.2-1.8.4-2.9.4v2.3h14.8v-2.3c-1 0-1.8 0-2.3-.2-.6 0-1.2-.2-1.6-.6s-.6-.8-.6-1.4c0-.8.6-1.9 1.9-3.3l5.3-6.2 5.6 7.4c1 1.2 1.4 1.9 1.4 2.3 0 .8-.4 1.4-1 1.6-.8.2-1.6.4-2.3.4h-1.6v2.3h28.9v-2.3c-1 0-1.9-.2-2.7-.4-.8-.2-1.2-1-1.2-1.9 0-.6.2-1.6.8-2.7l.8-2.1h11.1l1.6 4.1c.2.6.4 1 .4 1.6 0 .8-.4 1.2-1 1.4-.6.2-1.6.2-2.9.2v2.3h16.1v-2.3c-1.1-.4-2.1-.4-2.7-.7zm-21.5-9.4 4.5-11.9 4.7 11.9h-9.2zm50.1 2c0 1-.2 2.1-.6 3.3-.4 1.2-1.2 2.3-1.9 3.3-1 1-1.9 1.9-3.5 2.5-1.4.6-2.9 1-4.7 1-1.8 0-3.5-.4-5.3-1.2-1.8-.8-3.3-1.9-4.5-3.5-.6 1.2-.8 2.3-1 3.3H189v-11.5h2.3c.4 1.6 1 3.1 1.8 4.7.8 1.4 1.8 2.7 3.1 3.7 1.4 1 2.9 1.6 4.9 1.6 1.8 0 3.1-.4 4.1-1.4 1-1 1.6-2.1 1.6-3.5 0-.8-.2-1.6-.4-2.1-.4-.6-.8-1.2-1.4-1.6s-1.4-1-2.5-1.6c-1-.6-2.1-1.2-3.5-1.8-1.9-1-3.7-1.9-5.1-2.9s-2.3-1.9-2.9-2.9c-.6-1-1.2-1.8-1.4-2.5s-.4-1.8-.4-2.5c0-1.6.4-2.9 1.2-4.5.8-1.6 1.9-2.7 3.5-3.5 1.6-1 3.3-1.4 5.4-1.4 1.6 0 3.1.4 4.5 1 1.4.8 2.7 1.8 3.7 2.9.4-.8.6-1.8.8-2.9h2.3v9.3h-2.5c-1.6-5.1-4.5-7.6-8.6-7.6-1.6 0-2.7.4-3.5 1.2-1 .8-1.4 1.8-1.4 3.1 0 1 .2 1.8.8 2.5.6.8 1.4 1.4 2.1 1.8 1 .6 2.3 1.2 4.5 2.1 2.5 1.2 4.5 2.1 5.8 3.1 1.4.8 2.5 1.9 3.5 3.3 1.1 1.7 1.4 3.2 1.4 5.2m52.6 10.1H249v-2.3c1.4 0 2.3-.2 2.9-.2.6-.2 1-.6 1-1.4 0-.6-.2-1-.4-1.6l-1.6-4.1h-11.1l-.8 2.1c-.4 1.2-.8 2.1-.8 2.7 0 1 .4 1.6 1.2 1.9.8.2 1.8.4 2.7.4v2.3h-11.9v-2.3c1 0 1.8-.2 2.3-.6.6-.4 1.4-1 1.9-1.9s1.2-2.3 1.9-4.3l9.9-25.9h2.3l10.5 26.6c.8 1.9 1.4 3.1 1.8 3.9.4.6.8 1.2 1.6 1.6.6.4 1.6.6 2.7.6v2.5m-15-12.1-4.7-11.9-4.5 11.9h9.2zm90 12.1h-17.3v-2.3c1.6 0 2.5-.2 3.3-.4.8-.4 1.2-.8 1.4-1.4s.4-1.4.4-2.3v-21.6l-13 28h-1.6l-13.2-28v20.4c0 1.2 0 1.9.2 2.5 0 .6.2 1 .6 1.6.4.4.8.8 1.6 1 .6.2 1.6.2 2.7.2v2.3h-12.6v-2.3c1.2 0 2.1-.2 2.9-.4.6-.2 1.2-.6 1.4-1 .4-.4.6-1 .6-1.6s.2-1.4.2-2.5v-19.4c0-1.4 0-2.5-.2-3.1-.2-.6-.6-1.2-1.2-1.4-.8-.4-1.8-.6-3.5-.6v-2.3h12.4l11.5 24.3 11.5-24.3h12.3v2.3c-2.1 0-3.5.4-4.1 1-.6.6-1 1.8-1 3.1v21.6c0 1 .2 1.8.4 2.3.2.6.6 1 1.4 1.4s1.8.4 3.3.4v2.5m-275.6 12c-.6 0-1.2 0-1.4.2l-.6.6v6.5c0 1 0 1.8-.2 2.1 0 .4-.2 1-.6 1.6-.6 1-1.4 1.6-2.1 1.9-1 .4-1.9.6-2.7.6-.6 0-1.4 0-1.9-.2-.8-.2-1.4-.4-1.9-.8-.6-.4-1-1-1.4-1.6-.2-.4-.4-.8-.4-1 0-.4-.2-.8-.2-1v-7c0-.6-.2-1-.4-1.4-.2-.2-.8-.4-1.8-.4v-1h7.2v1c-.6 0-1 0-1.4.2-.4.2-.6.4-.6.6s-.2.6-.2 1v7.4c0 .4.2.8.2 1.2.2.6.6 1 1.2 1.4s1.2.6 1.9.6c.8 0 1.4-.2 1.9-.6.6-.4 1-.8 1.4-1.4.2-.4.4-1 .4-1.4v-7.9c0-.2-.2-.4-.2-.6-.2-.2-.4-.4-.6-.4-.2 0-.8-.2-1.2-.2v-1h5.3v.8m33.8.2c-.6 0-1.2 0-1.4.2-.4.2-.4.4-.6.6 0 .2-.2.8-.2 1.4v11.3h-1l-9.3-11.1v7.8c0 .6 0 1 .2 1.4 0 .2.2.4.6.6.4.2.8.2 1.4.2v1h-5.3v-1c.6 0 1.2 0 1.4-.2l.6-.6c0-.2.2-.8.2-1.4v-8.6c0-.4-.2-.6-.2-.8l-.6-.6c-.2-.2-.6-.2-1.2-.2v-1h4.1l8.2 9.5v-6.4c0-.6 0-1-.2-1.2 0-.2-.2-.6-.6-.6-.2-.2-.8-.2-1.4-.2v-1h5.3v.9m25.1 13.1h-7.2v-1c.6 0 1 0 1.4-.2s.6-.2.6-.6c0-.2.2-.6.2-1v-8.9c0-.6-.2-1-.4-1.4-.2-.2-.8-.4-1.8-.4v-1h7.2v1c-.6 0-1 0-1.4.2-.4.2-.6.2-.6.6 0 .2-.2.6-.2 1v8.9c0 .4 0 .8.2 1 0 .2.2.4.6.6s.8.2 1.4.2v1m33.4-13.1c-.4 0-.6 0-.8.2-.2 0-.4.2-.6.4-.2.2-.4.4-.4.8-.2.4-.4.8-.6 1.4l-4.7 10.7h-1l-4.9-11.3c-.4-.8-.6-1.2-.8-1.4l-.6-.6c-.2-.2-.8-.2-1.2-.2v-1h7.2v1c-.8 0-1.2 0-1.4.2-.2 0-.4.4-.4.6 0 .4 0 .6.2 1l3.3 7.6 2.9-7c.2-.6.4-1 .4-1.2 0-.4-.2-.8-.4-.8-.4-.2-.8-.2-1.4-.2v-1h5.3v.8m30.6 8.6-.2 4.7h-12.6v-1c.8 0 1.4-.2 1.8-.4.2-.2.4-.8.4-1.4v-8.9c0-.4 0-.8-.2-1 0-.2-.2-.4-.6-.6-.4-.2-.8-.2-1.4-.2v-1h11.7l.2 3.7h-1c-.2-.8-.4-1.4-.8-1.8-.2-.4-.6-.6-1-.6s-1-.2-1.6-.2h-2.7v5.1h1.4c.6 0 .8 0 1.2-.2.2 0 .4-.2.6-.6 0-.2.2-.6.2-1.2h1v4.7h-1c0-.6 0-1-.2-1.2s-.2-.4-.6-.6c-.2 0-.6-.2-1.2-.2h-1.6v4.5c0 .2.2.4.2.6.2.2.4.4.6.4.2 0 .6.2 1.2.2h1.2c.4 0 1 0 1.4-.2s.8-.4 1.4-1c.4-.6.8-1.4 1-2.3h1.4m33.5 5.2h-3.7l-.6-.6c-.2-.4-.4-.6-.6-1-.2-.4-.4-.8-.6-1l-1-1.6c-.4-.8-.8-1.2-1-1.4-.2-.2-.4-.4-.8-.6-.2 0-.8-.2-1.4-.2h-.6v3.7c0 .4 0 .8.2 1 0 .2.2.4.6.6.4.2.8.2 1.4.2v1h-7v-1c.8 0 1.4-.2 1.8-.4.2-.2.4-.6.4-1.4v-8.9c0-.6-.2-1-.4-1.4-.2-.2-.8-.4-1.8-.4v-1l3.3-.2h3c.8 0 1.4 0 1.9.2.6 0 1.2.2 1.4.2.6.2 1 .4 1.6.6l1.2 1.2c.4.6.4 1.2.4 1.8 0 .4 0 1-.4 1.4-.2.4-.6.8-1 1.2-.4.4-1 .6-1.8.8.6.4 1 .6 1.4 1.2.4.4 1 1.2 1.8 2.5.4.6.8 1.2 1.2 1.6.2.4.6.6.8.8.2.2.6.2 1 .2v1m-6.5-10.4c0-1.2-.4-1.9-1-2.3-.8-.4-1.6-.6-2.7-.6h-.8v5.6h.6c1 0 1.9-.2 2.7-.6.8 0 1.2-1 1.2-2.1zm34.2 6.4c0 .4-.2 1-.2 1.4-.2.6-.4 1-.8 1.4-.4.4-.8.8-1.4 1.2-.6.2-1.2.4-1.9.4-.8 0-1.6-.2-2.3-.6-.8-.4-1.4-.8-1.9-1.6-.2.6-.4 1-.4 1.4h-1V235h1c.2.8.4 1.4.8 1.9.4.6.8 1.2 1.4 1.6.6.4 1.2.6 2.1.6.8 0 1.4-.2 1.8-.6.4-.4.6-1 .6-1.6 0-.4 0-.6-.2-1l-.6-.6c-.2-.2-.6-.4-1-.6-.4-.2-1-.4-1.6-.8-.8-.4-1.6-.8-2.1-1.2-.6-.4-1-.8-1.2-1.2l-.6-1.2c-.2-.4-.2-.8-.2-1 0-.6.2-1.2.6-1.9.4-.6.8-1.2 1.6-1.6.6-.4 1.4-.6 2.3-.6.6 0 1.4.2 1.9.4.6.4 1.2.8 1.6 1.2.2-.4.2-.8.4-1.2h1v3.9h-1c-.8-2.1-1.9-3.3-3.7-3.3-.6 0-1.2.2-1.6.6-.4.4-.6.8-.6 1.4 0 .4.2.8.4 1 .2.4.6.6 1 .8.4.2 1 .6 1.9 1 1 .6 1.9 1 2.5 1.4.6.4 1.2.8 1.6 1.4-.4.9-.2 1.7-.2 2.5m25.7 3.9h-7.2v-1c.6 0 1 0 1.4-.2s.6-.2.6-.6c0-.2.2-.6.2-1v-8.9c0-.6-.2-1-.4-1.4-.2-.2-.8-.4-1.8-.4v-1h7.2v1c-.6 0-1 0-1.4.2-.4.2-.6.2-.6.6 0 .2-.2.6-.2 1v8.9c0 .4 0 .8.2 1 0 .2.2.4.6.6s.8.2 1.4.2v1m32.1-10.1h-1c0-1-.2-1.6-.6-1.9s-.6-.6-1-.8c-.4-.2-.8-.2-1.2-.2H302v10.3c0 .4 0 .8.2 1 0 .2.2.4.6.6s.8.2 1.4.2v1H297v-1c.8 0 1.4-.2 1.8-.4.2-.2.4-.6.4-1.4v-10.3h-1.6c-.6 0-1.2 0-1.6.2-.4 0-.8.4-1 .8-.4.4-.4 1-.6 1.9h-1V226h14l.1 4.1m32.6-3c-.4 0-.8.2-1 .2-.2.2-.6.4-.8.8-.2.4-.6.8-1.2 1.6l-2.9 4.7v3.3c0 .4 0 .8.2 1 0 .2.2.4.6.6s.8.2 1.4.2v1h-7.2v-1c.6 0 1 0 1.4-.2.4-.2.6-.2.6-.6 0-.2.2-.6.2-1v-3.1l-3.5-5.8v-.4c-.4-.6-.6-.8-.8-1-.2-.2-.6-.2-1-.2v-1h6.6v1h-.8c-.2 0-.4 0-.4.2-.2 0-.2.2-.2.4s0 .4.2.4c0 .2.2.6.6 1l2.1 3.7 2.1-3.3c.4-.8.6-1.2.6-1.6s-.2-.8-.4-.8c-.2-.2-.8-.2-1.2-.2v-1h5.1v1.2" class="st0"/><path d="M290.7 206.5c-.8 1.4-1.6 1.8-2.5 1.8-.8 0-1.6-.2-2.1-.8-.6-.4-1.6-1.6-2.9-3.3.6-.8 1.2-1.9 1.8-3.3.8-1.9 1.6-3.3 2.3-3.9s1.6-1.2 2.5-1.4h.6v-2.1h-9.7v2.1h.6c2.1.2 2.5 1.2 2.5 1.9 0 .4-.2 1.2-.6 2.3-.2.8-.8 1.6-1.2 2.3l-5.6-7.8c3.5-1.9 5.3-3.9 5.3-6 0-1.6-.6-2.7-1.9-3.7-1.2-.8-2.7-1.4-4.3-1.4-1.8 0-3.3.6-4.5 1.8-1.2 1.2-1.8 2.5-1.8 4.1 0 1.8.8 3.5 2.1 5.6-2.3 1.6-3.9 2.9-4.7 3.9-1 1.2-1.6 2.7-1.6 4.5 0 1.6.4 2.9 1.2 4.1.8 1.2 1.8 2.1 3.1 2.7 1.2.6 2.5 1 3.9 1 2.5 0 4.9-1.2 7.2-3.5 1.9 2.3 4.3 3.5 6.8 3.5 1.4 0 2.5-.4 3.5-1.2 1-.8 1.8-1.8 1.9-2.9v-.2l.2-.6h-2.1v.5zm-18.3-9.5c1.8 2.3 3.9 5.4 6.4 9.1-1.4 1.4-2.7 2.1-4.1 2.1-1.4 0-2.7-.6-3.9-1.9-1.2-1.4-1.8-2.7-1.8-4.1 0-1 .4-1.9 1-2.9.5-.9 1.5-1.7 2.4-2.3zm1.2-10.5c.4-.4 1-.8 1.8-.8s1.4.2 1.8.8.8 1.2.8 2.1c0 1.4-1 2.7-3.1 4.1-1.6-2.3-1.9-3.5-1.9-4.3-.2-.7 0-1.3.6-1.9zm6.8-133.4h-19l-.4.9-13.1 27.1-13-27.1-.4-.9h-20v12.6h4.7v38.7h-4.9v12.7h22.8v-12.7H232V77l14.6 29.9 1.3 3.2 16.2-33.3v27.6h-4.9v12.7h23v-12.7h-5.1V65.7h5.1V53.1h-1.8m-113 51.3h-5.3l-16.9-38.9h3.3V52.9h-27v12.6h3.7l-16.9 38.9h-7v12.4h24.5v-12.4h-3.3l2.7-6.4h20.2l2.7 6.4h-3.7v12.4H169v-12.4h-1.6m-27.4-19h-9.3l4.7-10.9 4.6 10.9zm208.7 148.2v4.5h.8v-1.8h.6c.4 0 .8 0 1 .2.2.2.4.6.4 1v.6h.8v-1c0-.2 0-.4-.2-.8-.2-.2-.4-.4-.8-.4.4 0 .6-.2.6-.2.4-.2.4-.6.4-1 0-.6-.2-1-.8-1.2-.2-.2-.6-.2-1.2-.2h-1.6m2.9 1.6c0 .4-.2.6-.4.8h-1.6v-1.6h.8c.4 0 .8 0 1 .2 0 0 .2.2.2.6m3.1 1c0-1.2-.4-2.1-1.2-2.9-.8-.8-1.8-1.2-2.9-1.2s-2.1.4-2.9 1.2c-.8.8-1.2 1.8-1.2 2.9 0 1.2.4 2.1 1.2 2.9.8.8 1.8 1.2 2.9 1.2s2.1-.4 2.9-1.2c.6-.8 1.2-1.7 1.2-2.9m-4.3-3.7c1 0 1.8.4 2.5 1 .8.8 1 1.6 1 2.5 0 1-.4 1.9-1 2.5-.8.8-1.6 1-2.5 1-1 0-1.8-.4-2.5-1-.8-.8-1-1.6-1-2.5 0-1 .4-1.8 1-2.5.8-.6 1.6-1 2.5-1" class="st0"/><path d="M121.3 4.4v40.3h27.4V29.3h29.2v96.1h-15.4v27.4h58.2v-27.4h-15.4V29.3h29v15.2h27.6V4.4H121.3m87.9 132.3 5.8-6V147l-5.8-5.4v-4.9zm-9.5-5.4-5.8 5.6V18.1l5.8 5.8v107.4zM133 15.9l-6-5.8h126.2l-7.4 5.8H133zm123.3 23.4-5.8-5.4V19.2l5.8-6v26.1z" class="st0"/></svg>