<?xml version="1.0" encoding="UTF-8" standalone="no"?><svg xmlns="http://www.w3.org/2000/svg" xml:space="preserve" id="Layer_1" width="400" height="245" x="0" y="0" version="1.1"><style>.st0{fill:#888}</style><g id="CMYK"><path d="M44.9 96.3c.2.2.3.1.3.1 13.2-.5 20.7 4.5 21.3 6.5l5.3-.1 1.6-3.6c.1-.3.1-.6 0-.8-1.6-1.8-14.8-5.5-30.8-5.5-17 0-27.9 3.4-30.1 5.1-.3.2-.5.5-.6.8l.3.9.5 1c.1.3.3.3.7.1 0 0 .3-.1.4-.3.1-.2-.1-.6-.1-.6-.3-.7.1-.8.1-.8l1-.4c.5-.1.5.1.7.5 0 0 .2.5.3.6.1.1 1-.3 3.4-.9.2 0 .4-.1.6-.2.2-.1 0-.9 0-.9-.1-.4-.3-.8.6-.9l1.4-.3c.7-.2.7.2.8.6 0 .3.1.6.2.8.2.3.5-.2 5-.7 0 0 .7 0 .8-.2.1-.2.1-.5 0-.7 0-.5-.3-.9.8-1l2-.2c1.4-.2 1.2.3 1.3.8 0 .2.1.5.2.7.1.1.6.1.6.1 2.5-.3 3.8-.2 6.5-.3.2 0 .4-.1.5-.2.1-.1.1-.2.1-.3 0-.3-.1-.8.1-1 .2-.2.6-.1.9-.1h2.2c.3 0 1-.2 1.3.1.1.4.1.7.1 1.1-.4.1-.3.2-.3.2z" class="st0"/><path d="M42.6 74.9c-12.8 0-20.8 4.1-25.8 9.1-.1.1-.1.1-.1.2-.1.3-.1.6.4.4 11-4.6 23-1.7 26.9 2.6.1.2 0 .3-.2.3-4.8-.1-9.5.2-14.2.9-3.4.4-6.9 1.1-10.2 1.9-3.6.8-7 2.2-10.1 4.1-.4.2-.8.5-.9 1-.2.6-.2.6-.3 1-.2.8-.4 1.3-.4 1.6-.1.5.5.3.7 0 1.3-1.3 2.8-2.3 4.5-3 3.4-1.5 6.9-2.5 10.5-3.2 6.2-1.1 12.5-1.7 18.9-1.7 6.5 0 13 .6 19.3 1.8 4.4.8 8.7 2.1 12.8 4 1.1.5 2.1 1.2 2.9 2 .7.7.8.1.7-.1-.3-1.1-.7-2.2-1.3-3.2-3.6-6.7-13.3-19.7-34.1-19.7M5.3 161c0 3 12.4 9.1 38.1 9.1 24.9 0 38.1-6.1 38.1-9.1l-.1-4.6v-.2c0-.8-1.4-1-5.4-1.1l-.1-2.6c0 .3-.9.8-1.4 1.1-3.3 1.9-15.8 4.7-31.5 4.7-18.2 0-30.9-3.8-32.9-5.8v3.9c6 4.3 24.4 8.1 43 6.1.4-.1.9-.1 1.3 0 .1 0 .7.5-.3.9-10.8 3.6-37.4 2.8-48.7-5.8v3.2" class="st0"/><path d="M58.6 99.9h-7c-.3 0-.5.2-.5.5v.8c0 .4.2.5.5.5h2.2c.2 0 .3.1.3.1.1.2-.3.4-.4.5l-1.1.7c-.2.2-.3.4-.3.7V154c.1.9 1.5 1 3 1 1.3 0 2.8-.1 3-.9V102c0-.2.1-.2.1-.2h.3c.2 0 .5-.1.5-.4v-1.1c-.1-.2-.3-.4-.6-.4.1 0 .1 0 0 0zm-11.5 35 .2-.3h.5v-.3H38v.3h.5l.1.3.6 1.3c.1.1.2.1.2.2.2.1.3.1.5.1h2.4c.2 0 .5 0 .6.2.1.2.1.5-.2.6-.8.6-2.2 1.5-2.9 1.9-.2.1-.3.2-.4.4-.1.1-.1.2-.1.3v9.5l-.8.3s-.3 1.9 0 2.1c2.8.2 5.7.2 8.5 0 .3-.2 0-2.1 0-2.1l-.8-.3v-12.7l.9-1.8zm25.1-32.2h-7c-.3 0-.5.2-.5.5v.8c0 .4.2.5.5.5h2.2c.2 0 .3.1.3.1s-.3.4-.5.5l-1.1.7c-.2.2-.3.4-.3.7v45.4c.1.9 1.5.9 3 .9 1.3 0 2.8-.1 3-.9v-47.1c0-.2.1-.2.1-.3h.3c.2 0 .5-.1.5-.4v-1c0-.1-.2-.4-.5-.4.1 0 .1 0 0 0zm-38.4-2.8h-7c-.2 0-.5.1-.5.4v.9c0 .4.2.5.5.5H29c.2 0 .3.1.3.1.1.2-.3.4-.4.5l-1.1.7c-.2.2-.3.4-.3.7v50.4c.1.9 1.5 1 3 .9 1.3 0 2.8-.1 3-.9V102c0-.2.1-.2.1-.3h.3c.2 0 .5-.1.5-.4v-1.1c-.1-.1-.3-.3-.6-.3.1 0 .1 0 0 0zm-13.7 2.9h-7c-.3 0-.5.2-.5.5v.8c0 .4.2.5.5.5h2.2c.2 0 .3.1.3.1s-.3.4-.4.5l-1.1.7c-.2.1-.3.4-.3.7V152c.1.9 1.5 1 3 1 1.3 0 2.8-.1 3-.9V105c0-.2.1-.2.1-.3h.3c.2 0 .5-.1.5-.4v-.9c0-.3-.3-.5-.6-.6zm368.1-.3c-4.7-13.2-16.9-21.9-32.4-21.9-23.8 0-38.6 17.2-38.6 41.1 0 25.8 18.5 44.7 40.1 44.7 11.2 0 25.1-3.8 34.7-21.1h2.7c-2.2 7.2-5.3 14.2-9.1 20.8-9.1-1.3-15.4 3.8-32.2 3.8-28.9 0-49.7-19.1-49.7-45.4 0-27.6 21.3-47.5 51.1-47.5 17.9 0 25.6 5.7 30 5.7 1.6 0 2.3-.4 2.6-.9h2.1l1.3 20.6-2.6.1zM270 79.2v2.7c11.4.3 13.9 1.9 13.9 10.5V149l-67-69.9h-53.5v2.7c11.8.6 13.9 3 13.9 16.6v33.2c0 24.2-16.4 30.9-32.4 30.9-21.2 0-32.4-11.5-32.4-30.7V92.3c0-8.3 3.4-10.4 11.2-10.4h1.3v-2.7H88.4v2.7c9.7.2 12.2 1.6 12.2 10.7v41.6c0 20.3 13.9 35.9 41.1 35.9 30.9 0 42.1-19 42.1-36.6V95c0-10.6 5-13 11.7-13 3.9 0 7.7 1.2 11 3.5v70.1c0 6.5-2.8 9.5-11.7 9.5h-.6v2.7h33V165c-12.1 0-14.4-2.1-14.4-12.4v-61l73.7 77.1h3.7V89.3c0-5.5 2.3-7.4 13-7.4v-2.7H270z" class="st0"/></g></svg>