<?xml version="1.0" encoding="UTF-8"?>
<svg width="109px" height="137px" viewBox="0 0 109 137" version="1.1" xmlns="http://www.w3.org/2000/svg" xmlns:xlink="http://www.w3.org/1999/xlink">
    <!-- Generator: Sketch 52.6 (67491) - http://www.bohemiancoding.com/sketch -->
    <title>Group 33</title>
    <desc>Created with Sketch.</desc>
    <g id="Page-1" stroke="none" stroke-width="1" fill="none" fill-rule="evenodd">
        <g id="Resources" transform="translate(-248.000000, -916.000000)">
            <g id="Group-33" transform="translate(249.000000, 917.000000)">
                <path d="M80.0459357,134.791415 L2.40023929,134.791415 C1.08014802,134.791415 -4.24603174e-05,133.716697 -4.24603174e-05,132.403035 L-4.24603174e-05,15.7347254 C-4.24603174e-05,14.4210634 1.08014802,13.3463451 2.40023929,13.3463451 L87.7369853,13.3463451 C89.0568643,13.3463451 90.1370548,14.4210634 90.1370548,15.7347254 L89.8016183,122.777049 L80.0459357,134.791415 Z" id="Stroke-1" stroke="#D3D3D3" stroke-width="0.55" stroke-dasharray="2.00027517080307"></path>
                <path d="M16.0994026,13.3463873 L17.1553907,2.16483803 C17.2789502,0.857091549 18.4553133,-0.112415493 19.7696724,0.0105422535 L104.731918,7.9569507 C106.046278,8.07990845 107.02053,9.25054225 106.89697,10.5585 L96.4975891,117.099697 L89.8200673,116.904486" id="Stroke-3" stroke="#D3D3D3" stroke-width="0.55" stroke-dasharray="2.00027517080307"></path>
                <path d="M90.1370972,122.796423 L84.3782044,122.776986 C81.9324901,122.967972 80.0459782,124.998465 80.0459782,127.439873 L80.0459782,134.791352" id="Stroke-5" stroke="#D3D3D3" stroke-width="0.55" stroke-dasharray="2.00027517080307"></path>
                <path d="M11.4723107,30.6088521 L58.2935151,30.6088521" id="Stroke-7" stroke="#128DC4" stroke-width="0.6336"></path>
                <path d="M11.4723107,37.8521831 L58.2935151,37.8521831" id="Stroke-9" stroke="#128DC4" stroke-width="0.6336"></path>
                <path d="M11.4723107,45.0955352 L80.0459357,45.0955352" id="Stroke-11" stroke="#128DC4" stroke-width="0.6336"></path>
                <path d="M11.4723107,52.3388662 L80.0459357,52.3388662" id="Stroke-13" stroke="#128DC4" stroke-width="0.6336"></path>
                <path d="M11.4723107,59.5822183 L80.0459357,59.5822183" id="Stroke-15" stroke="#128DC4" stroke-width="0.6336"></path>
                <path d="M11.4723107,66.8255493 L80.0459357,66.8255493" id="Stroke-17" stroke="#128DC4" stroke-width="0.6336"></path>
                <path d="M11.4723107,74.0689014 L80.0459357,74.0689014" id="Stroke-19" stroke="#128DC4" stroke-width="0.6336"></path>
                <path d="M11.4723107,81.3122535 L80.0459357,81.3122535" id="Stroke-21" stroke="#128DC4" stroke-width="0.6336"></path>
                <path d="M11.4723107,88.5555845 L80.0459357,88.5555845" id="Stroke-23" stroke="#128DC4" stroke-width="0.6336"></path>
                <path d="M11.4723107,95.7989366 L80.0459357,95.7989366" id="Stroke-25" stroke="#128DC4" stroke-width="0.6336"></path>
                <path d="M11.4723107,103.042268 L80.0459357,103.042268" id="Stroke-27" stroke="#128DC4" stroke-width="0.6336"></path>
                <path d="M11.4723107,110.28562 L80.0459357,110.28562" id="Stroke-29" stroke="#128DC4" stroke-width="0.6336"></path>
                <path d="M50.7727738,122.51831 C50.7727738,125.273873 48.5281091,127.507394 45.7590595,127.507394 C42.9902222,127.507394 40.7455575,125.273873 40.7455575,122.51831 C40.7455575,119.762746 42.9902222,117.529014 45.7590595,117.529014 C48.5281091,117.529014 50.7727738,119.762746 50.7727738,122.51831 Z" id="Stroke-31" stroke="#782347" stroke-width="0.6336"></path>
            </g>
        </g>
    </g>
</svg>