<?xml version="1.0" encoding="UTF-8"?>
<svg width="99px" height="132px" viewBox="0 0 99 132" version="1.1" xmlns="http://www.w3.org/2000/svg" xmlns:xlink="http://www.w3.org/1999/xlink">
    <!-- Generator: Sketch 52.6 (67491) - http://www.bohemiancoding.com/sketch -->
    <title>Group 33</title>
    <desc>Created with Sketch.</desc>
    <g id="Page-1" stroke="none" stroke-width="1" fill="none" fill-rule="evenodd">
        <g id="Resources" transform="translate(-840.000000, -918.000000)">
            <g id="Group-33" transform="translate(841.000000, 919.000000)">
                <path d="M86.9912412,129.881774 L10.0365753,129.881774 C8.72823254,129.881774 7.65765553,128.806473 7.65765553,127.492099 L7.65765553,10.7605545 C7.65765553,9.44618049 8.72823254,8.37087967 10.0365753,8.37087967 L94.6138421,8.37087967 C95.9219744,8.37087967 96.9925514,9.44618049 96.9925514,10.7605545 L96.6601002,117.860896 L86.9912412,129.881774 Z" id="Stroke-1" stroke="#D3D3D3" stroke-width="0.55" stroke-dasharray="2.00027517080307"></path>
                <path d="M96.9926145,117.88028 L91.2849746,117.860833 C88.8610267,118.051922 86.9913043,120.083515 86.9913043,122.526247 L86.9913043,129.881711" id="Stroke-3" stroke="#D3D3D3" stroke-width="0.55" stroke-dasharray="2.00027517080307"></path>
                <path d="M19.0279282,32.89 L65.4324336,32.89" id="Stroke-5" stroke="#128DC4" stroke-width="0.6336"></path>
                <path d="M19.0279282,40.137278 L86.9912623,40.137278" id="Stroke-7" stroke="#128DC4" stroke-width="0.6336"></path>
                <path d="M19.0279282,47.384535 L86.9912623,47.384535" id="Stroke-9" stroke="#128DC4" stroke-width="0.6336"></path>
                <path d="M19.0279282,54.631813 L86.9912623,54.631813" id="Stroke-11" stroke="#128DC4" stroke-width="0.6336"></path>
                <path d="M19.0279282,61.8790699 L86.9912623,61.8790699" id="Stroke-13" stroke="#128DC4" stroke-width="0.6336"></path>
                <path d="M19.0279282,69.126348 L86.9912623,69.126348" id="Stroke-15" stroke="#128DC4" stroke-width="0.6336"></path>
                <path d="M19.0279282,76.373626 L86.9912623,76.373626" id="Stroke-17" stroke="#128DC4" stroke-width="0.6336"></path>
                <path d="M19.0279282,83.6208829 L86.9912623,83.6208829" id="Stroke-19" stroke="#128DC4" stroke-width="0.6336"></path>
                <path d="M19.0279282,90.868161 L86.9912623,90.868161" id="Stroke-21" stroke="#128DC4" stroke-width="0.6336"></path>
                <path d="M19.0279282,98.1154179 L86.9912623,98.1154179" id="Stroke-23" stroke="#128DC4" stroke-width="0.6336"></path>
                <path d="M19.0279282,105.362696 L86.9912623,105.362696" id="Stroke-25" stroke="#128DC4" stroke-width="0.6336"></path>
                <path d="M27.2185787,23.2524976 C27.2185787,26.0093431 24.9938911,28.2442862 22.2496959,28.2442862 C19.5052902,28.2442862 17.2806026,26.0093431 17.2806026,23.2524976 C17.2806026,20.4954407 19.5052902,18.2604976 22.2496959,18.2604976 C24.9938911,18.2604976 27.2185787,20.4954407 27.2185787,23.2524976 Z" id="Stroke-27" stroke="#782347" stroke-width="0.6336"></path>
                <path d="M7.65765553,125.618218 L5.97036052,125.618218 C4.6622282,125.618218 3.59165119,124.542917 3.59165119,123.228332 L3.59165119,6.49699837 C3.59165119,5.18262439 4.6622282,4.10732358 5.97036052,4.10732358 L90.5476273,4.10732358 C91.8559701,4.10732358 92.9265471,5.18262439 92.9265471,6.49699837 L92.5940959,8.37090081" id="Stroke-29" stroke="#D3D3D3" stroke-width="0.55" stroke-dasharray="2.00027517080307"></path>
                <path d="M4.06604642,121.510915 L2.37875141,121.510915 C1.07040868,121.510915 4.20824295e-05,120.435615 4.20824295e-05,119.121241 L4.20824295e-05,2.38969593 C4.20824295e-05,1.07532195 1.07040868,2.11382114e-05 2.37875141,2.11382114e-05 L86.9560182,2.11382114e-05 C88.264361,2.11382114e-05 89.3347275,1.07532195 89.3347275,2.38969593 L89.0024868,4.26359837" id="Stroke-31" stroke="#D3D3D3" stroke-width="0.55" stroke-dasharray="2.00027517080307"></path>
            </g>
        </g>
    </g>
</svg>