<?xml version="1.0" encoding="UTF-8"?>
<svg width="102px" height="134px" viewBox="0 0 102 134" version="1.1" xmlns="http://www.w3.org/2000/svg" xmlns:xlink="http://www.w3.org/1999/xlink">
    <!-- Generator: Sketch 52.6 (67491) - http://www.bohemiancoding.com/sketch -->
    <title>Group 31</title>
    <desc>Created with Sketch.</desc>
    <g id="Page-1" stroke="none" stroke-width="1" fill="none" fill-rule="evenodd">
        <g id="Resources" transform="translate(-549.000000, -917.000000)">
            <g id="Group-31" transform="translate(550.000000, 918.000000)">
                <path d="M89.0015789,2.164272 C88.8790526,0.856944 87.7125263,-0.1122528 86.4093684,0.0104544 L2.15736842,7.95432 C0.854210526,8.0772384 -0.112105263,9.2474976 0.0104210526,10.5550368 L10.3228421,117.062141" id="Stroke-1" stroke="#D3D3D3" stroke-width="0.55" stroke-dasharray="2.00027517080307"></path>
                <path d="M92.7312211,10.5380141 L91.9558526,4.33844928 C91.8333263,3.03112128 90.6668,2.06192448 89.3634316,2.18484288 L5.11164211,10.1289197 C3.80827368,10.2518381 2.84216842,11.4220973 2.96469474,12.7294253 L10.0322737,85.7231021" id="Stroke-3" stroke="#D3D3D3" stroke-width="0.55" stroke-dasharray="2.00027517080307"></path>
                <path d="M89.8097684,131.94418 L12.8133474,131.94418 C11.5042947,131.94418 10.4331368,130.869805 10.4331368,129.556564 L10.4331368,12.9255878 C10.4331368,11.6123462 11.5042947,10.5379718 12.8133474,10.5379718 L97.4365053,10.5379718 C98.7453474,10.5379718 99.8165053,11.6123462 99.8165053,12.9255878 L99.4838737,119.933658 L89.8097684,131.94418 Z" id="Stroke-5" stroke="#D3D3D3" stroke-width="0.55" stroke-dasharray="2.00027517080307"></path>
                <path d="M99.8165474,119.953025 L94.1058105,119.933595 C91.6805474,120.12452 89.8098105,122.154363 89.8098105,124.59499 L89.8098105,131.944116" id="Stroke-7" stroke="#D3D3D3" stroke-width="0.55" stroke-dasharray="2.00027517080307"></path>
                <path d="M21.8095579,35.035968 L68.2392421,35.035968" id="Stroke-9" stroke="#128DC4" stroke-width="0.6336"></path>
                <path d="M21.8095579,42.2770022 L68.2392421,42.2770022" id="Stroke-11" stroke="#128DC4" stroke-width="0.6336"></path>
                <path d="M43.3802737,100.205192 L89.8097474,100.205192" id="Stroke-13" stroke="#782347" stroke-width="0.6336"></path>
                <path d="M43.3802737,107.446226 L89.8097474,107.446226" id="Stroke-15" stroke="#782347" stroke-width="0.6336"></path>
                <path d="M21.8095579,49.5180154 L68.2392421,49.5180154" id="Stroke-17" stroke="#128DC4" stroke-width="0.6336"></path>
                <path d="M21.8095579,56.7590496 L89.8097684,56.7590496" id="Stroke-19" stroke="#128DC4" stroke-width="0.6336"></path>
                <path d="M21.8095579,64.0000627 L89.8097684,64.0000627" id="Stroke-21" stroke="#128DC4" stroke-width="0.6336"></path>
                <path d="M21.8095579,71.241097 L89.8097684,71.241097" id="Stroke-23" stroke="#128DC4" stroke-width="0.6336"></path>
                <path d="M21.8095579,78.4821312 L89.8097684,78.4821312" id="Stroke-25" stroke="#128DC4" stroke-width="0.6336"></path>
                <path d="M21.8095579,85.7231443 L89.8097684,85.7231443" id="Stroke-27" stroke="#128DC4" stroke-width="0.6336"></path>
                <path d="M21.8095579,92.9641786 L89.8097684,92.9641786" id="Stroke-29" stroke="#128DC4" stroke-width="0.6336"></path>
            </g>
        </g>
    </g>
</svg>