<?xml version="1.0" encoding="utf-8"?>
<svg xmlns="http://www.w3.org/2000/svg" viewBox="0 0 540.39 532.11"><defs><style>.cls-1,.cls-10,.cls-2,.cls-3,.cls-4,.cls-5,.cls-6,.cls-7,.cls-8,.cls-9{fill:none;stroke-miterlimit:10;}.cls-1,.cls-10,.cls-2,.cls-3,.cls-4,.cls-5,.cls-6{stroke:#d3d3d3;}.cls-1,.cls-10,.cls-2,.cls-3,.cls-4,.cls-5,.cls-6,.cls-8,.cls-9{stroke-width:0.76px;}.cls-1{stroke-dasharray:4.54 4.54;}.cls-2{stroke-dasharray:4.55 4.55;}.cls-3{stroke-dasharray:4.59 4.59;}.cls-4{stroke-dasharray:4.54 4.54;}.cls-5{stroke-dasharray:4.62 4.62;}.cls-6{stroke-dasharray:4.63 4.63;}.cls-7,.cls-8,.cls-9{stroke:#128dc4;}.cls-7{stroke-width:0.75px;}.cls-10,.cls-8{stroke-dasharray:4.55;}.cls-11{fill:#7a2449;}</style></defs><title>procesor_1</title><g id="Warstwa_2" data-name="Warstwa 2"><g id="Warstwa_1-2" data-name="Warstwa 1"><rect class="cls-1" x="164.91" y="76.95" width="298.6" height="298.6" rx="45.79"/><rect class="cls-2" x="224.65" y="135.64" width="180.72" height="180.72" rx="23.23"/><rect class="cls-3" x="240.45" y="152.49" width="147.53" height="147.53" rx="12.41"/><rect class="cls-4" x="182.96" y="95" width="262.51" height="262.51" rx="29.63"/><path class="cls-5" d="M532.06,130.2H492.32a7.95,7.95,0,1,1,0-15.9h39.74a7.95,7.95,0,1,1,0,15.9Z"/><path class="cls-5" d="M532.06,172.1H492.32a7.95,7.95,0,1,1,0-15.9h39.74a7.95,7.95,0,1,1,0,15.9Z"/><rect class="cls-5" x="484.37" y="198.11" width="55.64" height="15.9" rx="7.95"/><path class="cls-5" d="M532.06,255.91H492.32a7.95,7.95,0,1,1,0-15.9h39.74a7.95,7.95,0,1,1,0,15.9Z"/><path class="cls-5" d="M532.06,297.82H492.32a7.95,7.95,0,0,1,0-15.9h39.74a7.95,7.95,0,1,1,0,15.9Z"/><path class="cls-5" d="M532.06,339.72H492.32a8,8,0,1,1,0-15.9h39.74a8,8,0,1,1,0,15.9Z"/><path class="cls-5" d="M136.29,130.2H96.55a7.95,7.95,0,0,1,0-15.9h39.74a8,8,0,1,1,0,15.9Z"/><path class="cls-5" d="M136.29,172.1H96.55a7.95,7.95,0,1,1,0-15.9h39.74a8,8,0,0,1,0,15.9Z"/><rect class="cls-5" x="88.6" y="198.11" width="55.64" height="15.9" rx="7.95"/><path class="cls-5" d="M136.29,255.91H96.55a7.95,7.95,0,1,1,0-15.9h39.74a7.95,7.95,0,1,1,0,15.9Z"/><path class="cls-5" d="M136.29,297.82H96.55a7.95,7.95,0,0,1,0-15.9h39.74a7.95,7.95,0,1,1,0,15.9Z"/><path class="cls-5" d="M136.29,339.72H96.55a8,8,0,1,1,0-15.9h39.74a8,8,0,0,1,0,15.9Z"/><path class="cls-5" d="M411.13,444.18V404.43a7.95,7.95,0,0,1,15.9,0v39.75a8,8,0,0,1-15.9,0Z"/><path class="cls-5" d="M369.23,444.18V404.43a7.95,7.95,0,0,1,15.9,0v39.75a8,8,0,0,1-15.9,0Z"/><path class="cls-5" d="M327.32,444.18V404.43a8,8,0,0,1,15.9,0v39.75a8,8,0,0,1-15.9,0Z"/><path class="cls-5" d="M285.42,444.18V404.43a7.95,7.95,0,0,1,15.9,0v39.75a8,8,0,0,1-15.9,0Z"/><path class="cls-5" d="M243.51,444.18V404.43a8,8,0,0,1,15.9,0v39.75a8,8,0,0,1-15.9,0Z"/><path class="cls-5" d="M201.61,444.18V404.43a7.95,7.95,0,0,1,15.9,0v39.75a8,8,0,0,1-15.9,0Z"/><path class="cls-5" d="M411.13,48.07V8.33a7.95,7.95,0,1,1,15.9,0V48.07a8,8,0,1,1-15.9,0Z"/><path class="cls-5" d="M369.23,48.07V8.33a7.95,7.95,0,1,1,15.9,0V48.07a8,8,0,1,1-15.9,0Z"/><path class="cls-5" d="M327.32,48.07V8.33a8,8,0,0,1,15.9,0V48.07a7.95,7.95,0,0,1-15.9,0Z"/><path class="cls-5" d="M285.42,48.07V8.33a7.95,7.95,0,0,1,15.9,0V48.07a8,8,0,0,1-15.9,0Z"/><path class="cls-5" d="M243.51,48.07V8.33a8,8,0,0,1,15.9,0V48.07a7.95,7.95,0,0,1-15.9,0Z"/><path class="cls-5" d="M201.61,48.07V8.33a7.95,7.95,0,1,1,15.9,0V48.07a8,8,0,1,1-15.9,0Z"/><rect class="cls-6" x="255.46" y="167.97" width="117.5" height="16.56" rx="5.19"/><rect class="cls-6" x="255.46" y="201.31" width="117.5" height="16.56" rx="5.19"/><rect class="cls-6" x="255.46" y="234.64" width="117.5" height="16.56" rx="5.19"/><rect class="cls-6" x="255.46" y="267.97" width="117.5" height="16.56" rx="5.19"/><circle class="cls-7" cx="417.4" cy="122.51" r="27.52"/><circle class="cls-8" cx="417.66" cy="123.32" r="46.64"/><circle class="cls-9" cx="211.83" cy="329.65" r="27.79"/><circle class="cls-10" cx="416.68" cy="327.54" r="16.27"/><circle class="cls-10" cx="211.07" cy="124.52" r="16.27"/><circle class="cls-8" cx="211.83" cy="329.65" r="46.64"/><line class="cls-9" x1="289.65" y1="76.95" x2="338.99" y2="76.95"/><line class="cls-9" x1="289.65" y1="95" x2="338.99" y2="95"/><line class="cls-9" x1="289.65" y1="135.64" x2="338.99" y2="135.64"/><line class="cls-9" x1="289.65" y1="152.49" x2="338.99" y2="152.49"/><line class="cls-9" x1="293.37" y1="217.86" x2="342.71" y2="217.86"/><line class="cls-9" x1="293.37" y1="234.64" x2="342.71" y2="234.64"/><line class="cls-9" x1="33.87" y1="0.38" x2="33.87" y2="446.58"/><path class="cls-11" d="M313.74,115.39a2.48,2.48,0,0,1-.68,1.8,2.2,2.2,0,0,1-1.62.69,2.36,2.36,0,0,1-1.9-.93,4.33,4.33,0,0,1-.77-2.8,6.26,6.26,0,0,1,.42-2.5,3,3,0,0,1,1.09-1.38,2.61,2.61,0,0,1,1.44-.43,2.31,2.31,0,0,1,1.09.24,2.87,2.87,0,0,1,.78.59l-.56.62a1.58,1.58,0,0,0-1.27-.61,1.79,1.79,0,0,0-1.41.72,4.23,4.23,0,0,0-.63,2.57,3,3,0,0,1,.85-.71,2,2,0,0,1,1-.26,2.18,2.18,0,0,1,1.61.6A2.44,2.44,0,0,1,313.74,115.39Zm-2.3,1.7a1.21,1.21,0,0,0,1-.47,2.16,2.16,0,0,0,0-2.43,1.3,1.3,0,0,0-1.07-.44,1.76,1.76,0,0,0-.82.24,2.56,2.56,0,0,0-.8.78C309.87,116.32,310.44,117.09,311.44,117.09Z"/><path class="cls-11" d="M314.41,117.73l2.31-4.11-2.16-3.85h1.12l1.08,2c.11.18.21.35.3.53l.32.62h.05l.3-.62c.08-.18.17-.35.27-.53l1.06-2h1.06L318,113.66l2.32,4.07h-1.12L318,115.58c-.11-.19-.22-.39-.32-.6l-.36-.67h-.05c-.11.24-.22.47-.33.67l-.3.6-1.16,2.15Z"/><path class="cls-11" d="M308.67,89.22v-.59c1.17-1.16,2.07-2.12,2.7-2.89a3.43,3.43,0,0,0,.95-2.08,1.57,1.57,0,0,0-.37-1.09,1.35,1.35,0,0,0-1.1-.43,1.52,1.52,0,0,0-.9.28,3.36,3.36,0,0,0-.75.66l-.57-.57a4.57,4.57,0,0,1,1-.85,2.46,2.46,0,0,1,1.3-.33,2.31,2.31,0,0,1,1.7.62,2.27,2.27,0,0,1,.62,1.66,3.71,3.71,0,0,1-.89,2.24c-.6.76-1.35,1.62-2.27,2.58l.66-.05.64,0h2.25v.86Z"/><path class="cls-11" d="M314.41,89.22l2.31-4.12-2.16-3.84h1.12l1.08,2a5.54,5.54,0,0,1,.3.53l.32.62h.05c.11-.24.21-.44.3-.62a5.28,5.28,0,0,1,.27-.53l1.06-2h1.06L318,85.15l2.32,4.07h-1.12L318,87.07c-.11-.19-.22-.39-.32-.6l-.36-.67h-.05c-.11.24-.22.46-.33.67l-.3.6-1.16,2.15Z"/><line class="cls-9" x1="93.22" y1="324.05" x2="138.11" y2="324.05"/><line class="cls-9" x1="93.22" y1="339.5" x2="138.11" y2="339.5"/><path class="cls-11" d="M109,336v-.59c1.16-1.16,2.06-2.12,2.69-2.89a3.43,3.43,0,0,0,1-2.08,1.58,1.58,0,0,0-.37-1.09,1.38,1.38,0,0,0-1.1-.43,1.57,1.57,0,0,0-.9.28,3.86,3.86,0,0,0-.75.66l-.57-.57a4.57,4.57,0,0,1,1-.85,2.46,2.46,0,0,1,1.3-.33,2.27,2.27,0,0,1,1.7.63,2.23,2.23,0,0,1,.62,1.65,3.69,3.69,0,0,1-.89,2.24c-.6.76-1.35,1.62-2.27,2.58l.66,0,.64,0H114V336Z"/><path class="cls-11" d="M114.77,336l2.32-4.11L114.92,328H116l1.08,2a5.54,5.54,0,0,1,.3.53l.32.62h.05l.3-.62a5.28,5.28,0,0,1,.27-.53l1.06-2h1.07l-2.18,3.89,2.32,4.07h-1.12l-1.16-2.15c-.11-.19-.21-.39-.32-.6l-.36-.67h0c-.11.24-.22.47-.33.67s-.2.41-.3.6L115.84,336Z"/><path class="cls-11" d="M308.67,147.64v-.59q1.75-1.74,2.7-2.88a3.45,3.45,0,0,0,.95-2.09A1.58,1.58,0,0,0,312,141a1.37,1.37,0,0,0-1.1-.42,1.59,1.59,0,0,0-.9.27,3.36,3.36,0,0,0-.75.66l-.57-.57a4.57,4.57,0,0,1,1-.85,2.46,2.46,0,0,1,1.3-.33,2.27,2.27,0,0,1,1.7.63,2.25,2.25,0,0,1,.62,1.65,3.69,3.69,0,0,1-.89,2.24c-.6.76-1.35,1.62-2.27,2.59l.66-.05.64,0h2.25v.86Z"/><path class="cls-11" d="M314.41,147.64l2.31-4.11-2.16-3.85h1.12l1.08,2c.11.18.21.36.3.53l.32.62h.05l.3-.62c.08-.17.17-.35.27-.53l1.06-2h1.06l-2.17,3.9,2.32,4.06h-1.12L318,145.5c-.11-.2-.22-.4-.32-.61l-.36-.67h-.05c-.11.24-.22.47-.33.67s-.21.41-.3.61l-1.16,2.14Z"/><line class="cls-9" x1="482.12" y1="105.53" x2="538.9" y2="105.53"/><path class="cls-11" d="M308.67,230.73v-.6q1.75-1.74,2.7-2.88a3.45,3.45,0,0,0,.95-2.08,1.61,1.61,0,0,0-.37-1.1,1.37,1.37,0,0,0-1.1-.42,1.59,1.59,0,0,0-.9.27,3.36,3.36,0,0,0-.75.66l-.57-.57a4.57,4.57,0,0,1,1-.85,2.46,2.46,0,0,1,1.3-.33,2.15,2.15,0,0,1,2.32,2.29,3.66,3.66,0,0,1-.89,2.23c-.6.76-1.35,1.62-2.27,2.59l.66-.05.64,0h2.25v.87Z"/><path class="cls-11" d="M314.41,230.73l2.31-4.12-2.16-3.85h1.12l1.08,2q.17.27.3.54l.32.61h.05c.11-.23.21-.44.3-.61s.17-.36.27-.54l1.06-2h1.06l-2.17,3.9,2.32,4.07h-1.12L318,228.58c-.11-.2-.22-.4-.32-.6l-.36-.68h-.05c-.11.25-.22.47-.33.68s-.21.4-.3.6l-1.16,2.15Z"/><line class="cls-9" x1="4.72" y1="76.95" x2="4.72" y2="375.55"/><rect x="498.53" y="103.02" width="24.54" height="4.63"/><path class="cls-11" d="M504.86,108.58V108c1.17-1.15,2.07-2.12,2.7-2.88a3.43,3.43,0,0,0,.94-2.08,1.66,1.66,0,0,0-.36-1.1,1.37,1.37,0,0,0-1.1-.42,1.59,1.59,0,0,0-.9.27,4,4,0,0,0-.76.66l-.57-.57a5.11,5.11,0,0,1,1-.85,2.62,2.62,0,0,1,1.31-.32,2.32,2.32,0,0,1,1.7.62,2.27,2.27,0,0,1,.62,1.66,3.62,3.62,0,0,1-.9,2.23c-.59.76-1.35,1.63-2.26,2.59l.65-.05c.23,0,.45,0,.65,0h2.24v.86Z"/><path class="cls-11" d="M510.59,108.58l2.32-4.12-2.16-3.85h1.12l1.08,2,.3.54.32.62h0l.29-.62c.09-.18.18-.36.28-.54l1-2h1.07l-2.17,3.9,2.32,4.07h-1.12l-1.17-2.15-.32-.6c-.11-.21-.23-.43-.35-.68h0l-.33.68c-.11.2-.21.41-.3.6l-1.16,2.15Z"/><rect x="21.13" y="224.87" width="24.54" height="4.63" transform="translate(-193.78 260.58) rotate(-90)"/><path class="cls-11" d="M34.51,230.93V232h2.14v.95H34.51v3.48h-.65l-5-3.31V232h4.81v-1.06Zm-.8,4.44v-2.43H31.46l-.74,0-.75,0v0l.55.31.54.33Z"/><path class="cls-11" d="M36.79,227.57a2,2,0,0,1-1,1.83,5.66,5.66,0,0,1-3,.66,5.49,5.49,0,0,1-3-.66,2.13,2.13,0,0,1,0-3.64,5.4,5.4,0,0,1,3-.67,5.56,5.56,0,0,1,3,.67A2,2,0,0,1,36.79,227.57Zm-.8,0a1.24,1.24,0,0,0-.77-1.09,5.45,5.45,0,0,0-2.47-.41,5.32,5.32,0,0,0-2.45.41,1.18,1.18,0,0,0,0,2.19,5.3,5.3,0,0,0,2.45.42,5.43,5.43,0,0,0,2.47-.42A1.24,1.24,0,0,0,36,227.57Z"/><path class="cls-11" d="M36.65,224.38l-4.12-2.32-3.85,2.16V223.1l2-1.08.54-.3.62-.32v-.05l-.62-.29-.54-.28-2-1.05v-1.07l3.9,2.17,4.07-2.32v1.12L34.5,220.8l-.6.32-.68.36v0l.68.33.6.31,2.15,1.15Z"/><rect x="-7.55" y="224.87" width="24.54" height="4.63" transform="translate(-222.47 231.9) rotate(-90)"/><path class="cls-11" d="M8,235.67H7.14V233.9H1.43v1.4H.79a5.37,5.37,0,0,0-.23-.92,4.25,4.25,0,0,0-.34-.71v-.77H7.14v-1.6H8Z"/><path class="cls-11" d="M8.11,227.56a2.73,2.73,0,0,1-.6,1.81A1.88,1.88,0,0,1,6,230.1a1.89,1.89,0,0,1-1.28-.46,3.43,3.43,0,0,1-.81-1h0a3.5,3.5,0,0,1-.74.75,1.69,1.69,0,0,1-1,.33,1.82,1.82,0,0,1-1.44-.63,2.33,2.33,0,0,1-.55-1.57,2.15,2.15,0,0,1,.59-1.59,2,2,0,0,1,1.48-.59,1.83,1.83,0,0,1,1.1.36,3.36,3.36,0,0,1,.77.71h0a3.79,3.79,0,0,1,.75-.94,1.82,1.82,0,0,1,1.24-.41,1.89,1.89,0,0,1,1.46.68A2.68,2.68,0,0,1,8.11,227.56ZM3.74,227a2.08,2.08,0,0,0-1.55-.81,1.47,1.47,0,0,0-1,.35,1.29,1.29,0,0,0-.4,1,1.25,1.25,0,0,0,.35.89,1.19,1.19,0,0,0,.9.36,1.16,1.16,0,0,0,1-.54A6.35,6.35,0,0,0,3.74,227Zm3.63.52A1.55,1.55,0,0,0,7,226.44,1.27,1.27,0,0,0,6,226a1.19,1.19,0,0,0-1.1.63,11.24,11.24,0,0,0-.71,1.47,3.39,3.39,0,0,0,.74.77,1.63,1.63,0,0,0,.95.31A1.34,1.34,0,0,0,7,228.72,1.75,1.75,0,0,0,7.37,227.53Z"/><path class="cls-11" d="M8,224.38l-4.11-2.32L0,224.22V223.1L2,222l.53-.3.62-.32v-.05l-.62-.29L2,220.78l-2-1.05v-1.07l3.9,2.17L8,218.51v1.12L5.82,220.8l-.61.32-.67.36v0l.67.33.61.31L8,223.31Z"/><line class="cls-9" x1="29.51" y1="0.78" x2="38.52" y2="0.78"/><line class="cls-9" x1="0.21" y1="76.95" x2="9.22" y2="76.95"/><line class="cls-9" x1="0.21" y1="375.55" x2="9.22" y2="375.55"/><line class="cls-9" x1="29.37" y1="446.58" x2="38.37" y2="446.58"/><line class="cls-9" x1="538.11" y1="496.31" x2="91.91" y2="496.31"/><line class="cls-9" x1="461.53" y1="527.61" x2="162.93" y2="527.61"/><rect x="299.03" y="493.53" width="24.54" height="4.63"/><path class="cls-11" d="M307.55,497H306.5v2.14h-.95V497h-3.48v-.65l3.31-5h1.12v4.81h1.05Zm-4.43-.8h2.43V493.9c0-.2,0-.45,0-.74s0-.54,0-.75h-.05a6,6,0,0,1-.31.55c-.11.17-.21.36-.32.54Z"/><path class="cls-11" d="M310.92,499.23a2,2,0,0,1-1.83-1,5.66,5.66,0,0,1-.66-3,5.49,5.49,0,0,1,.66-3,2.13,2.13,0,0,1,3.64,0,5.49,5.49,0,0,1,.66,3,5.66,5.66,0,0,1-.66,3A2,2,0,0,1,310.92,499.23Zm0-.8a1.22,1.22,0,0,0,1.08-.77,5.43,5.43,0,0,0,.42-2.47,5.3,5.3,0,0,0-.42-2.45,1.17,1.17,0,0,0-2.18,0,5.3,5.3,0,0,0-.42,2.45,5.43,5.43,0,0,0,.42,2.47A1.23,1.23,0,0,0,310.92,498.43Z"/><path class="cls-11" d="M314.11,499.09l2.32-4.12-2.16-3.85h1.12l1.08,2c.1.18.2.36.29.54s.2.38.32.62h.05c.12-.24.22-.44.3-.62l.27-.54,1.06-2h1.07l-2.17,3.9,2.31,4.07h-1.11l-1.17-2.15c-.1-.2-.21-.4-.32-.6l-.36-.68H317c-.11.25-.22.47-.32.68s-.21.4-.31.6l-1.15,2.15Z"/><rect x="299.03" y="525.3" width="24.54" height="4.63"/><path class="cls-11" d="M302.82,530.86V530h1.77v-5.71h-1.41v-.64a4.52,4.52,0,0,0,.93-.23,4.25,4.25,0,0,0,.71-.34h.77V530h1.6v.83Z"/><path class="cls-11" d="M310.93,531a2.77,2.77,0,0,1-1.82-.6,1.9,1.9,0,0,1-.72-1.52,1.86,1.86,0,0,1,.46-1.28,3.6,3.6,0,0,1,1-.81v0a3.5,3.5,0,0,1-.75-.74,1.68,1.68,0,0,1-.33-1,1.84,1.84,0,0,1,.63-1.45A2.32,2.32,0,0,1,311,523a2.15,2.15,0,0,1,1.59.58,2,2,0,0,1,.59,1.48,1.83,1.83,0,0,1-.36,1.1,3.37,3.37,0,0,1-.71.77V527a3.78,3.78,0,0,1,.94.76,1.77,1.77,0,0,1,.41,1.23,1.89,1.89,0,0,1-.68,1.46A2.68,2.68,0,0,1,310.93,531Zm0-.74a1.58,1.58,0,0,0,1.1-.38,1.27,1.27,0,0,0,.42-1,1.19,1.19,0,0,0-.63-1.1,11.24,11.24,0,0,0-1.47-.71,3.2,3.2,0,0,0-.77.74,1.57,1.57,0,0,0-.31.95,1.34,1.34,0,0,0,.48,1.06A1.72,1.72,0,0,0,311,530.26Zm.53-3.63a2,2,0,0,0,.81-1.55,1.43,1.43,0,0,0-.35-1,1.26,1.26,0,0,0-1-.4,1.24,1.24,0,0,0-.89.34,1.2,1.2,0,0,0-.36.91,1.18,1.18,0,0,0,.54,1A6.33,6.33,0,0,0,311.48,526.63Z"/><path class="cls-11" d="M314.11,530.86l2.32-4.12-2.16-3.85h1.12l1.08,2c.1.18.2.36.29.54s.2.38.32.62h.05c.12-.24.22-.44.3-.62l.27-.54,1.06-2h1.07l-2.17,3.9,2.31,4.07h-1.11l-1.17-2.15c-.1-.2-.21-.4-.32-.6l-.36-.68H317c-.11.25-.22.47-.32.68s-.21.4-.31.6l-1.15,2.15Z"/><line class="cls-9" x1="537.7" y1="491.95" x2="537.7" y2="500.96"/><line class="cls-9" x1="461.53" y1="523.11" x2="461.53" y2="532.11"/><line class="cls-9" x1="162.93" y1="523.11" x2="162.93" y2="532.11"/><line class="cls-9" x1="91.91" y1="491.81" x2="91.91" y2="500.81"/><line class="cls-9" x1="538.9" y1="100.83" x2="538.9" y2="109.83"/><line class="cls-9" x1="482.12" y1="100.83" x2="482.12" y2="109.83"/><line class="cls-8" x1="417.66" y1="122.56" x2="540.01" y2="122.56"/><line class="cls-8" x1="387.98" y1="227.48" x2="463.51" y2="227.48"/></g></g></svg>