<svg fill="none" stroke-linecap="square" stroke-miterlimit="10" width="645.801" height="599.614" xmlns="http://www.w3.org/2000/svg"><clipPath id="a"><path d="M0 0h1152v864H0Z"/></clipPath><g clip-path="url(#a)" transform="translate(-253.1 -132.193)"><path fill="#fff" d="M253.6 132.693h280.913v598.614H253.6z" fill-rule="evenodd"/><path stroke="#000" stroke-linejoin="round" stroke-linecap="butt" d="M253.6 132.693h280.913v598.614H253.6z"/><path fill="#000" d="M264.24 162.173v-15.266h5.766q1.516 0 2.328.14 1.11.188 1.875.72.766.53 1.219 1.484.469.938.469 2.078 0 1.938-1.25 3.297-1.235 1.344-4.47 1.344h-3.905v6.203zm2.032-8.016h3.937q1.969 0 2.781-.718.828-.735.828-2.047 0-.97-.484-1.641-.484-.687-1.281-.906-.5-.14-1.875-.14h-3.906zm11.944 8.016V151.11h1.688v1.672q.64-1.172 1.187-1.547t1.203-.375q.953 0 1.922.61l-.64 1.734q-.688-.406-1.376-.406-.609 0-1.109.375-.484.36-.687 1.016-.313 1-.313 2.187v5.797zm6.415-5.531q0-3.078 1.719-4.547 1.422-1.235 3.468-1.235 2.282 0 3.72 1.5 1.452 1.485 1.452 4.125 0 2.141-.64 3.36-.625 1.219-1.86 1.906-1.218.672-2.672.672-2.312 0-3.75-1.484-1.437-1.5-1.437-4.297zm1.937 0q0 2.125.922 3.187.922 1.047 2.328 1.047 1.407 0 2.329-1.062.921-1.063.921-3.235 0-2.047-.937-3.11-.922-1.062-2.313-1.062-1.406 0-2.328 1.063-.922 1.047-.922 3.172zm17.847 1.484 1.843.234q-.297 1.907-1.547 2.985-1.25 1.078-3.062 1.078-2.266 0-3.656-1.484-1.375-1.485-1.375-4.25 0-1.797.593-3.141.594-1.344 1.813-2.016 1.219-.672 2.64-.672 1.797 0 2.938.922 1.156.907 1.484 2.578l-1.828.282q-.265-1.11-.922-1.672-.656-.563-1.593-.563-1.422 0-2.313 1.016-.875 1.016-.875 3.203 0 2.234.844 3.25.86 1 2.234 1 1.11 0 1.844-.672t.938-2.078zm11.023.484 1.922.235q-.453 1.703-1.688 2.64-1.234.938-3.172.938-2.421 0-3.843-1.484-1.422-1.5-1.422-4.204 0-2.796 1.437-4.328 1.438-1.547 3.735-1.547 2.218 0 3.61 1.516 1.405 1.5 1.405 4.25v.5h-8.25q.11 1.813 1.032 2.781.921.969 2.312.969 1.031 0 1.75-.531.734-.547 1.172-1.735zm-6.156-3.03h6.172q-.125-1.391-.704-2.095-.906-1.078-2.328-1.078-1.297 0-2.172.86-.875.859-.968 2.312zm9.69 3.296 1.859-.297q.156 1.11.86 1.703.718.594 2 .594 1.296 0 1.921-.516.625-.53.625-1.234 0-.64-.562-1-.375-.25-1.907-.64-2.062-.516-2.859-.891-.797-.39-1.219-1.063-.406-.672-.406-1.484 0-.734.328-1.36.344-.64.938-1.062.437-.312 1.187-.531.75-.235 1.625-.235 1.297 0 2.281.375.985.375 1.454 1.016.468.64.64 1.719l-1.828.25q-.125-.86-.734-1.328-.594-.485-1.688-.485-1.281 0-1.844.422-.546.422-.546 1 0 .36.234.656.219.297.719.5.28.11 1.656.485 1.984.531 2.766.875.796.328 1.234.984.453.64.453 1.594 0 .937-.547 1.766-.547.828-1.578 1.28-1.031.454-2.328.454-2.156 0-3.297-.89-1.125-.907-1.437-2.657zm10.664 0 1.859-.297q.156 1.11.86 1.703.718.594 2 .594 1.296 0 1.921-.516.625-.53.625-1.234 0-.64-.562-1-.375-.25-1.906-.64-2.063-.516-2.86-.891-.797-.39-1.219-1.063-.406-.672-.406-1.484 0-.734.328-1.36.344-.64.938-1.062.437-.312 1.187-.531.75-.235 1.625-.235 1.297 0 2.281.375.985.375 1.454 1.016.468.64.64 1.719l-1.828.25q-.125-.86-.734-1.328-.594-.485-1.688-.485-1.281 0-1.844.422-.546.422-.546 1 0 .36.234.656.219.297.719.5.281.11 1.656.485 1.984.531 2.766.875.796.328 1.234.984.453.64.453 1.594 0 .937-.547 1.766-.547.828-1.578 1.28-1.031.454-2.328.454-2.156 0-3.297-.89-1.125-.907-1.437-2.657zm17.34 3.297V151.11h1.671v1.547q.531-.812 1.39-1.297.86-.5 1.97-.5 1.234 0 2.015.516.781.5 1.11 1.422 1.312-1.938 3.406-1.938 1.656 0 2.531.922.89.907.89 2.797v7.594H360.1v-6.969q0-1.125-.187-1.61-.188-.5-.672-.796-.469-.313-1.11-.313-1.171 0-1.937.782-.766.765-.766 2.484v6.422h-1.875v-7.188q0-1.25-.468-1.875-.453-.625-1.5-.625-.782 0-1.453.422-.672.407-.985 1.219-.297.797-.297 2.313v5.734zm25.344-3.563 1.922.235q-.453 1.703-1.688 2.64-1.234.938-3.172.938-2.421 0-3.843-1.484-1.422-1.5-1.422-4.204 0-2.796 1.437-4.328 1.438-1.547 3.735-1.547 2.218 0 3.61 1.516 1.405 1.5 1.405 4.25v.5h-8.25q.11 1.813 1.032 2.781.921.969 2.312.969 1.031 0 1.75-.531.734-.547 1.172-1.735zm-6.156-3.03h6.172q-.125-1.391-.704-2.095-.906-1.078-2.328-1.078-1.297 0-2.172.86-.875.859-.968 2.312zm10.44 6.593V151.11h1.671v1.547q.532-.812 1.391-1.297.86-.5 1.969-.5 1.234 0 2.015.516.782.5 1.11 1.422 1.312-1.938 3.406-1.938 1.656 0 2.531.922.89.907.89 2.797v7.594h-1.858v-6.969q0-1.125-.188-1.61-.187-.5-.672-.796-.469-.313-1.11-.313-1.171 0-1.937.782-.765.765-.765 2.484v6.422h-1.875v-7.188q0-1.25-.47-1.875-.452-.625-1.5-.625-.78 0-1.452.422-.672.407-.985 1.219-.296.797-.296 2.313v5.734zm17.063-5.531q0-3.078 1.719-4.547 1.422-1.235 3.468-1.235 2.282 0 3.72 1.5 1.452 1.485 1.452 4.125 0 2.141-.64 3.36-.625 1.219-1.86 1.906-1.218.672-2.672.672-2.312 0-3.75-1.484-1.437-1.5-1.437-4.297zm1.937 0q0 2.125.922 3.187.922 1.047 2.328 1.047 1.407 0 2.329-1.062.921-1.063.921-3.235 0-2.047-.937-3.11-.922-1.062-2.313-1.062-1.406 0-2.328 1.063-.922 1.047-.922 3.172zm10.612 5.53V151.11h1.688v1.672q.64-1.172 1.187-1.547t1.203-.375q.953 0 1.922.61l-.64 1.734q-.688-.406-1.376-.406-.609 0-1.109.375-.484.36-.687 1.016-.313 1-.313 2.187v5.797zm7.04 4.267-.219-1.766q.625.172 1.078.172.625 0 1-.219.375-.203.61-.578.187-.281.578-1.39.047-.157.172-.47l-4.203-11.078h2.015l2.313 6.407q.437 1.218.797 2.562.328-1.297.765-2.515l2.375-6.454h1.875l-4.218 11.25q-.672 1.829-1.047 2.516-.5.922-1.157 1.344-.64.437-1.53.437-.548 0-1.204-.218zm11.258-13.188v-2.14h2.14v2.14zm0 8.922v-2.14h2.14v2.14z"/><path fill="#d9d9d9" d="M253.6 212.739h280.913v202.614H253.6z" fill-rule="evenodd"/><path stroke="#000" stroke-linejoin="round" stroke-linecap="butt" d="M253.6 212.739h280.913v202.614H253.6z"/><path fill="#000" d="M264.287 242.22v-15.267h11.031v1.797h-9.015v4.672h8.453v1.797h-8.453v5.203h9.375v1.797zm13.945 0v-11.063h1.687v1.578q1.219-1.828 3.516-1.828 1 0 1.844.359.843.36 1.25.953.421.578.593 1.375.094.516.094 1.828v6.797h-1.875v-6.734q0-1.14-.219-1.703-.218-.579-.781-.907-.547-.343-1.297-.343-1.203 0-2.078.765-.86.75-.86 2.875v6.047zm19.08-4.048 1.844.235q-.297 1.906-1.547 2.984t-3.062 1.078q-2.266 0-3.657-1.484-1.375-1.485-1.375-4.25 0-1.797.594-3.14.594-1.345 1.813-2.017 1.218-.671 2.64-.671 1.797 0 2.938.921 1.156.907 1.484 2.579l-1.828.28q-.266-1.109-.922-1.671-.656-.563-1.594-.563-1.422 0-2.312 1.016-.875 1.016-.875 3.203 0 2.235.844 3.25.859 1 2.234 1 1.11 0 1.844-.672t.937-2.078zm3.399 4.047v-15.266h1.875v15.266zm12.004-1.36q-1.047.876-2.016 1.25-.953.36-2.063.36-1.812 0-2.796-.89-.985-.891-.985-2.282 0-.812.375-1.484.375-.672.969-1.078.594-.407 1.344-.61.562-.14 1.672-.28 2.265-.267 3.343-.642.016-.39.016-.5 0-1.14-.531-1.609-.719-.64-2.14-.64-1.329 0-1.954.468-.625.469-.938 1.64l-1.828-.25q.25-1.171.813-1.89.578-.734 1.656-1.125 1.094-.39 2.516-.39t2.297.343q.89.328 1.312.828.422.5.578 1.282.094.468.094 1.718v2.5q0 2.625.125 3.313.125.687.469 1.328h-1.953q-.297-.578-.375-1.36zm-.157-4.187q-1.015.406-3.062.703-1.156.172-1.64.375-.47.203-.735.61-.266.406-.266.89 0 .75.563 1.25.578.5 1.672.5 1.078 0 1.922-.468.843-.485 1.25-1.297.296-.64.296-1.875zm7.878 5.547-4.219-11.062h1.984l2.375 6.625q.39 1.078.703 2.234.25-.875.704-2.11l2.453-6.75h1.937l-4.187 11.063zm15.164-3.562 1.922.234q-.453 1.703-1.688 2.64-1.234.938-3.172.938-2.422 0-3.843-1.484-1.422-1.5-1.422-4.203 0-2.797 1.437-4.329 1.438-1.546 3.735-1.546 2.218 0 3.609 1.515 1.406 1.5 1.406 4.25v.5h-8.25q.11 1.813 1.031 2.781.922.97 2.313.97 1.031 0 1.75-.532.734-.547 1.172-1.734zm-6.156-3.032h6.171q-.125-1.39-.703-2.093-.906-1.079-2.328-1.079-1.297 0-2.172.86-.875.86-.968 2.312z"/><path fill="#fff" d="M253.6 514.798h280.913V672.34H253.6z" fill-rule="evenodd"/><path stroke="#000" stroke-linejoin="round" stroke-linecap="butt" d="M253.6 514.798h280.913V672.34H253.6z"/><path fill="#000" d="M274.256 529.012h2.031v8.813q0 2.312-.531 3.671-.516 1.344-1.875 2.204-1.36.843-3.563.843-2.14 0-3.515-.734-1.36-.75-1.953-2.14-.578-1.407-.578-3.844v-8.813h2.03v8.813q0 1.984.36 2.937.375.938 1.266 1.453.906.5 2.219.5 2.218 0 3.156-1 .953-1.015.953-3.89zm5.152 15.266v-11.063h1.688v1.578q1.219-1.828 3.516-1.828 1 0 1.843.36.844.359 1.25.953.422.578.594 1.375.094.515.094 1.828v6.797h-1.875v-6.735q0-1.14-.219-1.703-.219-.578-.781-.906-.547-.344-1.297-.344-1.203 0-2.078.766-.86.75-.86 2.875v6.047zm15.956-1.672.266 1.656q-.782.156-1.407.156-1.031 0-1.593-.312-.563-.328-.797-.844-.22-.531-.22-2.219v-6.375h-1.374v-1.453h1.375v-2.734l1.86-1.125v3.86h1.89v1.452h-1.89v6.47q0 .812.093 1.046.11.219.328.36.235.124.64.124.313 0 .829-.062zm1.816 1.672v-11.063h1.688v1.672q.64-1.172 1.187-1.547t1.203-.375q.953 0 1.922.61l-.64 1.734q-.688-.406-1.375-.406-.61 0-1.11.375-.484.36-.687 1.015-.313 1-.313 2.188v5.797zm14.368 0v-1.625q-1.297 1.875-3.515 1.875-.97 0-1.829-.375-.843-.375-1.265-.938-.406-.578-.563-1.39-.125-.563-.125-1.75v-6.86h1.875v6.14q0 1.47.125 1.97.172.75.735 1.171.578.422 1.422.422.843 0 1.578-.437.75-.438 1.047-1.172.312-.75.312-2.172v-5.922h1.875v11.063zm3.862-3.297 1.86-.297q.156 1.11.859 1.703.718.594 2 .594 1.297 0 1.922-.516.625-.531.625-1.234 0-.64-.563-1-.375-.25-1.906-.64-2.063-.516-2.86-.891-.796-.391-1.218-1.063-.407-.672-.407-1.484 0-.735.329-1.36.343-.64.937-1.062.438-.313 1.188-.531.75-.235 1.625-.235 1.296 0 2.28.375.985.375 1.454 1.016.469.64.64 1.719l-1.828.25q-.125-.86-.734-1.329-.594-.484-1.687-.484-1.282 0-1.844.422-.547.422-.547 1 0 .36.234.656.22.297.72.5.28.11 1.655.485 1.985.53 2.766.875.797.328 1.234.984.453.64.453 1.594 0 .937-.546 1.765-.547.828-1.579 1.282-1.03.453-2.328.453-2.156 0-3.297-.89-1.125-.907-1.437-2.657zm15.508 1.625.265 1.656q-.78.156-1.406.156-1.031 0-1.594-.312-.562-.328-.796-.844-.22-.531-.22-2.219v-6.375h-1.374v-1.453h1.375v-2.734l1.86-1.125v3.86h1.89v1.452h-1.89v6.47q0 .812.093 1.046.11.219.328.36.234.124.64.124.313 0 .829-.062zm9.41-1.89 1.922.234q-.453 1.703-1.688 2.64-1.234.938-3.172.938-2.422 0-3.843-1.485-1.422-1.5-1.422-4.203 0-2.797 1.437-4.328 1.438-1.547 3.735-1.547 2.218 0 3.609 1.516 1.406 1.5 1.406 4.25v.5h-8.25q.11 1.812 1.031 2.781.922.969 2.313.969 1.031 0 1.75-.531.734-.547 1.172-1.735zm-6.156-3.032h6.171q-.125-1.39-.703-2.094-.906-1.078-2.328-1.078-1.297 0-2.172.86-.875.859-.968 2.312zm17.611 6.594v-1.39q-1.047 1.64-3.094 1.64-1.312 0-2.421-.719-1.11-.734-1.72-2.047-.609-1.312-.609-3 0-1.656.547-3 .547-1.36 1.657-2.078 1.109-.719 2.468-.719 1 0 1.782.422.78.422 1.265 1.094v-5.469h1.875v15.266zm-5.922-5.516q0 2.125.891 3.172.906 1.047 2.125 1.047 1.219 0 2.078-1 .86-1 .86-3.063 0-2.28-.876-3.343-.875-1.063-2.156-1.063-1.25 0-2.094 1.031-.828 1.016-.828 3.22zm16.522 5.516v-11.063h1.688v1.672q.64-1.172 1.187-1.547t1.203-.375q.953 0 1.922.61l-.64 1.734q-.688-.406-1.376-.406-.609 0-1.109.375-.484.36-.687 1.015-.313 1-.313 2.188v5.797zm14.368 0v-1.625q-1.297 1.875-3.515 1.875-.97 0-1.829-.375-.843-.375-1.265-.938-.406-.578-.563-1.39-.125-.563-.125-1.75v-6.86h1.875v6.14q0 1.47.125 1.97.172.75.735 1.171.578.422 1.421.422.844 0 1.579-.437.75-.438 1.046-1.172.313-.75.313-2.172v-5.922h1.875v11.063zm4.612 0v-11.063h1.687v1.578q1.22-1.828 3.516-1.828 1 0 1.844.36.843.359 1.25.953.422.578.593 1.375.094.515.094 1.828v6.797h-1.875v-6.735q0-1.14-.219-1.703-.218-.578-.78-.906-.548-.344-1.298-.344-1.203 0-2.078.766-.86.75-.86 2.875v6.047zm15.955-1.672.266 1.656q-.781.156-1.406.156-1.032 0-1.594-.312-.563-.328-.797-.844-.219-.531-.219-2.219v-6.375h-1.375v-1.453h1.375v-2.734l1.86-1.125v3.86h1.89v1.452h-1.89v6.47q0 .812.093 1.046.11.219.328.36.235.124.641.124.313 0 .828-.062zm1.848-11.438v-2.156h1.875v2.156zm0 13.11v-11.063h1.875v11.063zm4.723 0v-11.063h1.671v1.547q.532-.812 1.391-1.297.86-.5 1.969-.5 1.234 0 2.015.516.782.5 1.11 1.422 1.312-1.938 3.406-1.938 1.656 0 2.531.922.89.906.89 2.797v7.594h-1.858v-6.969q0-1.125-.188-1.61-.187-.5-.672-.796-.469-.313-1.11-.313-1.171 0-1.937.781-.765.766-.765 2.485v6.422h-1.875v-7.188q0-1.25-.469-1.875-.453-.625-1.5-.625-.781 0-1.453.422-.672.406-.985 1.219-.296.797-.296 2.312v5.735zm25.344-3.563 1.922.235q-.453 1.703-1.687 2.64-1.235.938-3.172.938-2.422 0-3.844-1.485-1.422-1.5-1.422-4.203 0-2.797 1.438-4.328 1.437-1.547 3.734-1.547 2.219 0 3.61 1.516 1.406 1.5 1.406 4.25v.5h-8.25q.109 1.812 1.03 2.781.923.969 2.313.969 1.032 0 1.75-.531.735-.547 1.172-1.735zm-6.156-3.031h6.172q-.125-1.39-.703-2.094-.907-1.078-2.328-1.078-1.297 0-2.172.86-.875.859-.969 2.312z"/><path fill="none" d="M288.253 588.425H512.22v87.276H288.253Z"/><path fill="#000" d="m304.581 615.345-.031-1.234q-.75.75-1.516 1.078-.765.312-1.625.312-.781 0-1.344-.187-.546-.203-.906-.547-.36-.36-.531-.828-.156-.484-.156-1.031 0-1.375 1.015-2.157 1.032-.78 3.032-.78h1.89v-.798q0-.812-.515-1.297-.516-.5-1.579-.5-.78 0-1.53.188-.75.172-1.548.484v-1.437q.297-.11.657-.203.375-.11.78-.188.407-.078.86-.125.453-.062.906-.062.829 0 1.485.187.672.172 1.125.547.469.375.703.953.25.563.25 1.328v6.297zm-.172-4.156h-2.016q-.578 0-1.015.125-.422.11-.703.328-.266.219-.407.531-.125.297-.125.672 0 .266.079.516.078.234.265.422.188.187.469.297.297.109.719.109.547 0 1.25-.328.703-.344 1.484-1.063zm11.804 1.656q0 .485-.172.875-.156.375-.437.672-.281.297-.656.516-.375.203-.797.343-.422.125-.875.188-.453.062-.875.062-.922 0-1.703-.078-.782-.078-1.532-.265v-1.453q.797.234 1.594.359.797.11 1.578.11 1.14 0 1.688-.313.547-.313.547-.89 0-.235-.094-.423-.078-.203-.313-.375-.218-.187-.703-.375-.484-.203-1.312-.437-.61-.188-1.14-.422-.516-.234-.907-.547-.375-.328-.594-.75-.219-.422-.219-1.016 0-.375.172-.828.172-.453.594-.843.438-.407 1.172-.657.734-.265 1.812-.265.547 0 1.204.062.656.063 1.359.203v1.407q-.75-.172-1.422-.25-.656-.094-1.156-.094-.594 0-1 .094-.39.078-.656.25-.25.156-.36.375-.11.203-.11.453t.095.453q.109.187.359.375.266.187.719.375.468.187 1.218.406.813.234 1.36.5.562.25.906.578.36.313.5.719.156.406.156.906zm11.148-6.64-3.11 8.171q-.484 1.25-1 2.157-.515.906-1.124 1.484-.61.578-1.344.844-.734.281-1.625.281-.25 0-.437-.016-.188-.015-.422-.03v-1.438q.203.031.437.047.25.03.5.03.438 0 .813-.14.39-.125.718-.406.344-.281.657-.75.312-.453.593-1.094l-3.656-9.14h1.813l2.312 6.047.469 1.421.531-1.468 2.14-6zm2.117 0h1.422l.062 1.468q.39-.468.766-.78.375-.313.734-.5.36-.204.735-.282.375-.078.78-.078 1.407 0 2.126.843.734.829.734 2.5v5.97h-1.594V609.5q0-1.078-.406-1.578-.39-.515-1.187-.515-.282 0-.563.093-.281.079-.578.297-.297.203-.656.578-.344.36-.781.907v6.062h-1.594zM346.845 615q-.625.25-1.282.36-.64.11-1.328.11-2.172 0-3.344-1.173-1.171-1.172-1.171-3.437 0-1.078.328-1.953.343-.89.953-1.516.61-.64 1.453-.984.86-.344 1.875-.344.719 0 1.328.11.625.093 1.188.327v1.516q-.594-.312-1.22-.453-.609-.14-1.265-.14-.61 0-1.156.234-.531.234-.938.672-.406.421-.656 1.062-.234.625-.234 1.422 0 1.656.797 2.484.812.813 2.25.813.64 0 1.25-.14.609-.141 1.172-.438zm11.944 4.079h-10.25v-1.313h10.25zm9.195-8.797q0 .343-.015.578 0 .219-.032.422h-6.422q0 1.406.782 2.156.797.75 2.265.75.407 0 .797-.031.406-.031.781-.078.375-.063.72-.125.343-.078.624-.157v1.297q-.64.188-1.469.297-.812.11-1.687.11-1.172 0-2.016-.313-.843-.312-1.39-.922-.547-.61-.813-1.484-.25-.875-.25-2 0-.953.281-1.813.282-.86.813-1.515.531-.657 1.297-1.032.781-.39 1.765-.39.954 0 1.688.312.75.297 1.25.844.5.547.766 1.344.265.781.265 1.75zm-1.656-.22q.031-.608-.125-1.108-.14-.516-.453-.875-.297-.375-.75-.579-.453-.203-1.063-.203-.515 0-.953.203-.422.204-.734.563-.297.36-.5.875-.188.516-.235 1.125zm12.429 5.282h-2.11l-2.468-3.484-2.438 3.484h-2.046l3.546-4.594-3.39-4.546h2.031l2.406 3.515 2.36-3.515h1.968l-3.437 4.578zm5.132-7.828h-2.703v-1.312h4.297v7.812h2.734v1.328h-7.343v-1.328h3.015zm.547-5.156q.266 0 .485.094.234.093.406.28.172.173.265.391.094.22.094.485 0 .25-.094.484-.093.235-.265.406-.172.172-.406.266-.22.094-.485.094t-.5-.094q-.219-.094-.39-.266-.157-.171-.266-.406-.094-.234-.094-.484 0-.266.094-.485.11-.218.266-.39.171-.188.39-.281.235-.094.5-.094zm13.96 12.86q-.53.14-1.109.187-.578.062-1.172.062-1.718 0-2.562-.781-.844-.781-.844-2.39v-4.766h-2.562v-1.328h2.562v-2.516l1.578-.406v2.922h4.11v1.328h-4.11v4.64q0 .985.516 1.47.531.483 1.547.483.437 0 .953-.062.531-.063 1.094-.219zm11.68 3.859h-10.25v-1.313h10.25zm9.288-8.47q0 1.22-.343 2.141-.344.907-.954 1.516-.593.594-1.421.89-.813.298-1.766.298-.438 0-.875-.047-.438-.047-.875-.157v3.829h-1.594v-12.875h1.422l.094 1.53q.687-.937 1.453-1.312.781-.39 1.687-.39.782 0 1.375.328.594.328.985.937.406.594.61 1.438.202.828.202 1.875zm-1.625.063q0-.718-.11-1.312-.108-.61-.343-1.031-.219-.422-.578-.657-.344-.25-.844-.25-.297 0-.61.094-.312.094-.64.328-.328.219-.703.594-.36.36-.781.906v4.438q.437.172.922.28.484.11.937.11 1.282 0 2.016-.875t.734-2.625zm12.023.032q0 1.062-.312 1.953-.297.89-.86 1.53-.562.626-1.375.97-.812.343-1.843.343-.985 0-1.766-.296-.766-.313-1.313-.891-.546-.594-.828-1.469-.28-.875-.28-2.015 0-1.063.296-1.938.297-.89.86-1.516.562-.64 1.374-.984.813-.36 1.844-.36.984 0 1.766.313.781.297 1.312.89.547.579.828 1.454.297.875.297 2.016zm-1.625.062q0-.844-.187-1.469-.188-.64-.532-1.062-.343-.422-.843-.64-.5-.22-1.11-.22-.703 0-1.218.282-.5.28-.829.75-.312.453-.468 1.078-.157.61-.157 1.281 0 .86.188 1.5.187.625.531 1.047.36.422.844.64.5.22 1.11.22.718 0 1.218-.282.5-.281.828-.734.328-.47.469-1.078.156-.625.156-1.313zm7.039-3.25h-2.703v-1.312h4.297v7.812h2.734v1.328h-7.344v-1.328h3.016zm.547-5.156q.265 0 .484.093.234.094.406.282.172.172.266.39.094.22.094.485 0 .25-.094.484-.094.234-.266.406-.172.172-.406.266-.219.094-.484.094-.266 0-.5-.094-.22-.094-.391-.266-.156-.172-.266-.406-.093-.234-.093-.484 0-.266.093-.485.11-.218.266-.39.172-.188.39-.282.235-.093.5-.093zm6.585 3.844h1.422l.062 1.468q.391-.468.766-.781.375-.312.734-.5.36-.203.735-.281.375-.078.781-.078 1.406 0 2.125.843.734.829.734 2.5v5.97h-1.593V609.5q0-1.078-.407-1.578-.39-.515-1.187-.515-.281 0-.563.093-.28.078-.578.297-.297.203-.656.578-.344.36-.781.907v6.062h-1.594zm17.632 9.015q-.53.14-1.109.188-.578.062-1.172.062-1.719 0-2.562-.781-.844-.781-.844-2.39v-4.766h-2.563v-1.328h2.563v-2.516l1.578-.406v2.922h4.11v1.328h-4.11v4.64q0 .985.516 1.469.53.484 1.546.484.438 0 .954-.062.53-.063 1.093-.219zm10.617-4.937q0 .343-.016.578 0 .219-.03.422h-6.423q0 1.406.782 2.156.796.75 2.265.75.406 0 .797-.031.406-.032.781-.078.375-.063.72-.125.343-.079.624-.157v1.297q-.64.188-1.469.297-.812.11-1.687.11-1.172 0-2.016-.313-.844-.313-1.39-.922-.547-.61-.813-1.484-.25-.875-.25-2 0-.953.281-1.813.282-.86.813-1.515.531-.657 1.297-1.032.781-.39 1.765-.39.953 0 1.688.312.75.297 1.25.844.5.547.765 1.344.266.781.266 1.75zm-1.656-.22q.031-.608-.125-1.108-.14-.516-.453-.875-.297-.375-.75-.579-.453-.203-1.063-.203-.515 0-.953.203-.422.204-.734.563-.297.36-.5.875-.188.516-.235 1.125zm4.554-3.858h1.453l.047 1.687q.812-.984 1.594-1.422.797-.437 1.593-.437 1.422 0 2.157.922.734.921.672 2.734h-1.594q.015-1.203-.36-1.734-.375-.547-1.109-.547-.312 0-.64.109-.329.11-.672.36-.329.25-.72.64-.374.39-.812.953v5.875h-1.609zm13.554-.172q.281 0 .531.125.266.109.454.297.187.187.296.453.125.25.125.53 0 .298-.125.548-.109.25-.296.437-.188.188-.454.297-.25.11-.53.11-.282 0-.532-.11-.25-.11-.453-.297-.188-.187-.297-.437-.11-.25-.11-.547 0-.281.11-.531.11-.266.297-.453.203-.188.453-.297.25-.125.531-.125zm0 6.687q.281 0 .531.11.266.109.454.312.187.188.296.438.125.25.125.53 0 .298-.125.548-.109.25-.296.453-.188.187-.454.281-.25.11-.53.11-.282 0-.532-.11-.25-.094-.453-.281-.188-.203-.297-.453-.11-.25-.11-.547 0-.281.11-.531t.297-.438q.203-.203.453-.312.25-.11.531-.11zM343.344 634.87q.297 0 .579.125.28.125.484.328.203.203.313.485.124.28.124.593 0 .313-.125.594-.109.266-.312.469-.203.203-.484.312-.282.125-.579.125-.328 0-.609-.125-.266-.109-.469-.312-.203-.203-.328-.469-.11-.281-.11-.594 0-.312.11-.593.125-.282.328-.485t.47-.328q.28-.125.609-.125zm10.258 0q.297 0 .578.125.281.125.484.328.203.203.313.485.125.28.125.593 0 .313-.125.594-.11.266-.313.469-.203.203-.484.312-.281.125-.578.125-.328 0-.61-.125-.265-.109-.468-.312t-.328-.469q-.11-.281-.11-.594 0-.312.11-.593.125-.282.328-.485t.468-.328q.282-.125.61-.125zm10.257 0q.297 0 .578.125.281.125.485.328.203.203.312.485.125.28.125.593 0 .313-.125.594-.11.266-.312.469-.204.203-.485.312-.281.125-.578.125-.328 0-.61-.125-.265-.109-.468-.312t-.328-.469q-.11-.281-.11-.594 0-.312.11-.593.125-.282.328-.485t.469-.328q.281-.125.61-.125z"/><path fill="none" d="M392.218 278.846h80.44v87.275h-80.44z"/><path fill="#000" d="M409.78 305.422q-.625.25-1.28.36-.641.109-1.329.109-2.172 0-3.344-1.172-1.172-1.172-1.172-3.438 0-1.078.329-1.953.343-.89.953-1.516.61-.64 1.453-.984.86-.344 1.875-.344.719 0 1.328.11.625.093 1.187.328v1.515q-.593-.312-1.218-.453-.61-.14-1.266-.14-.61 0-1.156.234-.531.234-.938.672-.406.422-.656 1.062-.234.625-.234 1.422 0 1.657.797 2.485.812.812 2.25.812.64 0 1.25-.14.609-.141 1.171-.438zm11.117-4.297q0 1.062-.312 1.953-.297.89-.86 1.531-.562.625-1.375.97-.812.343-1.844.343-.984 0-1.765-.297-.766-.313-1.313-.89-.547-.594-.828-1.47-.281-.874-.281-2.015 0-1.063.297-1.938.297-.89.86-1.515.562-.64 1.374-.985.813-.359 1.844-.359.984 0 1.766.313.78.296 1.312.89.547.578.828 1.453.297.875.297 2.016zm-1.625.062q0-.843-.187-1.468-.188-.64-.532-1.063-.343-.422-.843-.64-.5-.22-1.11-.22-.703 0-1.219.282-.5.281-.828.75-.312.453-.468 1.078-.157.61-.157 1.281 0 .86.188 1.5.187.625.531 1.047.36.422.844.64.5.22 1.11.22.718 0 1.218-.282.5-.28.828-.734.328-.469.469-1.078.156-.625.156-1.313zm3.46.204q0-1.172.313-2.079.313-.906.906-1.53.594-.626 1.407-.938.828-.328 1.843-.328.438 0 .86.062.422.047.828.156v-3.843h1.594v12.875h-1.422l-.047-1.735q-.672.969-1.453 1.438-.766.453-1.672.453-.782 0-1.375-.313-.594-.328-1-.922-.39-.609-.594-1.437-.188-.844-.188-1.86zm1.61-.11q0 1.656.484 2.485.5.812 1.39.812.595 0 1.267-.531.671-.547 1.406-1.61v-4.234q-.39-.187-.86-.281-.468-.094-.937-.094-1.297 0-2.031.844-.72.828-.72 2.61zm16.835-.578q0 .344-.015.578 0 .219-.031.422h-6.422q0 1.406.78 2.156.798.75 2.267.75.406 0 .796-.03.407-.032.782-.079.375-.063.718-.125.344-.078.625-.156v1.297q-.64.187-1.468.296-.813.11-1.688.11-1.172 0-2.015-.313-.844-.312-1.391-.921-.547-.61-.813-1.485-.25-.875-.25-2 0-.953.282-1.812.28-.86.812-1.516.531-.656 1.297-1.031.781-.39 1.766-.39.953 0 1.687.312.75.296 1.25.843.5.547.766 1.344.265.781.265 1.75zm-1.656-.219q.031-.61-.125-1.11-.14-.515-.453-.874-.297-.375-.75-.578-.453-.203-1.063-.203-.515 0-.953.203-.422.203-.734.562-.297.36-.5.875-.188.516-.234 1.125zM409.78 327.822q-.625.25-1.28.36-.641.109-1.329.109-2.172 0-3.344-1.172-1.172-1.172-1.172-3.438 0-1.078.329-1.953.343-.89.953-1.516.61-.64 1.453-.984.86-.344 1.875-.344.719 0 1.328.11.625.093 1.187.328v1.515q-.593-.312-1.218-.453-.61-.14-1.266-.14-.61 0-1.156.234-.531.234-.938.672-.406.422-.656 1.062-.234.625-.234 1.422 0 1.657.797 2.485.812.812 2.25.812.64 0 1.25-.14.609-.141 1.171-.438zm11.117-4.297q0 1.062-.312 1.953-.297.89-.86 1.531-.562.625-1.375.969-.812.344-1.844.344-.984 0-1.765-.297-.766-.313-1.313-.89-.547-.594-.828-1.47-.281-.874-.281-2.015 0-1.063.297-1.938.297-.89.86-1.515.562-.64 1.374-.985.813-.359 1.844-.359.984 0 1.766.313.78.296 1.312.89.547.578.828 1.453.297.875.297 2.016zm-1.625.062q0-.843-.187-1.468-.188-.641-.532-1.063-.343-.422-.843-.64-.5-.22-1.11-.22-.703 0-1.219.282-.5.281-.828.75-.312.453-.468 1.078-.157.61-.157 1.281 0 .86.188 1.5.187.625.531 1.047.36.422.844.64.5.22 1.11.22.718 0 1.218-.282.5-.28.828-.734.328-.469.469-1.078.156-.625.156-1.313zm3.46.204q0-1.172.313-2.079.313-.906.906-1.53.594-.626 1.407-.938.828-.328 1.843-.328.438 0 .86.062.422.047.828.156v-3.843h1.594v12.875h-1.422l-.047-1.735q-.672.969-1.453 1.438-.766.453-1.672.453-.782 0-1.375-.313-.594-.328-1-.922-.39-.609-.594-1.437-.188-.844-.188-1.86zm1.61-.11q0 1.656.484 2.485.5.812 1.39.812.595 0 1.267-.531.671-.547 1.406-1.61v-4.234q-.39-.187-.86-.281-.468-.094-.937-.094-1.297 0-2.031.844-.72.828-.72 2.61zm16.835-.578q0 .344-.015.578 0 .219-.031.422h-6.422q0 1.406.78 2.156.798.75 2.267.75.406 0 .796-.03.407-.032.782-.079.375-.063.718-.125.344-.078.625-.156v1.297q-.64.187-1.468.296-.813.11-1.688.11-1.172 0-2.015-.313-.844-.312-1.391-.922-.547-.609-.813-1.484-.25-.875-.25-2 0-.953.282-1.812.28-.86.812-1.516.531-.656 1.297-1.031.781-.39 1.766-.39.953 0 1.687.312.75.296 1.25.843.5.547.766 1.344.265.781.265 1.75zm-1.656-.219q.031-.61-.125-1.11-.14-.515-.453-.874-.297-.375-.75-.578-.453-.203-1.063-.203-.515 0-.953.203-.422.203-.734.562-.297.36-.5.875-.188.516-.234 1.125zM409.78 350.222q-.625.25-1.28.36-.641.109-1.329.109-2.172 0-3.344-1.172-1.172-1.172-1.172-3.438 0-1.078.329-1.953.343-.89.953-1.516.61-.64 1.453-.984.86-.344 1.875-.344.719 0 1.328.11.625.093 1.187.328v1.515q-.593-.312-1.218-.453-.61-.14-1.266-.14-.61 0-1.156.234-.531.234-.938.672-.406.422-.656 1.062-.234.625-.234 1.422 0 1.657.797 2.485.812.812 2.25.812.64 0 1.25-.14.609-.141 1.171-.438zm11.117-4.297q0 1.062-.312 1.953-.297.89-.86 1.531-.562.625-1.375.97-.812.343-1.844.343-.984 0-1.765-.297-.766-.313-1.313-.89-.547-.594-.828-1.47-.281-.874-.281-2.015 0-1.063.297-1.938.297-.89.86-1.515.562-.64 1.374-.985.813-.359 1.844-.359.984 0 1.766.313.78.296 1.312.89.547.578.828 1.453.297.875.297 2.016zm-1.625.062q0-.843-.187-1.468-.188-.64-.532-1.063-.343-.422-.843-.64-.5-.22-1.11-.22-.703 0-1.219.282-.5.281-.828.75-.312.453-.468 1.078-.157.61-.157 1.281 0 .86.188 1.5.187.625.531 1.047.36.422.844.641.5.219 1.11.219.718 0 1.218-.282.5-.28.828-.734.328-.469.469-1.078.156-.625.156-1.313zm3.46.204q0-1.172.313-2.079.313-.906.906-1.53.594-.626 1.407-.938.828-.328 1.843-.328.438 0 .86.062.422.047.828.156v-3.843h1.594v12.875h-1.422l-.047-1.735q-.672.969-1.453 1.438-.766.453-1.672.453-.782 0-1.375-.313-.594-.328-1-.922-.39-.609-.594-1.437-.188-.844-.188-1.86zm1.61-.11q0 1.656.484 2.485.5.812 1.39.812.595 0 1.267-.531.671-.547 1.406-1.61v-4.234q-.39-.187-.86-.281-.468-.094-.937-.094-1.297 0-2.031.844-.72.828-.72 2.61zm16.835-.578q0 .344-.015.578 0 .219-.031.422h-6.422q0 1.406.78 2.156.798.75 2.267.75.406 0 .796-.03.407-.032.782-.079.375-.062.718-.125.344-.078.625-.156v1.297q-.64.187-1.468.297-.813.109-1.688.109-1.172 0-2.015-.313-.844-.312-1.391-.921-.547-.61-.813-1.485-.25-.875-.25-2 0-.953.282-1.812.28-.86.812-1.516.531-.656 1.297-1.031.781-.39 1.766-.39.953 0 1.687.312.75.297 1.25.843.5.547.766 1.344.265.781.265 1.75zm-1.656-.219q.031-.609-.125-1.109-.14-.516-.453-.875-.297-.375-.75-.578-.453-.203-1.063-.203-.515 0-.953.203-.422.203-.734.562-.297.36-.5.875-.188.516-.234 1.125z"/><path fill="none" d="M503.148 606.126c14.308-9.435 74.222-14.564 85.848-56.612 11.626-42.047 5.245-158.11-16.092-195.671-21.337-37.561-93.276-24.745-111.932-29.693"/><path stroke="#000" stroke-linejoin="round" stroke-linecap="butt" stroke-dasharray="4, 3" d="m508.524 603.46.297-.119a69.519 69.519 0 0 1 1.647-.632c3.03-1.125 6.59-2.264 10.495-3.496 7.81-2.465 17.005-5.304 26.115-9.163 18.22-7.718 36.105-19.512 41.918-40.536 11.626-42.047 5.245-158.11-16.092-195.671-21.337-37.561-93.276-24.745-111.932-29.693"/><path fill="#000" stroke="#000" stroke-linecap="butt" d="m507.79 601.981-3.332 3.496 4.8-.536z" fill-rule="evenodd"/><path fill="#fff" d="m546.579 609.864 49.338-49.34v24.67H898.39v49.339H595.917v24.67z" fill-rule="evenodd"/><path stroke="#000" stroke-linejoin="round" stroke-linecap="butt" d="m546.579 609.864 49.338-49.34v24.67H898.39v49.339H595.917v24.67z"/><path fill="#000" d="M582.186 617.343v-2.14h2.14v2.14zm5.925 0v-2.14h2.14v2.14zm5.926 0v-2.14h2.14v2.14zm7.129 0h-1.75v-15.265h1.875v5.437q1.187-1.484 3.03-1.484 1.032 0 1.938.422.907.406 1.5 1.156.594.734.922 1.797.328 1.047.328 2.234 0 2.844-1.406 4.407-1.406 1.546-3.375 1.546-1.953 0-3.062-1.64zm-.032-5.609q0 1.984.547 2.875.89 1.438 2.39 1.438 1.235 0 2.126-1.063.906-1.062.906-3.187 0-2.157-.86-3.188-.859-1.031-2.077-1.031-1.235 0-2.141 1.062-.89 1.063-.89 3.094zm17.409 5.61v-1.626q-1.297 1.875-3.516 1.875-.968 0-1.828-.375-.844-.375-1.265-.937-.407-.578-.563-1.39-.125-.563-.125-1.75v-6.86h1.875v6.14q0 1.47.125 1.97.172.75.734 1.171.579.422 1.422.422.844 0 1.578-.437.75-.438 1.047-1.172.313-.75.313-2.172v-5.922h1.875v11.063zm8.705-1.672.266 1.656q-.781.156-1.406.156-1.032 0-1.594-.312-.563-.329-.797-.844-.219-.531-.219-2.219v-6.375h-1.375v-1.453h1.375v-2.734l1.86-1.125v3.859h1.89v1.453h-1.89v6.469q0 .812.093 1.047.11.218.329.36.234.124.64.124.313 0 .828-.062zm9.805 1.671-3.39-11.062h1.937l1.765 6.39.657 2.376q.03-.188.562-2.282l1.766-6.484h1.922l1.656 6.422.547 2.11.64-2.141 1.89-6.391h1.83l-3.454 11.063h-1.953l-1.75-6.626-.438-1.89-2.234 8.515zm20.934-3.562 1.921.234q-.453 1.703-1.687 2.641t-3.172.938q-2.422 0-3.844-1.485-1.422-1.5-1.422-4.203 0-2.797 1.438-4.328 1.437-1.547 3.734-1.547 2.219 0 3.61 1.516 1.406 1.5 1.406 4.25v.5h-8.25q.11 1.812 1.031 2.78.922.97 2.313.97 1.03 0 1.75-.532.734-.547 1.172-1.734zm-6.157-3.031h6.172q-.125-1.39-.703-2.094-.906-1.078-2.328-1.078-1.297 0-2.172.86-.875.859-.969 2.312zm15.616 3.297 1.86-.297q.155 1.11.858 1.703.72.594 2 .594 1.297 0 1.922-.516.625-.531.625-1.234 0-.641-.562-1-.375-.25-1.906-.641-2.063-.516-2.86-.89-.797-.391-1.219-1.063-.406-.672-.406-1.485 0-.734.328-1.359.344-.64.938-1.062.437-.313 1.187-.532.75-.234 1.625-.234 1.297 0 2.282.375.984.375 1.453 1.016.468.64.64 1.718l-1.828.25q-.125-.859-.734-1.328-.594-.484-1.688-.484-1.28 0-1.843.422-.547.422-.547 1 0 .36.234.656.219.297.719.5.281.11 1.656.484 1.984.532 2.766.875.797.328 1.234.985.453.64.453 1.593 0 .938-.547 1.766-.547.828-1.578 1.281-1.031.453-2.328.453-2.156 0-3.297-.89-1.125-.906-1.437-2.656zm18.992-.266 1.922.234q-.453 1.703-1.688 2.641-1.234.938-3.172.938-2.421 0-3.843-1.485-1.422-1.5-1.422-4.203 0-2.797 1.437-4.328 1.438-1.547 3.735-1.547 2.218 0 3.61 1.516 1.405 1.5 1.405 4.25v.5h-8.25q.11 1.812 1.032 2.78.921.97 2.312.97 1.031 0 1.75-.532.734-.547 1.172-1.734zm-6.156-3.031h6.172q-.125-1.39-.704-2.094-.906-1.078-2.328-1.078-1.297 0-2.172.86-.875.859-.968 2.312zm18.018 3.031 1.922.234q-.454 1.703-1.688 2.641t-3.172.938q-2.422 0-3.844-1.485-1.421-1.5-1.421-4.203 0-2.797 1.437-4.328 1.438-1.547 3.734-1.547 2.22 0 3.61 1.516 1.406 1.5 1.406 4.25v.5h-8.25q.11 1.812 1.031 2.78.922.97 2.313.97 1.031 0 1.75-.532.734-.547 1.172-1.734zm-6.157-3.031h6.172q-.125-1.39-.703-2.094-.906-1.078-2.328-1.078-1.297 0-2.172.86-.875.859-.969 2.312zm20.46 4.922.265 1.656q-.781.156-1.406.156-1.031 0-1.594-.312-.562-.329-.797-.844-.218-.531-.218-2.219v-6.375h-1.375v-1.453h1.375v-2.734l1.859-1.125v3.859h1.89v1.453h-1.89v6.469q0 .812.094 1.047.11.218.328.36.234.124.64.124.313 0 .829-.062zm1.832 1.671v-15.265h1.875v5.469q1.312-1.516 3.312-1.516 1.234 0 2.14.484.907.485 1.298 1.344.39.844.39 2.469v7.015h-1.875v-7.015q0-1.406-.61-2.047-.609-.64-1.734-.64-.828 0-1.562.437-.734.437-1.047 1.172-.312.734-.312 2.047v6.046zm19.44-3.562 1.921.234q-.453 1.703-1.687 2.641-1.235.938-3.172.938-2.422 0-3.844-1.485-1.422-1.5-1.422-4.203 0-2.797 1.438-4.328 1.437-1.547 3.734-1.547 2.219 0 3.61 1.516 1.406 1.5 1.406 4.25v.5h-8.25q.11 1.812 1.031 2.78.922.97 2.312.97 1.032 0 1.75-.532.735-.547 1.172-1.734zm-6.157-3.031h6.172q-.125-1.39-.703-2.094-.906-1.078-2.328-1.078-1.297 0-2.172.86-.875.859-.969 2.312zm16.366 10.828V606.28h1.703v1.438q.609-.844 1.359-1.266.766-.422 1.86-.422 1.406 0 2.484.734 1.094.72 1.64 2.047.547 1.328.547 2.922 0 1.688-.61 3.047-.593 1.36-1.765 2.094-1.156.718-2.437.718-.938 0-1.688-.39-.734-.406-1.218-1v5.375zm1.703-9.703q0 2.14.859 3.156.86 1.016 2.094 1.016 1.25 0 2.14-1.047.891-1.063.891-3.282 0-2.109-.875-3.156-.86-1.062-2.078-1.062-1.188 0-2.11 1.125-.921 1.11-.921 3.25zm10.143 5.468v-11.062h1.687v1.672q.64-1.172 1.188-1.547.546-.375 1.203-.375.953 0 1.922.61l-.641 1.734q-.688-.407-1.375-.407-.61 0-1.11.375-.484.36-.687 1.016-.312 1-.312 2.188v5.796zm6.415-5.53q0-3.079 1.718-4.548 1.422-1.234 3.47-1.234 2.28 0 3.718 1.5 1.453 1.484 1.453 4.125 0 2.14-.64 3.36-.626 1.218-1.86 1.906-1.219.671-2.672.671-2.312 0-3.75-1.484-1.437-1.5-1.437-4.297zm1.937 0q0 2.124.922 3.187.922 1.047 2.328 1.047 1.406 0 2.328-1.063.922-1.062.922-3.234 0-2.047-.937-3.11-.922-1.062-2.313-1.062-1.406 0-2.328 1.062-.922 1.047-.922 3.172zm17.846 1.484 1.844.234q-.297 1.906-1.547 2.984t-3.063 1.078q-2.265 0-3.656-1.484-1.375-1.484-1.375-4.25 0-1.797.594-3.14.594-1.344 1.812-2.016 1.22-.672 2.641-.672 1.797 0 2.938.922 1.156.906 1.484 2.578l-1.828.281q-.266-1.11-.922-1.672-.656-.562-1.594-.562-1.422 0-2.312 1.015-.875 1.016-.875 3.204 0 2.234.843 3.25.86 1 2.235 1 1.11 0 1.844-.672t.937-2.078zm11.024.484 1.921.234q-.453 1.703-1.687 2.641t-3.172.938q-2.422 0-3.844-1.485-1.422-1.5-1.422-4.203 0-2.797 1.438-4.328 1.437-1.547 3.734-1.547 2.22 0 3.61 1.516 1.406 1.5 1.406 4.25v.5h-8.25q.11 1.812 1.031 2.78.922.97 2.313.97 1.03 0 1.75-.532.734-.547 1.172-1.734zm-6.157-3.031h6.172q-.125-1.39-.703-2.094-.906-1.078-2.328-1.078-1.297 0-2.172.86-.875.859-.969 2.312zm9.69 3.297 1.86-.297q.156 1.11.859 1.703.719.594 2 .594 1.297 0 1.922-.516.625-.531.625-1.234 0-.641-.563-1-.375-.25-1.906-.641-2.062-.516-2.86-.89-.796-.391-1.218-1.063-.406-.672-.406-1.485 0-.734.328-1.359.344-.64.937-1.062.438-.313 1.188-.532.75-.234 1.625-.234 1.297 0 2.281.375.984.375 1.453 1.016.469.64.64 1.718l-1.827.25q-.125-.859-.735-1.328-.593-.484-1.687-.484-1.281 0-1.844.422-.547.422-.547 1 0 .36.235.656.218.297.718.5.282.11 1.657.484 1.984.532 2.765.875.797.328 1.235.985.453.64.453 1.593 0 .938-.547 1.766-.547.828-1.578 1.281-1.032.453-2.328.453-2.157 0-3.297-.89-1.125-.906-1.438-2.656zm10.664 0 1.86-.297q.156 1.11.859 1.703.719.594 2 .594 1.297 0 1.922-.516.625-.531.625-1.234 0-.641-.563-1-.375-.25-1.906-.641-2.062-.516-2.86-.89-.796-.391-1.218-1.063-.406-.672-.406-1.485 0-.734.328-1.359.344-.64.937-1.062.438-.313 1.188-.532.75-.234 1.625-.234 1.297 0 2.281.375.984.375 1.453 1.016.469.64.64 1.718l-1.827.25q-.125-.859-.735-1.328-.593-.484-1.687-.484-1.281 0-1.844.422-.547.422-.547 1 0 .36.235.656.218.297.718.5.282.11 1.657.484 1.984.532 2.765.875.797.328 1.235.985.453.64.453 1.593 0 .938-.547 1.766-.547.828-1.578 1.281-1.032.453-2.328.453-2.157 0-3.297-.89-1.125-.906-1.438-2.656zm17.34 3.296v-15.265h1.875v5.469q1.312-1.516 3.312-1.516 1.235 0 2.141.484.906.485 1.297 1.344.39.844.39 2.469v7.015h-1.875v-7.015q0-1.406-.609-2.047-.61-.64-1.734-.64-.828 0-1.563.437-.734.437-1.047 1.172-.312.734-.312 2.047v6.046zm19.44-3.562 1.922.234q-.454 1.703-1.688 2.641t-3.172.938q-2.422 0-3.844-1.485-1.421-1.5-1.421-4.203 0-2.797 1.437-4.328 1.438-1.547 3.734-1.547 2.22 0 3.61 1.516 1.406 1.5 1.406 4.25v.5h-8.25q.11 1.812 1.031 2.78.922.97 2.313.97 1.031 0 1.75-.532.734-.547 1.172-1.734zm-6.157-3.031h6.172q-.125-1.39-.703-2.094-.906-1.078-2.328-1.078-1.297 0-2.172.86-.875.859-.969 2.312zm10.425 6.593v-11.062h1.687v1.672q.64-1.172 1.188-1.547.546-.375 1.203-.375.953 0 1.922.61l-.641 1.734q-.688-.407-1.375-.407-.61 0-1.11.375-.484.36-.687 1.016-.312 1-.312 2.188v5.796zm14.696-3.562 1.922.234q-.453 1.703-1.688 2.641-1.234.938-3.172.938-2.422 0-3.843-1.485-1.422-1.5-1.422-4.203 0-2.797 1.437-4.328 1.438-1.547 3.735-1.547 2.218 0 3.609 1.516 1.406 1.5 1.406 4.25v.5h-8.25q.11 1.812 1.031 2.78.922.97 2.313.97 1.031 0 1.75-.532.734-.547 1.172-1.734zm-6.156-3.031h6.171q-.125-1.39-.703-2.094-.906-1.078-2.328-1.078-1.297 0-2.172.86-.875.859-.968 2.312z"/><path fill="#fff" d="m552.605 322.483 49.339-49.339v24.67H898.4v49.338H601.944v24.67z" fill-rule="evenodd"/><path stroke="#000" stroke-linejoin="round" stroke-linecap="butt" stroke-dasharray="1, 3" d="m552.605 322.483 49.339-49.339v24.67H898.4v49.338H601.944v24.67z"/><path fill="#000" d="M591.806 329.963v-13.469h-5.032v-1.797h12.094v1.797h-5.047v13.469zm8.903 0v-15.266h1.875v5.47q1.312-1.517 3.312-1.517 1.234 0 2.14.485.907.484 1.298 1.344.39.843.39 2.468v7.016h-1.875v-7.016q0-1.406-.61-2.047-.609-.64-1.734-.64-.828 0-1.562.437-.734.438-1.047 1.172-.312.735-.312 2.047v6.047zm11.877-13.11v-2.156h1.875v2.157zm0 13.11V318.9h1.875v11.063zm3.973-3.297 1.86-.297q.155 1.11.859 1.703.718.594 2 .594 1.296 0 1.921-.516.625-.53.625-1.234 0-.64-.562-1-.375-.25-1.906-.64-2.063-.516-2.86-.891-.797-.39-1.218-1.063-.407-.672-.407-1.484 0-.734.328-1.36.344-.64.938-1.062.437-.312 1.187-.531.75-.235 1.625-.235 1.297 0 2.282.375.984.375 1.453 1.016.469.64.64 1.719l-1.828.25q-.125-.86-.734-1.328-.594-.485-1.688-.485-1.28 0-1.843.422-.547.422-.547 1 0 .36.234.656.219.297.719.5.281.11 1.656.485 1.985.531 2.766.875.797.328 1.234.984.453.64.453 1.594 0 .937-.547 1.766-.546.828-1.578 1.28-1.031.454-2.328.454-2.156 0-3.297-.89-1.125-.907-1.437-2.657zm24.558-.75 1.844.234q-.297 1.907-1.547 2.985-1.25 1.078-3.062 1.078-2.266 0-3.657-1.484-1.375-1.485-1.375-4.25 0-1.797.594-3.141t1.813-2.016q1.218-.672 2.64-.672 1.797 0 2.938.922 1.156.907 1.484 2.578l-1.828.282q-.266-1.11-.922-1.672-.656-.563-1.594-.563-1.421 0-2.312 1.016-.875 1.016-.875 3.203 0 2.234.844 3.25.859 1 2.234 1 1.11 0 1.844-.672t.937-2.078zm2.742-1.484q0-3.078 1.72-4.547 1.421-1.235 3.468-1.235 2.281 0 3.719 1.5 1.453 1.485 1.453 4.125 0 2.141-.64 3.36-.626 1.219-1.86 1.906-1.219.672-2.672.672-2.313 0-3.75-1.484-1.438-1.5-1.438-4.297zm1.938 0q0 2.125.922 3.187.922 1.047 2.328 1.047 1.406 0 2.328-1.062.922-1.063.922-3.235 0-2.047-.938-3.11-.921-1.062-2.312-1.062-1.406 0-2.328 1.063-.922 1.047-.922 3.172zm17.8 5.53v-1.39q-1.048 1.64-3.095 1.64-1.312 0-2.421-.718-1.11-.734-1.72-2.047-.609-1.312-.609-3 0-1.656.547-3 .547-1.36 1.657-2.078 1.109-.719 2.468-.719 1 0 1.782.422.78.422 1.265 1.094v-5.469h1.875v15.266zm-5.923-5.515q0 2.125.89 3.172.907 1.047 2.126 1.047 1.219 0 2.078-1 .86-1 .86-3.062 0-2.282-.876-3.344-.875-1.063-2.156-1.063-1.25 0-2.094 1.032-.828 1.015-.828 3.218zm18.19 1.953 1.922.235q-.453 1.703-1.688 2.64-1.234.938-3.171.938-2.422 0-3.844-1.484-1.422-1.5-1.422-4.204 0-2.796 1.437-4.328 1.438-1.547 3.735-1.547 2.219 0 3.61 1.516 1.405 1.5 1.405 4.25v.5h-8.25q.11 1.813 1.032 2.781.922.97 2.312.97 1.031 0 1.75-.532.735-.547 1.172-1.735zm-6.156-3.03h6.172q-.125-1.391-.703-2.095-.907-1.078-2.329-1.078-1.296 0-2.171.86-.875.86-.97 2.312zm18.412 6.593-3.39-11.063h1.937l1.766 6.391.656 2.375q.031-.187.562-2.281l1.766-6.485h1.922l1.656 6.422.547 2.11.64-2.14 1.891-6.392h1.828l-3.453 11.063h-1.953l-1.75-6.625-.437-1.89-2.235 8.515zm20.575-1.36q-1.047.876-2.016 1.25-.953.36-2.063.36-1.812 0-2.796-.89-.985-.891-.985-2.282 0-.812.375-1.484.375-.672.969-1.078.594-.407 1.344-.61.562-.14 1.672-.281 2.265-.266 3.343-.64.016-.391.016-.5 0-1.141-.531-1.61-.72-.64-2.141-.64-1.328 0-1.953.468-.625.469-.938 1.64l-1.828-.25q.25-1.171.813-1.89.578-.734 1.656-1.125 1.094-.39 2.516-.39t2.297.343q.89.328 1.312.828.422.5.578 1.282.094.468.094 1.718v2.5q0 2.625.125 3.313.125.687.469 1.328h-1.954q-.296-.578-.375-1.36zm-.157-4.187q-1.015.406-3.062.703-1.156.172-1.64.375-.47.203-.735.61-.266.406-.266.89 0 .75.563 1.25.578.5 1.672.5 1.078 0 1.921-.469.844-.484 1.25-1.296.297-.641.297-1.875zm4.05 2.25 1.859-.297q.156 1.11.86 1.703.718.594 2 .594 1.296 0 1.921-.516.625-.53.625-1.234 0-.64-.562-1-.375-.25-1.907-.64-2.062-.516-2.859-.891-.797-.39-1.219-1.063-.406-.672-.406-1.484 0-.734.328-1.36.344-.64.938-1.062.437-.312 1.187-.531.75-.235 1.625-.235 1.297 0 2.281.375.985.375 1.453 1.016.47.64.641 1.719l-1.828.25q-.125-.86-.734-1.328-.594-.485-1.688-.485-1.281 0-1.844.422-.547.422-.547 1 0 .36.235.656.219.297.719.5.28.11 1.656.485 1.984.531 2.765.875.797.328 1.235.984.453.64.453 1.594 0 .937-.547 1.766-.547.828-1.578 1.28-1.031.454-2.328.454-2.156 0-3.297-.89-1.125-.907-1.438-2.657zm17.324 3.297V318.9h1.687v1.672q.64-1.172 1.188-1.547.546-.375 1.203-.375.953 0 1.922.61l-.641 1.734q-.688-.406-1.375-.406-.61 0-1.11.375-.484.36-.687 1.016-.312 1-.312 2.187v5.797zm14.368 0v-1.625q-1.297 1.875-3.516 1.875-.969 0-1.828-.375-.844-.375-1.266-.938-.406-.578-.562-1.39-.125-.563-.125-1.75v-6.86h1.875v6.141q0 1.469.125 1.969.172.75.734 1.172.578.422 1.422.422t1.578-.438q.75-.437 1.047-1.172.312-.75.312-2.172V318.9h1.875v11.063zm4.611 0V318.9h1.688v1.579q1.219-1.829 3.515-1.829 1 0 1.844.36.844.36 1.25.953.422.578.594 1.375.094.516.094 1.828v6.797H756v-6.734q0-1.141-.22-1.704-.218-.578-.78-.906-.547-.344-1.297-.344-1.203 0-2.078.766-.86.75-.86 2.875v6.047zm11.862 0V318.9h1.687v1.579q1.22-1.829 3.516-1.829 1 0 1.844.36.844.36 1.25.953.422.578.594 1.375.093.516.093 1.828v6.797h-1.875v-6.734q0-1.141-.218-1.704-.22-.578-.782-.906-.547-.344-1.297-.344-1.203 0-2.078.766-.86.75-.86 2.875v6.047zm11.877-13.11v-2.156h1.875v2.157zm0 13.11V318.9h1.875v11.063zm4.723 0V318.9h1.688v1.579q1.218-1.829 3.515-1.829 1 0 1.844.36.844.36 1.25.953.422.578.594 1.375.093.516.093 1.828v6.797h-1.875v-6.734q0-1.141-.218-1.704-.22-.578-.782-.906-.546-.344-1.296-.344-1.204 0-2.079.766-.859.75-.859 2.875v6.047zm11.518.922 1.828.265q.11.844.625 1.235.703.515 1.906.515 1.313 0 2.016-.53.703-.516.953-1.454.156-.562.14-2.406-1.234 1.453-3.062 1.453-2.281 0-3.531-1.64-1.25-1.657-1.25-3.954 0-1.578.563-2.922.578-1.343 1.671-2.062 1.094-.735 2.563-.735 1.953 0 3.219 1.579V318.9h1.734v9.563q0 2.578-.531 3.656-.516 1.078-1.656 1.703-1.141.625-2.813.625-1.984 0-3.203-.89-1.219-.89-1.172-2.672zm1.547-6.656q0 2.187.86 3.187.874 1 2.171 1 1.297 0 2.172-1 .875-1 .875-3.125 0-2.031-.906-3.062-.89-1.032-2.172-1.032-1.25 0-2.125 1.016t-.875 3.016zm11.19 5.734v-2.14h2.14v2.14zm5.925 0v-2.14h2.141v2.14zm5.926 0v-2.14h2.14v2.14z"/></g></svg>