<?xml version="1.0" encoding="utf-8"?>
<!-- Generator: Adobe Illustrator 23.0.3, SVG Export Plug-In . SVG Version: 6.00 Build 0)  -->
<svg version="1.1" id="Warstwa_1" xmlns="http://www.w3.org/2000/svg" xmlns:xlink="http://www.w3.org/1999/xlink" x="0px" y="0px"
	 viewBox="0 0 1138.6 262.5" style="enable-background:new 0 0 1138.6 262.5;" xml:space="preserve">
<style type="text/css">
	.st0{fill:none;stroke:#969696;stroke-width:0.89;stroke-miterlimit:10;}
	.st1{fill:none;stroke:#969696;stroke-width:0.89;stroke-miterlimit:10;stroke-dasharray:4.26,4.26;}
	.st2{fill:none;stroke:#969696;stroke-width:0.89;stroke-miterlimit:10;stroke-dasharray:4.24;}
	.st3{fill:#128DC4;}
	.st4{fill:none;stroke:#128DC4;stroke-width:1.34;stroke-miterlimit:10;}
	.st5{fill:none;stroke:#969696;stroke-width:0.99;stroke-miterlimit:10;stroke-dasharray:4.67;}
	.st6{fill:none;stroke:#0B679B;stroke-width:1.34;stroke-miterlimit:10;}
	.st7{stroke:#969696;stroke-width:0.76;stroke-miterlimit:10;stroke-dasharray:3.58;}
</style>
<title>proces zwykly desktop</title>
<polyline class="st0" points="44,5.2 45.4,3.6 47.5,3.6 "/>
<path class="st1" d="M51.8,3.6h70.9c5,0.2,9,4.4,8.9,9.4v139.5c0.1,5-3.8,9.2-8.9,9.4H29.9c-5-0.2-9-4.4-8.9-9.4V30.7l21.6-24"/>
<path class="st2" d="M23.4,31.4h15.7c5.4,0,9.8-4.3,9.8-9.7c0,0,0,0,0-0.1v-18"/>
<path class="st3" d="M48.3,76.9c-2.3,0.1-4.6-0.9-6.1-2.7c-1.6-1.8-2.4-4.3-2.4-7.5c-0.2-2.7,0.7-5.4,2.5-7.5
	c1.6-1.8,3.9-2.8,6.2-2.7c1.1,0,2.2,0.2,3.2,0.7c0.8,0.4,1.6,1,2.2,1.7l-1.3,1.6c-0.5-0.5-1.1-1-1.8-1.3c-0.7-0.3-1.5-0.5-2.2-0.5
	c-1.8-0.1-3.4,0.7-4.5,2.1c-1.2,1.7-1.8,3.7-1.7,5.8c-0.1,2.1,0.5,4.2,1.7,5.9c1.6,2.1,4.5,2.8,7,1.6c0.8-0.4,1.4-1,2-1.6l1.4,1.5
	c-0.7,0.9-1.6,1.6-2.6,2.1C50.6,76.6,49.5,76.9,48.3,76.9z"/>
<path class="st3" d="M61.8,73.4v-5.8h-5.5v-1.8h5.5v-5.9h2v5.9h5.4v1.8h-5.5v5.8H61.8z"/>
<path class="st3" d="M76.6,73.4v-5.8h-5.4v-1.8h5.4v-5.9h1.9v5.9H84v1.8h-5.4v5.8H76.6z"/>
<path class="st3" d="M5.4,205.1c-1,0-1.9-0.2-2.9-0.5c-0.9-0.3-1.8-0.9-2.5-1.6l1.9-2.3c0.5,0.4,1.1,0.8,1.7,1.1
	c0.6,0.3,1.2,0.4,1.9,0.4c1.3,0,2-0.5,2-1.4c0-0.4-0.2-0.8-0.6-1c-0.5-0.3-1-0.5-1.5-0.7l-1.9-0.8c-0.8-0.3-1.4-0.8-2-1.4
	c-0.6-0.7-1-1.6-0.9-2.6c0-1.2,0.5-2.3,1.4-3.1c1-0.9,2.4-1.3,3.8-1.3c0.9,0,1.7,0.2,2.5,0.5c0.8,0.3,1.6,0.8,2.2,1.4L8.8,194
	c-0.4-0.3-0.9-0.6-1.4-0.9c-0.5-0.2-1-0.3-1.6-0.3c-0.5,0-0.9,0.1-1.3,0.4c-0.5,0.3-0.7,1-0.4,1.6c0.1,0.2,0.3,0.3,0.5,0.4
	c0.4,0.2,1,0.5,1.6,0.7l1.9,0.8c0.8,0.3,1.5,0.8,2.1,1.5c0.5,0.7,0.8,1.6,0.8,2.5c0,1.2-0.5,2.4-1.4,3.2
	C8.3,204.7,6.9,205.2,5.4,205.1z"/>
<path class="st3" d="M21.1,205.1c-1.8,0.1-3.6-0.7-4.8-2c-1.3-1.6-2-3.6-1.8-5.6c-0.1-2,0.5-4,1.8-5.5c1.2-1.3,3-2.1,4.8-2
	c1.8-0.1,3.6,0.7,4.8,2c1.3,1.5,2,3.5,1.8,5.5c0.1,2-0.5,4-1.8,5.6C24.7,204.5,22.9,205.2,21.1,205.1z M21.1,202.3
	c1,0,1.9-0.5,2.4-1.3c0.6-1.1,0.9-2.3,0.9-3.5c0.1-1.2-0.2-2.4-0.9-3.4c-0.9-1.3-2.7-1.6-4-0.7c-0.3,0.2-0.5,0.4-0.7,0.7
	c-0.6,1-0.9,2.2-0.9,3.4c-0.1,1.2,0.2,2.4,0.9,3.5C19.2,201.8,20.1,202.3,21.1,202.3z"/>
<path class="st3" d="M38,205.1c-1.6,0.1-3.2-0.5-4.3-1.7c-1-1.1-1.5-2.9-1.5-5.3v-7.8h3.3v8.2c-0.1,1,0.1,2.1,0.7,3
	c0.4,0.6,1.2,0.9,1.9,0.9c0.7,0,1.4-0.3,1.9-0.9c0.5-0.9,0.8-2,0.7-3v-8.2h3.2v7.8c0,2.4-0.5,4.2-1.5,5.3
	C41.2,204.6,39.6,205.3,38,205.1z"/>
<path class="st3" d="M52.2,204.9h-3.3v-14.6h5.3c1.4,0,2.8,0.3,4,1c1.2,0.8,1.8,2.2,1.6,3.6c0.1,1.8-0.9,3.5-2.6,4.2l3.3,5.8h-3.7
	l-2.8-5.3h-1.8V204.9z M52.2,197h1.7c1.8,0,2.7-0.7,2.7-2.2c0.1-0.6-0.2-1.2-0.7-1.5c-0.6-0.3-1.3-0.5-2-0.4h-1.7L52.2,197z"/>
<path class="st3" d="M70.5,205.1c-1.2,0-2.4-0.3-3.4-0.9c-1-0.6-1.9-1.5-2.5-2.5c-1.2-2.6-1.2-5.6,0-8.2c0.6-1.1,1.5-2,2.5-2.6
	c1-0.6,2.2-0.9,3.4-0.9c0.9,0,1.7,0.2,2.5,0.6c0.7,0.3,1.3,0.8,1.9,1.3l-1.8,2.1c-0.4-0.3-0.7-0.6-1.2-0.8c-0.4-0.2-0.9-0.3-1.4-0.3
	c-1,0-1.9,0.5-2.5,1.2c-0.7,1-1.1,2.2-1,3.4c-0.1,1.2,0.3,2.5,1,3.5c0.6,0.8,1.6,1.3,2.6,1.2c0.6,0,1.1-0.1,1.6-0.4
	c0.5-0.3,0.9-0.6,1.2-1l1.7,2.1C74,204.4,72.3,205.2,70.5,205.1z"/>
<path class="st3" d="M79.2,204.9v-14.6h9.1v2.8h-5.8v2.9h5v2.8h-5v3.4h6.1v2.8H79.2z"/>
<path class="st3" d="M105.6,205.1c-1.2,0-2.4-0.3-3.4-0.9c-1-0.6-1.9-1.5-2.5-2.5c-0.7-1.3-1-2.7-0.9-4.1c0-1.4,0.3-2.9,1-4.1
	c1.2-2.2,3.4-3.5,5.9-3.5c0.9,0,1.7,0.2,2.5,0.6c0.7,0.3,1.3,0.8,1.8,1.3l-1.7,2.1c-0.4-0.3-0.7-0.6-1.2-0.8
	c-0.4-0.2-0.9-0.3-1.4-0.3c-1,0-1.9,0.5-2.5,1.2c-0.7,1-1.1,2.2-1,3.4c-0.1,1.2,0.3,2.5,1,3.5c0.6,0.8,1.6,1.3,2.6,1.2
	c0.6,0,1.1-0.1,1.6-0.4c0.5-0.3,0.9-0.6,1.2-1l1.8,2.1C109.2,204.4,107.4,205.2,105.6,205.1z"/>
<path class="st3" d="M120.2,205.1c-1.8,0.1-3.6-0.7-4.8-2c-1.3-1.6-2-3.6-1.8-5.6c-0.1-2,0.5-4,1.8-5.5c2.7-2.6,6.9-2.6,9.6,0
	c1.3,1.5,2,3.5,1.8,5.5c0.1,2-0.5,4-1.8,5.6C123.8,204.5,122.1,205.2,120.2,205.1z M120.2,202.3c1,0,1.9-0.5,2.4-1.3
	c0.6-1.1,0.9-2.3,0.9-3.5c0.1-1.2-0.2-2.4-0.9-3.4c-0.9-1.3-2.7-1.6-4-0.7c-0.3,0.2-0.5,0.4-0.7,0.7c-0.6,1-0.9,2.2-0.9,3.4
	c-0.1,1.2,0.2,2.4,0.9,3.5C118.4,201.8,119.3,202.3,120.2,202.3z"/>
<path class="st3" d="M131.4,204.9v-14.6h4.1c1.9-0.1,3.8,0.5,5.3,1.7c1.3,1.2,2,3,2,5.5s-0.7,4.4-2,5.6c-1.4,1.2-3.3,1.9-5.2,1.8
	H131.4z M134.7,202.2h0.6c1.1,0.1,2.2-0.3,3-1c0.8-0.7,1.1-1.9,1.1-3.7c0-1.7-0.4-2.9-1.1-3.6c-0.8-0.7-1.9-1-3-1h-0.6V202.2z"/>
<path class="st3" d="M147.4,204.9v-14.6h9.1v2.8h-5.8v2.9h5v2.8h-5v3.4h6.1v2.8H147.4z"/>
<line class="st4" x1="43" y1="98.3" x2="109.7" y2="98.3"/>
<line class="st4" x1="43" y1="114.3" x2="109.7" y2="114.3"/>
<line class="st4" x1="43" y1="130.3" x2="109.7" y2="130.3"/>
<polyline class="st0" points="289.2,5.2 290.6,3.6 292.7,3.6 "/>
<path class="st1" d="M297,3.6h70.9c5,0.2,9,4.4,8.9,9.4v139.5c0.1,5-3.8,9.2-8.9,9.4h-92.9c-5-0.2-9-4.4-8.9-9.4V30.7l21.5-24"/>
<path class="st2" d="M267.4,31.4h15.7c5.4,0,9.8-4.4,9.8-9.8v-18"/>
<path class="st3" d="M293.2,81c-2.3,0.1-4.6-0.9-6.1-2.7c-1.6-1.8-2.4-4.3-2.4-7.5c-0.2-2.7,0.7-5.4,2.5-7.5
	c1.6-1.8,3.9-2.8,6.2-2.7c1.1,0,2.2,0.2,3.2,0.7c0.8,0.4,1.6,1,2.2,1.7l-1.4,1.6c-0.5-0.5-1.1-1-1.8-1.3c-0.7-0.3-1.5-0.5-2.2-0.5
	c-1.8,0-3.4,0.8-4.5,2.2c-1.2,1.7-1.8,3.7-1.7,5.8c-0.1,2.1,0.5,4.2,1.6,5.9c1.6,2.1,4.6,2.8,7,1.6c0.8-0.4,1.4-1,2-1.6l1.4,1.6
	c-0.7,0.9-1.6,1.6-2.6,2.1C295.5,80.8,294.4,81,293.2,81z"/>
<path class="st3" d="M306.7,77.6v-5.8h-5.5v-1.9h5.5V64h1.9v5.8h5.5v1.9h-5.5v5.8L306.7,77.6z"/>
<path class="st3" d="M321.5,77.6v-5.8h-5.4v-1.9h5.5V64h2v5.8h5.5v1.9h-5.5v5.8L321.5,77.6z"/>
<path class="st3" d="M341.6,69c-0.9,0-1.8-0.2-2.7-0.6c-0.8-0.3-1.5-0.8-2.1-1.4l1-1.2c0.5,0.5,1.1,0.9,1.8,1.2
	c0.6,0.3,1.3,0.5,2.1,0.5c0.8,0,1.5-0.2,2.1-0.6c0.5-0.4,0.8-1,0.8-1.6c0.1-0.6-0.2-1.2-0.6-1.5c-0.5-0.4-1.1-0.7-1.6-0.9l-2-0.9
	c-0.7-0.3-1.3-0.7-1.9-1.2c-0.6-0.6-0.9-1.4-0.9-2.3c0-1,0.4-2,1.2-2.6c0.9-0.7,2-1.1,3.1-1c0.8,0,1.6,0.2,2.3,0.5
	c0.7,0.3,1.3,0.7,1.8,1.2l-0.9,1.1c-0.4-0.4-0.9-0.7-1.4-1c-0.5-0.2-1.1-0.4-1.7-0.3c-0.7,0-1.3,0.2-1.8,0.5
	c-0.5,0.3-0.7,0.9-0.7,1.5c0,0.6,0.2,1.1,0.7,1.5c0.5,0.3,1,0.6,1.5,0.8l1.9,0.8c0.7,0.3,1.4,0.8,2,1.3c0.6,0.6,0.9,1.5,0.8,2.3
	c0,1.1-0.4,2.1-1.2,2.8C344.1,68.6,342.9,69.1,341.6,69z"/>
<path class="st3" d="M354.4,69c-1.7,0.1-3.3-0.6-4.4-1.9c-1.2-1.4-1.8-3.3-1.7-5.2c-0.1-1.9,0.6-3.8,1.8-5.2c1.2-1.3,2.8-2,4.5-1.9
	c0.8,0,1.7,0.2,2.4,0.5c0.6,0.3,1.1,0.7,1.6,1.2l-1,1.1c-0.4-0.4-0.8-0.7-1.2-0.9c-0.5-0.3-1.1-0.4-1.7-0.4c-1.3,0-2.5,0.5-3.3,1.5
	c-0.9,1.1-1.3,2.6-1.2,4c-0.1,1.5,0.3,2.9,1.2,4.1c0.8,1,2.1,1.6,3.4,1.5c0.9,0.1,1.8-0.2,2.5-0.8v-3.5h-2.9v-1.4h4.5v5.8
	c-0.5,0.5-1.1,0.9-1.8,1.1C356,68.9,355.2,69,354.4,69z"/>
<path class="st3" d="M360.3,68.8l4-7.1l-3.7-6.6h1.9l1.9,3.5c0.2,0.3,0.4,0.6,0.5,0.9s0.4,0.7,0.5,1.1h0.1l0.5-1.1
	c0.1-0.3,0.3-0.6,0.5-0.9l1.8-3.5h1.8l-3.7,6.7l4,7h-1.9l-2-3.7l-0.6-1c-0.2-0.4-0.4-0.7-0.6-1.2h-0.1c-0.2,0.4-0.4,0.8-0.6,1.2
	l-0.5,1l-2,3.7L360.3,68.8z"/>
<path class="st3" d="M463.4,72.3c-1.3,0-2.6-0.3-3.8-0.8c-1.1-0.5-2.2-1.2-3.1-2.1l1.5-1.7c0.7,0.7,1.5,1.3,2.5,1.8
	c0.9,0.4,1.9,0.7,3,0.7c1.1,0.1,2.1-0.3,3-0.9c0.7-0.6,1.1-1.4,1.1-2.3c0.1-0.8-0.3-1.6-0.9-2.2c-0.7-0.5-1.5-1-2.3-1.3l-2.8-1.2
	c-1-0.4-1.9-1-2.7-1.7c-0.9-0.9-1.4-2.1-1.3-3.3c0-1.4,0.6-2.8,1.8-3.7c1.2-1,2.8-1.5,4.4-1.5c1.1,0,2.2,0.2,3.2,0.7
	c1,0.4,1.8,1,2.6,1.8l-1.3,1.6c-0.6-0.6-1.3-1-2-1.4c-0.8-0.3-1.6-0.5-2.5-0.5c-0.9,0-1.9,0.2-2.6,0.8c-0.7,0.5-1,1.3-1,2.1
	c-0.1,0.8,0.4,1.6,1,2.1c0.7,0.5,1.4,0.9,2.2,1.2l2.8,1.2c1.1,0.5,2,1.1,2.9,1.9c0.8,0.9,1.2,2.1,1.2,3.3c0,1.5-0.6,3-1.8,4
	C467,71.9,465.2,72.4,463.4,72.3z"/>
<path class="st3" d="M474,72V52.3h4.9c3,0,5.3,0.8,6.9,2.5s2.4,4.1,2.4,7.2s-0.8,5.6-2.4,7.3c-1.8,1.8-4.3,2.8-6.8,2.7H474z
	 M476.5,70h2.2c2,0.1,3.9-0.6,5.2-2.1c1.3-1.7,1.9-3.8,1.7-5.9c0.1-2-0.5-4.1-1.7-5.7c-1.3-1.4-3.2-2.1-5.2-2h-2.2L476.5,70z"/>
<path class="st3" d="M492.4,72V52.3h2.5v9.9h0.1l8.2-9.9h2.8l-6.1,7.5l7.1,12.2h-2.8l-5.9-10.2l-3.4,4V72H492.4z"/>
<path class="st3" d="M518.7,60.3c-0.9,0-1.8-0.2-2.7-0.5c-0.8-0.4-1.5-0.8-2.1-1.5l1-1.2c0.5,0.5,1.1,0.9,1.7,1.2
	c0.6,0.3,1.3,0.5,2.1,0.5c0.8,0,1.5-0.2,2.1-0.6c0.5-0.4,0.8-1,0.8-1.6c0.1-0.6-0.1-1.1-0.5-1.5c-0.5-0.4-1.1-0.7-1.6-0.9l-2-0.9
	c-0.7-0.3-1.3-0.7-1.9-1.2c-0.6-0.6-0.9-1.5-0.9-2.3c0-1,0.4-2,1.2-2.6c0.9-0.7,2-1.1,3.1-1c0.8,0,1.6,0.1,2.3,0.5
	c0.7,0.3,1.3,0.7,1.8,1.2l-0.9,1.1c-0.4-0.4-0.9-0.7-1.4-1c-0.5-0.2-1.1-0.4-1.7-0.3c-0.7,0-1.3,0.2-1.8,0.5
	c-0.5,0.3-0.7,0.9-0.7,1.5c0,0.6,0.2,1.1,0.7,1.5c0.5,0.3,1,0.6,1.5,0.8l1.9,0.8c0.7,0.3,1.4,0.8,2,1.3c0.6,0.6,0.9,1.5,0.8,2.3
	c0,1.1-0.4,2.1-1.2,2.8C521.2,59.9,520,60.3,518.7,60.3z"/>
<path class="st3" d="M531.4,60.3c-1.7,0.1-3.3-0.6-4.4-1.9c-1.2-1.4-1.8-3.3-1.7-5.2c-0.1-1.9,0.5-3.8,1.7-5.2
	c1.2-1.2,2.8-1.9,4.5-1.9c0.8,0,1.7,0.2,2.4,0.5c0.6,0.3,1.1,0.7,1.6,1.2l-1,1.1c-0.4-0.4-0.8-0.7-1.2-0.9c-0.5-0.3-1.1-0.4-1.7-0.4
	c-1.3,0-2.5,0.5-3.3,1.5c-0.9,1.1-1.3,2.6-1.2,4c-0.1,1.5,0.3,2.9,1.2,4.1c0.8,1,2.1,1.6,3.4,1.5c0.9,0.1,1.8-0.2,2.5-0.8v-3.5h-2.9
	V53h4.5v5.7c-0.5,0.5-1.1,0.9-1.8,1.1C533.1,60.1,532.3,60.3,531.4,60.3z"/>
<path class="st3" d="M537.4,60l4-7.1l-3.7-6.6h1.9l1.9,3.5c0.2,0.3,0.3,0.6,0.5,0.9s0.3,0.7,0.5,1.1h0.1c0.2-0.4,0.4-0.8,0.5-1.1
	s0.3-0.6,0.5-0.9l1.8-3.5h1.8l-3.7,6.7l4,7h-1.9l-2-3.7l-0.6-1c-0.2-0.4-0.4-0.8-0.6-1.2h-0.1l-0.6,1.2l-0.5,1l-2,3.7L537.4,60z"/>
<path class="st3" d="M243,205.1c-1,0-2-0.2-2.9-0.5c-0.9-0.4-1.8-0.9-2.5-1.6l1.9-2.3c0.5,0.4,1.1,0.8,1.7,1.1
	c0.6,0.3,1.2,0.4,1.9,0.4c1.3,0,2-0.5,2-1.4c0-0.4-0.2-0.8-0.6-1c-0.5-0.3-1-0.5-1.5-0.7l-1.9-0.8c-0.8-0.3-1.4-0.8-2-1.4
	c-0.6-0.7-0.9-1.6-0.9-2.6c0-1.2,0.5-2.3,1.4-3.1c1-0.9,2.4-1.3,3.7-1.3c0.9,0,1.7,0.2,2.5,0.5c0.8,0.3,1.5,0.8,2.1,1.5l-1.6,2
	c-0.4-0.4-0.9-0.6-1.4-0.9c-0.5-0.2-1-0.3-1.6-0.3c-0.5,0-1,0.1-1.4,0.4c-0.3,0.2-0.5,0.6-0.5,1c0,0.4,0.2,0.8,0.6,1
	c0.4,0.2,1,0.5,1.6,0.7l1.9,0.8c0.8,0.3,1.5,0.8,2.1,1.5c0.6,0.7,0.8,1.6,0.8,2.5c0,1.2-0.5,2.4-1.4,3.2
	C245.9,204.7,244.5,205.2,243,205.1z"/>
<path class="st3" d="M258.7,205.1c-1.8,0.1-3.6-0.7-4.8-2c-1.3-1.6-2-3.6-1.8-5.6c-0.1-2,0.5-4,1.8-5.5c2.7-2.6,6.9-2.6,9.6,0
	c1.3,1.5,2,3.5,1.8,5.5c0.1,2-0.5,4-1.8,5.6C262.2,204.5,260.5,205.2,258.7,205.1z M258.7,202.3c1,0,1.8-0.5,2.3-1.3
	c0.6-1,0.9-2.3,0.9-3.5c0.1-1.2-0.2-2.4-0.9-3.4c-0.9-1.3-2.7-1.6-4-0.7c-0.3,0.2-0.5,0.4-0.7,0.7c-0.6,1-0.9,2.2-0.9,3.4
	c-0.1,1.2,0.2,2.4,0.9,3.5C256.8,201.8,257.7,202.3,258.7,202.3z"/>
<path class="st3" d="M275.6,205.1c-1.6,0.1-3.2-0.5-4.3-1.7c-1-1.1-1.5-2.9-1.5-5.3v-7.8h3.3v8.2c-0.1,1,0.1,2.1,0.6,3
	c0.4,0.6,1.2,0.9,1.9,0.9c0.7,0,1.4-0.3,1.9-0.9c0.5-0.9,0.8-2,0.7-3v-8.2h3.2v7.8c0,2.4-0.5,4.2-1.5,5.3
	C278.7,204.6,277.2,205.2,275.6,205.1z"/>
<path class="st3" d="M289.8,204.9h-3.3v-14.6h5.3c1.4,0,2.8,0.3,4,1c1.2,0.8,1.8,2.2,1.6,3.6c0.1,1.8-0.9,3.5-2.6,4.2l3.3,5.8h-3.7
	l-2.8-5.3h-1.8L289.8,204.9z M289.8,197h1.7c1.8,0,2.7-0.7,2.7-2.2c0.1-0.6-0.2-1.2-0.7-1.5c-0.6-0.3-1.3-0.5-2-0.4h-1.7L289.8,197z
	"/>
<path class="st3" d="M308.1,205.1c-1.2,0-2.4-0.3-3.4-0.9c-1-0.6-1.9-1.5-2.5-2.5c-0.7-1.3-1-2.7-0.9-4.1c0-1.4,0.3-2.9,1-4.1
	c1.2-2.2,3.5-3.5,5.9-3.5c0.9,0,1.7,0.2,2.5,0.6c0.7,0.3,1.3,0.8,1.9,1.3l-1.7,2.1c-0.4-0.3-0.8-0.6-1.2-0.8
	c-0.4-0.2-0.9-0.3-1.4-0.3c-1,0-1.9,0.5-2.5,1.2c-0.7,1-1.1,2.2-1,3.4c-0.1,1.2,0.3,2.5,1,3.5c0.6,0.8,1.6,1.3,2.6,1.2
	c0.6,0,1.1-0.1,1.6-0.4c0.5-0.3,0.9-0.6,1.2-1l1.8,2.1C311.7,204.4,309.9,205.2,308.1,205.1z"/>
<path class="st3" d="M316.8,204.9v-14.6h9.1v2.8h-5.8v2.9h5v2.8h-5v3.4h6.1v2.8H316.8z"/>
<path class="st3" d="M343.2,205.1c-1.2,0-2.4-0.3-3.4-0.9c-1-0.6-1.9-1.5-2.5-2.5c-0.7-1.3-1-2.7-0.9-4.1c0-1.4,0.3-2.9,1-4.1
	c1.2-2.2,3.5-3.5,5.9-3.5c0.9,0,1.7,0.2,2.5,0.6c0.7,0.3,1.3,0.8,1.9,1.3l-1.7,2.1c-0.4-0.3-0.8-0.6-1.2-0.8
	c-0.4-0.2-0.9-0.3-1.4-0.3c-1,0-1.9,0.5-2.5,1.2c-0.7,1-1.1,2.2-1,3.4c-0.1,1.2,0.3,2.5,1,3.5c0.6,0.8,1.6,1.3,2.6,1.2
	c0.6,0,1.1-0.1,1.6-0.4c0.5-0.3,0.9-0.6,1.2-1l1.7,2.1C346.8,204.4,345,205.2,343.2,205.1z"/>
<path class="st3" d="M357.8,205.1c-1.8,0.1-3.6-0.7-4.8-2c-1.3-1.6-2-3.6-1.8-5.6c-0.1-2,0.5-4,1.8-5.5c2.7-2.6,6.9-2.6,9.6,0
	c1.3,1.5,2,3.5,1.8,5.5c0.1,2-0.5,4-1.8,5.6C361.4,204.5,359.6,205.2,357.8,205.1z M357.8,202.3c1,0,1.9-0.5,2.4-1.3
	c0.6-1.1,0.9-2.3,0.9-3.5c0.1-1.2-0.2-2.4-0.9-3.4c-0.9-1.3-2.7-1.6-4-0.7c-0.3,0.2-0.5,0.4-0.7,0.7c-0.6,1-0.9,2.2-0.9,3.4
	c-0.1,1.2,0.2,2.4,0.9,3.5C355.9,201.8,356.8,202.3,357.8,202.3z"/>
<path class="st3" d="M369,204.9v-14.6h4.1c1.9-0.1,3.8,0.5,5.3,1.7c1.3,1.2,2,3,2,5.5s-0.7,4.4-2,5.6c-1.4,1.2-3.3,1.9-5.2,1.8H369z
	 M372.3,202.2h0.6c1.1,0.1,2.2-0.3,3-1c0.8-0.7,1.1-1.9,1.1-3.7c0-1.7-0.4-2.9-1.1-3.6c-0.8-0.7-1.9-1-3-1h-0.6V202.2z"/>
<path class="st3" d="M385,204.9v-14.6h9.1v2.8h-5.8v2.9h5v2.8h-5v3.4h6.1v2.8H385z"/>
<path class="st3" d="M252.2,235.7c-0.9-1.5-1.6-3.1-2.2-4.8c-1-3.6-1-7.3,0-10.9c0.5-1.7,1.3-3.3,2.2-4.8l2.1,0.9
	c-0.8,1.4-1.4,3-1.8,4.6c-0.7,3.1-0.7,6.4,0,9.6c0.4,1.6,1,3.2,1.8,4.6L252.2,235.7z"/>
<path class="st3" d="M258.9,231.7v-14.6h5c1.4,0,2.9,0.3,4.1,1c1.2,0.8,1.8,2.2,1.7,3.7c0.1,1.5-0.5,2.9-1.7,3.8
	c-1.2,0.8-2.6,1.2-4,1.2h-1.8v4.9L258.9,231.7z M262.2,224.2h1.6c1.8,0,2.7-0.8,2.7-2.3c0.1-0.6-0.2-1.2-0.7-1.6
	c-0.6-0.3-1.3-0.5-2.1-0.5h-1.5V224.2z"/>
<path class="st3" d="M279.9,232c-1.8,0.1-3.6-0.7-4.8-2c-1.3-1.6-1.9-3.6-1.8-5.6c-0.1-2,0.5-4,1.8-5.5c2.7-2.6,6.9-2.6,9.6,0
	c1.3,1.5,2,3.5,1.8,5.5c0.1,2-0.5,4-1.8,5.6C283.5,231.3,281.7,232.1,279.9,232z M279.9,229.2c1,0,1.9-0.5,2.4-1.3
	c0.6-1.1,0.9-2.3,0.9-3.5c0.1-1.2-0.2-2.4-0.9-3.4c-0.9-1.3-2.7-1.6-4-0.7c-0.3,0.2-0.5,0.4-0.7,0.7c-0.6,1-0.9,2.2-0.9,3.4
	c-0.1,1.2,0.2,2.4,0.9,3.5C278.1,228.7,279,229.2,279.9,229.2L279.9,229.2z"/>
<path class="st3" d="M294.4,231.7h-3.3v-14.6h5.3c1.4,0,2.8,0.3,4,1c1.1,0.6,1.6,1.8,1.6,3.6c0,0.9-0.2,1.9-0.7,2.6
	c-0.5,0.7-1.1,1.2-1.9,1.6l3.3,5.8H299l-2.8-5.2h-1.9V231.7z M294.4,223.8h1.7c1.8,0,2.7-0.7,2.7-2.2c0.1-0.6-0.2-1.2-0.7-1.5
	c-0.6-0.3-1.3-0.5-2-0.4h-1.7V223.8z"/>
<path class="st3" d="M309.4,231.7v-11.8h-4v-2.8h11.3v2.8h-4v11.8H309.4z"/>
<path class="st3" d="M320.8,231.7v-14.6h9.1v2.8h-5.8v2.9h5v2.8h-5v3.4h6.1v2.8H320.8z"/>
<path class="st3" d="M284.6,258.7v-11.8h-4v-2.8h11.3v2.8h-4v11.8H284.6z"/>
<path class="st3" d="M311.9,244.1v11.8h5v2.8h-8.3l0-14.6H311.9z"/>
<path class="st3" d="M295.2,258.7v-14.6h9.1v2.8h-5.8v2.9h5v2.8h-5v3.4h6.1v2.8H295.2z"/>
<path class="st3" d="M334.9,231.7v-14.6h4.1c1.9-0.1,3.8,0.5,5.3,1.7c1.3,1.2,2,3,2,5.5c0,2.5-0.6,4.4-2,5.6
	c-1.4,1.2-3.3,1.9-5.2,1.8L334.9,231.7z M338.1,229.1h0.6c1.1,0.1,2.2-0.3,3-1c0.8-0.7,1.1-1.9,1.1-3.6s-0.4-2.9-1.1-3.6
	c-0.8-0.7-1.9-1-3-1h-0.6V229.1z"/>
<path class="st3" d="M358,231.1v-11.8h-4v-2.7h11.3v2.8h-4v11.8L358,231.1z"/>
<path class="st3" d="M375.3,231.4c-1.8,0.1-3.6-0.7-4.8-2c-1.3-1.6-2-3.6-1.8-5.6c-0.1-2,0.5-4,1.8-5.5c2.7-2.6,6.9-2.6,9.6,0
	c1.3,1.5,2,3.5,1.8,5.5c0.1,2-0.5,4-1.8,5.6C378.8,230.7,377.1,231.5,375.3,231.4z M375.3,228.5c1,0,1.9-0.5,2.4-1.3
	c0.6-1.1,0.9-2.3,0.9-3.5c0.1-1.2-0.2-2.4-0.9-3.4c-0.9-1.3-2.7-1.6-4-0.7c-0.3,0.2-0.5,0.4-0.7,0.7c-0.6,1-0.9,2.2-0.9,3.4
	c-0.1,1.2,0.2,2.4,0.9,3.5C373.4,228.1,374.3,228.6,375.3,228.5L375.3,228.5z"/>
<path class="st3" d="M329.9,258.8c-1,0-1.9-0.2-2.9-0.5c-0.9-0.3-1.8-0.9-2.5-1.6l1.9-2.2c0.5,0.4,1.1,0.8,1.7,1.1
	c0.6,0.3,1.2,0.4,1.9,0.5c1.4,0,2-0.5,2-1.4c0-0.4-0.2-0.8-0.6-1c-0.5-0.3-1-0.5-1.5-0.7L328,252c-0.8-0.3-1.4-0.8-2-1.4
	c-0.6-0.7-1-1.6-0.9-2.6c0-1.2,0.5-2.3,1.5-3.1c1-0.9,2.4-1.3,3.7-1.3c0.9,0,1.7,0.2,2.5,0.5c0.8,0.3,1.6,0.8,2.2,1.4l-1.7,2.1
	c-0.4-0.3-0.9-0.6-1.4-0.9c-0.5-0.2-1-0.3-1.6-0.3c-0.5,0-0.9,0.1-1.4,0.4c-0.3,0.2-0.5,0.6-0.5,1c0,0.4,0.2,0.8,0.6,1
	c0.5,0.3,1,0.5,1.6,0.7l1.9,0.8c0.8,0.3,1.5,0.8,2.1,1.5c0.5,0.7,0.8,1.6,0.8,2.5c0,1.2-0.5,2.4-1.4,3.2
	C332.8,258.4,331.4,258.9,329.9,258.8z"/>
<path class="st3" d="M346.1,258.8c-3.8,0.2-7-2.8-7.2-6.5c0-0.3,0-0.6,0-0.9c0-1.4,0.3-2.9,1-4.1c0.6-1.1,1.5-2,2.6-2.6
	c1.1-0.6,2.3-0.9,3.6-0.9c0.9,0,1.9,0.2,2.7,0.6c0.7,0.3,1.3,0.8,1.9,1.3l-1.7,2.1c-0.4-0.3-0.8-0.6-1.2-0.8c-0.5-0.2-1-0.3-1.6-0.3
	c-1.1,0-2.1,0.4-2.8,1.2c-0.8,1-1.2,2.2-1.1,3.4c-0.1,1.2,0.3,2.5,1,3.5c0.8,0.9,1.9,1.3,3.1,1.2c0.6,0,1.1-0.1,1.6-0.4V253h-2.4
	v-2.7h5.3v6.7c-0.6,0.5-1.3,1-2,1.2C348,258.6,347.1,258.8,346.1,258.8z"/>
<path class="st3" d="M354.2,258.5l4-7.5l-3.8-7.1h3.7l1.3,2.8c0.2,0.3,0.3,0.7,0.5,1.1l0.6,1.3h0.1c0.2-0.5,0.3-0.9,0.5-1.3
	s0.3-0.7,0.5-1.1l1.2-2.8h3.5l-3.8,7.2l4,7.3h-3.7l-1.5-3c-0.2-0.4-0.4-0.8-0.5-1.1s-0.4-0.8-0.6-1.2H360c-0.2,0.4-0.3,0.9-0.5,1.2
	s-0.3,0.8-0.5,1.1l-1.4,3H354.2z"/>
<path class="st3" d="M371.6,262.5l-2-0.9c0.8-1.4,1.4-3,1.8-4.6c0.7-3.1,0.7-6.4,0-9.6c-0.4-1.6-1-3.2-1.8-4.6l2-0.9
	c0.9,1.5,1.7,3.1,2.2,4.8c1,3.5,1,7.3,0,10.9C373.2,259.4,372.5,261.1,371.6,262.5z"/>
<line class="st4" x1="288.1" y1="114.3" x2="354.9" y2="114.3"/>
<line class="st4" x1="288.1" y1="98.3" x2="354.9" y2="98.3"/>
<line class="st4" x1="288.1" y1="130.3" x2="354.9" y2="130.3"/>
<path class="st5" d="M484,104.1L430.7,67c-7.6-5.3-7.4-16.5,0.3-21.2l52.6-32.2c7.6-4.6,17.1-4.5,24.6,0.3l53.3,33.4
	c7.8,4.9,8.2,16.1,0.8,21.2l-52.5,35.9C502,109.7,491.7,109.5,484,104.1z"/>
<path class="st5" d="M561.5,80.1c7.8,4.9,8.2,16.1,0.8,21.2l-52.5,35.9c-7.8,5.3-18.1,5.2-25.8-0.3l-53.3-37.1
	c-7.6-5.3-7.4-16.5,0.3-21.2"/>
<path class="st5" d="M561.5,116.1c7.8,4.9,8.2,16.1,0.8,21.2l-52.5,35.9c-7.8,5.3-18.1,5.2-25.8-0.3l-53.3-37.1
	c-7.6-5.3-7.4-16.4,0.3-21.2"/>
<line class="st6" x1="405.4" y1="82.7" x2="405.4" y2="105"/>
<line class="st6" x1="394.2" y1="93.9" x2="416.5" y2="93.9"/>
<polyline class="st0" points="703.7,2.4 705.1,0.8 707.2,0.8 "/>
<path class="st1" d="M711.5,0.8h70.9c5,0.2,9,4.4,8.9,9.4v139.5c0.1,5-3.8,9.2-8.9,9.4h-92.8c-5-0.2-9-4.4-8.9-9.4V27.9L702.2,4"/>
<path class="st2" d="M684.8,28.6h15.7c5.4,0,9.8-4.4,9.8-9.8c0,0,0,0,0,0v-18"/>
<path class="st3" d="M706.6,49.9c-1.5,0-2.9-0.8-3.6-2.1c-1-1.8-1.4-3.9-1.3-6c-0.1-2.1,0.3-4.1,1.3-5.9c1.2-2,3.8-2.6,5.8-1.4
	c0.6,0.4,1.1,0.8,1.4,1.4c1,1.8,1.4,3.9,1.3,5.9c0.1,2.1-0.3,4.2-1.3,6C709.4,49.1,708.1,49.9,706.6,49.9z M706.6,48.3
	c1,0,1.8-0.6,2.2-1.5c0.7-1.6,0.9-3.2,0.8-4.9c0.1-1.7-0.2-3.3-0.8-4.9c-0.5-1.2-1.8-1.8-3-1.3c-0.6,0.2-1.1,0.7-1.3,1.3
	c-0.7,1.5-0.9,3.2-0.8,4.9c-0.1,1.7,0.2,3.4,0.8,4.9C704.7,47.7,705.6,48.3,706.6,48.3z"/>
<path class="st3" d="M714.5,49.6V48h3.5V36.6h-2.8v-1.3c0.6-0.1,1.2-0.3,1.8-0.5c0.5-0.2,1-0.4,1.4-0.7h1.5V48h3.2v1.7L714.5,49.6z"
	/>
<path class="st3" d="M730.6,49.9c-1.5,0-2.9-0.8-3.6-2.1c-1-1.8-1.4-3.9-1.3-6c-0.1-2.1,0.3-4.1,1.3-5.9c1.2-2,3.8-2.6,5.9-1.4
	c0.6,0.4,1.1,0.8,1.4,1.4c1,1.8,1.4,3.9,1.3,5.9c0.1,2.1-0.3,4.2-1.3,6C733.5,49.2,732.1,49.9,730.6,49.9z M730.6,48.3
	c1,0,1.8-0.6,2.2-1.5c0.7-1.6,0.9-3.2,0.8-4.9c0.1-1.7-0.2-3.3-0.8-4.9c-0.5-1.2-1.8-1.8-3-1.3c-0.6,0.2-1.1,0.7-1.3,1.3
	c-0.7,1.5-1,3.2-0.8,4.9c-0.1,1.7,0.2,3.4,0.8,4.9C728.8,47.7,729.7,48.3,730.6,48.3z"/>
<path class="st3" d="M738.5,49.6V48h3.5V36.6h-2.8v-1.3c0.6-0.1,1.2-0.3,1.8-0.5c0.5-0.2,1-0.4,1.4-0.7h1.5V48h3.2v1.7L738.5,49.6z"
	/>
<path class="st3" d="M754.7,49.9c-1.5,0-2.9-0.8-3.6-2.1c-1-1.8-1.4-3.9-1.3-6c-0.1-2.1,0.3-4.1,1.3-5.9c1.2-2,3.8-2.6,5.8-1.4
	c0.6,0.4,1.1,0.8,1.4,1.4c1,1.8,1.4,3.9,1.3,5.9c0.1,2.1-0.3,4.2-1.3,6C757.6,49.1,756.2,49.9,754.7,49.9z M754.7,48.3
	c1,0,1.8-0.6,2.2-1.5c0.7-1.6,0.9-3.2,0.8-4.9c0.1-1.7-0.2-3.3-0.8-4.9c-0.5-1.2-1.8-1.8-3-1.3c-0.6,0.2-1.1,0.7-1.3,1.3
	c-0.7,1.5-1,3.2-0.8,4.9c-0.1,1.7,0.2,3.4,0.8,4.9C752.9,47.7,753.7,48.3,754.7,48.3z"/>
<path class="st3" d="M766.7,49.9c-1.5,0-2.9-0.8-3.6-2.1c-1-1.8-1.4-3.9-1.3-6c-0.1-2.1,0.3-4.1,1.3-5.9c1.2-2,3.8-2.6,5.8-1.4
	c0.6,0.4,1.1,0.8,1.4,1.4c1,1.8,1.4,3.9,1.3,5.9c0.1,2.1-0.3,4.2-1.3,6C769.6,49.1,768.2,49.9,766.7,49.9z M766.7,48.3
	c1,0,1.8-0.6,2.2-1.5c0.7-1.6,0.9-3.2,0.8-4.9c0.1-1.7-0.2-3.3-0.8-4.9c-0.5-1.2-1.8-1.8-3-1.3c-0.6,0.2-1.1,0.7-1.3,1.3
	c-0.7,1.5-1,3.2-0.8,4.9c-0.1,1.7,0.2,3.4,0.8,4.9C764.9,47.7,765.8,48.3,766.7,48.3z"/>
<path class="st3" d="M706.6,79c-1.5,0-2.9-0.8-3.6-2.1c-1-1.8-1.4-3.9-1.3-6c-0.1-2.1,0.3-4.1,1.3-5.9c1.2-2,3.8-2.6,5.8-1.4
	c0.6,0.4,1.1,0.8,1.4,1.4c1,1.8,1.4,3.9,1.3,5.9c0.1,2.1-0.3,4.2-1.3,6C709.4,78.2,708.1,79,706.6,79z M706.6,77.4
	c1,0,1.8-0.6,2.2-1.5c0.7-1.6,0.9-3.2,0.8-4.9c0.1-1.7-0.2-3.3-0.8-4.9c-0.5-1.2-1.8-1.8-3-1.3c-0.6,0.2-1.1,0.7-1.3,1.3
	c-0.7,1.5-0.9,3.2-0.8,4.9c-0.1,1.7,0.2,3.4,0.8,4.9C704.7,76.7,705.6,77.3,706.6,77.4L706.6,77.4z"/>
<path class="st3" d="M714.5,78.7V77h3.5V65.7h-2.8v-1.3c0.6-0.1,1.2-0.3,1.8-0.5c0.5-0.2,1-0.4,1.4-0.7h1.5V77h3.2v1.7L714.5,78.7z"
	/>
<path class="st3" d="M726.5,78.7V77h3.5V65.7h-2.8v-1.3c0.6-0.1,1.2-0.3,1.8-0.5c0.5-0.2,1-0.4,1.4-0.7h1.5V77h3.2v1.7L726.5,78.7z"
	/>
<path class="st3" d="M742.7,79c-1.5,0-2.9-0.8-3.7-2.1c-1-1.8-1.4-3.9-1.3-6c-0.1-2,0.3-4.1,1.3-5.9c1.2-2,3.8-2.6,5.9-1.4
	c0.6,0.4,1.1,0.8,1.4,1.4c1,1.8,1.4,3.9,1.3,5.9c0.1,2.1-0.3,4.2-1.3,6C745.5,78.2,744.1,79,742.7,79z M742.7,77.4
	c1,0,1.8-0.6,2.2-1.5c0.7-1.6,0.9-3.2,0.8-4.9c0.1-1.7-0.2-3.3-0.8-4.9c-0.5-1.2-1.8-1.8-3-1.3c-0.6,0.2-1.1,0.7-1.3,1.3
	c-0.7,1.5-1,3.2-0.8,4.9c-0.1,1.7,0.2,3.4,0.8,4.9C740.8,76.7,741.7,77.3,742.7,77.4L742.7,77.4z"/>
<path class="st3" d="M754.7,79c-1.5,0-2.9-0.8-3.6-2.1c-1-1.8-1.4-3.9-1.3-6c-0.1-2.1,0.3-4.1,1.3-5.9c1.2-2,3.8-2.6,5.8-1.4
	c0.6,0.4,1.1,0.8,1.4,1.4c1,1.8,1.4,3.9,1.3,5.9c0.1,2.1-0.3,4.2-1.3,6C757.6,78.2,756.2,79,754.7,79z M754.7,77.4
	c1,0,1.8-0.6,2.2-1.5c0.7-1.6,0.9-3.2,0.8-4.9c0.1-1.7-0.2-3.3-0.8-4.9c-0.5-1.2-1.8-1.8-3-1.3c-0.6,0.2-1.1,0.7-1.3,1.3
	c-0.7,1.5-1,3.2-0.8,4.9c-0.1,1.7,0.2,3.4,0.8,4.9C752.9,76.7,753.7,77.3,754.7,77.4L754.7,77.4z"/>
<path class="st3" d="M766.7,79c-1.5,0-2.9-0.8-3.6-2.1c-1-1.8-1.4-3.9-1.3-6c-0.1-2.1,0.3-4.1,1.3-5.9c1.2-2,3.8-2.6,5.8-1.4
	c0.6,0.4,1.1,0.8,1.4,1.4c1,1.8,1.4,3.9,1.3,5.9c0.1,2.1-0.3,4.2-1.3,6C769.6,78.2,768.2,79,766.7,79z M766.7,77.4
	c1,0,1.8-0.6,2.2-1.5c0.7-1.6,0.9-3.2,0.8-4.9c0.1-1.7-0.2-3.3-0.8-4.9c-0.5-1.2-1.8-1.8-3-1.3c-0.6,0.2-1.1,0.7-1.3,1.3
	c-0.7,1.5-1,3.2-0.8,4.9c-0.1,1.7,0.2,3.4,0.8,4.9C764.9,76.7,765.8,77.3,766.7,77.4L766.7,77.4z"/>
<path class="st3" d="M702.5,107.7v-1.7h3.5V94.7h-2.8v-1.3c0.6-0.1,1.2-0.2,1.8-0.4c0.5-0.2,1-0.4,1.4-0.7h1.6v13.8h3.2v1.7
	L702.5,107.7z"/>
<path class="st3" d="M718.6,108c-1.5,0-2.9-0.8-3.6-2.1c-1-1.8-1.4-3.9-1.3-6c-0.1-2.1,0.4-4.1,1.4-5.9c1.2-2,3.8-2.6,5.8-1.4
	c0.6,0.4,1.1,0.8,1.4,1.4c1,1.8,1.4,3.9,1.3,5.9c0.1,2.1-0.3,4.2-1.3,6C721.5,107.2,720.1,108,718.6,108z M718.6,106.4
	c1,0,1.8-0.6,2.2-1.5c0.7-1.6,0.9-3.2,0.8-4.9c0.1-1.7-0.2-3.3-0.8-4.9c-0.4-0.9-1.2-1.5-2.2-1.5c-1,0-1.8,0.6-2.2,1.5
	c-0.7,1.5-0.9,3.2-0.8,4.9c-0.1,1.7,0.2,3.4,0.8,4.9C716.8,105.8,717.6,106.4,718.6,106.4L718.6,106.4z"/>
<path class="st3" d="M730.6,108c-1.5,0-2.9-0.8-3.7-2.1c-1-1.8-1.4-3.9-1.3-6c-0.1-2.1,0.3-4.1,1.3-5.9c1.2-2,3.8-2.6,5.9-1.4
	c0.6,0.4,1.1,0.8,1.4,1.4c1,1.8,1.4,3.9,1.3,5.9c0.1,2.1-0.3,4.2-1.3,6C733.5,107.2,732.1,108,730.6,108z M730.6,106.4
	c1,0,1.8-0.6,2.2-1.5c0.7-1.6,0.9-3.2,0.8-4.9c0.1-1.7-0.2-3.3-0.8-4.9c-0.5-1.2-1.8-1.8-3-1.3c-0.6,0.2-1.1,0.7-1.3,1.3
	c-0.7,1.5-1,3.2-0.8,4.9c-0.1,1.7,0.2,3.4,0.8,4.9C728.8,105.8,729.7,106.4,730.6,106.4L730.6,106.4z"/>
<path class="st3" d="M738.5,107.7v-1.7h3.5V94.7h-2.8v-1.3c0.6-0.1,1.2-0.3,1.8-0.5c0.5-0.2,1-0.4,1.4-0.7h1.5v13.8h3.2v1.7H738.5z"
	/>
<path class="st3" d="M754.7,108c-1.5,0-2.9-0.8-3.6-2.1c-1-1.8-1.4-3.9-1.3-6c-0.1-2.1,0.3-4.1,1.3-5.9c1.2-2,3.8-2.6,5.8-1.4
	c0.6,0.4,1.1,0.8,1.4,1.4c1,1.8,1.4,3.9,1.3,5.9c0.1,2.1-0.3,4.2-1.3,6C757.6,107.2,756.2,108,754.7,108z M754.7,106.4
	c1,0,1.8-0.6,2.2-1.5c0.7-1.6,0.9-3.2,0.8-4.9c0.1-1.7-0.2-3.3-0.8-4.9c-0.5-1.2-1.8-1.8-3-1.3c-0.6,0.2-1.1,0.7-1.3,1.3
	c-0.7,1.5-1,3.2-0.8,4.9c-0.1,1.7,0.2,3.4,0.8,4.9C752.9,105.8,753.7,106.4,754.7,106.4L754.7,106.4z"/>
<path class="st3" d="M766.7,108c-1.5,0-2.9-0.8-3.6-2.1c-1-1.8-1.4-3.9-1.3-6c-0.1-2.1,0.3-4.1,1.3-5.9c1.2-2,3.8-2.6,5.8-1.4
	c0.6,0.4,1.1,0.8,1.4,1.4c1,1.8,1.4,3.9,1.3,5.9c0.1,2.1-0.3,4.2-1.3,6C769.6,107.2,768.2,108,766.7,108z M766.7,106.4
	c1,0,1.8-0.6,2.2-1.5c0.7-1.6,0.9-3.2,0.8-4.9c0.1-1.7-0.2-3.3-0.8-4.9c-0.5-1.2-1.8-1.8-3-1.3c-0.6,0.2-1.1,0.7-1.3,1.3
	c-0.7,1.5-1,3.2-0.8,4.9c-0.1,1.7,0.2,3.4,0.8,4.9C764.9,105.8,765.7,106.4,766.7,106.4L766.7,106.4z"/>
<path class="st3" d="M702.5,136.8v-1.6h3.5v-11.4h-2.8v-1.3c0.6-0.1,1.2-0.3,1.8-0.5c0.5-0.2,1-0.4,1.4-0.7h1.6v13.8h3.2v1.6
	L702.5,136.8z"/>
<path class="st3" d="M714.5,136.8v-1.6h3.5v-11.4h-2.8v-1.3c0.6-0.1,1.2-0.3,1.8-0.5c0.5-0.2,1-0.4,1.4-0.7h1.5v13.8h3.2v1.6H714.5z
	"/>
<path class="st3" d="M726.5,136.8v-1.6h3.5v-11.4h-2.8v-1.3c0.6-0.1,1.2-0.3,1.8-0.5c0.5-0.2,1-0.4,1.4-0.7h1.5v13.8h3.2v1.6H726.5z
	"/>
<path class="st3" d="M738.5,136.8v-1.6h3.5v-11.4h-2.8v-1.3c0.6-0.1,1.2-0.3,1.8-0.5c0.5-0.2,1-0.4,1.4-0.7h1.5v13.8h3.2v1.6H738.5z
	"/>
<path class="st3" d="M750.6,136.8v-1.6h3.5v-11.4h-2.8v-1.3c0.6-0.1,1.2-0.3,1.8-0.5c0.5-0.2,1-0.4,1.4-0.7h1.5v13.8h3.2v1.6H750.6z
	"/>
<path class="st3" d="M766.7,137.1c-1.5,0-2.9-0.8-3.6-2.1c-1-1.8-1.4-3.9-1.3-6c-0.1-2.1,0.3-4.1,1.3-5.9c1.2-2,3.9-2.6,5.9-1.4
	c0.6,0.4,1.1,0.8,1.4,1.4c1,1.8,1.4,3.9,1.3,5.9c0.1,2.1-0.3,4.2-1.3,6C769.6,136.3,768.2,137.1,766.7,137.1z M766.7,135.5
	c1,0,1.8-0.6,2.2-1.5c0.7-1.6,0.9-3.2,0.8-4.9c0.1-1.7-0.2-3.3-0.8-4.9c-0.5-1.2-1.8-1.8-3-1.3c-0.6,0.2-1.1,0.7-1.3,1.3
	c-0.7,1.5-1,3.2-0.8,4.9c-0.1,1.7,0.2,3.4,0.8,4.9C764.9,134.8,765.8,135.4,766.7,135.5z"/>
<polyline class="st0" points="942.1,2 943.5,0.4 945.7,0.4 "/>
<path class="st1" d="M949.9,0.4h70.9c5,0.2,9,4.4,8.9,9.4v139.5c0.1,5-3.8,9.2-8.9,9.4H928c-5-0.2-9-4.4-8.9-9.4V27.6l21.6-24"/>
<path class="st2" d="M923.2,28.2H939c5.4,0,9.8-4.4,9.8-9.8c0,0,0,0,0,0v-18"/>
<path class="st3" d="M945,49.6c-1.5,0-2.9-0.8-3.6-2.1c-1-1.8-1.4-3.9-1.3-6c-0.1-2.1,0.3-4.1,1.3-5.9c1.2-2,3.8-2.6,5.8-1.4
	c0.6,0.4,1.1,0.8,1.4,1.4c1,1.8,1.4,3.9,1.3,5.9c0.1,2.1-0.3,4.2-1.3,6C947.9,48.8,946.5,49.6,945,49.6z M945,48
	c1,0,1.8-0.6,2.2-1.5c0.7-1.6,0.9-3.2,0.8-4.9c0.1-1.7-0.2-3.3-0.8-4.9c-0.5-1.2-1.8-1.8-3-1.3c-0.6,0.2-1.1,0.7-1.3,1.3
	c-0.7,1.5-1,3.2-0.8,4.9c-0.1,1.7,0.2,3.4,0.8,4.9C943.2,47.3,944,48,945,48L945,48z"/>
<path class="st3" d="M952.9,49.3v-1.6h3.5V36.3h-2.8V35c0.6-0.1,1.2-0.2,1.8-0.5c0.5-0.2,1-0.4,1.4-0.7h1.5v13.8h3.2v1.7L952.9,49.3
	z"/>
<path class="st3" d="M969.1,49.6c-1.5,0-2.9-0.8-3.6-2.1c-1-1.8-1.4-3.9-1.3-6c-0.1-2.1,0.3-4.1,1.3-5.9c1.2-2,3.8-2.6,5.8-1.4
	c0.6,0.4,1.1,0.8,1.4,1.4c1,1.8,1.5,3.9,1.3,6c0.1,2.1-0.3,4.2-1.3,6C971.9,48.8,970.6,49.6,969.1,49.6z M969.1,48
	c1,0,1.8-0.6,2.2-1.5c0.7-1.6,0.9-3.2,0.8-4.9c0.1-1.7-0.2-3.3-0.8-4.9c-0.5-1.2-1.8-1.8-3-1.3c-0.6,0.2-1.1,0.7-1.3,1.3
	c-0.7,1.5-0.9,3.2-0.8,4.9c-0.1,1.7,0.2,3.4,0.8,4.9C967.2,47.3,968.1,48,969.1,48L969.1,48z"/>
<path class="st3" d="M977,49.3v-1.6h3.5V36.3h-2.8V35c0.6-0.1,1.2-0.2,1.8-0.5c0.5-0.2,1-0.4,1.4-0.7h1.5v13.8h3.2v1.7L977,49.3z"/>
<path class="st3" d="M993.1,49.6c-1.5,0-2.9-0.8-3.6-2.1c-1-1.8-1.4-3.9-1.3-6c-0.1-2.1,0.3-4.1,1.3-5.9c1.2-2,3.8-2.6,5.8-1.4
	c0.6,0.4,1.1,0.8,1.4,1.4c1,1.8,1.4,3.9,1.3,5.9c0.1,2.1-0.3,4.2-1.3,6C996,48.8,994.6,49.6,993.1,49.6z M993.1,48
	c1,0,1.8-0.6,2.2-1.5c0.7-1.6,0.9-3.2,0.8-4.9c0.1-1.7-0.2-3.3-0.8-4.9c-0.4-0.9-1.2-1.5-2.2-1.5c-1,0-1.8,0.6-2.2,1.5
	c-0.7,1.5-0.9,3.2-0.8,4.9c-0.1,1.7,0.2,3.4,0.8,4.9C991.3,47.3,992.1,48,993.1,48L993.1,48z"/>
<path class="st3" d="M1005.2,49.6c-1.5,0-2.9-0.8-3.7-2.1c-1-1.8-1.4-3.9-1.3-6c-0.1-2.1,0.3-4.1,1.3-5.9c1.2-2,3.8-2.6,5.9-1.4
	c0.6,0.4,1.1,0.8,1.4,1.4c1,1.8,1.4,3.9,1.3,5.9c0.1,2.1-0.3,4.2-1.3,6C1008,48.8,1006.7,49.6,1005.2,49.6z M1005.2,48
	c1,0,1.8-0.6,2.2-1.5c0.7-1.6,0.9-3.2,0.8-4.9c0.1-1.7-0.2-3.3-0.8-4.9c-0.5-1.2-1.8-1.8-3-1.3c-0.6,0.2-1.1,0.7-1.3,1.3
	c-0.7,1.5-1,3.2-0.8,4.9c-0.1,1.7,0.2,3.4,0.8,4.9C1003.3,47.3,1004.2,48,1005.2,48L1005.2,48z"/>
<path class="st3" d="M945,78.6c-1.5,0-2.9-0.8-3.6-2.1c-1-1.8-1.4-3.9-1.3-6c-0.1-2.1,0.3-4.1,1.3-5.9c1.2-2,3.8-2.6,5.8-1.4
	c0.6,0.4,1.1,0.8,1.4,1.4c1,1.8,1.4,3.9,1.3,5.9c0.1,2.1-0.3,4.2-1.3,6C947.9,77.8,946.5,78.6,945,78.6z M945,77
	c1,0,1.8-0.6,2.2-1.5c0.7-1.6,0.9-3.2,0.8-4.9c0.1-1.7-0.2-3.3-0.8-4.9c-0.5-1.2-1.8-1.8-3-1.3c-0.6,0.2-1.1,0.7-1.3,1.3
	c-0.7,1.5-1,3.2-0.8,4.9c-0.1,1.7,0.2,3.4,0.8,4.9C943.2,76.4,944,77,945,77L945,77z"/>
<path class="st3" d="M952.9,78.3v-1.7h3.5V65.3h-2.8V64c0.6-0.1,1.2-0.2,1.8-0.5c0.5-0.2,1-0.4,1.4-0.7h1.5v13.8h3.2v1.7H952.9z"/>
<path class="st3" d="M965,78.3v-1.7h3.5V65.3h-2.8V64c0.6-0.1,1.2-0.2,1.8-0.5c0.5-0.2,1-0.4,1.4-0.7h1.5v13.8h3.2v1.7H965z"/>
<path class="st3" d="M981.1,78.6c-1.5,0-2.9-0.8-3.6-2.1c-1-1.8-1.4-3.9-1.3-6c-0.1-2.1,0.3-4.1,1.3-5.9c1.2-2,3.8-2.6,5.8-1.4
	c0.6,0.4,1.1,0.8,1.4,1.4c1,1.8,1.4,3.9,1.3,5.9c0.1,2.1-0.3,4.2-1.3,6C983.9,77.8,982.6,78.6,981.1,78.6z M981.1,77
	c1,0,1.8-0.6,2.2-1.5c0.7-1.6,0.9-3.2,0.8-4.9c0.1-1.7-0.2-3.3-0.8-4.9c-0.5-1.2-1.8-1.8-3-1.3c-0.6,0.2-1.1,0.7-1.3,1.3
	c-0.7,1.5-0.9,3.2-0.8,4.9c-0.1,1.7,0.2,3.4,0.8,4.9C979.3,76.4,980.1,77,981.1,77L981.1,77z"/>
<path class="st3" d="M993.1,78.6c-1.5,0-2.9-0.8-3.6-2.1c-1-1.8-1.4-3.9-1.3-6c-0.1-2.1,0.3-4.1,1.3-5.9c1.2-2,3.8-2.6,5.8-1.4
	c0.6,0.4,1.1,0.8,1.4,1.4c1,1.8,1.4,3.9,1.3,5.9c0.1,2.1-0.3,4.2-1.3,6C996,77.8,994.6,78.6,993.1,78.6z M993.1,77
	c1,0,1.8-0.6,2.2-1.5c0.7-1.6,0.9-3.2,0.8-4.9c0.1-1.7-0.2-3.3-0.8-4.9c-0.4-0.9-1.2-1.5-2.2-1.5c-1,0-1.8,0.6-2.2,1.5
	c-0.7,1.5-0.9,3.2-0.8,4.9c-0.1,1.7,0.2,3.4,0.8,4.9C991.3,76.4,992.2,77,993.1,77L993.1,77z"/>
<path class="st3" d="M1005.2,78.6c-1.5,0-2.9-0.8-3.7-2.1c-1-1.8-1.4-3.9-1.3-6c-0.1-2.1,0.3-4.1,1.3-5.9c1.2-2,3.8-2.6,5.9-1.4
	c0.6,0.4,1.1,0.8,1.4,1.4c1,1.8,1.4,3.9,1.3,5.9c0.1,2.1-0.3,4.2-1.3,6C1008,77.8,1006.7,78.6,1005.2,78.6z M1005.2,77
	c1,0,1.8-0.6,2.2-1.5c0.7-1.6,0.9-3.2,0.8-4.9c0.1-1.7-0.2-3.3-0.8-4.9c-0.5-1.2-1.8-1.8-3-1.3c-0.6,0.2-1.1,0.7-1.3,1.3
	c-0.7,1.5-1,3.2-0.8,4.9c-0.1,1.7,0.2,3.4,0.8,4.9C1003.3,76.4,1004.2,77,1005.2,77L1005.2,77z"/>
<path class="st3" d="M940.9,107.4v-1.7h3.5V94.4h-2.8v-1.3c0.6-0.1,1.2-0.2,1.8-0.5c0.5-0.2,1-0.4,1.4-0.7h1.5v13.8h3.2v1.7
	L940.9,107.4z"/>
<path class="st3" d="M957,107.7c-1.5,0-2.9-0.8-3.6-2.1c-1-1.8-1.4-3.9-1.3-6c-0.1-2.1,0.3-4.1,1.3-5.9c1.2-2,3.8-2.6,5.8-1.4
	c0.6,0.4,1.1,0.8,1.4,1.4c1,1.8,1.5,3.9,1.4,6c0.1,2.1-0.3,4.2-1.3,6C959.9,106.9,958.5,107.7,957,107.7z M957,106.1
	c1,0,1.8-0.6,2.2-1.5c0.7-1.6,0.9-3.2,0.8-4.9c0.1-1.7-0.2-3.3-0.8-4.9c-0.5-1.2-1.8-1.8-3-1.3c-0.6,0.2-1.1,0.7-1.3,1.3
	c-0.7,1.5-0.9,3.2-0.8,4.9c-0.1,1.7,0.2,3.4,0.8,4.9C955.2,105.4,956,106,957,106.1z"/>
<path class="st3" d="M969.1,107.7c-1.5,0-2.9-0.8-3.6-2.1c-1-1.8-1.4-3.9-1.3-6c-0.1-2.1,0.3-4.1,1.3-5.9c1.2-2,3.8-2.6,5.8-1.4
	c0.6,0.4,1.1,0.8,1.4,1.4c1,1.8,1.5,3.9,1.3,6c0.1,2.1-0.3,4.2-1.3,6C971.9,106.9,970.6,107.7,969.1,107.7z M969.1,106.1
	c1,0,1.8-0.6,2.2-1.5c0.7-1.6,0.9-3.2,0.8-4.9c0.1-1.7-0.2-3.3-0.8-4.9c-0.5-1.2-1.8-1.8-3-1.3c-0.6,0.2-1.1,0.7-1.3,1.3
	c-0.7,1.5-0.9,3.2-0.8,4.9c-0.1,1.7,0.2,3.4,0.8,4.9C967.2,105.4,968.1,106,969.1,106.1z"/>
<path class="st3" d="M977,107.4v-1.7h3.5V94.4h-2.8v-1.3c0.6-0.1,1.2-0.2,1.8-0.5c0.5-0.2,1-0.4,1.4-0.7h1.5v13.8h3.2v1.7L977,107.4
	z"/>
<path class="st3" d="M993.1,107.7c-1.5,0-2.9-0.8-3.6-2.1c-1-1.8-1.4-3.9-1.3-6c-0.1-2.1,0.3-4.1,1.3-5.9c1.2-2,3.8-2.6,5.8-1.4
	c0.6,0.4,1.1,0.8,1.4,1.4c1,1.8,1.4,3.9,1.3,5.9c0.1,2.1-0.3,4.2-1.3,6C996,106.9,994.6,107.7,993.1,107.7z M993.1,106.1
	c1,0,1.8-0.6,2.2-1.5c0.7-1.6,0.9-3.2,0.8-4.9c0.1-1.7-0.2-3.3-0.8-4.9c-0.4-0.9-1.2-1.5-2.2-1.5c-1,0-1.8,0.6-2.2,1.5
	c-0.7,1.5-0.9,3.2-0.8,4.9c-0.1,1.7,0.2,3.4,0.8,4.9C991.3,105.4,992.2,106,993.1,106.1z"/>
<path class="st3" d="M1005.2,107.7c-1.5,0-2.9-0.8-3.7-2.1c-1-1.8-1.4-3.9-1.3-6c-0.1-2.1,0.3-4.1,1.3-5.9c1.2-2,3.8-2.6,5.9-1.4
	c0.6,0.4,1.1,0.8,1.4,1.4c1,1.8,1.4,3.9,1.3,5.9c0.1,2.1-0.3,4.2-1.3,6C1008,106.9,1006.7,107.7,1005.2,107.7z M1005.2,106.1
	c1,0,1.8-0.6,2.2-1.5c0.7-1.6,0.9-3.2,0.8-4.9c0.1-1.7-0.2-3.3-0.8-4.9c-0.5-1.2-1.8-1.8-3-1.3c-0.6,0.2-1.1,0.7-1.3,1.3
	c-0.7,1.5-1,3.2-0.8,4.9c-0.1,1.7,0.2,3.4,0.8,4.9C1003.3,105.4,1004.2,106,1005.2,106.1z"/>
<path class="st3" d="M940.9,136.4v-1.6h3.5v-11.4h-2.8v-1.3c0.6-0.1,1.2-0.2,1.8-0.5c0.5-0.2,1-0.4,1.4-0.7h1.5v13.8h3.2v1.6H940.9z
	"/>
<path class="st3" d="M952.9,136.4v-1.6h3.5v-11.4h-2.8v-1.3c0.6-0.1,1.2-0.2,1.8-0.5c0.5-0.2,1-0.4,1.4-0.7h1.5v13.8h3.2v1.6H952.9z
	"/>
<path class="st3" d="M965,136.4v-1.6h3.5v-11.4h-2.8v-1.3c0.6-0.1,1.2-0.2,1.8-0.5c0.5-0.2,1-0.4,1.4-0.7h1.5v13.8h3.2v1.6H965z"/>
<path class="st3" d="M977,136.4v-1.6h3.5v-11.4h-2.8v-1.3c0.6-0.1,1.2-0.2,1.8-0.5c0.5-0.2,1-0.4,1.4-0.7h1.5v13.8h3.2v1.6
	L977,136.4z"/>
<path class="st3" d="M989,136.4v-1.6h3.5v-11.4h-2.8v-1.3c0.6-0.1,1.2-0.2,1.8-0.5c0.5-0.2,1-0.4,1.4-0.7h1.5v13.8h3.2v1.6
	L989,136.4z"/>
<path class="st3" d="M1005.2,136.7c-1.5,0-2.9-0.8-3.7-2.1c-1-1.8-1.4-3.9-1.3-6c-0.1-2.1,0.3-4.1,1.3-5.9c1.2-2,3.8-2.6,5.9-1.4
	c0.6,0.4,1.1,0.8,1.4,1.4c1,1.8,1.4,3.9,1.3,5.9c0.1,2.1-0.3,4.2-1.3,6C1008,135.9,1006.7,136.7,1005.2,136.7z M1005.2,135.1
	c1,0,1.8-0.6,2.2-1.5c0.7-1.6,0.9-3.2,0.8-4.9c0.1-1.7-0.2-3.3-0.8-4.9c-0.5-1.2-1.8-1.8-3-1.3c-0.6,0.2-1.1,0.7-1.3,1.3
	c-0.7,1.5-1,3.2-0.8,4.9c-0.1,1.7,0.2,3.4,0.8,4.9C1003.3,134.5,1004.2,135.1,1005.2,135.1z"/>
<path class="st3" d="M699.2,202.1v-14.6h5c1.3,0,2.6,0.2,3.8,0.8c1.1,0.5,1.7,1.7,1.5,2.9c0,0.7-0.2,1.3-0.5,1.9
	c-0.3,0.6-0.8,1-1.4,1.2v0.1c0.7,0.2,1.4,0.6,1.9,1.1c0.5,0.6,0.8,1.5,0.8,2.3c0.1,1.3-0.5,2.6-1.7,3.3c-1.2,0.7-2.6,1-4,1
	L699.2,202.1z M702.5,193.4h1.5c0.6,0.1,1.2-0.1,1.8-0.5c0.4-0.3,0.6-0.8,0.5-1.2c0-1-0.8-1.6-2.3-1.6h-1.6L702.5,193.4z
	 M702.5,199.6h1.8c1.8,0,2.7-0.7,2.7-2s-0.9-1.8-2.7-1.8h-1.8V199.6z"/>
<path class="st3" d="M714.5,202.1v-14.6h3.3v14.6H714.5z"/>
<path class="st3" d="M723,202.1v-14.6h3.4l3.8,7.2l1.4,3.2h0.1c-0.1-0.8-0.1-1.6-0.2-2.6c-0.1-0.9-0.2-1.8-0.2-2.7v-5.1h3.1v14.6
	H731l-3.8-7.3l-1.4-3.2h-0.1c0.1,0.8,0.2,1.7,0.3,2.6c0.1,0.9,0.1,1.8,0.2,2.7v5.2H723z"/>
<path class="st3" d="M257.4,258.7v-14.6h3.3v14.6H257.4z"/>
<path class="st3" d="M265.9,258.7v-14.6h3.4l3.8,7.2l1.4,3.2h0.1c-0.1-0.8-0.1-1.6-0.2-2.6c-0.1-0.9-0.2-1.8-0.2-2.7v-5.1h3.1v14.6
	h-3.4l-3.8-7.3l-1.4-3.2h-0.1c0.1,0.8,0.2,1.7,0.3,2.6c0.1,0.9,0.1,1.8,0.2,2.7v5.2H265.9z"/>
<path class="st3" d="M747.4,202.1l-0.9-3.5h-4.5l-0.9,3.5h-3.3l4.6-14.6h4l4.6,14.6H747.4z M743.1,194.7l-0.4,1.3h3.1l-0.3-1.3
	c-0.2-0.7-0.4-1.5-0.6-2.3s-0.4-1.6-0.6-2.4h-0.1c-0.2,0.8-0.4,1.6-0.5,2.4S743.3,194,743.1,194.7z"/>
<path class="st3" d="M757.6,202.1h-3.3v-14.6h5.2c1.4,0,2.8,0.3,4,1c1.1,0.6,1.6,1.8,1.6,3.6c0,0.9-0.2,1.8-0.7,2.6
	c-0.5,0.7-1.1,1.2-1.9,1.6l3.3,5.8h-3.7l-2.8-5.3h-1.8L757.6,202.1z M757.6,194.2h1.7c1.8,0,2.7-0.7,2.7-2.2
	c0.1-0.6-0.2-1.2-0.7-1.5c-0.6-0.3-1.3-0.5-2-0.4h-1.7L757.6,194.2z"/>
<path class="st3" d="M772.3,202.1v-5.2l-4.4-9.4h3.5l1.3,3.4c0.2,0.6,0.4,1.1,0.6,1.6s0.4,1.1,0.6,1.6h0.1c0.2-0.6,0.4-1.1,0.6-1.6
	l0.6-1.6l1.3-3.4h3.5l-4.4,9.4v5.2H772.3z"/>
<path d="M980.1,49.5h26.5c3.2,0,5.7,2.6,5.7,5.7v60.6c0,3.2-2.6,5.7-5.7,5.7h-26.5c-3.2,0-5.7-2.6-5.7-5.7V55.2
	C974.4,52.1,977,49.5,980.1,49.5z"/>
<path class="st7" d="M1024.8,36.9h69.4c8.7,0,15.8,7.1,15.8,15.8v69.4c0,8.7-7.1,15.8-15.8,15.8h-69.4c-8.7,0-15.8-7.1-15.8-15.8
	V52.7C1009,44,1016.1,36.9,1024.8,36.9z"/>
<path class="st7" d="M1025.4,43.7h68.2c5.3,0,9.6,4.3,9.6,9.6v68.2c0,5.3-4.3,9.6-9.6,9.6h-68.2c-5.3,0-9.6-4.3-9.6-9.6V53.3
	C1015.8,48,1020.1,43.7,1025.4,43.7z"/>
<path class="st7" d="M1027.7,10.2L1027.7,10.2c1.6,0,2.8,1.3,2.8,2.8v13c0,1.6-1.3,2.8-2.8,2.8h0c-1.6,0-2.8-1.3-2.8-2.8v-13
	C1024.9,11.5,1026.1,10.2,1027.7,10.2z"/>
<path class="st7" d="M1043.8,10.2L1043.8,10.2c1.6,0,2.8,1.3,2.8,2.8v13c0,1.6-1.3,2.8-2.8,2.8h0c-1.6,0-2.8-1.3-2.8-2.8v-13
	C1041,11.5,1042.3,10.2,1043.8,10.2z"/>
<path class="st7" d="M1076.1,10.2L1076.1,10.2c1.6,0,2.8,1.3,2.8,2.8v13c0,1.6-1.3,2.8-2.8,2.8h0c-1.6,0-2.8-1.3-2.8-2.8v-13
	C1073.3,11.5,1074.6,10.2,1076.1,10.2z"/>
<path class="st7" d="M1060,10.2L1060,10.2c1.6,0,2.8,1.3,2.8,2.8v13c0,1.6-1.3,2.8-2.8,2.8h0c-1.6,0-2.8-1.3-2.8-2.8v-13
	C1057.2,11.5,1058.4,10.2,1060,10.2z"/>
<path class="st7" d="M1092.3,10.2L1092.3,10.2c1.6,0,2.8,1.3,2.8,2.8v13c0,1.6-1.3,2.8-2.8,2.8h0c-1.6,0-2.8-1.3-2.8-2.8v-13
	C1089.5,11.5,1090.8,10.2,1092.3,10.2z"/>
<path class="st7" d="M1027.7,147.2L1027.7,147.2c1.6,0,2.8,1.3,2.8,2.8v13c0,1.6-1.3,2.8-2.8,2.8h0c-1.6,0-2.8-1.3-2.8-2.8v-13
	C1024.9,148.4,1026.1,147.2,1027.7,147.2z"/>
<path class="st7" d="M1043.8,147.2L1043.8,147.2c1.6,0,2.8,1.3,2.8,2.8v13c0,1.6-1.3,2.8-2.8,2.8h0c-1.6,0-2.8-1.3-2.8-2.8v-13
	C1041,148.4,1042.3,147.2,1043.8,147.2z"/>
<path class="st7" d="M1076.1,147.2L1076.1,147.2c1.6,0,2.8,1.3,2.8,2.8v13c0,1.6-1.3,2.8-2.8,2.8h0c-1.6,0-2.8-1.3-2.8-2.8v-13
	C1073.3,148.4,1074.6,147.2,1076.1,147.2z"/>
<path class="st7" d="M1060,147.2L1060,147.2c1.6,0,2.8,1.3,2.8,2.8v13c0,1.6-1.3,2.8-2.8,2.8h0c-1.6,0-2.8-1.3-2.8-2.8v-13
	C1057.2,148.4,1058.4,147.2,1060,147.2z"/>
<path class="st7" d="M1092.3,147.2L1092.3,147.2c1.6,0,2.8,1.3,2.8,2.8v13c0,1.6-1.3,2.8-2.8,2.8h0c-1.6,0-2.8-1.3-2.8-2.8v-13
	C1089.5,148.4,1090.8,147.2,1092.3,147.2z"/>
<path class="st7" d="M1138.2,52.3L1138.2,52.3c0,1.6-1.3,2.8-2.8,2.8h-13c-1.6,0-2.8-1.3-2.8-2.8v0c0-1.6,1.3-2.8,2.8-2.8h13
	C1136.9,49.5,1138.2,50.8,1138.2,52.3z"/>
<path class="st7" d="M1138.2,68.5L1138.2,68.5c0,1.6-1.3,2.8-2.8,2.8h-13c-1.6,0-2.8-1.3-2.8-2.8v0c0-1.6,1.3-2.8,2.8-2.8h13
	C1136.9,65.7,1138.2,66.9,1138.2,68.5z"/>
<path class="st7" d="M1138.2,100.8L1138.2,100.8c0,1.6-1.3,2.8-2.8,2.8h-13c-1.6,0-2.8-1.3-2.8-2.8v0c0-1.6,1.3-2.8,2.8-2.8h13
	C1136.9,98,1138.2,99.2,1138.2,100.8z"/>
<path class="st7" d="M1138.2,84.6L1138.2,84.6c0,1.6-1.3,2.8-2.8,2.8h-13c-1.6,0-2.8-1.3-2.8-2.8v0c0-1.6,1.3-2.8,2.8-2.8h13
	C1136.9,81.8,1138.2,83.1,1138.2,84.6z"/>
<path class="st7" d="M1138.2,116.9L1138.2,116.9c0,1.6-1.3,2.8-2.8,2.8h-13c-1.6,0-2.8-1.3-2.8-2.8v0c0-1.6,1.3-2.8,2.8-2.8h13
	C1136.9,114.1,1138.2,115.4,1138.2,116.9z"/>
<path class="st7" d="M999.5,52.3L999.5,52.3c0,1.6-1.3,2.8-2.8,2.8h-13c-1.6,0-2.8-1.3-2.8-2.8l0,0c0-1.6,1.3-2.8,2.8-2.8h13
	C998.2,49.5,999.5,50.8,999.5,52.3z"/>
<path class="st7" d="M999.5,68.5L999.5,68.5c0,1.6-1.3,2.8-2.8,2.8h-13c-1.6,0-2.8-1.3-2.8-2.8l0,0c0-1.6,1.3-2.8,2.8-2.8h13
	C998.2,65.7,999.5,66.9,999.5,68.5z"/>
<path class="st7" d="M999.5,100.8L999.5,100.8c0,1.6-1.3,2.8-2.8,2.8h-13c-1.6,0-2.8-1.3-2.8-2.8l0,0c0-1.6,1.3-2.8,2.8-2.8h13
	C998.2,98,999.5,99.2,999.5,100.8z"/>
<path class="st7" d="M999.5,84.6L999.5,84.6c0,1.6-1.3,2.8-2.8,2.8h-13c-1.6,0-2.8-1.3-2.8-2.8l0,0c0-1.6,1.3-2.8,2.8-2.8h13
	C998.2,81.8,999.5,83.1,999.5,84.6z"/>
<path class="st7" d="M999.5,116.9L999.5,116.9c0,1.6-1.3,2.8-2.8,2.8h-13c-1.6,0-2.8-1.3-2.8-2.8l0,0c0-1.6,1.3-2.8,2.8-2.8h13
	C998.2,114.1,999.5,115.4,999.5,116.9z"/>
<path class="st3" d="M1044.7,80.2c-2.1,0-4.1-0.8-5.5-2.4c-1.6-1.9-2.3-4.3-2.2-6.7c-0.1-2.4,0.7-4.8,2.2-6.7
	c1.4-1.6,3.5-2.5,5.6-2.4c1,0,2,0.2,2.8,0.7c0.7,0.4,1.4,0.9,2,1.5l-1.2,1.4c-0.5-0.5-1-0.9-1.6-1.2c-0.6-0.3-1.3-0.5-2-0.5
	c-1.6,0-3.1,0.7-4,1.9c-1.1,1.5-1.6,3.3-1.5,5.2c-0.1,1.9,0.4,3.7,1.5,5.3c1.5,1.9,4.1,2.5,6.2,1.4c0.7-0.4,1.3-0.9,1.8-1.5l1.2,1.4
	c-0.7,0.8-1.5,1.4-2.4,1.9C1046.8,80,1045.7,80.2,1044.7,80.2z"/>
<path class="st3" d="M1053.3,79.9V62.3h5c1.7-0.1,3.3,0.3,4.8,1.1c1.2,0.8,1.8,2.1,1.8,4c0.1,1.6-0.6,3.1-1.8,4.1
	c-1.4,0.9-3,1.4-4.7,1.3h-2.9v7L1053.3,79.9z M1055.6,71.1h2.6c3,0,4.5-1.2,4.5-3.6c0.1-1-0.3-2-1.2-2.6c-1.1-0.6-2.3-0.8-3.5-0.7
	h-2.5V71.1z"/>
<path class="st3" d="M1074.8,80.2c-1.7,0-3.3-0.6-4.5-1.7c-1.2-1.1-1.8-3.1-1.8-5.9V62.3h2.2v10.4c0,2.1,0.4,3.6,1.2,4.4
	c0.8,0.8,1.8,1.2,2.9,1.2c1.1,0,2.2-0.4,3-1.2c0.8-0.8,1.2-2.3,1.2-4.4V62.3h2.2v10.3c0,2.8-0.6,4.8-1.8,5.9
	C1078.1,79.7,1076.5,80.3,1074.8,80.2z"/>
<path class="st3" d="M1058.6,95v-5.2h-4.9v-1.7h4.9v-5.2h1.8v5.2h4.9v1.7h-4.9V95H1058.6z"/>
<path class="st3" d="M1044.5,116c-1.2,0-2.4-0.2-3.4-0.7c-1-0.4-2-1.1-2.7-1.9l1.3-1.6c0.6,0.7,1.4,1.2,2.2,1.6
	c0.8,0.4,1.7,0.6,2.6,0.6c1,0.1,1.9-0.2,2.7-0.8c0.6-0.5,1-1.3,1-2.1c0.1-0.8-0.2-1.5-0.8-2c-0.7-0.5-1.4-0.8-2.1-1.2l-2.5-1.1
	c-0.9-0.4-1.7-0.9-2.4-1.6c-0.8-0.8-1.2-1.9-1.2-3c0-1.3,0.6-2.5,1.6-3.3c1.1-0.9,2.5-1.4,4-1.3c1,0,2,0.2,2.9,0.6
	c0.9,0.4,1.6,0.9,2.3,1.6l-1.2,1.4c-0.5-0.5-1.1-0.9-1.8-1.2c-0.7-0.3-1.5-0.5-2.2-0.4c-0.8,0-1.7,0.2-2.4,0.7
	c-0.6,0.4-0.9,1.1-0.9,1.9c0,0.8,0.3,1.5,0.9,1.9c0.6,0.4,1.3,0.7,2,1l2.5,1.1c1,0.4,1.8,1,2.6,1.7c0.7,0.8,1.1,1.9,1,3
	c0,1.4-0.6,2.7-1.6,3.6C1047.7,115.5,1046.1,116.1,1044.5,116z"/>
<path class="st3" d="M1060.9,116c-2.2,0.1-4.3-0.8-5.7-2.4c-1.6-1.9-2.4-4.3-2.2-6.7c-0.1-2.4,0.7-4.8,2.3-6.7
	c1.5-1.6,3.6-2.5,5.8-2.4c1.1,0,2.1,0.2,3.1,0.7c0.7,0.4,1.4,0.9,2,1.5l-1.2,1.4c-0.5-0.5-1-0.9-1.6-1.2c-0.7-0.3-1.5-0.5-2.2-0.5
	c-1.6-0.1-3.2,0.7-4.2,1.9c-1.1,1.5-1.7,3.3-1.6,5.2c-0.1,1.9,0.4,3.7,1.5,5.3c1,1.3,2.6,2.1,4.3,2c1.2,0.1,2.3-0.3,3.2-1.1v-4.6
	h-3.7v-1.8h5.8v7.4c-0.6,0.6-1.4,1.1-2.3,1.5C1063,115.8,1061.9,116,1060.9,116z"/>
<path class="st3" d="M1068.5,115.7l5.1-9.1l-4.8-8.5h2.5l2.4,4.5c0.2,0.4,0.4,0.8,0.7,1.2l0.7,1.4h0.1l0.7-1.4
	c0.2-0.4,0.4-0.8,0.6-1.2l2.3-4.5h2.4l-4.8,8.6l5.1,9h-2.4l-2.6-4.8l-0.7-1.3c-0.2-0.5-0.5-1-0.8-1.5h-0.1c-0.2,0.5-0.5,1-0.7,1.5
	s-0.5,0.9-0.7,1.3l-2.6,4.8L1068.5,115.7z"/>
<line class="st4" x1="159" y1="88" x2="235.9" y2="88"/>
<polyline class="st4" points="230.8,83.7 235.9,88.1 230.8,92.3 "/>
<line class="st4" x1="576.2" y1="88" x2="653.1" y2="88"/>
<polyline class="st4" points="648,83.7 653.1,88.1 648,92.3 "/>
<line class="st4" x1="806.8" y1="88" x2="883.7" y2="88"/>
<polyline class="st4" points="878.5,83.7 883.7,88.1 878.5,92.3 "/>
</svg>
