<?xml version="1.0" encoding="UTF-8"?>
<svg xmlns="http://www.w3.org/2000/svg" viewBox="0 0 537.21 228.52"><defs><style>.cls-1{fill:#128dc4;}.cls-2,.cls-3,.cls-4,.cls-6{fill:none;}.cls-2,.cls-3,.cls-4,.cls-5{stroke:#969696;stroke-width:0.89px;}.cls-2,.cls-3,.cls-4,.cls-5,.cls-6{stroke-miterlimit:10;}.cls-3{stroke-dasharray:4.25 4.25;}.cls-4,.cls-5{stroke-dasharray:4.24;}.cls-6{stroke:#128dc4;stroke-width:1.34px;}.cls-7{fill:#dd2a7c;}.cls-8{fill:#ddd;}</style></defs><title>proces integracji graphene</title><g id="Warstwa_2" data-name="Warstwa 2"><g id="Warstwa_1-2" data-name="Warstwa 1"><path class="cls-1" d="M5.83,201.71A5.48,5.48,0,0,1,1.5,200Q0,198.36,0,194.7v-7.82H3.31V195A5.13,5.13,0,0,0,4,198a2.24,2.24,0,0,0,1.88.85,2.3,2.3,0,0,0,1.9-.85,5,5,0,0,0,.67-3v-8.16h3.17v7.82q0,3.66-1.46,5.34A5.37,5.37,0,0,1,5.83,201.71Z"/><path class="cls-1" d="M16.73,201.45V186.88H20.1l3.8,7.24,1.43,3.22h.09c-.06-.78-.14-1.64-.25-2.59A26.4,26.4,0,0,1,25,192v-5.14h3.12v14.57H24.77L21,194.19,19.54,191h-.09c.08.8.16,1.66.26,2.59a24.76,24.76,0,0,1,.15,2.68v5.16Z"/><path class="cls-1" d="M33.37,201.45V186.88H37l2.35,6.48q.22.63.42,1.32c.14.46.28.91.43,1.36h.09c.15-.45.28-.9.41-1.36s.26-.9.41-1.32l2.3-6.48H47v14.57H44v-5.34a24.12,24.12,0,0,1,.16-2.49c.11-1,.19-1.77.27-2.47h-.09l-1.18,3.46L41,200.17H39.22l-2.08-5.56L36,191.15h-.09c.08.7.17,1.52.27,2.47a24.12,24.12,0,0,1,.16,2.49v5.34Z"/><path class="cls-1" d="M58.09,201.71a6.15,6.15,0,0,1-4.78-2,8,8,0,0,1-1.83-5.59,7.79,7.79,0,0,1,1.83-5.53,6.82,6.82,0,0,1,9.56,0,7.79,7.79,0,0,1,1.83,5.52,8,8,0,0,1-1.83,5.59A6.13,6.13,0,0,1,58.09,201.71Zm0-2.83a2.71,2.71,0,0,0,2.37-1.3,6.14,6.14,0,0,0,.87-3.48,5.85,5.85,0,0,0-.87-3.41,2.88,2.88,0,0,0-4.73,0,5.78,5.78,0,0,0-.88,3.41,6.06,6.06,0,0,0,.88,3.48A2.69,2.69,0,0,0,58.09,198.88Z"/><path class="cls-1" d="M69.24,201.45V186.88h4.11a7.8,7.8,0,0,1,5.31,1.73q2,1.74,2,5.49t-2,5.55a7.33,7.33,0,0,1-5.15,1.8Zm3.28-2.66h.63a4.29,4.29,0,0,0,3-1c.76-.69,1.14-1.91,1.14-3.65s-.38-2.94-1.14-3.59a4.5,4.5,0,0,0-3-1h-.63Z"/><path class="cls-1" d="M85.21,201.45V186.88h3.28v14.57Z"/><path class="cls-1" d="M93.72,201.45V186.88h9.18v2.77H97V193h5v2.76H97v5.66Z"/><path class="cls-1" d="M107.21,201.45V186.88h3.28v14.57Z"/><path class="cls-1" d="M115.72,201.45V186.88h9.11v2.77H119v2.93h5v2.75h-5v3.35h6v2.77Z"/><path class="cls-1" d="M129.74,201.45V186.88h4.11a7.85,7.85,0,0,1,5.32,1.73q2,1.74,2,5.49t-2,5.55a7.34,7.34,0,0,1-5.16,1.8Zm3.28-2.66h.63a4.27,4.27,0,0,0,3-1c.76-.69,1.14-1.91,1.14-3.65s-.38-2.94-1.14-3.59a4.48,4.48,0,0,0-3-1H133Z"/><path class="cls-1" d="M.2,228.25V213.69H9.31v2.76H3.48v2.93h5v2.75h-5v3.35H9.54v2.77Z"/><path class="cls-1" d="M12.75,228.25l4.05-7.48L13,213.69h3.66l1.27,2.74c.17.35.33.71.5,1.09s.35.8.55,1.26h.09q.25-.69.48-1.26l.46-1.09,1.16-2.74h3.51l-3.78,7.23,4,7.33H21.26l-1.45-3c-.18-.37-.35-.75-.52-1.14l-.57-1.25h-.09c-.17.44-.33.86-.51,1.25s-.33.77-.48,1.14l-1.36,3Z"/><path class="cls-1" d="M28.68,228.25V213.69h9.11v2.76H32v2.93h5v2.75H32v3.35h6v2.77Z"/><path class="cls-1" d="M48.78,228.52a6.93,6.93,0,0,1-3.39-.85,6.34,6.34,0,0,1-2.45-2.5,8.33,8.33,0,0,1-.93-4.11,8.43,8.43,0,0,1,1-4.13,6.67,6.67,0,0,1,2.52-2.61,6.77,6.77,0,0,1,3.41-.9,5.44,5.44,0,0,1,2.52.57,6.82,6.82,0,0,1,1.86,1.33l-1.74,2.1a5.34,5.34,0,0,0-1.18-.84,2.88,2.88,0,0,0-1.39-.33,3.19,3.19,0,0,0-2.54,1.25,5.27,5.27,0,0,0-1,3.44,5.61,5.61,0,0,0,1,3.5,3.08,3.08,0,0,0,2.57,1.24,3.24,3.24,0,0,0,1.6-.39,5.12,5.12,0,0,0,1.24-1l1.74,2.05A5.91,5.91,0,0,1,48.78,228.52Z"/><path class="cls-1" d="M63.23,228.52a5.48,5.48,0,0,1-4.33-1.68q-1.5-1.68-1.5-5.34v-7.81h3.3v8.15a5.12,5.12,0,0,0,.65,3,2.21,2.21,0,0,0,1.88.85,2.27,2.27,0,0,0,1.9-.85,5,5,0,0,0,.67-3v-8.15H69v7.81q0,3.66-1.46,5.34A5.37,5.37,0,0,1,63.23,228.52Z"/><path class="cls-1" d="M77,228.25v-11.8H73v-2.76h11.3v2.76h-4v11.8Z"/><path class="cls-1" d="M96.06,228.25l-.89-3.46H90.72l-.89,3.46H86.48L91,213.69H95l4.56,14.56Zm-4.31-7.37-.36,1.34H94.5l-.34-1.34c-.21-.73-.41-1.51-.6-2.33s-.39-1.6-.58-2.36h-.09l-.55,2.38C92.16,219.38,92,220.15,91.75,220.88Z"/><path class="cls-1" d="M102.92,228.25V213.69h5a8.74,8.74,0,0,1,3.81.75,2.89,2.89,0,0,1,1.55,2.86,3.94,3.94,0,0,1-.5,1.9,2.62,2.62,0,0,1-1.4,1.25v.09a3.75,3.75,0,0,1,1.85,1.13A3.26,3.26,0,0,1,114,224a3.54,3.54,0,0,1-1.64,3.26,7.36,7.36,0,0,1-4,1Zm3.28-8.74h1.54a2.71,2.71,0,0,0,1.76-.46,1.59,1.59,0,0,0,.54-1.26q0-1.56-2.28-1.56H106.2Zm0,6.19h1.85c1.81,0,2.71-.65,2.71-2s-.9-1.79-2.71-1.79H106.2Z"/><path class="cls-1" d="M118.22,228.25V213.69h3.28v11.79h5.76v2.77Z"/><path class="cls-1" d="M131.57,228.25V213.69h9.12v2.76h-5.83v2.93h4.95v2.75h-4.95v3.35h6v2.77Z"/><polyline class="cls-2" points="301.69 2.02 303.1 0.45 305.22 0.45"/><path class="cls-3" d="M309.47.45h70.86a9.15,9.15,0,0,1,8.85,9.38V149.2c0,5.16-4,9.39-8.85,9.39H287.59a9.17,9.17,0,0,1-8.86-9.39V27.54L300.26,3.6"/><path class="cls-4" d="M278.73,28.19h15.71a9.77,9.77,0,0,0,9.77-9.77V.45"/><path class="cls-1" d="M304.57,49.51a4.09,4.09,0,0,1-3.64-2.08,11.15,11.15,0,0,1-1.32-6,10.89,10.89,0,0,1,1.32-5.92,4.25,4.25,0,0,1,7.25,0,10.89,10.89,0,0,1,1.32,5.92,11.15,11.15,0,0,1-1.32,6A4.06,4.06,0,0,1,304.57,49.51Zm0-1.59a2.46,2.46,0,0,0,2.16-1.54,10.75,10.75,0,0,0,.84-4.92,10.43,10.43,0,0,0-.84-4.87,2.45,2.45,0,0,0-2.16-1.49,2.49,2.49,0,0,0-2.19,1.49,10.45,10.45,0,0,0-.83,4.87,10.78,10.78,0,0,0,.83,4.92A2.5,2.5,0,0,0,304.57,47.92Z"/><path class="cls-1" d="M312.48,49.22V47.58H316V36.21H313.2V34.93a9.5,9.5,0,0,0,1.84-.46,8.24,8.24,0,0,0,1.43-.67H318V47.58h3.19v1.64Z"/><path class="cls-1" d="M328.6,49.51A4.1,4.1,0,0,1,325,47.43a11.25,11.25,0,0,1-1.31-6A11,11,0,0,1,325,35.54a4.26,4.26,0,0,1,7.26,0,10.89,10.89,0,0,1,1.32,5.92,11.15,11.15,0,0,1-1.32,6A4.08,4.08,0,0,1,328.6,49.51Zm0-1.59a2.48,2.48,0,0,0,2.17-1.54,10.91,10.91,0,0,0,.83-4.92,10.58,10.58,0,0,0-.83-4.87,2.34,2.34,0,0,0-4.36,0,10.58,10.58,0,0,0-.83,4.87,10.91,10.91,0,0,0,.83,4.92A2.5,2.5,0,0,0,328.6,47.92Z"/><path class="cls-1" d="M336.51,49.22V47.58H340V36.21h-2.81V34.93a9.32,9.32,0,0,0,1.84-.46,8.24,8.24,0,0,0,1.43-.67H342V47.58h3.19v1.64Z"/><path class="cls-1" d="M352.64,49.51A4.09,4.09,0,0,1,349,47.43a11.15,11.15,0,0,1-1.32-6A10.89,10.89,0,0,1,349,35.54a4.25,4.25,0,0,1,7.25,0,10.89,10.89,0,0,1,1.32,5.92,11.15,11.15,0,0,1-1.32,6A4.07,4.07,0,0,1,352.64,49.51Zm0-1.59a2.48,2.48,0,0,0,2.16-1.54,10.78,10.78,0,0,0,.83-4.92,10.45,10.45,0,0,0-.83-4.87,2.33,2.33,0,0,0-4.35,0,10.43,10.43,0,0,0-.84,4.87,10.75,10.75,0,0,0,.84,4.92A2.48,2.48,0,0,0,352.64,47.92Z"/><path class="cls-1" d="M364.65,49.51A4.1,4.1,0,0,1,361,47.43a11.25,11.25,0,0,1-1.31-6A11,11,0,0,1,361,35.54a4.26,4.26,0,0,1,7.26,0,10.89,10.89,0,0,1,1.32,5.92,11.15,11.15,0,0,1-1.32,6A4.08,4.08,0,0,1,364.65,49.51Zm0-1.59a2.48,2.48,0,0,0,2.17-1.54,10.91,10.91,0,0,0,.83-4.92,10.58,10.58,0,0,0-.83-4.87,2.34,2.34,0,0,0-4.36,0,10.58,10.58,0,0,0-.83,4.87,10.91,10.91,0,0,0,.83,4.92A2.5,2.5,0,0,0,364.65,47.92Z"/><path class="cls-1" d="M304.57,78.53a4.11,4.11,0,0,1-3.64-2.08,11.21,11.21,0,0,1-1.32-6,10.91,10.91,0,0,1,1.32-5.92,4.25,4.25,0,0,1,7.25,0,10.91,10.91,0,0,1,1.32,5.92,11.21,11.21,0,0,1-1.32,6A4.08,4.08,0,0,1,304.57,78.53Zm0-1.6a2.45,2.45,0,0,0,2.16-1.53,10.83,10.83,0,0,0,.84-4.93,10.46,10.46,0,0,0-.84-4.87,2.44,2.44,0,0,0-2.16-1.48,2.48,2.48,0,0,0-2.19,1.48,10.48,10.48,0,0,0-.83,4.87,10.85,10.85,0,0,0,.83,4.93A2.49,2.49,0,0,0,304.57,76.93Z"/><path class="cls-1" d="M312.48,78.24V76.59H316V65.23H313.2V64a11.22,11.22,0,0,0,1.84-.46,8.25,8.25,0,0,0,1.43-.68H318V76.59h3.19v1.65Z"/><path class="cls-1" d="M324.49,78.24V76.59H328V65.23h-2.8V64a11.49,11.49,0,0,0,1.84-.46,8.14,8.14,0,0,0,1.42-.68H330V76.59h3.19v1.65Z"/><path class="cls-1" d="M340.62,78.53A4.11,4.11,0,0,1,337,76.45a11.21,11.21,0,0,1-1.32-6A10.91,10.91,0,0,1,337,64.55a4.25,4.25,0,0,1,7.25,0,10.91,10.91,0,0,1,1.32,5.92,11.21,11.21,0,0,1-1.32,6A4.08,4.08,0,0,1,340.62,78.53Zm0-1.6a2.45,2.45,0,0,0,2.16-1.53,10.83,10.83,0,0,0,.84-4.93,10.46,10.46,0,0,0-.84-4.87,2.44,2.44,0,0,0-2.16-1.48,2.48,2.48,0,0,0-2.19,1.48,10.61,10.61,0,0,0-.83,4.87,11,11,0,0,0,.83,4.93A2.49,2.49,0,0,0,340.62,76.93Z"/><path class="cls-1" d="M352.64,78.53A4.11,4.11,0,0,1,349,76.45a11.21,11.21,0,0,1-1.32-6A10.91,10.91,0,0,1,349,64.55a4.25,4.25,0,0,1,7.25,0,10.91,10.91,0,0,1,1.32,5.92,11.21,11.21,0,0,1-1.32,6A4.09,4.09,0,0,1,352.64,78.53Zm0-1.6a2.47,2.47,0,0,0,2.16-1.53,10.85,10.85,0,0,0,.83-4.93,10.48,10.48,0,0,0-.83-4.87,2.34,2.34,0,0,0-4.35,0,10.46,10.46,0,0,0-.84,4.87,10.83,10.83,0,0,0,.84,4.93A2.47,2.47,0,0,0,352.64,76.93Z"/><path class="cls-1" d="M364.65,78.53A4.12,4.12,0,0,1,361,76.45a11.31,11.31,0,0,1-1.31-6A11,11,0,0,1,361,64.55a4.26,4.26,0,0,1,7.26,0,10.91,10.91,0,0,1,1.32,5.92,11.21,11.21,0,0,1-1.32,6A4.11,4.11,0,0,1,364.65,78.53Zm0-1.6a2.47,2.47,0,0,0,2.17-1.53,11,11,0,0,0,.83-4.93,10.61,10.61,0,0,0-.83-4.87,2.35,2.35,0,0,0-4.36,0,10.61,10.61,0,0,0-.83,4.87,11,11,0,0,0,.83,4.93A2.49,2.49,0,0,0,364.65,76.93Z"/><path class="cls-1" d="M300.46,107.25v-1.64H304V94.24h-2.81V93A9.32,9.32,0,0,0,303,92.5a8.24,8.24,0,0,0,1.43-.67H306v13.78h3.19v1.64Z"/><path class="cls-1" d="M316.59,107.54a4.09,4.09,0,0,1-3.64-2.08,11.15,11.15,0,0,1-1.32-6A10.91,10.91,0,0,1,313,93.57a4.25,4.25,0,0,1,7.25,0,10.91,10.91,0,0,1,1.32,5.92,11.15,11.15,0,0,1-1.32,6A4.07,4.07,0,0,1,316.59,107.54Zm0-1.59a2.48,2.48,0,0,0,2.16-1.54,10.78,10.78,0,0,0,.83-4.92,10.45,10.45,0,0,0-.83-4.87,2.33,2.33,0,0,0-4.35,0,10.43,10.43,0,0,0-.84,4.87,10.75,10.75,0,0,0,.84,4.92A2.48,2.48,0,0,0,316.59,106Z"/><path class="cls-1" d="M328.6,107.54a4.1,4.1,0,0,1-3.64-2.08,11.25,11.25,0,0,1-1.31-6A11,11,0,0,1,325,93.57a4.26,4.26,0,0,1,7.26,0,10.91,10.91,0,0,1,1.32,5.92,11.15,11.15,0,0,1-1.32,6A4.08,4.08,0,0,1,328.6,107.54Zm0-1.59a2.48,2.48,0,0,0,2.17-1.54,10.91,10.91,0,0,0,.83-4.92,10.58,10.58,0,0,0-.83-4.87,2.34,2.34,0,0,0-4.36,0,10.58,10.58,0,0,0-.83,4.87,10.91,10.91,0,0,0,.83,4.92A2.5,2.5,0,0,0,328.6,106Z"/><path class="cls-1" d="M336.51,107.25v-1.64H340V94.24h-2.81V93a9.32,9.32,0,0,0,1.84-.46,8.24,8.24,0,0,0,1.43-.67H342v13.78h3.19v1.64Z"/><path class="cls-1" d="M352.64,107.54a4.09,4.09,0,0,1-3.64-2.08,11.15,11.15,0,0,1-1.32-6A10.91,10.91,0,0,1,349,93.57a4.25,4.25,0,0,1,7.25,0,10.91,10.91,0,0,1,1.32,5.92,11.15,11.15,0,0,1-1.32,6A4.07,4.07,0,0,1,352.64,107.54Zm0-1.59a2.48,2.48,0,0,0,2.16-1.54,10.78,10.78,0,0,0,.83-4.92,10.45,10.45,0,0,0-.83-4.87,2.33,2.33,0,0,0-4.35,0,10.43,10.43,0,0,0-.84,4.87,10.75,10.75,0,0,0,.84,4.92A2.48,2.48,0,0,0,352.64,106Z"/><path class="cls-1" d="M364.65,107.54a4.1,4.1,0,0,1-3.64-2.08,11.25,11.25,0,0,1-1.31-6A11,11,0,0,1,361,93.57a4.26,4.26,0,0,1,7.26,0,10.91,10.91,0,0,1,1.32,5.92,11.15,11.15,0,0,1-1.32,6A4.08,4.08,0,0,1,364.65,107.54Zm0-1.59a2.48,2.48,0,0,0,2.17-1.54,10.91,10.91,0,0,0,.83-4.92,10.58,10.58,0,0,0-.83-4.87,2.34,2.34,0,0,0-4.36,0,10.58,10.58,0,0,0-.83,4.87,10.91,10.91,0,0,0,.83,4.92A2.5,2.5,0,0,0,364.65,106Z"/><path class="cls-1" d="M300.46,136.27v-1.65H304V123.26h-2.81V122a11,11,0,0,0,1.84-.46,8.25,8.25,0,0,0,1.43-.68H306v13.78h3.19v1.65Z"/><path class="cls-1" d="M312.48,136.27v-1.65H316V123.26H313.2V122a11.22,11.22,0,0,0,1.84-.46,8.25,8.25,0,0,0,1.43-.68H318v13.78h3.19v1.65Z"/><path class="cls-1" d="M324.49,136.27v-1.65H328V123.26h-2.8V122a11.49,11.49,0,0,0,1.84-.46,8.14,8.14,0,0,0,1.42-.68H330v13.78h3.19v1.65Z"/><path class="cls-1" d="M336.51,136.27v-1.65H340V123.26h-2.81V122a11,11,0,0,0,1.84-.46,8.25,8.25,0,0,0,1.43-.68H342v13.78h3.19v1.65Z"/><path class="cls-1" d="M348.53,136.27v-1.65h3.53V123.26h-2.81V122a11.22,11.22,0,0,0,1.84-.46,8.25,8.25,0,0,0,1.43-.68H354v13.78h3.19v1.65Z"/><path class="cls-1" d="M364.65,136.56a4.12,4.12,0,0,1-3.64-2.08,11.31,11.31,0,0,1-1.31-6,11,11,0,0,1,1.31-5.92,4.26,4.26,0,0,1,7.26,0,10.93,10.93,0,0,1,1.32,5.92,11.21,11.21,0,0,1-1.32,6A4.11,4.11,0,0,1,364.65,136.56Zm0-1.6a2.47,2.47,0,0,0,2.17-1.53,11,11,0,0,0,.83-4.93,10.61,10.61,0,0,0-.83-4.87,2.35,2.35,0,0,0-4.36,0,10.61,10.61,0,0,0-.83,4.87,11,11,0,0,0,.83,4.93A2.49,2.49,0,0,0,364.65,135Z"/><polyline class="cls-2" points="36.19 2.02 37.6 0.45 39.72 0.45"/><path class="cls-3" d="M44,.45h70.86a9.15,9.15,0,0,1,8.85,9.38V149.2c0,5.16-4,9.39-8.85,9.39H22.09a9.17,9.17,0,0,1-8.86-9.39V27.54L34.76,3.6"/><path class="cls-4" d="M13.23,28.19H28.94a9.76,9.76,0,0,0,9.77-9.77V.45"/><path class="cls-1" d="M39.07,49.51a4.09,4.09,0,0,1-3.64-2.08,11.15,11.15,0,0,1-1.32-6,10.89,10.89,0,0,1,1.32-5.92,4.26,4.26,0,0,1,7.26,0A11,11,0,0,1,44,41.46a11.25,11.25,0,0,1-1.31,6A4.08,4.08,0,0,1,39.07,49.51Zm0-1.59a2.46,2.46,0,0,0,2.16-1.54,10.75,10.75,0,0,0,.84-4.92,10.43,10.43,0,0,0-.84-4.87,2.45,2.45,0,0,0-2.16-1.49,2.49,2.49,0,0,0-2.19,1.49,10.58,10.58,0,0,0-.83,4.87,10.91,10.91,0,0,0,.83,4.92A2.5,2.5,0,0,0,39.07,47.92Z"/><path class="cls-1" d="M47,49.22V47.58h3.53V36.21H47.7V34.93a9.32,9.32,0,0,0,1.84-.46A8.24,8.24,0,0,0,51,33.8h1.52V47.58h3.19v1.64Z"/><path class="cls-1" d="M63.1,49.51a4.08,4.08,0,0,1-3.63-2.08,11.15,11.15,0,0,1-1.32-6,10.89,10.89,0,0,1,1.32-5.92,4.25,4.25,0,0,1,7.25,0A10.89,10.89,0,0,1,68,41.46a11.15,11.15,0,0,1-1.32,6A4.07,4.07,0,0,1,63.1,49.51Zm0-1.59a2.48,2.48,0,0,0,2.17-1.54,10.91,10.91,0,0,0,.83-4.92,10.58,10.58,0,0,0-.83-4.87,2.33,2.33,0,0,0-4.35,0,10.43,10.43,0,0,0-.84,4.87,10.75,10.75,0,0,0,.84,4.92A2.47,2.47,0,0,0,63.1,47.92Z"/><path class="cls-1" d="M71,49.22V47.58h3.53V36.21h-2.8V34.93a9.4,9.4,0,0,0,1.83-.46A7.91,7.91,0,0,0,75,33.8h1.52V47.58h3.19v1.64Z"/><path class="cls-1" d="M87.14,49.51a4.09,4.09,0,0,1-3.64-2.08,11.15,11.15,0,0,1-1.32-6,10.89,10.89,0,0,1,1.32-5.92,4.25,4.25,0,0,1,7.25,0,10.89,10.89,0,0,1,1.32,5.92,11.15,11.15,0,0,1-1.32,6A4.07,4.07,0,0,1,87.14,49.51Zm0-1.59a2.47,2.47,0,0,0,2.16-1.54,10.75,10.75,0,0,0,.84-4.92,10.43,10.43,0,0,0-.84-4.87,2.33,2.33,0,0,0-4.35,0,10.45,10.45,0,0,0-.83,4.87A10.78,10.78,0,0,0,85,46.38,2.49,2.49,0,0,0,87.14,47.92Z"/><path class="cls-1" d="M99.15,49.51a4.08,4.08,0,0,1-3.63-2.08,11.15,11.15,0,0,1-1.32-6,10.89,10.89,0,0,1,1.32-5.92,4.25,4.25,0,0,1,7.25,0,10.89,10.89,0,0,1,1.32,5.92,11.15,11.15,0,0,1-1.32,6A4.07,4.07,0,0,1,99.15,49.51Zm0-1.59a2.48,2.48,0,0,0,2.17-1.54,10.91,10.91,0,0,0,.83-4.92,10.58,10.58,0,0,0-.83-4.87,2.33,2.33,0,0,0-4.35,0,10.43,10.43,0,0,0-.84,4.87A10.75,10.75,0,0,0,97,46.38,2.47,2.47,0,0,0,99.15,47.92Z"/><path class="cls-1" d="M39.07,78.53a4.11,4.11,0,0,1-3.64-2.08,11.21,11.21,0,0,1-1.32-6,10.91,10.91,0,0,1,1.32-5.92,4.26,4.26,0,0,1,7.26,0A11,11,0,0,1,44,70.47a11.31,11.31,0,0,1-1.31,6A4.11,4.11,0,0,1,39.07,78.53Zm0-1.6a2.45,2.45,0,0,0,2.16-1.53,10.83,10.83,0,0,0,.84-4.93,10.46,10.46,0,0,0-.84-4.87,2.44,2.44,0,0,0-2.16-1.48,2.48,2.48,0,0,0-2.19,1.48,10.61,10.61,0,0,0-.83,4.87,11,11,0,0,0,.83,4.93A2.49,2.49,0,0,0,39.07,76.93Z"/><path class="cls-1" d="M47,78.24V76.59h3.53V65.23H47.7V64a11,11,0,0,0,1.84-.46A8.25,8.25,0,0,0,51,62.81h1.52V76.59h3.19v1.65Z"/><path class="cls-1" d="M59,78.24V76.59h3.53V65.23h-2.8V64a11.49,11.49,0,0,0,1.84-.46A8.14,8.14,0,0,0,63,62.81h1.53V76.59H67.7v1.65Z"/><path class="cls-1" d="M75.12,78.53a4.11,4.11,0,0,1-3.64-2.08,11.21,11.21,0,0,1-1.32-6,10.91,10.91,0,0,1,1.32-5.92,4.26,4.26,0,0,1,7.26,0,11,11,0,0,1,1.31,5.92,11.31,11.31,0,0,1-1.31,6A4.11,4.11,0,0,1,75.12,78.53Zm0-1.6a2.45,2.45,0,0,0,2.16-1.53,10.83,10.83,0,0,0,.84-4.93,10.46,10.46,0,0,0-.84-4.87,2.44,2.44,0,0,0-2.16-1.48,2.48,2.48,0,0,0-2.19,1.48,10.61,10.61,0,0,0-.83,4.87,11,11,0,0,0,.83,4.93A2.49,2.49,0,0,0,75.12,76.93Z"/><path class="cls-1" d="M87.14,78.53a4.11,4.11,0,0,1-3.64-2.08,11.21,11.21,0,0,1-1.32-6,10.91,10.91,0,0,1,1.32-5.92,4.25,4.25,0,0,1,7.25,0,10.91,10.91,0,0,1,1.32,5.92,11.21,11.21,0,0,1-1.32,6A4.09,4.09,0,0,1,87.14,78.53Zm0-1.6A2.46,2.46,0,0,0,89.3,75.4a10.83,10.83,0,0,0,.84-4.93,10.46,10.46,0,0,0-.84-4.87,2.34,2.34,0,0,0-4.35,0,10.48,10.48,0,0,0-.83,4.87A10.85,10.85,0,0,0,85,75.4,2.48,2.48,0,0,0,87.14,76.93Z"/><path class="cls-1" d="M99.15,78.53a4.1,4.1,0,0,1-3.63-2.08,11.21,11.21,0,0,1-1.32-6,10.91,10.91,0,0,1,1.32-5.92,4.25,4.25,0,0,1,7.25,0,10.91,10.91,0,0,1,1.32,5.92,11.21,11.21,0,0,1-1.32,6A4.09,4.09,0,0,1,99.15,78.53Zm0-1.6a2.47,2.47,0,0,0,2.17-1.53,11,11,0,0,0,.83-4.93,10.61,10.61,0,0,0-.83-4.87,2.34,2.34,0,0,0-4.35,0,10.46,10.46,0,0,0-.84,4.87A10.83,10.83,0,0,0,97,75.4,2.46,2.46,0,0,0,99.15,76.93Z"/><path class="cls-1" d="M35,107.25v-1.64h3.53V94.24h-2.8V93a9.4,9.4,0,0,0,1.83-.46A7.91,7.91,0,0,0,39,91.83h1.52v13.78h3.19v1.64Z"/><path class="cls-1" d="M51.09,107.54a4.09,4.09,0,0,1-3.64-2.08,11.15,11.15,0,0,1-1.32-6,10.91,10.91,0,0,1,1.32-5.92,4.25,4.25,0,0,1,7.25,0A10.91,10.91,0,0,1,56,99.49a11.15,11.15,0,0,1-1.32,6A4.07,4.07,0,0,1,51.09,107.54Zm0-1.59a2.48,2.48,0,0,0,2.16-1.54,10.75,10.75,0,0,0,.84-4.92,10.43,10.43,0,0,0-.84-4.87,2.33,2.33,0,0,0-4.35,0,10.43,10.43,0,0,0-.84,4.87,10.75,10.75,0,0,0,.84,4.92A2.49,2.49,0,0,0,51.09,106Z"/><path class="cls-1" d="M63.1,107.54a4.08,4.08,0,0,1-3.63-2.08,11.15,11.15,0,0,1-1.32-6,10.91,10.91,0,0,1,1.32-5.92,4.25,4.25,0,0,1,7.25,0A10.91,10.91,0,0,1,68,99.49a11.15,11.15,0,0,1-1.32,6A4.07,4.07,0,0,1,63.1,107.54Zm0-1.59a2.48,2.48,0,0,0,2.17-1.54,10.91,10.91,0,0,0,.83-4.92,10.58,10.58,0,0,0-.83-4.87,2.33,2.33,0,0,0-4.35,0,10.43,10.43,0,0,0-.84,4.87,10.75,10.75,0,0,0,.84,4.92A2.47,2.47,0,0,0,63.1,106Z"/><path class="cls-1" d="M71,107.25v-1.64h3.53V94.24h-2.8V93a9.4,9.4,0,0,0,1.83-.46A7.91,7.91,0,0,0,75,91.83h1.52v13.78h3.19v1.64Z"/><path class="cls-1" d="M87.14,107.54a4.09,4.09,0,0,1-3.64-2.08,11.15,11.15,0,0,1-1.32-6,10.91,10.91,0,0,1,1.32-5.92,4.25,4.25,0,0,1,7.25,0,10.91,10.91,0,0,1,1.32,5.92,11.15,11.15,0,0,1-1.32,6A4.07,4.07,0,0,1,87.14,107.54Zm0-1.59a2.47,2.47,0,0,0,2.16-1.54,10.75,10.75,0,0,0,.84-4.92,10.43,10.43,0,0,0-.84-4.87,2.33,2.33,0,0,0-4.35,0,10.45,10.45,0,0,0-.83,4.87,10.78,10.78,0,0,0,.83,4.92A2.49,2.49,0,0,0,87.14,106Z"/><path class="cls-1" d="M99.15,107.54a4.08,4.08,0,0,1-3.63-2.08,11.15,11.15,0,0,1-1.32-6,10.91,10.91,0,0,1,1.32-5.92,4.25,4.25,0,0,1,7.25,0,10.91,10.91,0,0,1,1.32,5.92,11.15,11.15,0,0,1-1.32,6A4.07,4.07,0,0,1,99.15,107.54Zm0-1.59a2.48,2.48,0,0,0,2.17-1.54,10.91,10.91,0,0,0,.83-4.92,10.58,10.58,0,0,0-.83-4.87,2.33,2.33,0,0,0-4.35,0,10.43,10.43,0,0,0-.84,4.87,10.75,10.75,0,0,0,.84,4.92A2.47,2.47,0,0,0,99.15,106Z"/><path class="cls-1" d="M35,136.27v-1.65h3.53V123.26h-2.8V122a11.09,11.09,0,0,0,1.83-.46,7.91,7.91,0,0,0,1.43-.68h1.52v13.78h3.19v1.65Z"/><path class="cls-1" d="M47,136.27v-1.65h3.53V123.26H47.7V122a11,11,0,0,0,1.84-.46,8.25,8.25,0,0,0,1.43-.68h1.52v13.78h3.19v1.65Z"/><path class="cls-1" d="M59,136.27v-1.65h3.53V123.26h-2.8V122a11.49,11.49,0,0,0,1.84-.46,8.14,8.14,0,0,0,1.42-.68h1.53v13.78H67.7v1.65Z"/><path class="cls-1" d="M71,136.27v-1.65h3.53V123.26h-2.8V122a11.09,11.09,0,0,0,1.83-.46,7.91,7.91,0,0,0,1.43-.68h1.52v13.78h3.19v1.65Z"/><path class="cls-1" d="M83,136.27v-1.65h3.53V123.26H83.75V122a11,11,0,0,0,1.84-.46,8.25,8.25,0,0,0,1.43-.68h1.52v13.78h3.19v1.65Z"/><path class="cls-1" d="M99.15,136.56a4.1,4.1,0,0,1-3.63-2.08,11.21,11.21,0,0,1-1.32-6,10.93,10.93,0,0,1,1.32-5.92,4.25,4.25,0,0,1,7.25,0,10.93,10.93,0,0,1,1.32,5.92,11.21,11.21,0,0,1-1.32,6A4.09,4.09,0,0,1,99.15,136.56Zm0-1.6a2.47,2.47,0,0,0,2.17-1.53,11,11,0,0,0,.83-4.93,10.61,10.61,0,0,0-.83-4.87,2.34,2.34,0,0,0-4.35,0,10.46,10.46,0,0,0-.84,4.87,10.83,10.83,0,0,0,.84,4.93A2.46,2.46,0,0,0,99.15,135Z"/><rect x="373.2" y="41.04" width="37.89" height="71.88" rx="5.7"/><rect class="cls-5" x="407.76" y="28.47" width="100.86" height="100.86" rx="15.75"/><rect class="cls-5" x="414.5" y="35.22" width="87.37" height="87.37" rx="9.61"/><rect class="cls-5" x="423.57" y="1.82" width="5.63" height="18.62" rx="2.81"/><rect class="cls-5" x="439.71" y="1.82" width="5.63" height="18.62" rx="2.81"/><rect class="cls-5" x="471.99" y="1.82" width="5.63" height="18.62" rx="2.81"/><rect class="cls-5" x="455.85" y="1.82" width="5.63" height="18.62" rx="2.81"/><rect class="cls-5" x="488.13" y="1.82" width="5.63" height="18.62" rx="2.81"/><rect class="cls-5" x="423.57" y="138.59" width="5.63" height="18.62" rx="2.81"/><rect class="cls-5" x="439.71" y="138.59" width="5.63" height="18.62" rx="2.81"/><rect class="cls-5" x="471.99" y="138.59" width="5.63" height="18.62" rx="2.81"/><rect class="cls-5" x="455.85" y="138.59" width="5.63" height="18.62" rx="2.81"/><rect class="cls-5" x="488.13" y="138.59" width="5.63" height="18.62" rx="2.81"/><rect class="cls-5" x="524.64" y="34.54" width="5.63" height="18.62" rx="2.81" transform="translate(571.3 -483.6) rotate(90)"/><rect class="cls-5" x="524.64" y="50.68" width="5.63" height="18.62" rx="2.81" transform="translate(587.44 -467.46) rotate(90)"/><rect class="cls-5" x="524.64" y="82.96" width="5.63" height="18.62" rx="2.81" transform="translate(619.72 -435.18) rotate(90)"/><rect class="cls-5" x="524.64" y="66.82" width="5.63" height="18.62" rx="2.81" transform="translate(603.58 -451.32) rotate(90)"/><rect class="cls-5" x="524.64" y="99.09" width="5.63" height="18.62" rx="2.81" transform="translate(635.86 -419.05) rotate(90)"/><rect class="cls-5" x="386.11" y="34.54" width="5.63" height="18.62" rx="2.81" transform="translate(432.78 -345.07) rotate(90)"/><rect class="cls-5" x="386.11" y="50.68" width="5.63" height="18.62" rx="2.81" transform="translate(448.92 -328.93) rotate(90)"/><rect class="cls-5" x="386.11" y="82.96" width="5.63" height="18.62" rx="2.81" transform="translate(481.19 -296.66) rotate(90)"/><rect class="cls-5" x="386.11" y="66.82" width="5.63" height="18.62" rx="2.81" transform="translate(465.05 -312.8) rotate(90)"/><rect class="cls-5" x="386.11" y="99.09" width="5.63" height="18.62" rx="2.81" transform="translate(497.33 -280.52) rotate(90)"/><path class="cls-1" d="M443.37,71.72a7.07,7.07,0,0,1-5.48-2.42,9.59,9.59,0,0,1-2.19-6.7,9.5,9.5,0,0,1,2.23-6.67,7.21,7.21,0,0,1,5.57-2.44,5.88,5.88,0,0,1,2.83.66,7.34,7.34,0,0,1,2,1.51l-1.2,1.45a5.94,5.94,0,0,0-1.58-1.21,4.37,4.37,0,0,0-2-.45,4.88,4.88,0,0,0-4,1.91A8.15,8.15,0,0,0,438,62.55a8.54,8.54,0,0,0,1.47,5.27,5.06,5.06,0,0,0,6.22,1.42,6.54,6.54,0,0,0,1.82-1.46l1.23,1.39a7.81,7.81,0,0,1-2.36,1.88A6.62,6.62,0,0,1,443.37,71.72Z"/><path class="cls-1" d="M452,71.39V53.81h5A8.91,8.91,0,0,1,461.81,55c1.21.76,1.82,2.11,1.82,4a4.79,4.79,0,0,1-1.8,4.1,7.65,7.65,0,0,1-4.69,1.34h-2.89v7Zm2.23-8.79h2.62q4.53,0,4.53-3.61a2.86,2.86,0,0,0-1.16-2.64,6.51,6.51,0,0,0-3.47-.74h-2.52Z"/><path class="cls-1" d="M473.44,71.72A6.39,6.39,0,0,1,468.92,70c-1.2-1.12-1.81-3.09-1.81-5.91V53.81h2.23V64.18c0,2.13.39,3.59,1.18,4.39a4,4,0,0,0,2.92,1.19,4.07,4.07,0,0,0,2.95-1.19c.8-.8,1.2-2.26,1.2-4.39V53.81h2.15V64.13q0,4.23-1.8,5.91A6.34,6.34,0,0,1,473.44,71.72Z"/><path class="cls-1" d="M457.32,86.47V81.25h-4.88V79.59h4.88V74.36h1.74v5.23h4.88v1.66h-4.88v5.22Z"/><path class="cls-1" d="M443.18,107.45a8.32,8.32,0,0,1-3.43-.71,8.71,8.71,0,0,1-2.74-1.89l1.34-1.55a7.38,7.38,0,0,0,2.22,1.59,6.08,6.08,0,0,0,2.64.61,4.12,4.12,0,0,0,2.7-.8,2.51,2.51,0,0,0,1-2.07,2.26,2.26,0,0,0-.83-1.95A11.72,11.72,0,0,0,444,99.52l-2.52-1.1A8.17,8.17,0,0,1,439,96.86a3.81,3.81,0,0,1-1.15-3,4.22,4.22,0,0,1,1.57-3.34,5.93,5.93,0,0,1,3.95-1.32,7.28,7.28,0,0,1,5.2,2.17l-1.2,1.44a6.28,6.28,0,0,0-1.79-1.21,5.19,5.19,0,0,0-2.21-.45,3.79,3.79,0,0,0-2.37.7,2.25,2.25,0,0,0-.9,1.88,2.09,2.09,0,0,0,.94,1.87,12.51,12.51,0,0,0,2,1.05l2.5,1.07a8.46,8.46,0,0,1,2.57,1.7,4,4,0,0,1,1.05,3,4.65,4.65,0,0,1-1.6,3.55A6.2,6.2,0,0,1,443.18,107.45Z"/><path class="cls-1" d="M459.53,107.45a7.41,7.41,0,0,1-5.71-2.41,9.53,9.53,0,0,1-2.23-6.7,9.37,9.37,0,0,1,2.28-6.67,7.57,7.57,0,0,1,5.79-2.44,6.25,6.25,0,0,1,3.07.68,8,8,0,0,1,2,1.49l-1.24,1.44a6.89,6.89,0,0,0-1.56-1.16,4.54,4.54,0,0,0-2.21-.5,5.22,5.22,0,0,0-4.24,1.92,7.94,7.94,0,0,0-1.58,5.19,8.33,8.33,0,0,0,1.51,5.26,5.17,5.17,0,0,0,4.33,2,4.49,4.49,0,0,0,3.17-1V99.87h-3.73V98h5.76v7.39a6.66,6.66,0,0,1-2.25,1.47A8.28,8.28,0,0,1,459.53,107.45Z"/><path class="cls-1" d="M467.14,107.13,472.26,98l-4.77-8.49H470l2.39,4.5c.23.39.45.79.66,1.18l.71,1.37h.1l.66-1.37c.19-.39.39-.79.6-1.18l2.33-4.5h2.36L475,98.15l5.11,9h-2.46l-2.57-4.74c-.24-.43-.47-.87-.71-1.33s-.51-1-.79-1.49h-.11c-.25.54-.49,1-.73,1.49l-.67,1.33-2.54,4.74Z"/><line class="cls-6" x1="162.85" y1="71.21" x2="239.68" y2="71.21"/><polyline class="cls-6" points="234.52 66.9 239.68 71.23 234.52 75.52"/><rect class="cls-5" x="355.48" y="35.13" width="81.99" height="81.99" rx="38.38"/><path class="cls-7" d="M404.24,56.58a.43.43,0,0,0,0-.85l-.13,0-.26-.45A.45.45,0,0,0,404,55a.45.45,0,0,0-.14-.31l.26-.45h.13a.43.43,0,0,0,0-.85l-.13,0-.26-.45a.45.45,0,0,0,.14-.32.42.42,0,0,0-.43-.42.42.42,0,0,0-.41.33h-.53a.44.44,0,0,0-.42-.33.43.43,0,0,0-.43.42.45.45,0,0,0,.14.32l-.26.45-.13,0a.42.42,0,0,0-.41.33h-.53a.42.42,0,0,0-.41-.33h0l-.12,0-.26-.45a.44.44,0,0,0,.13-.32.42.42,0,0,0-.42-.42.44.44,0,0,0-.42.33h-.53a.42.42,0,0,0-.41-.33.42.42,0,0,0-.43.42.45.45,0,0,0,.14.32l-.26.45-.13,0h0l-.12,0-.27-.45a.42.42,0,0,0,.14-.32.43.43,0,0,0-.84-.09h-.53a.42.42,0,0,0-.41-.33.42.42,0,0,0-.43.42.42.42,0,0,0,.14.32l-.26.45-.13,0h0a.42.42,0,0,0-.41.33h-.53a.44.44,0,0,0-.42-.33.42.42,0,0,0-.42.43.44.44,0,0,0,.13.31l-.26.46a.25.25,0,0,0-.12,0h0a.42.42,0,0,0-.41.33h-.53a.43.43,0,0,0-.84.09.42.42,0,0,0,.14.32l-.27.45-.12,0a.43.43,0,1,0,0,.85h.12l.27.45a.41.41,0,0,0-.14.31.42.42,0,0,0,.14.32l-.27.45-.12,0a.43.43,0,1,0,0,.85.25.25,0,0,0,.12,0l.27.46a.41.41,0,0,0-.14.31.42.42,0,0,0,.14.32l-.27.45-.12,0a.43.43,0,1,0,0,.85.25.25,0,0,0,.12,0l.27.46a.41.41,0,0,0-.14.31.43.43,0,0,0,.84.1h.53a.42.42,0,0,0,.41.33h0l.12,0,.26.45a.44.44,0,0,0-.13.32.42.42,0,0,0,.42.42.44.44,0,0,0,.42-.33h.53a.42.42,0,0,0,.41.33h0a.27.27,0,0,0,.13,0l.26.46a.45.45,0,0,0-.14.31.43.43,0,0,0,.43.43.42.42,0,0,0,.41-.33h.53a.43.43,0,0,0,.42.33.42.42,0,0,0,.42-.43.44.44,0,0,0-.13-.31l.26-.46a.25.25,0,0,0,.12,0h0a.27.27,0,0,0,.13,0l.26.46a.45.45,0,0,0-.14.31.43.43,0,0,0,.43.43.42.42,0,0,0,.41-.33h.53a.43.43,0,0,0,.42.33h0l.12,0,.27.45a.42.42,0,0,0-.14.32.43.43,0,0,0,.84.09h.52a.44.44,0,0,0,.42.36l.13,0,.26.44a.45.45,0,0,0-.14.31h0a.41.41,0,0,0,.14.3l-.26.45a.27.27,0,0,0-.13,0,.43.43,0,0,0,0,.85l.13,0,.25.44a.42.42,0,0,0-.13.3v0h0a.4.4,0,0,0,.13.3l-.24.43a.32.32,0,0,0-.14,0,.42.42,0,0,0-.41.33h-.53a.42.42,0,0,0-.41-.33.42.42,0,0,0-.43.42.4.4,0,0,0,.14.31l-.26.46-.13,0a.44.44,0,0,0-.42.33h-.53a.42.42,0,0,0-.41-.33.43.43,0,0,0-.43.43.45.45,0,0,0,.14.31l-.26.45-.13,0h0l-.12,0-.27-.45a.41.41,0,0,0,.14-.31.43.43,0,0,0-.84-.1h-.53a.42.42,0,0,0-.41-.33h0l-.12,0-.27-.46a.4.4,0,0,0,.14-.31.43.43,0,0,0-.84-.09h-.52a.43.43,0,0,0-.42-.35l-.12,0-.26-.45a.78.78,0,0,0,.1-.15.47.47,0,0,0,0-.17h0a.42.42,0,0,0-.14-.32l.26-.44a.27.27,0,0,0,.13,0,.43.43,0,0,0,.41-.31.51.51,0,0,0,0-.13.43.43,0,0,0-.43-.43l-.12,0L393,67a.41.41,0,0,0,.14-.31.43.43,0,0,0-.43-.43.42.42,0,0,0-.41.33h-.53a.42.42,0,0,0-.41-.33.43.43,0,0,0-.43.43.41.41,0,0,0,.14.31l-.26.45-.13,0a.43.43,0,0,0-.43.43.43.43,0,0,0,.43.43l.13,0,.26.45a.42.42,0,0,0-.14.32h0a.4.4,0,0,0,.14.31l-.26.46-.13,0a.43.43,0,1,0,0,.85l.13,0,.26.46a.4.4,0,0,0-.14.31.43.43,0,0,0,.43.43.43.43,0,0,0,.41-.34h.52a.43.43,0,0,0,.42.35l.13,0,.26.46a.4.4,0,0,0-.14.31.42.42,0,0,0,.84.09h.53a.43.43,0,0,0,.42.34h0l.13,0,.26.45a.42.42,0,0,0-.14.32.42.42,0,0,0,.43.42.42.42,0,0,0,.41-.33h.53a.43.43,0,0,0,.84-.09.42.42,0,0,0-.14-.32l.27-.45.12,0h0l.13,0,.26.45a.45.45,0,0,0-.14.32.42.42,0,0,0,.43.42.42.42,0,0,0,.41-.33h.53a.44.44,0,0,0,.42.33.42.42,0,0,0,.42-.42.44.44,0,0,0-.13-.32L400,73l.13,0a.43.43,0,0,0,.41-.34h.53a.42.42,0,0,0,.84-.09.41.41,0,0,0-.14-.31l.26-.44.13,0a.44.44,0,0,0,.42-.33h.53a.42.42,0,0,0,.41.33.43.43,0,0,0,.43-.43.45.45,0,0,0-.14-.31l.26-.46a.27.27,0,0,0,.13,0,.43.43,0,0,0,0-.85l-.13,0-.25-.44a.42.42,0,0,0,.13-.3h0v0a.42.42,0,0,0-.13-.3l.25-.44.13,0a.43.43,0,0,0,0-.85.27.27,0,0,0-.13,0l-.25-.45a.4.4,0,0,0,.13-.3h0a.44.44,0,0,0-.13-.31l.25-.44.13,0a.42.42,0,0,0,.42-.43h0a.42.42,0,0,0-.42-.42.27.27,0,0,0-.13,0l-.25-.45a.4.4,0,0,0,.13-.3h0a.43.43,0,0,0-.43-.43.42.42,0,0,0-.41.33h-.53a.43.43,0,0,0-.42-.33.23.23,0,0,0-.12,0l-.27-.46a.41.41,0,0,0,.14-.31.38.38,0,0,0-.14-.31l.27-.46.12,0h0a.44.44,0,0,0,.42-.33h.53a.42.42,0,0,0,.41.33A.43.43,0,0,0,404,62a.45.45,0,0,0-.14-.31l.26-.46a.27.27,0,0,0,.13,0,.43.43,0,0,0,0-.85l-.13,0-.26-.45a.45.45,0,0,0,.14-.32.45.45,0,0,0-.14-.31l.26-.45h.13a.43.43,0,0,0,0-.85l-.13,0-.26-.45a.45.45,0,0,0,.14-.32.45.45,0,0,0-.14-.31l.26-.45ZM404,58.82l-.26.46a.3.3,0,0,0-.13,0,.42.42,0,0,0-.41.33h-.53a.44.44,0,0,0-.42-.33.25.25,0,0,0-.12,0l-.27-.46a.41.41,0,0,0,.14-.31.38.38,0,0,0-.14-.31l.27-.46.12,0a.44.44,0,0,0,.42-.33h.53a.42.42,0,0,0,.41.33l.13,0,.26.46a.38.38,0,0,0-.14.31A.41.41,0,0,0,404,58.82Zm0,2.35-.26.46a.3.3,0,0,0-.13,0,.42.42,0,0,0-.41.33h-.53a.44.44,0,0,0-.42-.33h0a.25.25,0,0,0-.12,0l-.27-.46a.41.41,0,0,0,.14-.31.38.38,0,0,0-.14-.31l.27-.46.12,0a.44.44,0,0,0,.42-.33h.53a.42.42,0,0,0,.41.33l.13,0,.26.45a.42.42,0,0,0-.14.32A.41.41,0,0,0,404,61.17Zm-.39,3.66a.3.3,0,0,0,.13,0l.25.45a.4.4,0,0,0-.13.3h0a.44.44,0,0,0,.13.31l-.25.44-.13,0a.42.42,0,0,0-.41.33h-.53a.44.44,0,0,0-.42-.33l-.12,0-.26-.44a.44.44,0,0,0,.13-.31h0v0a.43.43,0,0,0-.13-.27l.26-.43h.12a.44.44,0,0,0,.42-.33h.53A.42.42,0,0,0,403.56,64.83Zm.39,3.4-.25.43-.14,0a.42.42,0,0,0-.41.33h-.53a.44.44,0,0,0-.42-.33l-.14,0-.25-.43a.42.42,0,0,0,.14-.32.41.41,0,0,0-.14-.31l.26-.44a.27.27,0,0,0,.13,0,.44.44,0,0,0,.42-.33h.53a.42.42,0,0,0,.41.33.27.27,0,0,0,.13,0l.26.44a.41.41,0,0,0-.14.31A.42.42,0,0,0,404,68.23Zm-2.18-3.85v0h0a.42.42,0,0,0,.13.3l-.25.44-.13,0a.42.42,0,0,0-.41.33h-.53a.42.42,0,0,0-.42-.33l-.12,0-.26-.46a.41.41,0,0,0,.13-.31.44.44,0,0,0-.13-.31l.26-.46a.25.25,0,0,0,.12,0h0a.42.42,0,0,0,.42-.33h.53a.42.42,0,0,0,.41.33.27.27,0,0,0,.13,0l.26.46A.45.45,0,0,0,401.77,64.38Zm-8.39-1.6-.12,0-.27-.46a.38.38,0,0,0,.14-.31.41.41,0,0,0-.14-.31l.27-.45h.12a.44.44,0,0,0,.42-.33h.53a.42.42,0,0,0,.41.33.3.3,0,0,0,.13,0l.26.46A.41.41,0,0,0,395,62a.42.42,0,0,0,.14.32l-.26.45-.13,0h0a.42.42,0,0,0-.41.33h-.53A.44.44,0,0,0,393.38,62.78Zm-2-1.17a.25.25,0,0,0-.12,0l-.26-.46a.44.44,0,0,0,.13-.31.41.41,0,0,0-.13-.31l.26-.46.12,0a.42.42,0,0,0,.42-.33h.53a.42.42,0,0,0,.41.33l.13,0,.26.45a.45.45,0,0,0-.14.32.45.45,0,0,0,.14.31l-.26.46a.25.25,0,0,0-.12,0h0a.42.42,0,0,0-.41.33h-.53A.42.42,0,0,0,391.34,61.61ZM391,58.2l.26-.46.12,0a.42.42,0,0,0,.42-.33h.53a.42.42,0,0,0,.41.33l.13,0,.26.46a.41.41,0,0,0-.14.31.45.45,0,0,0,.14.31l-.26.46a.27.27,0,0,0-.13,0,.42.42,0,0,0-.41.33h-.53a.42.42,0,0,0-.42-.33.25.25,0,0,0-.12,0l-.26-.46a.44.44,0,0,0,.13-.31A.41.41,0,0,0,391,58.2Zm0-2.35.26-.46.12,0a.42.42,0,0,0,.42-.33h.53a.42.42,0,0,0,.41.33h0l.12,0,.26.46a.41.41,0,0,0-.14.31.45.45,0,0,0,.14.31l-.26.46a.27.27,0,0,0-.13,0,.42.42,0,0,0-.41.33h-.53a.42.42,0,0,0-.42-.33.25.25,0,0,0-.12,0l-.26-.46a.44.44,0,0,0,.13-.31A.41.41,0,0,0,391,55.85Zm2.42-1.62a.44.44,0,0,0,.42-.33h.53a.42.42,0,0,0,.41.33h.13l.26.45A.41.41,0,0,0,395,55a.42.42,0,0,0,.14.32l-.26.45-.13,0a.42.42,0,0,0-.41.33h-.53a.44.44,0,0,0-.42-.33h0l-.12,0L393,55.3a.42.42,0,0,0,.14-.32.41.41,0,0,0-.14-.31l.27-.45Zm2-1.17a.42.42,0,0,0,.41-.33h.53a.42.42,0,0,0,.42.33l.12,0,.26.46a.41.41,0,0,0-.13.31.44.44,0,0,0,.13.31l-.26.46a.25.25,0,0,0-.12,0,.42.42,0,0,0-.42.33h-.53a.42.42,0,0,0-.41-.33h0a.27.27,0,0,0-.13,0l-.26-.46a.45.45,0,0,0,.14-.31.41.41,0,0,0-.14-.31l.26-.46Zm2.71,0a.42.42,0,0,0,.41-.33h.53a.44.44,0,0,0,.42.33l.12,0,.27.46a.38.38,0,0,0-.14.31.41.41,0,0,0,.14.31l-.27.46a.25.25,0,0,0-.12,0h0a.44.44,0,0,0-.42.33h-.53a.42.42,0,0,0-.41-.33.3.3,0,0,0-.13,0l-.26-.46a.41.41,0,0,0,.14-.31.4.4,0,0,0-.14-.31L398,53Zm4.07,0a.44.44,0,0,0,.42-.33h.53a.42.42,0,0,0,.41.33l.13,0,.26.46a.38.38,0,0,0-.14.31.41.41,0,0,0,.14.31l-.26.46a.3.3,0,0,0-.13,0,.42.42,0,0,0-.41.33h-.53a.44.44,0,0,0-.42-.33.25.25,0,0,0-.12,0l-.27-.46a.41.41,0,0,0,.14-.31.4.4,0,0,0-.14-.31l.27-.46ZM398.13,64a.27.27,0,0,0-.13,0l-.26-.46a.41.41,0,0,0,.14-.31.42.42,0,0,0-.14-.32l.26-.45.13,0a.42.42,0,0,0,.41-.33h.53a.43.43,0,0,0,.42.33h0l.12,0,.27.45a.42.42,0,0,0-.14.32.41.41,0,0,0,.14.31l-.27.46a.25.25,0,0,0-.12,0h0a.43.43,0,0,0-.42.33h-.53A.42.42,0,0,0,398.13,64Zm-1.35,0a.43.43,0,0,0-.42.33h-.53a.42.42,0,0,0-.41-.33.27.27,0,0,0-.13,0l-.26-.46a.45.45,0,0,0,.14-.31.41.41,0,0,0-.14-.31l.26-.46.13,0h0a.42.42,0,0,0,.41-.33h.53a.43.43,0,0,0,.42.33l.12,0,.26.45a.44.44,0,0,0-.13.32.44.44,0,0,0,.13.31l-.26.46A.25.25,0,0,0,396.78,64Zm5.13-6.31-.26.45-.13,0a.43.43,0,0,0,0,.85.27.27,0,0,0,.13,0l.26.46a.45.45,0,0,0-.14.31.45.45,0,0,0,.14.32l-.26.45-.13,0h0a.42.42,0,0,0-.41.33h-.53a.43.43,0,0,0-.84.1.41.41,0,0,0,.14.31l-.27.46a.25.25,0,0,0-.12,0h0a.43.43,0,0,0-.42.33h-.53a.42.42,0,0,0-.41-.33.42.42,0,0,0-.43.42.45.45,0,0,0,.14.32l-.26.45-.13,0h0l-.12,0-.26-.45a.44.44,0,0,0,.13-.32.42.42,0,0,0-.42-.42.43.43,0,0,0-.42.33h-.53a.42.42,0,0,0-.41-.33h0a.27.27,0,0,0-.13,0l-.26-.46a.45.45,0,0,0,.14-.31.43.43,0,0,0-.43-.43.42.42,0,0,0-.41.33h-.53a.44.44,0,0,0-.42-.33h0l-.12,0L393,60a.42.42,0,0,0,.14-.32.41.41,0,0,0-.14-.31l.27-.45h.12a.43.43,0,1,0,0-.85l-.12,0-.27-.45a.42.42,0,0,0,.14-.32A.41.41,0,0,0,393,57l.27-.45h.12a.44.44,0,0,0,.42-.33h.53a.42.42,0,0,0,.41.33.42.42,0,0,0,.43-.42.41.41,0,0,0-.14-.31l.26-.46.13,0h0a.42.42,0,0,0,.41-.33h.53a.43.43,0,0,0,.84-.1.41.41,0,0,0-.14-.31l.27-.45h.25l.26.45a.45.45,0,0,0-.14.31.43.43,0,0,0,.43.43.42.42,0,0,0,.41-.33h.53a.44.44,0,0,0,.42.33h0l.13,0,.26.45a.42.42,0,0,0-.14.32.42.42,0,0,0,.43.42.42.42,0,0,0,.41-.33h.53a.42.42,0,0,0,.41.33h.13l.26.45a.45.45,0,0,0-.14.31A.45.45,0,0,0,401.91,57.65Zm-.39-3.42h.13l.26.45a.45.45,0,0,0-.14.31.45.45,0,0,0,.14.32l-.26.45-.13,0a.42.42,0,0,0-.41.33h-.53a.42.42,0,0,0-.41-.33l-.13,0-.26-.45a.44.44,0,0,0,.13-.32.44.44,0,0,0-.13-.31l.26-.45h.13a.42.42,0,0,0,.41-.33h.53A.42.42,0,0,0,401.52,54.23Zm0,8.55a.42.42,0,0,0-.41.33h-.53a.42.42,0,0,0-.42-.33h0l-.12,0-.26-.46a.41.41,0,0,0,.13-.31.44.44,0,0,0-.13-.31l.26-.45h.12a.42.42,0,0,0,.42-.33h.53a.42.42,0,0,0,.41.33h0a.27.27,0,0,0,.13,0l.26.46a.45.45,0,0,0-.14.31.45.45,0,0,0,.14.32l-.26.45Zm2-5.87a.42.42,0,0,0-.41.33h-.53a.44.44,0,0,0-.42-.33.25.25,0,0,0-.12,0l-.27-.46a.41.41,0,0,0,.14-.31.38.38,0,0,0-.14-.31l.27-.46.12,0a.44.44,0,0,0,.42-.33h.53a.42.42,0,0,0,.41.33l.13,0,.26.46a.38.38,0,0,0-.14.31.41.41,0,0,0,.14.31l-.26.46A.3.3,0,0,0,403.56,56.91Zm-2,15.23a.43.43,0,0,0-.41.34h-.53a.43.43,0,0,0-.41-.34l-.13,0-.26-.45a.44.44,0,0,0,.13-.31.44.44,0,0,0-.13-.32l.26-.45.13,0a.43.43,0,0,0,.41-.33h.53a.42.42,0,0,0,.41.34.27.27,0,0,0,.13,0l.26.45a.43.43,0,0,0-.14.31h0a.45.45,0,0,0,.14.31l-.26.44Zm-2,1.18a.44.44,0,0,0-.42.33h-.53a.42.42,0,0,0-.41-.33l-.12,0-.27-.46a.41.41,0,0,0,0-.62l.27-.46.12,0a.42.42,0,0,0,.41-.33h.53a.44.44,0,0,0,.42.33l.12,0,.27.46a.41.41,0,0,0-.14.31.4.4,0,0,0,.14.31l-.27.46Zm-2.71,0a.42.42,0,0,0-.42.33h-.53a.42.42,0,0,0-.41-.33l-.13,0-.26-.46a.41.41,0,0,0,0-.62l.26-.46a.25.25,0,0,0,.12,0h0a.42.42,0,0,0,.41-.33h.53a.42.42,0,0,0,.42.33l.12,0,.26.46a.44.44,0,0,0-.13.31.42.42,0,0,0,.13.31l-.26.46Zm-3.4-1.18-.13,0-.26-.45a.41.41,0,0,0,.12-.2.59.59,0,0,0,0-.13.44.44,0,0,0-.13-.31l.25-.44.13,0a.44.44,0,0,0,.41-.32h.53a.43.43,0,0,0,.42.33l.12,0,.26.45a.44.44,0,0,0-.13.32.44.44,0,0,0,.13.31l-.26.45-.12,0h0a.43.43,0,0,0-.42.34h-.53A.43.43,0,0,0,393.38,72.14Zm-2-1.19-.13,0-.26-.45a.44.44,0,0,0,.13-.32.44.44,0,0,0-.13-.31l.26-.45.13,0a.43.43,0,0,0,.41-.34h.52a.43.43,0,0,0,.42.35.28.28,0,0,0,.13,0l.26.45a.41.41,0,0,0-.12.2.59.59,0,0,0,0,.13.41.41,0,0,0,.14.31l-.26.44-.13,0a.44.44,0,0,0-.41.32v0h-.53A.43.43,0,0,0,391.35,71ZM391,67.54l.26-.46.13,0a.42.42,0,0,0,.41-.33h.53a.42.42,0,0,0,.41.33l.13,0,.26.46a.37.37,0,0,0-.12.2.51.51,0,0,0,0,.13.41.41,0,0,0,.14.31l-.26.44-.13,0a.43.43,0,0,0-.41.31v0h-.53a.42.42,0,0,0-.41-.33l-.13,0-.26-.46a.43.43,0,0,0,0-.62Zm13,2.38a.42.42,0,0,0-.14.32.41.41,0,0,0,.14.31l-.26.46a.3.3,0,0,0-.13,0,.42.42,0,0,0-.41.33h-.53a.43.43,0,0,0-.42-.35l-.12,0-.26-.45a.4.4,0,0,0,.13-.3h0a.44.44,0,0,0-.13-.31l.24-.42a.34.34,0,0,0,.14,0,.44.44,0,0,0,.42-.33h.53a.42.42,0,0,0,.41.33.34.34,0,0,0,.14,0Z"/><path class="cls-8" d="M371,93.1a3.63,3.63,0,0,1-2.78-1.17,4.65,4.65,0,0,1-1.08-3.26,4.55,4.55,0,0,1,1.11-3.24,3.69,3.69,0,0,1,2.81-1.19,3.07,3.07,0,0,1,1.49.33,3.9,3.9,0,0,1,1,.73l-.59.7a3.42,3.42,0,0,0-.77-.57,2.2,2.2,0,0,0-1.07-.24,2.53,2.53,0,0,0-2.06.93,3.85,3.85,0,0,0-.77,2.52A4.06,4.06,0,0,0,369,91.2a2.51,2.51,0,0,0,2.1,1,2.18,2.18,0,0,0,1.54-.51V89.41h-1.81v-.9h2.8v3.6a3.38,3.38,0,0,1-1.09.71A4.18,4.18,0,0,1,371,93.1Z"/><path class="cls-8" d="M376.76,92.94h-1.08V84.4h2.67a4,4,0,0,1,2.16.53,2,2,0,0,1,.84,1.86,2.37,2.37,0,0,1-.53,1.61,2.7,2.7,0,0,1-1.4.82l2.17,3.72h-1.22l-2.06-3.61h-1.55Zm0-4.49h1.44c1.38,0,2.07-.55,2.07-1.66a1.28,1.28,0,0,0-.54-1.17,2.82,2.82,0,0,0-1.53-.35h-1.44Z"/><path class="cls-8" d="M387.75,92.94l-.8-2.6h-3.12l-.82,2.6h-1.1l2.89-8.54H386l2.89,8.54Zm-3.24-4.78-.4,1.3h2.56l-.4-1.3c-.16-.48-.3-1-.44-1.42s-.28-1-.42-1.46h-.05c-.13.5-.27,1-.41,1.46S384.67,87.68,384.51,88.16Z"/><path class="cls-8" d="M390.12,92.94V84.4h2.44a4.33,4.33,0,0,1,2.32.55,2.12,2.12,0,0,1,.88,2,2.31,2.31,0,0,1-.87,2,3.67,3.67,0,0,1-2.28.66H391.2v3.38Zm1.08-4.27h1.28c1.47,0,2.2-.59,2.2-1.76a1.4,1.4,0,0,0-.57-1.28,3.15,3.15,0,0,0-1.68-.36H391.2Z"/><path class="cls-8" d="M397.49,92.94V84.4h1.08V88h4V84.4h1.09v8.54h-1.09v-4h-4v4Z"/><path class="cls-8" d="M406,92.94V84.4h4.92v.91h-3.84V88h3.25v.93h-3.25V92h4v.92Z"/><path class="cls-8" d="M412.84,92.94V84.4H414l3.09,5.36.93,1.77h0c0-.43-.06-.88-.09-1.34s0-.93,0-1.38V84.4h1v8.54h-1.12l-3.1-5.38-.93-1.76h0c0,.44.07.88.1,1.33s0,.89,0,1.34v4.47Z"/><path class="cls-8" d="M421.27,92.94V84.4h4.92v.91h-3.84V88h3.24v.93h-3.24V92h4v.92Z"/></g></g></svg>