<?xml version="1.0" encoding="utf-8"?>
<!-- Generator: Adobe Illustrator 24.1.0, SVG Export Plug-In . SVG Version: 6.00 Build 0)  -->
<svg version="1.1" id="Layer_1" xmlns="http://www.w3.org/2000/svg" xmlns:xlink="http://www.w3.org/1999/xlink" x="0px" y="0px"
	 viewBox="0 0 106 25" style="enable-background:new 0 0 106 25;" xml:space="preserve">
<style type="text/css">
	.st0{filter:url(#Adobe_OpacityMaskFilter);}
	.st1{fill-rule:evenodd;clip-rule:evenodd;fill:#FFFFFF;}
	.st2{mask:url(#mask-4_2_);fill-rule:evenodd;clip-rule:evenodd;fill:#DE2C7D;}
	.st3{fill:#FFFFFF;}
</style>
<desc>Created with sketchtool.</desc>
<defs>
	<filter id="Adobe_OpacityMaskFilter" filterUnits="userSpaceOnUse" x="0" y="0.1" width="16.3" height="24.8">
		<feColorMatrix  type="matrix" values="1 0 0 0 0  0 1 0 0 0  0 0 1 0 0  0 0 0 1 0"/>
	</filter>
</defs>
<mask maskUnits="userSpaceOnUse" x="0" y="0.1" width="16.3" height="24.8" id="mask-4_2_">
	<g class="st0">
		<polygon id="path-3_2_" class="st1" points="0,0.1 16.3,0.1 16.3,24.9 0,24.9 		"/>
	</g>
</mask>
<path id="Fill-18_1_" class="st2" d="M15.5,20.1c-0.1,0.1-0.2,0.2-0.2,0.4s0.1,0.3,0.2,0.4l-0.3,0.5c0,0-0.1,0-0.1,0
	c-0.2,0-0.4,0.2-0.5,0.4H14c0-0.2-0.2-0.4-0.5-0.4c0,0-0.1,0-0.1,0l-0.3-0.5c0.1-0.1,0.1-0.2,0.1-0.3c0,0,0,0,0,0c0,0,0,0,0,0
	c0-0.1-0.1-0.3-0.1-0.3l0.3-0.5c0,0,0.1,0,0.2,0c0.2,0,0.4-0.2,0.5-0.4h0.6c0,0.2,0.2,0.4,0.5,0.4c0.1,0,0.1,0,0.2,0L15.5,20.1z
	 M0.8,17.4l0.3-0.5c0,0,0.1,0,0.1,0c0.2,0,0.4-0.2,0.5-0.4h0.6c0,0.2,0.2,0.4,0.5,0.4c0,0,0.1,0,0.1,0l0.3,0.5
	c-0.1,0.1-0.1,0.1-0.1,0.2c0,0,0,0.1,0,0.1c0,0.1,0.1,0.3,0.2,0.3l-0.3,0.5c0,0-0.1,0-0.1,0c-0.2,0-0.4,0.2-0.5,0.4c0,0,0,0,0,0H1.7
	c0-0.2-0.2-0.4-0.5-0.4c0,0-0.1,0-0.1,0l-0.3-0.5C0.9,18,1,17.9,1,17.8S0.9,17.5,0.8,17.4z M1.2,21.3c0,0-0.1,0-0.1,0l-0.3-0.5
	C0.9,20.7,1,20.6,1,20.4s-0.1-0.3-0.2-0.4l0.3-0.5c0,0,0.1,0,0.1,0c0.2,0,0.4-0.2,0.5-0.4h0.6c0,0.2,0.2,0.4,0.5,0.4
	c0.1,0,0.1,0,0.2,0l0.3,0.5c-0.1,0.1-0.1,0.1-0.1,0.2c0,0,0,0.1,0,0.1c0,0.1,0.1,0.3,0.2,0.4l-0.3,0.5c0,0-0.1,0-0.1,0
	c-0.2,0-0.4,0.2-0.5,0.4c0,0,0,0,0,0H1.7C1.7,21.4,1.5,21.3,1.2,21.3z M3.5,22.6c0,0-0.1,0-0.1,0l-0.3-0.5c0.1-0.1,0.1-0.1,0.1-0.2
	c0,0,0-0.1,0-0.1c0-0.1-0.1-0.3-0.2-0.3l0.3-0.5c0,0,0.1,0,0.1,0c0.2,0,0.4-0.1,0.5-0.4c0,0,0,0,0,0h0.6c0,0.2,0.2,0.4,0.5,0.4
	c0,0,0.1,0,0.1,0l0.3,0.5c-0.1,0.1-0.2,0.2-0.2,0.4c0,0.1,0.1,0.3,0.2,0.4l-0.3,0.5c0,0-0.1,0-0.1,0h0h0c-0.2,0-0.4,0.2-0.5,0.4H4
	C4,22.8,3.8,22.6,3.5,22.6z M7.4,23.9c-0.2,0-0.4,0.2-0.5,0.4H6.3c0-0.2-0.2-0.4-0.5-0.4c0,0-0.1,0-0.1,0l-0.3-0.5
	c0.1-0.1,0.2-0.2,0.2-0.4s-0.1-0.3-0.2-0.4l0.3-0.5c0,0,0.1,0,0.1,0c0,0,0,0,0,0c0,0,0,0,0,0c0.2,0,0.4-0.2,0.5-0.4h0.6
	c0,0.2,0.2,0.4,0.5,0.4c0,0,0.1,0,0.1,0l0.3,0.5c-0.1,0.1-0.2,0.2-0.2,0.4s0.1,0.3,0.2,0.4L7.5,24C7.5,24,7.4,23.9,7.4,23.9z
	 M10.4,23.9c-0.2,0-0.4,0.2-0.5,0.4H9.4c0-0.2-0.2-0.4-0.5-0.4c0,0-0.1,0-0.1,0l-0.3-0.5c0.1-0.1,0.2-0.2,0.2-0.4s-0.1-0.3-0.2-0.4
	l0.3-0.5c0,0,0.1,0,0.1,0c0.2,0,0.4-0.2,0.5-0.4H10c0,0.2,0.2,0.4,0.5,0.4c0,0,0.1,0,0.1,0l0.3,0.5c-0.1,0.1-0.2,0.2-0.2,0.4
	s0.1,0.3,0.2,0.4L10.6,24C10.5,24,10.5,23.9,10.4,23.9z M12.7,22.6c-0.2,0-0.4,0.2-0.5,0.4h-0.6c0-0.2-0.2-0.4-0.5-0.4
	c0,0-0.1,0-0.1,0l-0.3-0.5c0.1-0.1,0.2-0.2,0.2-0.4c0-0.1-0.1-0.3-0.2-0.4l0.3-0.5c0,0,0.1,0,0.1,0c0.2,0,0.4-0.2,0.5-0.4h0.6
	c0,0.2,0.2,0.4,0.5,0.4c0,0,0.1,0,0.1,0l0.3,0.5c-0.1,0.1-0.1,0.2-0.1,0.3c0,0,0,0,0,0c0,0,0,0,0,0c0,0.1,0.1,0.3,0.1,0.3l-0.3,0.5
	C12.8,22.6,12.8,22.6,12.7,22.6z M15,5.4c-0.2,0-0.4,0.2-0.5,0.4H14c0-0.2-0.2-0.4-0.5-0.4c0,0-0.1,0-0.1,0l-0.3-0.5
	c0.1-0.1,0.2-0.2,0.2-0.4c0-0.1-0.1-0.3-0.2-0.4l0.3-0.5c0,0,0.1,0,0.1,0c0.2,0,0.4-0.2,0.5-0.4h0.6c0,0.2,0.2,0.4,0.5,0.4
	c0,0,0.1,0,0.1,0l0.3,0.5c-0.1,0.1-0.2,0.2-0.2,0.4c0,0.1,0.1,0.3,0.2,0.4l-0.3,0.5C15.1,5.4,15.1,5.4,15,5.4z M12.7,12.1
	c-0.2,0-0.4,0.2-0.5,0.4h-0.6c0-0.2-0.2-0.4-0.5-0.4h0c0,0-0.1,0-0.1,0l-0.3-0.5c0.1-0.1,0.2-0.2,0.2-0.4s-0.1-0.3-0.2-0.4l0.3-0.5
	c0,0,0.1,0,0.1,0c0.2,0,0.4-0.2,0.5-0.4h0.6c0,0.2,0.2,0.4,0.5,0.4h0h0c0,0,0.1,0,0.1,0l0.3,0.5c-0.1,0.1-0.2,0.2-0.2,0.4
	s0.1,0.3,0.2,0.4l-0.3,0.5C12.8,12.1,12.8,12.1,12.7,12.1z M12.7,2.4c0,0,0.1,0,0.1,0l0.3,0.5C13.1,3,13,3.1,13,3.3s0.1,0.3,0.2,0.4
	l-0.3,0.5c0,0-0.1,0-0.1,0c-0.2,0-0.4,0.2-0.5,0.4h-0.6c0-0.2-0.2-0.4-0.5-0.4c0,0-0.1,0-0.1,0l-0.3-0.5c0.1-0.1,0.2-0.2,0.2-0.4
	c0-0.1-0.1-0.3-0.2-0.4l0.3-0.5c0,0,0.1,0,0.1,0h0c0.2,0,0.4-0.2,0.5-0.4h0.6C12.3,2.3,12.5,2.4,12.7,2.4z M13.2,6.3l-0.3,0.5
	c0,0-0.1,0-0.1,0c-0.3,0-0.5,0.2-0.5,0.5c0,0.3,0.2,0.5,0.5,0.5c0,0,0.1,0,0.1,0l0.3,0.5C13.1,8.3,13,8.4,13,8.6
	c0,0.1,0.1,0.3,0.2,0.4l-0.3,0.5c0,0-0.1,0-0.1,0h0h0c-0.2,0-0.4,0.2-0.5,0.4h-0.6c0-0.2-0.2-0.4-0.5-0.4c-0.3,0-0.5,0.2-0.5,0.5
	c0,0.1,0.1,0.3,0.2,0.4l-0.3,0.5c0,0-0.1,0-0.1,0h0c-0.2,0-0.4,0.2-0.5,0.4H9.4c0-0.2-0.2-0.4-0.5-0.4c-0.3,0-0.5,0.2-0.5,0.5
	c0,0.1,0.1,0.3,0.2,0.4l-0.3,0.5c0,0-0.1,0-0.1,0h0h0c0,0-0.1,0-0.1,0l-0.3-0.5c0.1-0.1,0.2-0.2,0.2-0.4c0-0.3-0.2-0.5-0.5-0.5
	c-0.2,0-0.4,0.2-0.5,0.4H6.3c0-0.2-0.2-0.4-0.5-0.4h0c0,0-0.1,0-0.1,0l-0.3-0.5c0.1-0.1,0.2-0.2,0.2-0.4c0-0.3-0.2-0.5-0.5-0.5
	c-0.2,0-0.4,0.2-0.5,0.4H4c0-0.2-0.2-0.4-0.5-0.4h0h0c0,0-0.1,0-0.1,0L3.1,8.9c0.1-0.1,0.2-0.2,0.2-0.4c0-0.1-0.1-0.3-0.2-0.4
	l0.3-0.5c0,0,0.1,0,0.1,0C3.8,7.7,4,7.5,4,7.2C4,7,3.8,6.8,3.5,6.8c0,0-0.1,0-0.1,0L3.1,6.3c0.1-0.1,0.2-0.2,0.2-0.4
	c0-0.1-0.1-0.3-0.2-0.4L3.4,5c0,0,0.1,0,0.1,0h0h0C3.8,5.1,4,4.9,4,4.7h0.6c0,0.2,0.2,0.4,0.5,0.4c0.3,0,0.5-0.2,0.5-0.5
	c0-0.1-0.1-0.3-0.2-0.4l0.3-0.5c0,0,0.1,0,0.1,0h0h0c0.2,0,0.4-0.2,0.5-0.4h0.6c0,0.2,0.2,0.4,0.5,0.4c0.3,0,0.5-0.2,0.5-0.5
	c0-0.1-0.1-0.3-0.2-0.4L8,2.4c0,0,0.1,0,0.1,0h0h0c0,0,0.1,0,0.1,0l0.3,0.5C8.5,3,8.4,3.1,8.4,3.3c0,0.3,0.2,0.5,0.5,0.5
	c0.2,0,0.4-0.2,0.5-0.4H10c0,0.2,0.2,0.4,0.5,0.4h0h0c0,0,0.1,0,0.1,0l0.3,0.5c-0.1,0.1-0.2,0.2-0.2,0.4c0,0.3,0.2,0.5,0.5,0.5
	c0.2,0,0.4-0.2,0.5-0.4h0.6c0,0.2,0.2,0.4,0.5,0.4c0,0,0.1,0,0.1,0l0.3,0.5C13.1,5.6,13,5.8,13,5.9C13,6.1,13.1,6.2,13.2,6.3z
	 M7.4,13.4c-0.2,0-0.4,0.2-0.5,0.4H6.3c0-0.2-0.2-0.4-0.5-0.4c0,0-0.1,0-0.1,0l-0.3-0.5c0.1-0.1,0.2-0.2,0.2-0.4s-0.1-0.3-0.2-0.4
	l0.3-0.5c0,0,0.1,0,0.1,0h0c0.2,0,0.4-0.2,0.5-0.4h0.6c0,0.2,0.2,0.4,0.5,0.4c0,0,0.1,0,0.1,0l0.3,0.5c-0.1,0.1-0.2,0.2-0.2,0.4
	c0,0.1,0.1,0.3,0.2,0.4l-0.3,0.5C7.5,13.4,7.4,13.4,7.4,13.4z M8.9,13.4c0,0-0.1,0-0.1,0l-0.3-0.5c0.1-0.1,0.2-0.2,0.2-0.4
	s-0.1-0.3-0.2-0.4l0.3-0.5c0,0,0.1,0,0.1,0c0.2,0,0.4-0.2,0.5-0.4H10c0,0.2,0.2,0.4,0.5,0.4h0c0,0,0.1,0,0.1,0l0.3,0.5
	c-0.1,0.1-0.2,0.2-0.2,0.4s0.1,0.3,0.2,0.4l-0.3,0.5c0,0-0.1,0-0.1,0h0c-0.2,0-0.4,0.2-0.5,0.4H9.4C9.3,13.5,9.1,13.4,8.9,13.4z
	 M13.5,1.1c0.2,0,0.4-0.2,0.5-0.4h0.6c0,0.2,0.2,0.4,0.5,0.4c0,0,0.1,0,0.1,0l0.3,0.5c-0.1,0.1-0.2,0.2-0.2,0.4
	c0,0.1,0.1,0.3,0.2,0.4l-0.3,0.5c0,0-0.1,0-0.1,0c-0.2,0-0.4,0.2-0.5,0.4H14c0-0.2-0.2-0.4-0.5-0.4c0,0-0.1,0-0.1,0l-0.3-0.5
	c0.1-0.1,0.2-0.2,0.2-0.4c0-0.1-0.1-0.3-0.2-0.4l0.3-0.5C13.4,1.1,13.4,1.1,13.5,1.1z M8.9,1.1c0.2,0,0.4-0.2,0.5-0.4H10
	c0,0.2,0.2,0.4,0.5,0.4c0,0,0.1,0,0.1,0l0.3,0.5c-0.1,0.1-0.2,0.2-0.2,0.4c0,0.1,0.1,0.3,0.2,0.4l-0.3,0.5c0,0-0.1,0-0.1,0h0h0
	c-0.2,0-0.4,0.2-0.5,0.4H9.4c0-0.2-0.2-0.4-0.5-0.4c0,0-0.1,0-0.1,0L8.5,2.3c0.1-0.1,0.2-0.2,0.2-0.4c0-0.1-0.1-0.3-0.2-0.4l0.3-0.5
	C8.8,1.1,8.8,1.1,8.9,1.1z M5.8,1.1c0.2,0,0.4-0.2,0.5-0.4h0.6c0,0.2,0.2,0.4,0.5,0.4c0,0,0.1,0,0.1,0l0.3,0.5
	C7.7,1.7,7.7,1.8,7.7,1.9c0,0.1,0.1,0.3,0.2,0.4L7.5,2.8c0,0-0.1,0-0.1,0C7.1,2.8,7,2.9,6.9,3.2H6.3c0-0.2-0.2-0.4-0.5-0.4h0h0
	c0,0-0.1,0-0.1,0L5.4,2.3c0.1-0.1,0.2-0.2,0.2-0.4c0-0.1-0.1-0.3-0.2-0.4l0.3-0.5C5.7,1.1,5.8,1.1,5.8,1.1z M3.5,2.4
	C3.8,2.4,4,2.3,4,2h0.6c0,0.2,0.2,0.4,0.5,0.4h0c0,0,0.1,0,0.1,0l0.3,0.5C5.4,3,5.4,3.1,5.4,3.3c0,0.1,0.1,0.3,0.2,0.4L5.2,4.1
	c0,0-0.1,0-0.1,0c-0.2,0-0.4,0.2-0.5,0.4H4c0-0.2-0.2-0.4-0.5-0.4h0h0c0,0-0.1,0-0.1,0L3.1,3.6c0.1-0.1,0.2-0.2,0.2-0.4
	c0-0.1-0.1-0.3-0.2-0.4l0.3-0.5C3.4,2.4,3.5,2.4,3.5,2.4z M0.8,4.2l0.3-0.5c0,0,0.1,0,0.1,0c0.2,0,0.4-0.2,0.5-0.4h0.6
	c0,0.2,0.2,0.4,0.5,0.4h0h0c0,0,0.1,0,0.1,0l0.3,0.5C3.1,4.3,3.1,4.4,3.1,4.6c0,0.1,0.1,0.3,0.2,0.4L2.9,5.5c0,0-0.1,0-0.1,0
	c-0.2,0-0.4,0.2-0.5,0.4H1.7c0-0.2-0.2-0.4-0.5-0.4c0,0-0.1,0-0.1,0L0.8,4.9C0.9,4.9,1,4.7,1,4.6C1,4.4,0.9,4.3,0.8,4.2z M0.8,6.9
	l0.3-0.5c0,0,0.1,0,0.1,0c0.2,0,0.4-0.2,0.5-0.4h0.6c0,0.2,0.2,0.4,0.5,0.4c0,0,0.1,0,0.1,0l0.3,0.5C3.1,7,3.1,7.1,3.1,7.2
	c0,0.1,0.1,0.3,0.2,0.4L2.9,8.1c0,0-0.1,0-0.1,0c-0.2,0-0.4,0.2-0.5,0.4H1.7c0-0.2-0.2-0.4-0.5-0.4c0,0-0.1,0-0.1,0L0.8,7.6
	C0.9,7.5,1,7.4,1,7.2S0.9,7,0.8,6.9z M1.2,10.7c0,0-0.1,0-0.1,0l-0.3-0.5C0.9,10.2,1,10,1,9.9c0-0.1-0.1-0.3-0.2-0.4L1.1,9
	c0,0,0.1,0,0.1,0c0.2,0,0.4-0.2,0.5-0.4h0.6C2.4,8.9,2.5,9,2.8,9c0,0,0.1,0,0.1,0l0.3,0.5C3.1,9.6,3.1,9.7,3.1,9.9
	c0,0.1,0.1,0.3,0.2,0.4l-0.3,0.5c0,0-0.1,0-0.1,0h0h0c-0.2,0-0.4,0.2-0.5,0.4H1.7C1.7,10.9,1.5,10.7,1.2,10.7z M3.5,12.1
	c0,0-0.1,0-0.1,0l-0.3-0.5c0.1-0.1,0.2-0.2,0.2-0.4s-0.1-0.3-0.2-0.4l0.3-0.5c0,0,0.1,0,0.1,0h0h0C3.8,10.4,4,10.2,4,10h0.6
	c0,0.2,0.2,0.4,0.5,0.4c0,0,0.1,0,0.1,0l0.3,0.5c-0.1,0.1-0.2,0.2-0.2,0.4s0.1,0.3,0.2,0.4l-0.3,0.5c0,0-0.1,0-0.1,0h0
	c-0.2,0-0.4,0.2-0.5,0.4H4C4,12.2,3.8,12.1,3.5,12.1z M13,13.9C13,13.9,13,13.9,13,13.9C13,13.9,13,13.9,13,13.9
	c0,0.2,0.1,0.3,0.1,0.4l-0.3,0.5c0,0-0.1,0-0.1,0c-0.2,0-0.4,0.2-0.5,0.4h-0.6c0-0.2-0.2-0.4-0.5-0.4c0,0-0.1,0-0.1,0l-0.3-0.5
	c0.1-0.1,0.2-0.2,0.2-0.4c0-0.1-0.1-0.3-0.2-0.4l0.3-0.5c0,0,0.1,0,0.1,0c0,0,0,0,0,0c0.2,0,0.4-0.2,0.5-0.4h0.6
	c0,0.2,0.2,0.4,0.5,0.4c0,0,0.1,0,0.1,0l0.3,0.5C13.1,13.6,13,13.7,13,13.9z M15.5,18.2l-0.3,0.5c0,0-0.1,0-0.2,0
	c-0.2,0-0.4,0.2-0.5,0.4H14c0-0.2-0.2-0.4-0.5-0.4c-0.1,0-0.1,0-0.2,0l-0.3-0.5c0.1-0.1,0.2-0.2,0.2-0.4c0-0.1-0.1-0.3-0.2-0.4
	l0.3-0.5c0,0,0.1,0,0.2,0c0.2,0,0.4-0.2,0.5-0.4h0.6c0,0.2,0.2,0.4,0.5,0.4c0.1,0,0.1,0,0.2,0l0.3,0.5c-0.1,0.1-0.2,0.2-0.2,0.4
	C15.3,18,15.4,18.1,15.5,18.2z M15,14.4c0,0,0.1,0,0.1,0l0.3,0.5c-0.1,0.1-0.1,0.2-0.1,0.3c0,0,0,0,0,0c0,0,0,0,0,0
	c0,0.1,0.1,0.3,0.1,0.3l-0.3,0.5c0,0-0.1,0-0.1,0c-0.2,0-0.4,0.2-0.5,0.4H14c0-0.2-0.2-0.4-0.5-0.4c0,0-0.1,0-0.1,0l-0.3-0.5
	c0.1-0.1,0.1-0.2,0.1-0.3c0,0,0,0,0,0c0,0,0,0,0,0c0,0,0,0,0-0.1c0-0.1-0.1-0.2-0.1-0.3l0.3-0.5c0,0,0.1,0,0.1,0
	c0.2,0,0.4-0.2,0.5-0.4h0.6C14.6,14.2,14.8,14.4,15,14.4z M15.5,10.2l-0.3,0.5c0,0-0.1,0-0.1,0c-0.2,0-0.4,0.2-0.5,0.4H14
	c0-0.2-0.2-0.4-0.5-0.4h0c0,0-0.1,0-0.1,0l-0.3-0.5c0.1-0.1,0.2-0.2,0.2-0.4c0-0.1-0.1-0.3-0.2-0.4L13.4,9c0,0,0.1,0,0.1,0
	c0.2,0,0.4-0.2,0.5-0.4h0.6C14.6,8.9,14.8,9,15,9c0,0,0.1,0,0.1,0l0.3,0.5c-0.1,0.1-0.2,0.2-0.2,0.4C15.3,10,15.4,10.2,15.5,10.2z
	 M15.5,7.6l-0.3,0.5c0,0-0.1,0-0.1,0c-0.2,0-0.4,0.2-0.5,0.4H14c0-0.2-0.2-0.4-0.5-0.4c0,0-0.1,0-0.1,0l-0.3-0.5
	c0.1-0.1,0.2-0.2,0.2-0.4S13.1,7,13.1,6.9l0.3-0.5c0,0,0.1,0,0.1,0c0.2,0,0.4-0.2,0.5-0.4h0.6c0,0.2,0.2,0.4,0.5,0.4
	c0,0,0.1,0,0.1,0l0.3,0.5c-0.1,0.1-0.2,0.2-0.2,0.4C15.3,7.4,15.4,7.5,15.5,7.6z M15.8,5.1c0.3,0,0.5-0.2,0.5-0.5
	c0-0.3-0.2-0.5-0.5-0.5c0,0-0.1,0-0.1,0l-0.3-0.5c0.1-0.1,0.2-0.2,0.2-0.4c0-0.1-0.1-0.3-0.2-0.4l0.3-0.5c0,0,0.1,0,0.1,0
	c0.3,0,0.5-0.2,0.5-0.5s-0.2-0.5-0.5-0.5c0,0-0.1,0-0.1,0L15.4,1c0.1-0.1,0.2-0.2,0.2-0.4c0-0.3-0.2-0.5-0.5-0.5
	c-0.2,0-0.4,0.2-0.5,0.4H14c0-0.2-0.2-0.4-0.5-0.4c-0.3,0-0.5,0.2-0.5,0.5c0,0.1,0.1,0.3,0.2,0.4l-0.3,0.5c0,0-0.1,0-0.1,0
	c-0.2,0-0.4,0.2-0.5,0.4h-0.6c0-0.2-0.2-0.4-0.5-0.4h0c0,0-0.1,0-0.1,0L10.8,1c0.1-0.1,0.2-0.2,0.2-0.4c0-0.3-0.2-0.5-0.5-0.5
	c-0.2,0-0.4,0.2-0.5,0.4H9.4c0-0.2-0.2-0.4-0.5-0.4c-0.3,0-0.5,0.2-0.5,0.5c0,0.1,0.1,0.3,0.2,0.4L8.3,1.5c0,0-0.1,0-0.1,0h0h0
	c0,0-0.1,0-0.1,0L7.7,1c0.1-0.1,0.2-0.2,0.2-0.4c0-0.3-0.2-0.5-0.5-0.5C7.1,0.1,7,0.3,6.9,0.5H6.3c0-0.2-0.2-0.4-0.5-0.4
	c-0.3,0-0.5,0.2-0.5,0.5c0,0.1,0.1,0.3,0.2,0.4L5.2,1.5c0,0-0.1,0-0.1,0h0c-0.2,0-0.4,0.2-0.5,0.4H4c0-0.2-0.2-0.4-0.5-0.4
	c-0.3,0-0.5,0.2-0.5,0.5c0,0.1,0.1,0.3,0.2,0.4L2.9,2.8c0,0-0.1,0-0.1,0h0h0c-0.2,0-0.4,0.2-0.5,0.4H1.7c0-0.2-0.2-0.4-0.5-0.4
	C1,2.8,0.8,3,0.8,3.3c0,0.1,0.1,0.3,0.2,0.4L0.6,4.1c0,0-0.1,0-0.1,0C0.2,4.1,0,4.3,0,4.6c0,0.3,0.2,0.5,0.5,0.5c0,0,0.1,0,0.1,0
	l0.3,0.5C0.8,5.6,0.8,5.8,0.8,5.9c0,0.1,0.1,0.3,0.2,0.4L0.6,6.8c0,0-0.1,0-0.1,0C0.2,6.8,0,7,0,7.2c0,0.3,0.2,0.5,0.5,0.5
	c0,0,0.1,0,0.1,0l0.3,0.5C0.8,8.3,0.8,8.4,0.8,8.6c0,0.1,0.1,0.3,0.2,0.4L0.6,9.4c0,0-0.1,0-0.1,0C0.2,9.4,0,9.6,0,9.9
	c0,0.3,0.2,0.5,0.5,0.5c0,0,0.1,0,0.1,0l0.3,0.5c-0.1,0.1-0.2,0.2-0.2,0.4c0,0.3,0.2,0.5,0.5,0.5c0.2,0,0.4-0.2,0.5-0.4h0.6
	c0,0.2,0.2,0.4,0.5,0.4h0h0c0,0,0.1,0,0.1,0l0.3,0.5c-0.1,0.1-0.2,0.2-0.2,0.4c0,0.3,0.2,0.5,0.5,0.5C3.8,13,4,12.9,4,12.6h0.6
	c0,0.2,0.2,0.4,0.5,0.4h0l0,0c0,0,0.1,0,0.1,0l0.3,0.5c-0.1,0.1-0.2,0.2-0.2,0.4c0,0.3,0.2,0.5,0.5,0.5c0.2,0,0.4-0.2,0.5-0.4h0.6
	c0,0.2,0.2,0.4,0.5,0.4c0.3,0,0.5-0.2,0.5-0.5c0-0.1-0.1-0.3-0.2-0.4L8,13c0,0,0.1,0,0.1,0c0,0,0,0,0,0h0c0,0,0.1,0,0.1,0l0.3,0.5
	c-0.1,0.1-0.2,0.2-0.2,0.4c0,0.3,0.2,0.5,0.5,0.5c0.2,0,0.4-0.2,0.5-0.4H10c0,0.2,0.2,0.4,0.5,0.4h0c0,0,0.1,0,0.1,0l0.3,0.5
	c-0.1,0.1-0.2,0.2-0.2,0.4c0,0.3,0.2,0.5,0.5,0.5c0.2,0,0.4-0.2,0.5-0.4h0.6c0,0.2,0.2,0.4,0.5,0.4c0,0,0.1,0,0.1,0l0.3,0.5
	c-0.1,0.1-0.1,0.2-0.1,0.3c0,0,0,0,0,0c0,0,0,0,0,0c0,0.1,0.1,0.3,0.1,0.3l-0.3,0.5c0,0-0.1,0-0.1,0c-0.3,0-0.5,0.2-0.5,0.5
	c0,0.3,0.2,0.5,0.5,0.5c0,0,0.1,0,0.1,0l0.3,0.5C13.1,18.9,13,19,13,19.1c0,0,0,0,0,0c0,0,0,0,0,0c0,0.1,0.1,0.3,0.1,0.3L12.9,20
	c0,0-0.1,0-0.2,0c-0.2,0-0.4,0.2-0.5,0.4h-0.6c0-0.2-0.2-0.4-0.5-0.4c-0.3,0-0.5,0.2-0.5,0.5c0,0.1,0.1,0.3,0.2,0.4l-0.3,0.5
	c0,0-0.1,0-0.1,0c-0.2,0-0.4,0.2-0.5,0.4H9.4c0-0.2-0.2-0.4-0.5-0.4c-0.3,0-0.5,0.2-0.5,0.5c0,0.1,0.1,0.3,0.2,0.4l-0.3,0.5
	c0,0-0.1,0-0.1,0h0h0c0,0-0.1,0-0.1,0l-0.3-0.5c0.1-0.1,0.2-0.2,0.2-0.4c0-0.3-0.2-0.5-0.5-0.5c-0.2,0-0.4,0.2-0.5,0.4H6.3
	c0-0.2-0.2-0.4-0.5-0.4h0h0c0,0-0.1,0-0.1,0l-0.3-0.5c0.1-0.1,0.2-0.2,0.2-0.4c0-0.3-0.2-0.5-0.5-0.5c-0.2,0-0.4,0.2-0.5,0.4H4
	C4,20.1,3.8,20,3.5,20c0,0-0.1,0-0.1,0l-0.3-0.5c0,0,0.1-0.1,0.1-0.2c0-0.1,0-0.1,0-0.2c0,0,0,0,0,0c0,0,0,0,0,0
	c0-0.1-0.1-0.3-0.2-0.4l0.3-0.5c0,0,0.1,0,0.1,0c0.2,0,0.4-0.1,0.5-0.4c0,0,0-0.1,0-0.1c0-0.3-0.2-0.5-0.5-0.5c0,0-0.1,0-0.1,0
	l-0.3-0.5c0.1-0.1,0.2-0.2,0.2-0.4C3.3,16.2,3,16,2.8,16c-0.2,0-0.4,0.2-0.5,0.4H1.7c0-0.2-0.2-0.4-0.5-0.4c-0.3,0-0.5,0.2-0.5,0.5
	c0,0.1,0.1,0.3,0.2,0.4l-0.3,0.5c0,0-0.1,0-0.1,0c-0.3,0-0.5,0.2-0.5,0.5c0,0.3,0.2,0.5,0.5,0.5c0,0,0.1,0,0.1,0l0.3,0.5
	c-0.1,0.1-0.2,0.2-0.2,0.4c0,0,0,0,0,0c0,0,0,0,0,0c0,0.1,0.1,0.3,0.2,0.4L0.6,20c0,0-0.1,0-0.1,0C0.2,20,0,20.2,0,20.4
	c0,0.3,0.2,0.5,0.5,0.5c0,0,0.1,0,0.1,0l0.3,0.5c-0.1,0.1-0.2,0.2-0.2,0.4c0,0.3,0.2,0.5,0.5,0.5c0.2,0,0.4-0.2,0.5-0.4h0.6
	c0,0.2,0.2,0.4,0.5,0.4c0,0,0.1,0,0.1,0l0.3,0.5c-0.1,0.1-0.2,0.2-0.2,0.4c0,0.3,0.2,0.5,0.5,0.5c0.2,0,0.4-0.2,0.5-0.4h0.6
	c0,0.2,0.2,0.4,0.5,0.4h0h0c0,0,0.1,0,0.1,0l0.3,0.5c-0.1,0.1-0.2,0.2-0.2,0.4c0,0.3,0.2,0.5,0.5,0.5c0.2,0,0.4-0.2,0.5-0.4h0.6
	c0,0.2,0.2,0.4,0.5,0.4c0.3,0,0.5-0.2,0.5-0.5c0-0.1-0.1-0.3-0.2-0.4L8,23.6c0,0,0.1,0,0.1,0h0h0c0,0,0.1,0,0.1,0l0.3,0.5
	c-0.1,0.1-0.2,0.2-0.2,0.4c0,0.3,0.2,0.5,0.5,0.5c0.2,0,0.4-0.2,0.5-0.4H10c0,0.2,0.2,0.4,0.5,0.4c0.3,0,0.5-0.2,0.5-0.5
	c0-0.1-0.1-0.3-0.2-0.4l0.3-0.5c0,0,0.1,0,0.1,0c0.2,0,0.4-0.2,0.5-0.4h0.6c0,0.2,0.2,0.4,0.5,0.4c0.3,0,0.5-0.2,0.5-0.5
	c0-0.1-0.1-0.3-0.2-0.4l0.3-0.5c0,0,0.1,0,0.1,0c0.2,0,0.4-0.2,0.5-0.4h0.6c0,0.2,0.2,0.4,0.5,0.4c0.3,0,0.5-0.2,0.5-0.5
	c0-0.1-0.1-0.3-0.2-0.4l0.3-0.5c0,0,0.1,0,0.1,0c0.3,0,0.5-0.2,0.5-0.5S16.1,20,15.8,20c0,0-0.1,0-0.1,0l-0.3-0.5
	c0.1-0.1,0.1-0.2,0.1-0.3c0,0,0,0,0,0c0,0,0,0,0,0c0-0.1-0.1-0.3-0.1-0.3l0.3-0.5c0,0,0.1,0,0.1,0c0.3,0,0.5-0.2,0.5-0.5
	c0-0.3-0.2-0.5-0.5-0.5c0,0-0.1,0-0.1,0l-0.3-0.5c0.1-0.1,0.1-0.2,0.1-0.3c0,0,0,0,0,0c0,0,0,0,0,0c0-0.1-0.1-0.3-0.1-0.3l0.3-0.5
	c0,0,0.1,0,0.1,0c0.3,0,0.5-0.2,0.5-0.5c0,0,0,0,0,0c0,0,0,0,0,0c0-0.3-0.2-0.5-0.5-0.5c0,0-0.1,0-0.1,0l-0.3-0.5
	c0.1-0.1,0.1-0.2,0.1-0.3c0,0,0,0,0,0c0,0,0,0,0,0c0-0.3-0.2-0.5-0.5-0.5c-0.2,0-0.4,0.2-0.5,0.4H14c0-0.2-0.2-0.4-0.5-0.4
	c0,0-0.1,0-0.1,0l-0.3-0.5c0.1-0.1,0.2-0.2,0.2-0.4c0-0.1-0.1-0.3-0.2-0.4l0.3-0.5c0,0,0.1,0,0.1,0h0c0.2,0,0.4-0.2,0.5-0.4h0.6
	c0,0.2,0.2,0.4,0.5,0.4c0.3,0,0.5-0.2,0.5-0.5c0-0.1-0.1-0.3-0.2-0.4l0.3-0.5c0,0,0.1,0,0.1,0c0.3,0,0.5-0.2,0.5-0.5
	c0-0.3-0.2-0.5-0.5-0.5c0,0-0.1,0-0.1,0l-0.3-0.5c0.1-0.1,0.2-0.2,0.2-0.4c0-0.1-0.1-0.3-0.2-0.4l0.3-0.5c0,0,0.1,0,0.1,0
	c0.3,0,0.5-0.2,0.5-0.5c0-0.3-0.2-0.5-0.5-0.5c0,0-0.1,0-0.1,0l-0.3-0.5c0.1-0.1,0.2-0.2,0.2-0.4c0-0.1-0.1-0.3-0.2-0.4L15.6,5
	C15.7,5.1,15.7,5.1,15.8,5.1z"/>
<path class="st3" d="M32.6,9.5c-0.3-0.3-0.7-0.6-1.2-0.8c-0.4-0.2-1-0.3-1.5-0.3c-0.6,0-1.1,0.1-1.6,0.3c-0.5,0.2-0.9,0.5-1.2,0.9
	c-0.3,0.4-0.6,0.8-0.8,1.3c-0.2,0.5-0.3,1-0.3,1.5c0,0.5,0.1,1.1,0.3,1.5c0.2,0.5,0.4,0.9,0.8,1.3c0.3,0.4,0.7,0.7,1.2,0.9
	s1,0.3,1.6,0.3c0.5,0,1-0.1,1.4-0.2c0.4-0.1,0.8-0.3,1.1-0.4v-2.8h-2.2v-0.8h3.1v4.2c-0.5,0.3-1.1,0.5-1.6,0.7
	c-0.6,0.1-1.2,0.2-1.8,0.2c-0.7,0-1.3-0.1-1.9-0.4c-0.6-0.2-1.1-0.6-1.5-1c-0.4-0.4-0.8-0.9-1-1.5c-0.2-0.6-0.4-1.2-0.4-2
	c0-0.7,0.1-1.4,0.4-2c0.2-0.6,0.6-1.1,1-1.5c0.4-0.4,0.9-0.8,1.5-1c0.6-0.2,1.2-0.4,1.9-0.4c0.7,0,1.4,0.1,1.9,0.3
	c0.6,0.2,1,0.5,1.4,0.9L32.6,9.5z"/>
<path class="st3" d="M39.4,17.1h-0.9V7.8h2.7c0.5,0,0.9,0,1.3,0.1c0.4,0.1,0.7,0.2,1,0.4c0.3,0.2,0.5,0.5,0.7,0.8
	c0.2,0.3,0.2,0.7,0.2,1.2c0,0.3-0.1,0.7-0.2,0.9c-0.1,0.3-0.3,0.5-0.5,0.7c-0.2,0.2-0.5,0.4-0.7,0.5c-0.3,0.1-0.6,0.2-0.9,0.2
	l2.7,4.4h-1.2L41,12.8h-1.6V17.1z M39.4,12h1.6c0.8,0,1.3-0.1,1.8-0.4c0.4-0.3,0.6-0.7,0.6-1.2c0-0.3-0.1-0.6-0.2-0.8
	C43.1,9.3,43,9.1,42.8,9c-0.2-0.1-0.4-0.2-0.7-0.3c-0.3-0.1-0.6-0.1-1-0.1h-1.7V12z"/>
<path class="st3" d="M49.5,17.1h-1l4-9.3h0.9l4,9.3h-1l-1-2.4h-4.8L49.5,17.1z M50.8,13.8h4.1l-2-4.9L50.8,13.8z"/>
<path class="st3" d="M65.9,15.5L65.9,15.5L69,7.8h1.4v9.3h-0.9V9h0l-3.4,8.1h-0.5L62.2,9h0v8.1h-0.9V7.8h1.4L65.9,15.5z"/>
<path class="st3" d="M76.5,17.1h-0.9V7.8h0.9V17.1z"/>
<path class="st3" d="M88.1,15.7L88.1,15.7l0-7.9h0.9v9.3h-1.2l-5.4-8h0v8h-0.9V7.8h1.2L88.1,15.7z"/>
<path class="st3" d="M94.9,16.3h5v0.8h-5.9V7.8h5.8v0.8h-4.8v3.2h4.5v0.8h-4.5V16.3z"/>
</svg>
