<svg fill="none" stroke-linecap="square" stroke-miterlimit="10" width="930.814" height="636.496" xmlns="http://www.w3.org/2000/svg"><clipPath id="a"><path d="M0 0h1152v864H0Z"/></clipPath><g clip-path="url(#a)" transform="translate(-110.593 -113.752)"><path fill="#fff" d="M111.093 114.252h279.181v635.496h-279.18Z" fill-rule="evenodd"/><path stroke="#000" stroke-linejoin="round" stroke-linecap="butt" d="M111.093 114.252h279.181v635.496h-279.18Z"/><path fill="#000" d="M121.734 143.732v-15.266h5.765q1.516 0 2.329.141 1.109.187 1.875.719.765.531 1.218 1.484.469.938.469 2.078 0 1.938-1.25 3.297-1.234 1.344-4.469 1.344h-3.906v6.203zm2.031-8.016h3.938q1.968 0 2.78-.718.829-.735.829-2.047 0-.969-.484-1.64-.485-.688-1.282-.907-.5-.14-1.875-.14h-3.906zm11.944 8.016v-11.063h1.688v1.672q.64-1.172 1.187-1.547t1.204-.375q.953 0 1.921.61l-.64 1.734q-.688-.406-1.375-.406-.61 0-1.11.375-.484.36-.687 1.016-.313 1-.313 2.187v5.797zm6.415-5.531q0-3.078 1.72-4.547 1.421-1.235 3.468-1.235 2.281 0 3.719 1.5 1.453 1.485 1.453 4.125 0 2.141-.64 3.36-.626 1.219-1.86 1.906-1.219.672-2.672.672-2.313 0-3.75-1.484-1.438-1.5-1.438-4.297zm1.938 0q0 2.125.922 3.187.922 1.047 2.328 1.047 1.406 0 2.328-1.062.922-1.063.922-3.235 0-2.047-.938-3.11-.921-1.062-2.312-1.062-1.406 0-2.328 1.063-.922 1.047-.922 3.172zm17.846 1.484 1.844.234q-.297 1.907-1.547 2.985-1.25 1.078-3.063 1.078-2.265 0-3.656-1.484-1.375-1.485-1.375-4.25 0-1.797.594-3.141t1.812-2.016q1.22-.672 2.641-.672 1.797 0 2.937.922 1.157.907 1.485 2.578l-1.828.282q-.266-1.11-.922-1.672-.656-.563-1.594-.563-1.422 0-2.312 1.016-.875 1.016-.875 3.203 0 2.234.843 3.25.86 1 2.235 1 1.11 0 1.843-.672.735-.672.938-2.078zm11.023.484 1.922.235q-.453 1.703-1.687 2.64-1.235.938-3.172.938-2.422 0-3.844-1.484-1.422-1.5-1.422-4.204 0-2.796 1.438-4.328 1.437-1.547 3.734-1.547 2.219 0 3.61 1.516 1.406 1.5 1.406 4.25v.5h-8.25q.11 1.813 1.031 2.781.922.97 2.313.97 1.03 0 1.75-.532.734-.547 1.171-1.735zm-6.156-3.03h6.172q-.125-1.391-.703-2.095-.906-1.078-2.328-1.078-1.297 0-2.172.86-.875.86-.969 2.312zm9.69 3.296 1.86-.297q.156 1.11.859 1.703.718.594 2 .594 1.297 0 1.922-.516.625-.53.625-1.234 0-.64-.563-1-.375-.25-1.906-.64-2.063-.516-2.86-.891-.796-.39-1.218-1.063-.407-.672-.407-1.484 0-.734.329-1.36.343-.64.937-1.062.438-.312 1.188-.531.75-.235 1.625-.235 1.296 0 2.28.375.985.375 1.454 1.016.469.64.64 1.719l-1.828.25q-.125-.86-.734-1.328-.594-.485-1.687-.485-1.282 0-1.844.422-.547.422-.547 1 0 .36.234.656.22.297.72.5.28.11 1.655.485 1.985.531 2.766.875.797.328 1.234.984.453.64.453 1.594 0 .937-.546 1.766-.547.828-1.579 1.28-1.03.454-2.328.454-2.156 0-3.297-.89-1.125-.907-1.437-2.657zm10.664 0 1.86-.297q.156 1.11.859 1.703.719.594 2 .594 1.297 0 1.922-.516.625-.53.625-1.234 0-.64-.563-1-.375-.25-1.906-.64-2.063-.516-2.86-.891-.796-.39-1.218-1.063-.406-.672-.406-1.484 0-.734.328-1.36.343-.64.937-1.062.438-.312 1.188-.531.75-.235 1.625-.235 1.297 0 2.28.375.985.375 1.454 1.016.469.64.64 1.719l-1.827.25q-.125-.86-.735-1.328-.594-.485-1.687-.485-1.282 0-1.844.422-.547.422-.547 1 0 .36.234.656.22.297.72.5.28.11 1.655.485 1.985.531 2.766.875.797.328 1.234.984.454.64.454 1.594 0 .937-.547 1.766-.547.828-1.578 1.28-1.032.454-2.329.454-2.156 0-3.296-.89-1.125-.907-1.438-2.657zm17.34 3.297v-11.063h1.672v1.547q.53-.812 1.39-1.297.86-.5 1.969-.5 1.234 0 2.016.516.78.5 1.109 1.422 1.313-1.938 3.406-1.938 1.657 0 2.532.922.89.907.89 2.797v7.594h-1.86v-6.969q0-1.125-.187-1.61-.187-.5-.672-.796-.468-.313-1.109-.313-1.172 0-1.937.782-.766.765-.766 2.484v6.422h-1.875v-7.188q0-1.25-.469-1.875-.453-.625-1.5-.625-.781 0-1.453.422-.672.407-.984 1.22-.297.796-.297 2.312v5.734zm25.344-3.563 1.922.235q-.453 1.703-1.687 2.64-1.235.938-3.172.938-2.422 0-3.844-1.484-1.422-1.5-1.422-4.204 0-2.796 1.438-4.328 1.437-1.547 3.734-1.547 2.219 0 3.61 1.516 1.406 1.5 1.406 4.25v.5h-8.25q.11 1.813 1.031 2.781.922.97 2.313.97 1.03 0 1.75-.532.734-.547 1.171-1.735zm-6.156-3.03h6.172q-.125-1.391-.703-2.095-.906-1.078-2.328-1.078-1.297 0-2.172.86-.875.86-.969 2.312zm10.44 6.593v-11.063h1.672v1.547q.531-.812 1.39-1.297.86-.5 1.97-.5 1.234 0 2.015.516.781.5 1.11 1.422 1.312-1.938 3.405-1.938 1.657 0 2.532.922.89.907.89 2.797v7.594h-1.86v-6.969q0-1.125-.187-1.61-.187-.5-.671-.796-.47-.313-1.11-.313-1.172 0-1.937.782-.766.765-.766 2.484v6.422h-1.875v-7.188q0-1.25-.469-1.875-.453-.625-1.5-.625-.78 0-1.453.422-.672.407-.984 1.22-.297.796-.297 2.312v5.734zm17.063-5.531q0-3.078 1.72-4.547 1.42-1.235 3.468-1.235 2.281 0 3.719 1.5 1.453 1.485 1.453 4.125 0 2.141-.64 3.36-.626 1.219-1.86 1.906-1.219.672-2.672.672-2.313 0-3.75-1.484-1.438-1.5-1.438-4.297zm1.938 0q0 2.125.922 3.187.922 1.047 2.328 1.047 1.406 0 2.328-1.062.922-1.063.922-3.235 0-2.047-.938-3.11-.922-1.062-2.312-1.062-1.406 0-2.328 1.063-.922 1.047-.922 3.172zm10.612 5.531v-11.063h1.687v1.672q.64-1.172 1.188-1.547.546-.375 1.203-.375.953 0 1.922.61l-.641 1.734q-.688-.406-1.375-.406-.61 0-1.11.375-.484.36-.687 1.016-.312 1-.312 2.187v5.797zm7.04 4.266-.22-1.766q.626.172 1.079.172.625 0 1-.219.375-.203.61-.578.187-.281.577-1.39.047-.157.172-.47l-4.203-11.078h2.016l2.312 6.407q.438 1.218.797 2.562.328-1.297.766-2.515l2.375-6.454h1.875l-4.22 11.25q-.67 1.829-1.046 2.516-.5.922-1.156 1.344-.64.437-1.531.437-.547 0-1.204-.218zm11.257-13.188v-2.14h2.14v2.14zm0 8.922v-2.14h2.14v2.14z"/><path fill="#d9d9d9" d="M111.093 177.527h279.181v215.087h-279.18Z" fill-rule="evenodd"/><path stroke="#000" stroke-linejoin="round" stroke-linecap="butt" d="M111.093 177.527h279.181v215.087h-279.18Z"/><path fill="#000" d="M121.78 207.007v-15.265h11.032v1.797h-9.016v4.671h8.453v1.797h-8.453v5.203h9.375v1.797zm13.945 0v-11.062h1.688v1.578q1.218-1.828 3.515-1.828 1 0 1.844.36.844.359 1.25.952.422.578.594 1.375.093.516.093 1.828v6.797h-1.875v-6.734q0-1.14-.218-1.703-.22-.578-.782-.906-.546-.344-1.296-.344-1.204 0-2.079.765-.859.75-.859 2.875v6.047zm19.08-4.047 1.844.235q-.297 1.906-1.547 2.984t-3.062 1.078q-2.266 0-3.656-1.484-1.375-1.484-1.375-4.25 0-1.797.593-3.14.594-1.344 1.813-2.016 1.219-.672 2.64-.672 1.797 0 2.938.922 1.156.906 1.484 2.578l-1.828.281q-.265-1.11-.922-1.672-.656-.562-1.593-.562-1.422 0-2.313 1.015-.875 1.016-.875 3.203 0 2.235.844 3.25.86 1 2.234 1 1.11 0 1.844-.671.734-.672.938-2.079zm3.399 4.047v-15.265h1.875v15.265zm12.004-1.359q-1.047.875-2.016 1.25-.953.36-2.062.36-1.813 0-2.797-.891-.984-.89-.984-2.282 0-.812.375-1.484.375-.672.968-1.078.594-.406 1.344-.61.563-.14 1.672-.28 2.266-.266 3.344-.641.015-.39.015-.5 0-1.14-.53-1.61-.72-.64-2.141-.64-1.329 0-1.954.468-.625.47-.937 1.641l-1.828-.25q.25-1.172.812-1.89.578-.735 1.657-1.126 1.093-.39 2.515-.39 1.422 0 2.297.344.89.328 1.313.828.421.5.578 1.281.093.469.093 1.719v2.5q0 2.625.125 3.312.125.688.47 1.328h-1.954q-.297-.578-.375-1.359zm-.156-4.188q-1.016.407-3.063.704-1.156.171-1.64.375-.47.203-.735.609-.265.406-.265.89 0 .75.562 1.25.578.5 1.672.5 1.078 0 1.922-.468.844-.485 1.25-1.297.297-.64.297-1.875zm7.877 5.547-4.219-11.062h1.985l2.375 6.625q.39 1.078.703 2.234.25-.875.703-2.11l2.453-6.75h1.938l-4.188 11.063zm15.164-3.562 1.922.234q-.453 1.703-1.687 2.64-1.235.938-3.172.938-2.422 0-3.844-1.484-1.422-1.5-1.422-4.203 0-2.797 1.438-4.328 1.437-1.547 3.734-1.547 2.219 0 3.61 1.515 1.406 1.5 1.406 4.25v.5h-8.25q.109 1.813 1.03 2.782.923.968 2.313.968 1.032 0 1.75-.53.735-.548 1.172-1.735zm-6.156-3.031h6.172q-.125-1.391-.703-2.094-.907-1.078-2.328-1.078-1.297 0-2.172.86-.875.858-.97 2.312z"/><path fill="#fff" d="M111.093 500.06h279.181v167.244h-279.18Z" fill-rule="evenodd"/><path stroke="#000" stroke-linejoin="round" stroke-linecap="butt" d="M111.093 500.06h279.181v167.244h-279.18Z"/><path fill="#000" d="M131.75 514.274h2.03v8.813q0 2.312-.53 3.672-.516 1.344-1.876 2.203-1.359.844-3.562.844-2.14 0-3.516-.735-1.36-.75-1.953-2.14-.578-1.407-.578-3.844v-8.813h2.031v8.813q0 1.984.36 2.937.375.938 1.265 1.454.907.5 2.219.5 2.219 0 3.156-1 .953-1.016.953-3.891zm5.152 15.266v-11.062h1.687v1.578q1.22-1.828 3.516-1.828 1 0 1.844.359.844.36 1.25.953.422.578.594 1.375.093.516.093 1.828v6.797h-1.875v-6.734q0-1.141-.219-1.703-.218-.579-.78-.907-.548-.343-1.298-.343-1.203 0-2.078.765-.86.75-.86 2.875v6.047zm15.955-1.672.266 1.656q-.781.157-1.406.157-1.032 0-1.594-.313-.563-.328-.797-.844-.219-.53-.219-2.218v-6.375h-1.375v-1.453h1.375v-2.735l1.86-1.125v3.86h1.89v1.453h-1.89v6.468q0 .813.093 1.047.11.219.329.36.234.125.64.125.313 0 .828-.063zm1.817 1.672v-11.062h1.687v1.671q.64-1.171 1.188-1.546.546-.375 1.203-.375.953 0 1.922.609l-.641 1.734q-.687-.406-1.375-.406-.61 0-1.11.375-.484.36-.687 1.016-.312 1-.312 2.187v5.797zm14.368 0v-1.625q-1.297 1.875-3.516 1.875-.969 0-1.828-.375-.844-.375-1.266-.937-.406-.579-.562-1.391-.125-.563-.125-1.75v-6.86h1.875v6.141q0 1.469.125 1.969.172.75.734 1.172.578.422 1.422.422t1.578-.438q.75-.437 1.047-1.172.313-.75.313-2.172v-5.921h1.875v11.062zm3.861-3.297 1.86-.297q.156 1.11.86 1.703.718.594 2 .594 1.296 0 1.921-.515.625-.532.625-1.235 0-.64-.562-1-.375-.25-1.907-.64-2.062-.516-2.86-.891-.796-.39-1.218-1.063-.406-.671-.406-1.484 0-.734.328-1.36.344-.64.938-1.062.437-.312 1.187-.531.75-.234 1.625-.234 1.297 0 2.281.375.985.375 1.453 1.015.47.64.641 1.719l-1.828.25q-.125-.86-.734-1.328-.594-.485-1.688-.485-1.281 0-1.844.422-.547.422-.547 1 0 .36.235.657.219.296.719.5.28.109 1.656.484 1.984.531 2.765.875.797.328 1.235.984.453.64.453 1.594 0 .938-.547 1.766-.547.828-1.578 1.28-1.031.454-2.328.454-2.156 0-3.297-.89-1.125-.907-1.438-2.657zm15.508 1.625.266 1.656q-.781.157-1.406.157-1.032 0-1.594-.313-.563-.328-.797-.844-.219-.53-.219-2.218v-6.375h-1.375v-1.453h1.375v-2.735l1.86-1.125v3.86h1.89v1.453h-1.89v6.468q0 .813.093 1.047.11.219.328.36.235.125.641.125.313 0 .828-.063zm9.41-1.89 1.922.234q-.453 1.703-1.687 2.64-1.235.938-3.172.938-2.422 0-3.844-1.484-1.422-1.5-1.422-4.203 0-2.797 1.438-4.329 1.437-1.546 3.734-1.546 2.219 0 3.61 1.515 1.406 1.5 1.406 4.25v.5h-8.25q.109 1.813 1.03 2.781.923.97 2.313.97 1.032 0 1.75-.532.735-.547 1.172-1.734zm-6.156-3.032h6.172q-.125-1.39-.703-2.093-.907-1.079-2.328-1.079-1.297 0-2.172.86-.875.86-.969 2.312zm17.612 6.594v-1.39q-1.047 1.64-3.094 1.64-1.313 0-2.422-.719-1.11-.734-1.719-2.047-.61-1.312-.61-3 0-1.656.548-3 .547-1.359 1.656-2.078 1.11-.718 2.469-.718 1 0 1.781.421.781.422 1.266 1.094v-5.469h1.875v15.266zm-5.922-5.516q0 2.125.89 3.172.907 1.047 2.125 1.047 1.22 0 2.079-1 .859-1 .859-3.062 0-2.282-.875-3.344-.875-1.063-2.156-1.063-1.25 0-2.094 1.032-.828 1.015-.828 3.218zm16.521 5.516v-11.062h1.688v1.671q.64-1.171 1.187-1.546t1.204-.375q.953 0 1.921.609l-.64 1.734q-.688-.406-1.375-.406-.61 0-1.11.375-.484.36-.687 1.016-.313 1-.313 2.187v5.797zm14.369 0v-1.625q-1.297 1.875-3.516 1.875-.969 0-1.828-.375-.844-.375-1.266-.937-.406-.579-.562-1.391-.125-.563-.125-1.75v-6.86h1.875v6.141q0 1.469.125 1.969.172.75.734 1.172.578.422 1.422.422t1.578-.438q.75-.437 1.047-1.172.312-.75.312-2.172v-5.921h1.875v11.062zm4.611 0v-11.062h1.688v1.578q1.219-1.828 3.515-1.828 1 0 1.844.359.844.36 1.25.953.422.578.594 1.375.094.516.094 1.828v6.797h-1.875v-6.734q0-1.141-.22-1.703-.218-.579-.78-.907-.547-.343-1.297-.343-1.203 0-2.078.765-.86.75-.86 2.875v6.047zm15.956-1.672.265 1.656q-.78.157-1.406.157-1.031 0-1.594-.313-.562-.328-.797-.844-.218-.53-.218-2.218v-6.375h-1.375v-1.453h1.375v-2.735l1.86-1.125v3.86h1.89v1.453h-1.89v6.468q0 .813.093 1.047.11.219.328.36.234.125.64.125.313 0 .829-.063zm1.847-11.437v-2.157h1.875v2.157zm0 13.109v-11.062h1.875v11.062zm4.723 0v-11.062h1.672v1.546q.531-.812 1.39-1.296.86-.5 1.97-.5 1.234 0 2.015.515.781.5 1.11 1.422 1.312-1.937 3.406-1.937 1.656 0 2.53.921.891.907.891 2.797v7.594h-1.859v-6.969q0-1.125-.187-1.61-.188-.5-.672-.796-.47-.312-1.11-.312-1.172 0-1.937.78-.766.766-.766 2.485v6.422h-1.875v-7.187q0-1.25-.469-1.875-.453-.625-1.5-.625-.78 0-1.453.421-.672.407-.984 1.22-.297.796-.297 2.312v5.734zm25.345-3.562 1.922.234q-.454 1.703-1.688 2.64-1.234.938-3.172.938-2.422 0-3.844-1.484-1.421-1.5-1.421-4.203 0-2.797 1.437-4.329 1.438-1.546 3.734-1.546 2.22 0 3.61 1.515 1.406 1.5 1.406 4.25v.5h-8.25q.11 1.813 1.031 2.781.922.97 2.313.97 1.031 0 1.75-.532.734-.547 1.172-1.734zm-6.157-3.032h6.172q-.125-1.39-.703-2.093-.906-1.079-2.328-1.079-1.297 0-2.172.86-.875.86-.969 2.312z"/><path fill="none" d="M167.691 578.226h222.583V665.5H167.691Z"/><path fill="#000" d="m184.02 605.146-.032-1.235q-.75.75-1.515 1.078-.766.313-1.625.313-.782 0-1.344-.188-.547-.203-.906-.546-.36-.36-.532-.829-.156-.484-.156-1.03 0-1.376 1.016-2.157 1.031-.781 3.031-.781h1.89v-.797q0-.813-.515-1.297-.516-.5-1.578-.5-.781 0-1.531.187-.75.172-1.547.485v-1.438q.297-.109.656-.203.375-.11.781-.187.406-.078.86-.125.453-.063.906-.063.828 0 1.484.188.672.172 1.125.547.469.375.703.953.25.562.25 1.328v6.297zm-.172-4.157h-2.016q-.578 0-1.016.125-.422.11-.703.329-.265.218-.406.53-.125.298-.125.673 0 .265.078.515.078.235.266.422.187.188.468.297.297.11.72.11.546 0 1.25-.329.702-.343 1.484-1.062zm11.804 1.657q0 .484-.172.875-.156.375-.438.672-.28.296-.656.515-.375.203-.797.344-.422.125-.875.187-.453.063-.875.063-.922 0-1.703-.078t-1.531-.266v-1.453q.797.234 1.594.36.796.109 1.578.109 1.14 0 1.687-.313.547-.312.547-.89 0-.235-.094-.422-.078-.203-.312-.375-.219-.188-.703-.375-.485-.203-1.313-.438-.61-.187-1.14-.422-.516-.234-.907-.546-.375-.329-.593-.75-.22-.422-.22-1.016 0-.375.173-.828.172-.453.594-.844.437-.406 1.171-.656.735-.266 1.813-.266.547 0 1.203.063.656.062 1.36.203v1.406q-.75-.172-1.422-.25-.657-.094-1.157-.094-.593 0-1 .094-.39.078-.656.25-.25.156-.36.375-.109.203-.109.453t.094.453q.11.188.36.375.265.188.718.375.469.188 1.219.407.812.234 1.36.5.562.25.905.578.36.312.5.718.157.407.157.907zm11.148-6.64-3.11 8.171q-.484 1.25-1 2.156-.515.906-1.125 1.485-.61.578-1.343.843-.735.282-1.625.282-.25 0-.438-.016-.187-.016-.422-.031v-1.438q.203.031.438.047.25.031.5.031.437 0 .812-.14.39-.125.719-.406.344-.282.656-.75.313-.454.594-1.094l-3.656-9.14h1.812l2.313 6.046.468 1.422.532-1.469 2.14-6zm2.116 0h1.422l.063 1.468q.39-.469.765-.781.375-.313.735-.5.36-.204.734-.282.375-.078.781-.078 1.407 0 2.125.844.735.828.735 2.5v5.969h-1.594v-5.844q0-1.078-.406-1.578-.39-.516-1.188-.516-.281 0-.562.094-.282.078-.578.297-.297.203-.657.578-.343.36-.78.906v6.063h-1.595zm17.367 8.796q-.625.25-1.281.36-.64.109-1.328.109-2.172 0-3.344-1.172-1.172-1.172-1.172-3.438 0-1.078.328-1.953.344-.89.953-1.515.61-.641 1.453-.985.86-.344 1.875-.344.72 0 1.328.11.625.094 1.188.328v1.516q-.594-.313-1.219-.454-.61-.14-1.265-.14-.61 0-1.157.234-.53.235-.937.672-.406.422-.656 1.063-.235.625-.235 1.421 0 1.657.797 2.485.813.812 2.25.812.64 0 1.25-.14t1.172-.438zm11.945 4.078h-10.25v-1.312h10.25zm9.195-8.797q0 .344-.016.578 0 .22-.031.422h-6.422q0 1.406.781 2.156.797.75 2.266.75.406 0 .797-.03.406-.032.78-.079.376-.062.72-.125.343-.078.625-.156v1.297q-.641.187-1.47.297-.812.109-1.687.109-1.171 0-2.015-.312-.844-.313-1.39-.922-.548-.61-.813-1.485-.25-.875-.25-2 0-.953.28-1.812.282-.86.813-1.516.532-.656 1.297-1.031.782-.39 1.766-.39.953 0 1.687.312.75.297 1.25.844.5.546.766 1.343.266.782.266 1.75zm-1.657-.219q.032-.609-.125-1.109-.14-.516-.453-.875-.297-.375-.75-.578-.453-.203-1.062-.203-.516 0-.953.203-.422.203-.735.562-.297.36-.5.875-.187.516-.234 1.125zm12.43 5.282h-2.11l-2.469-3.485-2.437 3.485h-2.047l3.547-4.594-3.39-4.547h2.03l2.407 3.516 2.36-3.516h1.968l-3.438 4.578zm5.132-7.828h-2.703v-1.313h4.297v7.813h2.734v1.328h-7.344v-1.328h3.016zm.547-5.157q.265 0 .484.094.234.094.406.281.172.172.266.39.094.22.094.485 0 .25-.094.485-.094.234-.266.406-.172.172-.406.266-.219.093-.484.093-.266 0-.5-.093-.22-.094-.391-.266-.156-.172-.266-.406-.093-.235-.093-.485 0-.265.093-.484.11-.219.266-.39.172-.188.39-.282.235-.094.5-.094zm13.96 12.86q-.531.14-1.11.187-.577.063-1.171.063-1.719 0-2.563-.782-.843-.78-.843-2.39v-4.766h-2.563v-1.328h2.563v-2.516l1.578-.406v2.922h4.11v1.328h-4.11v4.64q0 .985.515 1.47.532.484 1.547.484.438 0 .953-.063.532-.062 1.094-.218zm11.68 3.86h-10.25v-1.313h10.25zm9.288-8.47q0 1.22-.344 2.141-.344.906-.953 1.516-.594.593-1.422.89-.812.297-1.766.297-.437 0-.875-.047-.437-.047-.875-.156v3.828h-1.593v-12.875h1.422l.093 1.531q.688-.937 1.453-1.312.782-.39 1.688-.39.781 0 1.375.327.594.328.984.938.407.594.61 1.437.203.828.203 1.875zm-1.625.063q0-.719-.11-1.313-.109-.609-.343-1.03-.22-.423-.578-.657-.344-.25-.844-.25-.297 0-.61.094-.312.093-.64.328-.328.218-.703.593-.36.36-.782.907v4.437q.438.172.922.281.485.11.938.11 1.281 0 2.015-.875.735-.875.735-2.625zm12.023.031q0 1.063-.313 1.953-.297.89-.86 1.531-.562.625-1.374.97-.813.343-1.844.343-.984 0-1.766-.297-.765-.312-1.312-.89-.547-.594-.828-1.47-.281-.874-.281-2.015 0-1.062.296-1.937.297-.891.86-1.516.562-.64 1.375-.984.812-.36 1.844-.36.984 0 1.765.313.781.297 1.313.89.547.578.828 1.453.297.875.297 2.016zm-1.625.063q0-.844-.188-1.47-.187-.64-.531-1.062-.344-.422-.844-.64-.5-.22-1.11-.22-.702 0-1.218.282-.5.281-.828.75-.313.453-.469 1.078-.156.61-.156 1.282 0 .859.187 1.5.188.625.532 1.046.36.422.843.641.5.219 1.11.219.719 0 1.219-.281.5-.282.828-.735.328-.469.468-1.078.157-.625.157-1.312zm7.038-3.25h-2.703v-1.313h4.297v7.813h2.734v1.328H311.6v-1.328h3.015zm.547-5.157q.266 0 .485.094.234.094.406.281.172.172.265.39.094.22.094.485 0 .25-.094.485-.093.234-.265.406-.172.172-.406.265-.22.094-.485.094t-.5-.094q-.219-.093-.39-.265-.157-.172-.266-.406-.094-.235-.094-.485 0-.265.094-.484.11-.219.266-.39.171-.188.39-.282.235-.094.5-.094zm6.586 3.844h1.421l.063 1.469q.39-.469.766-.781.375-.313.734-.5.36-.204.734-.282.375-.078.782-.078 1.406 0 2.125.844.734.828.734 2.5v5.969h-1.594v-5.844q0-1.078-.406-1.578-.39-.516-1.188-.516-.28 0-.562.094-.281.078-.578.297-.297.203-.656.578-.344.36-.782.906v6.063h-1.593zm17.632 9.016q-.531.14-1.11.187-.578.063-1.171.063-1.72 0-2.563-.782-.844-.78-.844-2.39v-4.766h-2.562v-1.328h2.562v-2.516l1.578-.406v2.922h4.11v1.328h-4.11v4.64q0 .985.516 1.47.531.484 1.547.484.437 0 .953-.063.531-.062 1.094-.218zm10.617-4.938q0 .344-.016.578 0 .219-.031.422h-6.422q0 1.406.781 2.156.797.75 2.266.75.406 0 .797-.03.406-.032.78-.079.376-.062.72-.125.343-.078.625-.156v1.297q-.641.187-1.47.297-.812.109-1.687.109-1.172 0-2.015-.313-.844-.312-1.39-.921-.548-.61-.813-1.485-.25-.875-.25-2 0-.953.28-1.812.282-.86.813-1.516.532-.656 1.297-1.031.781-.39 1.766-.39.953 0 1.687.312.75.297 1.25.843.5.547.766 1.344.266.781.266 1.75zm-1.657-.219q.031-.609-.125-1.109-.14-.516-.453-.875-.297-.375-.75-.578-.453-.203-1.062-.203-.516 0-.953.203-.422.203-.735.562-.297.36-.5.875-.187.516-.234 1.125zm4.554-3.859h1.454l.046 1.688q.813-.985 1.594-1.422.797-.438 1.594-.438 1.422 0 2.156.922.735.922.672 2.734h-1.594q.016-1.203-.359-1.734-.375-.547-1.11-.547-.312 0-.64.11-.328.109-.672.359-.328.25-.719.64-.375.391-.812.954v5.875h-1.61zm13.555-.172q.28 0 .53.125.266.11.454.297.187.188.297.453.125.25.125.531 0 .297-.125.547-.11.25-.297.438-.188.187-.453.297-.25.109-.531.109-.282 0-.532-.11-.25-.109-.453-.296-.187-.188-.297-.438-.109-.25-.109-.547 0-.28.11-.53.109-.266.296-.454.203-.187.453-.297.25-.125.532-.125zm0 6.688q.28 0 .53.109.266.11.454.313.187.187.297.437.125.25.125.531 0 .297-.125.547-.11.25-.297.453-.188.188-.453.282-.25.109-.531.109-.282 0-.532-.11-.25-.093-.453-.28-.187-.204-.297-.454-.109-.25-.109-.547 0-.281.11-.531.109-.25.296-.437.203-.204.453-.313.25-.11.532-.11zM222.783 624.67q.297 0 .578.126.281.125.484.328.204.203.313.484.125.281.125.594 0 .312-.125.594-.11.265-.313.468-.203.204-.484.313-.281.125-.578.125-.328 0-.61-.125-.265-.11-.468-.313t-.328-.468q-.11-.282-.11-.594 0-.313.11-.594.125-.281.328-.484.203-.203.469-.328.28-.125.609-.125zm10.257 0q.297 0 .578.126.282.125.485.328t.312.484q.125.281.125.594 0 .312-.125.594-.11.265-.312.468-.203.204-.485.313-.28.125-.578.125-.328 0-.61-.125-.265-.11-.468-.313t-.328-.468q-.11-.282-.11-.594 0-.313.11-.594.125-.281.328-.484.203-.203.469-.328.281-.125.61-.125zm10.258 0q.296 0 .578.126.281.125.484.328.203.203.313.484.125.281.125.594 0 .312-.125.594-.11.265-.313.468-.203.204-.484.313-.282.125-.578.125-.329 0-.61-.125-.265-.11-.469-.313-.203-.203-.328-.468-.109-.282-.109-.594 0-.313.11-.594.124-.281.327-.484.204-.203.47-.328.28-.125.609-.125z"/><path fill="none" d="M264.84 240.53h98.236v87.276H264.84z"/><path fill="#000" d="M282.402 267.107q-.625.25-1.28.36-.641.109-1.329.109-2.172 0-3.344-1.172-1.172-1.172-1.172-3.438 0-1.078.329-1.953.343-.89.953-1.516.609-.64 1.453-.984.86-.344 1.875-.344.719 0 1.328.11.625.093 1.187.328v1.515q-.593-.312-1.218-.453-.61-.14-1.266-.14-.61 0-1.156.234-.531.234-.938.672-.406.422-.656 1.062-.234.625-.234 1.422 0 1.657.796 2.485.813.812 2.25.812.641 0 1.25-.14.61-.141 1.172-.438zm11.117-4.297q0 1.062-.312 1.953-.297.89-.86 1.531-.562.625-1.375.969-.812.344-1.844.344-.984 0-1.765-.297-.766-.313-1.313-.89-.547-.594-.828-1.47-.281-.874-.281-2.015 0-1.063.297-1.938.297-.89.86-1.515.562-.64 1.374-.985.813-.359 1.844-.359.984 0 1.766.313.78.296 1.312.89.547.578.828 1.453.297.875.297 2.016zm-1.625.062q0-.843-.187-1.468-.188-.641-.532-1.063-.343-.422-.843-.64-.5-.22-1.11-.22-.703 0-1.219.282-.5.281-.828.75-.312.453-.468 1.078-.157.61-.157 1.281 0 .86.188 1.5.187.625.531 1.047.36.422.844.64.5.22 1.11.22.718 0 1.218-.282.5-.28.828-.734.328-.469.469-1.078.156-.625.156-1.313zm3.46.204q0-1.172.313-2.079.312-.906.906-1.53.594-.626 1.406-.938.829-.328 1.844-.328.438 0 .86.062.421.047.828.156v-3.843h1.593v12.875h-1.421l-.047-1.735q-.672.969-1.453 1.438-.766.453-1.672.453-.782 0-1.375-.313-.594-.328-1-.922-.39-.609-.594-1.437-.188-.844-.188-1.86zm1.61-.11q0 1.656.484 2.485.5.812 1.39.812.595 0 1.266-.531.672-.547 1.407-1.61v-4.234q-.39-.187-.86-.281-.468-.094-.937-.094-1.297 0-2.031.844-.72.828-.72 2.61zm16.835-.578q0 .344-.015.578 0 .219-.032.422h-6.421q0 1.406.78 2.156.798.75 2.266.75.407 0 .797-.03.407-.032.782-.079.375-.063.718-.125.344-.078.625-.156v1.297q-.64.187-1.468.296-.813.11-1.688.11-1.172 0-2.016-.313-.843-.312-1.39-.922-.547-.609-.813-1.484-.25-.875-.25-2 0-.953.282-1.812.28-.86.812-1.516.531-.656 1.297-1.031.781-.39 1.766-.39.953 0 1.687.312.75.296 1.25.843.5.547.766 1.344.265.781.265 1.75zm-1.656-.219q.031-.61-.125-1.11-.14-.515-.453-.874-.297-.375-.75-.578-.453-.203-1.063-.203-.515 0-.953.203-.422.203-.734.562-.297.36-.5.875-.188.516-.234 1.125zM282.402 289.507q-.625.25-1.28.36-.641.109-1.329.109-2.172 0-3.344-1.172-1.172-1.172-1.172-3.438 0-1.078.329-1.953.343-.89.953-1.516.609-.64 1.453-.984.86-.344 1.875-.344.719 0 1.328.11.625.093 1.187.328v1.515q-.593-.312-1.218-.453-.61-.14-1.266-.14-.61 0-1.156.234-.531.234-.938.672-.406.422-.656 1.062-.234.625-.234 1.422 0 1.657.796 2.485.813.812 2.25.812.641 0 1.25-.14.61-.141 1.172-.438zm11.117-4.297q0 1.062-.312 1.953-.297.89-.86 1.531-.562.625-1.375.969-.812.344-1.844.344-.984 0-1.765-.297-.766-.313-1.313-.89-.547-.594-.828-1.47-.281-.874-.281-2.015 0-1.063.297-1.938.297-.89.86-1.515.562-.64 1.374-.985.813-.359 1.844-.359.984 0 1.766.313.78.296 1.312.89.547.578.828 1.453.297.875.297 2.016zm-1.625.062q0-.843-.187-1.468-.188-.64-.532-1.063-.343-.422-.843-.64-.5-.22-1.11-.22-.703 0-1.219.282-.5.281-.828.75-.312.453-.468 1.078-.157.61-.157 1.281 0 .86.188 1.5.187.625.531 1.047.36.422.844.64.5.22 1.11.22.718 0 1.218-.282.5-.28.828-.734.328-.469.469-1.078.156-.625.156-1.313zm3.46.204q0-1.172.313-2.079.312-.906.906-1.53.594-.626 1.406-.938.829-.328 1.844-.328.438 0 .86.062.421.047.828.156v-3.843h1.593v12.875h-1.421l-.047-1.735q-.672.969-1.453 1.438-.766.453-1.672.453-.782 0-1.375-.313-.594-.328-1-.922-.39-.609-.594-1.437-.188-.844-.188-1.86zm1.61-.11q0 1.656.484 2.485.5.812 1.39.812.595 0 1.266-.531.672-.547 1.407-1.61v-4.234q-.39-.187-.86-.281-.468-.094-.937-.094-1.297 0-2.031.844-.72.828-.72 2.61zm16.835-.578q0 .344-.015.578 0 .219-.032.422h-6.421q0 1.406.78 2.156.798.75 2.266.75.407 0 .797-.03.407-.032.782-.079.375-.063.718-.125.344-.078.625-.156v1.297q-.64.187-1.468.296-.813.11-1.688.11-1.172 0-2.016-.313-.843-.312-1.39-.922-.547-.609-.813-1.484-.25-.875-.25-2 0-.953.282-1.812.28-.86.812-1.516.531-.656 1.297-1.031.781-.39 1.766-.39.953 0 1.687.312.75.296 1.25.843.5.547.766 1.344.265.781.265 1.75zm-1.656-.219q.031-.61-.125-1.11-.14-.515-.453-.874-.297-.375-.75-.578-.453-.203-1.063-.203-.515 0-.953.203-.422.203-.734.562-.297.36-.5.875-.188.516-.235 1.125zM282.402 311.907q-.625.25-1.28.36-.641.109-1.329.109-2.172 0-3.344-1.172-1.172-1.172-1.172-3.438 0-1.078.329-1.953.343-.89.953-1.516.609-.64 1.453-.984.86-.344 1.875-.344.719 0 1.328.11.625.093 1.187.328v1.515q-.593-.312-1.218-.453-.61-.14-1.266-.14-.61 0-1.156.234-.531.234-.938.672-.406.422-.656 1.062-.234.625-.234 1.422 0 1.657.796 2.485.813.812 2.25.812.641 0 1.25-.14.61-.141 1.172-.438zm11.117-4.297q0 1.062-.312 1.953-.297.89-.86 1.531-.562.625-1.375.969-.812.344-1.844.344-.984 0-1.765-.297-.766-.313-1.313-.89-.547-.594-.828-1.47-.281-.874-.281-2.015 0-1.063.297-1.938.297-.89.86-1.515.562-.64 1.374-.985.813-.359 1.844-.359.984 0 1.766.313.78.296 1.312.89.547.578.828 1.453.297.875.297 2.016zm-1.625.062q0-.843-.187-1.468-.188-.641-.532-1.063-.343-.422-.843-.64-.5-.22-1.11-.22-.703 0-1.219.282-.5.281-.828.75-.312.453-.468 1.078-.157.61-.157 1.281 0 .86.188 1.5.187.625.531 1.047.36.422.844.64.5.22 1.11.22.718 0 1.218-.282.5-.28.828-.734.328-.469.469-1.078.156-.625.156-1.313zm3.46.204q0-1.172.313-2.079.312-.906.906-1.53.594-.626 1.406-.938.829-.328 1.844-.328.438 0 .86.062.421.047.828.156v-3.843h1.593v12.875h-1.421l-.047-1.735q-.672.969-1.453 1.438-.766.453-1.672.453-.782 0-1.375-.313-.594-.328-1-.922-.39-.609-.594-1.437-.188-.844-.188-1.86zm1.61-.11q0 1.656.484 2.485.5.812 1.39.812.595 0 1.266-.531.672-.547 1.407-1.61v-4.234q-.39-.187-.86-.281-.468-.094-.937-.094-1.297 0-2.031.844-.72.828-.72 2.61zm16.835-.578q0 .344-.015.578 0 .219-.032.422h-6.421q0 1.406.78 2.156.798.75 2.266.75.407 0 .797-.03.407-.032.782-.079.375-.063.718-.125.344-.078.625-.156V312q-.64.187-1.468.296-.813.11-1.688.11-1.172 0-2.016-.313-.843-.312-1.39-.922-.547-.609-.813-1.484-.25-.875-.25-2 0-.953.282-1.812.28-.86.812-1.516.531-.656 1.297-1.031.781-.39 1.766-.39.953 0 1.687.312.75.296 1.25.843.5.547.766 1.344.265.781.265 1.75zm-1.656-.219q.031-.61-.125-1.11-.14-.515-.453-.874-.297-.375-.75-.578-.453-.203-1.063-.203-.515 0-.953.203-.422.203-.734.562-.297.36-.5.875-.188.516-.235 1.125z"/><path fill="#d9d9d9" d="M111.093 347.208h279.181v45.386h-279.18Z" fill-rule="evenodd"/><path stroke="#000" stroke-linejoin="round" stroke-linecap="butt" d="M111.093 347.208h279.181v45.386h-279.18Z"/><path fill="#000" d="m120.796 374.66 1.969-.312q.156 1.172.906 1.813.766.625 2.125.625 1.375 0 2.032-.547.671-.563.671-1.313 0-.687-.578-1.062-.422-.266-2.047-.688-2.187-.547-3.03-.953-.845-.406-1.282-1.11-.438-.718-.438-1.577 0-.797.36-1.453.36-.672.984-1.125.453-.329 1.25-.563.813-.25 1.735-.25 1.375 0 2.421.406 1.047.39 1.547 1.078.5.672.688 1.813l-1.953.266q-.125-.907-.766-1.407-.64-.515-1.797-.515-1.375 0-1.969.453-.578.453-.578 1.062 0 .39.25.688.235.328.75.531.313.125 1.766.516 2.11.562 2.937.922.844.359 1.313 1.046.484.688.484 1.704 0 1-.578 1.875t-1.672 1.359q-1.093.484-2.484.484-2.297 0-3.5-.953-1.188-.953-1.516-2.812zm19.782 2.048q-1.11.937-2.141 1.328-1.016.39-2.188.39-1.937 0-2.984-.937-1.031-.953-1.031-2.422 0-.86.39-1.578.407-.719 1.032-1.14.64-.438 1.437-.657.594-.156 1.766-.297 2.422-.297 3.562-.687v-.516q0-1.219-.562-1.719-.766-.672-2.266-.672-1.406 0-2.078.5-.672.485-.984 1.735l-1.953-.266q.265-1.25.875-2.016.609-.78 1.75-1.187 1.156-.422 2.671-.422 1.516 0 2.454.36.937.343 1.375.89.453.531.625 1.344.093.515.093 1.844v2.656q0 2.781.125 3.515.14.735.516 1.407h-2.078q-.313-.625-.407-1.453zm-.157-4.438q-1.093.438-3.265.75-1.22.172-1.735.39-.5.22-.781.657-.281.422-.281.937 0 .797.61 1.329.609.53 1.765.53 1.14 0 2.031-.5.906-.5 1.328-1.374.328-.672.328-2zm8.35 5.89-4.468-11.75h2.11l2.515 7.032q.422 1.14.765 2.375.25-.938.735-2.234l2.61-7.172h2.046l-4.453 11.75zm16.11-3.78 2.062.25q-.484 1.812-1.812 2.812-1.313.984-3.36.984-2.578 0-4.093-1.578-1.5-1.594-1.5-4.469 0-2.953 1.531-4.593 1.531-1.64 3.953-1.64 2.36 0 3.844 1.608 1.5 1.594 1.5 4.516v.531h-8.766q.11 1.938 1.094 2.97.984 1.015 2.453 1.015 1.094 0 1.86-.563.78-.578 1.234-1.844zm-6.531-3.22h6.562q-.14-1.484-.75-2.218-.953-1.156-2.469-1.156-1.375 0-2.312.922-.938.906-1.031 2.453zm18.71 7v-1.484q-1.11 1.75-3.282 1.75-1.406 0-2.594-.765-1.171-.782-1.812-2.172-.64-1.39-.64-3.188 0-1.765.577-3.187.594-1.438 1.766-2.203 1.172-.766 2.61-.766 1.062 0 1.89.453.844.438 1.36 1.156v-5.812h1.984v16.219zm-6.282-5.859q0 2.25.938 3.375.953 1.11 2.25 1.11 1.312 0 2.218-1.063.922-1.062.922-3.265 0-2.407-.937-3.532-.922-1.125-2.297-1.125-1.313 0-2.203 1.078-.89 1.079-.89 3.422zm17.536 5.86v-11.75h1.797v1.78q.687-1.25 1.265-1.64.578-.406 1.282-.406 1 0 2.046.64l-.687 1.844q-.734-.421-1.469-.421-.64 0-1.172.39-.515.39-.734 1.094-.328 1.062-.328 2.312v6.157zm15.607-3.782 2.062.25q-.484 1.813-1.812 2.813-1.313.984-3.36.984-2.578 0-4.093-1.578-1.5-1.594-1.5-4.469 0-2.953 1.531-4.593 1.531-1.64 3.953-1.64 2.36 0 3.844 1.608 1.5 1.594 1.5 4.516v.531h-8.766q.11 1.938 1.094 2.97.984 1.015 2.453 1.015 1.094 0 1.86-.563.78-.578 1.234-1.844zm-6.531-3.218h6.562q-.14-1.485-.75-2.22-.953-1.155-2.469-1.155-1.375 0-2.312.922-.938.906-1.031 2.453zm10.725 7.968 1.938.297q.125.89.671 1.297.75.563 2.032.563 1.375 0 2.125-.563.765-.547 1.03-1.547.157-.61.142-2.547-1.313 1.532-3.25 1.532-2.422 0-3.75-1.75-1.329-1.75-1.329-4.188 0-1.687.61-3.11.61-1.421 1.765-2.187 1.157-.78 2.704-.78 2.093 0 3.437 1.687v-1.422h1.828v10.156q0 2.75-.562 3.89-.547 1.141-1.766 1.797-1.203.672-2.969.672-2.11 0-3.406-.953-1.297-.937-1.25-2.844zm1.656-7.046q0 2.312.907 3.375.921 1.062 2.312 1.062 1.375 0 2.297-1.062.922-1.063.922-3.313 0-2.156-.953-3.25-.953-1.094-2.297-1.094-1.328 0-2.266 1.078-.922 1.079-.922 3.204zm11.32-7.844v-2.297h2v2.297zm0 13.922v-11.75h2v11.75zm4.236-3.5 1.969-.313q.156 1.172.906 1.813.766.625 2.125.625 1.375 0 2.031-.547.672-.563.672-1.313 0-.687-.578-1.062-.422-.266-2.047-.688-2.187-.547-3.031-.953-.844-.406-1.281-1.11-.438-.718-.438-1.577 0-.797.36-1.453.359-.672.984-1.125.453-.329 1.25-.563.812-.25 1.734-.25 1.375 0 2.422.406 1.047.39 1.547 1.078.5.672.688 1.813l-1.954.266q-.125-.907-.765-1.407-.64-.515-1.797-.515-1.375 0-1.969.453-.578.453-.578 1.062 0 .39.25.688.234.328.75.531.313.125 1.766.516 2.109.562 2.937.922.844.359 1.313 1.046.484.688.484 1.704 0 1-.578 1.875t-1.672 1.359q-1.094.484-2.484.484-2.297 0-3.5-.953-1.188-.953-1.516-2.812zm16.469 1.718.281 1.766q-.844.172-1.5.172-1.078 0-1.687-.344-.594-.344-.844-.89-.235-.563-.235-2.36v-6.765h-1.468v-1.547h1.468v-2.907l1.985-1.203v4.11h2v1.547h-2v6.875q0 .843.093 1.093.11.25.344.39.25.142.688.142.328 0 .875-.079zm9.982-2 2.062.25q-.484 1.813-1.812 2.813-1.313.984-3.36.984-2.578 0-4.093-1.578-1.5-1.594-1.5-4.469 0-2.953 1.531-4.593 1.531-1.64 3.953-1.64 2.36 0 3.844 1.608 1.5 1.594 1.5 4.516v.531h-8.766q.11 1.938 1.094 2.97.984 1.015 2.453 1.015 1.094 0 1.86-.563.78-.578 1.234-1.844zm-6.531-3.218h6.562q-.14-1.485-.75-2.22-.953-1.155-2.469-1.155-1.375 0-2.312.922-.938.906-1.031 2.453zm11.069 7v-11.75h1.797v1.78q.687-1.25 1.265-1.64.578-.406 1.281-.406 1 0 2.047.64l-.687 1.844q-.735-.421-1.469-.421-.64 0-1.172.39-.515.39-.734 1.094-.328 1.062-.328 2.312v6.157zm17.12 0-4.468-11.75h2.109l2.516 7.03q.421 1.142.765 2.376.25-.938.735-2.234l2.609-7.172h2.047l-4.453 11.75zm15.735-1.453q-1.11.937-2.14 1.328-1.017.39-2.188.39-1.938 0-2.985-.937-1.031-.953-1.031-2.422 0-.86.39-1.578.407-.719 1.032-1.14.64-.438 1.437-.657.594-.156 1.766-.297 2.422-.297 3.562-.687v-.516q0-1.219-.562-1.719-.766-.672-2.266-.672-1.406 0-2.078.5-.672.485-.984 1.735l-1.953-.266q.265-1.25.875-2.016.61-.78 1.75-1.187 1.156-.422 2.672-.422 1.515 0 2.453.36.937.343 1.375.89.453.531.625 1.344.093.515.093 1.844v2.656q0 2.781.125 3.515.141.735.516 1.407h-2.078q-.313-.625-.406-1.453zm-.157-4.438q-1.093.438-3.265.75-1.219.172-1.735.39-.5.22-.78.657-.282.422-.282.937 0 .797.61 1.329.609.53 1.765.53 1.14 0 2.031-.5.906-.5 1.328-1.374.328-.672.328-2zm5.054 5.89v-16.218h1.984v16.219zm12.768 0v-1.718q-1.36 1.984-3.719 1.984-1.047 0-1.953-.39-.89-.407-1.328-1-.438-.61-.61-1.485-.125-.593-.125-1.86v-7.28h1.985v6.515q0 1.563.125 2.11.187.78.797 1.234.609.438 1.5.438.906 0 1.687-.454.781-.468 1.11-1.25.328-.796.328-2.296v-6.297h1.984v11.75zm12.944-3.78 2.062.25q-.484 1.812-1.812 2.812-1.313.984-3.36.984-2.578 0-4.093-1.578-1.5-1.594-1.5-4.469 0-2.953 1.531-4.593 1.531-1.64 3.953-1.64 2.36 0 3.844 1.608 1.5 1.594 1.5 4.516v.531h-8.766q.11 1.938 1.094 2.97.984 1.015 2.453 1.015 1.094 0 1.86-.563.78-.578 1.234-1.844zm-6.531-3.22h6.562q-.14-1.484-.75-2.218-.953-1.156-2.469-1.156-1.375 0-2.312.922-.938.906-1.031 2.453zm10.303 3.5 1.969-.312q.156 1.172.906 1.813.766.625 2.125.625 1.375 0 2.031-.547.672-.563.672-1.313 0-.687-.578-1.062-.422-.266-2.047-.688-2.187-.547-3.031-.953-.844-.406-1.281-1.11-.438-.718-.438-1.577 0-.797.36-1.453.359-.672.984-1.125.453-.329 1.25-.563.812-.25 1.734-.25 1.375 0 2.422.406 1.047.39 1.547 1.078.5.672.688 1.813l-1.954.266q-.125-.907-.765-1.407-.64-.515-1.797-.515-1.375 0-1.969.453-.578.453-.578 1.062 0 .39.25.688.234.328.75.531.313.125 1.766.516 2.109.562 2.937.922.844.359 1.313 1.046.484.688.484 1.704 0 1-.578 1.875t-1.672 1.359q-1.094.484-2.484.484-2.297 0-3.5-.953-1.188-.953-1.516-2.812z"/><path fill="#fff" d="M558.068 351.575h265.89v124h-265.89Z" fill-rule="evenodd"/><path stroke="#000" stroke-linejoin="round" stroke-linecap="butt" d="M558.068 351.575h265.89v124h-265.89Z"/><path fill="#000" d="M613.409 402.07v-1.796l6.453-.016v5.672q-1.484 1.188-3.062 1.797-1.579.594-3.25.594-2.25 0-4.094-.97-1.828-.968-2.766-2.78-.937-1.829-.937-4.079 0-2.234.922-4.156.937-1.937 2.687-2.875 1.75-.937 4.031-.937 1.657 0 2.985.547 1.343.53 2.093 1.5.766.953 1.172 2.484l-1.828.5q-.344-1.156-.86-1.828-.5-.672-1.452-1.063-.938-.406-2.094-.406-1.39 0-2.406.422-1 .422-1.625 1.11-.625.687-.97 1.515-.577 1.406-.577 3.063 0 2.046.703 3.421t2.047 2.047q1.344.656 2.86.656 1.312 0 2.546-.5 1.25-.515 1.906-1.078v-2.843zm9.183 5.985v-11.063h1.688v1.672q.64-1.171 1.187-1.546t1.203-.375q.954 0 1.922.609l-.64 1.734q-.688-.406-1.375-.406-.61 0-1.11.375-.484.36-.687 1.016-.313 1-.313 2.187v5.797zm14.337-1.36q-1.047.876-2.015 1.25-.954.36-2.063.36-1.812 0-2.797-.89-.984-.891-.984-2.282 0-.812.375-1.484.375-.672.969-1.078.593-.407 1.343-.61.563-.14 1.672-.281 2.266-.266 3.344-.64.016-.391.016-.5 0-1.141-.532-1.61-.718-.64-2.14-.64-1.328 0-1.953.468-.625.469-.938 1.64l-1.828-.25q.25-1.171.812-1.89.579-.734 1.657-1.125 1.093-.39 2.515-.39 1.422 0 2.297.343.89.328 1.313.828.422.5.578 1.282.093.468.093 1.718v2.5q0 2.625.125 3.313.125.687.47 1.328h-1.954q-.297-.578-.375-1.36zm-.156-4.187q-1.016.406-3.063.703-1.156.172-1.64.375-.469.203-.735.61-.265.406-.265.89 0 .75.562 1.25.578.5 1.672.5 1.078 0 1.922-.469.844-.484 1.25-1.296.297-.641.297-1.875zm4.8 5.547v-11.063h1.671v1.547q.531-.812 1.39-1.296.86-.5 1.97-.5 1.234 0 2.015.515.781.5 1.11 1.422 1.312-1.938 3.406-1.938 1.656 0 2.53.922.891.907.891 2.797v7.594h-1.859v-6.969q0-1.125-.187-1.61-.188-.5-.672-.796-.469-.313-1.11-.313-1.172 0-1.937.782-.766.765-.766 2.484v6.422h-1.875v-7.188q0-1.25-.469-1.875-.453-.625-1.5-.625-.78 0-1.453.422-.672.407-.984 1.22-.297.796-.297 2.312v5.734zm17.781-13.11v-2.156h1.875v2.157zm0 13.11v-11.063h1.875v11.063zm4.723 0v-11.063h1.687v1.579q1.22-1.829 3.516-1.829 1 0 1.844.36.844.36 1.25.953.422.578.594 1.375.093.516.093 1.828v6.797h-1.875v-6.734q0-1.141-.218-1.704-.22-.578-.782-.906-.547-.344-1.297-.344-1.203 0-2.078.766-.86.75-.86 2.875v6.047zm19.44-3.563 1.922.235q-.453 1.703-1.688 2.64-1.234.938-3.172.938-2.422 0-3.843-1.484-1.422-1.5-1.422-4.204 0-2.796 1.437-4.328 1.438-1.546 3.735-1.546 2.218 0 3.609 1.515 1.406 1.5 1.406 4.25v.5h-8.25q.11 1.813 1.031 2.781.922.97 2.313.97 1.031 0 1.75-.532.734-.547 1.172-1.734zm-6.156-3.03h6.171q-.125-1.391-.703-2.094-.906-1.079-2.328-1.079-1.297 0-2.172.86-.875.86-.968 2.312zm10.455-3.266-.484-2.86v-2.547h2.14v2.547l-.5 2.86zm3.306 6.562 1.86-.297q.156 1.11.86 1.703.718.594 2 .594 1.296 0 1.921-.515.625-.532.625-1.235 0-.64-.563-1-.375-.25-1.906-.64-2.062-.516-2.86-.891-.796-.39-1.218-1.063-.406-.671-.406-1.484 0-.734.328-1.36.344-.64.937-1.062.438-.312 1.188-.531.75-.234 1.625-.234 1.297 0 2.281.375.985.375 1.453 1.015.47.64.641 1.719l-1.828.25q-.125-.86-.735-1.328-.593-.485-1.687-.485-1.281 0-1.844.422-.547.422-.547 1 0 .36.235.656.218.297.718.5.282.11 1.657.485 1.984.531 2.765.875.797.328 1.235.984.453.64.453 1.594 0 .938-.547 1.766-.547.828-1.578 1.28-1.031.454-2.328.454-2.157 0-3.297-.89-1.125-.907-1.438-2.657zM717.665 402.633q0 1.406-.39 2.453-.391 1.031-1.079 1.719-.687.688-1.625 1.031-.937.344-2.03.344-.5 0-1-.063-.5-.046-1-.171v4.375h-1.813V397.6h1.609l.11 1.75q.78-1.077 1.671-1.5.89-.437 1.922-.437.89 0 1.563.375.687.375 1.14 1.063.453.672.688 1.64.234.954.234 2.141zm-1.86.094q0-.828-.124-1.516-.11-.687-.375-1.172-.266-.5-.672-.765-.406-.282-.969-.282-.344 0-.703.11-.344.11-.734.375-.375.25-.797.672-.422.422-.89 1.047v5.062q.5.219 1.046.344.547.11 1.078.11 1.469 0 2.297-.985.844-1 .844-3zm13.07 5.187q-.609.157-1.265.22-.656.062-1.344.062-1.968 0-2.937-.891-.969-.89-.969-2.734v-5.454h-2.922v-1.515h2.922v-2.875l1.813-.469v3.344h4.703v1.515h-4.703v5.313q0 1.125.593 1.687.61.547 1.782.547.5 0 1.093-.078.594-.078 1.235-.234zm3.727-10.312h1.656l.047 1.922q.938-1.11 1.828-1.61.907-.5 1.829-.5 1.625 0 2.453 1.047.843 1.047.78 3.125h-1.827q.031-1.375-.406-1.984-.438-.625-1.266-.625-.36 0-.734.125-.375.125-.766.422-.39.281-.828.734-.438.438-.938 1.078v6.719h-1.828zm18.023 10.453-.047-1.406q-.859.843-1.734 1.218t-1.844.375q-.906 0-1.547-.218-.625-.235-1.046-.64-.407-.407-.594-.938-.188-.547-.188-1.188 0-1.562 1.172-2.453 1.172-.89 3.453-.89h2.172v-.923q0-.921-.594-1.484-.593-.562-1.812-.562-.89 0-1.75.203t-1.766.562v-1.64q.344-.125.766-.235.422-.125.89-.219.47-.093.97-.14.515-.063 1.03-.063.954 0 1.704.203.765.204 1.297.641.53.422.812 1.078.281.64.281 1.516v7.203zm-.203-4.766h-2.297q-.687 0-1.172.141-.484.14-.796.39-.313.25-.47.594-.155.344-.155.782 0 .312.093.593.094.266.297.485.219.203.547.328.344.125.813.125.625 0 1.437-.375.813-.375 1.703-1.203zm13.336 4.375q-.719.282-1.469.407-.734.125-1.531.125-2.469 0-3.813-1.344-1.343-1.344-1.343-3.922 0-1.234.39-2.25t1.078-1.734q.703-.72 1.672-1.11.969-.39 2.14-.39.813 0 1.517.125.703.109 1.359.375v1.718q-.688-.343-1.39-.5-.704-.172-1.454-.172-.687 0-1.312.266t-1.094.766q-.469.5-.735 1.218-.265.72-.265 1.625 0 1.891.922 2.844.922.938 2.547.938.75 0 1.437-.157.688-.171 1.344-.515zm12.43-5.39q0 .39-.016.656 0 .25-.032.484h-7.343q0 1.594.89 2.453.907.86 2.594.86.453 0 .906-.031.47-.032.891-.094.437-.063.828-.14.39-.079.719-.173v1.485q-.735.203-1.672.328-.938.14-1.938.14-1.343 0-2.312-.359-.969-.375-1.594-1.062-.61-.688-.906-1.688-.297-1.015-.297-2.281 0-1.11.313-2.094.328-.984.937-1.719.61-.75 1.484-1.187.891-.438 2.016-.438 1.094 0 1.938.344.843.344 1.421.969.579.625.875 1.531.297.906.297 2.016zm-1.891-.266q.03-.687-.141-1.266-.156-.578-.516-1-.343-.421-.859-.656-.516-.234-1.203-.234-.594 0-1.094.234-.484.235-.844.656-.343.407-.562 1-.219.579-.281 1.266zM655.939 434.055l-3.39-11.063h1.937l1.765 6.391.657 2.375q.03-.187.562-2.281l1.766-6.484h1.922l1.656 6.421.547 2.11.64-2.14 1.891-6.391h1.828l-3.453 11.062h-1.953l-1.75-6.625-.438-1.89-2.234 8.515zm13.34 0v-11.063h1.687v1.672q.64-1.171 1.188-1.546.547-.375 1.203-.375.953 0 1.922.609l-.64 1.734q-.688-.406-1.376-.406-.61 0-1.11.375-.484.36-.687 1.016-.312 1-.312 2.187v5.797zm14.337-1.36q-1.047.876-2.016 1.25-.953.36-2.062.36-1.813 0-2.797-.89-.985-.891-.985-2.282 0-.812.375-1.484.375-.672.969-1.078.594-.407 1.344-.61.562-.14 1.672-.281 2.265-.266 3.343-.64.016-.391.016-.5 0-1.141-.531-1.61-.719-.64-2.14-.64-1.329 0-1.954.468-.625.469-.937 1.64l-1.829-.25q.25-1.171.813-1.89.578-.734 1.656-1.125 1.094-.39 2.516-.39t2.297.343q.89.328 1.312.828.422.5.578 1.282.094.468.094 1.718v2.5q0 2.625.125 3.313.125.687.469 1.328h-1.953q-.297-.578-.375-1.36zm-.157-4.187q-1.015.406-3.062.703-1.156.172-1.64.375-.47.203-.735.61-.266.406-.266.89 0 .75.563 1.25.578.5 1.672.5 1.078 0 1.922-.469.843-.484 1.25-1.296.296-.641.296-1.875zm4.8 9.781v-15.296h1.703v1.437q.61-.844 1.36-1.266.765-.421 1.858-.421 1.407 0 2.485.734 1.094.719 1.64 2.047.547 1.328.547 2.922 0 1.687-.609 3.046-.594 1.36-1.766 2.094-1.156.719-2.437.719-.938 0-1.688-.39-.734-.407-1.218-1v5.374zm1.703-9.703q0 2.14.86 3.156.858 1.016 2.093 1.016 1.25 0 2.14-1.047.891-1.062.891-3.281 0-2.11-.875-3.156-.86-1.063-2.078-1.063-1.188 0-2.11 1.125-.921 1.11-.921 3.25zm10.158 9.703v-15.296h1.703v1.437q.61-.844 1.36-1.266.765-.421 1.86-.421 1.405 0 2.484.734 1.093.719 1.64 2.047.547 1.328.547 2.922 0 1.687-.61 3.046-.593 1.36-1.765 2.094-1.156.719-2.437.719-.938 0-1.688-.39-.734-.407-1.219-1v5.374zm1.703-9.703q0 2.14.86 3.156t2.094 1.016q1.25 0 2.14-1.047.89-1.062.89-3.281 0-2.11-.874-3.156-.86-1.063-2.078-1.063-1.188 0-2.11 1.125-.922 1.11-.922 3.25zm17.737 1.906 1.922.235q-.453 1.703-1.688 2.64-1.234.938-3.171.938-2.422 0-3.844-1.484-1.422-1.5-1.422-4.204 0-2.796 1.437-4.328 1.438-1.546 3.735-1.546 2.219 0 3.61 1.515 1.405 1.5 1.405 4.25v.5h-8.25q.11 1.813 1.032 2.781.922.97 2.312.97 1.031 0 1.75-.532.735-.547 1.172-1.734zm-6.156-3.03h6.172q-.125-1.391-.703-2.094-.907-1.079-2.329-1.079-1.296 0-2.171.86-.875.86-.97 2.312zm10.424 6.593v-11.063h1.688v1.672q.64-1.171 1.187-1.546t1.203-.375q.953 0 1.922.609l-.64 1.734q-.688-.406-1.376-.406-.609 0-1.109.375-.484.36-.687 1.016-.313 1-.313 2.187v5.797z"/><path fill="#fff" d="M873.096 351.575h167.811v124h-167.81z" fill-rule="evenodd"/><path stroke="#000" stroke-linejoin="round" stroke-linecap="butt" d="M873.096 351.575h167.811v124h-167.81z"/><path fill="#000" d="M942.69 415.07v-1.796l6.453-.016v5.672q-1.485 1.188-3.063 1.797-1.578.594-3.25.594-2.25 0-4.094-.97-1.828-.968-2.765-2.78-.938-1.829-.938-4.079 0-2.234.922-4.156.938-1.937 2.688-2.875 1.75-.937 4.031-.937 1.656 0 2.984.547 1.344.53 2.094 1.5.766.953 1.172 2.484l-1.828.5q-.344-1.156-.86-1.828-.5-.672-1.453-1.063-.937-.406-2.093-.406-1.391 0-2.407.422-1 .422-1.625 1.11-.625.687-.968 1.515-.579 1.406-.579 3.063 0 2.046.704 3.421.703 1.375 2.046 2.047 1.344.656 2.86.656 1.312 0 2.547-.5 1.25-.515 1.906-1.078v-2.843zm9.433 5.985v-15.266h5.266q1.78 0 2.718.22 1.313.296 2.235 1.093 1.203 1.016 1.797 2.61.609 1.577.609 3.624 0 1.735-.406 3.078-.406 1.344-1.047 2.235-.625.875-1.39 1.39-.75.5-1.813.766-1.063.25-2.453.25zm2.031-1.797h3.25q1.516 0 2.375-.281.86-.281 1.375-.797.703-.719 1.11-1.922.406-1.219.406-2.953 0-2.39-.797-3.672-.781-1.297-1.906-1.734-.813-.313-2.61-.313h-3.203zm13.293 1.797v-15.266h5.735q1.75 0 2.797.47 1.062.452 1.656 1.421.594.969.594 2.016 0 .968-.532 1.843-.53.86-1.593 1.391 1.375.406 2.125 1.39.75.97.75 2.313 0 1.063-.453 1.985-.454.921-1.125 1.421-.672.5-1.672.766-1 .25-2.453.25zm2.016-8.86h3.313q1.343 0 1.921-.171.766-.235 1.157-.766.39-.531.39-1.328 0-.75-.36-1.328-.358-.578-1.046-.797-.672-.219-2.312-.219h-3.063zm0 7.063h3.813q.968 0 1.375-.078.687-.125 1.156-.406.469-.297.765-.86.313-.562.313-1.28 0-.86-.438-1.485-.437-.64-1.218-.89-.766-.25-2.235-.25h-3.531z"/><path fill="none" d="m558.068 413.575-167.78-43.685"/><path stroke="#000" stroke-linejoin="round" stroke-linecap="butt" d="m558.068 413.575-161.973-42.173"/><path fill="#000" stroke="#000" stroke-linecap="butt" d="m396.511 369.803-4.808.455L395.68 373z" fill-rule="evenodd"/><path fill="none" d="M465.665 548.14h265.89v71.087h-265.89Z"/><path fill="#000" d="M476.055 577.62v-11.063h1.688v1.672q.64-1.172 1.187-1.547t1.203-.375q.953 0 1.922.61l-.64 1.734q-.688-.406-1.375-.406-.61 0-1.11.375-.484.36-.687 1.016-.313 1-.313 2.187v5.797zm14.696-3.563 1.922.235q-.453 1.703-1.687 2.64-1.235.938-3.172.938-2.422 0-3.844-1.484-1.422-1.5-1.422-4.204 0-2.796 1.438-4.328 1.437-1.547 3.734-1.547 2.219 0 3.61 1.516 1.406 1.5 1.406 4.25v.5h-8.25q.11 1.813 1.031 2.781.922.969 2.313.969 1.03 0 1.75-.531.734-.547 1.171-1.735zm-6.156-3.03h6.172q-.125-1.391-.703-2.095-.906-1.078-2.328-1.078-1.297 0-2.172.86-.875.859-.969 2.312zm17.659 5.234q-1.047.875-2.016 1.25-.953.359-2.062.359-1.813 0-2.797-.89-.985-.891-.985-2.282 0-.812.375-1.484.375-.672.97-1.078.593-.407 1.343-.61.562-.14 1.672-.281 2.265-.266 3.343-.64.016-.391.016-.5 0-1.141-.531-1.61-.719-.64-2.14-.64-1.329 0-1.954.468-.625.469-.937 1.64l-1.829-.25q.25-1.171.813-1.89.578-.734 1.656-1.125 1.094-.39 2.516-.39t2.297.343q.89.328 1.312.828.422.5.578 1.282.094.468.094 1.718v2.5q0 2.625.125 3.313.125.687.469 1.328h-1.953q-.297-.578-.375-1.36zm-.157-4.188q-1.015.406-3.062.703-1.156.172-1.64.375-.47.203-.735.61-.266.406-.266.89 0 .75.563 1.25.578.5 1.672.5 1.078 0 1.922-.469.843-.484 1.25-1.296.296-.641.296-1.875zm11.972 5.547v-1.39q-1.047 1.64-3.094 1.64-1.313 0-2.422-.719-1.11-.734-1.719-2.047-.61-1.312-.61-3 0-1.656.548-3 .547-1.36 1.656-2.078 1.11-.719 2.469-.719 1 0 1.78.422.782.422 1.267 1.094v-5.469h1.875v15.266zm-5.922-5.516q0 2.125.89 3.172.907 1.047 2.125 1.047 1.22 0 2.078-1 .86-1 .86-3.062 0-2.282-.875-3.344-.875-1.063-2.156-1.063-1.25 0-2.094 1.032-.828 1.015-.828 3.218zm9.861 2.219 1.86-.297q.156 1.11.86 1.703.718.594 2 .594 1.296 0 1.921-.516.625-.53.625-1.234 0-.64-.563-1-.375-.25-1.906-.64-2.062-.516-2.86-.891-.796-.39-1.218-1.063-.406-.672-.406-1.484 0-.734.328-1.36.344-.64.937-1.062.438-.312 1.188-.531.75-.235 1.625-.235 1.297 0 2.281.375.985.375 1.453 1.016.47.64.641 1.719l-1.828.25q-.125-.86-.735-1.328-.593-.485-1.687-.485-1.281 0-1.844.422-.547.422-.547 1 0 .36.235.656.218.297.718.5.282.11 1.657.485 1.984.531 2.765.875.797.328 1.235.984.453.64.453 1.594 0 .937-.547 1.766-.547.828-1.578 1.28-1.031.454-2.328.454-2.157 0-3.297-.89-1.125-.907-1.438-2.657zm17.34 7.531v-15.297h1.703v1.438q.61-.844 1.36-1.266.765-.422 1.859-.422 1.406 0 2.484.735 1.094.719 1.641 2.047.547 1.328.547 2.922 0 1.687-.61 3.046-.593 1.36-1.765 2.094-1.156.719-2.438.719-.937 0-1.687-.39-.735-.407-1.219-1v5.374zm1.703-9.703q0 2.14.86 3.156.859 1.016 2.093 1.016 1.25 0 2.141-1.047.89-1.062.89-3.281 0-2.11-.874-3.156-.86-1.063-2.079-1.063-1.187 0-2.109 1.125-.922 1.11-.922 3.25zm10.143 5.469v-11.063h1.688v1.672q.64-1.172 1.187-1.547t1.203-.375q.953 0 1.922.61l-.64 1.734q-.688-.406-1.375-.406-.61 0-1.11.375-.484.36-.687 1.016-.313 1-.313 2.187v5.797zm6.415-5.531q0-3.078 1.719-4.547 1.422-1.235 3.469-1.235 2.28 0 3.718 1.5 1.453 1.485 1.453 4.125 0 2.141-.64 3.36-.625 1.219-1.86 1.906-1.218.672-2.671.672-2.313 0-3.75-1.484-1.438-1.5-1.438-4.297zm1.938 0q0 2.125.921 3.187.922 1.047 2.329 1.047 1.406 0 2.328-1.062.922-1.063.922-3.235 0-2.047-.938-3.11-.922-1.062-2.312-1.062-1.407 0-2.329 1.063-.921 1.047-.921 3.172zm17.846 1.484 1.843.234q-.296 1.907-1.546 2.985-1.25 1.078-3.063 1.078-2.266 0-3.656-1.484-1.375-1.485-1.375-4.25 0-1.797.594-3.141.593-1.344 1.812-2.016 1.219-.672 2.64-.672 1.798 0 2.938.922 1.156.907 1.485 2.578l-1.829.282q-.265-1.11-.921-1.672-.657-.563-1.594-.563-1.422 0-2.313 1.016-.875 1.016-.875 3.203 0 2.234.844 3.25.86 1 2.234 1 1.11 0 1.844-.672.735-.672.938-2.078zm11.023.484 1.922.235q-.453 1.703-1.688 2.64-1.234.938-3.171.938-2.422 0-3.844-1.484-1.422-1.5-1.422-4.204 0-2.796 1.437-4.328 1.438-1.547 3.735-1.547 2.219 0 3.61 1.516 1.405 1.5 1.405 4.25v.5h-8.25q.11 1.813 1.032 2.781.922.969 2.312.969 1.031 0 1.75-.531.735-.547 1.172-1.735zm-6.156-3.03h6.172q-.125-1.391-.703-2.095-.907-1.078-2.329-1.078-1.296 0-2.171.86-.875.859-.97 2.312zm9.69 3.296 1.859-.297q.156 1.11.86 1.703.718.594 2 .594 1.296 0 1.921-.516.625-.53.625-1.234 0-.64-.562-1-.375-.25-1.906-.64-2.063-.516-2.86-.891-.797-.39-1.219-1.063-.406-.672-.406-1.484 0-.734.328-1.36.344-.64.938-1.062.437-.312 1.187-.531.75-.235 1.625-.235 1.297 0 2.282.375.984.375 1.453 1.016.468.64.64 1.719l-1.828.25q-.125-.86-.734-1.328-.594-.485-1.688-.485-1.281 0-1.843.422-.547.422-.547 1 0 .36.234.656.219.297.719.5.281.11 1.656.485 1.984.531 2.766.875.797.328 1.234.984.453.64.453 1.594 0 .937-.547 1.766-.547.828-1.578 1.28-1.031.454-2.328.454-2.156 0-3.297-.89-1.125-.907-1.437-2.657zm10.664 0 1.86-.297q.155 1.11.858 1.703.72.594 2 .594 1.297 0 1.922-.516.625-.53.625-1.234 0-.64-.562-1-.375-.25-1.906-.64-2.063-.516-2.86-.891-.797-.39-1.219-1.063-.406-.672-.406-1.484 0-.734.328-1.36.344-.64.938-1.062.437-.312 1.187-.531.75-.235 1.625-.235 1.297 0 2.282.375.984.375 1.453 1.016.468.64.64 1.719l-1.828.25q-.125-.86-.734-1.328-.594-.485-1.688-.485-1.28 0-1.843.422-.547.422-.547 1 0 .36.234.656.219.297.719.5.281.11 1.656.485 1.984.531 2.766.875.797.328 1.234.984.453.64.453 1.594 0 .937-.547 1.766-.547.828-1.578 1.28-1.031.454-2.328.454-2.156 0-3.297-.89-1.125-.907-1.437-2.657zm16.59 0 1.859-.297q.156 1.11.86 1.703.718.594 2 .594 1.296 0 1.921-.516.625-.53.625-1.234 0-.64-.562-1-.375-.25-1.907-.64-2.062-.516-2.86-.891-.796-.39-1.218-1.063-.406-.672-.406-1.484 0-.734.328-1.36.344-.64.938-1.062.437-.312 1.187-.531.75-.235 1.625-.235 1.297 0 2.281.375.985.375 1.453 1.016.47.64.641 1.719l-1.828.25q-.125-.86-.734-1.328-.594-.485-1.688-.485-1.281 0-1.844.422-.547.422-.547 1 0 .36.235.656.219.297.719.5.28.11 1.656.485 1.984.531 2.765.875.797.328 1.235.984.453.64.453 1.594 0 .937-.547 1.766-.547.828-1.578 1.28-1.031.454-2.328.454-2.156 0-3.297-.89-1.125-.907-1.438-2.657zm15.507 1.625.266 1.656q-.781.157-1.406.157-1.032 0-1.594-.313-.563-.328-.797-.844-.219-.531-.219-2.218v-6.375h-1.375v-1.454h1.375v-2.734l1.86-1.125v3.86h1.89v1.453h-1.89v6.468q0 .813.093 1.047.11.219.328.36.235.125.641.125.313 0 .828-.063zm9.05.313q-1.046.875-2.015 1.25-.953.359-2.062.359-1.813 0-2.797-.89-.984-.891-.984-2.282 0-.812.375-1.484.375-.672.968-1.078.594-.407 1.344-.61.563-.14 1.672-.281 2.266-.266 3.344-.64.015-.391.015-.5 0-1.141-.531-1.61-.719-.64-2.14-.64-1.329 0-1.954.468-.625.469-.937 1.64l-1.828-.25q.25-1.171.812-1.89.578-.734 1.656-1.125 1.094-.39 2.516-.39t2.297.343q.89.328 1.312.828.422.5.579 1.282.093.468.093 1.718v2.5q0 2.625.125 3.313.125.687.469 1.328h-1.953q-.297-.578-.375-1.36zm-.155-4.188q-1.016.406-3.063.703-1.156.172-1.64.375-.47.203-.735.61-.265.406-.265.89 0 .75.562 1.25.578.5 1.672.5 1.078 0 1.922-.469.844-.484 1.25-1.296.297-.641.297-1.875zm8.893 3.875.265 1.656q-.781.157-1.406.157-1.031 0-1.594-.313-.562-.328-.797-.844-.218-.531-.218-2.218v-6.375h-1.375v-1.454h1.375v-2.734l1.859-1.125v3.86h1.89v1.453h-1.89v6.468q0 .813.094 1.047.11.219.328.36.234.125.64.125.313 0 .829-.063zm9.41-1.89 1.921.234q-.453 1.703-1.687 2.64-1.234.938-3.172.938-2.422 0-3.844-1.484-1.422-1.5-1.422-4.204 0-2.796 1.438-4.328 1.437-1.547 3.734-1.547 2.22 0 3.61 1.516 1.406 1.5 1.406 4.25v.5h-8.25q.11 1.813 1.031 2.781.922.969 2.313.969 1.031 0 1.75-.531.734-.547 1.172-1.735zm-6.157-3.032h6.172q-.125-1.39-.703-2.094-.906-1.078-2.328-1.078-1.297 0-2.172.86-.875.859-.969 2.312zm23.616 6.594v-1.625q-1.297 1.875-3.516 1.875-.969 0-1.828-.375-.844-.375-1.266-.938-.406-.578-.562-1.39-.125-.563-.125-1.75v-6.86h1.875v6.141q0 1.469.125 1.969.172.75.734 1.172.578.422 1.422.422t1.578-.438q.75-.437 1.047-1.172.313-.75.313-2.172v-5.922h1.875v11.063zm3.862-3.297 1.859-.297q.156 1.11.86 1.703.718.594 2 .594 1.296 0 1.921-.516.625-.53.625-1.234 0-.64-.562-1-.375-.25-1.907-.64-2.062-.516-2.859-.891-.797-.39-1.219-1.063-.406-.672-.406-1.484 0-.734.328-1.36.344-.64.938-1.062.437-.312 1.187-.531.75-.235 1.625-.235 1.297 0 2.281.375.985.375 1.454 1.016.468.64.64 1.719l-1.828.25q-.125-.86-.734-1.328-.594-.485-1.688-.485-1.281 0-1.844.422-.546.422-.546 1 0 .36.234.656.219.297.719.5.28.11 1.656.485 1.984.531 2.766.875.796.328 1.234.984.453.64.453 1.594 0 .937-.547 1.766-.547.828-1.578 1.28-1.031.454-2.328.454-2.156 0-3.297-.89-1.125-.907-1.437-2.657zm11.43-9.812v-2.157h1.874v2.157zm0 13.109v-11.063h1.874v11.063zm4.722 0v-11.063h1.688v1.579q1.218-1.829 3.515-1.829 1 0 1.844.36.844.36 1.25.953.422.578.594 1.375.093.516.093 1.828v6.797h-1.875v-6.734q0-1.141-.218-1.704-.22-.578-.782-.906-.547-.344-1.297-.344-1.203 0-2.078.766-.859.75-.859 2.875v6.047zm11.518.922 1.828.265q.11.844.625 1.235.703.515 1.906.515 1.313 0 2.016-.53.703-.516.953-1.454.156-.562.14-2.406-1.234 1.453-3.062 1.453-2.281 0-3.531-1.64-1.25-1.657-1.25-3.954 0-1.578.562-2.922.579-1.343 1.672-2.062 1.094-.735 2.563-.735 1.953 0 3.219 1.579v-1.329h1.734v9.563q0 2.578-.531 3.656-.516 1.078-1.657 1.703-1.14.625-2.812.625-1.984 0-3.203-.89-1.219-.891-1.172-2.672zm1.547-6.656q0 2.187.86 3.187.874 1 2.171 1 1.297 0 2.172-1 .875-1 .875-3.125 0-2.031-.906-3.062-.89-1.032-2.172-1.032-1.25 0-2.125 1.016t-.875 3.016zM476.055 603.22v-11.063h1.688v1.672q.64-1.171 1.187-1.546t1.203-.375q.953 0 1.922.609l-.64 1.734q-.688-.406-1.375-.406-.61 0-1.11.375-.484.36-.687 1.016-.313 1-.313 2.187v5.797Zm14.696-3.563 1.922.235q-.453 1.703-1.687 2.64-1.235.938-3.172.938-2.422 0-3.844-1.484-1.422-1.5-1.422-4.203 0-2.797 1.438-4.329 1.437-1.546 3.734-1.546 2.219 0 3.61 1.515 1.406 1.5 1.406 4.25v.5h-8.25q.11 1.813 1.031 2.781.922.97 2.313.97 1.03 0 1.75-.532.734-.547 1.171-1.735zm-6.156-3.03h6.172q-.125-1.391-.703-2.094-.906-1.079-2.328-1.079-1.297 0-2.172.86-.875.86-.969 2.312zm17.659 5.234q-1.047.875-2.016 1.25-.953.359-2.062.359-1.813 0-2.797-.89-.985-.891-.985-2.282 0-.812.375-1.484.375-.672.97-1.078.593-.407 1.343-.61.562-.14 1.672-.281 2.265-.266 3.343-.64.016-.391.016-.5 0-1.141-.531-1.61-.719-.64-2.14-.64-1.329 0-1.954.468-.625.469-.937 1.64l-1.829-.25q.25-1.171.813-1.89.578-.734 1.656-1.125 1.094-.39 2.516-.39t2.297.343q.89.328 1.312.828.422.5.578 1.282.094.468.094 1.718v2.5q0 2.625.125 3.313.125.687.469 1.328h-1.953q-.297-.578-.375-1.36zm-.157-4.188q-1.015.406-3.062.703-1.156.172-1.64.375-.47.203-.735.61-.266.406-.266.89 0 .75.563 1.25.578.5 1.672.5 1.078 0 1.922-.468.843-.485 1.25-1.297.296-.641.296-1.875zm4.753 5.547v-15.266h1.875v15.266ZM526.764 597.798q0 1.406-.39 2.453-.391 1.031-1.079 1.719-.687.687-1.625 1.031-.937.344-2.031.344-.5 0-1-.063-.5-.046-1-.171v4.375h-1.813v-14.72h1.61l.11 1.75q.78-1.077 1.671-1.5.89-.437 1.922-.437.89 0 1.562.375.688.375 1.141 1.063.453.672.687 1.64.235.954.235 2.141zm-1.86.094q0-.828-.125-1.516-.109-.687-.375-1.172-.265-.5-.671-.765-.407-.282-.97-.282-.343 0-.702.11-.344.11-.735.375-.375.25-.797.672-.421.422-.89 1.047v5.062q.5.219 1.047.344.547.11 1.078.11 1.469 0 2.297-.985.843-1 .843-3zm13.07 5.187q-.609.157-1.265.22-.656.062-1.344.062-1.969 0-2.937-.891-.97-.89-.97-2.734v-5.454h-2.921v-1.515h2.922v-2.875l1.812-.469v3.344h4.704v1.515h-4.704v5.313q0 1.125.594 1.687.61.547 1.781.547.5 0 1.094-.078.594-.078 1.235-.234zm3.727-10.312h1.656l.047 1.922q.938-1.11 1.828-1.61.906-.5 1.828-.5 1.625 0 2.453 1.047.844 1.047.782 3.125h-1.828q.03-1.375-.407-1.984-.437-.625-1.265-.625-.36 0-.735.125t-.765.422q-.391.28-.828.734-.438.438-.938 1.078v6.719h-1.828zm18.023 10.453-.047-1.406q-.86.843-1.734 1.218-.875.375-1.844.375-.906 0-1.547-.218-.625-.235-1.047-.64-.406-.407-.593-.938-.188-.547-.188-1.188 0-1.562 1.172-2.453 1.172-.89 3.453-.89h2.172v-.923q0-.921-.594-1.484-.594-.562-1.812-.562-.891 0-1.75.203-.86.203-1.766.562v-1.64q.344-.125.766-.235.422-.125.89-.219.469-.093.969-.14.516-.063 1.031-.063.953 0 1.703.203.766.204 1.297.641.532.422.813 1.078.281.64.281 1.516v7.203zm-.203-4.766h-2.297q-.687 0-1.172.14-.484.142-.797.392-.312.25-.468.593-.157.344-.157.782 0 .312.094.593.094.266.297.485.219.203.547.328.344.125.812.125.625 0 1.438-.375.812-.375 1.703-1.203zm13.336 4.375q-.72.282-1.47.407-.734.125-1.53.125-2.47 0-3.813-1.344-1.344-1.344-1.344-3.922 0-1.234.39-2.25.392-1.016 1.08-1.734.702-.72 1.67-1.11.97-.39 2.142-.39.812 0 1.515.125.703.109 1.36.375v1.718q-.688-.343-1.391-.5-.703-.172-1.453-.172-.688 0-1.313.266t-1.093.766q-.47.5-.735 1.218-.265.72-.265 1.625 0 1.891.921 2.844.922.938 2.547.938.75 0 1.438-.157.687-.171 1.344-.515zm12.429-5.39q0 .39-.016.656 0 .25-.03.484h-7.345q0 1.594.891 2.453.906.86 2.594.86.453 0 .906-.031.469-.032.89-.094.438-.063.829-.14.39-.079.719-.173v1.485q-.735.203-1.672.328-.938.14-1.938.14-1.344 0-2.312-.359-.969-.375-1.594-1.062-.61-.688-.906-1.688-.297-1.015-.297-2.281 0-1.11.312-2.094.328-.984.938-1.719.61-.75 1.484-1.187.89-.438 2.016-.438 1.094 0 1.937.344.844.344 1.422.969t.875 1.531q.297.906.297 2.016zm-1.89-.266q.03-.687-.141-1.266-.156-.578-.516-1-.344-.421-.86-.656-.515-.234-1.202-.234-.594 0-1.094.234-.484.235-.844.656-.344.407-.562 1-.22.579-.282 1.266z"/><path fill="none" d="m558.068 413.575-167.78 208.283"/><path stroke="#000" stroke-linejoin="round" stroke-linecap="butt" d="m558.068 413.575-164.016 203.61"/><path fill="#000" stroke="#000" stroke-linecap="butt" d="m392.766 616.15-1.56 4.57 4.133-2.498z" fill-rule="evenodd"/><path fill="none" d="M413.846 276.122h310.55v71.086h-310.55Z"/><path fill="#000" d="M424.236 305.602v-11.063h1.688v1.672q.64-1.172 1.187-1.547t1.203-.375q.954 0 1.922.61l-.64 1.734q-.688-.406-1.375-.406-.61 0-1.11.375-.484.36-.687 1.015-.313 1-.313 2.188v5.797zm14.697-3.563 1.921.235q-.453 1.703-1.687 2.64-1.234.938-3.172.938-2.422 0-3.844-1.485-1.422-1.5-1.422-4.203 0-2.797 1.438-4.328 1.437-1.547 3.734-1.547 2.219 0 3.61 1.516 1.406 1.5 1.406 4.25v.5h-8.25q.11 1.812 1.031 2.781.922.969 2.313.969 1.03 0 1.75-.531.734-.547 1.171-1.735zm-6.157-3.031h6.172q-.125-1.39-.703-2.094-.906-1.078-2.328-1.078-1.297 0-2.172.86-.875.859-.969 2.312zm17.659 5.234q-1.047.875-2.016 1.25-.953.36-2.062.36-1.813 0-2.797-.89-.985-.892-.985-2.282 0-.813.375-1.485.375-.671.97-1.078.593-.406 1.343-.61.562-.14 1.672-.28 2.265-.266 3.344-.64.015-.392.015-.5 0-1.142-.531-1.61-.719-.64-2.14-.64-1.329 0-1.954.468-.625.469-.937 1.64l-1.828-.25q.25-1.171.812-1.89.578-.735 1.656-1.125 1.094-.39 2.516-.39t2.297.343q.89.328 1.312.828.422.5.578 1.281.094.469.094 1.719v2.5q0 2.625.125 3.313.125.687.469 1.328h-1.953q-.297-.578-.375-1.36zm-.156-4.187q-1.016.406-3.063.703-1.156.172-1.64.375-.47.203-.735.61-.266.406-.266.89 0 .75.563 1.25.578.5 1.672.5 1.078 0 1.922-.469.843-.484 1.25-1.297.297-.64.297-1.875zm11.97 5.547v-1.39q-1.046 1.64-3.093 1.64-1.313 0-2.422-.72-1.11-.733-1.719-2.046-.61-1.312-.61-3 0-1.656.548-3 .547-1.36 1.656-2.078 1.11-.719 2.469-.719 1 0 1.781.422.781.422 1.266 1.094v-5.469H464v15.266zm-5.921-5.516q0 2.125.89 3.172.907 1.047 2.125 1.047 1.22 0 2.079-1 .859-1 .859-3.063 0-2.281-.875-3.343-.875-1.063-2.156-1.063-1.25 0-2.094 1.031-.828 1.016-.828 3.219zm9.861 2.219 1.86-.297q.156 1.11.86 1.703.718.594 2 .594 1.296 0 1.921-.516.625-.531.625-1.234 0-.64-.562-1-.375-.25-1.907-.64-2.062-.516-2.859-.891-.797-.391-1.219-1.063-.406-.672-.406-1.484 0-.735.328-1.36.344-.64.938-1.062.437-.313 1.187-.531.75-.235 1.625-.235 1.297 0 2.281.375.985.375 1.453 1.016.47.64.641 1.719l-1.828.25q-.125-.86-.734-1.329-.594-.484-1.688-.484-1.281 0-1.844.422-.547.422-.547 1 0 .36.235.656.219.297.719.5.28.11 1.656.485 1.984.53 2.765.875.797.328 1.235.984.453.64.453 1.594 0 .937-.547 1.765-.547.828-1.578 1.282-1.031.453-2.328.453-2.156 0-3.297-.89-1.125-.907-1.438-2.657zm16.59 0 1.86-.297q.156 1.11.859 1.703.719.594 2 .594 1.297 0 1.922-.516.625-.531.625-1.234 0-.64-.563-1-.375-.25-1.906-.64-2.062-.516-2.86-.891-.796-.391-1.218-1.063-.406-.672-.406-1.484 0-.735.328-1.36.344-.64.937-1.062.438-.313 1.188-.531.75-.235 1.625-.235 1.297 0 2.281.375.984.375 1.453 1.016.469.64.64 1.719l-1.827.25q-.125-.86-.735-1.329-.593-.484-1.687-.484-1.281 0-1.844.422-.547.422-.547 1 0 .36.235.656.218.297.718.5.282.11 1.657.485 1.984.53 2.765.875.797.328 1.235.984.453.64.453 1.594 0 .937-.547 1.765-.547.828-1.578 1.282-1.032.453-2.328.453-2.157 0-3.297-.89-1.125-.907-1.438-2.657zm18.633 1.937q-1.047.875-2.016 1.25-.953.36-2.062.36-1.813 0-2.797-.89-.984-.892-.984-2.282 0-.813.375-1.485.375-.671.968-1.078.594-.406 1.344-.61.563-.14 1.672-.28 2.266-.266 3.344-.64.015-.392.015-.5 0-1.142-.53-1.61-.72-.64-2.142-.64-1.328 0-1.953.468-.625.469-.937 1.64l-1.828-.25q.25-1.171.812-1.89.578-.735 1.656-1.125 1.094-.39 2.516-.39t2.297.343q.89.328 1.312.828.422.5.579 1.281.093.469.093 1.719v2.5q0 2.625.125 3.313.125.687.469 1.328h-1.953q-.297-.578-.375-1.36zm-.156-4.187q-1.016.406-3.063.703-1.156.172-1.64.375-.47.203-.735.61-.265.406-.265.89 0 .75.562 1.25.578.5 1.672.5 1.078 0 1.922-.469.844-.484 1.25-1.297.297-.64.297-1.875zm7.877 5.547-4.219-11.063h1.985l2.375 6.625q.39 1.078.703 2.235.25-.875.703-2.11l2.453-6.75h1.938l-4.188 11.063zm15.164-3.563 1.922.235q-.453 1.703-1.688 2.64-1.234.938-3.171.938-2.422 0-3.844-1.485-1.422-1.5-1.422-4.203 0-2.797 1.437-4.328 1.438-1.547 3.735-1.547 2.219 0 3.61 1.516 1.405 1.5 1.405 4.25v.5h-8.25q.11 1.812 1.032 2.781.922.969 2.312.969 1.031 0 1.75-.531.735-.547 1.172-1.735zm-6.156-3.031h6.172q-.125-1.39-.703-2.094-.907-1.078-2.329-1.078-1.296 0-2.171.86-.875.859-.97 2.312zm17.612 6.594v-1.39q-1.047 1.64-3.094 1.64-1.313 0-2.422-.72-1.11-.733-1.719-2.046-.61-1.312-.61-3 0-1.656.548-3 .547-1.36 1.656-2.078 1.11-.719 2.469-.719 1 0 1.78.422.782.422 1.267 1.094v-5.469h1.875v15.266zm-5.922-5.516q0 2.125.89 3.172.907 1.047 2.125 1.047 1.22 0 2.078-1 .86-1 .86-3.063 0-2.281-.875-3.343-.875-1.063-2.156-1.063-1.25 0-2.094 1.031-.828 1.016-.828 3.219zm16.521 5.516v-11.063h1.688v1.672q.64-1.172 1.187-1.547t1.204-.375q.953 0 1.921.61l-.64 1.734q-.688-.406-1.375-.406-.61 0-1.11.375-.484.36-.687 1.015-.313 1-.313 2.188v5.797zm14.697-3.563 1.921.235q-.453 1.703-1.687 2.64-1.234.938-3.172.938-2.422 0-3.844-1.485-1.422-1.5-1.422-4.203 0-2.797 1.438-4.328 1.437-1.547 3.734-1.547 2.22 0 3.61 1.516 1.406 1.5 1.406 4.25v.5h-8.25q.11 1.812 1.031 2.781.922.969 2.313.969 1.031 0 1.75-.531.734-.547 1.172-1.735zm-6.157-3.031h6.172q-.125-1.39-.703-2.094-.906-1.078-2.328-1.078-1.297 0-2.172.86-.875.859-.969 2.312zm10.096 7.516 1.829.265q.109.844.625 1.235.703.515 1.906.515 1.312 0 2.015-.531.704-.516.954-1.453.156-.563.14-2.406-1.234 1.453-3.062 1.453-2.282 0-3.532-1.64-1.25-1.657-1.25-3.954 0-1.578.563-2.922.578-1.344 1.672-2.062 1.094-.735 2.562-.735 1.953 0 3.219 1.578v-1.328h1.734v9.563q0 2.578-.53 3.656-.516 1.078-1.657 1.703-1.14.625-2.813.625-1.984 0-3.203-.89-1.218-.891-1.172-2.672zm1.547-6.657q0 2.188.86 3.188.875 1 2.172 1 1.296 0 2.171-1 .875-1 .875-3.125 0-2.031-.906-3.063-.89-1.031-2.172-1.031-1.25 0-2.125 1.016-.875 1.015-.875 3.015zm10.674-7.375v-2.156h1.875v2.156zm0 13.11v-11.063h1.875v11.063zm3.973-3.297 1.86-.297q.156 1.11.859 1.703.719.594 2 .594 1.297 0 1.922-.516.625-.531.625-1.234 0-.64-.563-1-.375-.25-1.906-.64-2.062-.516-2.86-.891-.796-.391-1.218-1.063-.406-.672-.406-1.484 0-.735.328-1.36.344-.64.937-1.062.438-.313 1.188-.531.75-.235 1.625-.235 1.297 0 2.281.375.984.375 1.453 1.016.469.64.64 1.719l-1.827.25q-.125-.86-.735-1.329-.593-.484-1.687-.484-1.281 0-1.844.422-.547.422-.547 1 0 .36.235.656.218.297.718.5.282.11 1.657.485 1.984.53 2.765.875.797.328 1.235.984.453.64.453 1.594 0 .937-.547 1.765-.547.828-1.578 1.282-1.032.453-2.328.453-2.157 0-3.297-.89-1.125-.907-1.438-2.657zm15.508 1.625.266 1.656q-.782.156-1.407.156-1.03 0-1.593-.312-.563-.328-.797-.844-.219-.531-.219-2.219v-6.375h-1.375v-1.453h1.375v-2.734l1.86-1.125v3.86h1.89v1.452h-1.89v6.469q0 .813.093 1.047.11.219.328.36.235.124.64.124.313 0 .829-.062zm9.41-1.89 1.922.234q-.453 1.703-1.688 2.64-1.234.938-3.171.938-2.422 0-3.844-1.485-1.422-1.5-1.422-4.203 0-2.797 1.437-4.328 1.438-1.547 3.735-1.547 2.219 0 3.61 1.516 1.405 1.5 1.405 4.25v.5h-8.25q.11 1.812 1.032 2.781.922.969 2.312.969 1.031 0 1.75-.531.735-.547 1.172-1.735zm-6.156-3.032h6.172q-.125-1.39-.703-2.094-.907-1.078-2.329-1.078-1.296 0-2.171.86-.875.859-.97 2.312zm10.424 6.594v-11.063h1.688v1.672q.64-1.172 1.187-1.547t1.203-.375q.953 0 1.922.61l-.64 1.734q-.688-.406-1.376-.406-.609 0-1.109.375-.484.36-.687 1.015-.313 1-.313 2.188v5.797zm16.122 0-4.219-11.063h1.984l2.375 6.625q.391 1.078.704 2.235.25-.875.703-2.11l2.453-6.75h1.937l-4.187 11.063zm14.805-1.36q-1.047.875-2.016 1.25-.953.36-2.063.36-1.812 0-2.796-.89-.985-.892-.985-2.282 0-.813.375-1.485.375-.671.969-1.078.594-.406 1.344-.61.562-.14 1.672-.28 2.265-.266 3.343-.64.016-.392.016-.5 0-1.142-.531-1.61-.72-.64-2.141-.64-1.328 0-1.953.468-.625.469-.938 1.64l-1.828-.25q.25-1.171.813-1.89.578-.735 1.656-1.125 1.094-.39 2.516-.39t2.297.343q.89.328 1.312.828.422.5.578 1.281.094.469.094 1.719v2.5q0 2.625.125 3.313.125.687.469 1.328h-1.954q-.296-.578-.375-1.36zm-.157-4.187q-1.015.406-3.062.703-1.156.172-1.64.375-.47.203-.735.61-.266.406-.266.89 0 .75.563 1.25.578.5 1.672.5 1.078 0 1.921-.469.844-.484 1.25-1.297.297-.64.297-1.875zm4.753 5.547v-15.266h1.875v15.266zm12.035 0v-1.625q-1.297 1.875-3.516 1.875-.968 0-1.828-.375-.844-.375-1.265-.938-.407-.578-.563-1.39-.125-.563-.125-1.75v-6.86h1.875v6.14q0 1.47.125 1.97.172.75.734 1.171.579.422 1.422.422.844 0 1.578-.437.75-.438 1.047-1.172.313-.75.313-2.172v-5.922h1.875v11.063zm12.19-3.563 1.922.235q-.453 1.703-1.688 2.64-1.234.938-3.172.938-2.422 0-3.843-1.485-1.422-1.5-1.422-4.203 0-2.797 1.437-4.328 1.438-1.547 3.735-1.547 2.218 0 3.609 1.516 1.406 1.5 1.406 4.25v.5h-8.25q.11 1.812 1.031 2.781.922.969 2.313.969 1.031 0 1.75-.531.734-.547 1.172-1.735zm-6.156-3.031h6.171q-.125-1.39-.703-2.094-.906-1.078-2.328-1.078-1.297 0-2.172.86-.875.859-.968 2.312zm9.69 3.297 1.859-.297q.156 1.11.86 1.703.718.594 2 .594 1.296 0 1.921-.516.625-.531.625-1.234 0-.64-.563-1-.375-.25-1.906-.64-2.062-.516-2.86-.891-.796-.391-1.218-1.063-.406-.672-.406-1.484 0-.735.328-1.36.344-.64.937-1.062.438-.313 1.188-.531.75-.235 1.625-.235 1.297 0 2.281.375.985.375 1.453 1.016.47.64.641 1.719l-1.828.25q-.125-.86-.735-1.329-.593-.484-1.687-.484-1.281 0-1.844.422-.547.422-.547 1 0 .36.235.656.218.297.718.5.282.11 1.657.485 1.984.53 2.765.875.797.328 1.235.984.453.64.453 1.594 0 .937-.547 1.765-.547.828-1.578 1.282-1.031.453-2.328.453-2.157 0-3.297-.89-1.125-.907-1.438-2.657zM431.502 331.202v-1.625q-1.297 1.875-3.516 1.875-.968 0-1.828-.375-.844-.375-1.265-.938-.407-.578-.563-1.39-.125-.563-.125-1.75v-6.86h1.875v6.14q0 1.47.125 1.97.172.75.734 1.171.579.422 1.422.422.844 0 1.578-.437.75-.438 1.047-1.172.313-.75.313-2.172v-5.922h1.875v11.063zm3.862-3.297 1.859-.297q.156 1.11.86 1.703.718.594 2 .594 1.296 0 1.921-.516.625-.531.625-1.234 0-.64-.562-1-.375-.25-1.906-.64-2.063-.516-2.86-.891-.797-.391-1.219-1.063-.406-.672-.406-1.484 0-.735.328-1.36.344-.64.938-1.062.437-.313 1.187-.531.75-.235 1.625-.235 1.297 0 2.282.375.984.375 1.453 1.016.468.64.64 1.719l-1.828.25q-.125-.86-.734-1.329-.594-.484-1.688-.484-1.281 0-1.843.422-.547.422-.547 1 0 .36.234.656.219.297.719.5.281.11 1.656.485 1.984.53 2.766.875.797.328 1.234.984.453.64.453 1.594 0 .937-.547 1.765-.547.828-1.578 1.282-1.031.453-2.328.453-2.156 0-3.297-.89-1.125-.907-1.437-2.657zm11.43-9.813v-2.156h1.874v2.156zm0 13.11v-11.063h1.874v11.063zm4.722 0v-11.063h1.688v1.578q1.218-1.828 3.515-1.828 1 0 1.844.36.844.359 1.25.953.422.578.594 1.375.093.515.093 1.828v6.797h-1.875v-6.735q0-1.14-.218-1.703-.219-.578-.782-.906-.546-.344-1.296-.344-1.204 0-2.079.766-.859.75-.859 2.875v6.047zm11.518.922 1.828.265q.11.844.625 1.235.703.515 1.906.515 1.313 0 2.016-.531.703-.516.953-1.453.156-.563.14-2.406-1.234 1.453-3.062 1.453-2.28 0-3.53-1.64-1.25-1.657-1.25-3.954 0-1.578.562-2.922.578-1.344 1.671-2.062 1.094-.735 2.563-.735 1.953 0 3.219 1.578v-1.328h1.734v9.563q0 2.578-.531 3.656-.516 1.078-1.656 1.703-1.141.625-2.813.625-1.984 0-3.203-.89-1.219-.891-1.172-2.672zm1.547-6.657q0 2.188.86 3.188.874 1 2.171 1 1.297 0 2.172-1 .875-1 .875-3.125 0-2.031-.906-3.063-.89-1.03-2.172-1.03-1.25 0-2.125 1.015t-.875 3.015zM489.837 316.483l-7.156 16.953h-1.719l7.14-16.953zm12.258 9.297q0 1.406-.391 2.453-.39 1.031-1.078 1.719-.688.687-1.625 1.03-.938.345-2.031.345-.5 0-1-.063-.5-.047-1-.172v4.375h-1.813V320.75h1.61l.109 1.75q.781-1.079 1.672-1.5.89-.438 1.922-.438.89 0 1.562.375.688.375 1.14 1.063.454.671.688 1.64.235.953.235 2.14zm-1.86.094q0-.829-.125-1.516-.11-.688-.375-1.172-.265-.5-.672-.766-.406-.28-.968-.28-.344 0-.704.109-.343.109-.734.375-.375.25-.797.671-.422.422-.89 1.047v5.063q.5.219 1.046.344.547.109 1.079.109 1.468 0 2.296-.984.844-1 .844-3zm5.07-5.125h1.657l.046 1.921q.938-1.109 1.829-1.609.906-.5 1.828-.5 1.625 0 2.453 1.047.844 1.047.781 3.125h-1.828q.031-1.375-.406-1.984-.438-.625-1.266-.625-.36 0-.734.125-.375.125-.766.421-.39.282-.828.735-.438.437-.938 1.078v6.719h-1.828zm20.398 5.14q0 1.219-.343 2.235-.344 1.015-.985 1.75-.64.718-1.578 1.125-.922.39-2.094.39-1.125 0-2.015-.344-.89-.359-1.516-1.03-.625-.673-.953-1.673-.328-1-.328-2.312 0-1.219.344-2.219.343-1 .984-1.719.656-.734 1.578-1.125.938-.406 2.11-.406 1.125 0 2.015.344.89.344 1.5 1.015.625.672.953 1.672.328 1 .328 2.297zm-1.843.078q0-.969-.22-1.687-.218-.719-.608-1.203-.391-.485-.97-.735-.562-.25-1.265-.25-.812 0-1.39.328-.579.313-.954.844-.359.531-.53 1.234-.173.704-.173 1.47 0 .968.203 1.702.22.735.61 1.22.406.483.969.733.562.235 1.265.235.813 0 1.39-.313.579-.328.954-.859.375-.531.547-1.234.172-.704.172-1.485zm12.601 4.844q-.719.281-1.469.406-.734.125-1.531.125-2.469 0-3.813-1.344-1.343-1.343-1.343-3.921 0-1.235.39-2.25.391-1.016 1.078-1.735.704-.719 1.672-1.11.97-.39 2.141-.39.813 0 1.516.125.703.11 1.359.375v1.719q-.688-.344-1.39-.5-.704-.172-1.454-.172-.687 0-1.312.266-.625.265-1.094.765-.469.5-.734 1.22-.266.718-.266 1.624 0 1.89.922 2.844.922.937 2.547.937.75 0 1.437-.156.688-.172 1.344-.516zm12.008-14.328-7.157 16.953h-1.718l7.14-16.953zm11.21 13.734-1.14 1.156-7-5.843 7-5.844 1.14 1.156-5.672 4.656zm12.773-4.437q0 1.406-.39 2.453-.39 1.031-1.078 1.719-.688.687-1.625 1.03-.938.345-2.032.345-.5 0-1-.063-.5-.047-1-.172v4.375h-1.812v-14.719h1.61l.109 1.75q.78-1.078 1.672-1.5.89-.437 1.921-.437.891 0 1.563.375.687.375 1.14 1.062.454.672.688 1.641.234.953.234 2.14zm-1.859.093q0-.828-.125-1.515-.11-.688-.375-1.172-.266-.5-.672-.766-.406-.28-.969-.28-.343 0-.703.108-.343.11-.734.375-.375.25-.797.672-.422.422-.89 1.047v5.063q.5.218 1.046.343.547.11 1.078.11 1.47 0 2.297-.985.844-1 .844-3zm8.21-3.625h-3.093v-1.5h4.922v8.938h3.11v1.516h-8.376v-1.516h3.438zm.626-5.89q.312 0 .562.11.266.109.453.312.203.203.313.453.11.25.11.562 0 .282-.11.547-.11.266-.313.469-.187.187-.453.297-.25.11-.562.11-.297 0-.563-.11-.25-.11-.453-.297-.187-.203-.297-.469-.11-.265-.11-.547 0-.312.11-.562.11-.25.297-.453.203-.203.453-.313.266-.11.563-.11zm7.007 9.828q0-1.328.36-2.36.359-1.046 1.03-1.75.673-.718 1.61-1.078.953-.375 2.11-.375.5 0 .984.063.484.062.953.187v-4.39h1.828v14.719h-1.625l-.062-1.985q-.766 1.11-1.656 1.64-.875.532-1.907.532-.906 0-1.593-.375-.672-.375-1.125-1.047-.454-.687-.688-1.64-.219-.97-.219-2.141zm1.844-.11q0 1.891.563 2.829.562.937 1.578.937.687 0 1.453-.61.765-.624 1.61-1.827v-4.86q-.454-.203-1-.312-.532-.11-1.063-.11-1.485 0-2.313.954-.828.953-.828 3zm10.914-5.234 1.125-1.156 7 5.844-7 5.843-1.125-1.156 5.687-4.672zm19.632-4.36-7.156 16.954h-1.719l7.141-16.953zm10.774 14.72v-7.516q0-.484-.047-.797-.032-.312-.11-.484-.078-.188-.203-.266-.11-.078-.281-.078-.219 0-.39.125-.173.125-.376.406t-.453.75q-.25.469-.578 1.14v6.72h-1.656v-7.313q0-.578-.047-.922-.031-.36-.11-.547-.078-.203-.203-.28-.125-.079-.296-.079-.188 0-.36.11-.156.109-.36.374-.202.266-.452.735t-.594 1.203v6.719h-1.672v-10.454h1.39l.079 1.985q.265-.594.515-1 .266-.422.532-.672.28-.266.578-.375.312-.125.687-.125.844 0 1.281.547.438.547.438 1.703.25-.531.484-.953.25-.422.516-.703.281-.297.61-.438.343-.156.78-.156 1.954 0 1.954 3.031v7.61zm13.1-5.782q0 .39-.015.657 0 .25-.03.484h-7.345q0 1.594.891 2.453.906.86 2.594.86.453 0 .906-.032.469-.031.89-.093.438-.063.829-.141.39-.078.718-.172v1.484q-.734.204-1.671.329-.938.14-1.938.14-1.344 0-2.312-.36-.97-.374-1.594-1.062-.61-.687-.906-1.687-.297-1.016-.297-2.281 0-1.11.312-2.094.328-.985.938-1.719.61-.75 1.484-1.187.89-.438 2.016-.438 1.093 0 1.937.344.844.344 1.422.969t.875 1.53q.297.907.297 2.016zm-1.89-.265q.031-.688-.14-1.266-.157-.578-.516-1-.344-.422-.86-.656-.515-.235-1.203-.235-.593 0-1.093.235-.485.234-.844.656-.344.406-.563 1-.218.578-.28 1.266zm12.242 6.047v-7.516q0-.484-.047-.797-.03-.312-.11-.484-.077-.188-.202-.266-.11-.078-.281-.078-.22 0-.391.125-.172.125-.375.406t-.453.75q-.25.469-.578 1.14v6.72h-1.657v-7.313q0-.578-.046-.922-.032-.36-.11-.547-.078-.203-.203-.28-.125-.079-.297-.079-.187 0-.36.11-.155.109-.359.374-.203.266-.453.735t-.593 1.203v6.719h-1.672v-10.454h1.39l.078 1.985q.266-.594.516-1 .266-.422.531-.672.281-.266.578-.375.313-.125.688-.125.844 0 1.281.547.438.547.438 1.703.25-.531.484-.953.25-.422.516-.703.28-.297.609-.438.344-.156.781-.156 1.953 0 1.953 3.031v7.61z"/><path fill="none" d="M873.096 413.575h-49.134"/><path stroke="#000" stroke-linejoin="round" stroke-linecap="butt" d="M873.096 413.575h-43.134"/><path fill="#000" stroke="#000" stroke-linecap="butt" d="m829.962 411.923-4.538 1.652 4.538 1.652z" fill-rule="evenodd"/></g></svg>