<svg version="1.1" viewBox="0.0 0.0 1152.0 864.0" fill="none" stroke="none" stroke-linecap="square" stroke-miterlimit="10" xmlns:xlink="http://www.w3.org/1999/xlink" xmlns="http://www.w3.org/2000/svg"><clipPath id="p.0"><path d="m0 0l1152.0 0l0 864.0l-1152.0 0l0 -864.0z" clip-rule="nonzero"/></clipPath><g clip-path="url(#p.0)"><path fill="#000000" fill-opacity="0.0" d="m0 0l1152.0 0l0 864.0l-1152.0 0z" fill-rule="evenodd"/><path fill="#ffffff" d="m243.05774 167.54596l263.1496 0l0 466.6457l-263.1496 0z" fill-rule="evenodd"/><path stroke="#000000" stroke-width="1.0" stroke-linejoin="round" stroke-linecap="butt" d="m243.05774 167.54596l263.1496 0l0 466.6457l-263.1496 0z" fill-rule="evenodd"/><path fill="#d9d9d9" d="m243.05774 208.89854l263.1496 0l0 243.937l-263.1496 0z" fill-rule="evenodd"/><path stroke="#000000" stroke-width="1.0" stroke-linejoin="round" stroke-linecap="butt" d="m243.05774 208.89854l263.1496 0l0 243.937l-263.1496 0z" fill-rule="evenodd"/><path fill="#ffffff" d="m243.05774 480.8711l263.1496 0l0 93.41736l-263.1496 0z" fill-rule="evenodd"/><path stroke="#000000" stroke-width="1.0" stroke-linejoin="round" stroke-linecap="butt" d="m243.05774 480.8711l263.1496 0l0 93.41736l-263.1496 0z" fill-rule="evenodd"/><path fill="#000000" d="m263.714 495.08548l2.03125 0l0 8.8125q0 2.3125 -0.53125 3.671875q-0.515625 1.34375 -1.875 2.203125q-1.359375 0.84375 -3.5625 0.84375q-2.140625 0 -3.515625 -0.734375q-1.359375 -0.75 -1.953125 -2.140625q-0.578125 -1.40625 -0.578125 -3.84375l0 -8.8125l2.03125 0l0 8.8125q0 1.984375 0.359375 2.9375q0.375 0.9375 1.265625 1.453125q0.90625 0.5 2.21875 0.5q2.21875 0 3.15625 -1.0q0.953125 -1.015625 0.953125 -3.890625l0 -8.8125zm5.1524963 15.265625l0 -11.0625l1.6875 0l0 1.578125q1.21875 -1.828125 3.515625 -1.828125q1.0 0 1.84375 0.359375q0.84375 0.359375 1.25 0.953125q0.421875 0.578125 0.59375 1.375q0.09375 0.515625 0.09375 1.828125l0 6.796875l-1.875 0l0 -6.734375q0 -1.140625 -0.21875 -1.703125q-0.21875 -0.578125 -0.78125 -0.90625q-0.546875 -0.34375 -1.296875 -0.34375q-1.203125 0 -2.078125 0.765625q-0.859375 0.75 -0.859375 2.875l0 6.046875l-1.875 0zm15.955444 -1.671875l0.265625 1.65625q-0.78125 0.15625 -1.40625 0.15625q-1.03125 0 -1.59375 -0.3125q-0.5625 -0.328125 -0.796875 -0.84375q-0.21875 -0.53125 -0.21875 -2.21875l0 -6.375l-1.375 0l0 -1.453125l1.375 0l0 -2.734375l1.859375 -1.125l0 3.859375l1.890625 0l0 1.453125l-1.890625 0l0 6.46875q0 0.8125 0.09375 1.046875q0.109375 0.21875 0.328125 0.359375q0.234375 0.125 0.640625 0.125q0.3125 0 0.828125 -0.0625zm1.8162842 1.671875l0 -11.0625l1.6875 0l0 1.671875q0.640625 -1.171875 1.1875 -1.546875q0.546875 -0.375 1.203125 -0.375q0.953125 0 1.921875 0.609375l-0.640625 1.734375q-0.6875 -0.40625 -1.375 -0.40625q-0.609375 0 -1.109375 0.375q-0.484375 0.359375 -0.6875 1.015625q-0.3125 1.0 -0.3125 2.1875l0 5.796875l-1.875 0zm14.368042 0l0 -1.625q-1.296875 1.875 -3.515625 1.875q-0.96875 0 -1.828125 -0.375q-0.84375 -0.375 -1.265625 -0.9375q-0.40625 -0.578125 -0.5625 -1.390625q-0.125 -0.5625 -0.125 -1.75l0 -6.859375l1.875 0l0 6.140625q0 1.46875 0.125 1.96875q0.171875 0.75 0.734375 1.171875q0.578125 0.421875 1.421875 0.421875q0.84375 0 1.578125 -0.4375q0.75 -0.4375 1.046875 -1.171875q0.3125 -0.75 0.3125 -2.171875l0 -5.921875l1.875 0l0 11.0625l-1.671875 0zm3.8616943 -3.296875l1.859375 -0.296875q0.15625 1.109375 0.859375 1.703125q0.71875 0.59375 2.0 0.59375q1.296875 0 1.921875 -0.515625q0.625 -0.53125 0.625 -1.234375q0 -0.640625 -0.5625 -1.0q-0.375 -0.25 -1.90625 -0.640625q-2.0625 -0.515625 -2.859375 -0.890625q-0.796875 -0.390625 -1.21875 -1.0625q-0.40625 -0.671875 -0.40625 -1.484375q0 -0.734375 0.328125 -1.359375q0.34375 -0.640625 0.9375 -1.0625q0.4375 -0.3125 1.1875 -0.53125q0.75 -0.234375 1.625 -0.234375q1.296875 0 2.28125 0.375q0.984375 0.375 1.453125 1.015625q0.46875 0.640625 0.640625 1.71875l-1.828125 0.25q-0.125 -0.859375 -0.734375 -1.328125q-0.59375 -0.484375 -1.6875 -0.484375q-1.28125 0 -1.84375 0.421875q-0.546875 0.421875 -0.546875 1.0q0 0.359375 0.234375 0.65625q0.21875 0.296875 0.71875 0.5q0.28125 0.109375 1.65625 0.484375q1.984375 0.53125 2.765625 0.875q0.796875 0.328125 1.234375 0.984375q0.453125 0.640625 0.453125 1.59375q0 0.9375 -0.546875 1.765625q-0.546875 0.828125 -1.578125 1.28125q-1.03125 0.453125 -2.328125 0.453125q-2.15625 0 -3.296875 -0.890625q-1.125 -0.90625 -1.4375 -2.65625zm15.5078125 1.625l0.265625 1.65625q-0.78125 0.15625 -1.40625 0.15625q-1.03125 0 -1.59375 -0.3125q-0.5625 -0.328125 -0.796875 -0.84375q-0.21875 -0.53125 -0.21875 -2.21875l0 -6.375l-1.375 0l0 -1.453125l1.375 0l0 -2.734375l1.859375 -1.125l0 3.859375l1.890625 0l0 1.453125l-1.890625 0l0 6.46875q0 0.8125 0.09375 1.046875q0.109375 0.21875 0.328125 0.359375q0.234375 0.125 0.640625 0.125q0.3125 0 0.828125 -0.0625zm9.410034 -1.890625l1.921875 0.234375q-0.453125 1.703125 -1.6875 2.640625q-1.234375 0.9375 -3.171875 0.9375q-2.421875 0 -3.84375 -1.484375q-1.421875 -1.5 -1.421875 -4.203125q0 -2.796875 1.4375 -4.328125q1.4375 -1.546875 3.734375 -1.546875q2.21875 0 3.609375 1.515625q1.40625 1.5 1.40625 4.25q0 0.15625 0 0.5l-8.25 0q0.109375 1.8125 1.03125 2.78125q0.921875 0.96875 2.3125 0.96875q1.03125 0 1.75 -0.53125q0.734375 -0.546875 1.171875 -1.734375zm-6.15625 -3.03125l6.171875 0q-0.125 -1.390625 -0.703125 -2.09375q-0.90625 -1.078125 -2.328125 -1.078125q-1.296875 0 -2.171875 0.859375q-0.875 0.859375 -0.96875 2.3125zm17.611694 6.59375l0 -1.390625q-1.046875 1.640625 -3.09375 1.640625q-1.3125 0 -2.421875 -0.71875q-1.109375 -0.734375 -1.71875 -2.046875q-0.609375 -1.3125 -0.609375 -3.0q0 -1.65625 0.546875 -3.0q0.546875 -1.359375 1.65625 -2.078125q1.109375 -0.71875 2.46875 -0.71875q1.0 0 1.78125 0.421875q0.78125 0.421875 1.265625 1.09375l0 -5.46875l1.875 0l0 15.265625l-1.75 0zm-5.921875 -5.515625q0 2.125 0.890625 3.171875q0.90625 1.046875 2.125 1.046875q1.21875 0 2.078125 -1.0q0.859375 -1.0 0.859375 -3.0625q0 -2.28125 -0.875 -3.34375q-0.875 -1.0625 -2.15625 -1.0625q-1.25 0 -2.09375 1.03125q-0.828125 1.015625 -0.828125 3.21875zm16.521698 5.515625l0 -11.0625l1.6875 0l0 1.671875q0.640625 -1.171875 1.1875 -1.546875q0.546875 -0.375 1.203125 -0.375q0.953125 0 1.921875 0.609375l-0.640625 1.734375q-0.6875 -0.40625 -1.375 -0.40625q-0.609375 0 -1.109375 0.375q-0.484375 0.359375 -0.6875 1.015625q-0.3125 1.0 -0.3125 2.1875l0 5.796875l-1.875 0zm14.3680725 0l0 -1.625q-1.296875 1.875 -3.515625 1.875q-0.96875 0 -1.828125 -0.375q-0.84375 -0.375 -1.265625 -0.9375q-0.40625 -0.578125 -0.5625 -1.390625q-0.125 -0.5625 -0.125 -1.75l0 -6.859375l1.875 0l0 6.140625q0 1.46875 0.125 1.96875q0.171875 0.75 0.734375 1.171875q0.578125 0.421875 1.421875 0.421875q0.84375 0 1.578125 -0.4375q0.75 -0.4375 1.046875 -1.171875q0.3125 -0.75 0.3125 -2.171875l0 -5.921875l1.875 0l0 11.0625l-1.671875 0zm4.6116943 0l0 -11.0625l1.6875 0l0 1.578125q1.21875 -1.828125 3.515625 -1.828125q1.0 0 1.84375 0.359375q0.84375 0.359375 1.25 0.953125q0.421875 0.578125 0.59375 1.375q0.09375 0.515625 0.09375 1.828125l0 6.796875l-1.875 0l0 -6.734375q0 -1.140625 -0.21875 -1.703125q-0.21875 -0.578125 -0.78125 -0.90625q-0.546875 -0.34375 -1.296875 -0.34375q-1.203125 0 -2.078125 0.765625q-0.859375 0.75 -0.859375 2.875l0 6.046875l-1.875 0zm15.955444 -1.671875l0.265625 1.65625q-0.78125 0.15625 -1.40625 0.15625q-1.03125 0 -1.59375 -0.3125q-0.5625 -0.328125 -0.796875 -0.84375q-0.21875 -0.53125 -0.21875 -2.21875l0 -6.375l-1.375 0l0 -1.453125l1.375 0l0 -2.734375l1.859375 -1.125l0 3.859375l1.890625 0l0 1.453125l-1.890625 0l0 6.46875q0 0.8125 0.09375 1.046875q0.109375 0.21875 0.328125 0.359375q0.234375 0.125 0.640625 0.125q0.3125 0 0.828125 -0.0625zm1.8475037 -11.4375l0 -2.15625l1.875 0l0 2.15625l-1.875 0zm0 13.109375l0 -11.0625l1.875 0l0 11.0625l-1.875 0zm4.722809 0l0 -11.0625l1.671875 0l0 1.546875q0.53125 -0.8125 1.390625 -1.296875q0.859375 -0.5 1.96875 -0.5q1.234375 0 2.015625 0.515625q0.78125 0.5 1.109375 1.421875q1.3125 -1.9375 3.40625 -1.9375q1.65625 0 2.53125 0.921875q0.890625 0.90625 0.890625 2.796875l0 7.59375l-1.859375 0l0 -6.96875q0 -1.125 -0.1875 -1.609375q-0.1875 -0.5 -0.671875 -0.796875q-0.46875 -0.3125 -1.109375 -0.3125q-1.171875 0 -1.9375 0.78125q-0.765625 0.765625 -0.765625 2.484375l0 6.421875l-1.875 0l0 -7.1875q0 -1.25 -0.46875 -1.875q-0.453125 -0.625 -1.5 -0.625q-0.78125 0 -1.453125 0.421875q-0.671875 0.40625 -0.984375 1.21875q-0.296875 0.796875 -0.296875 2.3125l0 5.734375l-1.875 0zm25.344635 -3.5625l1.921875 0.234375q-0.453125 1.703125 -1.6875 2.640625q-1.234375 0.9375 -3.171875 0.9375q-2.421875 0 -3.84375 -1.484375q-1.421875 -1.5 -1.421875 -4.203125q0 -2.796875 1.4375 -4.328125q1.4375 -1.546875 3.734375 -1.546875q2.21875 0 3.609375 1.515625q1.40625 1.5 1.40625 4.25q0 0.15625 0 0.5l-8.25 0q0.109375 1.8125 1.03125 2.78125q0.921875 0.96875 2.3125 0.96875q1.03125 0 1.75 -0.53125q0.734375 -0.546875 1.171875 -1.734375zm-6.15625 -3.03125l6.171875 0q-0.125 -1.390625 -0.703125 -2.09375q-0.90625 -1.078125 -2.328125 -1.078125q-1.296875 0 -2.171875 0.859375q-0.875 0.859375 -0.96875 2.3125z" fill-rule="nonzero"/><path fill="#cccccc" d="m243.05774 284.3925l263.1496 0l0 51.527557l-263.1496 0z" fill-rule="evenodd"/><path stroke="#000000" stroke-width="1.0" stroke-linejoin="round" stroke-linecap="butt" d="m243.05774 284.3925l263.1496 0l0 51.527557l-263.1496 0z" fill-rule="evenodd"/><path fill="#000000" d="m252.02649 313.8725l5.859375 -15.265625l2.1875 0l6.234375 15.265625l-2.296875 0l-1.78125 -4.625l-6.375 0l-1.6875 4.625l-2.140625 0zm4.40625 -6.265625l5.171875 0l-1.59375 -4.234375q-0.71875 -1.921875 -1.078125 -3.15625q-0.296875 1.46875 -0.828125 2.90625l-1.671875 4.484375zm11.256958 10.5l0 -15.296875l1.703125 0l0 1.4375q0.609375 -0.84375 1.359375 -1.265625q0.765625 -0.421875 1.859375 -0.421875q1.40625 0 2.484375 0.734375q1.09375 0.71875 1.640625 2.046875q0.546875 1.328125 0.546875 2.921875q0 1.6875 -0.609375 3.046875q-0.59375 1.359375 -1.765625 2.09375q-1.15625 0.71875 -2.4375 0.71875q-0.9375 0 -1.6875 -0.390625q-0.734375 -0.40625 -1.21875 -1.0l0 5.375l-1.875 0zm1.703125 -9.703125q0 2.140625 0.859375 3.15625q0.859375 1.015625 2.09375 1.015625q1.25 0 2.140625 -1.046875q0.890625 -1.0625 0.890625 -3.28125q0 -2.109375 -0.875 -3.15625q-0.859375 -1.0625 -2.078125 -1.0625q-1.1875 0 -2.109375 1.125q-0.921875 1.109375 -0.921875 3.25zm10.158569 9.703125l0 -15.296875l1.703125 0l0 1.4375q0.609375 -0.84375 1.359375 -1.265625q0.765625 -0.421875 1.859375 -0.421875q1.40625 0 2.484375 0.734375q1.09375 0.71875 1.640625 2.046875q0.546875 1.328125 0.546875 2.921875q0 1.6875 -0.609375 3.046875q-0.59375 1.359375 -1.765625 2.09375q-1.15625 0.71875 -2.4375 0.71875q-0.9375 0 -1.6875 -0.390625q-0.734375 -0.40625 -1.21875 -1.0l0 5.375l-1.875 0zm1.703125 -9.703125q0 2.140625 0.859375 3.15625q0.859375 1.015625 2.09375 1.015625q1.25 0 2.140625 -1.046875q0.890625 -1.0625 0.890625 -3.28125q0 -2.109375 -0.875 -3.15625q-0.859375 -1.0625 -2.078125 -1.0625q-1.1875 0 -2.109375 1.125q-0.921875 1.109375 -0.921875 3.25zm10.111694 5.46875l0 -15.265625l1.875 0l0 15.265625l-1.875 0zm4.800934 -13.109375l0 -2.15625l1.875 0l0 2.15625l-1.875 0zm0 13.109375l0 -11.0625l1.875 0l0 11.0625l-1.875 0zm11.941559 -4.046875l1.84375 0.234375q-0.296875 1.90625 -1.546875 2.984375q-1.25 1.078125 -3.0625 1.078125q-2.265625 0 -3.65625 -1.484375q-1.375 -1.484375 -1.375 -4.25q0 -1.796875 0.59375 -3.140625q0.59375 -1.34375 1.8125 -2.015625q1.21875 -0.671875 2.640625 -0.671875q1.796875 0 2.9375 0.921875q1.15625 0.90625 1.484375 2.578125l-1.828125 0.28125q-0.265625 -1.109375 -0.921875 -1.671875q-0.65625 -0.5625 -1.59375 -0.5625q-1.421875 0 -2.3125 1.015625q-0.875 1.015625 -0.875 3.203125q0 2.234375 0.84375 3.25q0.859375 1.0 2.234375 1.0q1.109375 0 1.84375 -0.671875q0.734375 -0.671875 0.9375 -2.078125zm10.6640625 2.6875q-1.046875 0.875 -2.015625 1.25q-0.953125 0.359375 -2.0625 0.359375q-1.8125 0 -2.796875 -0.890625q-0.984375 -0.890625 -0.984375 -2.28125q0 -0.8125 0.375 -1.484375q0.375 -0.671875 0.96875 -1.078125q0.59375 -0.40625 1.34375 -0.609375q0.5625 -0.140625 1.671875 -0.28125q2.265625 -0.265625 3.34375 -0.640625q0.015625 -0.390625 0.015625 -0.5q0 -1.140625 -0.53125 -1.609375q-0.71875 -0.640625 -2.140625 -0.640625q-1.328125 0 -1.953125 0.46875q-0.625 0.46875 -0.9375 1.640625l-1.828125 -0.25q0.25 -1.171875 0.8125 -1.890625q0.578125 -0.734375 1.65625 -1.125q1.09375 -0.390625 2.515625 -0.390625q1.421875 0 2.296875 0.34375q0.890625 0.328125 1.3125 0.828125q0.421875 0.5 0.578125 1.28125q0.09375 0.46875 0.09375 1.71875l0 2.5q0 2.625 0.125 3.3125q0.125 0.6875 0.46875 1.328125l-1.953125 0q-0.296875 -0.578125 -0.375 -1.359375zm-0.15625 -4.1875q-1.015625 0.40625 -3.0625 0.703125q-1.15625 0.171875 -1.640625 0.375q-0.46875 0.203125 -0.734375 0.609375q-0.265625 0.40625 -0.265625 0.890625q0 0.75 0.5625 1.25q0.578125 0.5 1.671875 0.5q1.078125 0 1.921875 -0.46875q0.84375 -0.484375 1.25 -1.296875q0.296875 -0.640625 0.296875 -1.875l0 -0.6875zm8.892944 3.875l0.265625 1.65625q-0.78125 0.15625 -1.40625 0.15625q-1.03125 0 -1.59375 -0.3125q-0.5625 -0.328125 -0.796875 -0.84375q-0.21875 -0.53125 -0.21875 -2.21875l0 -6.375l-1.375 0l0 -1.453125l1.375 0l0 -2.734375l1.859375 -1.125l0 3.859375l1.890625 0l0 1.453125l-1.890625 0l0 6.46875q0 0.8125 0.09375 1.046875q0.109375 0.21875 0.328125 0.359375q0.234375 0.125 0.640625 0.125q0.3125 0 0.828125 -0.0625zm1.8475037 -11.4375l0 -2.15625l1.875 0l0 2.15625l-1.875 0zm0 13.109375l0 -11.0625l1.875 0l0 11.0625l-1.875 0zm4.019684 -5.53125q0 -3.078125 1.71875 -4.546875q1.421875 -1.234375 3.46875 -1.234375q2.28125 0 3.71875 1.5q1.453125 1.484375 1.453125 4.125q0 2.140625 -0.640625 3.359375q-0.625 1.21875 -1.859375 1.90625q-1.21875 0.671875 -2.671875 0.671875q-2.3125 0 -3.75 -1.484375q-1.4375 -1.5 -1.4375 -4.296875zm1.9375 0q0 2.125 0.921875 3.1875q0.921875 1.046875 2.328125 1.046875q1.40625 0 2.328125 -1.0625q0.921875 -1.0625 0.921875 -3.234375q0 -2.046875 -0.9375 -3.109375q-0.921875 -1.0625 -2.3125 -1.0625q-1.40625 0 -2.328125 1.0625q-0.921875 1.046875 -0.921875 3.171875zm10.627319 5.53125l0 -11.0625l1.6875 0l0 1.578125q1.21875 -1.828125 3.515625 -1.828125q1.0 0 1.84375 0.359375q0.84375 0.359375 1.25 0.953125q0.421875 0.578125 0.59375 1.375q0.09375 0.515625 0.09375 1.828125l0 6.796875l-1.875 0l0 -6.734375q0 -1.140625 -0.21875 -1.703125q-0.21875 -0.578125 -0.78125 -0.90625q-0.546875 -0.34375 -1.296875 -0.34375q-1.203125 0 -2.078125 0.765625q-0.859375 0.75 -0.859375 2.875l0 6.046875l-1.875 0z" fill-rule="nonzero"/><path fill="#cccccc" d="m243.05774 224.54256l263.1496 0l0 51.527542l-263.1496 0z" fill-rule="evenodd"/><path stroke="#000000" stroke-width="1.0" stroke-linejoin="round" stroke-linecap="butt" d="m243.05774 224.54256l263.1496 0l0 51.527542l-263.1496 0z" fill-rule="evenodd"/><path fill="#000000" d="m260.8546 248.03818l0 -1.796875l6.453125 -0.015625l0 5.671875q-1.484375 1.1875 -3.0625 1.796875q-1.578125 0.59375 -3.25 0.59375q-2.25 0 -4.09375 -0.96875q-1.828125 -0.96875 -2.765625 -2.78125q-0.9375 -1.828125 -0.9375 -4.078125q0 -2.234375 0.921875 -4.15625q0.9375 -1.9375 2.6875 -2.875q1.75 -0.9375 4.03125 -0.9375q1.65625 0 2.984375 0.546875q1.34375 0.53125 2.09375 1.5q0.765625 0.953125 1.171875 2.484375l-1.828125 0.5q-0.34375 -1.15625 -0.859375 -1.828125q-0.5 -0.671875 -1.453125 -1.0625q-0.9375 -0.40625 -2.09375 -0.40625q-1.390625 0 -2.40625 0.421875q-1.0 0.421875 -1.625 1.109375q-0.625 0.6875 -0.96875 1.515625q-0.578125 1.40625 -0.578125 3.0625q0 2.046875 0.703125 3.421875q0.703125 1.375 2.046875 2.046875q1.34375 0.65625 2.859375 0.65625q1.3125 0 2.546875 -0.5q1.25 -0.515625 1.90625 -1.078125l0 -2.84375l-4.484375 0zm9.183472 5.984375l0 -11.0625l1.6875 0l0 1.671875q0.640625 -1.171875 1.1875 -1.546875q0.546875 -0.375 1.203125 -0.375q0.953125 0 1.921875 0.609375l-0.640625 1.734375q-0.6875 -0.40625 -1.375 -0.40625q-0.609375 0 -1.109375 0.375q-0.484375 0.359375 -0.6875 1.015625q-0.3125 1.0 -0.3125 2.1875l0 5.796875l-1.875 0zm14.336792 -1.359375q-1.046875 0.875 -2.015625 1.25q-0.953125 0.359375 -2.0625 0.359375q-1.8125 0 -2.796875 -0.890625q-0.984375 -0.890625 -0.984375 -2.28125q0 -0.8125 0.375 -1.484375q0.375 -0.671875 0.96875 -1.078125q0.59375 -0.40625 1.34375 -0.609375q0.5625 -0.140625 1.671875 -0.28125q2.265625 -0.265625 3.34375 -0.640625q0.015625 -0.390625 0.015625 -0.5q0 -1.140625 -0.53125 -1.609375q-0.71875 -0.640625 -2.140625 -0.640625q-1.328125 0 -1.953125 0.46875q-0.625 0.46875 -0.9375 1.640625l-1.828125 -0.25q0.25 -1.171875 0.8125 -1.890625q0.578125 -0.734375 1.65625 -1.125q1.09375 -0.390625 2.515625 -0.390625q1.421875 0 2.296875 0.34375q0.890625 0.328125 1.3125 0.828125q0.421875 0.5 0.578125 1.28125q0.09375 0.46875 0.09375 1.71875l0 2.5q0 2.625 0.125 3.3125q0.125 0.6875 0.46875 1.328125l-1.953125 0q-0.296875 -0.578125 -0.375 -1.359375zm-0.15625 -4.1875q-1.015625 0.40625 -3.0625 0.703125q-1.15625 0.171875 -1.640625 0.375q-0.46875 0.203125 -0.734375 0.609375q-0.265625 0.40625 -0.265625 0.890625q0 0.75 0.5625 1.25q0.578125 0.5 1.671875 0.5q1.078125 0 1.921875 -0.46875q0.84375 -0.484375 1.25 -1.296875q0.296875 -0.640625 0.296875 -1.875l0 -0.6875zm4.7991943 5.546875l0 -11.0625l1.671875 0l0 1.546875q0.53125 -0.8125 1.390625 -1.296875q0.859375 -0.5 1.96875 -0.5q1.234375 0 2.015625 0.515625q0.78125 0.5 1.109375 1.421875q1.3125 -1.9375 3.40625 -1.9375q1.65625 0 2.53125 0.921875q0.890625 0.90625 0.890625 2.796875l0 7.59375l-1.859375 0l0 -6.96875q0 -1.125 -0.1875 -1.609375q-0.1875 -0.5 -0.671875 -0.796875q-0.46875 -0.3125 -1.109375 -0.3125q-1.171875 0 -1.9375 0.78125q-0.765625 0.765625 -0.765625 2.484375l0 6.421875l-1.875 0l0 -7.1875q0 -1.25 -0.46875 -1.875q-0.453125 -0.625 -1.5 -0.625q-0.78125 0 -1.453125 0.421875q-0.671875 0.40625 -0.984375 1.21875q-0.296875 0.796875 -0.296875 2.3125l0 5.734375l-1.875 0zm17.782135 -13.109375l0 -2.15625l1.875 0l0 2.15625l-1.875 0zm0 13.109375l0 -11.0625l1.875 0l0 11.0625l-1.875 0zm4.722809 0l0 -11.0625l1.6875 0l0 1.578125q1.21875 -1.828125 3.515625 -1.828125q1.0 0 1.84375 0.359375q0.84375 0.359375 1.25 0.953125q0.421875 0.578125 0.59375 1.375q0.09375 0.515625 0.09375 1.828125l0 6.796875l-1.875 0l0 -6.734375q0 -1.140625 -0.21875 -1.703125q-0.21875 -0.578125 -0.78125 -0.90625q-0.546875 -0.34375 -1.296875 -0.34375q-1.203125 0 -2.078125 0.765625q-0.859375 0.75 -0.859375 2.875l0 6.046875l-1.875 0zm19.43982 -3.5625l1.921875 0.234375q-0.453125 1.703125 -1.6875 2.640625q-1.234375 0.9375 -3.171875 0.9375q-2.421875 0 -3.84375 -1.484375q-1.421875 -1.5 -1.421875 -4.203125q0 -2.796875 1.4375 -4.328125q1.4375 -1.546875 3.734375 -1.546875q2.21875 0 3.609375 1.515625q1.40625 1.5 1.40625 4.25q0 0.15625 0 0.5l-8.25 0q0.109375 1.8125 1.03125 2.78125q0.921875 0.96875 2.3125 0.96875q1.03125 0 1.75 -0.53125q0.734375 -0.546875 1.171875 -1.734375zm-6.15625 -3.03125l6.171875 0q-0.125 -1.390625 -0.703125 -2.09375q-0.90625 -1.078125 -2.328125 -1.078125q-1.296875 0 -2.171875 0.859375q-0.875 0.859375 -0.96875 2.3125z" fill-rule="nonzero"/><path fill="#cccccc" d="m243.05774 344.24243l263.1496 0l0 51.527557l-263.1496 0z" fill-rule="evenodd"/><path stroke="#000000" stroke-width="1.0" stroke-linejoin="round" stroke-linecap="butt" d="m243.05774 344.24243l263.1496 0l0 51.527557l-263.1496 0z" fill-rule="evenodd"/><path fill="#000000" d="m253.12024 374.64432l1.828125 0.265625q0.109375 0.84375 0.625 1.234375q0.703125 0.515625 1.90625 0.515625q1.3125 0 2.015625 -0.53125q0.703125 -0.515625 0.953125 -1.453125q0.15625 -0.5625 0.140625 -2.40625q-1.234375 1.453125 -3.0625 1.453125q-2.28125 0 -3.53125 -1.640625q-1.25 -1.65625 -1.25 -3.953125q0 -1.578125 0.5625 -2.921875q0.578125 -1.34375 1.671875 -2.0625q1.09375 -0.734375 2.5625 -0.734375q1.953125 0 3.21875 1.578125l0 -1.328125l1.734375 0l0 9.5625q0 2.578125 -0.53125 3.65625q-0.515625 1.078125 -1.65625 1.703125q-1.140625 0.625 -2.8125 0.625q-1.984375 0 -3.203125 -0.890625q-1.21875 -0.890625 -1.171875 -2.671875zm1.546875 -6.65625q0 2.1875 0.859375 3.1875q0.875 1.0 2.171875 1.0q1.296875 0 2.171875 -1.0q0.875 -1.0 0.875 -3.125q0 -2.03125 -0.90625 -3.0625q-0.890625 -1.03125 -2.171875 -1.03125q-1.25 0 -2.125 1.015625q-0.875 1.015625 -0.875 3.015625zm10.611694 5.734375l0 -15.265625l1.875 0l0 15.265625l-1.875 0zm4.800934 -13.109375l0 -2.15625l1.875 0l0 2.15625l-1.875 0zm0 13.109375l0 -11.0625l1.875 0l0 11.0625l-1.875 0zm6.457184 0l-1.75 0l0 -15.265625l1.875 0l0 5.4375q1.1875 -1.484375 3.03125 -1.484375q1.03125 0 1.9375 0.421875q0.90625 0.40625 1.5 1.15625q0.59375 0.734375 0.921875 1.796875q0.328125 1.046875 0.328125 2.234375q0 2.84375 -1.40625 4.40625q-1.40625 1.546875 -3.375 1.546875q-1.953125 0 -3.0625 -1.640625l0 1.390625zm-0.03125 -5.609375q0 1.984375 0.546875 2.875q0.890625 1.4375 2.390625 1.4375q1.234375 0 2.125 -1.0625q0.90625 -1.0625 0.90625 -3.1875q0 -2.15625 -0.859375 -3.1875q-0.859375 -1.03125 -2.078125 -1.03125q-1.234375 0 -2.140625 1.0625q-0.890625 1.0625 -0.890625 3.09375zm17.37732 1.5625l1.84375 0.234375q-0.296875 1.90625 -1.546875 2.984375q-1.25 1.078125 -3.0625 1.078125q-2.265625 0 -3.65625 -1.484375q-1.375 -1.484375 -1.375 -4.25q0 -1.796875 0.59375 -3.140625q0.59375 -1.34375 1.8125 -2.015625q1.21875 -0.671875 2.640625 -0.671875q1.796875 0 2.9375 0.921875q1.15625 0.90625 1.484375 2.578125l-1.828125 0.28125q-0.265625 -1.109375 -0.921875 -1.671875q-0.65625 -0.5625 -1.59375 -0.5625q-1.421875 0 -2.3125 1.015625q-0.875 1.015625 -0.875 3.203125q0 2.234375 0.84375 3.25q0.859375 1.0 2.234375 1.0q1.109375 0 1.84375 -0.671875q0.734375 -0.671875 0.9375 -2.078125zm3.9765625 4.046875l0 -2.140625l2.140625 0l0 2.140625l-2.140625 0zm4.644409 -3.296875l1.859375 -0.296875q0.15625 1.109375 0.859375 1.703125q0.71875 0.59375 2.0 0.59375q1.296875 0 1.921875 -0.515625q0.625 -0.53125 0.625 -1.234375q0 -0.640625 -0.5625 -1.0q-0.375 -0.25 -1.90625 -0.640625q-2.0625 -0.515625 -2.859375 -0.890625q-0.796875 -0.390625 -1.21875 -1.0625q-0.40625 -0.671875 -0.40625 -1.484375q0 -0.734375 0.328125 -1.359375q0.34375 -0.640625 0.9375 -1.0625q0.4375 -0.3125 1.1875 -0.53125q0.75 -0.234375 1.625 -0.234375q1.296875 0 2.28125 0.375q0.984375 0.375 1.453125 1.015625q0.46875 0.640625 0.640625 1.71875l-1.828125 0.25q-0.125 -0.859375 -0.734375 -1.328125q-0.59375 -0.484375 -1.6875 -0.484375q-1.28125 0 -1.84375 0.421875q-0.546875 0.421875 -0.546875 1.0q0 0.359375 0.234375 0.65625q0.21875 0.296875 0.71875 0.5q0.28125 0.109375 1.65625 0.484375q1.984375 0.53125 2.765625 0.875q0.796875 0.328125 1.234375 0.984375q0.453125 0.640625 0.453125 1.59375q0 0.9375 -0.546875 1.765625q-0.546875 0.828125 -1.578125 1.28125q-1.03125 0.453125 -2.328125 0.453125q-2.15625 0 -3.296875 -0.890625q-1.125 -0.90625 -1.4375 -2.65625zm10.7109375 -2.234375q0 -3.078125 1.71875 -4.546875q1.421875 -1.234375 3.46875 -1.234375q2.28125 0 3.71875 1.5q1.453125 1.484375 1.453125 4.125q0 2.140625 -0.640625 3.359375q-0.625 1.21875 -1.859375 1.90625q-1.21875 0.671875 -2.671875 0.671875q-2.3125 0 -3.75 -1.484375q-1.4375 -1.5 -1.4375 -4.296875zm1.9375 0q0 2.125 0.921875 3.1875q0.921875 1.046875 2.328125 1.046875q1.40625 0 2.328125 -1.0625q0.921875 -1.0625 0.921875 -3.234375q0 -2.046875 -0.9375 -3.109375q-0.921875 -1.0625 -2.3125 -1.0625q-1.40625 0 -2.328125 1.0625q-0.921875 1.046875 -0.921875 3.171875z" fill-rule="nonzero"/><path fill="#000000" fill-opacity="0.0" d="m243.05774 397.98782l158.74017 0l0 45.259827l-158.74017 0z" fill-rule="evenodd"/><path fill="#000000" d="m253.99524 427.4678l0 -2.140625l2.140625 0l0 2.140625l-2.140625 0zm5.925659 0l0 -2.140625l2.140625 0l0 2.140625l-2.140625 0zm5.9256287 0l0 -2.140625l2.140625 0l0 2.140625l-2.140625 0z" fill-rule="nonzero"/><path fill="#ffffff" d="m645.79266 167.54596l263.1496 0l0 466.6457l-263.1496 0z" fill-rule="evenodd"/><path stroke="#000000" stroke-width="1.0" stroke-linejoin="round" stroke-linecap="butt" d="m645.79266 167.54596l263.1496 0l0 466.6457l-263.1496 0z" fill-rule="evenodd"/><path fill="#d9d9d9" d="m645.79364 208.89854l263.14966 0l0 243.937l-263.14966 0z" fill-rule="evenodd"/><path stroke="#000000" stroke-width="1.0" stroke-linejoin="round" stroke-linecap="butt" d="m645.79364 208.89854l263.14966 0l0 243.937l-263.14966 0z" fill-rule="evenodd"/><path fill="#ffffff" d="m645.79364 480.8711l263.14966 0l0 93.41736l-263.14966 0z" fill-rule="evenodd"/><path stroke="#000000" stroke-width="1.0" stroke-linejoin="round" stroke-linecap="butt" d="m645.79364 480.8711l263.14966 0l0 93.41736l-263.14966 0z" fill-rule="evenodd"/><path fill="#000000" d="m666.4499 495.08548l2.03125 0l0 8.8125q0 2.3125 -0.53125 3.671875q-0.515625 1.34375 -1.875 2.203125q-1.359375 0.84375 -3.5625 0.84375q-2.140625 0 -3.515625 -0.734375q-1.359375 -0.75 -1.953125 -2.140625q-0.578125 -1.40625 -0.578125 -3.84375l0 -8.8125l2.03125 0l0 8.8125q0 1.984375 0.359375 2.9375q0.375 0.9375 1.265625 1.453125q0.90625 0.5 2.21875 0.5q2.21875 0 3.15625 -1.0q0.953125 -1.015625 0.953125 -3.890625l0 -8.8125zm5.152527 15.265625l0 -11.0625l1.6875 0l0 1.578125q1.21875 -1.828125 3.515625 -1.828125q1.0 0 1.84375 0.359375q0.84375 0.359375 1.25 0.953125q0.421875 0.578125 0.59375 1.375q0.09375 0.515625 0.09375 1.828125l0 6.796875l-1.875 0l0 -6.734375q0 -1.140625 -0.21875 -1.703125q-0.21875 -0.578125 -0.78125 -0.90625q-0.546875 -0.34375 -1.296875 -0.34375q-1.203125 0 -2.078125 0.765625q-0.859375 0.75 -0.859375 2.875l0 6.046875l-1.875 0zm15.955444 -1.671875l0.265625 1.65625q-0.78125 0.15625 -1.40625 0.15625q-1.03125 0 -1.59375 -0.3125q-0.5625 -0.328125 -0.796875 -0.84375q-0.21875 -0.53125 -0.21875 -2.21875l0 -6.375l-1.375 0l0 -1.453125l1.375 0l0 -2.734375l1.859375 -1.125l0 3.859375l1.890625 0l0 1.453125l-1.890625 0l0 6.46875q0 0.8125 0.09375 1.046875q0.109375 0.21875 0.328125 0.359375q0.234375 0.125 0.640625 0.125q0.3125 0 0.828125 -0.0625zm1.8162842 1.671875l0 -11.0625l1.6875 0l0 1.671875q0.640625 -1.171875 1.1875 -1.546875q0.546875 -0.375 1.203125 -0.375q0.953125 0 1.921875 0.609375l-0.640625 1.734375q-0.6875 -0.40625 -1.375 -0.40625q-0.609375 0 -1.109375 0.375q-0.484375 0.359375 -0.6875 1.015625q-0.3125 1.0 -0.3125 2.1875l0 5.796875l-1.875 0zm14.368042 0l0 -1.625q-1.296875 1.875 -3.515625 1.875q-0.96875 0 -1.828125 -0.375q-0.84375 -0.375 -1.265625 -0.9375q-0.40625 -0.578125 -0.5625 -1.390625q-0.125 -0.5625 -0.125 -1.75l0 -6.859375l1.875 0l0 6.140625q0 1.46875 0.125 1.96875q0.171875 0.75 0.734375 1.171875q0.578125 0.421875 1.421875 0.421875q0.84375 0 1.578125 -0.4375q0.75 -0.4375 1.046875 -1.171875q0.3125 -0.75 0.3125 -2.171875l0 -5.921875l1.875 0l0 11.0625l-1.671875 0zm3.8616943 -3.296875l1.859375 -0.296875q0.15625 1.109375 0.859375 1.703125q0.71875 0.59375 2.0 0.59375q1.296875 0 1.921875 -0.515625q0.625 -0.53125 0.625 -1.234375q0 -0.640625 -0.5625 -1.0q-0.375 -0.25 -1.90625 -0.640625q-2.0625 -0.515625 -2.859375 -0.890625q-0.796875 -0.390625 -1.21875 -1.0625q-0.40625 -0.671875 -0.40625 -1.484375q0 -0.734375 0.328125 -1.359375q0.34375 -0.640625 0.9375 -1.0625q0.4375 -0.3125 1.1875 -0.53125q0.75 -0.234375 1.625 -0.234375q1.296875 0 2.28125 0.375q0.984375 0.375 1.453125 1.015625q0.46875 0.640625 0.640625 1.71875l-1.828125 0.25q-0.125 -0.859375 -0.734375 -1.328125q-0.59375 -0.484375 -1.6875 -0.484375q-1.28125 0 -1.84375 0.421875q-0.546875 0.421875 -0.546875 1.0q0 0.359375 0.234375 0.65625q0.21875 0.296875 0.71875 0.5q0.28125 0.109375 1.65625 0.484375q1.984375 0.53125 2.765625 0.875q0.796875 0.328125 1.234375 0.984375q0.453125 0.640625 0.453125 1.59375q0 0.9375 -0.546875 1.765625q-0.546875 0.828125 -1.578125 1.28125q-1.03125 0.453125 -2.328125 0.453125q-2.15625 0 -3.296875 -0.890625q-1.125 -0.90625 -1.4375 -2.65625zm15.5078125 1.625l0.265625 1.65625q-0.78125 0.15625 -1.40625 0.15625q-1.03125 0 -1.59375 -0.3125q-0.5625 -0.328125 -0.796875 -0.84375q-0.21875 -0.53125 -0.21875 -2.21875l0 -6.375l-1.375 0l0 -1.453125l1.375 0l0 -2.734375l1.859375 -1.125l0 3.859375l1.890625 0l0 1.453125l-1.890625 0l0 6.46875q0 0.8125 0.09375 1.046875q0.109375 0.21875 0.328125 0.359375q0.234375 0.125 0.640625 0.125q0.3125 0 0.828125 -0.0625zm9.410034 -1.890625l1.921875 0.234375q-0.453125 1.703125 -1.6875 2.640625q-1.234375 0.9375 -3.171875 0.9375q-2.421875 0 -3.84375 -1.484375q-1.421875 -1.5 -1.421875 -4.203125q0 -2.796875 1.4375 -4.328125q1.4375 -1.546875 3.734375 -1.546875q2.21875 0 3.609375 1.515625q1.40625 1.5 1.40625 4.25q0 0.15625 0 0.5l-8.25 0q0.109375 1.8125 1.03125 2.78125q0.921875 0.96875 2.3125 0.96875q1.03125 0 1.75 -0.53125q0.734375 -0.546875 1.171875 -1.734375zm-6.15625 -3.03125l6.171875 0q-0.125 -1.390625 -0.703125 -2.09375q-0.90625 -1.078125 -2.328125 -1.078125q-1.296875 0 -2.171875 0.859375q-0.875 0.859375 -0.96875 2.3125zm17.611694 6.59375l0 -1.390625q-1.046875 1.640625 -3.09375 1.640625q-1.3125 0 -2.421875 -0.71875q-1.109375 -0.734375 -1.71875 -2.046875q-0.609375 -1.3125 -0.609375 -3.0q0 -1.65625 0.546875 -3.0q0.546875 -1.359375 1.65625 -2.078125q1.109375 -0.71875 2.46875 -0.71875q1.0 0 1.78125 0.421875q0.78125 0.421875 1.265625 1.09375l0 -5.46875l1.875 0l0 15.265625l-1.75 0zm-5.921875 -5.515625q0 2.125 0.890625 3.171875q0.90625 1.046875 2.125 1.046875q1.21875 0 2.078125 -1.0q0.859375 -1.0 0.859375 -3.0625q0 -2.28125 -0.875 -3.34375q-0.875 -1.0625 -2.15625 -1.0625q-1.25 0 -2.09375 1.03125q-0.828125 1.015625 -0.828125 3.21875zm16.521667 5.515625l0 -11.0625l1.6875 0l0 1.671875q0.640625 -1.171875 1.1875 -1.546875q0.546875 -0.375 1.203125 -0.375q0.953125 0 1.921875 0.609375l-0.640625 1.734375q-0.6875 -0.40625 -1.375 -0.40625q-0.609375 0 -1.109375 0.375q-0.484375 0.359375 -0.6875 1.015625q-0.3125 1.0 -0.3125 2.1875l0 5.796875l-1.875 0zm14.368103 0l0 -1.625q-1.296875 1.875 -3.515625 1.875q-0.96875 0 -1.828125 -0.375q-0.84375 -0.375 -1.265625 -0.9375q-0.40625 -0.578125 -0.5625 -1.390625q-0.125 -0.5625 -0.125 -1.75l0 -6.859375l1.875 0l0 6.140625q0 1.46875 0.125 1.96875q0.171875 0.75 0.734375 1.171875q0.578125 0.421875 1.421875 0.421875q0.84375 0 1.578125 -0.4375q0.75 -0.4375 1.046875 -1.171875q0.3125 -0.75 0.3125 -2.171875l0 -5.921875l1.875 0l0 11.0625l-1.671875 0zm4.6116943 0l0 -11.0625l1.6875 0l0 1.578125q1.21875 -1.828125 3.515625 -1.828125q1.0 0 1.84375 0.359375q0.84375 0.359375 1.25 0.953125q0.421875 0.578125 0.59375 1.375q0.09375 0.515625 0.09375 1.828125l0 6.796875l-1.875 0l0 -6.734375q0 -1.140625 -0.21875 -1.703125q-0.21875 -0.578125 -0.78125 -0.90625q-0.546875 -0.34375 -1.296875 -0.34375q-1.203125 0 -2.078125 0.765625q-0.859375 0.75 -0.859375 2.875l0 6.046875l-1.875 0zm15.955444 -1.671875l0.265625 1.65625q-0.78125 0.15625 -1.40625 0.15625q-1.03125 0 -1.59375 -0.3125q-0.5625 -0.328125 -0.796875 -0.84375q-0.21875 -0.53125 -0.21875 -2.21875l0 -6.375l-1.375 0l0 -1.453125l1.375 0l0 -2.734375l1.859375 -1.125l0 3.859375l1.890625 0l0 1.453125l-1.890625 0l0 6.46875q0 0.8125 0.09375 1.046875q0.109375 0.21875 0.328125 0.359375q0.234375 0.125 0.640625 0.125q0.3125 0 0.828125 -0.0625zm1.8474731 -11.4375l0 -2.15625l1.875 0l0 2.15625l-1.875 0zm0 13.109375l0 -11.0625l1.875 0l0 11.0625l-1.875 0zm4.7228394 0l0 -11.0625l1.671875 0l0 1.546875q0.53125 -0.8125 1.390625 -1.296875q0.859375 -0.5 1.96875 -0.5q1.234375 0 2.015625 0.515625q0.78125 0.5 1.109375 1.421875q1.3125 -1.9375 3.40625 -1.9375q1.65625 0 2.53125 0.921875q0.890625 0.90625 0.890625 2.796875l0 7.59375l-1.859375 0l0 -6.96875q0 -1.125 -0.1875 -1.609375q-0.1875 -0.5 -0.671875 -0.796875q-0.46875 -0.3125 -1.109375 -0.3125q-1.171875 0 -1.9375 0.78125q-0.765625 0.765625 -0.765625 2.484375l0 6.421875l-1.875 0l0 -7.1875q0 -1.25 -0.46875 -1.875q-0.453125 -0.625 -1.5 -0.625q-0.78125 0 -1.453125 0.421875q-0.671875 0.40625 -0.984375 1.21875q-0.296875 0.796875 -0.296875 2.3125l0 5.734375l-1.875 0zm25.344604 -3.5625l1.921875 0.234375q-0.453125 1.703125 -1.6875 2.640625q-1.234375 0.9375 -3.171875 0.9375q-2.421875 0 -3.84375 -1.484375q-1.421875 -1.5 -1.421875 -4.203125q0 -2.796875 1.4375 -4.328125q1.4375 -1.546875 3.734375 -1.546875q2.21875 0 3.609375 1.515625q1.40625 1.5 1.40625 4.25q0 0.15625 0 0.5l-8.25 0q0.109375 1.8125 1.03125 2.78125q0.921875 0.96875 2.3125 0.96875q1.03125 0 1.75 -0.53125q0.734375 -0.546875 1.171875 -1.734375zm-6.15625 -3.03125l6.171875 0q-0.125 -1.390625 -0.703125 -2.09375q-0.90625 -1.078125 -2.328125 -1.078125q-1.296875 0 -2.171875 0.859375q-0.875 0.859375 -0.96875 2.3125z" fill-rule="nonzero"/><path fill="#000000" fill-opacity="0.0" d="m645.79364 224.54367l158.74017 0l0 45.259827l-158.74017 0z" fill-rule="evenodd"/><path fill="#000000" d="m659.778 258.50806q-1.546875 -1.953125 -2.625 -4.5781403q-1.0625 -2.625 -1.0625 -5.4375q0 -2.484375 0.796875 -4.75q0.9375 -2.625 2.890625 -5.25l1.34375 0q-1.25 2.171875 -1.65625 3.09375q-0.640625 1.4375 -1.0 3.0q-0.453125 1.953125 -0.453125 3.921875q0 5.0 3.109375 10.000015l-1.34375 0zm3.508728 -4.4843903l0 -11.0625l1.6875 0l0 1.671875q0.640625 -1.171875 1.1875 -1.546875q0.546875 -0.375 1.203125 -0.375q0.953125 0 1.921875 0.609375l-0.640625 1.734375q-0.6875 -0.40625 -1.375 -0.40625q-0.609375 0 -1.109375 0.375q-0.484375 0.359375 -0.6875 1.015625q-0.3125 1.0 -0.3125 2.1875l0 5.796875l-1.875 0zm14.336792 -1.359375q-1.046875 0.875 -2.015625 1.25q-0.953125 0.359375 -2.0625 0.359375q-1.8125 0 -2.796875 -0.890625q-0.984375 -0.890625 -0.984375 -2.28125q0 -0.8125 0.375 -1.484375q0.375 -0.671875 0.96875 -1.078125q0.59375 -0.40625 1.34375 -0.609375q0.5625 -0.140625 1.671875 -0.28125q2.265625 -0.265625 3.34375 -0.640625q0.015625 -0.390625 0.015625 -0.5q0 -1.140625 -0.53125 -1.609375q-0.71875 -0.640625 -2.140625 -0.640625q-1.328125 0 -1.953125 0.46875q-0.625 0.46875 -0.9375 1.640625l-1.828125 -0.25q0.25 -1.171875 0.8125 -1.890625q0.578125 -0.734375 1.65625 -1.125q1.09375 -0.390625 2.515625 -0.390625q1.421875 0 2.296875 0.34375q0.890625 0.328125 1.3125 0.828125q0.421875 0.5 0.578125 1.28125q0.09375 0.46875 0.09375 1.71875l0 2.5q0 2.625 0.125 3.3125q0.125 0.6875 0.46875 1.328125l-1.953125 0q-0.296875 -0.578125 -0.375 -1.359375zm-0.15625 -4.1875q-1.015625 0.40625 -3.0625 0.703125q-1.15625 0.171875 -1.640625 0.375q-0.46875 0.203125 -0.734375 0.609375q-0.265625 0.40625 -0.265625 0.890625q0 0.75 0.5625 1.25q0.578125 0.5 1.671875 0.5q1.078125 0 1.921875 -0.46875q0.84375 -0.484375 1.25 -1.296875q0.296875 -0.640625 0.296875 -1.875l0 -0.6875zm6.8460693 5.546875l-3.390625 -11.0625l1.9375 0l1.765625 6.390625l0.65625 2.375q0.03125 -0.1875 0.5625 -2.28125l1.765625 -6.484375l1.921875 0l1.65625 6.421875l0.546875 2.109375l0.640625 -2.140625l1.890625 -6.390625l1.828125 0l-3.453125 11.0625l-1.953125 0l-1.75 -6.625l-0.4375 -1.890625l-2.234375 8.515625l-1.953125 0zm26.453125 0l0 -1.390625q-1.046875 1.640625 -3.09375 1.640625q-1.3125 0 -2.421875 -0.71875q-1.109375 -0.734375 -1.71875 -2.046875q-0.609375 -1.3125 -0.609375 -3.0q0 -1.65625 0.546875 -3.0q0.546875 -1.359375 1.65625 -2.078125q1.109375 -0.71875 2.46875 -0.71875q1.0 0 1.78125 0.421875q0.78125 0.421875 1.265625 1.09375l0 -5.46875l1.875 0l0 15.265625l-1.75 0zm-5.921875 -5.515625q0 2.125 0.890625 3.171875q0.90625 1.046875 2.125 1.046875q1.21875 0 2.078125 -1.0q0.859375 -1.0 0.859375 -3.0625q0 -2.28125 -0.875 -3.34375q-0.875 -1.0625 -2.15625 -1.0625q-1.25 0 -2.09375 1.03125q-0.828125 1.015625 -0.828125 3.21875zm17.830444 4.15625q-1.046875 0.875 -2.015625 1.25q-0.953125 0.359375 -2.0625 0.359375q-1.8125 0 -2.796875 -0.890625q-0.984375 -0.890625 -0.984375 -2.28125q0 -0.8125 0.375 -1.484375q0.375 -0.671875 0.96875 -1.078125q0.59375 -0.40625 1.34375 -0.609375q0.5625 -0.140625 1.671875 -0.28125q2.265625 -0.265625 3.34375 -0.640625q0.015625 -0.390625 0.015625 -0.5q0 -1.140625 -0.53125 -1.609375q-0.71875 -0.640625 -2.140625 -0.640625q-1.328125 0 -1.953125 0.46875q-0.625 0.46875 -0.9375 1.640625l-1.828125 -0.25q0.25 -1.171875 0.8125 -1.890625q0.578125 -0.734375 1.65625 -1.125q1.09375 -0.390625 2.515625 -0.390625q1.421875 0 2.296875 0.34375q0.890625 0.328125 1.3125 0.828125q0.421875 0.5 0.578125 1.28125q0.09375 0.46875 0.09375 1.71875l0 2.5q0 2.625 0.125 3.3125q0.125 0.6875 0.46875 1.328125l-1.953125 0q-0.296875 -0.578125 -0.375 -1.359375zm-0.15625 -4.1875q-1.015625 0.40625 -3.0625 0.703125q-1.15625 0.171875 -1.640625 0.375q-0.46875 0.203125 -0.734375 0.609375q-0.265625 0.40625 -0.265625 0.890625q0 0.75 0.5625 1.25q0.578125 0.5 1.671875 0.5q1.078125 0 1.921875 -0.46875q0.84375 -0.484375 1.25 -1.296875q0.296875 -0.640625 0.296875 -1.875l0 -0.6875zm8.892944 3.875l0.265625 1.65625q-0.78125 0.15625 -1.40625 0.15625q-1.03125 0 -1.59375 -0.3125q-0.5625 -0.328125 -0.796875 -0.84375q-0.21875 -0.53125 -0.21875 -2.21875l0 -6.375l-1.375 0l0 -1.453125l1.375 0l0 -2.734375l1.859375 -1.125l0 3.859375l1.890625 0l0 1.453125l-1.890625 0l0 6.46875q0 0.8125 0.09375 1.046875q0.109375 0.21875 0.328125 0.359375q0.234375 0.125 0.640625 0.125q0.3125 0 0.828125 -0.0625zm9.050659 0.3125q-1.046875 0.875 -2.015625 1.25q-0.953125 0.359375 -2.0625 0.359375q-1.8125 0 -2.796875 -0.890625q-0.984375 -0.890625 -0.984375 -2.28125q0 -0.8125 0.375 -1.484375q0.375 -0.671875 0.96875 -1.078125q0.59375 -0.40625 1.34375 -0.609375q0.5625 -0.140625 1.671875 -0.28125q2.265625 -0.265625 3.34375 -0.640625q0.015625 -0.390625 0.015625 -0.5q0 -1.140625 -0.53125 -1.609375q-0.71875 -0.640625 -2.140625 -0.640625q-1.328125 0 -1.953125 0.46875q-0.625 0.46875 -0.9375 1.640625l-1.828125 -0.25q0.25 -1.171875 0.8125 -1.890625q0.578125 -0.734375 1.65625 -1.125q1.09375 -0.390625 2.515625 -0.390625q1.421875 0 2.296875 0.34375q0.890625 0.328125 1.3125 0.828125q0.421875 0.5 0.578125 1.28125q0.09375 0.46875 0.09375 1.71875l0 2.5q0 2.625 0.125 3.3125q0.125 0.6875 0.46875 1.328125l-1.953125 0q-0.296875 -0.578125 -0.375 -1.359375zm-0.15625 -4.1875q-1.015625 0.40625 -3.0625 0.703125q-1.15625 0.171875 -1.640625 0.375q-0.46875 0.203125 -0.734375 0.609375q-0.265625 0.40625 -0.265625 0.890625q0 0.75 0.5625 1.25q0.578125 0.5 1.671875 0.5q1.078125 0 1.921875 -0.46875q0.84375 -0.484375 1.25 -1.296875q0.296875 -0.640625 0.296875 -1.875l0 -0.6875zm6.0335693 10.031265l-1.34375 0q3.109375 -5.0000153 3.109375 -10.000015q0 -1.96875 -0.453125 -3.890625q-0.34375 -1.5625 -0.984375 -3.0q-0.40625 -0.9375 -1.671875 -3.125l1.34375 0q1.953125 2.625 2.890625 5.25q0.796875 2.265625 0.796875 4.75q0 2.8125 -1.078125 5.4375q-1.078125 2.6250153 -2.609375 4.5781403z" fill-rule="nonzero"/><path fill="#000000" fill-opacity="0.0" d="m243.05774 97.05249l263.1496 0l0 54.92914l-263.1496 0z" fill-rule="evenodd"/><path fill="#000000" d="m254.37024 134.2125l0 -21.0l9.296875 0q2.8125 0 4.265625 0.578125q1.46875 0.5625 2.34375 2.0q0.875 1.421875 0.875 3.15625q0 2.234375 -1.453125 3.765625q-1.4375 1.53125 -4.46875 1.953125q1.109375 0.53125 1.671875 1.046875q1.21875 1.109375 2.3125 2.78125l3.65625 5.71875l-3.5 0l-2.78125 -4.375q-1.21875 -1.890625 -2.0 -2.890625q-0.78125 -1.0 -1.40625 -1.390625q-0.625 -0.40625 -1.265625 -0.5625q-0.484375 -0.109375 -1.546875 -0.109375l-3.234375 0l0 9.328125l-2.765625 0zm2.765625 -11.734375l5.984375 0q1.890625 0 2.96875 -0.390625q1.078125 -0.390625 1.625 -1.25q0.5625 -0.875 0.5625 -1.890625q0 -1.484375 -1.078125 -2.4375q-1.078125 -0.96875 -3.40625 -0.96875l-6.65625 0l0 6.9375zm28.445465 6.84375l2.65625 0.328125q-0.625 2.328125 -2.328125 3.625q-1.703125 1.28125 -4.359375 1.28125q-3.328125 0 -5.28125 -2.046875q-1.953125 -2.0625 -1.953125 -5.765625q0 -3.84375 1.96875 -5.953125q1.984375 -2.125 5.125 -2.125q3.0625 0 4.984375 2.078125q1.9375 2.0625 1.9375 5.84375q0 0.21875 -0.015625 0.671875l-11.34375 0q0.140625 2.515625 1.421875 3.84375q1.28125 1.328125 3.171875 1.328125q1.421875 0 2.421875 -0.734375q1.0 -0.75 1.59375 -2.375zm-8.46875 -4.171875l8.5 0q-0.171875 -1.921875 -0.96875 -2.875q-1.234375 -1.5 -3.203125 -1.5q-1.765625 0 -2.984375 1.1875q-1.203125 1.1875 -1.34375 3.1875zm24.295288 7.1875q-1.4375 1.21875 -2.765625 1.71875q-1.3125 0.5 -2.828125 0.5q-2.515625 0 -3.859375 -1.21875q-1.34375 -1.234375 -1.34375 -3.140625q0 -1.109375 0.5 -2.03125q0.515625 -0.921875 1.328125 -1.484375q0.828125 -0.5625 1.859375 -0.84375q0.765625 -0.203125 2.296875 -0.390625q3.125 -0.375 4.59375 -0.890625q0.015625 -0.53125 0.015625 -0.671875q0 -1.578125 -0.734375 -2.21875q-0.984375 -0.875 -2.9375 -0.875q-1.8125 0 -2.6875 0.640625q-0.859375 0.640625 -1.265625 2.25l-2.53125 -0.34375q0.34375 -1.609375 1.125 -2.609375q0.796875 -1.0 2.28125 -1.53125q1.5 -0.53125 3.453125 -0.53125q1.953125 0 3.171875 0.453125q1.21875 0.453125 1.78125 1.15625q0.578125 0.6875 0.8125 1.75q0.125 0.65625 0.125 2.375l0 3.4375q0 3.59375 0.15625 4.546875q0.171875 0.953125 0.65625 1.828125l-2.6875 0q-0.40625 -0.796875 -0.515625 -1.875zm-0.21875 -5.75q-1.40625 0.5625 -4.203125 0.96875q-1.59375 0.21875 -2.25 0.515625q-0.65625 0.28125 -1.015625 0.84375q-0.359375 0.546875 -0.359375 1.21875q0 1.03125 0.78125 1.71875q0.78125 0.6875 2.28125 0.6875q1.484375 0 2.640625 -0.65625q1.171875 -0.65625 1.71875 -1.78125q0.40625 -0.875 0.40625 -2.578125l0 -0.9375zm6.545288 7.625l0 -21.0l2.578125 0l0 21.0l-2.578125 0zm6.5939026 -18.03125l0 -2.96875l2.578125 0l0 2.96875l-2.578125 0zm0 18.03125l0 -15.203125l2.578125 0l0 15.203125l-2.578125 0zm12.125153 -2.3125l0.375 2.28125q-1.09375 0.234375 -1.953125 0.234375q-1.40625 0 -2.1875 -0.4375q-0.765625 -0.453125 -1.078125 -1.171875q-0.3125 -0.734375 -0.3125 -3.046875l0 -8.75l-1.890625 0l0 -2.0l1.890625 0l0 -3.765625l2.5625 -1.546875l0 5.3125l2.59375 0l0 2.0l-2.59375 0l0 8.890625q0 1.109375 0.125 1.421875q0.140625 0.3125 0.453125 0.5q0.3125 0.1875 0.890625 0.1875q0.421875 0 1.125 -0.109375zm2.3983154 8.171875l-0.28125 -2.421875q0.84375 0.234375 1.46875 0.234375q0.859375 0 1.375 -0.296875q0.515625 -0.28125 0.859375 -0.796875q0.234375 -0.390625 0.78125 -1.921875q0.078125 -0.21875 0.234375 -0.625l-5.78125 -15.234375l2.78125 0l3.171875 8.796875q0.609375 1.6875 1.09375 3.53125q0.453125 -1.78125 1.0625 -3.46875l3.25 -8.859375l2.578125 0l-5.78125 15.453125q-0.9375 2.515625 -1.453125 3.453125q-0.6875 1.28125 -1.578125 1.875q-0.875 0.59375 -2.109375 0.59375q-0.75 0 -1.671875 -0.3125zm15.5078125 -18.125l0 -2.9375l2.921875 0l0 2.9375l-2.921875 0zm0 12.265625l0 -2.9375l2.921875 0l0 2.9375l-2.921875 0z" fill-rule="nonzero"/><path fill="#000000" fill-opacity="0.0" d="m645.79364 97.05249l263.14966 0l0 54.92914l-263.14966 0z" fill-rule="evenodd"/><path fill="#000000" d="m660.7155 134.2125l-5.5625 -21.0l2.84375 0l3.203125 13.765625q0.515625 2.171875 0.890625 4.296875q0.796875 -3.359375 0.9375 -3.875l4.0 -14.1875l3.34375 0l3.015625 10.625q1.125 3.953125 1.625 7.4375q0.40625 -1.984375 1.046875 -4.5625l3.296875 -13.5l2.796875 0l-5.765625 21.0l-2.671875 0l-4.421875 -16.0q-0.5625 -2.0 -0.671875 -2.453125q-0.328125 1.4375 -0.609375 2.453125l-4.453125 16.0l-2.84375 0zm23.69696 0l0 -21.0l2.578125 0l0 7.53125q1.796875 -2.078125 4.546875 -2.078125q1.6875 0 2.9375 0.671875q1.25 0.65625 1.78125 1.828125q0.546875 1.171875 0.546875 3.40625l0 9.640625l-2.578125 0l0 -9.640625q0 -1.9375 -0.84375 -2.8125q-0.84375 -0.875 -2.375 -0.875q-1.140625 0 -2.15625 0.59375q-1.0 0.59375 -1.4375 1.609375q-0.421875 1.015625 -0.421875 2.8125l0 8.3125l-2.578125 0zm26.232788 -1.875q-1.4375 1.21875 -2.765625 1.71875q-1.3125 0.5 -2.828125 0.5q-2.515625 0 -3.859375 -1.21875q-1.34375 -1.234375 -1.34375 -3.140625q0 -1.109375 0.5 -2.03125q0.515625 -0.921875 1.328125 -1.484375q0.828125 -0.5625 1.859375 -0.84375q0.765625 -0.203125 2.296875 -0.390625q3.125 -0.375 4.59375 -0.890625q0.015625 -0.53125 0.015625 -0.671875q0 -1.578125 -0.734375 -2.21875q-0.984375 -0.875 -2.9375 -0.875q-1.8125 0 -2.6875 0.640625q-0.859375 0.640625 -1.265625 2.25l-2.53125 -0.34375q0.34375 -1.609375 1.125 -2.609375q0.796875 -1.0 2.28125 -1.53125q1.5 -0.53125 3.453125 -0.53125q1.953125 0 3.171875 0.453125q1.21875 0.453125 1.78125 1.15625q0.578125 0.6875 0.8125 1.75q0.125 0.65625 0.125 2.375l0 3.4375q0 3.59375 0.15625 4.546875q0.171875 0.953125 0.65625 1.828125l-2.6875 0q-0.40625 -0.796875 -0.515625 -1.875zm-0.21875 -5.75q-1.40625 0.5625 -4.203125 0.96875q-1.59375 0.21875 -2.25 0.515625q-0.65625 0.28125 -1.015625 0.84375q-0.359375 0.546875 -0.359375 1.21875q0 1.03125 0.78125 1.71875q0.78125 0.6875 2.28125 0.6875q1.484375 0 2.640625 -0.65625q1.171875 -0.65625 1.71875 -1.78125q0.40625 -0.875 0.40625 -2.578125l0 -0.9375zm12.232788 5.3125l0.375 2.28125q-1.09375 0.234375 -1.953125 0.234375q-1.40625 0 -2.1875 -0.4375q-0.765625 -0.453125 -1.078125 -1.171875q-0.3125 -0.734375 -0.3125 -3.046875l0 -8.75l-1.890625 0l0 -2.0l1.890625 0l0 -3.765625l2.5625 -1.546875l0 5.3125l2.59375 0l0 2.0l-2.59375 0l0 8.890625q0 1.109375 0.125 1.421875q0.140625 0.3125 0.453125 0.5q0.3125 0.1875 0.890625 0.1875q0.421875 0 1.125 -0.109375zm20.82782 -5.921875l0 -2.46875l8.890625 -0.015625l0 7.796875q-2.046875 1.640625 -4.234375 2.46875q-2.171875 0.8125 -4.46875 0.8125q-3.09375 0 -5.625 -1.328125q-2.515625 -1.328125 -3.8125 -3.828125q-1.28125 -2.5 -1.28125 -5.59375q0 -3.078125 1.28125 -5.734375q1.28125 -2.65625 3.6875 -3.9375q2.40625 -1.296875 5.546875 -1.296875q2.265625 0 4.109375 0.75q1.84375 0.734375 2.890625 2.0625q1.046875 1.3125 1.59375 3.421875l-2.515625 0.6875q-0.46875 -1.59375 -1.171875 -2.515625q-0.703125 -0.921875 -2.015625 -1.46875q-1.296875 -0.546875 -2.875 -0.546875q-1.90625 0 -3.296875 0.578125q-1.390625 0.578125 -2.25 1.53125q-0.84375 0.9375 -1.3125 2.0625q-0.8125 1.953125 -0.8125 4.234375q0 2.796875 0.96875 4.6875q0.96875 1.890625 2.8125 2.8125q1.84375 0.921875 3.921875 0.921875q1.8125 0 3.53125 -0.6875q1.71875 -0.703125 2.609375 -1.5l0 -3.90625l-6.171875 0zm12.984253 8.234375l0 -21.0l7.234375 0q2.4375 0 3.734375 0.3125q1.796875 0.40625 3.078125 1.5q1.65625 1.40625 2.484375 3.59375q0.828125 2.171875 0.828125 4.984375q0 2.390625 -0.5625 4.234375q-0.5625 1.84375 -1.4375 3.0625q-0.875 1.203125 -1.921875 1.90625q-1.03125 0.6875 -2.5 1.046875q-1.453125 0.359375 -3.359375 0.359375l-7.578125 0zm2.78125 -2.484375l4.46875 0q2.078125 0 3.265625 -0.375q1.1875 -0.390625 1.890625 -1.09375q0.984375 -0.984375 1.53125 -2.65625q0.546875 -1.671875 0.546875 -4.046875q0 -3.296875 -1.078125 -5.0625q-1.078125 -1.765625 -2.625 -2.375q-1.125 -0.421875 -3.59375 -0.421875l-4.40625 0l0 16.03125zm18.27356 2.484375l0 -21.0l7.890625 0q2.40625 0 3.859375 0.640625q1.453125 0.640625 2.265625 1.96875q0.828125 1.328125 0.828125 2.765625q0 1.34375 -0.734375 2.53125q-0.734375 1.1875 -2.203125 1.921875q1.90625 0.5625 2.921875 1.90625q1.03125 1.34375 1.03125 3.171875q0 1.484375 -0.625 2.75q-0.625 1.265625 -1.546875 1.953125q-0.90625 0.6875 -2.296875 1.046875q-1.375 0.34375 -3.375 0.34375l-8.015625 0zm2.78125 -12.171875l4.546875 0q1.84375 0 2.640625 -0.25q1.0625 -0.3125 1.59375 -1.03125q0.546875 -0.734375 0.546875 -1.84375q0 -1.046875 -0.5 -1.828125q-0.5 -0.796875 -1.4375 -1.09375q-0.921875 -0.296875 -3.1875 -0.296875l-4.203125 0l0 6.34375zm0 9.6875l5.234375 0q1.34375 0 1.890625 -0.09375q0.953125 -0.171875 1.59375 -0.5625q0.65625 -0.40625 1.0625 -1.171875q0.421875 -0.765625 0.421875 -1.78125q0 -1.171875 -0.609375 -2.03125q-0.59375 -0.875 -1.671875 -1.21875q-1.0625 -0.34375 -3.0625 -0.34375l-4.859375 0l0 7.203125zm23.694336 -2.0625l2.546875 -0.390625q0.21875 1.53125 1.1875 2.34375q0.984375 0.8125 2.75 0.8125q1.78125 0 2.640625 -0.71875q0.859375 -0.71875 0.859375 -1.703125q0 -0.859375 -0.765625 -1.375q-0.53125 -0.34375 -2.640625 -0.859375q-2.828125 -0.71875 -3.921875 -1.234375q-1.09375 -0.53125 -1.671875 -1.453125q-0.5625 -0.921875 -0.5625 -2.046875q0 -1.015625 0.46875 -1.875q0.46875 -0.875 1.265625 -1.453125q0.609375 -0.4375 1.640625 -0.734375q1.046875 -0.3125 2.234375 -0.3125q1.78125 0 3.125 0.515625q1.359375 0.515625 2.0 1.390625q0.65625 0.875 0.890625 2.359375l-2.515625 0.34375q-0.171875 -1.171875 -1.0 -1.828125q-0.8125 -0.671875 -2.3125 -0.671875q-1.78125 0 -2.546875 0.59375q-0.75 0.578125 -0.75 1.375q0 0.5 0.3125 0.90625q0.3125 0.40625 0.984375 0.6875q0.390625 0.140625 2.28125 0.65625q2.734375 0.734375 3.8125 1.203125q1.078125 0.453125 1.6875 1.34375q0.625 0.890625 0.625 2.203125q0 1.296875 -0.75 2.4375q-0.75 1.125 -2.171875 1.75q-1.421875 0.625 -3.203125 0.625q-2.96875 0 -4.53125 -1.234375q-1.546875 -1.234375 -1.96875 -3.65625zm26.101562 -0.34375l2.65625 0.328125q-0.625 2.328125 -2.328125 3.625q-1.703125 1.28125 -4.359375 1.28125q-3.328125 0 -5.28125 -2.046875q-1.953125 -2.0625 -1.953125 -5.765625q0 -3.84375 1.96875 -5.953125q1.984375 -2.125 5.125 -2.125q3.0625 0 4.984375 2.078125q1.9375 2.0625 1.9375 5.84375q0 0.21875 -0.015625 0.671875l-11.34375 0q0.140625 2.515625 1.421875 3.84375q1.28125 1.328125 3.171875 1.328125q1.421875 0 2.421875 -0.734375q1.0 -0.75 1.59375 -2.375zm-8.46875 -4.171875l8.5 0q-0.171875 -1.921875 -0.96875 -2.875q-1.234375 -1.5 -3.203125 -1.5q-1.765625 0 -2.984375 1.1875q-1.203125 1.1875 -1.34375 3.1875zm24.779663 4.171875l2.65625 0.328125q-0.625 2.328125 -2.328125 3.625q-1.703125 1.28125 -4.359375 1.28125q-3.328125 0 -5.28125 -2.046875q-1.953125 -2.0625 -1.953125 -5.765625q0 -3.84375 1.96875 -5.953125q1.984375 -2.125 5.125 -2.125q3.0625 0 4.984375 2.078125q1.9375 2.0625 1.9375 5.84375q0 0.21875 -0.015625 0.671875l-11.34375 0q0.140625 2.515625 1.421875 3.84375q1.28125 1.328125 3.171875 1.328125q1.421875 0 2.421875 -0.734375q1.0 -0.75 1.59375 -2.375zm-8.46875 -4.171875l8.5 0q-0.171875 -1.921875 -0.96875 -2.875q-1.234375 -1.5 -3.203125 -1.5q-1.765625 0 -2.984375 1.1875q-1.203125 1.1875 -1.34375 3.1875zm13.342163 4.515625l2.546875 -0.390625q0.21875 1.53125 1.1875 2.34375q0.984375 0.8125 2.75 0.8125q1.78125 0 2.640625 -0.71875q0.859375 -0.71875 0.859375 -1.703125q0 -0.859375 -0.765625 -1.375q-0.53125 -0.34375 -2.640625 -0.859375q-2.828125 -0.71875 -3.921875 -1.234375q-1.09375 -0.53125 -1.671875 -1.453125q-0.5625 -0.921875 -0.5625 -2.046875q0 -1.015625 0.46875 -1.875q0.46875 -0.875 1.265625 -1.453125q0.609375 -0.4375 1.640625 -0.734375q1.046875 -0.3125 2.234375 -0.3125q1.78125 0 3.125 0.515625q1.359375 0.515625 2.0 1.390625q0.65625 0.875 0.890625 2.359375l-2.515625 0.34375q-0.171875 -1.171875 -1.0 -1.828125q-0.8125 -0.671875 -2.3125 -0.671875q-1.78125 0 -2.546875 0.59375q-0.75 0.578125 -0.75 1.375q0 0.5 0.3125 0.90625q0.3125 0.40625 0.984375 0.6875q0.390625 0.140625 2.28125 0.65625q2.734375 0.734375 3.8125 1.203125q1.078125 0.453125 1.6875 1.34375q0.625 0.890625 0.625 2.203125q0 1.296875 -0.75 2.4375q-0.75 1.125 -2.171875 1.75q-1.421875 0.625 -3.203125 0.625q-2.96875 0 -4.53125 -1.234375q-1.546875 -1.234375 -1.96875 -3.65625zm16.414062 -7.71875l0 -2.9375l2.921875 0l0 2.9375l-2.921875 0zm0 12.265625l0 -2.9375l2.921875 0l0 2.9375l-2.921875 0z" fill-rule="nonzero"/></g></svg>