<svg fill="none" stroke-linecap="square" stroke-miterlimit="10" width="666.886" height="537.639" xmlns="http://www.w3.org/2000/svg"><clipPath id="a"><path d="M0 0h1152v864H0Z"/></clipPath><g clip-path="url(#a)" transform="translate(-242.558 -97.052)"><path fill="#fff" d="M243.058 167.546h263.15v466.646h-263.15z" fill-rule="evenodd"/><path stroke="#000" stroke-linejoin="round" stroke-linecap="butt" d="M243.058 167.546h263.15v466.646h-263.15z"/><path fill="#d9d9d9" d="M243.058 208.899h263.15v243.937h-263.15z" fill-rule="evenodd"/><path stroke="#000" stroke-linejoin="round" stroke-linecap="butt" d="M243.058 208.899h263.15v243.937h-263.15z"/><path fill="#fff" d="M243.058 480.871h263.15v93.417h-263.15z" fill-rule="evenodd"/><path stroke="#000" stroke-linejoin="round" stroke-linecap="butt" d="M243.058 480.871h263.15v93.417h-263.15z"/><path fill="#000" d="M263.714 495.085h2.031v8.813q0 2.312-.531 3.672-.516 1.344-1.875 2.203-1.36.844-3.563.844-2.14 0-3.515-.735-1.36-.75-1.953-2.14-.578-1.407-.578-3.844v-8.813h2.03v8.813q0 1.984.36 2.937.375.938 1.266 1.454.906.5 2.219.5 2.218 0 3.156-1 .953-1.016.953-3.891zm5.152 15.266V499.29h1.688v1.578q1.219-1.828 3.516-1.828 1 0 1.843.359.844.36 1.25.953.422.578.594 1.375.094.516.094 1.828v6.797h-1.875v-6.734q0-1.14-.219-1.703-.219-.579-.781-.907-.547-.343-1.297-.343-1.203 0-2.078.765-.86.75-.86 2.875v6.047zm15.956-1.672.266 1.656q-.782.157-1.407.157-1.03 0-1.593-.313-.563-.328-.797-.844-.22-.53-.22-2.218v-6.375h-1.374v-1.453h1.375v-2.735l1.86-1.125v3.86h1.89v1.453h-1.89v6.468q0 .813.093 1.047.11.22.328.36.235.125.64.125.313 0 .829-.063zm1.816 1.672V499.29h1.688v1.671q.64-1.171 1.187-1.546t1.203-.375q.953 0 1.922.609l-.64 1.734q-.688-.406-1.375-.406-.61 0-1.11.375-.484.36-.687 1.016-.313 1-.313 2.187v5.797zm14.368 0v-1.625q-1.297 1.875-3.515 1.875-.97 0-1.828-.375-.844-.375-1.266-.937-.406-.579-.563-1.391-.125-.563-.125-1.75v-6.86h1.875v6.141q0 1.469.125 1.969.172.75.735 1.172.578.422 1.422.422.843 0 1.578-.438.75-.437 1.047-1.172.312-.75.312-2.172v-5.921h1.875v11.062zm3.862-3.297 1.86-.297q.156 1.11.859 1.703.718.594 2 .594 1.297 0 1.922-.515.625-.532.625-1.235 0-.64-.563-1-.375-.25-1.906-.64-2.063-.516-2.86-.891-.796-.39-1.218-1.063-.407-.671-.407-1.484 0-.734.329-1.36.343-.64.937-1.062.438-.312 1.188-.531.75-.234 1.625-.234 1.296 0 2.28.375.985.375 1.454 1.015.469.64.64 1.719l-1.828.25q-.125-.86-.734-1.328-.594-.485-1.687-.485-1.282 0-1.844.422-.547.422-.547 1 0 .36.234.657.22.296.72.5.28.109 1.655.484 1.985.531 2.766.875.797.328 1.234.984.453.641.453 1.594 0 .938-.546 1.766-.547.828-1.579 1.281-1.03.453-2.328.453-2.156 0-3.297-.89-1.125-.907-1.437-2.657zm15.508 1.625.265 1.656q-.78.157-1.406.157-1.031 0-1.594-.313-.562-.328-.796-.844-.22-.53-.22-2.218v-6.375h-1.374v-1.453h1.375v-2.735l1.86-1.125v3.86h1.89v1.453h-1.89v6.468q0 .813.093 1.047.11.22.328.36.234.125.64.125.313 0 .829-.063zm9.41-1.89 1.922.234q-.453 1.703-1.688 2.64-1.234.938-3.172.938-2.422 0-3.843-1.484-1.422-1.5-1.422-4.203 0-2.797 1.437-4.329 1.438-1.546 3.735-1.546 2.218 0 3.609 1.515 1.406 1.5 1.406 4.25v.5h-8.25q.11 1.813 1.031 2.781.922.97 2.313.97 1.031 0 1.75-.532.734-.547 1.172-1.734zm-6.156-3.032h6.171q-.125-1.39-.703-2.093-.906-1.079-2.328-1.079-1.297 0-2.172.86-.875.86-.968 2.312zm17.611 6.594v-1.39q-1.047 1.64-3.094 1.64-1.312 0-2.421-.719-1.11-.734-1.72-2.047-.609-1.312-.609-3 0-1.656.547-3 .547-1.359 1.657-2.078 1.109-.718 2.468-.718 1 0 1.782.421.78.422 1.265 1.094v-5.469h1.875v15.266zm-5.922-5.516q0 2.125.891 3.172.906 1.047 2.125 1.047 1.219 0 2.078-1 .86-1 .86-3.062 0-2.282-.876-3.344-.875-1.063-2.156-1.063-1.25 0-2.094 1.032-.828 1.015-.828 3.218zm16.522 5.516V499.29h1.688v1.671q.64-1.171 1.187-1.546t1.203-.375q.953 0 1.922.609l-.64 1.734q-.688-.406-1.376-.406-.609 0-1.109.375-.484.36-.687 1.016-.313 1-.313 2.187v5.797zm14.368 0v-1.625q-1.297 1.875-3.515 1.875-.97 0-1.829-.375-.843-.375-1.265-.937-.406-.579-.563-1.391-.125-.563-.125-1.75v-6.86h1.875v6.141q0 1.469.125 1.969.172.75.735 1.172.578.422 1.422.422.843 0 1.578-.438.75-.437 1.047-1.172.312-.75.312-2.172v-5.921h1.875v11.062zm4.612 0V499.29h1.687v1.578q1.22-1.828 3.516-1.828 1 0 1.844.359.843.36 1.25.953.422.578.593 1.375.094.516.094 1.828v6.797h-1.875v-6.734q0-1.14-.219-1.703-.218-.579-.78-.907-.548-.343-1.298-.343-1.203 0-2.078.765-.86.75-.86 2.875v6.047zm15.955-1.672.266 1.656q-.781.157-1.406.157-1.032 0-1.594-.313-.563-.328-.797-.844-.219-.53-.219-2.218v-6.375h-1.375v-1.453h1.375v-2.735l1.86-1.125v3.86h1.89v1.453h-1.89v6.468q0 .813.093 1.047.11.22.328.36.235.125.641.125.313 0 .828-.063zm1.848-11.437v-2.157h1.875v2.157zm0 13.11v-11.063h1.875v11.062zm4.723 0v-11.063h1.671v1.546q.532-.812 1.391-1.296.86-.5 1.969-.5 1.234 0 2.015.515.782.5 1.11 1.422 1.312-1.937 3.406-1.937 1.656 0 2.531.921.891.907.891 2.797v7.594h-1.86v-6.969q0-1.125-.187-1.609-.187-.5-.672-.797-.469-.312-1.11-.312-1.171 0-1.937.78-.765.766-.765 2.485v6.422h-1.875v-7.187q0-1.25-.469-1.875-.453-.625-1.5-.625-.781 0-1.453.421-.672.407-.985 1.22-.296.796-.296 2.312v5.734zm25.344-3.563 1.922.234q-.453 1.703-1.687 2.64-1.235.938-3.172.938-2.422 0-3.844-1.484-1.422-1.5-1.422-4.203 0-2.797 1.438-4.329 1.437-1.546 3.734-1.546 2.219 0 3.61 1.515 1.406 1.5 1.406 4.25v.5h-8.25q.109 1.813 1.03 2.781.923.97 2.313.97 1.032 0 1.75-.532.735-.547 1.172-1.734zm-6.156-3.032h6.172q-.125-1.39-.703-2.093-.907-1.079-2.328-1.079-1.297 0-2.172.86-.875.86-.969 2.312z"/><path fill="#ccc" d="M243.058 284.392h263.15v51.528h-263.15z" fill-rule="evenodd"/><path stroke="#000" stroke-linejoin="round" stroke-linecap="butt" d="M243.058 284.392h263.15v51.528h-263.15z"/><path fill="#000" d="m252.026 313.873 5.86-15.266h2.187l6.235 15.265h-2.297l-1.781-4.625h-6.375l-1.688 4.625zm4.407-6.266h5.172l-1.594-4.235q-.719-1.921-1.078-3.156-.297 1.469-.828 2.906zm11.257 10.5V302.81h1.703v1.438q.61-.844 1.36-1.266.765-.422 1.859-.422 1.406 0 2.484.734 1.094.72 1.64 2.047.547 1.328.547 2.922 0 1.688-.609 3.047-.594 1.36-1.766 2.094-1.156.719-2.437.719-.938 0-1.688-.391-.734-.406-1.218-1v5.375zm1.703-9.703q0 2.14.86 3.156.859 1.016 2.093 1.016 1.25 0 2.14-1.047.891-1.063.891-3.281 0-2.11-.875-3.157-.86-1.062-2.078-1.062-1.187 0-2.11 1.125-.921 1.11-.921 3.25zm10.158 9.703V302.81h1.704v1.438q.609-.844 1.359-1.266.766-.422 1.86-.422 1.406 0 2.484.734 1.093.72 1.64 2.047.547 1.328.547 2.922 0 1.688-.61 3.047-.593 1.36-1.765 2.094-1.156.719-2.437.719-.938 0-1.688-.391-.734-.406-1.219-1v5.375zm1.704-9.703q0 2.14.859 3.156.86 1.016 2.094 1.016 1.25 0 2.14-1.047.89-1.063.89-3.281 0-2.11-.874-3.157-.86-1.062-2.078-1.062-1.188 0-2.11 1.125-.921 1.11-.921 3.25zm10.111 5.469v-15.266h1.875v15.265zm4.801-13.11v-2.156h1.875v2.156zm0 13.11V302.81h1.875v11.063zm11.942-4.047 1.843.234q-.296 1.906-1.546 2.984-1.25 1.079-3.063 1.079-2.266 0-3.656-1.485-1.375-1.484-1.375-4.25 0-1.797.594-3.14.593-1.344 1.812-2.016 1.219-.672 2.64-.672 1.798 0 2.938.922 1.156.906 1.485 2.578l-1.829.281q-.265-1.11-.921-1.672-.657-.562-1.594-.562-1.422 0-2.313 1.015-.875 1.016-.875 3.204 0 2.234.844 3.25.86 1 2.234 1 1.11 0 1.844-.672.735-.672.938-2.078zm10.664 2.687q-1.047.875-2.016 1.25-.953.36-2.062.36-1.813 0-2.797-.891-.985-.89-.985-2.281 0-.813.375-1.485.375-.672.97-1.078.593-.406 1.343-.61.562-.14 1.672-.28 2.265-.266 3.344-.641.015-.39.015-.5 0-1.14-.531-1.61-.719-.64-2.14-.64-1.329 0-1.954.469-.625.468-.937 1.64l-1.829-.25q.25-1.172.813-1.89.578-.735 1.656-1.125 1.094-.391 2.516-.391t2.297.344q.89.328 1.312.828.422.5.578 1.281.094.469.094 1.719v2.5q0 2.625.125 3.312.125.688.469 1.329h-1.953q-.297-.579-.375-1.36zm-.156-4.187q-1.016.406-3.063.703-1.156.172-1.64.375-.47.203-.735.61-.266.405-.266.89 0 .75.563 1.25.578.5 1.672.5 1.078 0 1.922-.469.843-.484 1.25-1.297.297-.64.297-1.875zm8.892 3.875.266 1.656q-.781.156-1.406.156-1.031 0-1.594-.312-.562-.329-.797-.844-.219-.531-.219-2.219v-6.375h-1.375v-1.453h1.375v-2.734l1.86-1.125v3.859h1.89v1.453h-1.89v6.469q0 .812.094 1.047.109.219.328.36.234.124.64.124.313 0 .828-.062zm1.848-11.438v-2.156h1.875v2.156zm0 13.11V302.81h1.875v11.063zm4.02-5.532q0-3.078 1.718-4.547 1.422-1.234 3.47-1.234 2.28 0 3.718 1.5 1.453 1.484 1.453 4.125 0 2.14-.64 3.36-.626 1.218-1.86 1.906-1.219.671-2.672.671-2.312 0-3.75-1.484-1.437-1.5-1.437-4.297zm1.937 0q0 2.125.922 3.188.922 1.047 2.328 1.047 1.406 0 2.328-1.063.922-1.062.922-3.234 0-2.047-.937-3.11-.922-1.062-2.313-1.062-1.406 0-2.328 1.062-.922 1.047-.922 3.172zm10.627 5.531V302.81h1.688v1.578q1.219-1.828 3.516-1.828 1 0 1.843.36.844.359 1.25.952.422.579.594 1.375.094.516.094 1.829v6.796h-1.875v-6.734q0-1.14-.219-1.703-.219-.578-.781-.906-.547-.344-1.297-.344-1.203 0-2.078.766-.86.75-.86 2.875v6.046z"/><path fill="#ccc" d="M243.058 224.543h263.15v51.527h-263.15z" fill-rule="evenodd"/><path stroke="#000" stroke-linejoin="round" stroke-linecap="butt" d="M243.058 224.543h263.15v51.527h-263.15z"/><path fill="#000" d="M260.855 248.038v-1.797l6.453-.015v5.672q-1.485 1.187-3.063 1.796-1.578.594-3.25.594-2.25 0-4.094-.969-1.828-.968-2.765-2.78-.938-1.829-.938-4.079 0-2.234.922-4.156.938-1.938 2.688-2.875 1.75-.938 4.031-.938 1.656 0 2.984.547 1.344.531 2.094 1.5.766.953 1.172 2.485l-1.828.5q-.344-1.157-.86-1.829-.5-.671-1.453-1.062-.937-.406-2.093-.406-1.391 0-2.407.422-1 .421-1.625 1.109-.625.687-.968 1.516-.579 1.406-.579 3.062 0 2.047.704 3.422.703 1.375 2.046 2.047 1.344.656 2.86.656 1.312 0 2.547-.5 1.25-.516 1.906-1.078v-2.844zm9.183 5.985V242.96h1.688v1.672q.64-1.172 1.187-1.547t1.203-.375q.953 0 1.922.61l-.64 1.734q-.688-.406-1.376-.406-.609 0-1.109.375-.484.359-.687 1.015-.313 1-.313 2.188v5.797zm14.337-1.36q-1.047.875-2.016 1.25-.953.36-2.062.36-1.813 0-2.797-.891-.985-.89-.985-2.281 0-.813.375-1.485.375-.672.97-1.078.593-.406 1.343-.61.562-.14 1.672-.28 2.265-.266 3.344-.641.015-.39.015-.5 0-1.14-.531-1.61-.719-.64-2.14-.64-1.329 0-1.954.469-.625.468-.937 1.64l-1.828-.25q.25-1.172.812-1.89.578-.735 1.656-1.125 1.094-.39 2.516-.39t2.297.343q.89.328 1.312.828.422.5.578 1.281.094.469.094 1.719v2.5q0 2.625.125 3.312.125.688.469 1.329h-1.953q-.297-.579-.375-1.36zm-.156-4.187q-1.016.406-3.063.703-1.156.172-1.64.375-.47.203-.735.61-.266.405-.266.89 0 .75.563 1.25.578.5 1.672.5 1.078 0 1.922-.469.843-.484 1.25-1.297.297-.64.297-1.875zm4.799 5.547V242.96h1.672v1.547q.53-.813 1.39-1.297.86-.5 1.97-.5 1.233 0 2.015.516.78.5 1.11 1.422 1.312-1.938 3.405-1.938 1.657 0 2.532.922.89.906.89 2.797v7.594h-1.86v-6.97q0-1.124-.187-1.609-.187-.5-.672-.796-.468-.313-1.109-.313-1.172 0-1.937.781-.766.766-.766 2.485v6.422h-1.875v-7.188q0-1.25-.469-1.875-.453-.625-1.5-.625-.781 0-1.453.422-.672.406-.984 1.219-.297.797-.297 2.312v5.735zm17.782-13.11v-2.156h1.875v2.156zm0 13.11V242.96h1.875v11.063zm4.723 0V242.96h1.687v1.578q1.219-1.828 3.516-1.828 1 0 1.844.36.843.359 1.25.953.421.578.593 1.375.094.515.094 1.828v6.797h-1.875v-6.735q0-1.14-.219-1.703-.218-.578-.78-.906-.548-.344-1.298-.344-1.203 0-2.078.766-.86.75-.86 2.875v6.047zm19.44-3.563 1.921.234q-.453 1.704-1.687 2.641-1.234.938-3.172.938-2.422 0-3.844-1.485-1.422-1.5-1.422-4.203 0-2.797 1.438-4.328 1.437-1.547 3.734-1.547 2.22 0 3.61 1.516 1.406 1.5 1.406 4.25v.5h-8.25q.11 1.812 1.031 2.78.922.97 2.313.97 1.03 0 1.75-.532.734-.546 1.172-1.734zm-6.157-3.031h6.172q-.125-1.39-.703-2.094-.906-1.078-2.328-1.078-1.297 0-2.172.86-.875.859-.969 2.312z"/><path fill="#ccc" d="M243.058 344.242h263.15v51.528h-263.15z" fill-rule="evenodd"/><path stroke="#000" stroke-linejoin="round" stroke-linecap="butt" d="M243.058 344.242h263.15v51.528h-263.15z"/><path fill="#000" d="m253.12 374.644 1.828.266q.11.844.625 1.234.703.516 1.907.516 1.312 0 2.015-.531.703-.516.953-1.453.157-.563.141-2.407-1.234 1.453-3.063 1.453-2.28 0-3.53-1.64-1.25-1.656-1.25-3.953 0-1.578.562-2.922.578-1.344 1.672-2.063 1.093-.734 2.562-.734 1.953 0 3.219 1.578v-1.328h1.734v9.562q0 2.579-.531 3.657-.516 1.078-1.656 1.703t-2.813.625q-1.984 0-3.203-.89-1.219-.891-1.172-2.673zm1.547-6.656q0 2.188.86 3.188.874 1 2.171 1 1.297 0 2.172-1 .875-1 .875-3.125 0-2.032-.906-3.063-.89-1.031-2.172-1.031-1.25 0-2.125 1.015-.875 1.016-.875 3.016zm10.612 5.734v-15.265h1.875v15.265zm4.8-13.109v-2.156h1.876v2.156zm0 13.11V362.66h1.876v11.062zm6.458 0h-1.75v-15.266h1.875v5.437q1.187-1.484 3.031-1.484 1.031 0 1.938.422.906.406 1.5 1.156.593.734.922 1.797.328 1.047.328 2.234 0 2.844-1.407 4.407-1.406 1.546-3.375 1.546-1.953 0-3.062-1.64zm-.031-5.61q0 1.984.547 2.875.89 1.438 2.39 1.438 1.235 0 2.125-1.063.906-1.062.906-3.187 0-2.157-.859-3.188-.86-1.031-2.078-1.031-1.234 0-2.14 1.062-.891 1.063-.891 3.094zm17.377 1.563 1.844.234q-.297 1.906-1.547 2.984t-3.063 1.078q-2.265 0-3.656-1.484-1.375-1.484-1.375-4.25 0-1.797.594-3.14.594-1.344 1.812-2.016 1.22-.672 2.641-.672 1.797 0 2.938.922 1.156.906 1.484 2.578l-1.828.281q-.266-1.11-.922-1.672-.656-.562-1.594-.562-1.422 0-2.312 1.015-.875 1.016-.875 3.204 0 2.234.843 3.25.86 1 2.235 1 1.11 0 1.844-.672t.937-2.078zm3.977 4.046v-2.14H300v2.14zm4.644-3.296 1.86-.297q.156 1.11.859 1.703.719.594 2 .594 1.297 0 1.922-.516.625-.531.625-1.234 0-.641-.563-1-.375-.25-1.906-.641-2.063-.516-2.86-.89-.796-.391-1.218-1.063-.406-.672-.406-1.485 0-.734.328-1.359.343-.64.937-1.062.438-.313 1.188-.532.75-.234 1.625-.234 1.297 0 2.28.375.985.375 1.454 1.016.469.64.64 1.718l-1.827.25q-.125-.86-.735-1.328-.594-.484-1.687-.484-1.282 0-1.844.422-.547.422-.547 1 0 .36.234.656.22.297.72.5.28.11 1.655.484 1.985.532 2.766.875.797.328 1.234.985.454.64.454 1.593 0 .938-.547 1.766-.547.828-1.578 1.281-1.032.453-2.329.453-2.156 0-3.296-.89-1.125-.906-1.438-2.656zm10.711-2.235q0-3.078 1.719-4.547 1.422-1.234 3.468-1.234 2.282 0 3.72 1.5 1.452 1.484 1.452 4.125 0 2.14-.64 3.36-.625 1.218-1.86 1.906-1.218.671-2.672.671-2.312 0-3.75-1.484-1.437-1.5-1.437-4.297zm1.937 0q0 2.125.922 3.188.922 1.047 2.328 1.047 1.407 0 2.329-1.063.921-1.062.921-3.234 0-2.047-.937-3.11-.922-1.062-2.313-1.062-1.406 0-2.328 1.062-.922 1.047-.922 3.172z"/><path fill="none" d="M243.058 397.988h158.74v45.26h-158.74Z"/><path fill="#000" d="M253.995 427.468v-2.14h2.14v2.14zm5.926 0v-2.14h2.14v2.14zm5.926 0v-2.14h2.14v2.14z"/><path fill="#fff" d="M645.793 167.546h263.15v466.646h-263.15z" fill-rule="evenodd"/><path stroke="#000" stroke-linejoin="round" stroke-linecap="butt" d="M645.793 167.546h263.15v466.646h-263.15z"/><path fill="#d9d9d9" d="M645.794 208.899h263.15v243.937h-263.15Z" fill-rule="evenodd"/><path stroke="#000" stroke-linejoin="round" stroke-linecap="butt" d="M645.794 208.899h263.15v243.937h-263.15Z"/><path fill="#fff" d="M645.794 480.871h263.15v93.417h-263.15Z" fill-rule="evenodd"/><path stroke="#000" stroke-linejoin="round" stroke-linecap="butt" d="M645.794 480.871h263.15v93.417h-263.15Z"/><path fill="#000" d="M666.45 495.085h2.031v8.813q0 2.312-.531 3.672-.516 1.344-1.875 2.203-1.36.844-3.563.844-2.14 0-3.515-.735-1.36-.75-1.953-2.14-.578-1.407-.578-3.844v-8.813h2.03v8.813q0 1.984.36 2.937.375.938 1.266 1.454.906.5 2.219.5 2.218 0 3.156-1 .953-1.016.953-3.891zm5.152 15.266V499.29h1.688v1.578q1.219-1.828 3.516-1.828 1 0 1.843.359.844.36 1.25.953.422.578.594 1.375.094.516.094 1.828v6.797h-1.875v-6.734q0-1.14-.219-1.703-.219-.579-.781-.907-.547-.343-1.297-.343-1.203 0-2.078.765-.86.75-.86 2.875v6.047zm15.956-1.672.265 1.656q-.78.157-1.406.157-1.031 0-1.594-.313-.562-.328-.796-.844-.22-.53-.22-2.218v-6.375h-1.374v-1.453h1.375v-2.735l1.86-1.125v3.86h1.89v1.453h-1.89v6.468q0 .813.093 1.047.11.22.328.36.234.125.64.125.313 0 .829-.063zm1.816 1.672V499.29h1.688v1.671q.64-1.171 1.187-1.546t1.203-.375q.953 0 1.922.609l-.64 1.734q-.688-.406-1.375-.406-.61 0-1.11.375-.484.36-.687 1.016-.313 1-.313 2.187v5.797zm14.368 0v-1.625q-1.297 1.875-3.515 1.875-.97 0-1.829-.375-.843-.375-1.265-.937-.406-.579-.563-1.391-.125-.563-.125-1.75v-6.86h1.875v6.141q0 1.469.125 1.969.172.75.735 1.172.578.422 1.422.422.843 0 1.578-.438.75-.437 1.047-1.172.312-.75.312-2.172v-5.921h1.875v11.062zm3.862-3.297 1.86-.297q.156 1.11.859 1.703.718.594 2 .594 1.297 0 1.922-.515.625-.532.625-1.235 0-.64-.563-1-.375-.25-1.906-.64-2.063-.516-2.86-.891-.796-.39-1.218-1.063-.407-.671-.407-1.484 0-.734.329-1.36.343-.64.937-1.062.438-.312 1.188-.531.75-.234 1.625-.234 1.296 0 2.28.375.985.375 1.454 1.015.469.64.64 1.719l-1.828.25q-.125-.86-.734-1.328-.594-.485-1.687-.485-1.282 0-1.844.422-.547.422-.547 1 0 .36.234.657.219.296.719.5.281.109 1.656.484 1.985.531 2.766.875.797.328 1.234.984.453.641.453 1.594 0 .938-.546 1.766-.547.828-1.579 1.281-1.03.453-2.328.453-2.156 0-3.297-.89-1.125-.907-1.437-2.657zm15.508 1.625.265 1.656q-.78.157-1.406.157-1.031 0-1.594-.313-.562-.328-.797-.844-.218-.53-.218-2.218v-6.375h-1.375v-1.453h1.375v-2.735l1.86-1.125v3.86h1.89v1.453h-1.89v6.468q0 .813.093 1.047.11.22.328.36.234.125.64.125.313 0 .829-.063zm9.41-1.89 1.922.234q-.454 1.703-1.688 2.64-1.234.938-3.172.938-2.422 0-3.844-1.484-1.421-1.5-1.421-4.203 0-2.797 1.437-4.329 1.438-1.546 3.734-1.546 2.22 0 3.61 1.515 1.406 1.5 1.406 4.25v.5h-8.25q.11 1.813 1.031 2.781.922.97 2.313.97 1.031 0 1.75-.532.734-.547 1.172-1.734zm-6.157-3.032h6.172q-.125-1.39-.703-2.093-.906-1.079-2.328-1.079-1.297 0-2.172.86-.875.86-.969 2.312zm17.612 6.594v-1.39q-1.047 1.64-3.094 1.64-1.312 0-2.421-.719-1.11-.734-1.72-2.047-.609-1.312-.609-3 0-1.656.547-3 .547-1.359 1.657-2.078 1.109-.718 2.468-.718 1 0 1.782.421.78.422 1.265 1.094v-5.469h1.875v15.266zm-5.922-5.516q0 2.125.89 3.172.907 1.047 2.126 1.047 1.219 0 2.078-1 .86-1 .86-3.062 0-2.282-.876-3.344-.875-1.063-2.156-1.063-1.25 0-2.094 1.032-.828 1.015-.828 3.218zm16.522 5.516V499.29h1.687v1.671q.641-1.171 1.188-1.546.547-.375 1.203-.375.953 0 1.922.609l-.64 1.734q-.688-.406-1.376-.406-.609 0-1.109.375-.484.36-.688 1.016-.312 1-.312 2.187v5.797zm14.368 0v-1.625q-1.297 1.875-3.516 1.875-.968 0-1.828-.375-.843-.375-1.265-.937-.407-.579-.563-1.391-.125-.563-.125-1.75v-6.86h1.875v6.141q0 1.469.125 1.969.172.75.735 1.172.578.422 1.421.422.844 0 1.579-.438.75-.437 1.046-1.172.313-.75.313-2.172v-5.921h1.875v11.062zm4.612 0V499.29h1.687v1.578q1.219-1.828 3.516-1.828 1 0 1.844.359.843.36 1.25.953.422.578.593 1.375.094.516.094 1.828v6.797h-1.875v-6.734q0-1.14-.219-1.703-.218-.579-.78-.907-.548-.343-1.298-.343-1.203 0-2.078.765-.86.75-.86 2.875v6.047zm15.955-1.672.266 1.656q-.781.157-1.406.157-1.032 0-1.594-.313-.563-.328-.797-.844-.219-.53-.219-2.218v-6.375h-1.375v-1.453h1.375v-2.735l1.86-1.125v3.86h1.89v1.453h-1.89v6.468q0 .813.093 1.047.11.22.328.36.235.125.641.125.313 0 .828-.063zm1.848-11.437v-2.157h1.875v2.157zm0 13.11v-11.063h1.875v11.062zm4.723 0v-11.063h1.671v1.546q.532-.812 1.391-1.296.86-.5 1.969-.5 1.234 0 2.015.515.782.5 1.11 1.422 1.312-1.937 3.406-1.937 1.656 0 2.531.921.89.907.89 2.797v7.594h-1.858v-6.969q0-1.125-.188-1.609-.187-.5-.672-.797-.469-.312-1.11-.312-1.171 0-1.937.78-.765.766-.765 2.485v6.422h-1.875v-7.187q0-1.25-.47-1.875-.452-.625-1.5-.625-.78 0-1.452.421-.672.407-.985 1.22-.296.796-.296 2.312v5.734zm25.344-3.563 1.922.234q-.453 1.703-1.687 2.64-1.235.938-3.172.938-2.422 0-3.844-1.484-1.422-1.5-1.422-4.203 0-2.797 1.438-4.329 1.437-1.546 3.734-1.546 2.219 0 3.61 1.515 1.406 1.5 1.406 4.25v.5h-8.25q.109 1.813 1.03 2.781.923.97 2.313.97 1.032 0 1.75-.532.735-.547 1.172-1.734zm-6.156-3.032h6.172q-.125-1.39-.703-2.093-.907-1.079-2.328-1.079-1.297 0-2.172.86-.875.86-.97 2.312z"/><path fill="none" d="M645.794 224.544h158.74v45.26h-158.74Z"/><path fill="#000" d="M659.778 258.508q-1.547-1.953-2.625-4.578-1.063-2.625-1.063-5.438 0-2.484.797-4.75.938-2.625 2.891-5.25h1.344q-1.25 2.172-1.656 3.094-.641 1.438-1 3-.454 1.953-.454 3.922 0 5 3.11 10zm3.509-4.484V242.96h1.687v1.672q.64-1.172 1.188-1.547.547-.375 1.203-.375.953 0 1.922.61l-.64 1.734q-.688-.406-1.376-.406-.61 0-1.11.375-.484.359-.687 1.015-.312 1-.312 2.188v5.797zm14.337-1.36q-1.047.875-2.016 1.25-.953.36-2.063.36-1.812 0-2.796-.891-.985-.89-.985-2.281 0-.813.375-1.485.375-.671.969-1.078.594-.406 1.344-.61.562-.14 1.672-.28 2.265-.266 3.343-.641.016-.39.016-.5 0-1.14-.531-1.61-.72-.64-2.141-.64-1.328 0-1.953.469t-.938 1.64l-1.828-.25q.25-1.171.813-1.89.578-.735 1.656-1.125 1.094-.39 2.516-.39 1.421 0 2.296.343.891.328 1.313.828.422.5.578 1.281.094.469.094 1.719v2.5q0 2.625.125 3.313.125.687.469 1.328h-1.954q-.296-.578-.375-1.36zm-.157-4.187q-1.015.406-3.062.703-1.156.172-1.64.375-.47.203-.735.61-.266.406-.266.89 0 .75.563 1.25.578.5 1.672.5 1.078 0 1.921-.469.844-.484 1.25-1.297.297-.64.297-1.875zm6.846 5.547-3.39-11.063h1.937l1.766 6.39.656 2.376q.031-.188.563-2.281l1.765-6.485h1.922l1.656 6.422.547 2.11.64-2.141 1.891-6.39h1.829l-3.454 11.062h-1.953l-1.75-6.625-.437-1.891-2.235 8.516zm26.453 0v-1.391q-1.046 1.64-3.093 1.64-1.313 0-2.422-.718-1.11-.734-1.719-2.047-.61-1.312-.61-3 0-1.656.548-3 .546-1.36 1.656-2.078 1.11-.719 2.469-.719 1 0 1.78.422.782.422 1.266 1.094v-5.469h1.875v15.266zm-5.921-5.516q0 2.125.89 3.172.906 1.047 2.125 1.047 1.219 0 2.078-1 .86-1 .86-3.063 0-2.281-.875-3.343-.875-1.063-2.157-1.063-1.25 0-2.093 1.031-.828 1.016-.828 3.219zm17.83 4.156q-1.047.875-2.016 1.25-.953.36-2.062.36-1.813 0-2.797-.891-.984-.89-.984-2.281 0-.813.375-1.485.375-.671.968-1.078.594-.406 1.344-.61.563-.14 1.672-.28 2.266-.266 3.344-.641.015-.39.015-.5 0-1.14-.53-1.61-.72-.64-2.142-.64-1.328 0-1.953.469t-.937 1.64l-1.828-.25q.25-1.171.812-1.89.578-.735 1.656-1.125 1.094-.39 2.516-.39t2.297.343q.89.328 1.313.828.421.5.578 1.281.093.469.093 1.719v2.5q0 2.625.125 3.313.125.687.47 1.328h-1.954q-.297-.578-.375-1.36zm-.156-4.187q-1.016.406-3.063.703-1.156.172-1.64.375-.47.203-.735.61-.265.406-.265.89 0 .75.562 1.25.578.5 1.672.5 1.078 0 1.922-.469.844-.484 1.25-1.297.297-.64.297-1.875zm8.893 3.875.265 1.656q-.78.156-1.406.156-1.031 0-1.594-.312-.562-.328-.797-.844-.218-.531-.218-2.219v-6.375h-1.375v-1.453h1.375v-2.734l1.86-1.125v3.86h1.89v1.452h-1.89v6.469q0 .813.093 1.047.11.219.328.36.234.124.64.124.313 0 .829-.062zm9.05.312q-1.046.875-2.015 1.25-.953.36-2.063.36-1.812 0-2.797-.891-.984-.89-.984-2.281 0-.813.375-1.485.375-.671.969-1.078.594-.406 1.344-.61.562-.14 1.671-.28 2.266-.266 3.344-.641.016-.39.016-.5 0-1.14-.532-1.61-.718-.64-2.14-.64-1.328 0-1.953.469t-.938 1.64l-1.828-.25q.25-1.171.813-1.89.578-.735 1.656-1.125 1.094-.39 2.515-.39 1.422 0 2.297.343.891.328 1.313.828.422.5.578 1.281.094.469.094 1.719v2.5q0 2.625.125 3.313.125.687.468 1.328h-1.953q-.297-.578-.375-1.36zm-.156-4.187q-1.015.406-3.062.703-1.157.172-1.641.375-.469.203-.734.61-.266.406-.266.89 0 .75.563 1.25.578.5 1.671.5 1.079 0 1.922-.469.844-.484 1.25-1.297.297-.64.297-1.875zm6.034 10.031h-1.344q3.11-5 3.11-10 0-1.969-.454-3.89-.344-1.563-.984-3-.406-.938-1.672-3.126h1.344q1.953 2.625 2.89 5.25.797 2.266.797 4.75 0 2.813-1.078 5.438-1.078 2.625-2.61 4.578z"/><path fill="none" d="M243.058 97.052h263.15v54.93h-263.15z"/><path fill="#000" d="M254.37 134.213v-21h9.297q2.813 0 4.266.578 1.468.562 2.343 2 .875 1.422.875 3.156 0 2.234-1.453 3.766-1.437 1.53-4.468 1.953 1.109.53 1.671 1.047 1.22 1.109 2.313 2.78l3.656 5.72h-3.5l-2.781-4.375q-1.219-1.891-2-2.891-.781-1-1.406-1.39-.625-.407-1.266-.563-.484-.11-1.547-.11h-3.234v9.329zm2.766-11.735h5.984q1.89 0 2.969-.39 1.078-.391 1.625-1.25.562-.875.562-1.891 0-1.484-1.078-2.438-1.078-.968-3.406-.968h-6.656zm28.445 6.844 2.657.328q-.625 2.328-2.329 3.625-1.703 1.281-4.359 1.281-3.328 0-5.281-2.047-1.953-2.062-1.953-5.765 0-3.844 1.968-5.953 1.985-2.125 5.125-2.125 3.063 0 4.985 2.078 1.937 2.062 1.937 5.844 0 .218-.015.671h-11.344q.14 2.516 1.422 3.844 1.281 1.328 3.172 1.328 1.422 0 2.422-.734 1-.75 1.593-2.375zm-8.468-4.172h8.5q-.172-1.922-.97-2.875-1.234-1.5-3.202-1.5-1.766 0-2.985 1.188-1.203 1.187-1.343 3.187zm24.295 7.188q-1.438 1.218-2.766 1.718-1.312.5-2.828.5-2.516 0-3.86-1.219-1.343-1.234-1.343-3.14 0-1.11.5-2.031.516-.922 1.328-1.485.828-.562 1.86-.843.765-.204 2.296-.391 3.125-.375 4.594-.89.016-.532.016-.673 0-1.578-.735-2.218-.984-.875-2.937-.875-1.813 0-2.688.64-.859.64-1.265 2.25l-2.532-.343q.344-1.61 1.125-2.61.797-1 2.282-1.531 1.5-.531 3.453-.531 1.953 0 3.172.453 1.218.453 1.781 1.156.578.688.812 1.75.125.656.125 2.375v3.438q0 3.593.157 4.546.172.954.656 1.829h-2.688q-.406-.797-.515-1.875zm-.219-5.75q-1.406.562-4.203.968-1.594.219-2.25.516-.656.281-1.016.844-.359.547-.359 1.218 0 1.032.781 1.72.781.687 2.281.687 1.485 0 2.641-.657 1.172-.656 1.719-1.78.406-.876.406-2.579zm6.545 7.625v-21h2.579v21zm6.594-18.032v-2.968h2.578v2.968zm0 18.032v-15.204h2.578v15.204zm12.125-2.313.375 2.281q-1.093.235-1.953.235-1.406 0-2.187-.438-.766-.453-1.078-1.172-.313-.734-.313-3.047v-8.75h-1.89v-2h1.89v-3.765l2.563-1.547v5.312h2.593v2h-2.593v8.891q0 1.11.125 1.422.14.312.453.5.312.187.89.187.422 0 1.125-.109zm2.399 8.172-.281-2.422q.843.234 1.468.234.86 0 1.375-.296.516-.282.86-.797.234-.391.78-1.922.079-.219.235-.625l-5.781-15.235h2.781l3.172 8.797q.61 1.688 1.094 3.532.453-1.782 1.062-3.47l3.25-8.859h2.579l-5.782 15.454q-.937 2.515-1.453 3.453-.687 1.28-1.578 1.875-.875.593-2.11.593-.75 0-1.671-.312zm15.508-18.125v-2.938h2.921v2.938zm0 12.266v-2.938h2.921v2.938z"/><path fill="none" d="M645.794 97.052h263.15v54.93h-263.15Z"/><path fill="#000" d="m660.716 134.213-5.563-21h2.844l3.203 13.765q.515 2.172.89 4.297.797-3.36.938-3.875l4-14.188h3.344l3.015 10.626q1.125 3.953 1.625 7.437.407-1.984 1.047-4.563l3.297-13.5h2.797l-5.766 21h-2.671l-4.422-16q-.563-2-.672-2.453-.328 1.438-.61 2.454l-4.453 16zm23.696 0v-21h2.579v7.53q1.796-2.077 4.546-2.077 1.688 0 2.938.672 1.25.656 1.781 1.828.547 1.172.547 3.406v9.64h-2.578v-9.64q0-1.938-.844-2.813-.844-.875-2.375-.875-1.14 0-2.156.594-1 .594-1.438 1.61-.421 1.015-.421 2.812v8.313zm26.233-1.875q-1.437 1.218-2.765 1.718-1.313.5-2.828.5-2.516 0-3.86-1.219-1.344-1.234-1.344-3.14 0-1.11.5-2.031.516-.922 1.329-1.485.828-.562 1.859-.843.766-.204 2.297-.391 3.125-.375 4.594-.89.015-.532.015-.673 0-1.578-.734-2.218-.985-.875-2.938-.875-1.812 0-2.687.64-.86.64-1.266 2.25l-2.531-.343q.344-1.61 1.125-2.61.797-1 2.281-1.531 1.5-.531 3.453-.531 1.953 0 3.172.453t1.781 1.156q.578.688.813 1.75.125.656.125 2.375v3.438q0 3.593.156 4.546.172.954.656 1.829h-2.687q-.406-.797-.516-1.875zm-.218-5.75q-1.407.562-4.204.968-1.593.219-2.25.516-.656.281-1.015.844-.36.547-.36 1.218 0 1.032.782 1.72.78.687 2.28.687 1.485 0 2.642-.657 1.171-.656 1.718-1.78.407-.876.407-2.579zm12.232 5.312.375 2.281q-1.093.235-1.953.235-1.406 0-2.187-.438-.766-.453-1.078-1.172-.313-.734-.313-3.047v-8.75h-1.89v-2h1.89v-3.765l2.563-1.547v5.312h2.593v2h-2.593v8.891q0 1.11.125 1.422.14.312.453.5.312.187.89.187.422 0 1.125-.109zm20.828-5.922v-2.469l8.89-.015v7.797q-2.046 1.64-4.234 2.468-2.172.813-4.468.813-3.094 0-5.625-1.328-2.516-1.328-3.813-3.828-1.281-2.5-1.281-5.594 0-3.078 1.281-5.734 1.281-2.657 3.688-3.938 2.406-1.297 5.546-1.297 2.266 0 4.11.75 1.844.735 2.89 2.063 1.047 1.312 1.594 3.422l-2.515.687q-.47-1.594-1.172-2.516-.703-.921-2.016-1.468-1.297-.547-2.875-.547-1.906 0-3.297.578-1.39.578-2.25 1.531-.844.938-1.312 2.063-.813 1.953-.813 4.234 0 2.797.969 4.688.969 1.89 2.812 2.812 1.844.922 3.922.922 1.813 0 3.532-.688 1.718-.703 2.609-1.5v-3.906zm12.984 8.235v-21h7.235q2.437 0 3.734.312 1.797.406 3.078 1.5 1.656 1.406 2.485 3.594.828 2.172.828 4.984 0 2.39-.563 4.235-.562 1.843-1.437 3.062-.875 1.203-1.922 1.906-1.031.688-2.5 1.047-1.453.36-3.36.36zm2.782-2.485h4.468q2.078 0 3.266-.375 1.187-.39 1.89-1.094.985-.984 1.532-2.656.547-1.672.547-4.047 0-3.297-1.078-5.062-1.079-1.766-2.625-2.375-1.125-.422-3.594-.422h-4.406zm18.273 2.485v-21h7.89q2.407 0 3.86.64 1.453.64 2.266 1.969.828 1.328.828 2.766 0 1.343-.734 2.53-.735 1.188-2.204 1.923 1.907.562 2.922 1.906 1.032 1.344 1.032 3.172 0 1.484-.625 2.75-.625 1.265-1.547 1.953-.907.687-2.297 1.047-1.375.344-3.375.344zm2.781-12.172h4.547q1.844 0 2.64-.25 1.063-.313 1.595-1.032.547-.734.547-1.843 0-1.047-.5-1.828-.5-.797-1.438-1.094-.922-.297-3.187-.297h-4.204zm0 9.687h5.235q1.344 0 1.89-.094.954-.171 1.594-.562.656-.406 1.063-1.172.422-.766.422-1.781 0-1.172-.61-2.031-.594-.875-1.672-1.22-1.062-.343-3.062-.343h-4.86zm23.695-2.062 2.547-.391q.218 1.531 1.187 2.344.985.812 2.75.812 1.781 0 2.64-.719.86-.718.86-1.703 0-.859-.765-1.375-.532-.343-2.641-.859-2.828-.719-3.922-1.234-1.094-.532-1.672-1.453-.562-.922-.562-2.047 0-1.016.468-1.875.47-.875 1.266-1.453.61-.438 1.64-.735 1.048-.312 2.235-.312 1.781 0 3.125.515 1.36.516 2 1.39.656.876.89 2.36l-2.515.344q-.172-1.172-1-1.828-.813-.672-2.313-.672-1.78 0-2.546.594-.75.578-.75 1.375 0 .5.312.906.313.406.985.688.39.14 2.28.656 2.735.734 3.813 1.203 1.078.453 1.688 1.344.625.89.625 2.203 0 1.297-.75 2.437-.75 1.125-2.172 1.75-1.422.625-3.203.625-2.969 0-4.531-1.234-1.547-1.234-1.97-3.656zm26.101-.344 2.657.328q-.625 2.328-2.329 3.625-1.703 1.281-4.359 1.281-3.328 0-5.281-2.047-1.953-2.062-1.953-5.765 0-3.844 1.968-5.953 1.985-2.125 5.125-2.125 3.063 0 4.985 2.078 1.937 2.062 1.937 5.844 0 .218-.015.671h-11.344q.14 2.516 1.422 3.844 1.281 1.328 3.172 1.328 1.422 0 2.422-.734 1-.75 1.593-2.375zm-8.468-4.172h8.5q-.172-1.922-.97-2.875-1.234-1.5-3.202-1.5-1.766 0-2.985 1.188-1.203 1.187-1.343 3.187zm24.78 4.172 2.655.328q-.625 2.328-2.328 3.625-1.703 1.281-4.359 1.281-3.328 0-5.281-2.047-1.953-2.062-1.953-5.765 0-3.844 1.968-5.953 1.985-2.125 5.125-2.125 3.063 0 4.985 2.078 1.937 2.062 1.937 5.844 0 .218-.015.671h-11.344q.14 2.516 1.422 3.844 1.281 1.328 3.172 1.328 1.422 0 2.422-.734 1-.75 1.593-2.375zm-8.47-4.172h8.5q-.171-1.922-.968-2.875-1.235-1.5-3.203-1.5-1.766 0-2.985 1.188-1.203 1.187-1.344 3.187zm13.343 4.516 2.547-.391q.218 1.531 1.187 2.344.984.812 2.75.812 1.781 0 2.64-.719.86-.718.86-1.703 0-.859-.766-1.375-.53-.343-2.64-.859-2.828-.719-3.922-1.234-1.094-.532-1.672-1.453-.562-.922-.562-2.047 0-1.016.468-1.875.469-.875 1.266-1.453.61-.438 1.64-.735 1.047-.312 2.235-.312 1.781 0 3.125.515 1.36.516 2 1.39.656.876.89 2.36l-2.515.344q-.172-1.172-1-1.828-.813-.672-2.313-.672-1.78 0-2.546.594-.75.578-.75 1.375 0 .5.312.906.313.406.984.688.391.14 2.282.656 2.734.734 3.812 1.203 1.078.453 1.688 1.344.625.89.625 2.203 0 1.297-.75 2.437-.75 1.125-2.172 1.75-1.422.625-3.203.625-2.97 0-4.532-1.234-1.546-1.234-1.968-3.656zm16.414-7.72v-2.937h2.922v2.938zm0 12.267v-2.938h2.922v2.938z"/></g></svg>