<svg fill="none" stroke-linecap="square" stroke-miterlimit="10" width="465.26" height="478.187" xmlns="http://www.w3.org/2000/svg"><clipPath id="a"><path d="M0 0h1152v864H0Z"/></clipPath><g clip-path="url(#a)" transform="translate(-343.37 -192.907)"><path fill="#ccc" d="M404.485 193.407h343.023v287.716H404.485Z" fill-rule="evenodd"/><path stroke="#000" stroke-linejoin="round" stroke-linecap="butt" stroke-dasharray="1, 3" d="M404.485 193.407h343.023v287.716H404.485Z"/><path fill="#000" d="M415.172 222.887V207.62h11.032v1.797h-9.016v4.672h8.453v1.797h-8.453v5.203h9.375v1.797zm13.945 0v-11.063h1.687v1.578q1.219-1.828 3.516-1.828 1 0 1.844.36.843.36 1.25.953.421.578.593 1.375.094.515.094 1.828v6.797h-1.875v-6.735q0-1.14-.219-1.703-.218-.578-.78-.906-.548-.344-1.298-.344-1.203 0-2.078.766-.86.75-.86 2.875v6.047zm19.08-4.047 1.844.234q-.297 1.907-1.547 2.985-1.25 1.078-3.062 1.078-2.266 0-3.657-1.485-1.375-1.484-1.375-4.25 0-1.796.594-3.14t1.813-2.016q1.218-.672 2.64-.672 1.797 0 2.938.922 1.156.906 1.484 2.578l-1.828.282q-.266-1.11-.922-1.672-.656-.563-1.594-.563-1.422 0-2.312 1.016-.875 1.015-.875 3.203 0 2.234.844 3.25.859 1 2.234 1 1.11 0 1.844-.672t.937-2.078zm3.399 4.047V207.62h1.875v15.266zm12.004-1.36q-1.047.875-2.016 1.25-.953.36-2.062.36-1.813 0-2.797-.89-.985-.891-.985-2.282 0-.813.375-1.484.375-.672.969-1.079.594-.406 1.344-.609.562-.14 1.672-.281 2.265-.266 3.343-.64.016-.391.016-.5 0-1.141-.531-1.61-.719-.64-2.14-.64-1.329 0-1.954.468-.625.469-.937 1.64l-1.829-.25q.25-1.171.813-1.89.578-.734 1.656-1.125 1.094-.39 2.516-.39t2.297.343q.89.328 1.312.828.422.5.578 1.281.094.47.094 1.72v2.5q0 2.624.125 3.312.125.687.469 1.328h-1.953q-.297-.578-.375-1.36zm-.157-4.187q-1.015.406-3.062.703-1.156.172-1.64.375-.47.203-.735.61-.266.406-.266.89 0 .75.563 1.25.578.5 1.672.5 1.078 0 1.922-.469.843-.484 1.25-1.297.296-.64.296-1.875zm7.878 5.547-4.219-11.063h1.984l2.375 6.625q.391 1.078.703 2.235.25-.875.704-2.11l2.453-6.75h1.937l-4.187 11.063zm15.164-3.563 1.922.235q-.453 1.703-1.688 2.64-1.234.938-3.172.938-2.422 0-3.843-1.485-1.422-1.5-1.422-4.203 0-2.797 1.437-4.328 1.438-1.547 3.735-1.547 2.218 0 3.609 1.516 1.406 1.5 1.406 4.25v.5h-8.25q.11 1.812 1.031 2.781.922.969 2.313.969 1.031 0 1.75-.531.734-.547 1.172-1.735zm-6.156-3.03h6.171q-.125-1.392-.703-2.095-.906-1.078-2.328-1.078-1.297 0-2.172.86-.875.859-.968 2.312z"/><path fill="#ccc" d="M451.676 262.62H689.66v50.898H451.676Z" fill-rule="evenodd"/><path stroke="#000" stroke-linejoin="round" stroke-linecap="butt" d="M451.676 262.62H689.66v50.898H451.676Z"/><path fill="#000" d="m518.467 295.549 5.86-15.266h2.187l6.234 15.266h-2.296l-1.782-4.625h-6.375l-1.687 4.625zm4.406-6.266h5.172l-1.593-4.234q-.72-1.922-1.079-3.157-.296 1.47-.828 2.907zm11.257 10.5v-15.297h1.704v1.438q.609-.844 1.359-1.266.766-.422 1.86-.422 1.406 0 2.484.735 1.093.718 1.64 2.046.547 1.329.547 2.922 0 1.688-.61 3.047-.593 1.36-1.765 2.094-1.156.719-2.437.719-.938 0-1.688-.39-.734-.407-1.219-1v5.374zm1.704-9.703q0 2.14.859 3.156.86 1.016 2.094 1.016 1.25 0 2.14-1.047.89-1.063.89-3.281 0-2.11-.874-3.157-.86-1.062-2.078-1.062-1.188 0-2.11 1.125-.921 1.11-.921 3.25zm10.158 9.703v-15.297h1.703v1.438q.61-.844 1.36-1.266.765-.422 1.859-.422 1.406 0 2.484.735 1.094.718 1.641 2.046.547 1.329.547 2.922 0 1.688-.61 3.047-.593 1.36-1.765 2.094-1.156.719-2.438.719-.937 0-1.687-.39-.735-.407-1.219-1v5.374zm1.703-9.703q0 2.14.86 3.156.859 1.016 2.093 1.016 1.25 0 2.141-1.047.89-1.063.89-3.281 0-2.11-.874-3.157-.86-1.062-2.079-1.062-1.187 0-2.109 1.125-.922 1.11-.922 3.25zm10.112 5.469v-15.266h1.875v15.266zm4.8-13.11v-2.156h1.876v2.156zm0 13.11v-11.063h1.876v11.063zm11.942-4.047 1.844.234q-.297 1.906-1.547 2.985-1.25 1.078-3.062 1.078-2.266 0-3.656-1.485-1.375-1.484-1.375-4.25 0-1.797.593-3.14.594-1.344 1.813-2.016 1.219-.672 2.64-.672 1.797 0 2.938.922 1.156.906 1.484 2.578l-1.828.281q-.265-1.109-.922-1.671-.656-.563-1.593-.563-1.422 0-2.313 1.016-.875 1.015-.875 3.203 0 2.234.844 3.25.86 1 2.234 1 1.11 0 1.844-.672t.937-2.078zm10.664 2.687q-1.046.875-2.015 1.25-.953.36-2.063.36-1.812 0-2.797-.89-.984-.892-.984-2.282 0-.813.375-1.485.375-.671.969-1.078.594-.406 1.344-.609.562-.14 1.671-.281 2.266-.266 3.344-.64.016-.392.016-.5 0-1.142-.531-1.61-.72-.64-2.141-.64-1.328 0-1.953.468-.625.469-.938 1.64l-1.828-.25q.25-1.171.813-1.89.578-.735 1.656-1.125 1.094-.39 2.516-.39 1.421 0 2.296.343.891.328 1.313.828.422.5.578 1.281.094.47.094 1.72v2.5q0 2.624.125 3.312.125.687.469 1.328h-1.954q-.296-.578-.375-1.36zm-.156-4.187q-1.015.406-3.062.703-1.157.172-1.64.375-.47.203-.735.61-.266.406-.266.89 0 .75.563 1.25.578.5 1.671.5 1.079 0 1.922-.469.844-.484 1.25-1.297.297-.64.297-1.875zm8.893 3.875.266 1.656q-.781.156-1.406.156-1.032 0-1.594-.312-.563-.328-.797-.844-.219-.531-.219-2.219v-6.375h-1.375v-1.453h1.375v-2.734l1.86-1.125v3.86h1.89v1.452h-1.89v6.47q0 .812.093 1.046.11.219.328.36.235.124.641.124.312 0 .828-.062zm1.848-11.438v-2.156h1.875v2.156zm0 13.11v-11.063h1.875v11.063zm4.02-5.532q0-3.078 1.718-4.546 1.422-1.235 3.469-1.235 2.281 0 3.719 1.5 1.453 1.485 1.453 4.125 0 2.14-.64 3.36-.626 1.218-1.86 1.906-1.219.672-2.672.672-2.313 0-3.75-1.485-1.438-1.5-1.438-4.297zm1.937 0q0 2.125.922 3.188.922 1.047 2.328 1.047 1.406 0 2.328-1.063.922-1.062.922-3.234 0-2.047-.938-3.11-.922-1.062-2.312-1.062-1.406 0-2.328 1.063-.922 1.046-.922 3.171zm10.627 5.532v-11.063h1.688v1.578q1.218-1.828 3.515-1.828 1 0 1.844.36.844.359 1.25.953.422.578.594 1.375.094.515.094 1.828v6.797h-1.875v-6.735q0-1.14-.22-1.703-.218-.578-.78-.906-.547-.344-1.297-.344-1.203 0-2.078.766-.86.75-.86 2.875v6.047z"/><path fill="#ccc" d="M443.964 376.885h253.418v50.898H443.964z" fill-rule="evenodd"/><path stroke="#000" stroke-linejoin="round" stroke-linecap="butt" d="M443.964 376.885h253.418v50.898H443.964z"/><path fill="#000" d="M538.579 403.83v-1.797l6.453-.016v5.672q-1.484 1.187-3.063 1.797-1.578.594-3.25.594-2.25 0-4.093-.97-1.828-.968-2.766-2.78-.937-1.829-.937-4.079 0-2.234.921-4.156.938-1.937 2.688-2.875 1.75-.937 4.031-.937 1.656 0 2.985.547 1.343.53 2.093 1.5.766.953 1.172 2.484l-1.828.5q-.344-1.156-.86-1.828-.5-.672-1.452-1.063-.938-.406-2.094-.406-1.39 0-2.406.422-1 .422-1.625 1.11-.625.687-.97 1.515-.577 1.406-.577 3.062 0 2.047.703 3.422t2.047 2.047q1.343.656 2.86.656 1.312 0 2.546-.5 1.25-.515 1.906-1.078v-2.843zm9.183 5.984V398.75h1.688v1.672q.64-1.172 1.187-1.547t1.203-.375q.954 0 1.922.61l-.64 1.734q-.688-.406-1.375-.406-.61 0-1.11.375-.484.36-.687 1.016-.313 1-.313 2.187v5.797zm14.337-1.36q-1.047.876-2.016 1.25-.953.36-2.062.36-1.813 0-2.797-.89-.984-.891-.984-2.282 0-.812.375-1.484.375-.672.968-1.078.594-.407 1.344-.61.563-.14 1.672-.281 2.266-.266 3.344-.64.015-.391.015-.5 0-1.141-.53-1.61-.72-.64-2.141-.64-1.329 0-1.954.468-.625.469-.937 1.64l-1.828-.25q.25-1.171.812-1.89.578-.734 1.657-1.125 1.093-.39 2.515-.39 1.422 0 2.297.343.89.328 1.313.828.421.5.578 1.282.093.468.093 1.718v2.5q0 2.625.125 3.313.125.687.47 1.328h-1.954q-.297-.578-.375-1.36zm-.156-4.187q-1.016.406-3.063.703-1.156.172-1.64.375-.469.203-.735.61-.265.406-.265.89 0 .75.562 1.25.578.5 1.672.5 1.078 0 1.922-.469.844-.484 1.25-1.296.297-.641.297-1.875zm4.8 5.547V398.75h1.67v1.547q.532-.812 1.392-1.297.859-.5 1.968-.5 1.235 0 2.016.516.781.5 1.11 1.422 1.312-1.938 3.406-1.938 1.656 0 2.53.922.891.907.891 2.797v7.594h-1.859v-6.969q0-1.125-.187-1.61-.188-.5-.672-.796-.47-.313-1.11-.313-1.172 0-1.937.782-.766.765-.766 2.484v6.422h-1.875v-7.188q0-1.25-.469-1.875-.453-.625-1.5-.625-.78 0-1.453.422-.672.407-.984 1.219-.297.797-.297 2.313v5.734zm17.781-13.11v-2.156h1.875v2.157zm0 13.11V398.75h1.875v11.063zm4.723 0V398.75h1.688v1.579q1.218-1.829 3.515-1.829 1 0 1.844.36.844.36 1.25.953.422.578.594 1.375.093.516.093 1.828v6.797h-1.875v-6.734q0-1.141-.218-1.704-.22-.578-.782-.906-.547-.344-1.297-.344-1.203 0-2.078.766-.859.75-.859 2.875v6.047zm19.44-3.563 1.922.235q-.453 1.703-1.688 2.64-1.234.938-3.172.938-2.422 0-3.843-1.484-1.422-1.5-1.422-4.204 0-2.796 1.437-4.328 1.438-1.547 3.735-1.547 2.218 0 3.609 1.516 1.406 1.5 1.406 4.25v.5h-8.25q.11 1.813 1.031 2.781.922.969 2.313.969 1.031 0 1.75-.531.734-.547 1.172-1.735zm-6.156-3.03h6.171q-.125-1.391-.703-2.095-.906-1.078-2.328-1.078-1.297 0-2.172.86-.875.859-.968 2.312z"/><path fill="none" d="M570.668 313.518v63.37"/><path stroke="#000" stroke-linejoin="round" stroke-linecap="butt" stroke-dasharray="4, 3" d="M570.668 313.518v57.37"/><path fill="#000" stroke="#000" stroke-linecap="butt" d="m569.016 370.888 1.652 4.538 1.652-4.538z" fill-rule="evenodd"/><path fill="#fff" d="M413.994 520.428h313.354v50.898H413.994Z" fill-rule="evenodd"/><path stroke="#000" stroke-linejoin="round" stroke-linecap="butt" d="M413.994 520.428h313.354v50.898H413.994Z"/><path fill="#000" d="M452.629 547.373v-1.797l6.453-.016v5.672q-1.484 1.187-3.062 1.797-1.579.594-3.25.594-2.25 0-4.094-.97-1.828-.968-2.766-2.78-.937-1.829-.937-4.079 0-2.234.922-4.156.937-1.937 2.687-2.875 1.75-.937 4.031-.937 1.657 0 2.985.547 1.343.53 2.093 1.5.766.953 1.172 2.484l-1.828.5q-.344-1.156-.86-1.828-.5-.672-1.452-1.063-.938-.406-2.094-.406-1.39 0-2.406.422-1 .422-1.625 1.11-.625.687-.969 1.515-.578 1.406-.578 3.062 0 2.047.703 3.422t2.047 2.047q1.344.656 2.86.656 1.312 0 2.546-.5 1.25-.515 1.906-1.078v-2.843zm9.183 5.984v-11.063h1.688v1.672q.64-1.172 1.187-1.547t1.204-.375q.953 0 1.921.61l-.64 1.734q-.688-.406-1.375-.406-.61 0-1.11.375-.484.36-.687 1.016-.313 1-.313 2.187v5.797zm14.337-1.36q-1.047.876-2.015 1.25-.954.36-2.063.36-1.812 0-2.797-.89-.984-.891-.984-2.282 0-.812.375-1.484.375-.672.969-1.078.593-.407 1.343-.61.563-.14 1.672-.281 2.266-.266 3.344-.64.016-.391.016-.5 0-1.141-.532-1.61-.718-.64-2.14-.64-1.328 0-1.953.468-.625.469-.938 1.64l-1.828-.25q.25-1.171.812-1.89.579-.734 1.657-1.125 1.093-.39 2.515-.39 1.422 0 2.297.343.89.328 1.313.828.422.5.578 1.282.094.468.094 1.718v2.5q0 2.625.125 3.313.125.687.468 1.328h-1.953q-.297-.578-.375-1.36zm-.156-4.187q-1.016.406-3.063.703-1.156.172-1.64.375-.469.203-.735.61-.265.406-.265.89 0 .75.562 1.25.578.5 1.672.5 1.078 0 1.922-.469.844-.484 1.25-1.296.297-.641.297-1.875zm4.8 5.547v-11.063h1.671v1.547q.531-.812 1.39-1.297.86-.5 1.97-.5 1.234 0 2.015.516.781.5 1.11 1.422 1.312-1.938 3.406-1.938 1.656 0 2.53.922.892.907.892 2.797v7.594h-1.86v-6.969q0-1.125-.187-1.61-.188-.5-.672-.796-.469-.313-1.11-.313-1.171 0-1.937.782-.766.765-.766 2.484v6.422h-1.875v-7.188q0-1.25-.468-1.875-.454-.625-1.5-.625-.782 0-1.454.422-.671.407-.984 1.22-.297.796-.297 2.312v5.734zm17.781-13.11v-2.156h1.875v2.157zm0 13.11v-11.063h1.875v11.063zm4.723 0v-11.063h1.688v1.579q1.218-1.829 3.515-1.829 1 0 1.844.36.844.36 1.25.953.422.578.594 1.375.093.516.093 1.828v6.797h-1.875v-6.734q0-1.141-.218-1.704-.22-.578-.782-.906-.546-.344-1.296-.344-1.204 0-2.079.766-.859.75-.859 2.875v6.047zm19.44-3.563 1.922.235q-.453 1.703-1.688 2.64-1.234.938-3.172.938-2.421 0-3.843-1.484-1.422-1.5-1.422-4.204 0-2.796 1.437-4.328 1.438-1.547 3.735-1.547 2.218 0 3.61 1.516 1.405 1.5 1.405 4.25v.5h-8.25q.11 1.813 1.032 2.781.921.97 2.312.97 1.031 0 1.75-.532.734-.547 1.172-1.735zm-6.156-3.03h6.172q-.125-1.391-.704-2.095-.906-1.078-2.328-1.078-1.297 0-2.172.86-.875.86-.968 2.312zm23.615 6.593v-1.625q-1.297 1.875-3.516 1.875-.968 0-1.828-.375-.843-.375-1.265-.938-.407-.578-.563-1.39-.125-.563-.125-1.75v-6.86h1.875v6.141q0 1.469.125 1.969.172.75.735 1.172.578.422 1.421.422.844 0 1.579-.438.75-.437 1.046-1.172.313-.75.313-2.172v-5.922h1.875v11.063zm4.612 0v-11.063h1.687v1.579q1.219-1.829 3.516-1.829 1 0 1.844.36.843.36 1.25.953.422.578.593 1.375.094.516.094 1.828v6.797h-1.875v-6.734q0-1.141-.219-1.704-.218-.578-.78-.906-.548-.344-1.298-.344-1.203 0-2.078.766-.86.75-.86 2.875v6.047zm15.955-1.672.266 1.656q-.781.157-1.406.157-1.032 0-1.594-.313-.563-.328-.797-.844-.219-.53-.219-2.218v-6.375h-1.375v-1.454h1.375v-2.734l1.86-1.125v3.86h1.89v1.453h-1.89v6.468q0 .813.093 1.047.11.219.328.36.235.125.641.125.313 0 .828-.063zm1.817 1.672v-11.063h1.687v1.672q.64-1.172 1.188-1.547.546-.375 1.203-.375.953 0 1.922.61l-.641 1.734q-.688-.406-1.375-.406-.61 0-1.11.375-.484.36-.687 1.016-.312 1-.312 2.187v5.797zm14.368 0v-1.625q-1.297 1.875-3.516 1.875-.969 0-1.828-.375-.844-.375-1.266-.938-.406-.578-.562-1.39-.125-.563-.125-1.75v-6.86h1.875v6.141q0 1.469.125 1.969.172.75.734 1.172.578.422 1.422.422t1.578-.438q.75-.437 1.047-1.172.312-.75.312-2.172v-5.922h1.875v11.063zm3.861-3.297 1.86-.297q.156 1.11.859 1.703.719.594 2 .594 1.297 0 1.922-.516.625-.53.625-1.234 0-.64-.563-1-.375-.25-1.906-.64-2.062-.516-2.86-.891-.796-.39-1.218-1.063-.406-.672-.406-1.484 0-.734.328-1.36.344-.64.937-1.062.438-.312 1.188-.531.75-.235 1.625-.235 1.297 0 2.281.375.985.375 1.453 1.016.469.64.64 1.719l-1.827.25q-.125-.86-.735-1.328-.593-.485-1.687-.485-1.281 0-1.844.422-.547.422-.547 1 0 .36.235.656.218.297.718.5.282.11 1.657.485 1.984.531 2.765.875.797.328 1.235.984.453.64.453 1.594 0 .937-.547 1.766-.547.828-1.578 1.28-1.031.454-2.328.454-2.157 0-3.297-.89-1.125-.907-1.438-2.657zm15.508 1.625.266 1.656q-.782.157-1.407.157-1.03 0-1.593-.313-.563-.328-.797-.844-.219-.53-.219-2.218v-6.375h-1.375v-1.454h1.375v-2.734l1.86-1.125v3.86h1.89v1.453h-1.89v6.468q0 .813.093 1.047.11.219.328.36.235.125.64.125.313 0 .829-.063zm9.41-1.89 1.922.234q-.453 1.703-1.688 2.64-1.234.938-3.171.938-2.422 0-3.844-1.484-1.422-1.5-1.422-4.204 0-2.796 1.437-4.328 1.438-1.547 3.735-1.547 2.219 0 3.61 1.516 1.405 1.5 1.405 4.25v.5h-8.25q.11 1.813 1.032 2.781.922.97 2.312.97 1.031 0 1.75-.532.735-.547 1.172-1.735zm-6.156-3.032h6.172q-.125-1.39-.703-2.094-.907-1.078-2.329-1.078-1.296 0-2.171.86-.875.86-.97 2.312zm17.612 6.594v-1.39q-1.047 1.64-3.094 1.64-1.313 0-2.422-.719-1.11-.734-1.719-2.047-.61-1.312-.61-3 0-1.656.548-3 .547-1.36 1.656-2.078 1.11-.719 2.469-.719 1 0 1.78.422.782.422 1.267 1.094v-5.469h1.875v15.266zm-5.922-5.516q0 2.125.89 3.172.907 1.047 2.125 1.047 1.22 0 2.078-1 .86-1 .86-3.062 0-2.282-.875-3.344-.875-1.063-2.156-1.063-1.25 0-2.094 1.032-.828 1.015-.828 3.218zm16.521 5.516v-11.063h1.688v1.672q.64-1.172 1.187-1.547t1.204-.375q.953 0 1.921.61l-.64 1.734q-.688-.406-1.375-.406-.61 0-1.11.375-.484.36-.687 1.016-.313 1-.313 2.187v5.797zm14.368 0v-1.625q-1.296 1.875-3.515 1.875-.969 0-1.828-.375-.844-.375-1.266-.938-.406-.578-.562-1.39-.125-.563-.125-1.75v-6.86h1.875v6.141q0 1.469.125 1.969.171.75.734 1.172.578.422 1.422.422t1.578-.438q.75-.437 1.047-1.172.312-.75.312-2.172v-5.922h1.875v11.063zm4.612 0v-11.063h1.688v1.579q1.218-1.829 3.515-1.829 1 0 1.844.36.844.36 1.25.953.422.578.594 1.375.093.516.093 1.828v6.797h-1.875v-6.734q0-1.141-.218-1.704-.219-.578-.782-.906-.546-.344-1.296-.344-1.204 0-2.079.766-.859.75-.859 2.875v6.047zm15.956-1.672.265 1.656q-.781.157-1.406.157-1.031 0-1.594-.313-.562-.328-.797-.844-.218-.53-.218-2.218v-6.375h-1.375v-1.454h1.375v-2.734l1.859-1.125v3.86h1.89v1.453h-1.89v6.468q0 .813.094 1.047.109.219.328.36.234.125.64.125.313 0 .829-.063zm1.847-11.437v-2.157h1.875v2.157zm0 13.109v-11.063h1.875v11.063zm4.723 0v-11.063h1.672v1.547q.531-.812 1.39-1.297.86-.5 1.97-.5 1.234 0 2.015.516.781.5 1.11 1.422 1.312-1.938 3.405-1.938 1.657 0 2.532.922.89.907.89 2.797v7.594h-1.86v-6.969q0-1.125-.187-1.61-.187-.5-.671-.796-.47-.313-1.11-.313-1.172 0-1.937.782-.766.765-.766 2.484v6.422h-1.875v-7.188q0-1.25-.469-1.875-.453-.625-1.5-.625-.781 0-1.453.422-.672.407-.984 1.22-.297.796-.297 2.312v5.734zm25.345-3.563 1.921.235q-.453 1.703-1.687 2.64-1.234.938-3.172.938-2.422 0-3.844-1.484-1.422-1.5-1.422-4.204 0-2.796 1.438-4.328 1.437-1.547 3.734-1.547 2.219 0 3.61 1.516 1.406 1.5 1.406 4.25v.5h-8.25q.11 1.813 1.031 2.781.922.97 2.313.97 1.03 0 1.75-.532.734-.547 1.172-1.735zm-6.157-3.03h6.172q-.125-1.391-.703-2.095-.906-1.078-2.328-1.078-1.297 0-2.172.86-.875.86-.969 2.312z"/><path fill="none" d="M570.673 427.783v92.63"/><path stroke="#000" stroke-linejoin="round" stroke-linecap="butt" stroke-dasharray="4, 3" d="M570.673 427.783v86.63"/><path fill="#000" stroke="#000" stroke-linecap="butt" d="m569.021 514.413 1.652 4.538 1.652-4.538z" fill-rule="evenodd"/><path fill="#fff" d="M413.994 619.696h313.354v50.897H413.994Z" fill-rule="evenodd"/><path stroke="#000" stroke-linejoin="round" stroke-linecap="butt" d="M413.994 619.696h313.354v50.897H413.994Z"/><path fill="#000" d="M556.294 645.187q0-3.797 2.032-5.938 2.047-2.156 5.281-2.156 2.11 0 3.797 1.016 1.703 1 2.594 2.812.89 1.797.89 4.094 0 2.313-.937 4.156-.938 1.828-2.657 2.782-1.703.937-3.703.937-2.156 0-3.859-1.047-1.688-1.047-2.563-2.843-.875-1.797-.875-3.813zm2.079.031q0 2.766 1.484 4.36 1.484 1.578 3.734 1.578 2.282 0 3.75-1.594 1.47-1.61 1.47-4.563 0-1.859-.642-3.25-.625-1.39-1.843-2.156-1.203-.765-2.703-.765-2.157 0-3.704 1.484-1.546 1.469-1.546 4.906zm14.433 2.5 1.906-.172q.141 1.157.625 1.89.5.735 1.547 1.188 1.047.454 2.344.454 1.156 0 2.031-.344.89-.344 1.313-.938.437-.61.437-1.312 0-.719-.422-1.25-.406-.547-1.359-.906-.61-.25-2.719-.75-2.11-.5-2.953-.954-1.094-.578-1.625-1.421-.531-.844-.531-1.891 0-1.156.656-2.156.656-1.016 1.906-1.532 1.266-.53 2.813-.53 1.687 0 2.984.546 1.297.547 1.985 1.61.703 1.062.765 2.406l-1.937.156q-.157-1.453-1.063-2.188-.89-.75-2.656-.75-1.828 0-2.672.672-.844.672-.844 1.625 0 .813.594 1.344.594.531 3.047 1.094 2.469.562 3.39.969 1.329.625 1.954 1.562.64.938.64 2.172 0 1.219-.703 2.297-.687 1.078-2 1.687-1.297.594-2.937.594-2.078 0-3.485-.61-1.39-.609-2.187-1.812-.797-1.219-.844-2.75z"/><path fill="none" d="M570.671 571.326v48.378"/><path stroke="#000" stroke-linejoin="round" stroke-linecap="butt" stroke-dasharray="4, 3" d="M570.671 571.326v42.378"/><path fill="#000" stroke="#000" stroke-linecap="butt" d="m569.02 613.704 1.65 4.538 1.653-4.538z" fill-rule="evenodd"/><path fill="none" d="M343.37 595.487h465.26"/><path stroke="#000" stroke-linejoin="round" stroke-linecap="butt" stroke-dasharray="1, 3" d="M343.37 595.487h465.26"/></g></svg>