<?xml version="1.0" encoding="utf-8"?>
<!-- Generator: Adobe Illustrator 23.0.3, SVG Export Plug-In . SVG Version: 6.00 Build 0)  -->
<svg version="1.1" id="Warstwa_1" xmlns="http://www.w3.org/2000/svg" xmlns:xlink="http://www.w3.org/1999/xlink" x="0px" y="0px"
	 viewBox="0 0 610.2 553.2" style="enable-background:new 0 0 610.2 553.2;" xml:space="preserve">
<style type="text/css">
	.st0{fill:none;stroke:#DDDDDD;stroke-width:0.89;stroke-miterlimit:10;}
	.st1{fill:none;stroke:#DDDDDD;stroke-width:0.89;stroke-miterlimit:10;stroke-dasharray:4.24,4.24;}
	.st2{fill:none;stroke:#DDDDDD;stroke-width:0.89;stroke-miterlimit:10;stroke-dasharray:4.21;}
	.st3{fill:#128DC4;}
	.st4{fill:#0B679B;}
	.st5{fill:none;stroke:#128DC4;stroke-width:1.33;stroke-miterlimit:10;}
	.st6{fill:none;stroke:#DDDDDD;stroke-width:0.98;stroke-miterlimit:10;stroke-dasharray:4.64;}
	.st7{stroke:#DDDDDD;stroke-width:0.75;stroke-miterlimit:10;stroke-dasharray:3.56;}
</style>
<title>proces zwykly mobil</title>
<polyline class="st0" points="43.8,2 45.2,0.4 47.3,0.4 "/>
<path class="st1" d="M51.5,0.4h70.6c5,0.2,8.9,4.3,8.8,9.4v138.8c0.1,5-3.8,9.2-8.8,9.3H29.7c-5-0.2-8.9-4.3-8.8-9.3V27.4L42.3,3.6"
	/>
<path class="st2" d="M23.3,28.1H39c5.4,0,9.7-4.4,9.7-9.7V0.4"/>
<path class="st3" d="M48,73.4c-2.3,0.1-4.6-0.9-6.1-2.7c-1.6-1.8-2.4-4.3-2.4-7.5c-0.1-2.7,0.8-5.4,2.5-7.4c1.6-1.8,3.8-2.8,6.2-2.7
	c1.1,0,2.2,0.2,3.1,0.7c0.8,0.4,1.6,1,2.2,1.7l-1.3,1.6c-0.5-0.5-1.1-1-1.8-1.3c-0.7-0.3-1.5-0.5-2.2-0.5c-1.7-0.1-3.4,0.7-4.5,2.1
	c-1.2,1.7-1.8,3.7-1.7,5.8c-0.1,2.1,0.5,4.1,1.6,5.8c1,1.4,2.7,2.2,4.4,2.2c0.9,0,1.7-0.2,2.5-0.6c0.8-0.4,1.4-1,2-1.6l1.4,1.6
	c-0.7,0.9-1.6,1.6-2.6,2.1C50.3,73.1,49.2,73.4,48,73.4z"/>
<path class="st3" d="M61.4,69.9v-5.8H56v-1.8h5.4v-5.8h1.9v5.8h5.4v1.8h-5.4v5.8L61.4,69.9z"/>
<path class="st3" d="M76.2,69.9v-5.8h-5.4v-1.8h5.4v-5.8h1.9v5.8h5.4v1.8h-5.4v5.8L76.2,69.9z"/>
<path class="st4" d="M5.4,200.9c-1,0-1.9-0.2-2.8-0.5c-0.9-0.3-1.8-0.9-2.5-1.6l1.9-2.2c0.5,0.4,1.1,0.8,1.7,1.1
	c0.6,0.3,1.2,0.4,1.8,0.4c1.3,0,2-0.5,2-1.4c0-0.4-0.2-0.8-0.6-1c-0.5-0.3-1-0.5-1.5-0.7l-1.9-0.8c-0.8-0.3-1.4-0.8-2-1.4
	c-0.6-0.7-0.9-1.6-0.9-2.5c0-1.2,0.5-2.3,1.4-3.1c1-0.9,2.4-1.3,3.7-1.3c0.9,0,1.7,0.2,2.5,0.5c0.8,0.3,1.6,0.8,2.2,1.4l-1.7,2.1
	c-0.4-0.4-0.9-0.6-1.4-0.9c-0.5-0.2-1-0.3-1.6-0.3c-0.5,0-0.9,0.1-1.3,0.3c-0.3,0.2-0.5,0.6-0.5,1c0,0.4,0.2,0.8,0.6,1
	c0.4,0.2,0.9,0.5,1.6,0.7l1.9,0.8c0.8,0.3,1.5,0.8,2.1,1.5c0.5,0.7,0.8,1.6,0.8,2.5c0,1.2-0.5,2.3-1.4,3.1
	C8.3,200.6,6.8,201,5.4,200.9z"/>
<path class="st4" d="M21,200.9c-1.8,0.1-3.5-0.7-4.8-2c-1.3-1.6-1.9-3.6-1.8-5.6c-0.1-2,0.5-4,1.8-5.5c1.2-1.3,3-2.1,4.8-2
	c1.8-0.1,3.5,0.7,4.8,2c1.3,1.5,2,3.5,1.8,5.5c0.1,2-0.5,4-1.8,5.6C24.5,200.3,22.8,201,21,200.9z M21,198.1c1,0,1.9-0.5,2.4-1.3
	c0.6-1,0.9-2.3,0.9-3.5c0.1-1.2-0.2-2.4-0.9-3.4c-0.9-1.3-2.7-1.6-4-0.7c-0.3,0.2-0.5,0.4-0.7,0.7c-0.6,1-0.9,2.2-0.9,3.4
	c-0.1,1.2,0.2,2.4,0.9,3.5C19.1,197.6,20,198.1,21,198.1L21,198.1z"/>
<path class="st4" d="M37.8,200.9c-1.6,0.1-3.2-0.5-4.3-1.7c-1-1.1-1.5-2.9-1.5-5.3v-7.8h3.3v8.1c-0.1,1,0.1,2.1,0.7,3
	c0.4,0.6,1.1,0.9,1.9,0.8c0.7,0,1.4-0.3,1.9-0.8c0.5-0.9,0.8-2,0.7-3v-8.1h3.1v7.8c0,2.4-0.5,4.2-1.5,5.3
	C41,200.4,39.4,201,37.8,200.9z"/>
<path class="st4" d="M51.9,200.7h-3.3v-14.5h5.2c1.4,0,2.7,0.3,3.9,1c1.2,0.8,1.8,2.1,1.6,3.5c0,0.9-0.2,1.8-0.7,2.6
	c-0.5,0.7-1.1,1.2-1.9,1.6l3.3,5.8h-3.7l-2.8-5.2h-1.8L51.9,200.7z M51.9,192.8h1.7c1.8,0,2.7-0.7,2.7-2.2c0.1-0.6-0.2-1.2-0.7-1.5
	c-0.6-0.3-1.3-0.5-2-0.4h-1.7V192.8z"/>
<path class="st4" d="M70.1,200.9c-1.2,0-2.3-0.3-3.4-0.9c-1-0.6-1.9-1.4-2.4-2.5c-0.7-1.3-1-2.7-0.9-4.1c0-1.4,0.3-2.8,1-4.1
	c0.6-1.1,1.4-2,2.5-2.6c1-0.6,2.2-0.9,3.4-0.9c0.9,0,1.7,0.2,2.5,0.6c0.7,0.3,1.3,0.8,1.8,1.3l-1.7,2.1c-0.4-0.3-0.7-0.6-1.2-0.8
	c-0.4-0.2-0.9-0.3-1.4-0.3c-1,0-2,0.5-2.6,1.3c-0.7,1-1.1,2.2-1,3.4c-0.1,1.2,0.3,2.5,1,3.5c0.6,0.8,1.6,1.3,2.6,1.2
	c0.6,0,1.1-0.1,1.6-0.4c0.5-0.3,0.9-0.6,1.2-1l1.7,2C73.7,200.2,71.9,201,70.1,200.9z"/>
<path class="st4" d="M78.8,200.7v-14.5h9.1v2.8H82v2.9h5v2.7h-4.9v3.3h6v2.8H78.8z"/>
<path class="st4" d="M105,200.9c-1.2,0-2.3-0.3-3.4-0.9c-1-0.6-1.9-1.4-2.4-2.5c-1.2-2.6-1.2-5.6,0-8.2c0.6-1.1,1.4-2,2.5-2.6
	c1-0.6,2.2-0.9,3.4-0.9c0.9,0,1.7,0.2,2.5,0.6c0.7,0.3,1.3,0.8,1.8,1.3l-1.7,2.1c-0.4-0.3-0.7-0.6-1.2-0.8c-0.4-0.2-0.9-0.3-1.4-0.3
	c-1,0-1.9,0.5-2.5,1.2c-0.7,1-1.1,2.2-1,3.4c-0.1,1.2,0.3,2.5,1,3.5c0.6,0.8,1.6,1.3,2.6,1.2c0.6,0,1.1-0.1,1.6-0.4
	c0.5-0.3,0.9-0.6,1.2-1l1.7,2C108.6,200.2,106.8,201,105,200.9z"/>
<path class="st4" d="M119.6,200.9c-1.8,0.1-3.5-0.7-4.8-2c-1.3-1.6-1.9-3.6-1.8-5.6c-0.1-2,0.5-4,1.8-5.5c2.6-2.6,6.9-2.6,9.5,0
	c1.3,1.5,1.9,3.5,1.8,5.5c0.1,2-0.5,4-1.8,5.6C123.1,200.3,121.4,201,119.6,200.9z M119.6,198.1c1,0,1.9-0.5,2.4-1.3
	c0.6-1,0.9-2.3,0.9-3.5c0.1-1.2-0.2-2.3-0.8-3.3c-0.9-1.3-2.7-1.6-4-0.7c-0.3,0.2-0.5,0.4-0.7,0.7c-0.6,1-0.9,2.2-0.9,3.4
	c-0.1,1.2,0.2,2.4,0.9,3.5C117.8,197.6,118.7,198.1,119.6,198.1L119.6,198.1z"/>
<path class="st4" d="M130.7,200.7v-14.5h4.1c1.9-0.1,3.8,0.5,5.3,1.7c1.3,1.2,2,3,2,5.5c0,2.5-0.6,4.3-2,5.5
	c-1.4,1.2-3.3,1.9-5.1,1.8H130.7z M134,198h0.6c1.1,0.1,2.2-0.3,3-1c0.9-1,1.3-2.3,1.1-3.6c0-1.7-0.4-2.9-1.1-3.6
	c-0.8-0.7-1.9-1-3-1H134V198z"/>
<path class="st4" d="M146.6,200.7v-14.5h9.1v2.8h-5.8v2.9h4.9v2.7h-4.9v3.3h6v2.8H146.6z"/>
<line class="st5" x1="42.7" y1="94.6" x2="109.1" y2="94.6"/>
<line class="st5" x1="42.7" y1="110.5" x2="109.1" y2="110.5"/>
<line class="st5" x1="42.7" y1="126.4" x2="109.1" y2="126.4"/>
<polyline class="st0" points="322.8,2 324.2,0.4 326.3,0.4 "/>
<path class="st1" d="M330.5,0.4h70.6c5,0.2,8.9,4.3,8.8,9.4v138.8c0.1,5-3.8,9.2-8.8,9.3h-92.3c-5-0.2-8.9-4.3-8.8-9.3V27.4
	l21.4-23.8"/>
<path class="st2" d="M301.1,28.1h15.6c5.4,0,9.7-4.4,9.7-9.7c0,0,0,0,0,0V0.4"/>
<path class="st3" d="M328.1,77.5c-2.3,0-4.5-0.9-6.1-2.7c-1.6-1.8-2.4-4.3-2.4-7.4c-0.2-2.7,0.7-5.3,2.4-7.4
	c1.6-1.8,3.8-2.8,6.2-2.7c1.1,0,2.2,0.2,3.1,0.7c0.8,0.4,1.6,1,2.2,1.7l-1.3,1.6c-0.5-0.5-1.1-1-1.8-1.3c-0.7-0.3-1.5-0.5-2.2-0.5
	c-1.7,0-3.4,0.7-4.5,2.1c-1.2,1.7-1.8,3.7-1.7,5.8c-0.1,2.1,0.5,4.1,1.6,5.9c1.6,2.1,4.5,2.8,6.9,1.6c0.8-0.4,1.4-1,2-1.6l1.4,1.6
	c-0.7,0.9-1.6,1.6-2.6,2.1C330.4,77.2,329.2,77.5,328.1,77.5z"/>
<path class="st3" d="M341.5,74v-5.8H336v-1.8h5.4v-5.8h1.9v5.8h5.4v1.8h-5.4V74H341.5z"/>
<path class="st3" d="M356.3,74v-5.8h-5.4v-1.8h5.4v-5.8h1.9v5.8h5.4v1.8h-5.4V74H356.3z"/>
<path class="st3" d="M370.3,65.5c-0.9,0-1.8-0.2-2.7-0.6c-0.8-0.4-1.5-0.9-2.1-1.5l1-1.2c0.5,0.5,1.1,0.9,1.7,1.2
	c0.6,0.3,1.3,0.5,2,0.5c0.7,0,1.5-0.2,2.1-0.6c0.5-0.4,0.8-1,0.8-1.6c0-0.6-0.2-1.1-0.6-1.5c-0.5-0.4-1.1-0.7-1.6-0.9l-2-0.8
	c-0.7-0.3-1.3-0.7-1.9-1.2c-0.6-0.6-0.9-1.4-0.9-2.3c0-1,0.4-2,1.2-2.6c0.9-0.7,2-1.1,3.1-1c0.8,0,1.5,0.2,2.2,0.5
	c0.7,0.3,1.3,0.7,1.8,1.2l-0.9,1.1c-0.4-0.4-0.9-0.7-1.4-0.9c-0.5-0.2-1.1-0.4-1.7-0.3c-0.7,0-1.3,0.2-1.8,0.5
	c-0.5,0.3-0.7,0.9-0.7,1.5c0,0.6,0.2,1.1,0.7,1.5c0.5,0.3,1,0.6,1.5,0.8l1.9,0.8c0.7,0.3,1.4,0.8,2,1.3c0.6,0.6,0.9,1.5,0.8,2.3
	c0,1.1-0.4,2.1-1.2,2.8C372.7,65.2,371.5,65.6,370.3,65.5z"/>
<path class="st3" d="M382.9,65.5c-1.7,0-3.3-0.6-4.4-1.9c-1.2-1.4-1.8-3.3-1.7-5.2c-0.1-1.9,0.5-3.7,1.8-5.2
	c1.1-1.2,2.8-1.9,4.4-1.9c0.8,0,1.6,0.2,2.4,0.5c0.6,0.3,1.1,0.7,1.6,1.2l-1,1.1c-0.4-0.4-0.8-0.7-1.2-0.9c-0.5-0.3-1.1-0.4-1.7-0.4
	c-1.3-0.1-2.5,0.5-3.3,1.5c-0.9,1.1-1.3,2.6-1.2,4c-0.1,1.5,0.3,2.9,1.2,4.1c0.8,1,2.1,1.6,3.4,1.5c0.9,0.1,1.8-0.2,2.5-0.8v-3.5
	h-2.9v-1.4h4.5V64c-0.5,0.5-1.1,0.9-1.7,1.1C384.6,65.4,383.8,65.6,382.9,65.5z"/>
<path class="st3" d="M388.8,65.3l4-7l-3.7-6.6h1.9l1.9,3.5c0.2,0.3,0.4,0.6,0.5,0.9s0.3,0.7,0.5,1h0.1l0.5-1
	c0.1-0.3,0.3-0.6,0.5-0.9l1.8-3.5h1.8l-3.7,6.7l4,7H397l-2-3.7l-0.5-1c-0.2-0.3-0.4-0.7-0.6-1.2h-0.1c-0.2,0.4-0.4,0.8-0.6,1.2
	l-0.5,1l-2,3.7L388.8,65.3z"/>
<path class="st3" d="M504.8,68.8c-1.3,0-2.6-0.3-3.8-0.8c-1.1-0.5-2.1-1.2-3-2.1l1.5-1.7c0.7,0.8,1.5,1.4,2.4,1.8
	c0.9,0.4,1.9,0.7,2.9,0.7c1.1,0.1,2.1-0.3,3-0.9c0.7-0.6,1.1-1.4,1.1-2.3c0.1-0.8-0.3-1.6-0.9-2.2c-0.7-0.5-1.5-0.9-2.3-1.3
	l-2.8-1.2c-1-0.4-1.9-1.1-2.7-1.8c-0.9-0.9-1.4-2.1-1.3-3.3c0-1.4,0.6-2.8,1.7-3.7c1.2-1,2.8-1.5,4.4-1.5c1.1,0,2.2,0.2,3.2,0.7
	c1,0.4,1.8,1,2.6,1.8l-1.3,1.6c-0.6-0.6-1.3-1-2-1.3c-0.8-0.3-1.6-0.5-2.5-0.5c-0.9,0-1.9,0.2-2.6,0.8c-0.7,0.5-1,1.3-1,2.1
	c-0.1,0.8,0.3,1.6,1,2.1c0.7,0.5,1.4,0.8,2.2,1.2l2.8,1.1c1.1,0.5,2,1.1,2.9,1.9c0.8,0.9,1.2,2.1,1.2,3.3c0,1.5-0.6,3-1.8,3.9
	C508.3,68.3,506.6,68.9,504.8,68.8z"/>
<path class="st3" d="M515.3,68.4V48.9h4.9c3,0,5.3,0.8,6.9,2.5s2.4,4.1,2.4,7.2c0,3.1-0.8,5.5-2.4,7.3c-1.8,1.8-4.2,2.8-6.8,2.6
	L515.3,68.4z M517.8,66.4h2.2c1.9,0.1,3.8-0.6,5.1-2.1c1.2-1.7,1.8-3.7,1.7-5.8c0.1-2-0.5-4.1-1.7-5.7c-1.3-1.4-3.2-2.1-5.1-2h-2.2
	L517.8,66.4z"/>
<path class="st3" d="M533.6,68.4V48.9h2.5v9.8h0.1l8.1-9.8h2.8l-6.1,7.5l7.1,12.1h-2.8l-5.8-10.2l-3.4,4v6.2L533.6,68.4z"/>
<path class="st3" d="M559.8,56.8c-0.9,0-1.8-0.2-2.7-0.5c-0.8-0.3-1.5-0.8-2.1-1.5l1-1.2c0.5,0.5,1.1,0.9,1.7,1.2
	c0.6,0.3,1.3,0.5,2,0.5c0.7,0,1.5-0.2,2.1-0.6c0.5-0.4,0.8-1,0.7-1.6c0.1-0.6-0.2-1.1-0.6-1.5c-0.5-0.4-1.1-0.7-1.6-0.9l-2-0.8
	c-0.7-0.3-1.3-0.7-1.9-1.2c-0.6-0.6-0.9-1.4-0.9-2.3c0-1,0.4-2,1.2-2.6c0.9-0.7,2-1,3.1-1c0.8,0,1.5,0.2,2.2,0.5
	c0.7,0.3,1.3,0.7,1.9,1.2l-0.9,1.1c-0.4-0.4-0.9-0.7-1.4-1c-0.5-0.2-1.1-0.4-1.7-0.3c-0.7,0-1.3,0.2-1.8,0.5
	c-0.5,0.3-0.7,0.9-0.7,1.5c0,0.6,0.2,1.1,0.7,1.5c0.5,0.3,1,0.6,1.5,0.8l1.9,0.8c0.7,0.3,1.4,0.8,2,1.3c0.6,0.6,0.9,1.5,0.8,2.3
	c0,1.1-0.4,2.1-1.2,2.8C562.3,56.5,561,56.9,559.8,56.8z"/>
<path class="st3" d="M572.4,56.8c-1.7,0.1-3.3-0.6-4.4-1.8c-1.2-1.4-1.8-3.3-1.7-5.2c-0.1-1.9,0.5-3.7,1.8-5.2
	c1.1-1.3,2.8-1.9,4.5-1.9c0.8,0,1.6,0.2,2.4,0.5c0.6,0.3,1.1,0.7,1.5,1.2l-1,1.1c-0.4-0.4-0.8-0.7-1.2-0.9c-0.5-0.3-1.1-0.4-1.7-0.4
	c-1.3-0.1-2.5,0.5-3.3,1.5c-0.9,1.2-1.3,2.6-1.2,4c-0.1,1.4,0.3,2.9,1.2,4.1c0.8,1,2.1,1.6,3.3,1.5c0.9,0.1,1.8-0.2,2.5-0.8V51h-2.9
	v-1.5h4.5v5.7c-0.5,0.5-1.1,0.9-1.8,1.1C574.1,56.7,573.3,56.9,572.4,56.8z"/>
<path class="st3" d="M578.3,56.6l4-7l-3.7-6.6h1.9l1.8,3.5c0.2,0.3,0.3,0.6,0.5,0.9l0.5,1.1h0.1c0.2-0.4,0.4-0.8,0.5-1.1
	s0.3-0.6,0.5-0.9l1.8-3.5h1.8l-3.7,6.7l4,7h-1.9l-2-3.7c-0.2-0.3-0.4-0.7-0.5-1l-0.6-1.2h-0.1c-0.2,0.4-0.4,0.8-0.6,1.2l-0.5,1
	l-2,3.7L578.3,56.6z"/>
<path class="st4" d="M285.8,200.9c-1,0-1.9-0.2-2.9-0.5c-0.9-0.3-1.8-0.9-2.5-1.6l1.9-2.2c0.5,0.4,1.1,0.8,1.7,1.1
	c0.6,0.3,1.2,0.4,1.9,0.4c1.3,0,2-0.5,2-1.4c0-0.4-0.2-0.8-0.6-1c-0.5-0.3-1-0.5-1.5-0.7l-1.9-0.8c-0.8-0.3-1.4-0.8-2-1.4
	c-0.6-0.7-1-1.6-0.9-2.5c0-1.2,0.5-2.3,1.5-3.1c1-0.9,2.4-1.3,3.7-1.3c0.9,0,1.7,0.2,2.5,0.5c0.8,0.3,1.6,0.8,2.2,1.4l-1.7,2.1
	c-0.4-0.3-0.9-0.6-1.4-0.9c-0.5-0.2-1-0.3-1.6-0.3c-0.5,0-0.9,0.1-1.3,0.3c-0.3,0.2-0.5,0.6-0.5,1c0,0.4,0.2,0.8,0.6,1
	c0.4,0.2,1,0.5,1.6,0.7l1.9,0.8c0.8,0.3,1.5,0.8,2.1,1.5c0.5,0.7,0.8,1.6,0.8,2.5c0,1.2-0.5,2.4-1.4,3.1
	C288.7,200.6,287.3,201,285.8,200.9z"/>
<path class="st4" d="M301.4,200.9c-1.8,0.1-3.5-0.7-4.8-2c-1.3-1.6-1.9-3.6-1.8-5.6c-0.1-2,0.5-4,1.8-5.5c2.6-2.6,6.9-2.6,9.5,0
	c1.3,1.5,1.9,3.5,1.8,5.5c0.1,2-0.5,4-1.8,5.6C305,200.3,303.2,201,301.4,200.9z M301.4,198.1c1,0,1.9-0.5,2.4-1.3
	c0.6-1,0.9-2.3,0.9-3.5c0.1-1.2-0.2-2.4-0.9-3.4c-0.9-1.3-2.7-1.6-4-0.7c-0.3,0.2-0.5,0.4-0.7,0.7c-0.6,1-0.9,2.2-0.9,3.4
	c-0.1,1.2,0.2,2.4,0.9,3.5C299.6,197.6,300.5,198.1,301.4,198.1L301.4,198.1z"/>
<path class="st4" d="M318.2,200.9c-1.6,0.1-3.2-0.5-4.3-1.7c-1-1.1-1.5-2.9-1.5-5.3v-7.8h3.3v8.1c-0.1,1,0.1,2.1,0.6,3
	c0.4,0.6,1.1,0.9,1.9,0.8c0.7,0,1.4-0.3,1.9-0.8c0.5-0.9,0.8-2,0.7-3v-8.1h3.2v7.8c0,2.4-0.5,4.2-1.5,5.3
	C321.4,200.4,319.8,201.1,318.2,200.9z"/>
<path class="st4" d="M332.4,200.7h-3.3v-14.5h5.2c1.4,0,2.7,0.3,4,1c1.2,0.8,1.8,2.1,1.6,3.5c0,0.9-0.2,1.8-0.7,2.6
	c-0.5,0.7-1.1,1.2-1.9,1.6l3.3,5.8h-3.7l-2.8-5.2h-1.8L332.4,200.7z M332.4,192.8h1.7c1.8,0,2.6-0.7,2.6-2.2
	c0.1-0.6-0.2-1.2-0.7-1.5c-0.6-0.3-1.3-0.5-2-0.4h-1.7L332.4,192.8z"/>
<path class="st4" d="M350.5,200.9c-1.2,0-2.3-0.3-3.4-0.9c-1-0.6-1.9-1.4-2.5-2.5c-1.2-2.6-1.2-5.6,0-8.2c1.2-2.2,3.4-3.5,5.9-3.5
	c0.9,0,1.7,0.2,2.5,0.6c0.7,0.3,1.3,0.8,1.9,1.3l-1.7,2.1c-0.4-0.3-0.7-0.6-1.2-0.8c-0.4-0.2-0.9-0.3-1.4-0.3c-1,0-1.9,0.5-2.5,1.3
	c-0.7,1-1.1,2.2-1,3.4c-0.1,1.2,0.3,2.5,1,3.5c0.6,0.8,1.6,1.3,2.6,1.2c0.6,0,1.1-0.1,1.6-0.4c0.5-0.3,0.9-0.6,1.2-1l1.7,2
	C354.1,200.2,352.4,201,350.5,200.9z"/>
<path class="st4" d="M359.2,200.7v-14.5h9.1v2.8h-5.8v2.9h4.9v2.7h-4.9v3.3h6v2.8H359.2z"/>
<path class="st4" d="M385.5,200.9c-1.2,0-2.3-0.3-3.4-0.9c-1-0.6-1.9-1.4-2.5-2.5c-0.7-1.3-1-2.7-0.9-4.1c0-1.4,0.3-2.8,0.9-4.1
	c1.2-2.2,3.4-3.5,5.9-3.5c0.9,0,1.7,0.2,2.5,0.6c0.7,0.3,1.3,0.8,1.9,1.3l-1.7,2.1c-0.4-0.3-0.8-0.6-1.2-0.9
	c-0.4-0.2-0.9-0.3-1.4-0.3c-1,0-1.9,0.5-2.5,1.2c-0.7,1-1.1,2.2-1,3.4c-0.1,1.2,0.3,2.5,1,3.5c0.6,0.8,1.6,1.3,2.6,1.2
	c0.6,0,1.1-0.1,1.6-0.4c0.5-0.3,0.9-0.6,1.2-1l1.7,2C389.1,200.1,387.3,201,385.5,200.9z"/>
<path class="st4" d="M400,200.9c-1.8,0.1-3.5-0.7-4.8-2c-1.3-1.6-1.9-3.6-1.8-5.6c-0.1-2,0.5-4,1.8-5.5c2.6-2.6,6.9-2.6,9.5,0
	c1.3,1.5,2,3.5,1.8,5.5c0.1,2-0.5,4-1.8,5.6C403.5,200.3,401.8,201,400,200.9z M400,198.1c1,0,1.9-0.5,2.4-1.3
	c0.6-1,0.9-2.3,0.9-3.5c0.1-1.2-0.2-2.4-0.9-3.4c-0.9-1.3-2.7-1.6-4-0.7c-0.3,0.2-0.5,0.4-0.7,0.7c-0.6,1-0.9,2.2-0.9,3.4
	c-0.1,1.2,0.2,2.4,0.9,3.5C398.1,197.6,399,198.1,400,198.1L400,198.1z"/>
<path class="st4" d="M411.1,200.7v-14.5h4.1c1.9-0.1,3.8,0.5,5.3,1.7c1.3,1.2,2,3,2,5.5c0,2.5-0.7,4.3-2,5.5
	c-1.4,1.2-3.3,1.9-5.1,1.8H411.1z M414.4,198h0.6c1.1,0.1,2.2-0.3,3-1c0.8-0.7,1.1-1.9,1.1-3.6s-0.4-2.9-1.1-3.6c-0.8-0.7-1.9-1-3-1
	h-0.6L414.4,198z"/>
<path class="st4" d="M427,200.7v-14.5h9.1v2.8h-5.8v2.9h4.9v2.7h-4.9v3.3h6v2.8H427z"/>
<line class="st5" x1="321.8" y1="110.5" x2="388.1" y2="110.5"/>
<line class="st5" x1="321.8" y1="94.6" x2="388.1" y2="94.6"/>
<line class="st5" x1="321.8" y1="126.4" x2="388.1" y2="126.4"/>
<path class="st6" d="M525.3,100.4l-53-36.9c-7.5-5.2-7.4-16.4,0.3-21l52.3-32c7.5-4.6,17-4.4,24.5,0.3l53,33.2
	c7.8,4.9,8.2,16,0.8,21.1L551,100.7C543.2,105.9,533,105.8,525.3,100.4z"/>
<path class="st6" d="M602.4,76.6c7.8,4.9,8.2,16,0.8,21.1L551,133.3c-7.8,5.3-18,5.1-25.7-0.3l-53-36.9c-7.5-5.2-7.4-16.4,0.3-21"/>
<path class="st6" d="M602.4,112.3c7.8,4.9,8.2,16,0.8,21.1L551,169.1c-7.8,5.3-18,5.1-25.7-0.3l-53-36.9c-7.5-5.2-7.4-16.4,0.3-21"
	/>
<line class="st5" x1="441.7" y1="79.2" x2="441.7" y2="101.3"/>
<line class="st5" x1="430.6" y1="90.3" x2="452.8" y2="90.3"/>
<polyline class="st0" points="33.6,351.9 35,350.3 37.1,350.3 "/>
<path class="st1" d="M41.4,350.3h70.6c5,0.2,8.9,4.3,8.8,9.4v138.8c0.1,5-3.8,9.2-8.8,9.4H19.6c-5-0.2-8.9-4.3-8.8-9.4V377.3
	l21.4-23.8"/>
<path class="st2" d="M10.9,377.9h15.6c5.4,0,9.7-4.4,9.7-9.7l0,0v-17.9"/>
<path class="st3" d="M36,399.2c-1.5,0-2.9-0.8-3.6-2.1c-1-1.8-1.4-3.9-1.3-6c-0.1-2.1,0.3-4.1,1.3-5.9c1.2-2,3.8-2.6,5.8-1.4
	c0.6,0.3,1,0.8,1.4,1.4c1,1.8,1.4,3.8,1.3,5.9c0.1,2.1-0.3,4.2-1.3,6C38.9,398.4,37.5,399.2,36,399.2z M36,397.6
	c1,0,1.8-0.6,2.2-1.5c0.7-1.5,0.9-3.2,0.8-4.9c0.1-1.7-0.2-3.3-0.8-4.9c-0.5-1.2-1.8-1.8-3-1.3c-0.6,0.2-1.1,0.7-1.3,1.3
	c-0.7,1.5-0.9,3.2-0.8,4.9c-0.1,1.7,0.2,3.4,0.8,4.9C34.2,396.9,35.1,397.5,36,397.6L36,397.6z"/>
<path class="st3" d="M43.9,398.9v-1.6h3.5v-11.3h-2.8v-1.3c0.6-0.1,1.2-0.2,1.8-0.5c0.5-0.2,1-0.4,1.4-0.7h1.5v13.7h3.2v1.6H43.9z"
	/>
<path class="st3" d="M60,399.2c-1.5,0-2.9-0.8-3.6-2.1c-1-1.8-1.4-3.9-1.3-6c-0.1-2.1,0.3-4.1,1.3-5.9c1.2-2,3.8-2.6,5.8-1.4
	c0.6,0.3,1,0.8,1.4,1.4c1,1.8,1.4,3.8,1.3,5.9c0.1,2.1-0.3,4.2-1.3,6C62.9,398.4,61.5,399.2,60,399.2z M60,397.6
	c1,0,1.8-0.6,2.2-1.5c0.7-1.5,0.9-3.2,0.8-4.9c0.1-1.7-0.2-3.3-0.8-4.9c-0.5-1.2-1.8-1.8-3-1.3c-0.6,0.2-1.1,0.7-1.3,1.3
	c-0.7,1.5-0.9,3.2-0.8,4.9c-0.1,1.7,0.2,3.4,0.8,4.9C58.2,396.9,59,397.5,60,397.6L60,397.6z"/>
<path class="st3" d="M67.9,398.9v-1.6h3.5v-11.3h-2.8v-1.3c0.6-0.1,1.2-0.2,1.8-0.5c0.5-0.2,1-0.4,1.4-0.7h1.5v13.7h3.2v1.6H67.9z"
	/>
<path class="st3" d="M83.9,399.2c-1.5,0-2.9-0.8-3.6-2.1c-1-1.8-1.4-3.9-1.3-6c-0.1-2.1,0.3-4.1,1.3-5.9c1.2-2,3.8-2.6,5.8-1.4
	c0.6,0.3,1,0.8,1.4,1.4c1,1.8,1.4,3.8,1.3,5.9c0.1,2.1-0.3,4.2-1.3,6C86.8,398.4,85.4,399.2,83.9,399.2z M83.9,397.6
	c1,0,1.8-0.6,2.2-1.5c0.7-1.5,0.9-3.2,0.8-4.9c0.1-1.7-0.2-3.3-0.8-4.9c-0.5-1.2-1.8-1.8-3-1.3c-0.6,0.2-1.1,0.7-1.3,1.3
	c-0.7,1.5-0.9,3.2-0.8,4.9c-0.1,1.7,0.2,3.4,0.8,4.9C82.1,396.9,83,397.5,83.9,397.6L83.9,397.6z"/>
<path class="st3" d="M95.9,399.2c-1.5,0-2.9-0.8-3.6-2.1c-1-1.8-1.4-3.9-1.3-6c-0.1-2.1,0.3-4.1,1.3-5.9c1.2-2,3.8-2.6,5.8-1.4
	c0.6,0.3,1,0.8,1.4,1.4c1,1.8,1.4,3.8,1.3,5.9c0.1,2.1-0.3,4.2-1.3,6C98.8,398.4,97.4,399.2,95.9,399.2z M95.9,397.6
	c0.9-0.1,1.8-0.7,2.1-1.5c0.7-1.5,0.9-3.2,0.8-4.9c0.1-1.7-0.2-3.3-0.8-4.9c-0.5-1.2-1.8-1.8-3-1.3c-0.6,0.2-1.1,0.7-1.3,1.3
	c-0.7,1.5-0.9,3.2-0.8,4.9c-0.1,1.7,0.2,3.4,0.8,4.9C94,397,94.9,397.6,95.9,397.6L95.9,397.6z"/>
<path class="st3" d="M36,428.1c-1.5,0-2.9-0.8-3.6-2.1c-1-1.8-1.4-3.9-1.3-5.9c-0.1-2.1,0.3-4.1,1.3-5.9c1.2-2,3.8-2.6,5.8-1.4
	c0.6,0.4,1.1,0.8,1.4,1.4c1,1.8,1.4,3.8,1.3,5.9c0.1,2.1-0.3,4.1-1.3,5.9C38.9,427.3,37.5,428.1,36,428.1z M36,426.5
	c0.9,0,1.8-0.6,2.2-1.5c0.7-1.5,0.9-3.2,0.8-4.9c0.1-1.7-0.2-3.3-0.8-4.9c-0.5-1.2-1.8-1.8-3-1.3c-0.6,0.2-1.1,0.7-1.3,1.3
	c-0.7,1.5-0.9,3.2-0.8,4.9c-0.1,1.7,0.2,3.4,0.8,4.9C34.3,425.9,35.1,426.4,36,426.5z"/>
<path class="st3" d="M43.9,427.8v-1.6h3.5v-11.3h-2.8v-1.3c0.6-0.1,1.2-0.3,1.8-0.5c0.5-0.2,1-0.4,1.4-0.7h1.5v13.7h3.2v1.6
	L43.9,427.8z"/>
<path class="st3" d="M55.9,427.8v-1.6h3.5v-11.3h-2.8v-1.3c0.6-0.1,1.2-0.3,1.8-0.5c0.5-0.2,1-0.4,1.4-0.7h1.5v13.7h3.2v1.6
	L55.9,427.8z"/>
<path class="st3" d="M72,428.1c-1.5,0-2.9-0.7-3.7-2.1c-1-1.8-1.5-3.9-1.3-6c-0.1-2.1,0.3-4.1,1.3-5.9c1.2-2,3.8-2.6,5.8-1.4
	c0.6,0.4,1.1,0.8,1.4,1.4c1,1.8,1.4,3.8,1.3,5.9c0.1,2.1-0.3,4.1-1.3,6C74.8,427.3,73.5,428.1,72,428.1z M72,426.5
	c0.9-0.1,1.7-0.6,2.1-1.5c0.7-1.5,0.9-3.2,0.8-4.9c0.1-1.7-0.2-3.3-0.8-4.9c-0.5-1.2-1.8-1.8-3-1.3c-0.6,0.2-1.1,0.7-1.3,1.3
	c-0.7,1.5-0.9,3.2-0.8,4.9c-0.1,1.7,0.2,3.4,0.8,4.9C70.2,425.9,71,426.5,72,426.5z"/>
<path class="st3" d="M83.9,428.1c-1.5,0-2.9-0.8-3.6-2.1c-1-1.8-1.4-3.9-1.3-6c-0.1-2.1,0.3-4.1,1.3-5.9c1.2-2,3.8-2.6,5.8-1.4
	c0.6,0.4,1.1,0.8,1.4,1.4c1,1.8,1.4,3.8,1.3,5.9c0.1,2.1-0.3,4.1-1.3,6C86.8,427.3,85.4,428.1,83.9,428.1z M83.9,426.5
	c0.9,0,1.8-0.6,2.2-1.5c0.7-1.5,0.9-3.2,0.8-4.9c0.1-1.7-0.2-3.3-0.8-4.9c-0.5-1.2-1.8-1.8-3-1.3c-0.6,0.2-1.1,0.7-1.3,1.3
	c-0.7,1.5-0.9,3.2-0.8,4.9c-0.1,1.7,0.2,3.4,0.8,4.9C82.1,425.9,83,426.5,83.9,426.5z"/>
<path class="st3" d="M95.9,428.1c-1.5,0-2.9-0.8-3.6-2.1c-1-1.8-1.4-3.9-1.3-6c-0.1-2.1,0.3-4.1,1.3-5.9c1.2-2,3.8-2.6,5.8-1.4
	c0.6,0.4,1.1,0.8,1.4,1.4c1,1.8,1.4,3.8,1.3,5.9c0.1,2.1-0.4,4.1-1.4,6C98.7,427.3,97.4,428.1,95.9,428.1z M95.9,426.5
	c0.9-0.1,1.7-0.6,2.1-1.5c0.7-1.5,0.9-3.2,0.8-4.9c0.1-1.7-0.2-3.3-0.8-4.9c-0.5-1.2-1.8-1.8-3-1.3c-0.6,0.2-1.1,0.7-1.3,1.3
	c-0.7,1.5-0.9,3.2-0.8,4.9c-0.1,1.7,0.2,3.4,0.8,4.9C94,425.9,94.9,426.5,95.9,426.5z"/>
<path class="st3" d="M32,456.7V455h3.5v-11.3h-2.8v-1.3c0.6-0.1,1.2-0.3,1.8-0.5c0.5-0.2,1-0.4,1.4-0.7h1.5V455h3.2v1.6L32,456.7z"
	/>
<path class="st3" d="M48,457c-1.5,0-2.9-0.8-3.6-2.1c-1-1.8-1.4-3.9-1.3-6c-0.1-2.1,0.3-4.1,1.3-5.9c1.2-2,3.8-2.6,5.8-1.4
	c0.6,0.3,1,0.8,1.4,1.4c1,1.8,1.4,3.8,1.3,5.9c0.1,2.1-0.3,4.1-1.3,6C50.9,456.2,49.5,457,48,457z M48,455.4c1,0,1.8-0.6,2.2-1.5
	c0.7-1.5,0.9-3.2,0.8-4.9c0.1-1.7-0.2-3.3-0.8-4.9c-0.5-1.2-1.8-1.8-3-1.3c-0.6,0.2-1.1,0.7-1.3,1.3c-0.7,1.5-0.9,3.2-0.8,4.9
	c-0.1,1.7,0.2,3.4,0.8,4.9C46.2,454.8,47,455.3,48,455.4L48,455.4z"/>
<path class="st3" d="M60,457c-1.5,0-2.9-0.8-3.6-2.1c-1-1.8-1.4-3.9-1.3-6c-0.1-2.1,0.3-4.1,1.3-5.9c1.2-2,3.8-2.6,5.8-1.4
	c0.6,0.3,1,0.8,1.4,1.4c1,1.8,1.4,3.8,1.3,5.9c0.1,2.1-0.3,4.1-1.3,6C62.9,456.2,61.5,457,60,457z M60,455.4c1,0,1.8-0.6,2.2-1.5
	c0.7-1.5,0.9-3.2,0.8-4.9c0.1-1.7-0.2-3.3-0.8-4.9c-0.5-1.2-1.8-1.8-3-1.3c-0.6,0.2-1.1,0.7-1.3,1.3c-0.7,1.5-0.9,3.2-0.8,4.9
	c-0.1,1.7,0.2,3.4,0.8,4.9C58.2,454.8,59,455.3,60,455.4L60,455.4z"/>
<path class="st3" d="M67.9,456.7V455h3.5v-11.3h-2.8v-1.3c0.6-0.1,1.2-0.3,1.8-0.5c0.5-0.2,1-0.4,1.4-0.7h1.5V455h3.2v1.6
	L67.9,456.7z"/>
<path class="st3" d="M83.9,457c-1.5,0-2.9-0.8-3.6-2.1c-1-1.8-1.4-3.9-1.3-6c-0.1-2.1,0.3-4.1,1.3-5.9c1.2-2,3.8-2.6,5.8-1.4
	c0.6,0.3,1,0.8,1.4,1.4c1,1.8,1.4,3.8,1.3,5.9c0.1,2.1-0.3,4.1-1.3,6C86.8,456.2,85.4,457,83.9,457z M83.9,455.4
	c1,0,1.8-0.6,2.2-1.5c0.7-1.5,0.9-3.2,0.8-4.9c0.1-1.7-0.2-3.3-0.8-4.9c-0.5-1.2-1.8-1.8-3-1.3c-0.6,0.2-1.1,0.7-1.3,1.3
	c-0.7,1.5-0.9,3.2-0.8,4.9c-0.1,1.7,0.2,3.4,0.8,4.9C82.1,454.8,83,455.3,83.9,455.4L83.9,455.4z"/>
<path class="st3" d="M95.9,457c-1.5,0-2.9-0.8-3.6-2.1c-1-1.8-1.4-3.9-1.3-6c-0.1-2.1,0.3-4.1,1.3-5.9c1.2-2,3.8-2.6,5.8-1.4
	c0.6,0.3,1,0.8,1.4,1.4c1,1.8,1.4,3.8,1.3,5.9c0.1,2.1-0.3,4.1-1.3,6C98.8,456.2,97.4,457,95.9,457z M95.9,455.4
	c1-0.1,1.8-0.7,2.1-1.6c0.7-1.5,0.9-3.2,0.8-4.9c0.1-1.7-0.2-3.3-0.8-4.9c-0.5-1.2-1.8-1.8-3-1.3c-0.6,0.2-1.1,0.7-1.3,1.3
	c-0.7,1.5-0.9,3.2-0.8,4.9c-0.1,1.7,0.2,3.4,0.8,4.9C94,454.7,94.9,455.3,95.9,455.4L95.9,455.4z"/>
<path class="st3" d="M32,485.6v-1.6h3.5v-11.3h-2.8v-1.3c0.6-0.1,1.2-0.2,1.8-0.5c0.5-0.2,1-0.4,1.4-0.7h1.5v13.7h3.2v1.6H32z"/>
<path class="st3" d="M43.9,485.6v-1.6h3.5v-11.3h-2.8v-1.3c0.6-0.1,1.2-0.2,1.8-0.5c0.5-0.2,1-0.4,1.4-0.7h1.5v13.7h3.2v1.6H43.9z"
	/>
<path class="st3" d="M55.9,485.6v-1.6h3.5v-11.3h-2.8v-1.3c0.6-0.1,1.2-0.2,1.8-0.5c0.5-0.2,1-0.4,1.4-0.7h1.5v13.7h3.2v1.6H55.9z"
	/>
<path class="st3" d="M67.9,485.6v-1.6h3.5v-11.3h-2.8v-1.3c0.6-0.1,1.2-0.2,1.8-0.5c0.5-0.2,1-0.4,1.4-0.7h1.5v13.7h3.2v1.6H67.9z"
	/>
<path class="st3" d="M79.8,485.6v-1.6h3.5v-11.3h-2.8v-1.3c0.6-0.1,1.2-0.2,1.8-0.5c0.5-0.2,1-0.4,1.4-0.7h1.5v13.7h3.2v1.6H79.8z"
	/>
<path class="st3" d="M95.9,485.9c-1.5,0-2.9-0.8-3.6-2.1c-1-1.8-1.4-3.9-1.3-6c-0.1-2.1,0.3-4.1,1.3-5.9c1.2-2,3.8-2.6,5.8-1.4
	c0.6,0.3,1,0.8,1.4,1.4c1,1.8,1.4,3.8,1.3,5.9c0.1,2.1-0.3,4.1-1.3,6C98.8,485.1,97.4,485.9,95.9,485.9z M95.9,484.3
	c0.9-0.1,1.8-0.7,2.1-1.5c0.7-1.5,0.9-3.2,0.8-4.9c0.1-1.7-0.2-3.3-0.8-4.8c-0.5-1.2-1.8-1.8-3-1.3c-0.6,0.2-1.1,0.7-1.3,1.3
	c-0.7,1.5-0.9,3.2-0.8,4.9c-0.1,1.7,0.2,3.4,0.8,4.9C94,483.6,94.9,484.2,95.9,484.3z"/>
<polyline class="st0" points="318,351.5 319.4,350 321.5,350 "/>
<path class="st1" d="M325.8,350h70.6c5,0.2,8.9,4.3,8.8,9.3v138.8c0.1,5-3.8,9.2-8.8,9.3H304c-5-0.2-8.9-4.3-8.8-9.3V376.9
	l21.4-23.8"/>
<path class="st2" d="M299.3,377.6h15.6c5.4,0,9.7-4.4,9.7-9.7v0V350"/>
<path class="st3" d="M320.9,398.8c-1.5,0-2.9-0.8-3.6-2.1c-1-1.8-1.4-3.9-1.3-5.9c-0.1-2.1,0.3-4.1,1.3-5.9c1.2-2,3.8-2.6,5.8-1.4
	c0.6,0.3,1,0.8,1.4,1.4c1,1.8,1.4,3.8,1.3,5.9c0.1,2.1-0.3,4.1-1.3,5.9C323.8,398.1,322.4,398.9,320.9,398.8z M320.9,397.2
	c1,0,1.8-0.6,2.1-1.5c0.7-1.5,0.9-3.2,0.8-4.9c0.1-1.7-0.2-3.3-0.8-4.9c-0.5-1.2-1.8-1.8-3-1.3c-0.6,0.2-1.1,0.7-1.3,1.3
	c-0.7,1.5-0.9,3.2-0.8,4.9c-0.1,1.7,0.2,3.4,0.8,4.9C319.1,396.6,319.9,397.2,320.9,397.2z"/>
<path class="st3" d="M328.8,398.5v-1.6h3.5v-11.3h-2.8v-1.3c0.6-0.1,1.2-0.3,1.8-0.5c0.5-0.2,1-0.4,1.4-0.7h1.5v13.7h3.2v1.6H328.8z
	"/>
<path class="st3" d="M344.8,398.8c-1.5,0-2.9-0.8-3.6-2.1c-1-1.8-1.4-3.9-1.3-5.9c-0.1-2.1,0.3-4.1,1.3-5.9c1.2-2,3.8-2.6,5.8-1.4
	c0.6,0.3,1,0.8,1.4,1.4c1,1.8,1.4,3.8,1.3,5.9c0.1,2.1-0.3,4.1-1.3,5.9C347.7,398.1,346.3,398.8,344.8,398.8z M344.8,397.2
	c1,0,1.8-0.6,2.1-1.5c0.7-1.5,0.9-3.2,0.8-4.9c0.1-1.6-0.2-3.3-0.8-4.8c-0.5-1.2-1.8-1.8-3-1.3c-0.6,0.2-1.1,0.7-1.3,1.3
	c-0.7,1.5-0.9,3.2-0.8,4.9c-0.1,1.7,0.2,3.4,0.8,4.9C343,396.6,343.9,397.2,344.8,397.2z"/>
<path class="st3" d="M352.7,398.5v-1.6h3.5v-11.3h-2.8v-1.3c0.6-0.1,1.2-0.3,1.8-0.5c0.5-0.2,1-0.4,1.4-0.7h1.5v13.7h3.2v1.6H352.7z
	"/>
<path class="st3" d="M368.8,398.8c-1.5,0-2.9-0.8-3.6-2.1c-1-1.8-1.4-3.9-1.3-5.9c-0.1-2.1,0.3-4.1,1.3-5.9c1.2-2,3.8-2.6,5.8-1.4
	c0.6,0.3,1,0.8,1.4,1.4c1,1.8,1.4,3.8,1.3,5.9c0.1,2.1-0.3,4.1-1.3,5.9C371.6,398.1,370.3,398.8,368.8,398.8z M368.8,397.2
	c1,0,1.8-0.6,2.1-1.5c0.7-1.5,0.9-3.2,0.8-4.9c0.1-1.7-0.2-3.3-0.8-4.9c-0.5-1.2-1.8-1.8-3-1.3c-0.6,0.2-1.1,0.7-1.3,1.3
	c-0.7,1.5-0.9,3.2-0.8,4.9c-0.1,1.7,0.2,3.4,0.8,4.9C366.9,396.6,367.8,397.2,368.8,397.2z"/>
<path class="st3" d="M380.7,398.8c-1.5,0-2.9-0.8-3.6-2.1c-1-1.8-1.4-3.9-1.3-5.9c-0.1-2.1,0.3-4.1,1.3-5.9c1.2-2,3.8-2.6,5.8-1.4
	c0.6,0.3,1,0.8,1.4,1.4c1,1.8,1.4,3.8,1.3,5.9c0.1,2.1-0.3,4.1-1.3,5.9C383.6,398.1,382.2,398.8,380.7,398.8z M380.7,397.2
	c1,0,1.8-0.6,2.1-1.5c0.7-1.5,0.9-3.2,0.8-4.9c0.1-1.7-0.2-3.3-0.8-4.9c-0.5-1.2-1.8-1.8-3-1.3c-0.6,0.2-1.1,0.7-1.3,1.3
	c-0.7,1.5-0.9,3.2-0.8,4.9c-0.1,1.7,0.2,3.4,0.8,4.9C378.9,396.6,379.8,397.2,380.7,397.2z"/>
<path class="st3" d="M320.9,427.7c-1.5,0-2.9-0.8-3.6-2.1c-1-1.8-1.4-3.9-1.3-5.9c-0.1-2.1,0.3-4.1,1.3-5.9c1.2-2,3.8-2.6,5.8-1.4
	c0.6,0.3,1,0.8,1.4,1.4c1,1.8,1.4,3.8,1.3,5.9c0.1,2.1-0.3,4.1-1.3,6C323.8,427,322.4,427.8,320.9,427.7z M320.9,426.1
	c1,0,1.8-0.6,2.1-1.5c0.7-1.5,0.9-3.2,0.8-4.9c0.1-1.7-0.2-3.3-0.8-4.9c-0.5-1.2-1.8-1.8-3-1.3c-0.6,0.2-1.1,0.7-1.3,1.3
	c-0.7,1.5-0.9,3.2-0.8,4.9c-0.1,1.7,0.2,3.4,0.8,4.9C319.1,425.5,319.9,426.1,320.9,426.1z"/>
<path class="st3" d="M328.8,427.4v-1.6h3.5v-11.3h-2.8v-1.3c0.6-0.1,1.2-0.3,1.8-0.5c0.5-0.2,1-0.4,1.4-0.7h1.5v13.7h3.2v1.6
	L328.8,427.4z"/>
<path class="st3" d="M340.7,427.4v-1.6h3.5v-11.3h-2.8v-1.3c0.6-0.1,1.2-0.3,1.8-0.5c0.5-0.2,1-0.4,1.4-0.7h1.5v13.7h3.2v1.6
	L340.7,427.4z"/>
<path class="st3" d="M356.8,427.7c-1.5,0-2.9-0.8-3.6-2.1c-1-1.8-1.4-3.9-1.3-6c-0.1-2.1,0.3-4.1,1.3-5.9c1.2-2,3.8-2.6,5.8-1.4
	c0.6,0.3,1,0.8,1.4,1.4c1,1.8,1.4,3.8,1.3,5.9c0.1,2.1-0.3,4.1-1.3,6C359.7,426.9,358.3,427.7,356.8,427.7z M356.8,426.1
	c1,0,1.8-0.6,2.2-1.5c0.7-1.5,0.9-3.2,0.8-4.9c0.1-1.7-0.2-3.3-0.8-4.9c-0.5-1.2-1.8-1.8-3-1.3c-0.6,0.2-1.1,0.7-1.3,1.3
	c-0.7,1.5-0.9,3.2-0.8,4.9c-0.1,1.7,0.2,3.4,0.8,4.9C355,425.5,355.8,426.1,356.8,426.1z"/>
<path class="st3" d="M368.8,427.7c-1.5,0-2.9-0.8-3.6-2.1c-1-1.8-1.4-3.9-1.3-6c-0.1-2.1,0.3-4.1,1.3-5.9c1.2-2,3.8-2.6,5.8-1.4
	c0.6,0.3,1,0.8,1.4,1.4c1,1.8,1.4,3.8,1.3,5.9c0.1,2.1-0.3,4.1-1.3,6C371.6,426.9,370.2,427.7,368.8,427.7z M368.8,426.1
	c1,0,1.8-0.6,2.1-1.5c0.7-1.5,0.9-3.2,0.8-4.9c0.1-1.7-0.2-3.3-0.8-4.9c-0.5-1.2-1.8-1.8-3-1.3c-0.6,0.2-1.1,0.7-1.3,1.3
	c-0.7,1.5-0.9,3.2-0.8,4.9c-0.1,1.7,0.2,3.4,0.8,4.9C366.9,425.5,367.8,426.1,368.8,426.1z"/>
<path class="st3" d="M380.7,427.7c-1.5,0-2.9-0.8-3.6-2.1c-1-1.8-1.4-3.9-1.3-6c-0.1-2.1,0.3-4.1,1.3-5.9c1.2-2,3.8-2.6,5.8-1.4
	c0.6,0.3,1,0.8,1.4,1.4c1,1.8,1.4,3.8,1.3,5.9c0.1,2.1-0.3,4.1-1.3,6C383.6,426.9,382.2,427.7,380.7,427.7z M380.7,426.1
	c1,0,1.8-0.6,2.1-1.5c0.7-1.5,0.9-3.2,0.8-4.9c0.1-1.7-0.2-3.3-0.8-4.9c-0.5-1.2-1.8-1.8-3-1.3c-0.6,0.2-1.1,0.7-1.3,1.3
	c-0.7,1.5-0.9,3.2-0.8,4.9c-0.1,1.7,0.2,3.4,0.8,4.9C378.9,425.5,379.8,426.1,380.7,426.1z"/>
<path class="st3" d="M316.8,456.3v-1.6h3.5v-11.3h-2.8v-1.3c0.6-0.1,1.2-0.2,1.8-0.5c0.5-0.2,1-0.4,1.4-0.7h1.5v13.7h3.2v1.6H316.8z
	"/>
<path class="st3" d="M332.9,456.6c-1.5,0-2.9-0.8-3.6-2.1c-1-1.8-1.4-3.9-1.3-6c-0.1-2.1,0.3-4.1,1.3-5.9c1.2-2,3.8-2.6,5.8-1.4
	c0.6,0.3,1,0.8,1.4,1.4c1,1.8,1.4,3.8,1.3,5.9c0.1,2.1-0.3,4.2-1.3,6C335.7,455.8,334.3,456.6,332.9,456.6z M332.9,455
	c1,0,1.8-0.6,2.2-1.5c0.7-1.5,0.9-3.2,0.8-4.9c0.1-1.7-0.2-3.3-0.8-4.9c-0.5-1.2-1.8-1.8-3-1.3c-0.6,0.2-1.1,0.7-1.3,1.3
	c-0.7,1.5-0.9,3.2-0.8,4.9c-0.1,1.7,0.2,3.4,0.8,4.9C331.1,454.4,331.9,455,332.9,455L332.9,455z"/>
<path class="st3" d="M344.8,456.6c-1.5,0-2.9-0.8-3.6-2.1c-1-1.8-1.4-3.9-1.3-6c-0.1-2.1,0.3-4.1,1.3-5.9c1.2-2,3.8-2.6,5.8-1.4
	c0.6,0.3,1,0.8,1.4,1.4c1,1.8,1.4,3.8,1.3,5.9c0.1,2.1-0.3,4.2-1.3,6C347.7,455.8,346.3,456.6,344.8,456.6z M344.8,455
	c1,0,1.8-0.6,2.1-1.5c0.7-1.5,0.9-3.2,0.8-4.9c0.1-1.7-0.2-3.3-0.8-4.9c-0.5-1.2-1.8-1.8-3-1.3c-0.6,0.2-1.1,0.7-1.3,1.3
	c-0.7,1.5-0.9,3.2-0.8,4.9c-0.1,1.7,0.2,3.4,0.8,4.9C343,454.4,343.9,455,344.8,455L344.8,455z"/>
<path class="st3" d="M352.7,456.3v-1.6h3.5v-11.3h-2.8v-1.3c0.6-0.1,1.2-0.2,1.8-0.5c0.5-0.2,1-0.4,1.4-0.7h1.5v13.7h3.2v1.6H352.7z
	"/>
<path class="st3" d="M368.8,456.6c-1.5,0-2.9-0.8-3.6-2.1c-1-1.8-1.5-3.9-1.3-6c-0.1-2.1,0.3-4.1,1.3-5.9c1.2-2,3.8-2.6,5.8-1.4
	c0.6,0.3,1,0.8,1.4,1.4c1,1.8,1.4,3.8,1.3,5.9c0.1,2.1-0.3,4.2-1.3,6C371.6,455.8,370.2,456.6,368.8,456.6z M368.8,455
	c1,0,1.8-0.6,2.1-1.5c0.7-1.5,0.9-3.2,0.8-4.9c0.1-1.7-0.2-3.3-0.8-4.9c-0.5-1.2-1.8-1.8-3-1.3c-0.6,0.2-1.1,0.7-1.3,1.3
	c-0.7,1.5-0.9,3.2-0.8,4.9c-0.1,1.7,0.2,3.4,0.8,4.9C366.9,454.4,367.8,455,368.8,455L368.8,455z"/>
<path class="st3" d="M380.7,456.6c-1.5,0-2.9-0.8-3.6-2.1c-1-1.8-1.4-3.9-1.3-6c-0.1-2.1,0.3-4.1,1.3-5.9c1.2-2,3.8-2.6,5.8-1.4
	c0.6,0.3,1,0.8,1.4,1.4c1,1.8,1.4,3.8,1.3,5.9c0.1,2.1-0.3,4.2-1.3,6C383.6,455.8,382.2,456.6,380.7,456.6z M380.7,455
	c1,0,1.8-0.6,2.1-1.5c0.7-1.5,0.9-3.2,0.8-4.9c0.1-1.7-0.2-3.3-0.8-4.9c-0.5-1.2-1.8-1.8-3-1.3c-0.6,0.2-1.1,0.7-1.3,1.3
	c-0.7,1.5-0.9,3.2-0.8,4.9c-0.1,1.7,0.2,3.4,0.8,4.9C378.9,454.4,379.8,455,380.7,455L380.7,455z"/>
<path class="st3" d="M316.8,485.2v-1.6h3.5v-11.3h-2.8V471c0.6-0.1,1.2-0.2,1.8-0.5c0.5-0.2,1-0.4,1.4-0.7h1.5v13.7h3.2v1.6
	L316.8,485.2z"/>
<path class="st3" d="M328.8,485.2v-1.6h3.5v-11.3h-2.8V471c0.6-0.1,1.2-0.2,1.8-0.5c0.5-0.2,1-0.4,1.4-0.7h1.5v13.7h3.2v1.6
	L328.8,485.2z"/>
<path class="st3" d="M340.7,485.2v-1.6h3.5v-11.3h-2.8V471c0.6-0.1,1.2-0.2,1.8-0.5c0.5-0.2,1-0.4,1.4-0.7h1.5v13.7h3.2v1.6
	L340.7,485.2z"/>
<path class="st3" d="M352.7,485.2v-1.6h3.5v-11.3h-2.8V471c0.6-0.1,1.2-0.2,1.8-0.5c0.5-0.2,1-0.4,1.4-0.7h1.5v13.7h3.2v1.6
	L352.7,485.2z"/>
<path class="st3" d="M364.7,485.2v-1.6h3.5v-11.3h-2.8V471c0.6-0.1,1.2-0.2,1.8-0.5c0.5-0.2,1-0.4,1.4-0.7h1.5v13.7h3.2v1.6
	L364.7,485.2z"/>
<path class="st3" d="M380.7,485.5c-1.5,0-2.9-0.8-3.6-2.1c-1-1.8-1.4-3.9-1.3-5.9c-0.1-2.1,0.3-4.1,1.3-5.9c1.2-2,3.8-2.6,5.8-1.4
	c0.6,0.4,1.1,0.8,1.4,1.4c1,1.8,1.4,3.8,1.3,5.9c0.1,2.1-0.3,4.1-1.3,5.9C383.6,484.7,382.2,485.5,380.7,485.5z M380.7,483.9
	c1,0,1.8-0.6,2.1-1.5c0.7-1.5,0.9-3.2,0.8-4.9c0.1-1.7-0.2-3.3-0.8-4.9c-0.5-1.2-1.8-1.8-3-1.3c-0.6,0.2-1.1,0.7-1.3,1.3
	c-0.7,1.5-0.9,3.2-0.8,4.9c-0.1,1.7,0.2,3.4,0.8,4.9C378.9,483.3,379.8,483.9,380.7,483.9z"/>
<path class="st4" d="M28.4,553.2v-14.5h5c1.3,0,2.6,0.2,3.8,0.8c1.1,0.5,1.7,1.7,1.5,2.8c0,0.7-0.2,1.3-0.5,1.9
	c-0.3,0.6-0.8,1-1.4,1.2v0.1c0.7,0.2,1.4,0.6,1.8,1.1c0.5,0.6,0.8,1.5,0.8,2.3c0.1,1.3-0.5,2.5-1.6,3.2c-1.2,0.7-2.6,1.1-4,1
	L28.4,553.2z M31.6,544.5h1.5c0.6,0.1,1.2-0.1,1.8-0.5c0.4-0.3,0.6-0.8,0.5-1.2c0-1-0.8-1.5-2.3-1.5h-1.6L31.6,544.5z M31.6,550.6
	h1.8c1.8,0,2.7-0.7,2.7-2s-0.9-1.8-2.7-1.8h-1.8L31.6,550.6z"/>
<path class="st4" d="M43.6,553.2v-14.5h3.3v14.5H43.6z"/>
<path class="st4" d="M52.1,553.2v-14.5h3.3l3.8,7.2l1.4,3.2h0.1c-0.1-0.8-0.1-1.6-0.2-2.6c-0.1-0.9-0.1-1.8-0.2-2.7v-5.1h3.1v14.5
	h-3.4l-3.8-7.2l-1.4-3.2h-0.1c0.1,0.8,0.2,1.7,0.3,2.6s0.1,1.8,0.1,2.7v5.1L52.1,553.2z"/>
<path class="st4" d="M76.3,553.2l-0.9-3.4H71l-0.9,3.4h-3.3l4.5-14.5h3.9l4.5,14.5H76.3z M72,545.8l-0.4,1.3h3.1l-0.3-1.3
	c-0.2-0.7-0.4-1.5-0.6-2.3c-0.2-0.8-0.4-1.6-0.6-2.4h-0.1c-0.2,0.8-0.4,1.6-0.5,2.4C72.4,544.3,72.3,545.1,72,545.8L72,545.8z"/>
<path class="st4" d="M86.4,553.2h-3.3v-14.5h5.2c1.4,0,2.7,0.3,3.9,1c1.2,0.8,1.8,2.1,1.7,3.5c0,0.9-0.2,1.8-0.7,2.6
	c-0.5,0.7-1.1,1.2-1.9,1.6l3.3,5.8H91l-2.8-5.2h-1.8L86.4,553.2z M86.4,545.3h1.7c1.8,0,2.7-0.7,2.7-2.2c0.1-0.6-0.2-1.2-0.7-1.5
	c-0.6-0.3-1.3-0.5-2-0.4h-1.7V545.3z"/>
<path class="st4" d="M101.1,553.2V548l-4.4-9.3h3.5l1.3,3.3c0.2,0.6,0.4,1.1,0.6,1.6c0.2,0.5,0.4,1,0.6,1.6h0.1
	c0.2-0.6,0.4-1.1,0.6-1.6s0.4-1,0.6-1.6l1.3-3.3h3.4l-4.4,9.3v5.2L101.1,553.2z"/>
<path d="M396.4,398.8h26.4c3.1,0,5.7,2.5,5.7,5.7v60.2c0,3.1-2.5,5.7-5.7,5.7h-26.4c-3.1,0-5.7-2.5-5.7-5.7v-60.2
	C390.7,401.3,393.2,398.8,396.4,398.8z"/>
<path class="st7" d="M440.8,386.2h69.1c8.7,0,15.7,7,15.7,15.7V471c0,8.7-7,15.7-15.7,15.7h-69.1c-8.7,0-15.7-7-15.7-15.7v-69.1
	C425.1,393.3,432.1,386.2,440.8,386.2z"/>
<path class="st7" d="M441.4,393h67.9c5.3,0,9.6,4.3,9.6,9.6v67.9c0,5.3-4.3,9.6-9.6,9.6h-67.9c-5.3,0-9.6-4.3-9.6-9.6v-67.9
	C431.8,397.2,436.1,393,441.4,393z"/>
<path class="st7" d="M443.6,359.7L443.6,359.7c1.5,0,2.8,1.3,2.8,2.8v12.9c0,1.5-1.3,2.8-2.8,2.8h0c-1.5,0-2.8-1.3-2.8-2.8v-12.9
	C440.8,361,442.1,359.7,443.6,359.7z"/>
<path class="st7" d="M459.7,359.7L459.7,359.7c1.5,0,2.8,1.3,2.8,2.8v12.9c0,1.5-1.3,2.8-2.8,2.8h0c-1.5,0-2.8-1.3-2.8-2.8v-12.9
	C456.9,361,458.2,359.7,459.7,359.7z"/>
<path class="st7" d="M491.8,359.7L491.8,359.7c1.5,0,2.8,1.3,2.8,2.8v12.9c0,1.5-1.3,2.8-2.8,2.8h0c-1.5,0-2.8-1.3-2.8-2.8v-12.9
	C489,361,490.3,359.7,491.8,359.7z"/>
<path class="st7" d="M475.8,359.7L475.8,359.7c1.5,0,2.8,1.3,2.8,2.8v12.9c0,1.5-1.3,2.8-2.8,2.8h0c-1.5,0-2.8-1.3-2.8-2.8v-12.9
	C473,361,474.2,359.7,475.8,359.7z"/>
<path class="st7" d="M507.9,359.7L507.9,359.7c1.5,0,2.8,1.3,2.8,2.8v12.9c0,1.5-1.3,2.8-2.8,2.8h0c-1.5,0-2.8-1.3-2.8-2.8v-12.9
	C505.1,361,506.4,359.7,507.9,359.7z"/>
<path class="st7" d="M443.6,495.9L443.6,495.9c1.5,0,2.8,1.3,2.8,2.8v12.9c0,1.5-1.3,2.8-2.8,2.8h0c-1.5,0-2.8-1.3-2.8-2.8v-12.9
	C440.8,497.2,442.1,495.9,443.6,495.9z"/>
<path class="st7" d="M459.7,495.9L459.7,495.9c1.5,0,2.8,1.3,2.8,2.8v12.9c0,1.5-1.3,2.8-2.8,2.8h0c-1.5,0-2.8-1.3-2.8-2.8v-12.9
	C456.9,497.2,458.2,495.9,459.7,495.9z"/>
<path class="st7" d="M491.8,495.9L491.8,495.9c1.5,0,2.8,1.3,2.8,2.8v12.9c0,1.5-1.3,2.8-2.8,2.8h0c-1.5,0-2.8-1.3-2.8-2.8v-12.9
	C489,497.2,490.3,495.9,491.8,495.9z"/>
<path class="st7" d="M475.8,495.9L475.8,495.9c1.5,0,2.8,1.3,2.8,2.8v12.9c0,1.5-1.3,2.8-2.8,2.8h0c-1.5,0-2.8-1.3-2.8-2.8v-12.9
	C473,497.2,474.2,495.9,475.8,495.9z"/>
<path class="st7" d="M507.9,495.9L507.9,495.9c1.5,0,2.8,1.3,2.8,2.8v12.9c0,1.5-1.3,2.8-2.8,2.8h0c-1.5,0-2.8-1.3-2.8-2.8v-12.9
	C505.1,497.2,506.4,495.9,507.9,495.9z"/>
<path class="st7" d="M553.6,401.5L553.6,401.5c0,1.5-1.3,2.8-2.8,2.8h-12.9c-1.5,0-2.8-1.3-2.8-2.8l0,0c0-1.5,1.3-2.8,2.8-2.8h12.9
	C552.3,398.7,553.6,400,553.6,401.5z"/>
<path class="st7" d="M553.5,417.6L553.5,417.6c0,1.5-1.3,2.8-2.8,2.8h-12.9c-1.5,0-2.8-1.3-2.8-2.8l0,0c0-1.5,1.3-2.8,2.8-2.8h12.9
	C552.3,414.8,553.5,416.1,553.5,417.6z"/>
<path class="st7" d="M553.5,449.8L553.5,449.8c0,1.5-1.3,2.8-2.8,2.8h-12.9c-1.5,0-2.8-1.3-2.8-2.8l0,0c0-1.5,1.3-2.8,2.8-2.8h12.9
	C552.3,447,553.5,448.2,553.5,449.8z"/>
<path class="st7" d="M553.5,433.7L553.5,433.7c0,1.5-1.3,2.8-2.8,2.8h-12.9c-1.5,0-2.8-1.3-2.8-2.8l0,0c0-1.5,1.3-2.8,2.8-2.8h12.9
	C552.3,430.9,553.5,432.2,553.5,433.7z"/>
<path class="st7" d="M553.5,465.8L553.5,465.8c0,1.5-1.3,2.8-2.8,2.8h-12.9c-1.5,0-2.8-1.3-2.8-2.8l0,0c0-1.5,1.3-2.8,2.8-2.8h12.9
	C552.3,463,553.5,464.3,553.5,465.8z"/>
<path class="st7" d="M415.6,401.6L415.6,401.6c0,1.5-1.3,2.8-2.8,2.8h-12.9c-1.5,0-2.8-1.3-2.8-2.8v0c0-1.5,1.3-2.8,2.8-2.8h12.9
	C414.3,398.8,415.6,400,415.6,401.6z"/>
<path class="st7" d="M415.6,417.6L415.6,417.6c0,1.5-1.3,2.8-2.8,2.8h-12.9c-1.5,0-2.8-1.3-2.8-2.8v0c0-1.5,1.3-2.8,2.8-2.8h12.9
	C414.3,414.8,415.6,416.1,415.6,417.6z"/>
<path class="st7" d="M415.6,449.8L415.6,449.8c0,1.5-1.3,2.8-2.8,2.8h-12.9c-1.5,0-2.8-1.3-2.8-2.8v0c0-1.5,1.3-2.8,2.8-2.8h12.9
	C414.4,447,415.6,448.2,415.6,449.8z"/>
<path class="st7" d="M415.6,433.7L415.6,433.7c0,1.5-1.3,2.8-2.8,2.8h-12.9c-1.5,0-2.8-1.3-2.8-2.8v0c0-1.5,1.3-2.8,2.8-2.8h12.9
	C414.3,430.9,415.6,432.2,415.6,433.7z"/>
<path class="st7" d="M415.6,465.8L415.6,465.8c0,1.5-1.3,2.8-2.8,2.8h-12.9c-1.5,0-2.8-1.3-2.8-2.8v0c0-1.5,1.3-2.8,2.8-2.8h12.9
	C414.4,463,415.6,464.3,415.6,465.8z"/>
<path class="st3" d="M460.5,429.3c-2.1,0-4.1-0.8-5.5-2.4c-1.5-1.9-2.3-4.3-2.2-6.7c-0.1-2.4,0.7-4.8,2.2-6.6
	c1.4-1.6,3.4-2.5,5.5-2.4c1,0,1.9,0.2,2.8,0.6c0.7,0.4,1.4,0.9,2,1.5l-1.2,1.4c-0.4-0.5-1-0.9-1.6-1.2c-0.6-0.3-1.3-0.5-2-0.5
	c-1.6-0.1-3.1,0.7-4,1.9c-1.1,1.5-1.6,3.3-1.5,5.2c-0.1,1.9,0.4,3.7,1.5,5.2c1.5,1.9,4.1,2.5,6.2,1.4c0.7-0.4,1.3-0.9,1.8-1.5
	l1.2,1.4c-0.7,0.8-1.5,1.4-2.4,1.9C462.6,429.1,461.6,429.3,460.5,429.3z"/>
<path class="st3" d="M469.2,429v-17.5h5c1.7-0.1,3.3,0.3,4.8,1.1c1.2,0.8,1.8,2.1,1.8,4c0.1,1.6-0.6,3.1-1.8,4.1
	c-1.4,0.9-3,1.4-4.7,1.3h-2.9v7H469.2z M471.4,420.2h2.6c3,0,4.5-1.2,4.5-3.6c0.1-1-0.3-2-1.2-2.6c-1.1-0.6-2.3-0.8-3.5-0.7h-2.5
	V420.2z"/>
<path class="st3" d="M490.5,429.3c-1.7,0.1-3.3-0.5-4.5-1.7c-1.2-1.1-1.8-3.1-1.8-5.9v-10.3h2.2v10.3c0,2.1,0.4,3.6,1.2,4.4
	c0.8,0.8,1.8,1.2,2.9,1.2c1.1,0,2.2-0.4,2.9-1.2c0.8-0.8,1.2-2.2,1.2-4.4v-10.3h2.1v10.3c0,2.8-0.6,4.8-1.8,5.9
	C493.8,428.8,492.1,429.4,490.5,429.3z"/>
<path class="st3" d="M474.4,444v-5.2h-4.9v-1.7h4.9v-5.2h1.7v5.2h4.8v1.7h-4.9v5.2H474.4z"/>
<path class="st3" d="M460.4,464.9c-1.2,0-2.3-0.2-3.4-0.7c-1-0.5-1.9-1.1-2.7-1.9l1.3-1.5c0.6,0.7,1.4,1.2,2.2,1.6
	c0.8,0.4,1.7,0.6,2.6,0.6c1,0.1,1.9-0.2,2.7-0.8c0.6-0.5,1-1.3,1-2.1c0.1-0.7-0.2-1.5-0.8-1.9c-0.7-0.5-1.3-0.8-2.1-1.2l-2.5-1.1
	c-0.9-0.4-1.7-0.9-2.4-1.5c-0.8-0.8-1.2-1.9-1.1-3c0-1.3,0.6-2.5,1.6-3.3c1.1-0.9,2.5-1.4,3.9-1.3c1,0,2,0.2,2.9,0.6
	c0.9,0.4,1.6,0.9,2.3,1.6l-1.2,1.4c-0.5-0.5-1.1-0.9-1.8-1.2c-0.7-0.3-1.4-0.5-2.2-0.4c-0.8,0-1.7,0.2-2.4,0.7
	c-0.6,0.4-0.9,1.1-0.9,1.9c0,0.7,0.3,1.5,0.9,1.9c0.6,0.4,1.3,0.7,2,1l2.5,1.1c1,0.4,1.8,1,2.6,1.7c0.7,0.8,1.1,1.9,1,3
	c0,1.4-0.6,2.7-1.6,3.5C463.5,464.4,462,465,460.4,464.9z"/>
<path class="st3" d="M476.6,464.9c-2.2,0.1-4.2-0.8-5.7-2.4c-1.6-1.9-2.4-4.2-2.2-6.7c-0.1-2.4,0.7-4.8,2.3-6.6
	c1.5-1.6,3.6-2.5,5.8-2.4c1.1,0,2.1,0.2,3.1,0.7c0.7,0.4,1.4,0.9,2,1.5l-1.2,1.4c-0.5-0.5-1-0.8-1.6-1.2c-0.7-0.4-1.4-0.5-2.2-0.5
	c-1.6-0.1-3.2,0.6-4.2,1.9c-1.1,1.5-1.7,3.3-1.6,5.2c-0.1,1.9,0.4,3.7,1.5,5.2c1,1.3,2.6,2,4.3,1.9c1.1,0.1,2.3-0.3,3.1-1v-4.6h-3.7
	v-1.9h5.7v7.4c-0.6,0.6-1.4,1.1-2.2,1.5C478.8,464.7,477.7,464.9,476.6,464.9z"/>
<path class="st3" d="M484.2,464.6l5.1-9l-4.8-8.5h2.4l2.4,4.5c0.2,0.4,0.5,0.8,0.6,1.2l0.7,1.4h0.1l0.7-1.4c0.2-0.4,0.4-0.8,0.6-1.2
	l2.3-4.5h2.4l-4.8,8.6l5.1,8.9h-2.5l-2.6-4.7l-0.7-1.3l-0.8-1.5h-0.1c-0.2,0.5-0.5,1-0.7,1.5l-0.7,1.3l-2.5,4.7H484.2z"/>
<line class="st5" x1="174.6" y1="84.4" x2="251.1" y2="84.4"/>
<polyline class="st5" points="246,80.2 251.1,84.5 246,88.7 "/>
<polyline class="st5" points="75.1,320.2 70.8,325.3 66.5,320.2 "/>
<line class="st5" x1="166.8" y1="437.1" x2="243.3" y2="437.1"/>
<polyline class="st5" points="238.2,432.8 243.3,437.1 238.2,441.4 "/>
<polyline class="st5" points="542.9,217.6 542.9,281.9 70.8,281.9 70.8,325.3 "/>
<path class="st4" d="M296.5,232.5c-0.9-1.5-1.6-3.1-2.2-4.8c-1-3.6-1-7.3,0-10.9c0.5-1.7,1.3-3.3,2.2-4.8l2.1,0.9
	c-0.8,1.4-1.4,3-1.8,4.6c-0.7,3.1-0.7,6.4,0,9.6c0.4,1.6,1,3.2,1.8,4.6L296.5,232.5z"/>
<path class="st4" d="M303.2,228.5v-14.6h5c1.4,0,2.9,0.3,4.1,1c1.2,0.8,1.8,2.2,1.7,3.7c0.1,1.5-0.5,2.9-1.7,3.8
	c-1.2,0.8-2.6,1.2-4,1.2h-1.8v4.9L303.2,228.5z M306.4,220.9h1.6c1.8,0,2.7-0.8,2.7-2.3c0.1-0.6-0.2-1.2-0.7-1.6
	c-0.6-0.3-1.3-0.5-2.1-0.5h-1.5V220.9z"/>
<path class="st4" d="M324.2,228.8c-1.8,0.1-3.6-0.7-4.8-2c-1.3-1.6-1.9-3.6-1.8-5.6c-0.1-2,0.5-4,1.8-5.5c2.7-2.6,6.9-2.6,9.6,0
	c1.3,1.5,2,3.5,1.8,5.5c0.1,2-0.5,4-1.8,5.6C327.8,228.1,326,228.8,324.2,228.8z M324.2,225.9c1,0,1.9-0.5,2.4-1.3
	c0.6-1.1,0.9-2.3,0.9-3.5c0.1-1.2-0.2-2.4-0.9-3.4c-0.9-1.3-2.7-1.6-4-0.7c-0.3,0.2-0.5,0.4-0.7,0.7c-0.6,1-0.9,2.2-0.9,3.4
	c-0.1,1.2,0.2,2.4,0.9,3.5C322.3,225.5,323.2,225.9,324.2,225.9L324.2,225.9z"/>
<path class="st4" d="M338.6,228.5h-3.3v-14.6h5.3c1.4,0,2.8,0.3,4,1c1.1,0.6,1.6,1.8,1.6,3.6c0,0.9-0.2,1.9-0.7,2.6
	c-0.5,0.7-1.1,1.2-1.9,1.6l3.3,5.8h-3.7l-2.8-5.2h-1.9V228.5z M338.6,220.6h1.7c1.8,0,2.7-0.7,2.7-2.2c0.1-0.6-0.2-1.2-0.7-1.5
	c-0.6-0.3-1.3-0.5-2-0.4h-1.7V220.6z"/>
<path class="st4" d="M353.7,228.5v-11.8h-4v-2.8H361v2.8h-4v11.8H353.7z"/>
<path class="st4" d="M365.1,228.5v-14.6h9.1v2.8h-5.8v2.9h5v2.8h-5v3.4h6.1v2.8H365.1z"/>
<path class="st4" d="M328.8,255.5v-11.8h-4v-2.8h11.3v2.8h-4v11.8H328.8z"/>
<path class="st4" d="M356.2,240.9v11.8h5v2.8h-8.3l0-14.6H356.2z"/>
<path class="st4" d="M339.4,255.5v-14.6h9.1v2.8h-5.8v2.9h5v2.8h-5v3.4h6.1v2.8H339.4z"/>
<path class="st4" d="M379.1,228.5v-14.6h4.1c1.9-0.1,3.8,0.5,5.3,1.7c1.3,1.2,2,3,2,5.5c0,2.5-0.6,4.4-2,5.6
	c-1.4,1.2-3.3,1.9-5.2,1.8L379.1,228.5z M382.4,225.8h0.6c1.1,0.1,2.2-0.3,3-1c0.8-0.7,1.1-1.9,1.1-3.6s-0.4-2.9-1.1-3.6
	c-0.8-0.7-1.9-1-3-1h-0.6V225.8z"/>
<path class="st4" d="M402.2,227.9v-11.8h-4v-2.7h11.3v2.8h-4v11.8L402.2,227.9z"/>
<path class="st4" d="M419.5,228.2c-1.8,0.1-3.6-0.7-4.8-2c-1.3-1.6-2-3.6-1.8-5.6c-0.1-2,0.5-4,1.8-5.5c2.7-2.6,6.9-2.6,9.6,0
	c1.3,1.5,2,3.5,1.8,5.5c0.1,2-0.5,4-1.8,5.6C423.1,227.5,421.3,228.2,419.5,228.2z M419.5,225.3c1,0,1.9-0.5,2.4-1.3
	c0.6-1.1,0.9-2.3,0.9-3.5c0.1-1.2-0.2-2.4-0.9-3.4c-0.9-1.3-2.7-1.6-4-0.7c-0.3,0.2-0.5,0.4-0.7,0.7c-0.6,1-0.9,2.2-0.9,3.4
	c-0.1,1.2,0.2,2.4,0.9,3.5C417.7,224.9,418.6,225.4,419.5,225.3L419.5,225.3z"/>
<path class="st4" d="M374.1,255.6c-1,0-1.9-0.2-2.9-0.5c-0.9-0.3-1.8-0.9-2.5-1.6l1.9-2.2c0.5,0.4,1.1,0.8,1.7,1.1
	c0.6,0.3,1.2,0.4,1.9,0.5c1.4,0,2-0.5,2-1.4c0-0.4-0.2-0.8-0.6-1c-0.5-0.3-1-0.5-1.5-0.7l-1.9-0.9c-0.8-0.3-1.4-0.8-2-1.4
	c-0.6-0.7-1-1.6-0.9-2.6c0-1.2,0.5-2.3,1.5-3.1c1-0.9,2.4-1.3,3.7-1.3c0.9,0,1.7,0.2,2.5,0.5c0.8,0.3,1.6,0.8,2.2,1.4l-1.7,2.1
	c-0.4-0.3-0.9-0.6-1.4-0.9c-0.5-0.2-1-0.3-1.6-0.3c-0.5,0-0.9,0.1-1.4,0.4c-0.3,0.2-0.5,0.6-0.5,1c0,0.4,0.2,0.8,0.6,1
	c0.5,0.3,1,0.5,1.6,0.7l1.9,0.8c0.8,0.3,1.5,0.8,2.1,1.5c0.5,0.7,0.8,1.6,0.8,2.5c0,1.2-0.5,2.4-1.4,3.2
	C377.1,255.2,375.6,255.7,374.1,255.6z"/>
<path class="st4" d="M390.3,255.6c-3.8,0.2-7-2.8-7.2-6.5c0-0.3,0-0.6,0-0.9c0-1.4,0.3-2.9,1-4.1c0.6-1.1,1.5-2,2.6-2.6
	c1.1-0.6,2.3-0.9,3.6-0.9c0.9,0,1.9,0.2,2.7,0.6c0.7,0.3,1.3,0.8,1.9,1.3l-1.7,2.1c-0.4-0.3-0.8-0.6-1.2-0.8c-0.5-0.2-1-0.3-1.6-0.3
	c-1.1,0-2.1,0.4-2.8,1.2c-0.8,1-1.2,2.2-1.1,3.4c-0.1,1.2,0.3,2.5,1,3.5c0.8,0.9,1.9,1.3,3.1,1.2c0.6,0,1.1-0.1,1.6-0.4v-2.5h-2.4
	v-2.7h5.3v6.7c-0.6,0.5-1.3,1-2,1.2C392.3,255.4,391.3,255.6,390.3,255.6z"/>
<path class="st4" d="M398.5,255.3l4-7.5l-3.8-7.1h3.7l1.3,2.8c0.2,0.3,0.3,0.7,0.5,1.1l0.6,1.3h0.1c0.2-0.5,0.3-0.9,0.5-1.3
	s0.3-0.7,0.5-1.1l1.2-2.8h3.5l-3.8,7.2l4,7.3h-3.7l-1.5-3c-0.2-0.4-0.4-0.8-0.5-1.1s-0.4-0.8-0.6-1.2h-0.1c-0.2,0.4-0.3,0.9-0.5,1.2
	s-0.3,0.8-0.5,1.1l-1.4,3H398.5z"/>
<path class="st4" d="M415.8,259.3l-2-0.9c0.8-1.4,1.4-3,1.8-4.6c0.7-3.1,0.7-6.4,0-9.6c-0.4-1.6-1-3.2-1.8-4.6l2-0.9
	c0.9,1.5,1.7,3.1,2.2,4.8c1,3.5,1,7.3,0,10.9C417.5,256.2,416.8,257.8,415.8,259.3z"/>
<path class="st4" d="M301.7,255.5v-14.6h3.3v14.6H301.7z"/>
<path class="st4" d="M310.1,255.5v-14.6h3.4l3.8,7.2l1.4,3.2h0.1c-0.1-0.8-0.1-1.6-0.2-2.6c-0.1-0.9-0.2-1.8-0.2-2.7v-5.1h3.1v14.6
	h-3.4l-3.8-7.3L313,245h-0.1c0.1,0.8,0.2,1.7,0.3,2.6c0.1,0.9,0.1,1.8,0.2,2.7v5.2H310.1z"/>
</svg>
